<?xml version="1.0" encoding="utf-8"?>
<!-- Generator: Adobe Illustrator 21.1.0, SVG Export Plug-In . SVG Version: 6.00 Build 0)  -->
<svg version="1.1" id="Layer_1" xmlns="http://www.w3.org/2000/svg" xmlns:xlink="http://www.w3.org/1999/xlink" x="0px" y="0px"
	 viewBox="0 0 2240 2240" enable-background="new 0 0 2240 2240" xml:space="preserve">
<rect fill="#FFFFFF" width="2240" height="2240"/>
<rect x="416" y="496" display="none" fill="#DFDFDF" width="1408" height="1408"/>
<rect x="96" y="176" display="none" fill="#FAFAFA" width="1024" height="1024"/>
<g display="none">
	<rect x="96" y="1136" display="inline" fill="#FFCC00" width="2048" height="128"/>
	<rect x="96" y="1296" display="inline" fill="#FFCC00" width="2048" height="128"/>
	<rect x="96" y="976" display="inline" fill="#FFCC00" width="2048" height="128"/>
	<rect x="96" y="816" display="inline" fill="#FFCC00" width="2048" height="128"/>
	<rect x="96" y="1776" display="inline" fill="#FFCC00" width="2048" height="128"/>
	<rect x="96" y="1936" display="inline" fill="#FFCC00" width="2048" height="128"/>
	<rect x="96" y="2096" display="inline" fill="#FFCC00" width="2048" height="128"/>
	<rect x="96" y="2256" display="inline" fill="#FFCC00" width="2048" height="128"/>
	<rect x="96" y="1616" display="inline" fill="#FFCC00" width="2048" height="128"/>
	<rect x="96" y="1456" display="inline" fill="#FFCC00" width="2048" height="128"/>
	<rect x="96" y="656" display="inline" fill="#FFCC00" width="2048" height="128"/>
	<rect x="96" y="496" display="inline" fill="#FFCC00" width="2048" height="128"/>
	<rect x="96" y="336" display="inline" fill="#FFCC00" width="2048" height="128"/>
	<rect x="96" y="176" display="inline" fill="#FFCC00" width="2048" height="128"/>
	<rect x="96" y="16" display="inline" fill="#FFCC00" width="2048" height="128"/>
</g>
<path display="none" d="M1003.8,976.8c21.2-21.2,49.3-32.8,79.2-32.8h36.5h128c29.9,0,58,11.7,79.2,32.8l127.2,127.2l32,32h22.6
	H2144v-32h-644.9l-149.8-149.8C1322.1,927,1286,912,1247.5,912h-128H1083h-91c-38.5,0-74.6,15-101.8,42.2L740.4,1104H96v32h635h22.6
	l32-32l127.2-127.2C934,955.6,962.1,944,992,944h0.5c-3.9,3.2-7.7,6.6-11.3,10.2l-30.9,30.9c-15.2,15.2-23.5,35.2-23.5,56.6
	c0,21.4,8.4,41.4,23.5,56.6c15.2,15.2,35.2,23.5,56.6,23.5s41.4-8.4,56.6-23.5l26.2-26.2H1241l3.6,3.5l169.7,169.7l0,0l0,0
	c5.4,5.4,8.6,12.4,9.3,20.1c0.3,3.6,0,7.2-0.9,10.7l0,0c-1.4,5.5-4.3,10.5-8.3,14.5c-12.5,12.5-32.8,12.5-45.3,0l-101.8-101.8
	c-6.2-6.2-16.4-6.2-22.6,0c-6.2,6.2-6.2,16.4,0,22.6l101.8,101.8c12.5,12.5,12.5,32.8,0,45.3c-6,6-14.1,9.3-22.6,9.3
	s-16.6-3.3-22.6-9.3l-101.8-101.8c-6.2-6.2-16.4-6.2-22.6,0s-6.2,16.4,0,22.6l101.5,101.7c6,6,9.3,14.1,9.3,22.6s-3.3,16.6-9.3,22.6
	c-12.5,12.5-32.8,12.5-45.3,0l-65.8-65.8c-0.6-0.7-1.3-1.4-2-2.1s-1.4-1.3-2.1-2l-31.9-31.9c-4.6-4.6-11.2-5.8-16.9-3.7
	c-2.6-11.1-8.3-21.7-17-30.3c-12.1-12.1-28.1-18.7-45.3-18.7c-1.4,0-2.7,0.1-4.1,0.1c0.1-1.3,0.1-2.7,0.1-4.1
	c0-17.1-6.6-33.2-18.7-45.3c-13.5-13.5-31.6-19.7-49.3-18.6c1.1-17.7-5.1-35.8-18.6-49.3c-12.1-12.1-28.1-18.7-45.3-18.7
	s-33.2,6.6-45.3,18.7l-67.9,67.9c-10.7,10.7-17.3,25-18.5,40.1c0,0.4-0.1,0.9-0.1,1.3H96v32h694.9c3.1,6.3,7.2,12.1,12.3,17.1
	c12.1,12.1,28.1,18.7,45.3,18.7c1.4,0,2.7-0.1,4.1-0.1c-1.1,17.7,5.1,35.8,18.6,49.3c12.1,12.1,28.1,18.7,45.3,18.7
	c1.4,0,2.7-0.1,4.1-0.1c-0.1,1.3-0.1,2.7-0.1,4.1c0,17.1,6.6,33.2,18.7,45.3c12.5,12.5,28.9,18.7,45.3,18.7c1.4,0,2.7-0.1,4.1-0.1
	c-1.1,17.7,5.1,35.8,18.6,49.3c12.4,12.4,28.8,18.7,45.2,18.7s32.8-6.2,45.3-18.7l22.6-22.6l22.5,22.6l0,0l0,0
	c12.1,12.1,28.1,18.7,45.3,18.7s33.2-6.6,45.3-18.7c13.5-13.5,19.7-31.6,18.6-49.3c1.3,0.1,2.7,0.1,4.1,0.1
	c17.1,0,33.2-6.6,45.3-18.7c12.1-12.1,18.7-28.1,18.7-45.3c0-1.4-0.1-2.7-0.1-4.1c1.3,0.1,2.7,0.1,4.1,0.1
	c17.1,0,33.2-6.6,45.3-18.7c12.1-12.1,18.7-28.1,18.7-45.3c0-1.4-0.1-2.7-0.1-4.1c1.4,0.1,2.7,0.1,4.1,0.1
	c16.4,0,32.7-6.2,45.2-18.7c5-5,9.2-10.8,12.3-17.2H2144v-32h-688.6c0-0.4,0-0.9-0.1-1.3l0,0c-1.2-15.2-7.8-29.4-18.5-40.1l0,0
	l-169.7-169.7l0,0l0,0l-8.3-8.2c-0.1-0.1-0.2-0.2-0.4-0.3c-0.3-0.2-0.5-0.5-0.8-0.7c-0.2-0.2-0.4-0.3-0.6-0.4
	c-0.2-0.2-0.4-0.3-0.7-0.5c-0.2-0.2-0.5-0.3-0.7-0.4c-0.2-0.1-0.4-0.3-0.6-0.4c-0.2-0.1-0.5-0.2-0.7-0.4c-0.2-0.1-0.5-0.2-0.7-0.3
	s-0.5-0.2-0.7-0.3c-0.2-0.1-0.5-0.2-0.7-0.3s-0.5-0.1-0.8-0.2c-0.3-0.1-0.5-0.1-0.8-0.2c-0.3-0.1-0.6-0.1-0.8-0.1
	c-0.2,0-0.5-0.1-0.7-0.1c-0.4,0-0.7,0-1.1-0.1c-0.2,0-0.3,0-0.5,0H1083c-0.5,0-1.1,0-1.6,0.1c-0.2,0-0.5,0.1-0.7,0.1
	c-0.3,0-0.6,0.1-0.9,0.1c-0.3,0.1-0.5,0.1-0.8,0.2c-0.2,0.1-0.5,0.1-0.7,0.2c-0.3,0.1-0.5,0.2-0.7,0.3c-0.2,0.1-0.5,0.2-0.7,0.3
	c-0.2,0.1-0.5,0.2-0.7,0.3c-0.2,0.1-0.5,0.2-0.7,0.4c-0.2,0.1-0.4,0.3-0.6,0.4c-0.2,0.1-0.5,0.3-0.7,0.4c-0.2,0.2-0.5,0.3-0.7,0.5
	c-0.2,0.1-0.4,0.3-0.6,0.4c-0.4,0.3-0.8,0.7-1.2,1.1l-30.9,30.9c-9.1,9.1-21.2,14.1-33.9,14.1s-24.8-5-33.9-14.1
	c-9.1-9.1-14.1-21.2-14.1-33.9c0-12.7,5-24.8,14.1-33.9L1003.8,976.8z M848.5,1299.8c-8.6,0-16.6-3.3-22.7-9.4
	c-4-4-6.9-8.9-8.3-14.4c-0.9-3.5-1.2-7.1-0.9-10.7c0.6-7.7,3.8-14.7,9.3-20.1l67.9-67.9c6-6,14.1-9.3,22.6-9.3
	c8.6,0,16.6,3.3,22.6,9.3c12.5,12.5,12.5,32.8,0,45.3l-67.9,67.9C865.1,1296.5,857,1299.8,848.5,1299.8z M916.4,1367.7
	c-8.6,0-16.6-3.3-22.6-9.3l0,0c-12.5-12.5-12.5-32.8,0-45.3l67.9-67.9l0,0c12.5-12.5,32.8-12.5,45.3,0c6,6,9.3,14.1,9.3,22.6
	s-3.3,16.6-9.3,22.6l-67.9,67.9C933,1364.4,924.9,1367.7,916.4,1367.7z M1006.9,1426.3c-12.5,12.5-32.8,12.5-45.3,0
	c-6-6-9.3-14.1-9.3-22.6s3.3-16.6,9.3-22.6l67.9-67.9c6-6,14.1-9.3,22.6-9.3s16.6,3.3,22.6,9.3c12.5,12.5,12.5,32.8,0,45.3
	L1006.9,1426.3L1006.9,1426.3z M1109.7,1459.3c-0.3,0.3-0.7,0.6-1,0.9c-0.3,0.3-0.7,0.7-1,1.1l-32.9,32.9
	c-12.5,12.5-32.9,12.5-45.3,0c-12.5-12.5-12.5-32.8,0-45.3l67.9-67.9c6-6,14.1-9.3,22.6-9.3c7.9,0,15.3,2.8,21.2,8l2.9,2.9
	c5.1,5.8,8,13.3,8,21.2c0,8.6-3.3,16.6-9.3,22.6L1109.7,1459.3z M1210.5,1494.2c-6,6-14.1,9.3-22.6,9.3s-16.6-3.3-22.6-9.3l0,0
	l-22.5-22.6l22.7-22.7c8.1-8.1,13.7-17.9,16.5-28.6l28.6,28.6C1223,1461.4,1223,1481.7,1210.5,1494.2z"/>
<g display="none">
	<rect x="96" y="1776" display="inline" fill="#FFCC00" width="2048" height="128"/>
	<rect x="96" y="1936" display="inline" fill="#FFCC00" width="2048" height="128"/>
	<path display="inline" fill="#FFCC00" d="M1255.8,1467.6c-1.4,0-2.7-0.1-4.1-0.1c1.1,17.7-5.1,35.8-18.6,49.3
		c-12.1,12.1-28.1,18.7-45.3,18.7s-33.2-6.6-45.3-18.7l0,0l0,0l-22.5-22.6l-22.6,22.6c-12.5,12.4-28.9,18.7-45.3,18.7
		c-16.4,0-32.8-6.2-45.2-18.7c-13.5-13.5-19.7-31.6-18.6-49.3c-1.4,0.1-2.7,0.1-4.1,0.1c-12.9,0-25.8-3.9-36.8-11.6H96v128h2048
		v-128h-851.4C1281.9,1463.5,1269.1,1467.6,1255.8,1467.6z"/>
	<rect x="96" y="1616" display="inline" fill="#FFCC00" width="2048" height="128"/>
	<polygon display="inline" fill="#FFCC00" points="868.4,976 96,976 96,1104 740.4,1104 	"/>
	<rect x="96" y="2096" display="inline" fill="#FFCC00" width="2048" height="128"/>
	<path display="inline" fill="#FFCC00" d="M920.3,1403.7c0-1.4,0.1-2.7,0.1-4.1c-1.3,0.1-2.7,0.1-4.1,0.1
		c-17.1,0-33.2-6.6-45.3-18.7c-13.5-13.5-19.7-31.6-18.6-49.3c-1.3,0.1-2.7,0.1-4.1,0.1c-17.1,0-33.2-6.6-45.3-18.7
		c-5-5-9.2-10.8-12.3-17.1H96v128h827.6C921.4,1417.5,920.3,1410.7,920.3,1403.7z"/>
	<polygon display="inline" fill="#FFCC00" points="1499.1,1104 2144,1104 2144,976 1371.1,976 	"/>
	<rect x="96" y="336" display="inline" fill="#FFCC00" width="2048" height="128"/>
	<path display="inline" fill="#FFCC00" d="M1436.8,1313.2c-12.4,12.4-28.8,18.7-45.2,18.7c-1.4,0-2.7-0.1-4.1-0.1
		c0.1,1.3,0.1,2.7,0.1,4.1c0,17.1-6.6,33.2-18.7,45.3c-12.1,12.1-28.1,18.7-45.3,18.7c-1.4,0-2.7-0.1-4.1-0.1
		c0.1,1.3,0.1,2.7,0.1,4.1c0,7-1.1,13.9-3.3,20.3H2144V1296h-694.9C1446,1302.4,1441.8,1308.2,1436.8,1313.2z"/>
	<rect x="96" y="176" display="inline" fill="#FFCC00" width="2048" height="128"/>
	<rect x="96" y="496" display="inline" fill="#FFCC00" width="2048" height="128"/>
	<rect x="96" y="656" display="inline" fill="#FFCC00" width="2048" height="128"/>
	<path display="inline" fill="#FFCC00" d="M96,944h805.5c25.6-20.7,57.2-32,90.5-32h91h36.5h128c33.3,0,65,11.3,90.5,32h806V816H96
		V944z"/>
</g>
<g display="none">
	<path display="inline" fill="#5A5A5A" d="M939,1177.3c-6-6-14.1-9.3-22.6-9.3c-8.6,0-16.6,3.3-22.6,9.3l-67.9,67.9
		c-5.4,5.4-8.6,12.4-9.3,20.1c-0.3,3.6,0,7.2,0.9,10.7c1.4,5.5,4.3,10.5,8.3,14.4c6.1,6.1,14.1,9.4,22.7,9.4s16.6-3.3,22.6-9.3
		l67.9-67.9C951.5,1210.1,951.5,1189.8,939,1177.3z"/>
	<path display="inline" fill="#5A5A5A" d="M1074.8,1494.2l32.9-32.9c0.3-0.4,0.6-0.7,1-1.1c0.3-0.3,0.7-0.6,1-0.9l33-33
		c6-6,9.3-14.1,9.3-22.6c0-7.9-2.8-15.3-8-21.2l-2.9-2.9c-5.8-5.1-13.3-8-21.2-8c-8.6,0-16.6,3.3-22.6,9.3l-67.9,67.9
		c-12.5,12.5-12.5,32.8,0,45.3C1042,1506.6,1062.3,1506.6,1074.8,1494.2z"/>
	<path display="inline" fill="#5A5A5A" d="M1006.9,1426.3L1006.9,1426.3l67.9-67.9c12.5-12.5,12.5-32.8,0-45.3
		c-6-6-14.1-9.3-22.6-9.3s-16.6,3.3-22.6,9.3l-67.9,67.9c-6,6-9.3,14.1-9.3,22.6s3.3,16.6,9.3,22.6
		C974.1,1438.8,994.4,1438.8,1006.9,1426.3z"/>
	<path display="inline" fill="#5A5A5A" d="M916.4,1367.7c8.6,0,16.6-3.3,22.6-9.3l67.9-67.9c6-6,9.3-14.1,9.3-22.6
		s-3.3-16.6-9.3-22.6c-12.5-12.5-32.8-12.5-45.3,0l0,0l-67.9,67.9c-12.5,12.5-12.5,32.8,0,45.3l0,0
		C899.7,1364.4,907.8,1367.7,916.4,1367.7z"/>
	<path display="inline" fill="#5A5A5A" d="M784.7,1262.7c1.2-15.2,7.8-29.4,18.5-40.1l67.9-67.9c12.1-12.1,28.1-18.7,45.3-18.7
		s33.2,6.6,45.3,18.7c13.5,13.5,19.7,31.6,18.6,49.3c17.7-1.1,35.8,5.1,49.3,18.6c12.1,12.1,18.7,28.1,18.7,45.3
		c0,1.4-0.1,2.7-0.1,4.1c1.3-0.1,2.7-0.1,4.1-0.1c17.1,0,33.2,6.6,45.3,18.7c8.7,8.7,14.3,19.2,17,30.3c5.7-2.1,12.4-0.9,16.9,3.7
		l31.9,31.9c0.7,0.6,1.4,1.3,2.1,2s1.3,1.4,2,2.1l65.8,65.8c12.5,12.5,32.8,12.5,45.3,0c6-6,9.3-14.1,9.3-22.6s-3.3-16.6-9.3-22.6
		l-101.8-101.8c-6.2-6.2-6.2-16.4,0-22.6s16.4-6.2,22.6,0l101.6,101.6c6,6,14.1,9.3,22.6,9.3s16.6-3.3,22.6-9.3
		c12.5-12.5,12.5-32.8,0-45.3l-101.8-101.8c-6.2-6.2-6.2-16.4,0-22.6c6.2-6.2,16.4-6.2,22.6,0l101.8,101.8
		c12.5,12.5,32.8,12.5,45.3,0c4-4,6.9-9,8.3-14.5l0,0c0.9-3.5,1.2-7.1,0.9-10.7c-0.6-7.7-3.8-14.7-9.3-20.1l0,0l0,0l-169.7-169.7
		l-3.6-3.5h-151.3l-26.2,26.2c-15.2,15.2-35.2,23.5-56.6,23.5s-41.4-8.4-56.6-23.5c-15.2-15.2-23.5-35.2-23.5-56.6
		c0-21.4,8.4-41.4,23.5-56.6l30.9-30.9c3.6-3.6,7.4-7,11.3-10.2h-0.5c-29.9,0-58,11.7-79.2,32.8L785.6,1104l-32,32H731H96v128h688.6
		C784.6,1263.6,784.6,1263.1,784.7,1262.7z"/>
	<path display="inline" fill="#5A5A5A" d="M1165.2,1494.2c6,6,14.1,9.3,22.6,9.3s16.6-3.3,22.6-9.3c12.5-12.5,12.5-32.8,0-45.3
		l-28.6-28.6c-2.9,10.7-8.5,20.6-16.5,28.6l-22.7,22.7L1165.2,1494.2L1165.2,1494.2z"/>
	<path display="inline" fill="#5A5A5A" d="M1485.9,1136l-32-32l-127.2-127.2c-21.2-21.2-49.3-32.8-79.2-32.8h-128H1083
		c-29.9,0-58,11.7-79.2,32.8l-30.9,30.9c-9.1,9.1-14.1,21.2-14.1,33.9s5,24.8,14.1,33.9c9.1,9.1,21.2,14.1,33.9,14.1
		s24.8-5,33.9-14.1l30.9-30.9c0.4-0.4,0.8-0.7,1.2-1.1c0.2-0.1,0.4-0.3,0.6-0.4c0.2-0.2,0.5-0.4,0.7-0.5c0.2-0.2,0.5-0.3,0.7-0.4
		c0.2-0.1,0.4-0.3,0.6-0.4c0.2-0.1,0.5-0.2,0.7-0.4c0.2-0.1,0.5-0.2,0.7-0.3c0.2-0.1,0.5-0.2,0.7-0.3c0.2-0.1,0.5-0.2,0.7-0.3
		c0.2-0.1,0.5-0.1,0.7-0.2c0.3-0.1,0.5-0.1,0.8-0.2c0.3-0.1,0.6-0.1,0.9-0.1c0.2,0,0.4-0.1,0.7-0.1c0.5-0.1,1.1-0.1,1.6-0.1h164.5
		c0.2,0,0.3,0,0.5,0c0.4,0,0.7,0,1.1,0.1c0.2,0,0.5,0.1,0.7,0.1c0.3,0,0.6,0.1,0.8,0.1c0.3,0.1,0.5,0.1,0.8,0.2s0.5,0.1,0.8,0.2
		c0.3,0.1,0.5,0.2,0.7,0.3s0.5,0.2,0.7,0.3c0.2,0.1,0.5,0.2,0.7,0.3s0.5,0.2,0.7,0.4c0.2,0.1,0.4,0.3,0.6,0.4
		c0.2,0.1,0.5,0.3,0.7,0.4c0.2,0.2,0.4,0.3,0.7,0.5c0.2,0.1,0.4,0.3,0.6,0.4c0.3,0.2,0.5,0.5,0.8,0.7c0.1,0.1,0.2,0.2,0.4,0.3
		l8.3,8.2l0,0l0,0l169.7,169.7l0,0c10.7,10.7,17.3,25,18.5,40.1l0,0c0,0.4,0.1,0.9,0.1,1.3H2144V1136h-635.5H1485.9z"/>
</g>
<polygon display="none" fill="none" points="1120,112 177.8,1744 2062.2,1744 "/>
<polygon display="none" fill="none" points="898.3,496 177.8,1744 2062.2,1744 1341.7,496 "/>
<path display="none" fill="#5A5A5A" d="M1120,176l147.8,256H972.2L1120,176 M1120,112L916.8,464h406.5L1120,112L1120,112z"/>
<path display="none" fill="#5A5A5A" d="M1120,496c-388.8,0-704,315.2-704,704s315.2,704,704,704s704-315.2,704-704
	S1508.8,496,1120,496z M1120,1776c-318.1,0-576-257.9-576-576s257.9-576,576-576s576,257.9,576,576S1438.1,1776,1120,1776z"/>
<g display="none">
	<path display="inline" fill="#FFCC00" d="M992,912h91h36.5h128c33.4,0,64.9,11.3,90.5,32h262.4l-73.9-128h-813l-73.9,128h261.9
		C927.1,923.3,958.6,912,992,912z"/>
	<polygon display="inline" fill="#FFCC00" points="1434.1,656 805.9,656 732,784 1508,784 	"/>
	<polygon display="inline" fill="#FFCC00" points="1341.7,496 898.3,496 824.4,624 1415.6,624 	"/>
	<polygon display="inline" fill="#FFCC00" points="868.4,976 621.2,976 547.3,1104 740.4,1104 	"/>
	<path display="inline" fill="#FFCC00" d="M1896,1456h-603.2c-10.7,7.5-23.4,11.5-36.7,11.5c-1.4,0-2.8,0-4.1-0.1
		c1.1,17.7-5.1,35.8-18.6,49.3c-12.1,12.1-28.1,18.7-45.3,18.7s-33.2-6.6-45.3-18.7l-22.5-22.6l-22.6,22.6
		c-12.5,12.5-28.9,18.7-45.3,18.7c-16.4,0-32.8-6.3-45.2-18.7c-13.5-13.5-19.7-31.6-18.6-49.3c-1.4,0-2.7,0.1-4.1,0.1
		c-12.9,0-25.7-3.8-36.7-11.5H344l-73.9,128h1699.7L1896,1456z"/>
	<polygon display="inline" fill="#FFCC00" points="1988.3,1616 251.7,1616 177.8,1744 2062.2,1744 	"/>
	<path display="inline" fill="#FFCC00" d="M1182,1420.3c-0.3,1.2-0.7,2.5-1.1,3.7h4.8L1182,1420.3z"/>
	<path display="inline" fill="#FFCC00" d="M920.5,1403.5c0-1.4,0-2.8,0.1-4.1c-1.4,0-2.7,0.1-4.1,0.1c-17.2,0-33.2-6.6-45.3-18.7
		c-13.5-13.5-19.7-31.6-18.6-49.3c-1.4,0-2.7,0.1-4.1,0.1c-17.2,0-33.2-6.6-45.3-18.7c-5-4.9-9.1-10.7-12.2-16.9H436.4l-73.9,128
		h561.3C921.6,1417.5,920.5,1410.6,920.5,1403.5z"/>
	<polygon display="inline" fill="#FFCC00" points="1499.1,1104 1692.7,1104 1618.8,976 1371.1,976 	"/>
	<path display="inline" fill="#FFCC00" d="M1437.3,1312.8c-12.5,12.5-28.8,18.7-45.2,18.7c-1.4,0-2.7,0-4.1-0.1
		c0,1.4,0.1,2.7,0.1,4.1c0,17.2-6.6,33.2-18.7,45.3c-12.1,12.1-28.2,18.7-45.3,18.7c-1.4,0-2.8,0-4.1-0.1c0,1.4,0.1,2.7,0.1,4.1
		c0,7.1-1.1,14-3.3,20.5h560.7l-73.9-128h-354.2C1446.3,1302.2,1442.2,1307.9,1437.3,1312.8z"/>
</g>
<g display="none">
	<path display="inline" fill="#FFCC00" d="M992,912h91h36.5h128c33.4,0,64.9,11.3,90.5,32h262.4l-73.9-128h-813l-73.9,128h261.9
		C927.1,923.3,958.6,912,992,912z"/>
	<polygon display="inline" fill="#FFCC00" points="1434.1,656 805.9,656 732,784 1508,784 	"/>
	<path display="inline" fill="#FFCC00" d="M1323.2,496H916.8c-11.4,0-22,6.1-27.7,16l-64.7,112h591.2l-64.7-112
		C1345.2,502.1,1334.7,496,1323.2,496z"/>
	<polygon display="inline" fill="#FFCC00" points="868.4,976 621.2,976 547.3,1104 740.4,1104 	"/>
	<path display="inline" fill="#FFCC00" d="M1896,1456h-603.2c-10.7,7.5-23.4,11.5-36.7,11.5c-1.4,0-2.8,0-4.1-0.1
		c1.1,17.7-5.1,35.8-18.6,49.3c-12.1,12.1-28.1,18.7-45.3,18.7s-33.2-6.6-45.3-18.7l-22.5-22.6l-22.6,22.6
		c-12.5,12.5-28.9,18.7-45.3,18.7c-16.4,0-32.8-6.3-45.2-18.7c-13.5-13.5-19.7-31.6-18.6-49.3c-1.4,0-2.7,0.1-4.1,0.1
		c-12.9,0-25.7-3.8-36.7-11.5H344l-73.9,128h1699.7L1896,1456z"/>
	<path display="inline" fill="#FFCC00" d="M1988.3,1616H251.7l-46.2,80c-12.3,21.3,3.1,48,27.7,48h1773.5c24.6,0,40-26.7,27.7-48
		L1988.3,1616z"/>
	<path display="inline" fill="#FFCC00" d="M1182,1420.3c-0.3,1.2-0.7,2.5-1.1,3.7h4.8L1182,1420.3z"/>
	<path display="inline" fill="#FFCC00" d="M920.5,1403.5c0-1.4,0-2.8,0.1-4.1c-1.4,0-2.7,0.1-4.1,0.1c-17.2,0-33.2-6.6-45.3-18.7
		c-13.5-13.5-19.7-31.6-18.6-49.3c-1.4,0-2.7,0.1-4.1,0.1c-17.2,0-33.2-6.6-45.3-18.7c-5-4.9-9.1-10.7-12.2-16.9H436.4l-73.9,128
		h561.3C921.6,1417.5,920.5,1410.6,920.5,1403.5z"/>
	<polygon display="inline" fill="#FFCC00" points="1499.1,1104 1692.7,1104 1618.8,976 1371.1,976 	"/>
	<path display="inline" fill="#FFCC00" d="M1437.3,1312.8c-12.5,12.5-28.8,18.7-45.2,18.7c-1.4,0-2.7,0-4.1-0.1
		c0,1.4,0.1,2.7,0.1,4.1c0,17.2-6.6,33.2-18.7,45.3c-12.1,12.1-28.2,18.7-45.3,18.7c-1.4,0-2.8,0-4.1-0.1c0,1.4,0.1,2.7,0.1,4.1
		c0,7.1-1.1,14-3.3,20.5h560.7l-73.9-128h-354.2C1446.3,1302.2,1442.2,1307.9,1437.3,1312.8z"/>
</g>
<g>
	<path fill="#FFCC00" d="M992,912h91h36.5h128c33.4,0,64.9,11.3,90.5,32h262.4l-73.9-128h-813l-73.9,128h261.9
		C927.1,923.3,958.6,912,992,912z"/>
	<polygon fill="#FFCC00" points="1434.1,656 805.9,656 732,784 1508,784 	"/>
	<path fill="#FFCC00" d="M1304.7,496H935.3c-22.9,0-44,12.2-55.4,32l-55.4,96h591.2l-55.4-96C1348.7,508.2,1327.6,496,1304.7,496z"
		/>
	<polygon fill="#FFCC00" points="868.4,976 621.2,976 547.3,1104 740.4,1104 	"/>
	<path fill="#FFCC00" d="M1896,1456h-603.2c-10.7,7.5-23.4,11.5-36.7,11.5c-1.4,0-2.8,0-4.1-0.1c1.1,17.7-5.1,35.8-18.6,49.3
		c-12.1,12.1-28.1,18.7-45.3,18.7s-33.2-6.6-45.3-18.7l-22.5-22.6l-22.6,22.6c-12.5,12.5-28.9,18.7-45.3,18.7
		c-16.4,0-32.8-6.3-45.2-18.7c-13.5-13.5-19.7-31.6-18.6-49.3c-1.4,0-2.7,0.1-4.1,0.1c-12.9,0-25.7-3.8-36.7-11.5H344l-73.9,128
		h1699.7L1896,1456z"/>
	<path fill="#FFCC00" d="M1988.3,1616H251.7l-18.5,32c-24.6,42.7,6.2,96,55.4,96h1662.7c49.3,0,80.1-53.3,55.4-96L1988.3,1616z"/>
	<path fill="#FFCC00" d="M1182,1420.3c-0.3,1.2-0.7,2.5-1.1,3.7h4.8L1182,1420.3z"/>
	<path fill="#FFCC00" d="M920.5,1403.5c0-1.4,0-2.8,0.1-4.1c-1.4,0-2.7,0.1-4.1,0.1c-17.2,0-33.2-6.6-45.3-18.7
		c-13.5-13.5-19.7-31.6-18.6-49.3c-1.4,0-2.7,0.1-4.1,0.1c-17.2,0-33.2-6.6-45.3-18.7c-5-4.9-9.1-10.7-12.2-16.9H436.4l-73.9,128
		h561.3C921.6,1417.5,920.5,1410.6,920.5,1403.5z"/>
	<polygon fill="#FFCC00" points="1499.1,1104 1692.7,1104 1618.8,976 1371.1,976 	"/>
	<path fill="#FFCC00" d="M1437.3,1312.8c-12.5,12.5-28.8,18.7-45.2,18.7c-1.4,0-2.7,0-4.1-0.1c0,1.4,0.1,2.7,0.1,4.1
		c0,17.2-6.6,33.2-18.7,45.3c-12.1,12.1-28.2,18.7-45.3,18.7c-1.4,0-2.8,0-4.1-0.1c0,1.4,0.1,2.7,0.1,4.1c0,7.1-1.1,14-3.3,20.5
		h560.7l-73.9-128h-354.2C1446.3,1302.2,1442.2,1307.9,1437.3,1312.8z"/>
</g>
<g>
	<path fill="#5A5A5A" d="M939,1177.3c-6-6-14.1-9.3-22.6-9.3c-8.6,0-16.6,3.3-22.6,9.3l-67.9,67.9c-5.4,5.4-8.6,12.4-9.3,20.1
		c-0.3,3.6,0,7.2,0.9,10.7c1.4,5.5,4.3,10.5,8.3,14.4c6.1,6.1,14.1,9.4,22.7,9.4s16.6-3.3,22.6-9.3l67.9-67.9
		C951.5,1210.1,951.5,1189.8,939,1177.3z"/>
	<path fill="#5A5A5A" d="M1152,1403.7c0-7.9-2.8-15.3-8-21.2l-2.9-2.9c-5.8-5.1-13.3-8-21.2-8c-8.6,0-16.6,3.3-22.6,9.3l-67.9,67.9
		c-12.5,12.5-12.5,32.8,0,45.3c12.6,12.5,32.9,12.5,45.4,0.1l32.9-32.9c0.3-0.4,0.6-0.7,1-1.1c0.3-0.3,0.7-0.6,1-0.9l33-33
		C1148.7,1420.3,1152,1412.2,1152,1403.7z"/>
	<path fill="#5A5A5A" d="M1074.8,1313.1c-6-6-14.1-9.3-22.6-9.3s-16.6,3.3-22.6,9.3l-67.9,67.9c-6,6-9.3,14.1-9.3,22.6
		s3.3,16.6,9.3,22.6c12.4,12.6,32.7,12.6,45.2,0.1l67.9-67.9C1087.3,1345.9,1087.3,1325.6,1074.8,1313.1z"/>
	<path fill="#5A5A5A" d="M1016.2,1267.9c0-8.5-3.3-16.6-9.3-22.6c-12.5-12.5-32.8-12.5-45.3,0l-67.9,67.9
		c-12.5,12.5-12.5,32.8,0,45.3c6,5.9,14.1,9.2,22.7,9.2c8.6,0,16.6-3.3,22.6-9.3l67.9-67.9
		C1012.9,1284.5,1016.2,1276.4,1016.2,1267.9z"/>
	<path fill="#5A5A5A" d="M784.6,1264c0-0.4,0-0.9,0.1-1.3c1.2-15.2,7.8-29.4,18.5-40.1l67.9-67.9c12.1-12.1,28.1-18.7,45.3-18.7
		s33.2,6.6,45.3,18.7c13.5,13.5,19.7,31.6,18.6,49.3c17.7-1.1,35.8,5.1,49.3,18.6c12.1,12.1,18.7,28.1,18.7,45.3
		c0,1.4-0.1,2.7-0.1,4.1c1.3-0.1,2.7-0.1,4.1-0.1c17.1,0,33.2,6.6,45.3,18.7c8.7,8.7,14.3,19.2,17,30.3c5.7-2.1,12.4-0.9,16.9,3.7
		l31.9,31.9c0.7,0.6,1.4,1.3,2.1,2s1.3,1.4,2,2.1l65.8,65.8c12.5,12.5,32.8,12.5,45.3,0c6-6,9.3-14.1,9.3-22.6s-3.3-16.6-9.3-22.6
		l-101.8-101.8c-6.2-6.2-6.2-16.4,0-22.6s16.4-6.2,22.6,0l101.6,101.6c6,6,14.1,9.3,22.6,9.3s16.6-3.3,22.6-9.3
		c12.5-12.5,12.5-32.8,0-45.3l-101.8-101.8c-6.2-6.2-6.2-16.4,0-22.6c6.2-6.2,16.4-6.2,22.6,0l101.8,101.8
		c12.5,12.5,32.8,12.5,45.3,0c4-4,6.9-9,8.3-14.5c0.9-3.5,1.2-7.1,0.9-10.7c-0.6-7.7-3.8-14.7-9.3-20.1l-169.7-169.7l-3.6-3.5
		h-151.3l-26.2,26.2c-15.2,15.2-35.2,23.5-56.6,23.5s-41.4-8.4-56.6-23.5c-15.2-15.2-23.5-35.2-23.5-56.6c0-21.4,8.4-41.4,23.5-56.6
		l30.9-30.9c3.6-3.6,7.4-7,11.3-10.2h-0.5c-29.9,0-58,11.7-79.2,32.8L785.6,1104l-32,32H731H528.8l-73.9,128H784.6z"/>
	<path fill="#5A5A5A" d="M1181.8,1420.3c-2.9,10.7-8.5,20.6-16.5,28.6l-22.7,22.7l22.6,22.6c6,6,14.1,9.3,22.6,9.3
		s16.6-3.3,22.6-9.3c12.5-12.5,12.5-32.8,0-45.3L1181.8,1420.3z"/>
	<path fill="#5A5A5A" d="M1711.2,1136h-202.7h-22.6l-32-32l-127.2-127.2c-21.2-21.2-49.3-32.8-79.2-32.8h-128H1083
		c-29.9,0-58,11.7-79.2,32.8l-30.9,30.9c-9.1,9.1-14.1,21.2-14.1,33.9s5,24.8,14.1,33.9c9.1,9.1,21.2,14.1,33.9,14.1
		s24.8-5,33.9-14.1l30.9-30.9c0.4-0.4,0.8-0.7,1.2-1.1c0.2-0.1,0.4-0.3,0.6-0.4c0.2-0.2,0.5-0.4,0.7-0.5c0.2-0.2,0.5-0.3,0.7-0.4
		c0.2-0.1,0.4-0.3,0.6-0.4c0.2-0.1,0.5-0.2,0.7-0.4c0.2-0.1,0.5-0.2,0.7-0.3c0.2-0.1,0.5-0.2,0.7-0.3c0.2-0.1,0.5-0.2,0.7-0.3
		c0.2-0.1,0.5-0.1,0.7-0.2c0.3-0.1,0.5-0.1,0.8-0.2c0.3-0.1,0.6-0.1,0.9-0.1c0.2,0,0.4-0.1,0.7-0.1c0.5-0.1,1.1-0.1,1.6-0.1h164.5
		c0.2,0,0.3,0,0.5,0c0.4,0,0.7,0,1.1,0.1c0.2,0,0.5,0.1,0.7,0.1c0.3,0,0.6,0.1,0.8,0.1c0.3,0.1,0.5,0.1,0.8,0.2s0.5,0.1,0.8,0.2
		c0.3,0.1,0.5,0.2,0.7,0.3s0.5,0.2,0.7,0.3c0.2,0.1,0.5,0.2,0.7,0.3s0.5,0.2,0.7,0.4c0.2,0.1,0.4,0.3,0.6,0.4
		c0.2,0.1,0.5,0.3,0.7,0.4c0.2,0.2,0.4,0.3,0.7,0.5c0.2,0.1,0.4,0.3,0.6,0.4c0.3,0.2,0.5,0.5,0.8,0.7c0.1,0.1,0.2,0.2,0.4,0.3
		l8.3,8.2l169.7,169.7c10.7,10.7,17.3,25,18.5,40.1c0,0.4,0.1,0.9,0.1,1.3H1785L1711.2,1136z"/>
</g>
</svg>
