<?xml version="1.0" encoding="utf-8"?>
<!-- Generator: Adobe Illustrator 21.1.0, SVG Export Plug-In . SVG Version: 6.00 Build 0)  -->
<svg version="1.1" id="Layer_1" xmlns="http://www.w3.org/2000/svg" xmlns:xlink="http://www.w3.org/1999/xlink" x="0px" y="0px"
	 viewBox="0 0 1088 1088" enable-background="new 0 0 1088 1088" xml:space="preserve">
<rect x="-480" y="-480" display="none" fill="#EEEEEE" width="2048" height="2048"/>
<rect x="-544" y="-544" display="none" fill="#F2F2F2" width="2176" height="2176"/>
<rect x="-160" y="-160" display="none" fill="#DFDFDF" width="1408" height="1408"/>
<circle display="none" fill="#FFFFFF" cx="544" cy="544" r="544"/>
<circle display="none" fill="#FFFFFF" cx="544" cy="544" r="512"/>
<circle display="none" fill="#F2F2F2" cx="544" cy="544" r="1088"/>
<circle display="none" fill="#F2F2F2" cx="544" cy="544" r="1088"/>
<rect x="-480" y="-480" display="none" fill="#FAFAFA" width="1024" height="1024"/>
<g display="none">
	<rect x="-480" y="480" display="inline" fill="#FFCC00" width="2048" height="128"/>
	<rect x="-480" y="640" display="inline" fill="#FFCC00" width="2048" height="128"/>
	<rect x="-480" y="320" display="inline" fill="#FFCC00" width="2048" height="128"/>
	<rect x="-480" y="160" display="inline" fill="#FFCC00" width="2048" height="128"/>
	<rect x="-480" y="1120" display="inline" fill="#FFCC00" width="2048" height="128"/>
	<rect x="-480" y="1280" display="inline" fill="#FFCC00" width="2048" height="128"/>
	<rect x="-480" y="1440" display="inline" fill="#FFCC00" width="2048" height="128"/>
	<rect x="-480" y="1600" display="inline" fill="#FFCC00" width="2048" height="128"/>
	<rect x="-480" y="960" display="inline" fill="#FFCC00" width="2048" height="128"/>
	<rect x="-480" y="800" display="inline" fill="#FFCC00" width="2048" height="128"/>
	<rect x="-480" display="inline" fill="#FFCC00" width="2048" height="128"/>
	<rect x="-480" y="-160" display="inline" fill="#FFCC00" width="2048" height="128"/>
	<rect x="-480" y="-320" display="inline" fill="#FFCC00" width="2048" height="128"/>
	<rect x="-480" y="-480" display="inline" fill="#FFCC00" width="2048" height="128"/>
	<rect x="-480" y="-640" display="inline" fill="#FFCC00" width="2048" height="128"/>
</g>
<path display="none" d="M427.8,320.8C449,299.6,477.1,288,507,288h36.5h128c29.9,0,58,11.7,79.2,32.8L877.9,448l32,32h22.6H1568v-32
	H923.1L773.3,298.2C746.1,271,710,256,671.5,256h-128H507h-91c-38.5,0-74.6,15-101.8,42.2L164.4,448H-480v32h635h22.6l32-32
	l127.2-127.2C358,299.6,386.1,288,416,288h0.5c-3.9,3.2-7.7,6.6-11.3,10.2l-30.9,30.9c-15.2,15.2-23.5,35.2-23.5,56.6
	s8.4,41.4,23.5,56.6c15.2,15.2,35.2,23.5,56.6,23.5s41.4-8.4,56.6-23.5l26.2-26.2H665l3.6,3.5l169.7,169.7l0,0l0,0
	c5.4,5.4,8.6,12.4,9.3,20.1c0.3,3.6,0,7.2-0.9,10.7l0,0c-1.4,5.5-4.3,10.5-8.3,14.5c-12.5,12.5-32.8,12.5-45.3,0L691.3,532.8
	c-6.2-6.2-16.4-6.2-22.6,0s-6.2,16.4,0,22.6l101.8,101.8c12.5,12.5,12.5,32.8,0,45.3c-6,6-14.1,9.3-22.6,9.3s-16.6-3.3-22.6-9.3
	L623.5,600.7c-6.2-6.2-16.4-6.2-22.6,0s-6.2,16.4,0,22.6L702.4,725c6,6,9.3,14.1,9.3,22.6s-3.3,16.6-9.3,22.6
	c-12.5,12.5-32.8,12.5-45.3,0l-65.8-65.8c-0.6-0.7-1.3-1.4-2-2.1s-1.4-1.3-2.1-2l-31.9-31.9c-4.6-4.6-11.2-5.8-16.9-3.7
	c-2.6-11.1-8.3-21.7-17-30.3c-12.1-12.1-28.1-18.7-45.3-18.7c-1.4,0-2.7,0.1-4.1,0.1c0.1-1.3,0.1-2.7,0.1-4.1
	c0-17.1-6.6-33.2-18.7-45.3c-13.5-13.5-31.6-19.7-49.3-18.6c1.1-17.7-5.1-35.8-18.6-49.3c-12.1-12.1-28.1-18.7-45.3-18.7
	s-33.2,6.6-45.3,18.7L227,566.4c-10.7,10.7-17.3,25-18.5,40.1c0,0.4-0.1,0.9-0.1,1.3H-480v32h694.9c3.1,6.3,7.2,12.1,12.3,17.1
	c12.1,12.1,28.1,18.7,45.3,18.7c1.4,0,2.7-0.1,4.1-0.1c-1.1,17.7,5.1,35.8,18.6,49.3c12.1,12.1,28.1,18.7,45.3,18.7
	c1.4,0,2.7-0.1,4.1-0.1c-0.1,1.3-0.1,2.7-0.1,4.1c0,17.1,6.6,33.2,18.7,45.3c12.5,12.5,28.9,18.7,45.3,18.7c1.4,0,2.7-0.1,4.1-0.1
	c-1.1,17.7,5.1,35.8,18.6,49.3c12.4,12.4,28.8,18.7,45.2,18.7s32.8-6.2,45.3-18.7l22.6-22.6l22.5,22.6l0,0l0,0
	c12.1,12.1,28.1,18.7,45.3,18.7s33.2-6.6,45.3-18.7c13.5-13.5,19.7-31.6,18.6-49.3c1.3,0.1,2.7,0.1,4.1,0.1
	c17.1,0,33.2-6.6,45.3-18.7c12.1-12.1,18.7-28.1,18.7-45.3c0-1.4-0.1-2.7-0.1-4.1c1.3,0.1,2.7,0.1,4.1,0.1
	c17.1,0,33.2-6.6,45.3-18.7c12.1-12.1,18.7-28.1,18.7-45.3c0-1.4-0.1-2.7-0.1-4.1c1.4,0.1,2.7,0.1,4.1,0.1
	c16.4,0,32.7-6.2,45.2-18.7c5-5,9.2-10.8,12.3-17.2H1568v-32H879.4c0-0.4,0-0.9-0.1-1.3l0,0c-1.2-15.2-7.8-29.4-18.5-40.1l0,0
	L691.1,396.5l0,0l0,0l-8.3-8.2c-0.1-0.1-0.2-0.2-0.4-0.3c-0.3-0.2-0.5-0.5-0.8-0.7c-0.2-0.2-0.4-0.3-0.6-0.4
	c-0.2-0.2-0.4-0.3-0.7-0.5c-0.2-0.2-0.5-0.3-0.7-0.4s-0.4-0.3-0.6-0.4c-0.2-0.1-0.5-0.2-0.7-0.4c-0.2-0.1-0.5-0.2-0.7-0.3
	s-0.5-0.2-0.7-0.3s-0.5-0.2-0.7-0.3s-0.5-0.1-0.8-0.2s-0.5-0.1-0.8-0.2s-0.6-0.1-0.8-0.1s-0.5-0.1-0.7-0.1c-0.4,0-0.7,0-1.1-0.1
	c-0.2,0-0.3,0-0.5,0H507c-0.5,0-1.1,0-1.6,0.1c-0.2,0-0.5,0.1-0.7,0.1c-0.3,0-0.6,0.1-0.9,0.1c-0.3,0.1-0.5,0.1-0.8,0.2
	c-0.2,0.1-0.5,0.1-0.7,0.2c-0.3,0.1-0.5,0.2-0.7,0.3s-0.5,0.2-0.7,0.3s-0.5,0.2-0.7,0.3s-0.5,0.2-0.7,0.4c-0.2,0.1-0.4,0.3-0.6,0.4
	s-0.5,0.3-0.7,0.4c-0.2,0.2-0.5,0.3-0.7,0.5c-0.2,0.1-0.4,0.3-0.6,0.4c-0.4,0.3-0.8,0.7-1.2,1.1l-30.9,30.9
	c-9.1,9.1-21.2,14.1-33.9,14.1s-24.8-5-33.9-14.1s-14.1-21.2-14.1-33.9s5-24.8,14.1-33.9L427.8,320.8z M272.5,643.8
	c-8.6,0-16.6-3.3-22.7-9.4c-4-4-6.9-8.9-8.3-14.4c-0.9-3.5-1.2-7.1-0.9-10.7c0.6-7.7,3.8-14.7,9.3-20.1l67.9-67.9
	c6-6,14.1-9.3,22.6-9.3c8.6,0,16.6,3.3,22.6,9.3c12.5,12.5,12.5,32.8,0,45.3l-67.9,67.9C289.1,640.5,281,643.8,272.5,643.8z
	 M340.4,711.7c-8.6,0-16.6-3.3-22.6-9.3l0,0c-12.5-12.5-12.5-32.8,0-45.3l67.9-67.9l0,0c12.5-12.5,32.8-12.5,45.3,0
	c6,6,9.3,14.1,9.3,22.6s-3.3,16.6-9.3,22.6l-67.9,67.9C357,708.4,348.9,711.7,340.4,711.7z M430.9,770.3
	c-12.5,12.5-32.8,12.5-45.3,0c-6-6-9.3-14.1-9.3-22.6s3.3-16.6,9.3-22.6l67.9-67.9c6-6,14.1-9.3,22.6-9.3s16.6,3.3,22.6,9.3
	c12.5,12.5,12.5,32.8,0,45.3L430.9,770.3L430.9,770.3z M533.7,803.3c-0.3,0.3-0.7,0.6-1,0.9c-0.3,0.3-0.7,0.7-1,1.1l-32.9,32.9
	c-12.5,12.5-32.9,12.5-45.3,0c-12.5-12.5-12.5-32.8,0-45.3l67.9-67.9c6-6,14.1-9.3,22.6-9.3c7.9,0,15.3,2.8,21.2,8l2.9,2.9
	c5.1,5.8,8,13.3,8,21.2c0,8.6-3.3,16.6-9.3,22.6L533.7,803.3z M634.5,838.2c-6,6-14.1,9.3-22.6,9.3s-16.6-3.3-22.6-9.3l0,0
	l-22.5-22.6l22.7-22.7c8.1-8.1,13.7-17.9,16.5-28.6l28.6,28.6C647,805.4,647,825.7,634.5,838.2z"/>
<g display="none">
	<rect x="-480" y="1120" display="inline" fill="#FFCC00" width="2048" height="128"/>
	<rect x="-480" y="1280" display="inline" fill="#FFCC00" width="2048" height="128"/>
	<path display="inline" fill="#FFCC00" d="M679.8,811.6c-1.4,0-2.7-0.1-4.1-0.1c1.1,17.7-5.1,35.8-18.6,49.3
		c-12.1,12.1-28.1,18.7-45.3,18.7s-33.2-6.6-45.3-18.7l0,0l0,0L544,838.2l-22.6,22.6c-12.5,12.4-28.9,18.7-45.3,18.7
		s-32.8-6.2-45.2-18.7c-13.5-13.5-19.7-31.6-18.6-49.3c-1.4,0.1-2.7,0.1-4.1,0.1c-12.9,0-25.8-3.9-36.8-11.6H-480v128h2048V800
		H716.6C705.9,807.5,693.1,811.6,679.8,811.6z"/>
	<rect x="-480" y="960" display="inline" fill="#FFCC00" width="2048" height="128"/>
	<polygon display="inline" fill="#FFCC00" points="292.4,320 -480,320 -480,448 164.4,448 	"/>
	<rect x="-480" y="1440" display="inline" fill="#FFCC00" width="2048" height="128"/>
	<path display="inline" fill="#FFCC00" d="M344.3,747.7c0-1.4,0.1-2.7,0.1-4.1c-1.3,0.1-2.7,0.1-4.1,0.1c-17.1,0-33.2-6.6-45.3-18.7
		c-13.5-13.5-19.7-31.6-18.6-49.3c-1.3,0.1-2.7,0.1-4.1,0.1c-17.1,0-33.2-6.6-45.3-18.7c-5-5-9.2-10.8-12.3-17.1H-480v128h827.6
		C345.4,761.5,344.3,754.7,344.3,747.7z"/>
	<polygon display="inline" fill="#FFCC00" points="923.1,448 1568,448 1568,320 795.1,320 	"/>
	<rect x="-480" y="-320" display="inline" fill="#FFCC00" width="2048" height="128"/>
	<path display="inline" fill="#FFCC00" d="M860.8,657.2c-12.4,12.4-28.8,18.7-45.2,18.7c-1.4,0-2.7-0.1-4.1-0.1
		c0.1,1.3,0.1,2.7,0.1,4.1c0,17.1-6.6,33.2-18.7,45.3s-28.1,18.7-45.3,18.7c-1.4,0-2.7-0.1-4.1-0.1c0.1,1.3,0.1,2.7,0.1,4.1
		c0,7-1.1,13.9-3.3,20.3H1568V640H873.1C870,646.4,865.8,652.2,860.8,657.2z"/>
	<rect x="-480" y="-480" display="inline" fill="#FFCC00" width="2048" height="128"/>
	<rect x="-480" y="-160" display="inline" fill="#FFCC00" width="2048" height="128"/>
	<rect x="-480" display="inline" fill="#FFCC00" width="2048" height="128"/>
	<path display="inline" fill="#FFCC00" d="M-480,288h805.5c25.6-20.7,57.2-32,90.5-32h91h36.5h128c33.3,0,65,11.3,90.5,32h806V160
		H-480V288z"/>
</g>
<g display="none">
	<path display="inline" fill="#5A5A5A" d="M363,521.3c-6-6-14.1-9.3-22.6-9.3c-8.6,0-16.6,3.3-22.6,9.3l-67.9,67.9
		c-5.4,5.4-8.6,12.4-9.3,20.1c-0.3,3.6,0,7.2,0.9,10.7c1.4,5.5,4.3,10.5,8.3,14.4c6.1,6.1,14.1,9.4,22.7,9.4
		c8.6,0,16.6-3.3,22.6-9.3l67.9-67.9C375.5,554.1,375.5,533.8,363,521.3z"/>
	<path display="inline" fill="#5A5A5A" d="M498.8,838.2l32.9-32.9c0.3-0.4,0.6-0.7,1-1.1c0.3-0.3,0.7-0.6,1-0.9l33-33
		c6-6,9.3-14.1,9.3-22.6c0-7.9-2.8-15.3-8-21.2l-2.9-2.9c-5.8-5.1-13.3-8-21.2-8c-8.6,0-16.6,3.3-22.6,9.3l-67.9,67.9
		c-12.5,12.5-12.5,32.8,0,45.3C466,850.6,486.3,850.6,498.8,838.2z"/>
	<path display="inline" fill="#5A5A5A" d="M430.9,770.3L430.9,770.3l67.9-67.9c12.5-12.5,12.5-32.8,0-45.3c-6-6-14.1-9.3-22.6-9.3
		s-16.6,3.3-22.6,9.3L385.7,725c-6,6-9.3,14.1-9.3,22.6s3.3,16.6,9.3,22.6C398.1,782.8,418.4,782.8,430.9,770.3z"/>
	<path display="inline" fill="#5A5A5A" d="M340.4,711.7c8.6,0,16.6-3.3,22.6-9.3l67.9-67.9c6-6,9.3-14.1,9.3-22.6
		s-3.3-16.6-9.3-22.6c-12.5-12.5-32.8-12.5-45.3,0l0,0l-67.9,67.9c-12.5,12.5-12.5,32.8,0,45.3l0,0
		C323.7,708.4,331.8,711.7,340.4,711.7z"/>
	<path display="inline" fill="#5A5A5A" d="M208.7,606.7c1.2-15.2,7.8-29.4,18.5-40.1l67.9-67.9c12.1-12.1,28.1-18.7,45.3-18.7
		s33.2,6.6,45.3,18.7c13.5,13.5,19.7,31.6,18.6,49.3c17.7-1.1,35.8,5.1,49.3,18.6c12.1,12.1,18.7,28.1,18.7,45.3
		c0,1.4-0.1,2.7-0.1,4.1c1.3-0.1,2.7-0.1,4.1-0.1c17.1,0,33.2,6.6,45.3,18.7c8.7,8.7,14.3,19.2,17,30.3c5.7-2.1,12.4-0.9,16.9,3.7
		l31.9,31.9c0.7,0.6,1.4,1.3,2.1,2s1.3,1.4,2,2.1l65.8,65.8c12.5,12.5,32.8,12.5,45.3,0c6-6,9.3-14.1,9.3-22.6s-3.3-16.6-9.3-22.6
		L600.8,623.4c-6.2-6.2-6.2-16.4,0-22.6c6.2-6.2,16.4-6.2,22.6,0L725,702.4c6,6,14.1,9.3,22.6,9.3s16.6-3.3,22.6-9.3
		c12.5-12.5,12.5-32.8,0-45.3L668.4,555.3c-6.2-6.2-6.2-16.4,0-22.6c6.2-6.2,16.4-6.2,22.6,0l101.8,101.8
		c12.5,12.5,32.8,12.5,45.3,0c4-4,6.9-9,8.3-14.5l0,0c0.9-3.5,1.2-7.1,0.9-10.7c-0.6-7.7-3.8-14.7-9.3-20.1l0,0l0,0L668.3,419.5
		l-3.6-3.5H513.4l-26.2,26.2c-15.2,15.2-35.2,23.5-56.6,23.5s-41.4-8.4-56.6-23.5c-15.2-15.2-23.5-35.2-23.5-56.6
		s8.4-41.4,23.5-56.6l30.9-30.9c3.6-3.6,7.4-7,11.3-10.2h-0.5c-29.9,0-58,11.7-79.2,32.8L209.6,448l-32,32H155h-635v128h688.6
		C208.6,607.6,208.6,607.1,208.7,606.7z"/>
	<path display="inline" fill="#5A5A5A" d="M589.2,838.2c6,6,14.1,9.3,22.6,9.3s16.6-3.3,22.6-9.3c12.5-12.5,12.5-32.8,0-45.3
		l-28.6-28.6c-2.9,10.7-8.5,20.6-16.5,28.6l-22.7,22.7L589.2,838.2L589.2,838.2z"/>
	<path display="inline" fill="#5A5A5A" d="M909.9,480l-32-32L750.7,320.8c-21.2-21.2-49.3-32.8-79.2-32.8h-128H507
		c-29.9,0-58,11.7-79.2,32.8l-30.9,30.9c-9.1,9.1-14.1,21.2-14.1,33.9s5,24.8,14.1,33.9s21.2,14.1,33.9,14.1s24.8-5,33.9-14.1
		l30.9-30.9c0.4-0.4,0.8-0.7,1.2-1.1c0.2-0.1,0.4-0.3,0.6-0.4c0.2-0.2,0.5-0.4,0.7-0.5c0.2-0.2,0.5-0.3,0.7-0.4s0.4-0.3,0.6-0.4
		s0.5-0.2,0.7-0.4c0.2-0.1,0.5-0.2,0.7-0.3s0.5-0.2,0.7-0.3s0.5-0.2,0.7-0.3s0.5-0.1,0.7-0.2c0.3-0.1,0.5-0.1,0.8-0.2
		s0.6-0.1,0.9-0.1c0.2,0,0.4-0.1,0.7-0.1c0.5-0.1,1.1-0.1,1.6-0.1h164.5c0.2,0,0.3,0,0.5,0c0.4,0,0.7,0,1.1,0.1
		c0.2,0,0.5,0.1,0.7,0.1c0.3,0,0.6,0.1,0.8,0.1c0.3,0.1,0.5,0.1,0.8,0.2s0.5,0.1,0.8,0.2s0.5,0.2,0.7,0.3s0.5,0.2,0.7,0.3
		s0.5,0.2,0.7,0.3s0.5,0.2,0.7,0.4c0.2,0.1,0.4,0.3,0.6,0.4c0.2,0.1,0.5,0.3,0.7,0.4c0.2,0.2,0.4,0.3,0.7,0.5
		c0.2,0.1,0.4,0.3,0.6,0.4c0.3,0.2,0.5,0.5,0.8,0.7c0.1,0.1,0.2,0.2,0.4,0.3l8.3,8.2l0,0l0,0l169.7,169.7l0,0
		c10.7,10.7,17.3,25,18.5,40.1l0,0c0,0.4,0.1,0.9,0.1,1.3H1568V480H932.5H909.9z"/>
</g>
<polygon display="none" fill="none" points="544,-544 -398.2,1088 1486.2,1088 "/>
<polygon display="none" fill="none" points="322.3,-160 -398.2,1088 1486.2,1088 765.7,-160 "/>
<path display="none" fill="#5A5A5A" d="M544-480l147.8,256H396.2L544-480 M544-544L340.8-192h406.5L544-544L544-544z"/>
<path display="none" fill="#FFFFFF" d="M544-160c-388.8,0-704,315.2-704,704s315.2,704,704,704s704-315.2,704-704S932.8-160,544-160
	z M544,1120c-318.1,0-576-257.9-576-576S225.9-32,544-32s576,257.9,576,576S862.1,1120,544,1120z"/>
<g display="none">
	<path display="inline" fill="#FFCC00" d="M416,256h91h36.5h128c33.4,0,64.9,11.3,90.5,32h262.4l-73.9-128h-813L63.6,288h261.9
		C351.1,267.3,382.6,256,416,256z"/>
	<polygon display="inline" fill="#FFCC00" points="858.1,0 229.9,0 156,128 932,128 	"/>
	<polygon display="inline" fill="#FFCC00" points="765.7,-160 322.3,-160 248.4,-32 839.6,-32 	"/>
	<polygon display="inline" fill="#FFCC00" points="292.4,320 45.2,320 -28.7,448 164.4,448 	"/>
	<path display="inline" fill="#FFCC00" d="M1320,800H716.8c-10.7,7.5-23.4,11.5-36.7,11.5c-1.4,0-2.8,0-4.1-0.1
		c1.1,17.7-5.1,35.8-18.6,49.3c-12.1,12.1-28.1,18.7-45.3,18.7s-33.2-6.6-45.3-18.7l-22.5-22.6l-22.6,22.6
		c-12.5,12.5-28.9,18.7-45.3,18.7s-32.8-6.3-45.2-18.7c-13.5-13.5-19.7-31.6-18.6-49.3c-1.4,0-2.7,0.1-4.1,0.1
		c-12.9,0-25.7-3.8-36.7-11.5H-232l-73.9,128h1699.7L1320,800z"/>
	<polygon display="inline" fill="#FFCC00" points="1412.3,960 -324.3,960 -398.2,1088 1486.2,1088 	"/>
	<path display="inline" fill="#FFCC00" d="M606,764.3c-0.3,1.2-0.7,2.5-1.1,3.7h4.8L606,764.3z"/>
	<path display="inline" fill="#FFCC00" d="M344.5,747.5c0-1.4,0-2.8,0.1-4.1c-1.4,0-2.7,0.1-4.1,0.1c-17.2,0-33.2-6.6-45.3-18.7
		c-13.5-13.5-19.7-31.6-18.6-49.3c-1.4,0-2.7,0.1-4.1,0.1c-17.2,0-33.2-6.6-45.3-18.7c-5-4.9-9.1-10.7-12.2-16.9h-354.6l-73.9,128
		h561.3C345.6,761.5,344.5,754.6,344.5,747.5z"/>
	<polygon display="inline" fill="#FFCC00" points="923.1,448 1116.7,448 1042.8,320 795.1,320 	"/>
	<path display="inline" fill="#FFCC00" d="M861.3,656.8c-12.5,12.5-28.8,18.7-45.2,18.7c-1.4,0-2.7,0-4.1-0.1c0,1.4,0.1,2.7,0.1,4.1
		c0,17.2-6.6,33.2-18.7,45.3s-28.2,18.7-45.3,18.7c-1.4,0-2.8,0-4.1-0.1c0,1.4,0.1,2.7,0.1,4.1c0,7.1-1.1,14-3.3,20.5h560.7
		l-73.9-128H873.4C870.3,646.2,866.2,651.9,861.3,656.8z"/>
</g>
<g display="none">
	<path display="inline" fill="#FFFFFF" d="M544-544l942.2,1632H-398.2L544-544 M544-608l-27.7,48l-942.2,1632l-27.7,48h55.4h1884.4
		h55.4l-27.7-48L571.7-560L544-608L544-608z"/>
</g>
<g display="none">
	<path display="inline" fill="#FFFFFF" d="M544-160c388.8,0,704,315.2,704,704s-315.2,704-704,704s-704-315.2-704-704
		S155.2-160,544-160 M544-192c-99.3,0-195.7,19.5-286.5,57.9c-43.6,18.4-85.7,41.3-125,67.9C93.5-39.9,56.9-9.6,23.6,23.7
		s-63.5,69.9-89.9,108.9c-26.6,39.3-49.4,81.4-67.9,125C-172.5,348.3-192,444.7-192,544s19.5,195.7,57.9,286.5
		c18.4,43.6,41.3,85.7,67.9,125c26.3,39,56.6,75.6,89.9,108.9s69.9,63.5,108.9,89.9c39.3,26.6,81.4,49.4,125,67.9
		c90.8,38.4,187.1,57.9,286.5,57.9s195.7-19.5,286.5-57.9c43.6-18.4,85.7-41.3,125-67.9c39-26.3,75.6-56.6,108.9-89.9
		s63.5-69.9,89.9-108.9c26.6-39.3,49.4-81.4,67.9-125c38.4-90.8,57.9-187.1,57.9-286.5s-19.5-195.7-57.9-286.5
		c-18.4-43.6-41.3-85.7-67.9-125c-26.3-39-56.6-75.6-89.9-108.9s-69.9-63.5-108.9-89.9c-39.3-26.6-81.4-49.4-125-67.9
		C739.7-172.5,643.3-192,544-192L544-192z"/>
</g>
<g display="none">
	<path display="inline" fill="#FFCC00" d="M416,256h91h36.5h128c33.4,0,64.9,11.3,90.5,32h262.4l-73.9-128h-813L63.6,288h261.9
		C351.1,267.3,382.6,256,416,256z"/>
	<polygon display="inline" fill="#FFCC00" points="858.1,0 229.9,0 156,128 932,128 	"/>
	<path display="inline" fill="#FFCC00" d="M747.2-160H340.8c-11.4,0-22,6.1-27.7,16L248.4-32h591.2l-64.7-112
		C769.2-153.9,758.7-160,747.2-160z"/>
	<polygon display="inline" fill="#FFCC00" points="292.4,320 45.2,320 -28.7,448 164.4,448 	"/>
	<path display="inline" fill="#FFCC00" d="M1320,800H716.8c-10.7,7.5-23.4,11.5-36.7,11.5c-1.4,0-2.8,0-4.1-0.1
		c1.1,17.7-5.1,35.8-18.6,49.3c-12.1,12.1-28.1,18.7-45.3,18.7s-33.2-6.6-45.3-18.7l-22.5-22.6l-22.6,22.6
		c-12.5,12.5-28.9,18.7-45.3,18.7s-32.8-6.3-45.2-18.7c-13.5-13.5-19.7-31.6-18.6-49.3c-1.4,0-2.7,0.1-4.1,0.1
		c-12.9,0-25.7-3.8-36.7-11.5H-232l-73.9,128h1699.7L1320,800z"/>
	<path display="inline" fill="#FFCC00" d="M1412.3,960H-324.3l-46.2,80c-12.3,21.3,3.1,48,27.7,48h1773.5c24.6,0,40-26.7,27.7-48
		L1412.3,960z"/>
	<path display="inline" fill="#FFCC00" d="M606,764.3c-0.3,1.2-0.7,2.5-1.1,3.7h4.8L606,764.3z"/>
	<path display="inline" fill="#FFCC00" d="M344.5,747.5c0-1.4,0-2.8,0.1-4.1c-1.4,0-2.7,0.1-4.1,0.1c-17.2,0-33.2-6.6-45.3-18.7
		c-13.5-13.5-19.7-31.6-18.6-49.3c-1.4,0-2.7,0.1-4.1,0.1c-17.2,0-33.2-6.6-45.3-18.7c-5-4.9-9.1-10.7-12.2-16.9h-354.6l-73.9,128
		h561.3C345.6,761.5,344.5,754.6,344.5,747.5z"/>
	<polygon display="inline" fill="#FFCC00" points="923.1,448 1116.7,448 1042.8,320 795.1,320 	"/>
	<path display="inline" fill="#FFCC00" d="M861.3,656.8c-12.5,12.5-28.8,18.7-45.2,18.7c-1.4,0-2.7,0-4.1-0.1c0,1.4,0.1,2.7,0.1,4.1
		c0,17.2-6.6,33.2-18.7,45.3s-28.2,18.7-45.3,18.7c-1.4,0-2.8,0-4.1-0.1c0,1.4,0.1,2.7,0.1,4.1c0,7.1-1.1,14-3.3,20.5h560.7
		l-73.9-128H873.4C870.3,646.2,866.2,651.9,861.3,656.8z"/>
</g>
<g display="none">
	<path display="inline" fill="#5A5A5A" d="M363,521.3c-6-6-14.1-9.3-22.6-9.3c-8.6,0-16.6,3.3-22.6,9.3l-67.9,67.9
		c-5.4,5.4-8.6,12.4-9.3,20.1c-0.3,3.6,0,7.2,0.9,10.7c1.4,5.5,4.3,10.5,8.3,14.4c6.1,6.1,14.1,9.4,22.7,9.4
		c8.6,0,16.6-3.3,22.6-9.3l67.9-67.9C375.5,554.1,375.5,533.8,363,521.3z"/>
	<path display="inline" fill="#5A5A5A" d="M576,747.7c0-7.9-2.8-15.3-8-21.2l-2.9-2.9c-5.8-5.1-13.3-8-21.2-8
		c-8.6,0-16.6,3.3-22.6,9.3l-67.9,67.9c-12.5,12.5-12.5,32.8,0,45.3c12.6,12.5,32.9,12.5,45.4,0.1l32.9-32.9c0.3-0.4,0.6-0.7,1-1.1
		c0.3-0.3,0.7-0.6,1-0.9l33-33C572.7,764.3,576,756.2,576,747.7z"/>
	<path display="inline" fill="#5A5A5A" d="M498.8,657.1c-6-6-14.1-9.3-22.6-9.3s-16.6,3.3-22.6,9.3L385.7,725
		c-6,6-9.3,14.1-9.3,22.6s3.3,16.6,9.3,22.6c12.4,12.6,32.7,12.6,45.2,0.1l67.9-67.9C511.3,689.9,511.3,669.6,498.8,657.1z"/>
	<path display="inline" fill="#5A5A5A" d="M440.2,611.9c0-8.5-3.3-16.6-9.3-22.6c-12.5-12.5-32.8-12.5-45.3,0l-67.9,67.9
		c-12.5,12.5-12.5,32.8,0,45.3c6,5.9,14.1,9.2,22.7,9.2s16.6-3.3,22.6-9.3l67.9-67.9C436.9,628.5,440.2,620.4,440.2,611.9z"/>
	<path display="inline" fill="#5A5A5A" d="M208.6,608c0-0.4,0-0.9,0.1-1.3c1.2-15.2,7.8-29.4,18.5-40.1l67.9-67.9
		c12.1-12.1,28.1-18.7,45.3-18.7s33.2,6.6,45.3,18.7c13.5,13.5,19.7,31.6,18.6,49.3c17.7-1.1,35.8,5.1,49.3,18.6
		c12.1,12.1,18.7,28.1,18.7,45.3c0,1.4-0.1,2.7-0.1,4.1c1.3-0.1,2.7-0.1,4.1-0.1c17.1,0,33.2,6.6,45.3,18.7
		c8.7,8.7,14.3,19.2,17,30.3c5.7-2.1,12.4-0.9,16.9,3.7l31.9,31.9c0.7,0.6,1.4,1.3,2.1,2s1.3,1.4,2,2.1l65.8,65.8
		c12.5,12.5,32.8,12.5,45.3,0c6-6,9.3-14.1,9.3-22.6s-3.3-16.6-9.3-22.6L600.8,623.4c-6.2-6.2-6.2-16.4,0-22.6
		c6.2-6.2,16.4-6.2,22.6,0L725,702.4c6,6,14.1,9.3,22.6,9.3s16.6-3.3,22.6-9.3c12.5-12.5,12.5-32.8,0-45.3L668.4,555.3
		c-6.2-6.2-6.2-16.4,0-22.6c6.2-6.2,16.4-6.2,22.6,0l101.8,101.8c12.5,12.5,32.8,12.5,45.3,0c4-4,6.9-9,8.3-14.5
		c0.9-3.5,1.2-7.1,0.9-10.7c-0.6-7.7-3.8-14.7-9.3-20.1L668.3,419.5l-3.6-3.5H513.4l-26.2,26.2c-15.2,15.2-35.2,23.5-56.6,23.5
		s-41.4-8.4-56.6-23.5c-15.2-15.2-23.5-35.2-23.5-56.6s8.4-41.4,23.5-56.6l30.9-30.9c3.6-3.6,7.4-7,11.3-10.2h-0.5
		c-29.9,0-58,11.7-79.2,32.8L209.6,448l-32,32H155H-47.2l-73.9,128H208.6z"/>
	<path display="inline" fill="#5A5A5A" d="M605.8,764.3c-2.9,10.7-8.5,20.6-16.5,28.6l-22.7,22.7l22.6,22.6c6,6,14.1,9.3,22.6,9.3
		s16.6-3.3,22.6-9.3c12.5-12.5,12.5-32.8,0-45.3L605.8,764.3z"/>
	<path display="inline" fill="#5A5A5A" d="M1135.2,480H932.5h-22.6l-32-32L750.7,320.8c-21.2-21.2-49.3-32.8-79.2-32.8h-128H507
		c-29.9,0-58,11.7-79.2,32.8l-30.9,30.9c-9.1,9.1-14.1,21.2-14.1,33.9s5,24.8,14.1,33.9s21.2,14.1,33.9,14.1s24.8-5,33.9-14.1
		l30.9-30.9c0.4-0.4,0.8-0.7,1.2-1.1c0.2-0.1,0.4-0.3,0.6-0.4c0.2-0.2,0.5-0.4,0.7-0.5c0.2-0.2,0.5-0.3,0.7-0.4s0.4-0.3,0.6-0.4
		s0.5-0.2,0.7-0.4c0.2-0.1,0.5-0.2,0.7-0.3s0.5-0.2,0.7-0.3s0.5-0.2,0.7-0.3s0.5-0.1,0.7-0.2c0.3-0.1,0.5-0.1,0.8-0.2
		s0.6-0.1,0.9-0.1c0.2,0,0.4-0.1,0.7-0.1c0.5-0.1,1.1-0.1,1.6-0.1h164.5c0.2,0,0.3,0,0.5,0c0.4,0,0.7,0,1.1,0.1
		c0.2,0,0.5,0.1,0.7,0.1c0.3,0,0.6,0.1,0.8,0.1c0.3,0.1,0.5,0.1,0.8,0.2s0.5,0.1,0.8,0.2s0.5,0.2,0.7,0.3s0.5,0.2,0.7,0.3
		s0.5,0.2,0.7,0.3s0.5,0.2,0.7,0.4c0.2,0.1,0.4,0.3,0.6,0.4c0.2,0.1,0.5,0.3,0.7,0.4c0.2,0.2,0.4,0.3,0.7,0.5
		c0.2,0.1,0.4,0.3,0.6,0.4c0.3,0.2,0.5,0.5,0.8,0.7c0.1,0.1,0.2,0.2,0.4,0.3l8.3,8.2l169.7,169.7c10.7,10.7,17.3,25,18.5,40.1
		c0,0.4,0.1,0.9,0.1,1.3H1209L1135.2,480z"/>
</g>
<line display="none" fill="none" x1="-480" y1="-544" x2="-480" y2="-512"/>
<g display="none">
	<path display="inline" fill="#FFCC00" d="M164.4,448l149.8-149.8C341.4,271,377.5,256,416,256h91h36.5h128
		c38.5,0,74.6,15,101.8,42.2L923.1,448h156.5C1034.2,193.3,811.7,0,544,0S53.8,193.3,8.4,448H164.4z"/>
	<path display="inline" fill="#FFCC00" d="M873.6,639.6c-3.1,6.4-7.3,12.2-12.3,17.2c-12.5,12.5-28.8,18.7-45.2,18.7
		c-1.4,0-2.7,0-4.1-0.1c0,1.4,0.1,2.7,0.1,4.1c0,17.2-6.6,33.2-18.7,45.3c-12.1,12.1-28.2,18.7-45.3,18.7c-1.4,0-2.8,0-4.1-0.1
		c0,1.4,0.1,2.7,0.1,4.1c0,17.2-6.6,33.2-18.7,45.3c-12.1,12.1-28.2,18.7-45.3,18.7c-1.4,0-2.8,0-4.1-0.1
		c1.1,17.7-5.1,35.8-18.6,49.3c-12.1,12.1-28.1,18.7-45.3,18.7s-33.2-6.6-45.3-18.7l-22.5-22.6l-22.6,22.6
		c-12.5,12.5-28.9,18.7-45.3,18.7s-32.8-6.3-45.2-18.7c-13.5-13.5-19.7-31.6-18.6-49.3c-1.4,0-2.7,0.1-4.1,0.1
		c-16.4,0-32.8-6.2-45.3-18.7c-12.1-12.1-18.7-28.2-18.7-45.3c0-1.4,0-2.8,0.1-4.1c-1.4,0-2.7,0.1-4.1,0.1
		c-17.2,0-33.2-6.6-45.3-18.7c-13.5-13.5-19.7-31.6-18.6-49.3c-1.4,0-2.7,0.1-4.1,0.1c-17.2,0-33.2-6.6-45.3-18.7
		c-5.1-5-9.2-10.8-12.3-17.1H8.4C53.7,894.6,276.2,1088,544,1088s490.4-193.5,535.6-448.4H873.6z"/>
</g>
<g display="none">
	<path display="inline" fill="#5A5A5A" d="M691.3,532.8l101.8,101.8c12.5,12.5,32.8,12.5,45.3,0c4-4,6.9-9,8.3-14.5
		c0.9-3.5,1.2-7.1,0.9-10.7c-0.7-7.7-3.9-14.7-9.3-20.1L668.6,419.6l-3.6-3.5H513.7l-26.2,26.2c-15.2,15.1-35.2,23.5-56.6,23.5
		s-41.4-8.3-56.6-23.5c-15.1-15.2-23.5-35.2-23.5-56.6s8.3-41.4,23.5-56.6l30.9-30.9c3.6-3.6,7.4-7,11.3-10.2H416
		c-29.9,0-58,11.6-79.2,32.8L209.6,448l-32,32H155H3.7C1.2,501,0,522.3,0,544c0,21.6,1.3,42.9,3.7,63.8h204.7c0-0.4,0.1-0.9,0.1-1.3
		c1.2-15.1,7.8-29.4,18.5-40.1l67.9-67.9c12.1-12.1,28.1-18.7,45.3-18.7s33.2,6.6,45.3,18.7c13.5,13.5,19.7,31.6,18.6,49.3
		c17.7-1.1,35.8,5.1,49.3,18.6c12.1,12.1,18.7,28.2,18.7,45.3c0,1.4,0,2.8-0.1,4.1c1.4,0,2.7-0.1,4.1-0.1c17.2,0,33.2,6.6,45.3,18.7
		c8.7,8.6,14.4,19.2,17,30.3c5.7-2.1,12.3-0.9,16.9,3.7l31.9,31.9c0.7,0.7,1.4,1.3,2.1,2s1.4,1.4,2,2.1l65.8,65.8
		c12.5,12.5,32.8,12.5,45.3,0c6-6,9.3-14.1,9.3-22.6s-3.3-16.6-9.3-22.6L600.9,623.3c-6.2-6.2-6.2-16.4,0-22.6s16.4-6.2,22.6,0
		l101.8,101.8c6,6,14.1,9.3,22.6,9.3s16.6-3.3,22.6-9.3c12.5-12.5,12.5-32.8,0-45.3L668.7,555.4c-6.2-6.2-6.2-16.4,0-22.6
		C674.9,526.6,685.1,526.6,691.3,532.8z"/>
	<path display="inline" fill="#5A5A5A" d="M340.4,711.7c8.5,0,16.6-3.3,22.7-9.4l67.9-67.9c6-6,9.3-14.1,9.3-22.6
		s-3.3-16.6-9.3-22.6c-12.5-12.5-32.8-12.5-45.3,0l-67.9,67.9c-12.5,12.5-12.5,32.8,0,45.3C323.8,708.4,331.8,711.7,340.4,711.7z"/>
	<path display="inline" fill="#5A5A5A" d="M909.9,480l-32-32L750.7,320.8c-21.2-21.1-49.3-32.8-79.2-32.8h-128H507
		c-29.9,0-58,11.6-79.2,32.8L397,351.5c-9.1,9.1-14.1,21.2-14.1,33.9s5,24.8,14.1,33.9s21.2,14.1,33.9,14.1s24.8-5,33.9-14.1
		l30.9-30.9c0.4-0.4,0.8-0.8,1.2-1.1c0.2-0.1,0.4-0.3,0.6-0.4c0.2-0.2,0.5-0.3,0.7-0.5c0.2-0.1,0.5-0.3,0.7-0.4s0.4-0.3,0.6-0.4
		c0.2-0.2,0.5-0.3,0.7-0.4s0.5-0.2,0.7-0.3s0.5-0.2,0.7-0.3s0.4-0.2,0.7-0.3c0.2-0.1,0.5-0.1,0.7-0.2c0.3-0.1,0.5-0.1,0.8-0.2
		c0.3,0,0.6-0.1,0.9-0.1c0.2,0,0.5-0.1,0.7-0.1c0.5-0.1,1.1-0.1,1.6-0.1h164.5c0.2,0,0.3,0,0.5,0c0.4,0.1,0.7,0.1,1.1,0.1
		c0.2,0,0.5,0.1,0.7,0.1s0.5,0,0.8,0.1s0.5,0.1,0.8,0.2s0.6,0.1,0.8,0.2s0.5,0.2,0.7,0.3s0.5,0.2,0.7,0.3s0.5,0.2,0.7,0.3
		c0.2,0.2,0.5,0.3,0.7,0.4s0.4,0.3,0.6,0.4c0.2,0.1,0.5,0.2,0.7,0.4c0.3,0.2,0.5,0.3,0.7,0.5c0.2,0.1,0.4,0.2,0.6,0.4
		c0.3,0.2,0.5,0.5,0.8,0.7c0.2,0.1,0.3,0.2,0.4,0.3l8.3,8.2l169.7,169.7c10.7,10.7,17.3,24.9,18.5,40.1c0.1,0.4,0.1,0.9,0.1,1.3
		h204.9c2.4-20.9,3.7-42.1,3.7-63.6c0-21.7-1.3-43-3.7-64H932.5L909.9,480L909.9,480z"/>
	<path display="inline" fill="#5A5A5A" d="M498.8,838.2l32.9-32.9c0.3-0.4,0.7-0.8,1-1.1c0.3-0.3,0.7-0.6,1-0.9l33.1-32.9
		c6-6,9.3-14,9.3-22.6c0-7.9-2.9-15.4-8-21.2l-2.9-2.9c-5.9-5.2-13.3-8-21.2-8c-8.5,0-16.6,3.3-22.6,9.3l-67.9,67.9
		c-12.5,12.5-12.5,32.8,0,45.3C465.9,850.7,486.3,850.7,498.8,838.2z"/>
	<path display="inline" fill="#5A5A5A" d="M611.9,847.5c8.5,0,16.6-3.3,22.6-9.3c12.5-12.5,12.5-32.8,0.1-45.3L606,764.3
		c-2.8,10.7-8.4,20.5-16.5,28.6l-22.7,22.7l22.5,22.6C595.3,844.2,603.4,847.5,611.9,847.5z"/>
	<path display="inline" fill="#5A5A5A" d="M363,521.3c-6-6-14-9.3-22.6-9.3c-8.5,0-16.6,3.3-22.6,9.3l-67.9,67.9
		c-5.5,5.4-8.7,12.4-9.3,20.1c-0.3,3.6,0,7.2,0.9,10.7c1.4,5.5,4.3,10.4,8.3,14.4c6.1,6.1,14.1,9.4,22.7,9.4
		c8.5,0,16.6-3.3,22.6-9.3l67.9-67.9C375.5,554.1,375.5,533.8,363,521.3z"/>
	<path display="inline" fill="#5A5A5A" d="M430.9,770.3l67.8-67.8c12.5-12.5,12.5-32.8,0-45.3c-6-6-14.1-9.3-22.6-9.3
		s-16.6,3.3-22.6,9.3l-67.9,67.9c-6,6-9.3,14.1-9.3,22.6s3.3,16.6,9.3,22.6C398.1,782.8,418.4,782.8,430.9,770.3z"/>
</g>
<g display="none">
	<path display="inline" fill="#FFCC00" d="M873.6,639.6c-3.1,6.4-7.3,12.2-12.3,17.2c-12.5,12.5-28.8,18.7-45.2,18.7
		c-1.4,0-2.7,0-4.1-0.1c0,1.4,0.1,2.7,0.1,4.1c0,17.2-6.6,33.2-18.7,45.3c-12.1,12.1-28.2,18.7-45.3,18.7c-1.4,0-2.8,0-4.1-0.1
		c0,1.4,0.1,2.7,0.1,4.1c0,17.2-6.6,33.2-18.7,45.3c-12.1,12.1-28.2,18.7-45.3,18.7c-1.4,0-2.8,0-4.1-0.1
		c1.1,17.7-5.1,35.8-18.6,49.3c-12.1,12.1-28.1,18.7-45.3,18.7s-33.2-6.6-45.3-18.7l-22.5-22.6l-22.6,22.6
		c-12.5,12.5-28.9,18.7-45.3,18.7s-32.8-6.3-45.2-18.7c-13.5-13.5-19.7-31.6-18.6-49.3c-1.4,0-2.7,0.1-4.1,0.1
		c-16.4,0-32.8-6.2-45.3-18.7c-12.1-12.1-18.7-28.2-18.7-45.3c0-1.4,0-2.8,0.1-4.1c-1.4,0-2.7,0.1-4.1,0.1
		c-17.2,0-33.2-6.6-45.3-18.7c-13.5-13.5-19.7-31.6-18.6-49.3c-1.4,0-2.7,0.1-4.1,0.1c-17.2,0-33.2-6.6-45.3-18.7
		c-5.1-5-9.2-10.8-12.3-17.1H41c44.9,237,253,416.2,503,416.2c250.1,0,458.3-179.3,503.1-416.4H873.6z"/>
	<path display="inline" fill="#FFCC00" d="M164.4,448l149.8-149.8C341.4,271,377.5,256,416,256h91h36.5h128
		c38.5,0,74.6,15,101.8,42.2L923.1,448H1047C1002.1,211.1,794,32,544,32S85.9,211.1,41,448H164.4z"/>
</g>
<g display="none">
	<path display="inline" fill="#5A5A5A" d="M340.4,711.7c8.5,0,16.6-3.3,22.7-9.4l67.9-67.9c6-6,9.3-14.1,9.3-22.6
		s-3.3-16.6-9.3-22.6c-12.5-12.5-32.8-12.5-45.3,0l-67.9,67.9c-12.5,12.5-12.5,32.8,0,45.3C323.8,708.4,331.8,711.7,340.4,711.7z"/>
	<path display="inline" fill="#5A5A5A" d="M363,521.3c-6-6-14-9.3-22.6-9.3c-8.5,0-16.6,3.3-22.6,9.3l-67.9,67.9
		c-5.5,5.4-8.7,12.4-9.3,20.1c-0.3,3.6,0,7.2,0.9,10.7c1.4,5.5,4.3,10.4,8.3,14.4c6.1,6.1,14.1,9.4,22.7,9.4
		c8.5,0,16.6-3.3,22.6-9.3l67.9-67.9C375.5,554.1,375.5,533.8,363,521.3z"/>
	<path display="inline" fill="#5A5A5A" d="M589.5,792.9l-22.7,22.7l22.5,22.6c6,6,14.1,9.3,22.6,9.3s16.6-3.3,22.6-9.3
		c12.5-12.5,12.5-32.8,0.1-45.3L606,764.3C603.2,775,597.6,784.8,589.5,792.9z"/>
	<path display="inline" fill="#5A5A5A" d="M208.5,606.5c1.2-15.1,7.8-29.4,18.5-40.1l67.9-67.9c12.1-12.1,28.1-18.7,45.3-18.7
		s33.2,6.6,45.3,18.7c13.5,13.5,19.7,31.6,18.6,49.3c17.7-1.1,35.8,5.1,49.3,18.6c12.1,12.1,18.7,28.2,18.7,45.3
		c0,1.4,0,2.8-0.1,4.1c1.4,0,2.7-0.1,4.1-0.1c17.2,0,33.2,6.6,45.3,18.7c8.7,8.6,14.4,19.2,17,30.3c5.7-2.1,12.3-0.9,16.9,3.7
		l31.9,31.9c0.7,0.7,1.4,1.3,2.1,2s1.4,1.4,2,2.1l65.8,65.8c12.5,12.5,32.8,12.5,45.3,0c6-6,9.3-14.1,9.3-22.6s-3.3-16.6-9.3-22.6
		L600.9,623.3c-6.2-6.2-6.2-16.4,0-22.6s16.4-6.2,22.6,0l101.8,101.8c6,6,14.1,9.3,22.6,9.3s16.6-3.3,22.6-9.3
		c12.5-12.5,12.5-32.8,0-45.3L668.7,555.4c-6.2-6.2-6.2-16.4,0-22.6c6.2-6.2,16.4-6.2,22.6,0l101.8,101.8
		c12.5,12.5,32.8,12.5,45.3,0c4-4,6.9-9,8.3-14.5c0.9-3.5,1.2-7.1,0.9-10.7c-0.7-7.7-3.9-14.7-9.3-20.1L668.6,419.6l-3.6-3.5H513.7
		l-26.2,26.2c-15.2,15.1-35.2,23.5-56.6,23.5s-41.4-8.3-56.6-23.5c-15.1-15.2-23.5-35.2-23.5-56.6s8.3-41.4,23.5-56.6l30.9-30.9
		c3.6-3.6,7.4-7,11.3-10.2H416c-29.9,0-58,11.6-79.2,32.8L209.6,448l-32,32H155H36c-2.6,21-4,42.3-4,64c0,21.6,1.3,42.9,3.9,63.8
		h172.5C208.4,607.4,208.5,606.9,208.5,606.5z"/>
	<path display="inline" fill="#5A5A5A" d="M1056,544c0-21.7-1.4-43-4-64H932.5h-22.6l-32-32L750.7,320.8
		c-21.2-21.1-49.3-32.8-79.2-32.8h-128H507c-29.9,0-58,11.6-79.2,32.8L397,351.5c-9.1,9.1-14.1,21.2-14.1,33.9s5,24.8,14.1,33.9
		s21.2,14.1,33.9,14.1s24.8-5,33.9-14.1l30.9-30.9c0.4-0.4,0.8-0.8,1.2-1.1c0.2-0.1,0.4-0.3,0.6-0.4c0.2-0.2,0.5-0.3,0.7-0.5
		c0.2-0.1,0.5-0.3,0.7-0.4s0.4-0.3,0.6-0.4c0.2-0.2,0.5-0.3,0.7-0.4s0.5-0.2,0.7-0.3s0.5-0.2,0.7-0.3s0.4-0.2,0.7-0.3
		c0.2-0.1,0.5-0.1,0.7-0.2c0.3-0.1,0.5-0.1,0.8-0.2c0.3,0,0.6-0.1,0.9-0.1c0.2,0,0.5-0.1,0.7-0.1c0.5-0.1,1.1-0.1,1.6-0.1h164.5
		c0.2,0,0.3,0,0.5,0c0.4,0.1,0.7,0.1,1.1,0.1c0.2,0,0.5,0.1,0.7,0.1s0.5,0,0.8,0.1s0.5,0.1,0.8,0.2s0.6,0.1,0.8,0.2s0.5,0.2,0.7,0.3
		s0.5,0.2,0.7,0.3s0.5,0.2,0.7,0.3c0.2,0.2,0.5,0.3,0.7,0.4s0.4,0.3,0.6,0.4c0.2,0.1,0.5,0.2,0.7,0.4c0.3,0.2,0.5,0.3,0.7,0.5
		c0.2,0.1,0.4,0.2,0.6,0.4c0.3,0.2,0.5,0.5,0.8,0.7c0.2,0.1,0.3,0.2,0.4,0.3l8.3,8.2l169.7,169.7c10.7,10.7,17.3,24.9,18.5,40.1
		c0.1,0.4,0.1,0.9,0.1,1.3h172.7C1054.7,586.8,1056,565.5,1056,544z"/>
	<path display="inline" fill="#5A5A5A" d="M576.1,747.8c0-7.9-2.9-15.4-8-21.2l-2.9-2.9c-5.9-5.2-13.3-8-21.2-8
		c-8.5,0-16.6,3.3-22.6,9.3l-67.9,67.9c-12.5,12.5-12.5,32.8,0,45.3c12.4,12.5,32.8,12.5,45.3,0l32.9-32.9c0.3-0.4,0.7-0.8,1-1.1
		c0.3-0.3,0.7-0.6,1-0.9l33.1-32.9C572.8,764.4,576.1,756.4,576.1,747.8z"/>
	<path display="inline" fill="#5A5A5A" d="M430.9,770.3l67.8-67.8c12.5-12.5,12.5-32.8,0-45.3c-6-6-14.1-9.3-22.6-9.3
		s-16.6,3.3-22.6,9.3l-67.9,67.9c-6,6-9.3,14.1-9.3,22.6s3.3,16.6,9.3,22.6C398.1,782.8,418.4,782.8,430.9,770.3z"/>
</g>
<rect fill="#FFFFFF" width="1088" height="1088"/>
<g>
	<path fill="#FFCC00" d="M164.4,448l149.8-149.8C341.4,271,377.5,256,416,256h91h36.5h128c38.5,0,74.6,15,101.8,42.2L923.1,448H1088
		V0H0v448H164.4z"/>
	<path fill="#FFCC00" d="M873.6,639.6c-3.1,6.4-7.3,12.2-12.3,17.2c-12.5,12.5-28.8,18.7-45.2,18.7c-1.4,0-2.7,0-4.1-0.1
		c0,1.4,0.1,2.7,0.1,4.1c0,17.2-6.6,33.2-18.7,45.3c-12.1,12.1-28.2,18.7-45.3,18.7c-1.4,0-2.8,0-4.1-0.1c0,1.4,0.1,2.7,0.1,4.1
		c0,17.2-6.6,33.2-18.7,45.3c-12.1,12.1-28.2,18.7-45.3,18.7c-1.4,0-2.8,0-4.1-0.1c1.1,17.7-5.1,35.8-18.6,49.3
		c-12.1,12.1-28.1,18.7-45.3,18.7s-33.2-6.6-45.3-18.7l-22.5-22.6l-22.6,22.6c-12.5,12.5-28.9,18.7-45.3,18.7s-32.8-6.3-45.2-18.7
		c-13.5-13.5-19.7-31.6-18.6-49.3c-1.4,0-2.7,0.1-4.1,0.1c-16.4,0-32.8-6.2-45.3-18.7c-12.1-12.1-18.7-28.2-18.7-45.3
		c0-1.4,0-2.8,0.1-4.1c-1.4,0-2.7,0.1-4.1,0.1c-17.2,0-33.2-6.6-45.3-18.7c-13.5-13.5-19.7-31.6-18.6-49.3c-1.4,0-2.7,0.1-4.1,0.1
		c-17.2,0-33.2-6.6-45.3-18.7c-5.1-5-9.2-10.8-12.3-17.1H0V1088h1088V639.6H873.6z"/>
</g>
<g>
	<path fill="#5A5A5A" d="M363,521.3c-6-6-14-9.3-22.6-9.3c-8.5,0-16.6,3.3-22.6,9.3l-67.9,67.9c-5.5,5.4-8.7,12.4-9.3,20.1
		c-0.3,3.6,0,7.2,0.9,10.7c1.4,5.5,4.3,10.4,8.3,14.4c6.1,6.1,14.1,9.4,22.7,9.4c8.5,0,16.6-3.3,22.6-9.3l67.9-67.9
		C375.5,554.1,375.5,533.8,363,521.3z"/>
	<path fill="#5A5A5A" d="M340.4,711.7c8.5,0,16.6-3.3,22.7-9.4l67.9-67.9c6-6,9.3-14.1,9.3-22.6s-3.3-16.6-9.3-22.6
		c-12.5-12.5-32.8-12.5-45.3,0l-67.9,67.9c-12.5,12.5-12.5,32.8,0,45.3C323.8,708.4,331.8,711.7,340.4,711.7z"/>
	<path fill="#5A5A5A" d="M430.9,770.3l67.8-67.8c12.5-12.5,12.5-32.8,0-45.3c-6-6-14.1-9.3-22.6-9.3s-16.6,3.3-22.6,9.3l-67.9,67.9
		c-6,6-9.3,14.1-9.3,22.6s3.3,16.6,9.3,22.6C398.1,782.8,418.4,782.8,430.9,770.3z"/>
	<path fill="#5A5A5A" d="M691.3,532.8l101.8,101.8c12.5,12.5,32.8,12.5,45.3,0c4-4,6.9-9,8.3-14.5c0.9-3.5,1.2-7.1,0.9-10.7
		c-0.7-7.7-3.9-14.7-9.3-20.1L668.6,419.6l-3.6-3.5H513.7l-26.2,26.2c-15.2,15.1-35.2,23.5-56.6,23.5c-21.4,0-41.4-8.3-56.6-23.5
		c-15.1-15.2-23.5-35.2-23.5-56.6c0-21.4,8.3-41.4,23.5-56.6l30.9-30.9c3.6-3.6,7.4-7,11.3-10.2H416c-29.9,0-58,11.6-79.2,32.8
		L209.6,448l-32,32H155H0v127.8h208.4c0-0.4,0.1-0.9,0.1-1.3c1.2-15.1,7.8-29.4,18.5-40.1l67.9-67.9c12.1-12.1,28.1-18.7,45.3-18.7
		c17.2,0,33.2,6.6,45.3,18.7c13.5,13.5,19.7,31.6,18.6,49.3c17.7-1.1,35.8,5.1,49.3,18.6c12.1,12.1,18.7,28.2,18.7,45.3
		c0,1.4,0,2.8-0.1,4.1c1.4,0,2.7-0.1,4.1-0.1c17.2,0,33.2,6.6,45.3,18.7c8.7,8.6,14.4,19.2,17,30.3c5.7-2.1,12.3-0.9,16.9,3.7
		l31.9,31.9c0.7,0.7,1.4,1.3,2.1,2s1.4,1.4,2,2.1l65.8,65.8c12.5,12.5,32.8,12.5,45.3,0c6-6,9.3-14.1,9.3-22.6s-3.3-16.6-9.3-22.6
		L600.9,623.3c-6.2-6.2-6.2-16.4,0-22.6s16.4-6.2,22.6,0l101.8,101.8c6,6,14.1,9.3,22.6,9.3s16.6-3.3,22.6-9.3
		c12.5-12.5,12.5-32.8,0-45.3L668.7,555.4c-6.2-6.2-6.2-16.4,0-22.6S685.1,526.6,691.3,532.8z"/>
	<path fill="#5A5A5A" d="M879.3,606.3c0.1,0.4,0.1,0.9,0.1,1.3H1088V480H932.5h-22.6l-32-32L750.7,320.8
		c-21.2-21.1-49.3-32.8-79.2-32.8h-128H507c-29.9,0-58,11.6-79.2,32.8L397,351.5c-9.1,9.1-14.1,21.2-14.1,33.9
		c0,12.7,5,24.8,14.1,33.9c9.1,9.1,21.2,14.1,33.9,14.1c12.7,0,24.8-5,33.9-14.1l30.9-30.9c0.4-0.4,0.8-0.8,1.2-1.1
		c0.2-0.1,0.4-0.3,0.6-0.4c0.2-0.2,0.5-0.3,0.7-0.5c0.2-0.1,0.5-0.3,0.7-0.4c0.2-0.1,0.4-0.3,0.6-0.4c0.2-0.2,0.5-0.3,0.7-0.4
		s0.5-0.2,0.7-0.3s0.5-0.2,0.7-0.3s0.4-0.2,0.7-0.3c0.2-0.1,0.5-0.1,0.7-0.2c0.3-0.1,0.5-0.1,0.8-0.2c0.3,0,0.6-0.1,0.9-0.1
		c0.2,0,0.5-0.1,0.7-0.1c0.5-0.1,1.1-0.1,1.6-0.1h164.5c0.2,0,0.3,0,0.5,0c0.4,0.1,0.7,0.1,1.1,0.1c0.2,0,0.5,0.1,0.7,0.1
		s0.5,0,0.8,0.1c0.3,0.1,0.5,0.1,0.8,0.2c0.3,0.1,0.6,0.1,0.8,0.2s0.5,0.2,0.7,0.3s0.5,0.2,0.7,0.3s0.5,0.2,0.7,0.3
		c0.2,0.2,0.5,0.3,0.7,0.4c0.2,0.1,0.4,0.3,0.6,0.4c0.2,0.1,0.5,0.2,0.7,0.4c0.3,0.2,0.5,0.3,0.7,0.5c0.2,0.1,0.4,0.2,0.6,0.4
		c0.3,0.2,0.5,0.5,0.8,0.7c0.2,0.1,0.3,0.2,0.4,0.3l8.3,8.2l169.7,169.7C871.5,576.9,878.1,591.1,879.3,606.3z"/>
	<path fill="#5A5A5A" d="M611.9,847.5c8.5,0,16.6-3.3,22.6-9.3c12.5-12.5,12.5-32.8,0.1-45.3L606,764.3
		c-2.8,10.7-8.4,20.5-16.5,28.6l-22.7,22.7l22.5,22.6C595.3,844.2,603.4,847.5,611.9,847.5z"/>
	<path fill="#5A5A5A" d="M498.8,838.2l32.9-32.9c0.3-0.4,0.7-0.8,1-1.1c0.3-0.3,0.7-0.6,1-0.9l33.1-32.9c6-6,9.3-14,9.3-22.6
		c0-7.9-2.9-15.4-8-21.2l-2.9-2.9c-5.9-5.2-13.3-8-21.2-8c-8.5,0-16.6,3.3-22.6,9.3l-67.9,67.9c-12.5,12.5-12.5,32.8,0,45.3
		C465.9,850.7,486.3,850.7,498.8,838.2z"/>
</g>
</svg>
