<svg id="SvgjsSvg1367" xmlns="http://www.w3.org/2000/svg" version="1.1" xmlns:xlink="http://www.w3.org/1999/xlink" xmlns:svgjs="http://svgjs.com/svgjs" width="93" height="94" viewBox="0 0 93 94"><title>Forma 1 копия 2</title><desc>Created with Avocode.</desc><defs id="SvgjsDefs1368"></defs><path id="SvgjsPath1369" d="M876.009 377.998C864.323 377.998 853.6700000000001 382.418 845.544 389.623L850.143 392.717C857.183 386.937 866.196 383.461 876.009 383.461C898.458 383.461 916.72 401.648 916.72 424.002C916.72 446.355 898.4580000000001 464.54200000000003 876.009 464.54200000000003C853.558 464.54200000000003 835.2950000000001 446.355 835.2950000000001 424.002C835.2950000000001 412.817 839.8720000000001 402.677 847.248 395.33500000000004L844.7860000000001 390.314C835.7220000000001 398.72 830.0050000000001 410.69300000000004 830.0050000000001 424.002C830.0050000000001 449.368 850.6430000000001 470.00600000000003 876.0090000000001 470.00600000000003C901.3750000000001 470.00600000000003 922.0130000000001 449.36800000000005 922.0130000000001 424.002C922.0130000000001 398.63300000000004 901.3750000000001 377.998 876.0090000000001 377.998ZM852.398 397.493L850.716 396.363L852.836 400.686L853.569 402.179L865.356 426.229C865.727 427.888 866.446 429.337 867.502 430.54699999999997C869.366 432.68399999999997 872.0619999999999 433.91099999999994 874.9 433.91099999999994L874.903 433.91099999999994C877.267 433.91099999999994 879.5500000000001 433.05799999999994 881.339 431.50499999999994C883.326 429.7749999999999 884.5200000000001 427.3739999999999 884.6940000000001 424.7509999999999C884.8710000000001 422.1339999999999 884.023 419.6069999999999 882.2990000000001 417.62799999999993C881.224 416.39699999999993 879.8560000000001 415.47799999999995 878.3760000000001 414.96599999999995L856.0150000000001 399.92599999999993L856.0180000000001 399.92499999999995L852.4010000000002 397.49199999999996ZM839.827 424.002C839.827 434.004 844.581 443.014 849.874 449.433L852.519 447.431L859.224 438.931L857.6850000000001 436.056L849.8960000000001 441.49199999999996C846.4960000000001 436.49699999999996 844.6120000000001 430.491 844.6120000000001 424.00199999999995C844.6120000000001 416.5319999999999 847.2570000000001 409.68299999999994 851.648 404.31199999999995L849.601 400.13599999999997C843.595 406.417 839.827 414.78099999999995 839.827 424.00199999999995ZM893.642 436.286L893.0110000000001 439.254L900.1510000000001 447.254L902.796 449.433C908.089 443.014 912.514 434.004 912.514 424.003C912.514 404.533 895.518 388.74699999999996 876.009 388.74699999999996C868.105 388.74699999999996 860.695 391.36999999999995 854.641 395.74299999999994L858.309 398.20899999999995C863.293 394.81899999999996 869.3009999999999 392.82099999999997 875.77 392.78C881.622 392.818 887.235 394.47499999999997 892.1179999999999 397.29499999999996C901.184 402.763 907.2689999999999 412.65999999999997 907.2689999999999 424.00299999999993C907.2689999999999 430.4429999999999 905.3229999999999 436.41599999999994 901.9679999999998 441.38499999999993Z " fill="#e3e3e3" fill-opacity="1" transform="matrix(1,0,0,1,-830,-377)"></path></svg>