<svg id="SvgjsSvg1361" xmlns="http://www.w3.org/2000/svg" version="1.1" xmlns:xlink="http://www.w3.org/1999/xlink" xmlns:svgjs="http://svgjs.com/svgjs" width="76" height="88" viewBox="0 0 76 88"><title>Shape 1 копия 2</title><desc>Created with Avocode.</desc><defs id="SvgjsDefs1362"></defs><path id="SvgjsPath1363" d="M359.002 424.393C359.093 424.393 359.184 424.393 359.294 424.393C359.33 424.393 359.366 424.393 359.40299999999996 424.393C359.45699999999994 424.393 359.53 424.393 359.585 424.393C364.91499999999996 424.30199999999996 369.226 422.428 372.40999999999997 418.844C379.41299999999995 410.948 378.24899999999997 397.413 378.12199999999996 396.121C377.667 386.424 373.08299999999997 381.78499999999997 369.299 379.62C366.479 378.001 363.18699999999995 377.128 359.512 377.055L359.385 377.055C359.366 377.055 359.33 377.055 359.312 377.055L359.20300000000003 377.055C357.18300000000005 377.055 353.218 377.382 349.41600000000005 379.547C345.595 381.71200000000005 340.93800000000005 386.351 340.48400000000004 396.12100000000004C340.35600000000005 397.413 339.19200000000006 410.94800000000004 346.196 418.84400000000005C349.36100000000005 422.42800000000005 353.672 424.3020000000001 359.002 424.39300000000003ZM345.341 396.576C345.341 396.521 345.359 396.46700000000004 345.359 396.43C345.959 383.386 355.219 381.985 359.18399999999997 381.985L359.25699999999995 381.985C359.2939999999999 381.985 359.34799999999996 381.985 359.40299999999996 381.985C364.31399999999996 382.094 372.664 384.096 373.22799999999995 396.43C373.22799999999995 396.485 373.22799999999995 396.54 373.2459999999999 396.576C373.26499999999993 396.70300000000003 374.5379999999999 409.074 368.75299999999993 415.58700000000005C366.46099999999996 418.17100000000005 363.4049999999999 419.4440000000001 359.38499999999993 419.48100000000005C359.34799999999996 419.48100000000005 359.3299999999999 419.48100000000005 359.2939999999999 419.48100000000005C359.25699999999995 419.48100000000005 359.2389999999999 419.48100000000005 359.2029999999999 419.48100000000005C355.19999999999993 419.4440000000001 352.1259999999999 418.17100000000005 349.8519999999999 415.58700000000005C344.0859999999999 409.11100000000005 345.32199999999995 396.68500000000006 345.3409999999999 396.576ZM396.677 446.843C396.677 446.82500000000005 396.677 446.80600000000004 396.677 446.788C396.677 446.64300000000003 396.65900000000005 446.497 396.65900000000005 446.333C396.55000000000007 442.73100000000005 396.31300000000005 434.30800000000005 388.41800000000006 431.615C388.3640000000001 431.59700000000004 388.29100000000005 431.579 388.23600000000005 431.56100000000004C380.03200000000004 429.46900000000005 373.21000000000004 424.73800000000006 373.13700000000006 424.684C372.0280000000001 423.90200000000004 370.4990000000001 424.17400000000004 369.71700000000004 425.28400000000005C368.93500000000006 426.39400000000006 369.208 427.922 370.31700000000006 428.70500000000004C370.62700000000007 428.92300000000006 377.8670000000001 433.96200000000005 386.92600000000004 436.29100000000005C391.165 437.80100000000004 391.63800000000003 442.3310000000001 391.76500000000004 446.47900000000004C391.76500000000004 446.64300000000003 391.76500000000004 446.78800000000007 391.78400000000005 446.934C391.802 448.571 391.69300000000004 451.1 391.40100000000007 452.555C388.45400000000006 454.229 376.9030000000001 460.014 359.33000000000004 460.014C341.83000000000004 460.014 330.20500000000004 454.211 327.24 452.53700000000003C326.949 451.08200000000005 326.822 448.55300000000005 326.858 446.915C326.858 446.77000000000004 326.876 446.625 326.876 446.461C327.00399999999996 442.313 327.477 437.783 331.715 436.273C340.775 433.944 348.015 428.886 348.32399999999996 428.68600000000004C349.43399999999997 427.90400000000005 349.70699999999994 426.37600000000003 348.924 425.266C348.142 424.156 346.614 423.884 345.50399999999996 424.666C345.43199999999996 424.71999999999997 338.64599999999996 429.45 330.40599999999995 431.543C330.33299999999997 431.561 330.27799999999996 431.579 330.22399999999993 431.597C322.32899999999995 434.308 322.0919999999999 442.731 321.98299999999995 446.315C321.98299999999995 446.479 321.98299999999995 446.625 321.965 446.77C321.965 446.78799999999995 321.965 446.806 321.965 446.825C321.94599999999997 447.771 321.928 452.628 322.892 455.066C323.074 455.539 323.402 455.93899999999996 323.838 456.212C324.384 456.57599999999996 337.464 464.908 359.348 464.908C381.232 464.908 394.312 456.558 394.858 456.212C395.276 455.93899999999996 395.622 455.539 395.80400000000003 455.066C396.713 452.64599999999996 396.69500000000005 447.789 396.677 446.84299999999996Z " fill="#d8e6ef" fill-opacity="1" transform="matrix(1,0,0,1,-321,-377)"></path></svg>