<svg id="SvgjsSvg1000" xmlns="http://www.w3.org/2000/svg" version="1.1" xmlns:xlink="http://www.w3.org/1999/xlink" xmlns:svgjs="http://svgjs.com/svgjs" width="66" height="66" viewBox="0 0 66 66"><title>Forma 1 копия 3</title><desc>Created with Avocode.</desc><defs id="SvgjsDefs1001"></defs><path id="SvgjsPath1007" d="M219.994 1071.8C228.174 1071.8 235.631 1074.8899999999999 241.319 1079.94L238.1 1082.1000000000001C233.172 1078.0600000000002 226.863 1075.6200000000001 219.994 1075.6200000000001C204.279 1075.6200000000001 191.496 1088.3500000000001 191.496 1104.0000000000002C191.496 1119.6500000000003 204.279 1132.3800000000003 219.994 1132.3800000000003C235.71 1132.3800000000003 248.493 1119.6500000000003 248.493 1104.0000000000002C248.493 1096.1700000000003 245.289 1089.0700000000002 240.126 1083.9300000000003L241.85 1080.4200000000003C248.194 1086.3000000000004 252.196 1094.6900000000003 252.196 1104.0000000000002C252.196 1121.7600000000002 237.75 1136.2000000000003 219.994 1136.2000000000003C202.237 1136.2000000000003 187.791 1121.7600000000002 187.791 1104.0000000000002C187.791 1086.2400000000002 202.237 1071.8000000000002 219.994 1071.8000000000002ZM236.521 1085.45L237.69899999999998 1084.65L236.21499999999997 1087.68L235.70199999999997 1088.73L227.45099999999996 1105.56C227.19099999999997 1106.72 226.68799999999996 1107.74 225.94899999999996 1108.58C224.64399999999995 1110.08 222.75699999999995 1110.9399999999998 220.76999999999995 1110.9399999999998L220.76799999999994 1110.9399999999998C219.11299999999994 1110.9399999999998 217.51499999999993 1110.34 216.26299999999995 1109.2499999999998C214.87099999999995 1108.0399999999997 214.03599999999994 1106.3599999999997 213.91399999999996 1104.5299999999997C213.78999999999996 1102.6899999999998 214.38399999999996 1100.9199999999998 215.59099999999995 1099.5399999999997C216.34299999999996 1098.6799999999998 217.30099999999996 1098.0299999999997 218.33699999999996 1097.6799999999998L233.98999999999995 1087.1499999999999L233.98799999999994 1087.1499999999999L236.51899999999995 1085.4399999999998ZM245.321 1104C245.321 1111 241.993 1117.31 238.288 1121.8L236.437 1120.3999999999999L231.74300000000002 1114.4499999999998L232.82000000000002 1112.4399999999998L238.27300000000002 1116.2399999999998C240.65300000000002 1112.7499999999998 241.97200000000004 1108.5399999999997 241.97200000000004 1103.9999999999998C241.97200000000004 1098.7699999999998 240.12000000000003 1093.9799999999998 237.04600000000005 1090.2199999999998L238.47900000000004 1087.2899999999997C242.68300000000005 1091.6899999999998 245.32100000000005 1097.5499999999997 245.32100000000005 1103.9999999999998ZM207.65 1112.6L208.092 1114.6799999999998L203.09400000000002 1120.2799999999997L201.24300000000002 1121.7999999999997C197.538 1117.3099999999997 194.44000000000003 1110.9999999999998 194.44000000000003 1103.9999999999998C194.44000000000003 1090.3699999999997 206.33700000000002 1079.3199999999997 219.99400000000003 1079.3199999999997C225.52600000000004 1079.3199999999997 230.71300000000002 1081.1599999999996 234.95100000000002 1084.2199999999998L232.38400000000001 1085.9499999999998C228.895 1083.5699999999997 224.68900000000002 1082.1699999999998 220.161 1082.1499999999999C216.065 1082.1699999999998 212.136 1083.33 208.718 1085.31C202.37099999999998 1089.1299999999999 198.112 1096.06 198.112 1104C198.112 1108.51 199.474 1112.69 201.823 1116.17Z " fill="#f0f0f0" fill-opacity="1" transform="matrix(1,0,0,1,-187,-1071)"></path></svg>