<?xml version="1.0" encoding="utf-8"?>
<!-- Generator: Adobe Illustrator 21.1.0, SVG Export Plug-In . SVG Version: 6.00 Build 0)  -->
<svg version="1.1" id="Layer_1" xmlns="http://www.w3.org/2000/svg" xmlns:xlink="http://www.w3.org/1999/xlink" x="0px" y="0px"
	 viewBox="0 0 734.1 394.4" enable-background="new 0 0 734.1 394.4" xml:space="preserve">
<g>
	<g>
		<g>
			<path fill="#5E6076" d="M697.5,394.4H36.6C16.4,394.4,0,378,0,357.8V36.6C0,16.4,16.4,0,36.6,0h660.9c20.2,0,36.6,16.4,36.6,36.6
				v321.2C734.1,378,717.7,394.4,697.5,394.4z"/>
			<circle fill="#DDEAF7" cx="152.8" cy="197.2" r="103"/>
			<g>
				<g>
					<path fill="#DDEAF7" d="M323,174.8h-22.2v15h26v9.3h-37.5v-56h37.5v9.3h-25.9v13.3H323V174.8z"/>
					<path fill="#DDEAF7" d="M376.5,152.4h-17.2v46.7h-11.5v-46.7h-16.9v-9.3h45.6V152.4z"/>
					<path fill="#DDEAF7" d="M428.6,199.1h-11.5v-24h-22.5v24h-11.5v-56h11.5v22.7h22.5v-22.7h11.5V199.1z"/>
					<path fill="#DDEAF7" d="M472.4,174.8h-22.2v15h26v9.3h-37.5v-56h37.5v9.3h-25.9v13.3h22.2V174.8z"/>
					<path fill="#DDEAF7" d="M503.8,178.6h-9.2v20.5H483v-56h20.8c3.2,0,6.1,0.4,8.7,1.1c2.6,0.7,4.7,1.8,6.5,3.2
						c1.8,1.4,3.1,3.2,4.1,5.3c0.9,2.1,1.4,4.5,1.4,7.3c0,2.1-0.2,3.9-0.7,5.5c-0.5,1.6-1.1,3.1-2,4.3c-0.9,1.3-1.9,2.4-3.2,3.3
						c-1.2,0.9-2.6,1.8-4.2,2.5l12.1,22.9v0.5h-12.4L503.8,178.6z M494.6,169.3h9.3c1.5,0,2.8-0.2,4-0.6c1.1-0.4,2.1-1,2.8-1.7
						c0.8-0.7,1.3-1.6,1.7-2.6c0.4-1,0.6-2.1,0.6-3.4c0-2.6-0.7-4.7-2.2-6.2c-1.5-1.5-3.8-2.3-6.9-2.3h-9.3V169.3z"/>
					<path fill="#DDEAF7" d="M567,174.8h-22.2v15h26v9.3h-37.5v-56h37.5v9.3h-25.9v13.3H567V174.8z"/>
					<path fill="#DDEAF7" d="M620,143.1v37c0,3.2-0.5,6.1-1.6,8.6c-1.1,2.5-2.6,4.5-4.5,6.2c-1.9,1.7-4.2,2.9-6.8,3.8
						c-2.6,0.8-5.5,1.3-8.6,1.3c-3.1,0-6-0.4-8.6-1.3c-2.6-0.8-4.9-2.1-6.8-3.8c-1.9-1.7-3.4-3.7-4.4-6.2c-1.1-2.5-1.6-5.3-1.6-8.6
						v-37h11.5v37c0,3.7,0.9,6.3,2.6,8c1.8,1.7,4.2,2.5,7.3,2.5c3.1,0,5.6-0.8,7.3-2.5c1.7-1.7,2.6-4.4,2.6-8v-37H620z"/>
					<path fill="#DDEAF7" d="M644.5,143.1l14.4,40.6l14.3-40.6h15.2v56h-11.6v-15.3l1.2-26.4l-15.1,41.7h-7.9l-15.1-41.7l1.2,26.4
						v15.3h-11.5v-56H644.5z"/>
				</g>
				<g>
					<path fill="#F4C944" d="M308.5,241h-13.4l-2.5,7.6h-8.1l13.8-37.1h7.1l13.9,37.1h-8.1L308.5,241z M297.2,234.8h9.3l-4.7-13.9
						L297.2,234.8z"/>
					<path fill="#F4C944" d="M351.3,236.3c-0.1,1.9-0.6,3.6-1.3,5.2c-0.7,1.6-1.7,2.9-3,4.1c-1.3,1.1-2.8,2-4.6,2.7
						c-1.8,0.6-3.8,1-6.1,1c-2.4,0-4.5-0.4-6.4-1.2c-1.9-0.8-3.5-2-4.8-3.6c-1.3-1.5-2.3-3.4-3-5.6c-0.7-2.2-1.1-4.7-1.1-7.4v-2.4
						c0-2.7,0.4-5.2,1.1-7.4c0.7-2.2,1.8-4.1,3.1-5.6c1.3-1.5,3-2.7,4.9-3.6c1.9-0.8,4-1.2,6.4-1.2c2.3,0,4.4,0.3,6.1,1
						c1.8,0.7,3.3,1.6,4.5,2.7c1.2,1.2,2.2,2.5,2.9,4.2c0.7,1.6,1.1,3.4,1.3,5.2h-7.6c-0.1-1.1-0.3-2.1-0.6-2.9
						c-0.3-0.8-0.7-1.6-1.3-2.1c-0.6-0.6-1.3-1-2.2-1.3c-0.9-0.3-2-0.4-3.2-0.4c-2.6,0-4.5,0.9-5.8,2.8c-1.3,1.9-1.9,4.8-1.9,8.7
						v2.5c0,1.9,0.1,3.6,0.4,5c0.3,1.4,0.7,2.7,1.3,3.6c0.6,1,1.4,1.7,2.3,2.2c1,0.5,2.1,0.7,3.5,0.7c1.2,0,2.2-0.1,3.1-0.4
						s1.6-0.7,2.2-1.2c0.6-0.6,1-1.2,1.4-2.1c0.3-0.8,0.5-1.8,0.6-2.9H351.3z"/>
					<path fill="#F4C944" d="M385.4,236.3c-0.1,1.9-0.6,3.6-1.3,5.2c-0.7,1.6-1.7,2.9-3,4.1c-1.3,1.1-2.8,2-4.6,2.7
						c-1.8,0.6-3.8,1-6.1,1c-2.4,0-4.5-0.4-6.4-1.2c-1.9-0.8-3.5-2-4.8-3.6c-1.3-1.5-2.3-3.4-3-5.6c-0.7-2.2-1.1-4.7-1.1-7.4v-2.4
						c0-2.7,0.4-5.2,1.1-7.4c0.7-2.2,1.8-4.1,3.1-5.6c1.3-1.5,3-2.7,4.9-3.6c1.9-0.8,4-1.2,6.4-1.2c2.3,0,4.4,0.3,6.1,1
						c1.8,0.7,3.3,1.6,4.5,2.7c1.2,1.2,2.2,2.5,2.9,4.2c0.7,1.6,1.1,3.4,1.3,5.2h-7.6c-0.1-1.1-0.3-2.1-0.6-2.9
						c-0.3-0.8-0.7-1.6-1.3-2.1c-0.6-0.6-1.3-1-2.2-1.3c-0.9-0.3-2-0.4-3.2-0.4c-2.6,0-4.5,0.9-5.8,2.8c-1.3,1.9-1.9,4.8-1.9,8.7
						v2.5c0,1.9,0.1,3.6,0.4,5c0.3,1.4,0.7,2.7,1.3,3.6c0.6,1,1.4,1.7,2.3,2.2c1,0.5,2.1,0.7,3.5,0.7c1.2,0,2.2-0.1,3.1-0.4
						s1.6-0.7,2.2-1.2c0.6-0.6,1-1.2,1.4-2.1c0.3-0.8,0.5-1.8,0.6-2.9H385.4z"/>
					<path fill="#F4C944" d="M412.8,232.5h-14.7v9.9h17.2v6.1h-24.9v-37.1h24.8v6.2h-17.2v8.8h14.7V232.5z"/>
					<path fill="#F4C944" d="M427.5,235.5v13.1h-7.6v-37.1h14.5c2.2,0,4.2,0.3,5.9,0.9c1.7,0.6,3.2,1.5,4.4,2.6
						c1.2,1.1,2.1,2.4,2.7,3.9c0.6,1.5,0.9,3.1,0.9,4.9c0,1.8-0.3,3.4-0.9,4.9c-0.6,1.4-1.5,2.7-2.7,3.7c-1.2,1-2.7,1.8-4.4,2.4
						c-1.7,0.6-3.7,0.8-5.9,0.8H427.5z M427.5,229.4h6.8c1.1,0,2-0.1,2.8-0.4c0.8-0.3,1.4-0.6,1.9-1.1c0.5-0.5,0.9-1.1,1.1-1.7
						c0.2-0.7,0.4-1.4,0.4-2.2c0-0.8-0.1-1.6-0.4-2.3c-0.2-0.7-0.6-1.4-1.1-2c-0.5-0.6-1.1-1-1.9-1.4c-0.8-0.3-1.7-0.5-2.8-0.5h-6.8
						V229.4z"/>
					<path fill="#F4C944" d="M481.4,217.7H470v30.9h-7.6v-30.9h-11.2v-6.2h30.2V217.7z"/>
					<path fill="#F4C944" d="M508.1,232.5h-14.7v9.9h17.2v6.1h-24.9v-37.1h24.8v6.2h-17.2v8.8h14.7V232.5z"/>
					<path fill="#F4C944" d="M515.1,248.6v-37.1h11.4c2.5,0,4.8,0.4,6.9,1.3c2.1,0.9,3.9,2.1,5.4,3.6c1.5,1.6,2.6,3.4,3.5,5.6
						c0.8,2.2,1.2,4.6,1.2,7.2v1.7c0,2.7-0.4,5.1-1.2,7.2c-0.8,2.2-2,4-3.5,5.6c-1.5,1.6-3.3,2.8-5.4,3.6c-2.1,0.9-4.4,1.3-6.9,1.3
						H515.1z M522.8,217.7v24.8h3.7c3,0,5.3-1,6.9-3c1.6-2,2.4-4.8,2.4-8.5v-1.7c0-3.8-0.8-6.6-2.3-8.6c-1.6-1.9-3.8-2.9-6.9-2.9
						H522.8z"/>
					<path fill="#F4C944" d="M592.2,248.6h-7.6v-15.9h-14.9v15.9H562v-37.1h7.6v15h14.9v-15h7.6V248.6z"/>
					<path fill="#F4C944" d="M621.2,232.5h-14.7v9.9h17.2v6.1h-24.9v-37.1h24.8v6.2h-17.2v8.8h14.7V232.5z"/>
					<path fill="#F4C944" d="M642,235h-6.1v13.6h-7.6v-37.1h13.8c2.1,0,4.1,0.2,5.8,0.7c1.7,0.5,3.1,1.2,4.3,2.1
						c1.2,0.9,2.1,2.1,2.7,3.5c0.6,1.4,0.9,3,0.9,4.8c0,1.4-0.2,2.6-0.5,3.7c-0.3,1.1-0.7,2-1.3,2.9c-0.6,0.8-1.3,1.6-2.1,2.2
						c-0.8,0.6-1.7,1.2-2.8,1.6l8,15.2v0.4H649L642,235z M635.9,228.8h6.2c1,0,1.9-0.1,2.6-0.4c0.8-0.3,1.4-0.6,1.9-1.1
						c0.5-0.5,0.9-1.1,1.1-1.7c0.3-0.7,0.4-1.4,0.4-2.3c0-1.8-0.5-3.1-1.5-4.1c-1-1-2.5-1.5-4.6-1.5h-6.1V228.8z"/>
					<path fill="#F4C944" d="M683.9,232.5h-14.7v9.9h17.2v6.1h-24.9v-37.1h24.8v6.2h-17.2v8.8h14.7V232.5z"/>
				</g>
			</g>
			<rect y="36.6" fill="#3E4149" width="734.1" height="29.9"/>
			<rect y="327.9" fill="#3E4149" width="734.1" height="29.9"/>
		</g>
		<g>
			<g>
				<polygon fill="#DDEAF7" points="106,207.3 152.8,273.8 199.5,207.3 152.8,236 				"/>
				<polygon fill="#DDEAF7" points="199.5,196.8 152.8,120.6 106,196.8 152.8,225 				"/>
			</g>
			<polygon fill="#5E6076" points="152.8,225 152.8,120.6 199.5,196.8 			"/>
			<polygon fill="#8F96C5" points="152.8,120.6 152.8,225 106,196.8 			"/>
			<polygon fill="#5E6076" points="152.8,236 152.8,273.8 199.5,207.3 			"/>
			<polygon fill="#8F96C5" points="106,207.3 152.8,236 152.8,273.8 			"/>
			<polygon fill="#3E4149" points="152.8,225 199.5,196.8 152.8,172.8 			"/>
			<polygon fill="#5E6076" points="152.8,172.8 152.8,225 106,196.8 			"/>
		</g>
	</g>
</g>
</svg>
