<?xml version="1.0" encoding="utf-8"?>
<!-- Generator: Adobe Illustrator 21.1.0, SVG Export Plug-In . SVG Version: 6.00 Build 0)  -->
<svg version="1.1" id="Layer_1" xmlns="http://www.w3.org/2000/svg" xmlns:xlink="http://www.w3.org/1999/xlink" x="0px" y="0px"
	 viewBox="0 0 1860 2520" enable-background="new 0 0 1860 2520" xml:space="preserve">
<rect display="none" fill="#F2F2F2" width="1860" height="2520"/>
<rect x="180" display="none" fill="#F2F2F2" width="1500" height="2520"/>
<g>
	<path fill="#5A5A5A" d="M930,1176c-46.4,0-84,37.6-84,84s37.6,84,84,84s84-37.6,84-84S976.4,1176,930,1176z M930,1320
		c-33.1,0-60-26.9-60-60s26.9-60,60-60s60,26.9,60,60S963.1,1320,930,1320z"/>
	<circle fill="#5A5A5A" cx="930" cy="1260" r="24"/>
	<path fill="#5A5A5A" d="M1086,1248h-60.8c0.5,3.9,0.8,7.9,0.8,12s-0.3,8.1-0.8,12h60.8v72h24v-72v-24v-72h-24V1248z"/>
	<path fill="#5A5A5A" d="M1182,1176c-33.1,0-60,26.9-60,60v12v24v72h24v-72h72v72h24v-72v-24v-12C1242,1202.9,1215.1,1176,1182,1176
		z M1218,1248h-72v-12c0-19.9,16.1-36,36-36s36,16.1,36,36V1248z"/>
	<path fill="#5A5A5A" d="M582,1212c0,19.9-16.1,36-36,36s-36-16.1-36-36v-36h-24v36c0,29,20.6,53.2,48,58.8v73.2h24v-73.2
		c27.4-5.6,48-29.8,48-58.8v-36h-24V1212z"/>
	<path fill="#5A5A5A" d="M222,1260c0,46.4,37.6,84,84,84h36v-24h-36c-33.1,0-60-26.9-60-60s26.9-60,60-60h36v-24h-36
		C259.6,1176,222,1213.6,222,1260z"/>
	<path fill="#5A5A5A" d="M1422,1176h-12h-24v168h24h12c46.4,0,84-37.6,84-84S1468.4,1176,1422,1176z M1422,1320h-12v-120h12
		c33.1,0,60,26.9,60,60S1455.1,1320,1422,1320z"/>
	<path fill="#5A5A5A" d="M474,1224c0-26.5-21.5-48-48-48h-48h-24v168h24v-72h48c13.2,0,24,10.8,24,24v48h24v-48
		c0-14.3-6.3-27.2-16.2-36C467.7,1251.2,474,1238.3,474,1224z M378,1248v-48h48c13.2,0,24,10.8,24,24s-10.8,24-24,24H378z"/>
	<path fill="#5A5A5A" d="M690,1176h-48h-24v168h24v-72h48c26.5,0,48-21.5,48-48S716.5,1176,690,1176z M690,1248h-48v-48h48
		c13.2,0,24,10.8,24,24S703.2,1248,690,1248z"/>
	<path fill="#5A5A5A" d="M1566,1200h72v-24h-72c-26.5,0-48,21.5-48,48s21.5,48,48,48h24c13.2,0,24,10.8,24,24s-10.8,24-24,24h-72v24
		h72c26.5,0,48-21.5,48-48s-21.5-48-48-48h-24c-13.2,0-24-10.8-24-24S1552.8,1200,1566,1200z"/>
	<path fill="#5A5A5A" d="M855.1,1200c7.8-9.8,17.5-17.9,28.4-24H822h-24h-48v24h48v144h24v-144H855.1z"/>
	<polygon fill="#5A5A5A" points="1350,1298.8 1279.8,1176 1278,1176 1266,1176 1254,1176 1254,1344 1278,1344 1278,1221.2 
		1348.2,1344 1350,1344 1362,1344 1374,1344 1374,1176 1350,1176 	"/>
</g>
<path fill="#FFFFFF" d="M999.3,576H860.7c-8.6,0-16.5,4.6-20.8,12l-242.4,420c-9.2,16,2.3,36,20.8,36h623.5c18.5,0,30-20,20.8-36
	l-242.5-420C1015.8,580.6,1007.9,576,999.3,576z"/>
<g>
	<path fill="#FFCC00" d="M882,732h34.1h13.7h48c12.5,0,24.3,4.2,33.9,12h98.4l-27.7-48H777.6l-27.7,48h98.2
		C857.7,736.2,869.5,732,882,732z"/>
	<polygon fill="#FFCC00" points="1047.8,636 812.2,636 784.5,684 1075.5,684 	"/>
	<path fill="#FFCC00" d="M999.3,576H860.7c-8.6,0-16.5,4.6-20.8,12l-20.8,36h221.7l-20.8-36C1015.8,580.6,1007.9,576,999.3,576z"/>
	<polygon fill="#FFCC00" points="835.6,756 743,756 715.2,804 787.6,804 	"/>
	<path fill="#FFCC00" d="M1221,936H994.8c-4,2.8-8.8,4.3-13.8,4.3c-0.5,0-1,0-1.5,0c0.4,6.6-1.9,13.4-7,18.5c-4.5,4.5-10.5,7-17,7
		s-12.5-2.5-17-7l-8.4-8.5l-8.5,8.5c-4.7,4.7-10.8,7-17,7s-12.3-2.4-17-7c-5.1-5.1-7.4-11.8-7-18.5c-0.5,0-1,0-1.5,0
		c-4.8,0-9.6-1.4-13.8-4.3H639l-27.7,48h637.4L1221,936z"/>
	<path fill="#FFCC00" d="M1255.6,996H604.4l-6.9,12c-9.2,16,2.3,36,20.8,36h623.5c18.5,0,30-20,20.8-36L1255.6,996z"/>
	<path fill="#FFCC00" d="M953.2,922.6c-0.1,0.4-0.3,0.9-0.4,1.4h1.8L953.2,922.6z"/>
	<path fill="#FFCC00" d="M855.2,916.3c0-0.5,0-1.1,0-1.5c-0.5,0-1,0-1.5,0c-6.5,0-12.5-2.5-17-7c-5.1-5.1-7.4-11.9-7-18.5
		c-0.5,0-1,0-1.5,0c-6.5,0-12.5-2.5-17-7c-1.9-1.8-3.4-4-4.6-6.3h-133l-27.7,48h210.5C855.6,921.6,855.2,919,855.2,916.3z"/>
	<polygon fill="#FFCC00" points="1072.2,804 1144.8,804 1117,756 1024.2,756 	"/>
	<path fill="#FFCC00" d="M1049,882.3c-4.7,4.7-10.8,7-17,7c-0.5,0-1,0-1.5,0c0,0.5,0,1,0,1.5c0,6.4-2.5,12.4-7,17
		c-4.5,4.5-10.6,7-17,7c-0.5,0-1,0-1.5,0c0,0.5,0,1,0,1.5c0,2.7-0.4,5.2-1.2,7.7h210.3l-27.7-48h-132.9
		C1052.4,878.3,1050.8,880.5,1049,882.3z"/>
</g>
<g>
	<path fill="#5A5A5A" d="M862.1,831.5c-2.2-2.2-5.3-3.5-8.5-3.5s-6.2,1.2-8.5,3.5L819.7,857c-2,2-3.2,4.7-3.5,7.5
		c-0.1,1.3,0,2.7,0.3,4c0.5,2.1,1.6,3.9,3.1,5.4c2.3,2.3,5.3,3.5,8.5,3.5s6.2-1.2,8.5-3.5l25.5-25.5
		C866.8,843.8,866.8,836.2,862.1,831.5z"/>
	<path fill="#5A5A5A" d="M942,916.4c0-3-1-5.7-3-7.9l-1.1-1.1c-2.2-1.9-5-3-8-3c-3.2,0-6.2,1.2-8.5,3.5L896,933.3
		c-4.7,4.7-4.7,12.3,0,17s12.3,4.7,17,0l12.3-12.3c0.1-0.2,0.2-0.3,0.4-0.4c0.1-0.1,0.3-0.2,0.4-0.3l12.4-12.4
		C940.8,922.6,942,919.6,942,916.4z"/>
	<path fill="#5A5A5A" d="M913,882.4c-2.2-2.2-5.3-3.5-8.5-3.5s-6.2,1.2-8.5,3.5l-25.5,25.5c-2.2,2.2-3.5,5.3-3.5,8.5
		s1.2,6.2,3.5,8.5c4.6,4.7,12.3,4.7,17,0l25.5-25.5C917.7,894.7,917.7,887.1,913,882.4z"/>
	<path fill="#5A5A5A" d="M891.1,865.5c0-3.2-1.2-6.2-3.5-8.5c-4.7-4.7-12.3-4.7-17,0l-25.5,25.5c-4.7,4.7-4.7,12.3,0,17
		c2.2,2.2,5.3,3.4,8.5,3.4s6.2-1.2,8.5-3.5l25.5-25.5C889.8,871.7,891.1,868.7,891.1,865.5z"/>
	<path fill="#5A5A5A" d="M804.2,864c0-0.2,0-0.3,0-0.5c0.5-5.7,2.9-11,6.9-15l25.5-25.5c4.5-4.5,10.5-7,17-7s12.5,2.5,17,7
		c5.1,5.1,7.4,11.9,7,18.5c6.6-0.4,13.4,1.9,18.5,7c4.5,4.5,7,10.5,7,17c0,0.5,0,1,0,1.5c0.5,0,1,0,1.5,0c6.4,0,12.5,2.5,17,7
		c3.3,3.3,5.4,7.2,6.4,11.4c2.1-0.8,4.6-0.3,6.3,1.4l12,12c0.3,0.2,0.5,0.5,0.8,0.8s0.5,0.5,0.8,0.8l24.7,24.7
		c4.7,4.7,12.3,4.7,17,0c2.2-2.2,3.5-5.3,3.5-8.5s-1.2-6.2-3.5-8.5l-38.2-38.2c-2.3-2.3-2.3-6.2,0-8.5s6.1-2.3,8.5,0l38.1,38.1
		c2.2,2.2,5.3,3.5,8.5,3.5s6.2-1.2,8.5-3.5c4.7-4.7,4.7-12.3,0-17l-38.2-38.2c-2.3-2.3-2.3-6.2,0-8.5s6.1-2.3,8.5,0l38.2,38.2
		c4.7,4.7,12.3,4.7,17,0c1.5-1.5,2.6-3.4,3.1-5.4c0.3-1.3,0.5-2.7,0.3-4c-0.2-2.9-1.4-5.5-3.5-7.5l-63.6-63.6l-1.4-1.3h-56.7
		l-9.8,9.8c-5.7,5.7-13.2,8.8-21.2,8.8s-15.5-3.1-21.2-8.8s-8.8-13.2-8.8-21.2s3.1-15.5,8.8-21.2l11.6-11.6c1.4-1.3,2.8-2.6,4.2-3.8
		h-0.2c-11.2,0-21.8,4.4-29.7,12.3L804.6,804l-12,12h-8.5h-75.8l-27.7,48H804.2z"/>
	<path fill="#5A5A5A" d="M953.2,922.6c-1.1,4-3.2,7.7-6.2,10.7l-8.5,8.5l8.5,8.5c2.2,2.2,5.3,3.5,8.5,3.5s6.2-1.2,8.5-3.5
		c4.7-4.7,4.7-12.3,0-17L953.2,922.6z"/>
	<path fill="#5A5A5A" d="M1151.7,816h-76h-8.5l-12-12l-47.7-47.7c-8-8-18.5-12.3-29.7-12.3h-48h-13.7c-11.2,0-21.8,4.4-29.7,12.3
		l-11.6,11.6c-3.4,3.4-5.3,8-5.3,12.7s1.9,9.3,5.3,12.7c3.4,3.4,8,5.3,12.7,5.3c4.8,0,9.3-1.9,12.7-5.3l11.6-11.6
		c0.1-0.2,0.3-0.3,0.5-0.4c0.1,0,0.1-0.1,0.2-0.2c0.1-0.1,0.2-0.2,0.3-0.2c0.1-0.1,0.2-0.1,0.3-0.2c0.1,0,0.1-0.1,0.2-0.1
		c0.1,0,0.2-0.1,0.3-0.2c0.1,0,0.2-0.1,0.3-0.1s0.2-0.1,0.3-0.1s0.2-0.1,0.3-0.1s0.2,0,0.3-0.1c0.1,0,0.2,0,0.3-0.1s0.2,0,0.3,0
		s0.1,0,0.3,0s0.4,0,0.6,0H978c0.1,0,0.1,0,0.2,0c0.1,0,0.3,0,0.4,0c0.1,0,0.2,0,0.3,0s0.2,0,0.3,0s0.2,0,0.3,0.1
		c0.1,0,0.2,0,0.3,0.1c0.1,0,0.2,0.1,0.3,0.1s0.2,0.1,0.3,0.1s0.2,0.1,0.3,0.1s0.2,0.1,0.3,0.2c0.1,0,0.1,0.1,0.2,0.1
		c0.1,0,0.2,0.1,0.3,0.2c0.1,0.1,0.1,0.1,0.3,0.2c0.1,0,0.1,0.1,0.2,0.2c0.1,0.1,0.2,0.2,0.3,0.3l0.1,0.1l3.1,3.1l63.6,63.6
		c4,4,6.5,9.4,6.9,15c0,0.2,0,0.3,0,0.5h123.6L1151.7,816z"/>
</g>
<path display="none" fill="#5AC8FA" d="M930,2184c-46.4,0-84-37.6-84-84s37.6-84,84-84s84,37.6,84,84S976.4,2184,930,2184z"/>
<g display="none">
	<rect x="834" y="2004" display="inline" fill="none" width="192" height="192"/>
	<path display="inline" fill="#2094FA" d="M930,2020c-44.1,0-80,35.9-80,80s35.9,80,80,80s80-35.9,80-80S974.1,2020,930,2020z
		 M930,2036c35.4,0,64,28.6,64,64s-28.6,64-64,64s-64-28.6-64-64S894.6,2036,930,2036z M922,2060v48h-24l32,32l32-32h-24v-48H922z"
		/>
	<rect x="858" y="2028" display="inline" fill="none" width="144" height="144"/>
	<path display="inline" fill="#F2F4FF" d="M924,2046v84.4l-27.4-27.4l-9,9l42.4,42.4l42.4-42.4l-9-9l-27.4,27.4V2046H924z"/>
</g>
<rect x="180" y="1716" display="none" width="1500" height="48"/>
<text transform="matrix(1 0 0 1 633.2002 1752)" display="none" fill="#888888" enable-background="new    " font-family="'ProximaNova-Regular'" font-size="48px">and blockchain technologies</text>
<circle display="none" cx="930" cy="1800" r="24"/>
<g display="none">
	<rect x="906" y="1776" display="inline" fill="none" width="48" height="48"/>
	<path display="inline" fill="#FFFFFF" d="M944,1782h-28c-2.2,0-4,1.8-4,4v28c0,2.2,1.8,4,4,4h28c2.2,0,4-1.8,4-4v-28
		C948,1783.8,946.2,1782,944,1782"/>
	<rect x="917" y="1805" display="inline" fill="#007AFF" width="8" height="8"/>
	<rect x="935" y="1805" display="inline" fill="#007AFF" width="8" height="8"/>
	<rect x="917" y="1787" display="inline" fill="#007AFF" width="8" height="8"/>
	<rect x="935" y="1787" display="inline" fill="#007AFF" width="8" height="8"/>
	<rect x="925" y="1790" display="inline" fill="#5AC8FA" width="4" height="2"/>
	<rect x="931" y="1790" display="inline" fill="#5AC8FA" width="2" height="2"/>
	<rect x="938" y="1795" display="inline" fill="#5AC8FA" width="2" height="4"/>
	<rect x="938" y="1801" display="inline" fill="#5AC8FA" width="2" height="2"/>
	<rect x="920" y="1801" display="inline" fill="#5AC8FA" width="2" height="4"/>
	<rect x="920" y="1797" display="inline" fill="#5AC8FA" width="2" height="2"/>
	<rect x="927" y="1808" display="inline" fill="#5AC8FA" width="2" height="2"/>
	<rect x="931" y="1808" display="inline" fill="#5AC8FA" width="4" height="2"/>
</g>
<g display="none">
	<rect x="906" y="1776" display="inline" fill="none" width="48" height="48"/>
	<g display="inline">
		<path display="none" fill="#FFFFFF" d="M947,1800c0,9.4-7.6,17-17,17s-17-7.6-17-17s7.6-17,17-17S947,1790.6,947,1800"/>
		<path opacity="0.15" fill="#5AC8FA" enable-background="new    " d="M930,1820v-4c8.8,0,16-7.2,16-16s-7.2-16-16-16
			c-3.8,0-7.5,1.3-10.4,3.8l-2.6-3c3.7-3.1,8.3-4.8,13-4.8c11,0,20,9,20,20S941,1820,930,1820z"/>
		<path fill="#5AC8FA" d="M930,1820c-11,0-20-9-20-20s9-20,20-20v4c-8.8,0-16,7.2-16,16s7.2,16,16,16s16-7.2,16-16
			c0-3.8-1.3-7.5-3.8-10.4l3-2.6c3.1,3.7,4.8,8.3,4.8,13C950,1811,941,1820,930,1820z"/>
		<polygon fill="#5AC8FA" points="927,1788 935,1782 927,1776 		"/>
	</g>
	<path display="inline" fill="#007AFF" d="M936,1791l-1.8-0.9l-5.1,9.5l1.8,0.9L936,1791z"/>
	<path display="inline" fill="#007AFF" d="M936,1804.3l-1.6,1.7l-5.2-5.2l1.7-1.7L936,1804.3z"/>
	<path display="inline" fill="#007AFF" d="M932,1800c0,1.1-0.9,2-2,2s-2-0.9-2-2s0.9-2,2-2S932,1798.9,932,1800"/>
	<path display="inline" fill="#5AC8FA" d="M931,1800c0,0.6-0.4,1-1,1s-1-0.4-1-1s0.4-1,1-1S931,1799.4,931,1800"/>
</g>
<circle display="none" fill="#FFFFFF" cx="930" cy="1680" r="24"/>
<g id="surface1_2_" display="none">
	<path display="inline" fill="#55C7FC" d="M917,1680l14-22l14,22l-14,8L917,1680z"/>
	<path display="inline" fill="#2094FA" d="M931,1658l14,22l-14,8V1658z"/>
	<path display="inline" fill="#55C7FC" d="M917,1683l14,8l14-8l-14,19L917,1683z"/>
	<path display="inline" fill="#2094FA" d="M931,1691l14-8l-14,19V1691z"/>
	<path display="inline" fill="#2094FA" d="M917,1680l14-6l14,6l-14,8L917,1680z"/>
	<path display="inline" fill="#55C7FC" d="M931,1674l14,6l-14,8V1674z"/>
	<rect x="906" y="1656" display="inline" fill="none" width="48" height="48"/>
</g>
<g id="surface1_3_" display="none">
	<rect x="906" y="1656" display="inline" fill="none" width="48" height="48"/>
	<g display="inline">
		<polygon fill="#888888" points="917,1683 931,1702 945,1683 931,1691 		"/>
		<polygon fill="#888888" points="945,1680 931,1658 917,1680 931,1688 		"/>
	</g>
</g>
<circle display="none" cx="930" cy="1560" r="24"/>
<g display="none">
	<rect x="906" y="1536" display="inline" fill="none" width="48" height="48"/>
	<path display="inline" fill="#FFFFFF" d="M950,1560c0-3.8-1.2-7.4-3-10.4v-3.6h-2.6c-3.6-3.6-8.6-6-14.4-6s-10.6,2.4-14.4,6H913
		v3.6c-1.8,3.2-3,6.6-3,10.4s1.2,7.4,3,10.4v9.6h34v-9.6C948.8,1567.4,950,1563.8,950,1560z"/>
	<path display="inline" fill="#FF9500" d="M948,1581h-36v-36h36V1581z M914,1579h32v-32h-32V1579z M930,1555c2.2,0,4-1.8,4-4
		s-1.8-4-4-4s-4,1.8-4,4S927.8,1555,930,1555z M943.4,1556h-27c-0.8,0-1.6,0.6-1.6,1.6s0.6,1.6,1.6,1.6h9.6v6.4l-5.6,8.4
		c-0.6,1-0.4,2.2,0.6,2.8c1,0.6,2.2,0.4,2.8-0.6l5.4-8.2h1.8l5.4,8.2c0.4,0.6,1,0.8,1.8,0.8c0.4,0,0.8-0.2,1-0.4
		c1-0.6,1.2-1.8,0.6-2.8l-5.8-8.4v-6.4h9.6c0.8,0,1.6-0.6,1.6-1.6S944.2,1556,943.4,1556z"/>
	<path display="inline" fill="#FFCC00" d="M933.3,1559h-6.8l-10.4-6.6c-0.8-0.4-1-1.4-0.4-2.2s1.4-0.8,2.2-0.4l9.6,6.4h5.2l9.6-6.4
		c0.6-0.4,1.6-0.4,2,0.4s0.4,1.6-0.4,2.2L933.3,1559z M934,1577v-13h-8v13c0,1.2,0.8,2,2,2s2-0.8,2-2c0,1.2,0.8,2,2,2
		S934,1578.2,934,1577z"/>
	<path display="inline" opacity="0.1" enable-background="new    " d="M929,1568l1,9l1-9H929z"/>
	<rect x="926" y="1557" display="inline" fill="#FFCC00" width="8" height="7"/>
	<path display="inline" fill="#FFCC00" d="M930,1581c-11.6,0-21-9.4-21-21s9.4-21,21-21s21,9.4,21,21S941.6,1581,930,1581z
		 M930,1541c-10.4,0-19,8.4-19,19s8.4,19,19,19s19-8.4,19-19S940.4,1541,930,1541z"/>
</g>
<rect x="180" y="1596" display="none" width="1500" height="48"/>
<text transform="matrix(1 0 0 1 610.5513 1630.875)" display="none" fill="#888888" enable-background="new    " font-family="'ProximaNova-Regular'" font-size="48px">the oldest formula of the world</text>
</svg>
