<svg id="SvgjsSvg1130" xmlns="http://www.w3.org/2000/svg" version="1.1" xmlns:xlink="http://www.w3.org/1999/xlink" xmlns:svgjs="http://svgjs.com/svgjs" width="21" height="22" viewBox="0 0 21 22"><title>Forma 1</title><desc>Created with Avocode.</desc><defs id="SvgjsDefs1131"></defs><path id="SvgjsPath1132" d="M1059.82 5584.52L1058.86 5583.77C1058.57 5583.530000000001 1058.1699999999998 5583.21 1058.1699999999998 5582.620000000001C1058.1699999999998 5582.030000000001 1058.57 5581.650000000001 1058.9199999999998 5581.300000000001C1060.0399999999997 5580.420000000001 1061.1499999999999 5579.480000000001 1061.1499999999999 5577.500000000001C1061.1499999999999 5575.460000000001 1059.8799999999999 5574.390000000001 1059.2599999999998 5573.880000000001L1060.9099999999999 5573.880000000001L1062.6499999999999 5572.780000000001L1057.3899999999999 5572.780000000001C1055.9499999999998 5572.780000000001 1053.87 5573.120000000001 1052.35 5574.39C1051.2099999999998 5575.38 1050.6499999999999 5576.75 1050.6499999999999 5577.9800000000005C1050.6499999999999 5580.070000000001 1052.2499999999998 5582.1900000000005 1055.07 5582.1900000000005C1055.34 5582.1900000000005 1055.6299999999999 5582.160000000001 1055.9299999999998 5582.14C1055.7899999999997 5582.46 1055.6599999999999 5582.7300000000005 1055.6599999999999 5583.18C1055.6599999999999 5584.01 1056.09 5584.52 1056.4599999999998 5585C1055.2599999999998 5585.09 1053.0199999999998 5585.22 1051.37 5586.24C1049.79 5587.179999999999 1049.31 5588.55 1049.31 5589.51C1049.31 5591.5 1051.1799999999998 5593.35 1055.05 5593.35C1059.6299999999999 5593.35 1062.06 5590.8 1062.06 5588.280000000001C1062.06 5586.43 1061 5585.51 1059.82 5584.52ZM1056.35 5592.22C1053.5 5592.22 1051.6599999999999 5590.85 1051.6599999999999 5588.95C1051.6599999999999 5587.04 1053.37 5586.4 1053.9499999999998 5586.19C1055.0699999999997 5585.8099999999995 1056.5099999999998 5585.759999999999 1056.7499999999998 5585.759999999999C1057.0199999999998 5585.759999999999 1057.1499999999999 5585.759999999999 1057.3699999999997 5585.78C1059.3999999999996 5587.23 1060.2799999999997 5587.95 1060.2799999999997 5589.32C1060.2799999999997 5590.98 1058.9199999999998 5592.219999999999 1056.3499999999997 5592.219999999999ZM1056.33 5581.44C1054.03 5581.44 1052.99 5578.46 1052.99 5576.669999999999C1052.99 5575.969999999999 1053.13 5575.239999999999 1053.58 5574.679999999999C1054.01 5574.139999999999 1054.75 5573.799999999999 1055.4499999999998 5573.799999999999C1057.6599999999999 5573.799999999999 1058.8099999999997 5576.799999999999 1058.8099999999997 5578.73C1058.8099999999997 5579.209999999999 1058.7499999999998 5580.07 1058.1399999999996 5580.69C1057.7099999999996 5581.12 1056.9899999999996 5581.44 1056.3299999999997 5581.44ZM1066.56 5581.4L1066.56 5578.719999999999L1065.24 5578.719999999999L1065.24 5581.4L1062.57 5581.4L1062.57 5582.74L1065.24 5582.74L1065.24 5585.429999999999L1066.56 5585.429999999999L1066.56 5582.74L1069.24 5582.74L1069.24 5581.4Z " fill="#557a95" fill-opacity="1" transform="matrix(1,0,0,1,-1049,-5572)"></path></svg>