<?xml version="1.0" encoding="utf-8"?>
<!-- Generator: Adobe Illustrator 21.1.0, SVG Export Plug-In . SVG Version: 6.00 Build 0)  -->
<svg version="1.1" id="Layer_1" xmlns:ev="http://www.w3.org/2001/xml-events"
	 xmlns="http://www.w3.org/2000/svg" xmlns:xlink="http://www.w3.org/1999/xlink" x="0px" y="0px" viewBox="0 0 256.7 240"
	 enable-background="new 0 0 256.7 240" xml:space="preserve">
<g>
	<polygon fill="#E17726" stroke="#E17726" stroke-linecap="round" stroke-linejoin="round" points="243.9,0 142.8,75 161.6,30.8 	
		"/>
	<g>
		<polygon fill="#E27625" stroke="#E27625" stroke-linecap="round" stroke-linejoin="round" points="10.7,0 110.9,75.7 93,30.8 		
			"/>
		<polygon fill="#E27625" stroke="#E27625" stroke-linecap="round" stroke-linejoin="round" points="207.5,173.9 180.6,215.1 
			238.2,231 254.7,174.8 		"/>
		<polygon fill="#E27625" stroke="#E27625" stroke-linecap="round" stroke-linejoin="round" points="0,174.8 16.4,231 73.9,215.1 
			47.1,173.9 		"/>
		<polygon fill="#E27625" stroke="#E27625" stroke-linecap="round" stroke-linejoin="round" points="70.8,104.3 54.8,128.5 
			111.8,131.1 109.9,69.6 		"/>
		<polygon fill="#E27625" stroke="#E27625" stroke-linecap="round" stroke-linejoin="round" points="183.8,104.3 144.1,68.9 
			142.8,131.1 199.8,128.5 		"/>
		<polygon fill="#E27625" stroke="#E27625" stroke-linecap="round" stroke-linejoin="round" points="73.9,215.1 108.4,198.4 
			78.7,175.2 		"/>
		<polygon fill="#E27625" stroke="#E27625" stroke-linecap="round" stroke-linejoin="round" points="146.2,198.4 180.6,215.1 
			175.9,175.2 		"/>
	</g>
	<g>
		<polygon fill="#D5BFB2" stroke="#D5BFB2" stroke-linecap="round" stroke-linejoin="round" points="180.6,215.1 146.2,198.4 
			149,220.8 148.7,230.3 		"/>
		<polygon fill="#D5BFB2" stroke="#D5BFB2" stroke-linecap="round" stroke-linejoin="round" points="73.9,215.1 105.9,230.3 
			105.7,220.8 108.4,198.4 		"/>
	</g>
	<polygon fill="#233447" stroke="#233447" stroke-linecap="round" stroke-linejoin="round" points="106.5,160.4 77.9,152 
		98.1,142.7 	"/>
	<polygon fill="#233447" stroke="#233447" stroke-linecap="round" stroke-linejoin="round" points="148.1,160.4 156.5,142.7 
		176.8,152 	"/>
	<g>
		<polygon fill="#CC6228" stroke="#CC6228" stroke-linecap="round" stroke-linejoin="round" points="73.9,215.1 78.9,173.9 
			47.1,174.8 		"/>
		<polygon fill="#CC6228" stroke="#CC6228" stroke-linecap="round" stroke-linejoin="round" points="175.7,173.9 180.6,215.1 
			207.5,174.8 		"/>
		<polygon fill="#CC6228" stroke="#CC6228" stroke-linecap="round" stroke-linejoin="round" points="199.8,128.5 142.8,131.1 
			148.1,160.4 156.5,142.7 176.8,152 		"/>
		<polygon fill="#CC6228" stroke="#CC6228" stroke-linecap="round" stroke-linejoin="round" points="77.9,152 98.1,142.7 
			106.5,160.4 111.8,131.1 54.8,128.5 		"/>
	</g>
	<g>
		<polygon fill="#E27525" stroke="#E27525" stroke-linecap="round" stroke-linejoin="round" points="54.8,128.5 78.7,175.2 
			77.9,152 		"/>
		<polygon fill="#E27525" stroke="#E27525" stroke-linecap="round" stroke-linejoin="round" points="176.8,152 175.9,175.2 
			199.8,128.5 		"/>
		<polygon fill="#E27525" stroke="#E27525" stroke-linecap="round" stroke-linejoin="round" points="111.8,131.1 106.5,160.4 
			113.2,195 114.7,149.4 		"/>
		<polygon fill="#E27525" stroke="#E27525" stroke-linecap="round" stroke-linejoin="round" points="142.8,131.1 140,149.3 
			141.4,195 148.1,160.4 		"/>
	</g>
	<polygon fill="#F5841F" stroke="#F5841F" stroke-linecap="round" stroke-linejoin="round" points="148.1,160.4 141.4,195 
		146.2,198.4 175.9,175.2 176.8,152 	"/>
	<polygon fill="#F5841F" stroke="#F5841F" stroke-linecap="round" stroke-linejoin="round" points="77.9,152 78.7,175.2 
		108.4,198.4 113.2,195 106.5,160.4 	"/>
	<polygon fill="#C0AC9D" stroke="#C0AC9D" stroke-linecap="round" stroke-linejoin="round" points="148.7,230.3 149,220.8 
		146.4,218.6 108.2,218.6 105.7,220.8 105.9,230.3 73.9,215.1 85.1,224.3 107.8,240 146.7,240 169.5,224.3 180.6,215.1 	"/>
	<polygon fill="#161616" stroke="#161616" stroke-linecap="round" stroke-linejoin="round" points="146.2,198.4 141.4,195 
		113.2,195 108.4,198.4 105.7,220.8 108.2,218.6 146.4,218.6 149,220.8 	"/>
	<g>
		<polygon fill="#763E1A" stroke="#763E1A" stroke-linecap="round" stroke-linejoin="round" points="248.2,79.9 256.7,38.5 243.9,0 
			146.2,72.5 183.8,104.3 236.9,119.8 248.6,106.1 243.5,102.4 251.6,95 245.4,90.2 253.5,84 		"/>
		<polygon fill="#763E1A" stroke="#763E1A" stroke-linecap="round" stroke-linejoin="round" points="-2.1,38.5 6.5,79.9 1,84 
			9.2,90.2 3,95 11.1,102.4 6,106.1 17.7,119.8 70.8,104.3 108.4,72.5 10.7,0 		"/>
	</g>
	<polygon fill="#F5841F" stroke="#F5841F" stroke-linecap="round" stroke-linejoin="round" points="236.9,119.8 183.8,104.3 
		199.8,128.5 175.9,175.2 207.5,174.8 254.7,174.8 	"/>
	<polygon fill="#F5841F" stroke="#F5841F" stroke-linecap="round" stroke-linejoin="round" points="70.8,104.3 17.7,119.8 0,174.8 
		47.1,174.8 78.7,175.2 54.8,128.5 	"/>
	<polygon fill="#F5841F" stroke="#F5841F" stroke-linecap="round" stroke-linejoin="round" points="142.8,131.1 146.2,72.5 
		161.6,30.8 93,30.8 108.4,72.5 111.8,131.1 113.1,149.5 113.2,195 141.4,195 141.5,149.5 	"/>
</g>
</svg>
