<?xml version="1.0" encoding="utf-8"?>
<!-- Generator: Adobe Illustrator 21.1.0, SVG Export Plug-In . SVG Version: 6.00 Build 0)  -->
<svg version="1.1" id="Layer_1" xmlns="http://www.w3.org/2000/svg" xmlns:xlink="http://www.w3.org/1999/xlink" x="0px" y="0px"
	 viewBox="0 0 3058.6 640.8" enable-background="new 0 0 3058.6 640.8" xml:space="preserve">
<title>1.16.17</title>
<linearGradient id="SVGID_1_" gradientUnits="userSpaceOnUse" x1="528.5566" y1="628.1624" x2="-54.3434" y2="-229.6176" gradientTransform="matrix(1 0 0 -1 0 642.22)">
	<stop  offset="0" style="stop-color:#1ABC9C"/>
	<stop  offset="1" style="stop-color:#1A5DAF"/>
</linearGradient>
<circle fill="url(#SVGID_1_)" cx="320.4" cy="320.4" r="320.4"/>
<path fill="#FFFFFF" d="M191.1,244.8L191.1,244.8v0.2V244.8L191.1,244.8z"/>
<g>
	<defs>
		<circle id="SVGID_2_" cx="320.4" cy="320.4" r="320.4"/>
	</defs>
	<clipPath id="SVGID_3_">
		<use xlink:href="#SVGID_2_"  overflow="visible"/>
	</clipPath>
	<g clip-path="url(#SVGID_3_)">
		<polygon opacity="0.2" fill="#FFFFFF" enable-background="new    " points="610.5,323.1 510.1,568.7 457,443.4 505.5,325.1 
			479.3,325.1 439.9,423.5 400.8,325.1 375.1,325.1 423.5,443.4 370.8,568.7 270,323.1 219.4,204 271.5,78.6 371.9,324.2 
			401.6,324.2 284,47 259.8,47 201.6,183.1 143.1,47 119.3,47 2.1,324.2 31.4,324.2 132.2,78.6 184.9,204 136.4,322.3 162.2,322.3 
			201.2,223.9 240.7,323.1 357.9,600.3 381.7,600.3 440.2,463.3 498.4,600.3 522.6,600.3 640.2,323.1 		"/>
		
			<linearGradient id="SVGID_4_" gradientUnits="userSpaceOnUse" x1="320.0238" y1="638.5825" x2="230.0338" y2="38.1624" gradientTransform="matrix(1 0 0 -1 0 642.22)">
			<stop  offset="0" style="stop-color:#1ABC9C"/>
			<stop  offset="1" style="stop-color:#1A5DAF"/>
		</linearGradient>
		<path fill="url(#SVGID_4_)" d="M343.8,445.6c-7.7,1.8-15.5,2.7-23.4,2.7c-55.9,0-103.4-42.6-106.9-105.7c-0.4-7.9,4-28.4,5.8-35.8
			L132.9,270c-8.8,22.3-13.6,51.7-13.6,77.1c0,108.3,92.9,196.1,201.2,196.1c24.9,0,49.6-4.7,72.7-13.9L343.8,445.6z"/>
		
			<linearGradient id="SVGID_5_" gradientUnits="userSpaceOnUse" x1="416.1449" y1="624.1748" x2="326.1549" y2="23.7548" gradientTransform="matrix(1 0 0 -1 0 642.22)">
			<stop  offset="0" style="stop-color:#1ABC9C"/>
			<stop  offset="1" style="stop-color:#1A5DAF"/>
		</linearGradient>
		<path fill="url(#SVGID_5_)" d="M320.4,140.6c-28.2,0-56,6-81.6,17.8l48.7,82.7c10.6-3.7,21.8-5.5,33-5.5
			c49.5,0,101.9,41.5,107,92.5l-140.7,0.6l219.4,93c11.5-24.9,15.2-54.1,15.2-83.3C521.2,230,428.7,140.6,320.4,140.6z"/>
		<path fill="#FFFFFF" d="M191.1,244.8L191.1,244.8v0.2V244.8L191.1,244.8z"/>
		<path fill="#FFFFFF" d="M343.8,424.1c-7.7,1.8-15.5,2.7-23.4,2.7c-55.9,0-103.4-42.6-106.9-105.7c-0.4-7.9,4-28.4,5.8-35.8
			l-86.4-36.8c-8.8,22.3-13.6,51.7-13.6,77.1c0,108.3,92.9,196.1,201.2,196.1c24.9,0,49.6-4.7,72.7-13.9L343.8,424.1z"/>
		<path fill="#FFFFFF" d="M320.4,119.1c-28.2,0-56,6-81.6,17.8l48.7,82.7c10.6-3.7,21.8-5.5,33-5.5c49.5,0,101.9,41.5,107,92.5
			l-140.8,0.6l219.4,93c11.5-25,15.2-54.1,15.2-83.3C521.2,208.5,428.7,119.1,320.4,119.1z"/>
	</g>
</g>
<path fill="#1A96A4" d="M1033.5,416.1V272.4l-55.9,107h-22.9l-56-107v143.7h-42.2V199h45.2l64.2,123.5l64.8-123.5h44.9v217.1H1033.5
	z"/>
<path fill="#1A96A4" d="M1123.3,447.3c3.3,1,6.7,1.7,10.1,2.3c2.7,0.5,5.5,0.7,8.2,0.8c2.5,0,5-0.5,7.3-1.5c2.5-1.2,4.6-3.1,6.1-5.3
	c2.2-3.3,4.1-6.8,5.5-10.5c1.8-4.5,3.8-10.1,5.8-16.8l-63.3-160.2h42.2l43.4,124.7l38.5-124.7h38.5l-67.3,192
	c-3.7,11-10.6,20.6-19.9,27.5c-9.4,7.2-21,10.7-34.8,10.7c-3.3,0-6.7-0.3-9.9-0.8c-3.6-0.6-7.1-1.4-10.6-2.6L1123.3,447.3z"/>
<path fill="#1A96A4" d="M1445.9,379.1v37h-150.7V199h148v37h-105.8v52.3h91.4v34.2h-91.4v56.6H1445.9z"/>
<path fill="#1A96A4" d="M1569.7,407.8c-6.6,2.8-13.3,5.3-20.2,7.3c-8.1,2.5-16.6,3.7-25.1,3.7c-5.4,0-10.8-0.7-16.1-2.1
	c-4.8-1.3-9.3-3.7-13.2-6.9c-3.9-3.3-7-7.5-9-12.2c-2.2-5-3.4-11.1-3.4-18.2v-92h-21.1v-31.5h21.1v-52h41v52h33.6v31.5h-33.6v78.3
	c0,5.7,1.5,9.7,4.4,12.1c3.1,2.4,6.9,3.6,10.8,3.5c4.3,0,8.5-0.7,12.5-2.1c4.1-1.4,7.3-2.6,9.8-3.7L1569.7,407.8z"/>
<path fill="#1A96A4" d="M1743,416.1h-41v-89.9c0-12.7-2.3-22-7-28c-4.7-6-11.3-9-19.9-9c-4,0.1-7.9,0.9-11.6,2.5
	c-4.2,1.7-8.1,4-11.6,6.9c-3.8,3.1-7.2,6.6-10.1,10.6c-3,4-5.3,8.6-6.7,13.5v93.5h-41V192.9h41v92.6c5.6-10.1,13.9-18.4,24-24
	c10.2-5.6,21.8-8.5,33.5-8.4c10.4,0,18.9,1.8,25.4,5.4c6.3,3.3,11.5,8.2,15.3,14.2c3.8,6.2,6.4,13,7.6,20.2
	c1.4,7.7,2.2,15.4,2.1,23.2V416.1z"/>
<path fill="#1A96A4" d="M1856.2,419.1c-11.9,0.2-23.8-2.1-34.8-6.6c-20-8.1-35.7-24.1-43.6-44.2c-4-10-6-20.7-6-31.5
	c-0.1-11,1.9-22,5.8-32.2c3.8-9.9,9.5-19,16.8-26.6c7.6-7.8,16.7-14,26.8-18.2c10.5-4.5,22.3-6.7,35.4-6.7s24.7,2.2,35,6.7
	c9.9,4.2,18.8,10.3,26.3,18c7.2,7.5,12.9,16.5,16.5,26.3c3.8,10,5.7,20.5,5.7,31.2c0,2.7,0,5.2-0.2,7.6c-0.1,2.1-0.3,4.1-0.8,6.1
	h-123.9c0.5,5.8,2,11.5,4.6,16.8c4.6,9.5,12.7,16.8,22.6,20.5c4.9,1.8,10.1,2.8,15.3,2.8c8.1,0,16-2.1,23.1-6
	c7.2-4,12.2-9.2,14.8-15.8l35.2,9.8c-5.9,12.2-15.3,22.3-28.3,30.1C1889.5,415.1,1874.1,419,1856.2,419.1z M1897.7,322.5
	c-1-12-5.5-21.6-13.3-28.9c-7.8-7.3-17.4-10.9-28.6-10.9c-5.3,0-10.5,0.9-15.4,2.9c-4.7,1.9-9,4.6-12.7,8.1c-3.7,3.6-6.8,7.8-9,12.5
	c-2.4,5.1-3.8,10.6-4.1,16.2H1897.7z"/>
<path fill="#1A96A4" d="M2063.4,291.4c-12.4,0.2-23.5,2.6-33.3,7.2c-9.8,4.6-16.8,11.5-21.1,20.6v96.9h-41V255.9h37.6v34.2
	c2.7-5.3,6.1-10.3,10.1-14.8c3.7-4.3,8-8.1,12.5-11.5c4.2-3.1,8.8-5.6,13.6-7.5c4.2-1.7,8.7-2.5,13.3-2.6h5c1.1,0,2.2,0.1,3.2,0.3
	L2063.4,291.4z"/>
<path fill="#1A96A4" d="M2168.3,199.6h38.8l24.5,71.9l24.5-71.9h39.1l-37,98.8l27.5,69.4l61.4-168.8h45.9l-88.4,217.1h-35.5
	l-37.6-91.1l-37.6,91.1h-35.5L2070.8,199h45.2l61.8,168.8l26.9-69.4L2168.3,199.6z"/>
<path fill="#1A96A4" d="M2442.9,419.1c-7.4,0.1-14.8-1.2-21.7-3.8c-6.5-2.4-12.4-6-17.4-10.7c-4.9-4.5-8.7-10-11.5-16
	c-2.8-6.4-4.2-13.2-4.1-20.2c-0.1-7.3,1.6-14.5,5-20.9c3.4-6.4,8.2-12,14.1-16.3c6.5-4.7,13.8-8.3,21.6-10.5
	c8.9-2.6,18.2-3.9,27.5-3.8c7,0,14,0.6,20.9,1.8c6.2,1.1,12.3,2.8,18.2,5.2v-9.2c0-10.6-3-18.7-9-24.5s-14.9-8.6-26.8-8.6
	c-8.6,0-17.1,1.6-25.1,4.6c-8.9,3.4-17.3,7.9-25.1,13.4l-12.5-26c20.6-13.7,42.8-20.5,66.7-20.5c23,0,40.9,5.7,53.6,17
	s19.1,27.7,19.1,49.1V369c0,4.3,0.8,7.3,2.3,9.2c1.5,1.8,4,2.9,7.5,3.1v34.9c-5.9,1.3-11.9,2-18,2.1c-7.7,0-13.7-1.7-17.9-5.2
	c-4.2-3.5-7-8.4-7.8-13.8l-0.9-8.9c-6.8,9.1-15.7,16.5-26,21.4C2465.4,416.7,2454.2,419.2,2442.9,419.1z M2454.5,389.1
	c6.7,0,13.4-1.2,19.7-3.7c6.2-2.4,11.1-5.7,14.5-9.8c4.5-3.5,6.7-7.3,6.7-11.6v-18.3c-5.2-1.9-10.5-3.4-15.9-4.4
	c-5.4-1.1-11-1.7-16.5-1.7c-10.6,0-19.3,2.4-26,7.2c-6.7,4.8-10.1,10.8-10.1,18.2c-0.1,6.7,2.8,13,7.9,17.3
	C2440.2,386.9,2446.7,389.2,2454.5,389.1L2454.5,389.1z"/>
<path fill="#1A96A4" d="M2577.4,192.9h41v171.8c0,5.9,1.4,10.5,4.3,13.8c2.9,3.3,6.9,4.9,12.2,4.9c2.7,0,5.5-0.5,8.1-1.2
	c2.9-0.8,5.7-1.8,8.4-3.1l5.5,31.2c-6.1,2.9-12.6,4.9-19.3,6.1c-6.5,1.3-13.2,2.1-19.9,2.1c-12.8,0-22.8-3.4-29.8-10.2
	c-7-6.8-10.6-16.6-10.6-29.2V192.9z"/>
<path fill="#1A96A4" d="M2677.3,192.9h41v171.8c0,5.9,1.4,10.5,4.3,13.8s6.9,4.9,12.2,4.9c2.7,0,5.5-0.5,8.1-1.2
	c2.9-0.8,5.7-1.8,8.4-3.1l5.5,31.2c-6.1,2.9-12.6,4.9-19.3,6.1c-6.5,1.3-13.2,2.1-19.9,2.1c-12.8,0-22.8-3.4-29.8-10.2
	s-10.6-16.6-10.6-29.2V192.9z"/>
<path fill="#1A96A4" d="M2851.9,419.1c-11.9,0.2-23.8-2.1-34.9-6.6c-19.9-8.1-35.7-24.1-43.5-44.1c-4-10-6-20.7-6-31.5
	c-0.1-11,1.9-22,5.8-32.2c3.8-9.9,9.5-19,16.8-26.6c7.6-7.8,16.7-14,26.8-18.2c10.5-4.5,22.3-6.7,35.3-6.7c13,0,24.7,2.2,35,6.7
	c9.9,4.2,18.8,10.3,26.3,18c7.2,7.5,12.9,16.5,16.5,26.3c3.8,10,5.7,20.5,5.7,31.2c0,2.7,0,5.2-0.1,7.6c-0.1,2.1-0.3,4.1-0.8,6.1
	h-123.8c0.5,5.8,2,11.5,4.6,16.8c4.6,9.5,12.7,16.8,22.6,20.5c4.9,1.8,10.1,2.8,15.3,2.8c8.1,0,16-2.1,23.1-6
	c7.2-4,12.2-9.2,14.8-15.8l35.2,9.8c-5.9,12.2-15.3,22.3-28.3,30.1S2869.8,419.1,2851.9,419.1z M2893.5,322.5
	c-1-12-5.5-21.6-13.3-28.9s-17.4-10.9-28.6-10.9c-5.3,0-10.5,0.9-15.4,2.9c-4.7,1.9-9,4.6-12.7,8.1c-3.7,3.6-6.8,7.8-9,12.5
	c-2.4,5.1-3.8,10.6-4.1,16.2L2893.5,322.5z"/>
<path fill="#1A96A4" d="M3058.6,407.8c-6.6,2.8-13.3,5.3-20.2,7.3c-8.1,2.5-16.6,3.7-25.1,3.7c-5.4,0-10.8-0.7-16.1-2.1
	c-4.8-1.3-9.3-3.7-13.1-6.9c-3.9-3.3-7-7.5-9-12.2c-2.2-5-3.4-11.1-3.4-18.2v-92h-21.1v-31.5h21.1v-52h41v52h33.6v31.5h-33.7v78.3
	c0,5.7,1.5,9.7,4.4,12.1c3.1,2.4,6.9,3.6,10.9,3.5c4.3,0,8.5-0.7,12.5-2.1c4.1-1.4,7.3-2.6,9.8-3.7L3058.6,407.8z"/>
</svg>
