<?xml version="1.0" encoding="utf-8"?>
<!-- Generator: Adobe Illustrator 21.1.0, SVG Export Plug-In . SVG Version: 6.00 Build 0)  -->
<svg version="1.1" id="Layer_1" xmlns="http://www.w3.org/2000/svg" xmlns:xlink="http://www.w3.org/1999/xlink" x="0px" y="0px"
	 viewBox="0 0 158.8 184" enable-background="new 0 0 158.8 184" xml:space="preserve">
<g id="logo_solid_white">
	<g transform="translate(354 351)">
		<path id="path0_fill" fill="#FFFFFF" d="M-274.6-343.7c29.3,22.7,62.9,21.3,72.5,21.3c-2.1,129.1-18.1,111.9-72.5,148.1
			c-54.4-36.2-70.3-19-72.4-148.1C-337.5-322.4-304-321-274.6-343.7z"/>
	</g>
	<g transform="translate(354 351)">
		<path id="path1_stroke" fill="#3375BB" d="M-274.6-343.7l4.2-5.5c-2.5-1.9-6-1.9-8.5,0L-274.6-343.7z M-202.1-322.4l6.9,0.1
			c0-1.9-0.7-3.6-2-5c-1.3-1.3-3.1-2.1-4.9-2.1V-322.4z M-274.6-174.3l-3.8,5.8c2.3,1.5,5.3,1.5,7.7,0L-274.6-174.3z M-347-322.4
			v-6.9c-1.9,0-3.6,0.7-4.9,2.1c-1.3,1.3-2,3.1-2,5L-347-322.4z M-278.9-338.2c31.4,24.3,67.3,22.7,76.7,22.7v-13.8
			c-9.8,0-41.1,1.2-68.3-19.9L-278.9-338.2z M-209.1-322.5c-0.5,32.1-1.9,54.8-4.5,71.6c-2.6,16.6-6.2,26.6-11,33.6
			c-4.8,7.3-10.8,11.6-19.7,16.9c-9,5.4-20.3,11.2-34.3,20.4l7.7,11.5c13.3-8.8,24.3-14.5,33.7-20.1c9.5-5.7,17.8-11.9,24.1-21
			c6.3-9.4,10.5-21.6,13.2-39.2c2.7-17.4,4.1-41,4.6-73.5L-209.1-322.5z M-270.8-180.1c-13.9-9.3-25.3-15.1-34.2-20.4
			c-8.9-5.3-14.9-9.6-19.7-16.9c-4.7-7-8.4-16.9-10.9-33.6c-2.6-16.8-3.9-39.4-4.5-71.6l-13.9,0.3c0.5,32.4,2,56,4.6,73.5
			c2.7,17.6,6.8,29.8,13.1,39.2c6.3,9.1,14.6,15.3,24,21c9.4,5.6,20.4,11.2,33.7,20.1L-270.8-180.1z M-347-315.5
			c9.3,0,45.3,1.6,76.6-22.7l-8.4-11c-27.2,21.1-58.5,19.9-68.2,19.9V-315.5z"/>
	</g>
</g>
</svg>
