<svg id="SvgjsSvg1056" xmlns="http://www.w3.org/2000/svg" version="1.1" xmlns:xlink="http://www.w3.org/1999/xlink" xmlns:svgjs="http://svgjs.com/svgjs" width="30" height="30" viewBox="0 0 30 30"><title>email icon</title><desc>Created with Avocode.</desc><defs id="SvgjsDefs1057"><filter id="SvgjsFilter1059" width="200%" height="200%" x="-50%" y="-50%"><feMorphology id="SvgjsFeMorphology1060" operator="dilate" radius="0" result="SvgjsFeMorphology1060Out" in="SourceGraphic"></feMorphology><feOffset id="SvgjsFeOffset1061" dx="0.5" dy="0.9" result="SvgjsFeOffset1061Out" in="SvgjsFeMorphology1060Out"></feOffset><feGaussianBlur id="SvgjsFeGaussianBlur1062" stdDeviation="0.5 " result="SvgjsFeGaussianBlur1062Out" in="SvgjsFeOffset1061Out"></feGaussianBlur><feComposite id="SvgjsFeComposite1063" in="SvgjsFeGaussianBlur1062Out" in2="SourceAlpha" operator="out" result="SvgjsFeComposite1063Out"></feComposite></filter></defs><path id="SvgjsPath1058" d="M833 299L858 299C859.657 299 861 300.343 861 302L861 324C861 325.657 859.657 327 858 327L833 327Z " fill="#000202" fill-opacity="0.3" filter="url(#SvgjsFilter1059)" transform="matrix(1,0,0,1,-832.5,-298.9)"></path><path id="SvgjsPath1064" d="M833 299L858 299C859.657 299 861 300.343 861 302L861 324C861 325.657 859.657 327 858 327L833 327Z " fill="#3389b3" fill-opacity="1" transform="matrix(1,0,0,1,-832.5,-298.9)"></path><path id="SvgjsPath1065" d="M852.923 307.002L840.835 307.002C839.7560000000001 307.002 838.879 307.88 838.879 308.959L838.879 317.225C838.879 318.30400000000003 839.756 319.182 840.835 319.182L852.9200000000001 319.182C853.999 319.182 854.8760000000001 318.30400000000003 854.8760000000001 317.225L854.8760000000001 308.96200000000005C854.8790000000001 307.88300000000004 854.0020000000001 307.00200000000007 852.9230000000001 307.00200000000007ZM853.986 317.225C853.986 317.81100000000004 853.509 318.288 852.923 318.288L840.835 318.288C840.25 318.288 839.773 317.81100000000004 839.773 317.225L839.773 308.96200000000005C839.773 308.37600000000003 840.25 307.89900000000006 840.835 307.89900000000006L852.9200000000001 307.89900000000006C853.5060000000001 307.89900000000006 853.9820000000001 308.37600000000003 853.9820000000001 308.96200000000005L853.9820000000001 317.225ZM848.968 312.989L852.88 309.479C853.062 309.313 853.079 309.032 852.913 308.847C852.748 308.664 852.466 308.64799999999997 852.2810000000001 308.813L846.8860000000001 313.658L845.8330000000001 312.718C845.83 312.71500000000003 845.8270000000001 312.711 845.8270000000001 312.708C845.8040000000001 312.685 845.7800000000001 312.665 845.7540000000001 312.64500000000004L841.4710000000001 308.81000000000006C841.2860000000002 308.64500000000004 841.0040000000001 308.66100000000006 840.8390000000002 308.84700000000004C840.6730000000001 309.03200000000004 840.6900000000002 309.31300000000005 840.8750000000001 309.47900000000004L844.8340000000001 313.01900000000006L840.892 316.71200000000005C840.7130000000001 316.88000000000005 840.7030000000001 317.16200000000003 840.8720000000001 317.34400000000005C840.9610000000001 317.43700000000007 841.08 317.48600000000005 841.2 317.48600000000005C841.3090000000001 317.48600000000005 841.418 317.44700000000006 841.504 317.367L845.506 313.622L846.591 314.59200000000004C846.677 314.66800000000006 846.783 314.70500000000004 846.889 314.70500000000004C846.995 314.70500000000004 847.104 314.665 847.187 314.58900000000006L848.303 313.58900000000006L852.281 317.37100000000004C852.367 317.45300000000003 852.4799999999999 317.49300000000005 852.5889999999999 317.49300000000005C852.708 317.49300000000005 852.824 317.44700000000006 852.9129999999999 317.35400000000004C853.0819999999999 317.17500000000007 853.0749999999999 316.89000000000004 852.8969999999999 316.72100000000006Z " fill="#ffffff" fill-opacity="1" transform="matrix(1,0,0,1,-832.5,-298.9)"></path></svg>