<svg id="SvgjsSvg1370" xmlns="http://www.w3.org/2000/svg" version="1.1" xmlns:xlink="http://www.w3.org/1999/xlink" xmlns:svgjs="http://svgjs.com/svgjs" width="16" height="10" viewBox="0 0 16 10"><title>Forma 1</title><desc>Created with Avocode.</desc><defs id="SvgjsDefs1371"></defs><path id="SvgjsPath1372" d="M901.067 434.717C897.07 434.717 893.86 438.532 893.705 438.70099999999996C893.5930000000001 438.813 893.5360000000001 438.95399999999995 893.5360000000001 439.109C893.5360000000001 439.26399999999995 893.5930000000001 439.405 893.705 439.517C893.874 439.686 897.07 443.501 901.067 443.501C905.064 443.501 908.274 439.686 908.429 439.517C908.542 439.405 908.598 439.264 908.598 439.109C908.598 438.954 908.5419999999999 438.813 908.429 438.70099999999996C908.274 438.532 905.078 434.717 901.067 434.717ZM901.067 442.333C898.266 442.333 896.042 440.052 894.958 439.095C896.0419999999999 438.13800000000003 898.266 435.857 901.067 435.857C903.868 435.857 906.093 438.13800000000003 907.176 439.095C906.0930000000001 440.052 903.868 442.333 901.067 442.333ZM898.998 439.095C898.998 440.235 899.927 441.17800000000005 901.081 441.17800000000005C902.235 441.17800000000005 903.164 440.2490000000001 903.164 439.095C903.164 437.94100000000003 902.235 437.011 901.081 437.011C899.927 437.011 898.998 437.95500000000004 898.998 439.095ZM901.996 439.095C901.996 439.60200000000003 901.588 440.024 901.067 440.024C900.5600000000001 440.024 900.138 439.616 900.138 439.095C900.138 438.574 900.546 438.16600000000005 901.067 438.16600000000005C901.574 438.18000000000006 901.996 438.5880000000001 901.996 439.095Z " fill="#ffffff" fill-opacity="1" transform="matrix(1,0,0,1,-893,-434)"></path></svg>