<svg id="SvgjsSvg1364" xmlns="http://www.w3.org/2000/svg" version="1.1" xmlns:xlink="http://www.w3.org/1999/xlink" xmlns:svgjs="http://svgjs.com/svgjs" width="19" height="19" viewBox="0 0 19 19"><title>Forma 1</title><desc>Created with Avocode.</desc><defs id="SvgjsDefs1365"></defs><path id="SvgjsPath1366" d="M708.314 409.456C708.1229999999999 409.26500000000004 707.891 409.17 707.6189999999999 409.17L703.3649999999999 409.17C702.9559999999999 409.17 702.5199999999999 409.30600000000004 702.0559999999999 409.579L702.0559999999999 406.225C702.0559999999999 405.952 701.9609999999999 405.72 701.77 405.53000000000003C701.579 405.33900000000006 701.348 405.24300000000005 701.0749999999999 405.24300000000005L696.8209999999999 405.24300000000005C696.5489999999999 405.24300000000005 696.2489999999999 405.31100000000004 695.9209999999999 405.44800000000004C695.5939999999999 405.58400000000006 695.3349999999999 405.74800000000005 695.1439999999999 405.93800000000005L690.9729999999998 410.11000000000007C690.7819999999998 410.30100000000004 690.6179999999998 410.56000000000006 690.4819999999999 410.88700000000006C690.3459999999999 411.21500000000003 690.2769999999998 411.51400000000007 690.2769999999998 411.78700000000003L690.2769999999998 418.658C690.2769999999998 418.93100000000004 690.3729999999998 419.163 690.5639999999999 419.35400000000004C690.7539999999999 419.545 690.9859999999999 419.64000000000004 691.2589999999999 419.64000000000004L696.8209999999999 419.64000000000004L696.8209999999999 422.58500000000004C696.8209999999999 422.857 696.9169999999999 423.08900000000006 697.1069999999999 423.28000000000003C697.2979999999999 423.471 697.5299999999999 423.56600000000003 697.8029999999999 423.56600000000003L707.6189999999999 423.56600000000003C707.891 423.56600000000003 708.1229999999999 423.471 708.314 423.28000000000003C708.505 423.08900000000006 708.5999999999999 422.857 708.5999999999999 422.58500000000004L708.5999999999999 410.151C708.5999999999999 409.879 708.5049999999999 409.647 708.314 409.456ZM697.517 414.037C697.326 414.22799999999995 697.162 414.48699999999997 697.0260000000001 414.81399999999996C696.8890000000001 415.14099999999996 696.821 415.441 696.821 415.71399999999994L696.821 418.33099999999996L691.586 418.33099999999996L691.586 411.787L695.84 411.787C696.1120000000001 411.787 696.344 411.69199999999995 696.5350000000001 411.501C696.7260000000001 411.31 696.821 411.078 696.821 410.806L696.821 406.55199999999996L700.748 406.55199999999996L700.748 410.806ZM702.056 411.348L702.056 414.40500000000003L698.999 414.40500000000003ZM695.512 407.421L695.512 410.478L692.4549999999999 410.478ZM698.13 422.257L698.13 415.713L702.384 415.713C702.6560000000001 415.713 702.888 415.618 703.0790000000001 415.427C703.2690000000001 415.23600000000005 703.365 415.004 703.365 414.732L703.365 410.478L707.291 410.478L707.291 422.257Z " fill="#ffffff" fill-opacity="1" transform="matrix(1,0,0,1,-690,-405)"></path></svg>