<svg id="SvgjsSvg1066" xmlns="http://www.w3.org/2000/svg" version="1.1" xmlns:xlink="http://www.w3.org/1999/xlink" xmlns:svgjs="http://svgjs.com/svgjs" width="30" height="30" viewBox="0 0 30 30"><title>password icon </title><desc>Created with Avocode.</desc><defs id="SvgjsDefs1067"><filter id="SvgjsFilter1069" width="200%" height="200%" x="-50%" y="-50%"><feMorphology id="SvgjsFeMorphology1070" operator="dilate" radius="0" result="SvgjsFeMorphology1070Out" in="SourceGraphic"></feMorphology><feOffset id="SvgjsFeOffset1071" dx="0.5" dy="0.9" result="SvgjsFeOffset1071Out" in="SvgjsFeMorphology1070Out"></feOffset><feGaussianBlur id="SvgjsFeGaussianBlur1072" stdDeviation="0.5 " result="SvgjsFeGaussianBlur1072Out" in="SvgjsFeOffset1071Out"></feGaussianBlur><feComposite id="SvgjsFeComposite1073" in="SvgjsFeGaussianBlur1072Out" in2="SourceAlpha" operator="out" result="SvgjsFeComposite1073Out"></feComposite></filter></defs><path id="SvgjsPath1068" d="M833 347L858 347C859.657 347 861 348.343 861 350L861 372C861 373.657 859.657 375 858 375L833 375Z " fill="#000202" fill-opacity="0.3" filter="url(#SvgjsFilter1069)" transform="matrix(1,0,0,1,-832.5,-346.9)"></path><path id="SvgjsPath1074" d="M833 347L858 347C859.657 347 861 348.343 861 350L861 372C861 373.657 859.657 375 858 375L833 375Z " fill="#3389b3" fill-opacity="1" transform="matrix(1,0,0,1,-832.5,-346.9)"></path><path id="SvgjsPath1075" d="M852.802 368.908C852.7900000000001 368.90500000000003 852.778 368.90000000000003 852.767 368.896L850.368 367.94C850.23 367.886 850.119 367.778 850.0600000000001 367.642L849.4490000000001 366.24L848.047 365.629C847.916 365.572 847.812 365.468 847.755 365.338L847.145 363.93600000000004L845.7429999999999 363.32500000000005C845.612 363.26800000000003 845.5079999999999 363.16400000000004 845.4509999999999 363.03400000000005L845.0079999999999 362.01500000000004C843.348 362.62600000000003 841.477 362.22900000000004 840.1959999999999 360.94800000000004C838.41 359.16200000000003 838.4079999999999 356.25800000000004 840.1909999999999 354.475C841.9739999999999 352.69100000000003 844.8779999999999 352.694 846.6639999999999 354.48C847.9999999999999 355.815 848.3739999999999 357.78200000000004 847.6529999999999 359.48900000000003L854.4209999999999 366.25600000000003C855.045 366.88000000000005 855.0459999999999 367.89500000000004 854.4229999999999 368.51800000000003C853.9969999999998 368.944 853.3759999999999 369.093 852.8019999999999 368.908ZM853.627 367.05L846.579 360.002C846.404 359.827 846.3639999999999 359.559 846.4799999999999 359.341C847.199 357.991 846.954 356.357 845.8699999999999 355.274C844.5229999999999 353.926 842.3319999999999 353.924 840.9859999999999 355.27C839.6409999999998 356.615 839.6429999999999 358.806 840.9899999999999 360.154C842.0659999999999 361.229 843.6909999999999 361.479 845.036 360.775C845.174 360.703 845.3359999999999 360.691 845.483 360.743C845.631 360.795 845.75 360.906 845.8119999999999 361.049L846.3929999999999 362.383L847.795 362.99399999999997C847.925 363.051 848.03 363.155 848.087 363.28499999999997L848.697 364.688L850.099 365.298C850.23 365.355 850.3340000000001 365.459 850.3910000000001 365.59L850.9970000000001 366.98199999999997L853.1600000000001 367.84299999999996C853.3270000000001 367.89099999999996 853.5040000000001 367.84599999999995 853.6270000000001 367.72299999999996C853.8130000000001 367.53799999999995 853.812 367.23599999999993 853.6270000000001 367.04999999999995ZM841.758 358.11C841.186 357.539 841.186 356.61 841.7560000000001 356.04C842.3260000000001 355.469 843.2550000000001 355.47 843.8260000000001 356.041C844.3980000000001 356.612 844.3980000000001 357.541 843.8280000000001 358.112C843.258 358.682 842.3290000000001 358.68100000000004 841.758 358.11ZM843.032 356.835C842.9000000000001 356.703 842.6840000000001 356.702 842.551 356.835C842.4190000000001 356.967 842.4190000000001 357.183 842.552 357.316C842.684 357.44899999999996 842.9 357.44899999999996 843.033 357.316C843.165 357.18399999999997 843.165 356.96799999999996 843.032 356.835Z " fill="#ffffff" fill-opacity="1" transform="matrix(1,0,0,1,-832.5,-346.9)"></path></svg>