<svg id="SvgjsSvg1127" xmlns="http://www.w3.org/2000/svg" version="1.1" xmlns:xlink="http://www.w3.org/1999/xlink" xmlns:svgjs="http://svgjs.com/svgjs" width="21" height="20" viewBox="0 0 21 20"><title>Forma 1</title><desc>Created with Avocode.</desc><defs id="SvgjsDefs1128"></defs><path id="SvgjsPath1129" d="M1016 5593L1016 5580L1012 5580L1012 5593ZM1013.89 5573.21C1012.58 5573.21 1011.52 5574.27 1011.52 5575.58C1011.52 5576.89 1012.5799999999999 5577.95 1013.89 5577.95C1015.1999999999999 5577.95 1016.26 5576.889999999999 1016.26 5575.58C1016.26 5574.2699999999995 1015.2 5573.21 1013.89 5573.21ZM1026.34 5579.43C1024.35 5579.43 1023.0199999999999 5580.52 1022.4699999999999 5581.55L1022.42 5581.55L1022.42 5579.75L1018.5 5579.75L1018.5 5592.92L1022.58 5592.92L1022.58 5586.41C1022.58 5584.69 1022.9100000000001 5583.03 1025.03 5583.03C1027.1299999999999 5583.03 1027.16 5584.99 1027.16 5586.5199999999995L1027.16 5592.919999999999L1031.24 5592.919999999999L1031.24 5585.699999999999C1031.24 5582.149999999999 1030.48 5579.4299999999985 1026.34 5579.4299999999985Z " fill="#557a95" fill-opacity="1" transform="matrix(1,0,0,1,-1011,-5573)"></path></svg>