<svg id="SvgjsSvg1124" xmlns="http://www.w3.org/2000/svg" version="1.1" xmlns:xlink="http://www.w3.org/1999/xlink" xmlns:svgjs="http://svgjs.com/svgjs" width="21" height="22" viewBox="0 0 21 22"><title>Forma 1</title><desc>Created with Avocode.</desc><defs id="SvgjsDefs1125"></defs><path id="SvgjsPath1126" d="M992.025 5572.78C993.477 5572.78 994.665 5573.86 994.665 5575.42L994.665 5590.71C994.665 5592.27 993.477 5593.35 992.025 5593.35L976.739 5593.35C975.2860000000001 5593.35 974.099 5592.27 974.099 5590.71L974.099 5575.42C974.099 5573.86 975.2860000000001 5572.78 976.739 5572.78ZM990.53 5581.48C990.701 5582.04 990.794 5582.629999999999 990.794 5583.24C990.794 5586.66 987.932 5589.44 984.401 5589.44C980.871 5589.44 978.0089999999999 5586.66 978.0089999999999 5583.24C978.0089999999999 5582.63 978.1019999999999 5582.04 978.2729999999999 5581.48L976.3839999999999 5581.48L976.3839999999999 5590.169999999999C976.3839999999999 5590.609999999999 976.752 5590.98 977.2019999999999 5590.98L991.5229999999999 5590.98C991.973 5590.98 992.3409999999999 5590.61 992.3409999999999 5590.169999999999L992.3409999999999 5581.48ZM988.154 5575.99L988.154 5578.21C988.154 5578.72 988.571 5579.13 989.08 5579.13L991.4050000000001 5579.13C991.9140000000001 5579.13 992.33 5578.72 992.33 5578.21L992.33 5575.99C992.33 5575.48 991.914 5575.07 991.4050000000001 5575.07L989.08 5575.07C988.571 5575.07 988.154 5575.48 988.154 5575.99ZM984.401 5579.02C982.12 5579.02 980.271 5580.81 980.271 5583.02C980.271 5585.2300000000005 982.12 5587.02 984.401 5587.02C986.6819999999999 5587.02 988.5319999999999 5585.2300000000005 988.5319999999999 5583.02C988.5319999999999 5580.81 986.6829999999999 5579.02 984.401 5579.02Z " fill="#557a95" fill-opacity="1" transform="matrix(1,0,0,1,-974,-5572)"></path></svg>