<?xml version="1.0" encoding="utf-8"?>
<!-- Generator: Adobe Illustrator 21.1.0, SVG Export Plug-In . SVG Version: 6.00 Build 0)  -->
<svg version="1.1" id="Layer_1" xmlns="http://www.w3.org/2000/svg" xmlns:xlink="http://www.w3.org/1999/xlink" x="0px" y="0px"
	 width="1440px" height="720px" viewBox="0 0 1440 720" enable-background="new 0 0 1440 720" xml:space="preserve">
<g id="surface1_4_">
	<circle display="none" fill="#FFFFFF" cx="1080" cy="360" r="360"/>
	<g display="none">
		
			<circle fill="none" stroke="#FF3B30" stroke-width="24" stroke-linecap="round" stroke-linejoin="round" stroke-dasharray="0,64.7384" cx="1080" cy="360" r="340"/>
	</g>
	<g>
		<path fill="#F2F4FF" d="M1047,710.5c-6.6-0.6-11.5-6.5-10.8-13.1l0,0c0.6-6.6,6.5-11.5,13.1-10.8l0,0c6.6,0.6,11.5,6.5,10.8,13.1
			l0,0c-0.6,6.2-5.8,10.9-11.9,10.9l0,0C1047.7,710.5,1047.3,710.5,1047,710.5z M1100.7,699.6c-0.6-6.6,4.2-12.5,10.8-13.1l0,0
			c6.6-0.6,12.5,4.2,13.1,10.8l0,0c0.6,6.6-4.2,12.5-10.8,13.1l0,0c-0.4,0-0.8,0.1-1.2,0.1l0,0
			C1106.6,710.5,1101.3,705.8,1100.7,699.6z M981.2,698L981.2,698L981.2,698c-6.4-1.9-10-8.5-8.1-14.9l0,0c1.8-6.4,8.5-10,14.9-8.2
			l0,0c6.4,1.9,10,8.5,8.2,14.9l0,0c-1.5,5.2-6.3,8.6-11.5,8.6l0,0C983.5,698.4,982.4,698.3,981.2,698z M1164.6,689.6
			c-1.9-6.3,1.8-13,8.1-14.9l0,0c6.4-1.9,13,1.8,14.9,8.1l0,0c1.9,6.4-1.8,13-8.1,14.9l0,0l0,0l0,0c-1.1,0.3-2.3,0.5-3.4,0.5l0,0
			C1171,698.2,1166.2,694.8,1164.6,689.6z M919.1,673.1c-5.9-3-8.2-10.3-5.2-16.2l0,0c3-5.9,10.3-8.2,16.2-5.2l0,0
			c5.9,3,8.2,10.3,5.2,16.2l0,0c-2.1,4.1-6.3,6.5-10.7,6.5l0,0C922.7,674.5,920.8,674,919.1,673.1z M1225.4,667.6
			c-3-5.9-0.7-13.1,5.1-16.2l0,0c5.9-3,13.1-0.8,16.2,5.1l0,0c3,5.9,0.7,13.1-5.1,16.2l0,0c-1.8,0.9-3.7,1.3-5.5,1.3l0,0
			C1231.8,674.1,1227.6,671.8,1225.4,667.6z M862.8,637c-5.2-4.1-6.1-11.6-2-16.8l0,0c4.1-5.2,11.6-6.1,16.8-2l0,0
			c5.2,4.1,6.1,11.6,2,16.8l0,0c-2.4,3-5.9,4.6-9.5,4.6l0,0C867.6,639.6,865,638.7,862.8,637z M1281,634.5c-4.1-5.2-3.2-12.7,2-16.8
			l0,0c5.2-4.1,12.8-3.2,16.9,2l0,0c4.1,5.2,3.2,12.8-2,16.8l0,0l0,0l0,0c-2.2,1.7-4.8,2.6-7.4,2.6l0,0
			C1286.9,639.1,1283.4,637.5,1281,634.5z M814.3,590.9c-4.3-5-3.8-12.6,1.2-16.9l0,0c5-4.4,12.6-3.8,16.9,1.2l0,0
			c4.3,5,3.8,12.6-1.2,16.9l0,0c-2.3,2-5.1,2.9-7.9,2.9l0,0C820,595,816.7,593.6,814.3,590.9z M1329.3,591.5
			c-5-4.3-5.6-11.9-1.2-16.9l0,0c4.3-5,11.9-5.5,16.9-1.2l0,0c5,4.3,5.5,11.9,1.2,16.9l0,0l0,0l0,0c-2.4,2.7-5.7,4.1-9.1,4.1l0,0
			C1334.3,594.4,1331.6,593.5,1329.3,591.5z M775.4,536.5c-3.3-5.7-1.4-13.1,4.3-16.4l0,0c5.7-3.3,13.1-1.4,16.4,4.4l0,0
			c3.3,5.7,1.4,13.1-4.4,16.4l0,0c-1.9,1.1-4,1.6-6,1.6l0,0C781.6,542.5,777.6,540.3,775.4,536.5z M1368.6,540.2
			c-5.7-3.3-7.7-10.7-4.4-16.4l0,0c3.3-5.7,10.6-7.7,16.4-4.4l0,0c5.7,3.3,7.7,10.6,4.4,16.4l0,0c-2.2,3.8-6.2,6-10.4,6l0,0
			C1372.6,541.8,1370.5,541.3,1368.6,540.2z M747.5,475.7c-2.2-6.3,1.1-13.1,7.4-15.3l0,0c6.3-2.2,13.1,1.1,15.3,7.4l0,0
			c2.2,6.2-1.1,13.1-7.4,15.3l0,0c-1.3,0.5-2.6,0.7-3.9,0.7l0,0C753.8,483.7,749.2,480.6,747.5,475.7z M1397.5,482.3
			c-6.3-2.2-9.6-9-7.4-15.3l0,0c2.2-6.3,9-9.6,15.3-7.4l0,0c6.3,2.2,9.6,9,7.4,15.3l0,0c-1.7,5-6.4,8.1-11.3,8.1l0,0
			C1400.2,483,1398.8,482.8,1397.5,482.3z M731.6,410.7c-1-6.6,3.6-12.7,10.2-13.6l0,0c6.6-0.9,12.6,3.6,13.6,10.2l0,0
			c0.9,6.6-3.6,12.6-10.2,13.6l0,0c-0.6,0.1-1.2,0.1-1.7,0.1l0,0C737.6,420.9,732.5,416.6,731.6,410.7z M1414.9,420.1
			c-6.6-0.9-11.1-7-10.2-13.6l0,0c0.9-6.6,7-11.1,13.6-10.2l0,0c6.6,0.9,11.1,7,10.2,13.6l0,0c-0.9,6-6,10.3-11.9,10.3l0,0
			C1416.1,420.2,1415.5,420.1,1414.9,420.1z M739.8,356.4c-6.6-0.3-11.8-5.9-11.5-12.5l0,0l0,0l0,0c0.3-6.6,5.9-11.8,12.5-11.5l0,0
			c6.6,0.3,11.8,5.9,11.5,12.5l0,0c-0.3,6.4-5.6,11.5-12,11.5l0,0C740.2,356.4,740,356.4,739.8,356.4z M1407.6,344.2
			c-0.3-6.6,4.8-12.2,11.4-12.5l0,0c6.6-0.3,12.2,4.8,12.6,11.4l0,0c0.3,6.6-4.8,12.2-11.4,12.6l0,0c-0.2,0-0.4,0-0.6,0l0,0
			C1413.2,355.6,1407.9,350.6,1407.6,344.2z M746.6,292.1c-6.4-1.5-10.4-8-8.9-14.5l0,0c1.6-6.4,8-10.4,14.5-8.9l0,0
			c6.4,1.5,10.4,8,8.9,14.5l0,0c-1.3,5.5-6.2,9.2-11.7,9.2l0,0C748.5,292.4,747.5,292.3,746.6,292.1z M1398.8,282.5L1398.8,282.5
			c-1.6-6.4,2.4-12.9,8.8-14.5l0,0c6.4-1.6,12.9,2.4,14.5,8.8l0,0l0,0l0,0c1.6,6.4-2.4,12.9-8.8,14.5l0,0c-1,0.2-1.9,0.3-2.8,0.3
			l0,0C1405,291.7,1400.1,288,1398.8,282.5z M765.4,230.2c-6-2.7-8.7-9.9-6-15.9l0,0c2.8-6,9.9-8.7,15.9-5.9l0,0
			c6,2.7,8.7,9.9,6,15.9l0,0c-2,4.4-6.4,7-10.9,7l0,0C768.7,231.3,767,231,765.4,230.2z M1378.4,223.6L1378.4,223.6
			c-2.8-6-0.1-13.1,5.9-15.9l0,0c6-2.8,13.2-0.1,15.9,5.9l0,0l0,0l0,0c2.8,6,0.1,13.1-5.9,15.9l0,0c-1.6,0.7-3.3,1.1-5,1.1l0,0
			C1384.8,230.6,1380.4,228,1378.4,223.6z M795.7,173.1c-5.4-3.8-6.7-11.3-2.8-16.7l0,0c3.8-5.4,11.3-6.7,16.7-2.8l0,0
			c5.4,3.8,6.7,11.3,2.8,16.7l0,0c-2.3,3.3-6,5-9.8,5l0,0C800.2,175.3,797.8,174.6,795.7,173.1z M1347.1,169.6
			c-3.8-5.4-2.6-12.9,2.8-16.7l0,0c5.4-3.9,12.9-2.6,16.7,2.8l0,0l0,0l0,0c3.9,5.4,2.6,12.9-2.8,16.7l0,0c-2.1,1.5-4.5,2.2-7,2.2
			l0,0C1353.2,174.7,1349.5,172.9,1347.1,169.6z M836.2,122.7c-4.6-4.8-4.4-12.4,0.4-17l0,0c4.8-4.6,12.4-4.4,17,0.4l0,0
			c4.6,4.8,4.4,12.4-0.4,17l0,0c-2.3,2.2-5.3,3.3-8.3,3.3l0,0C841.7,126.4,838.6,125.1,836.2,122.7z M1306.3,122.5
			c-4.8-4.6-5-12.2-0.4-17l0,0c4.6-4.8,12.2-5,17-0.4l0,0l0,0l0,0c4.8,4.6,5,12.2,0.4,17l0,0c-2.4,2.5-5.5,3.7-8.7,3.7l0,0
			C1311.6,125.9,1308.6,124.8,1306.3,122.5z M885.5,80.8c-3.6-5.6-2-13,3.6-16.6l0,0c5.6-3.6,13-2,16.6,3.6l0,0
			c3.6,5.6,2,13-3.6,16.6l0,0c-2,1.3-4.3,1.9-6.5,1.9l0,0C891.7,86.3,887.8,84.4,885.5,80.8z M1257.3,84L1257.3,84
			c-5.6-3.6-7.2-11-3.6-16.6l0,0c3.6-5.6,11-7.2,16.6-3.6l0,0l0,0l0,0c5.6,3.6,7.2,11,3.6,16.6l0,0c-2.3,3.6-6.2,5.5-10.1,5.5l0,0
			C1261.5,85.9,1259.3,85.3,1257.3,84z M941.8,49c-2.5-6.2,0.5-13.1,6.7-15.6l0,0c6.1-2.5,13.1,0.5,15.6,6.6l0,0
			c2.5,6.1-0.5,13.1-6.6,15.6l0,0c-1.5,0.6-3,0.9-4.5,0.9l0,0C948.2,56.5,943.7,53.7,941.8,49z M1201.9,55.4
			c-6.2-2.5-9.1-9.4-6.7-15.6l0,0c2.5-6.2,9.4-9.2,15.6-6.7l0,0l0,0l0,0c6.2,2.5,9.1,9.5,6.7,15.6l0,0c-1.9,4.7-6.4,7.5-11.1,7.5
			l0,0C1204.8,56.2,1203.3,56,1201.9,55.4z M1003.1,28.5c-1.3-6.5,3-12.8,9.5-14.1l0,0c6.5-1.3,12.8,3,14.1,9.5l0,0
			c1.3,6.5-3,12.8-9.5,14.1l0,0c-0.8,0.1-1.5,0.2-2.3,0.2l0,0C1009.3,38.2,1004.2,34.2,1003.1,28.5z M1142.1,37.9
			c-6.5-1.2-10.8-7.5-9.5-14l0,0c1.2-6.5,7.5-10.8,14-9.5l0,0l0,0l0,0c6.5,1.2,10.8,7.5,9.5,14l0,0c-1.1,5.8-6.1,9.8-11.8,9.8l0,0
			C1143.6,38.1,1142.8,38,1142.1,37.9z M1067.2,20c0-6.6,5.3-12,12-12l0,0c0.1,0,0.3,0,0.4,0l0,0c0.1,0,0.2,0,0.4,0l0,0
			c6.6,0,12,5.4,12,12l0,0c0,6.6-5.4,12-12,12l0,0c-0.1,0-0.2,0-0.4,0l0,0c-0.1,0-0.2,0-0.4,0l0,0l0,0l0,0
			C1072.6,32,1067.2,26.6,1067.2,20z"/>
	</g>
</g>
<g id="surface1_3_">
	<circle display="none" fill="#FFFFFF" cx="360" cy="360" r="360"/>
	<g display="none">
		
			<circle display="inline" fill="none" stroke="#FF3B30" stroke-width="24" stroke-linecap="round" stroke-linejoin="round" stroke-dasharray="0,64.7384" cx="360" cy="360" r="340"/>
	</g>
	<g>
		<path fill="#F2F4FF" d="M327,710.5c-6.6-0.6-11.5-6.5-10.8-13.1l0,0c0.6-6.6,6.5-11.5,13.1-10.8l0,0c6.6,0.6,11.5,6.5,10.8,13.1
			l0,0c-0.6,6.2-5.8,10.9-11.9,10.9l0,0C327.7,710.5,327.3,710.5,327,710.5z M380.7,699.6c-0.6-6.6,4.2-12.5,10.8-13.1l0,0
			c6.6-0.6,12.5,4.2,13.1,10.8l0,0c0.6,6.6-4.2,12.5-10.8,13.1l0,0c-0.4,0-0.8,0.1-1.2,0.1l0,0C386.6,710.5,381.3,705.8,380.7,699.6
			z M261.2,698L261.2,698L261.2,698c-6.4-1.9-10-8.5-8.1-14.9l0,0c1.8-6.4,8.5-10,14.9-8.2l0,0c6.4,1.9,10,8.5,8.2,14.9l0,0
			c-1.5,5.2-6.3,8.6-11.5,8.6l0,0C263.5,698.4,262.4,698.3,261.2,698z M444.6,689.6c-1.9-6.3,1.8-13,8.1-14.9l0,0
			c6.4-1.9,13,1.8,14.9,8.1l0,0c1.9,6.4-1.8,13-8.1,14.9l0,0l0,0l0,0c-1.1,0.3-2.3,0.5-3.4,0.5l0,0
			C451,698.2,446.2,694.8,444.6,689.6z M199.1,673.1c-5.9-3-8.2-10.3-5.2-16.2l0,0c3-5.9,10.3-8.2,16.2-5.2l0,0
			c5.9,3,8.2,10.3,5.2,16.2l0,0c-2.1,4.1-6.3,6.5-10.7,6.5l0,0C202.7,674.5,200.8,674,199.1,673.1z M505.4,667.6
			c-3-5.9-0.7-13.1,5.1-16.2l0,0c5.9-3,13.1-0.8,16.2,5.1l0,0c3,5.9,0.7,13.1-5.1,16.2l0,0c-1.8,0.9-3.7,1.3-5.5,1.3l0,0
			C511.8,674.1,507.6,671.8,505.4,667.6z M142.8,637c-5.2-4.1-6.1-11.6-2-16.8l0,0c4.1-5.2,11.6-6.1,16.8-2l0,0
			c5.2,4.1,6.1,11.6,2,16.8l0,0c-2.4,3-5.9,4.6-9.5,4.6l0,0C147.6,639.6,145,638.7,142.8,637z M561,634.5c-4.1-5.2-3.2-12.7,2-16.8
			l0,0c5.2-4.1,12.8-3.2,16.9,2l0,0c4.1,5.2,3.2,12.8-2,16.8l0,0l0,0l0,0c-2.2,1.7-4.8,2.6-7.4,2.6l0,0
			C566.9,639.1,563.4,637.5,561,634.5z M94.3,590.9c-4.3-5-3.8-12.6,1.2-16.9l0,0c5-4.4,12.6-3.8,16.9,1.2l0,0
			c4.3,5,3.8,12.6-1.2,16.9l0,0c-2.3,2-5.1,2.9-7.9,2.9l0,0C100,595,96.7,593.6,94.3,590.9z M609.3,591.5c-5-4.3-5.6-11.9-1.2-16.9
			l0,0c4.3-5,11.9-5.5,16.9-1.2l0,0c5,4.3,5.5,11.9,1.2,16.9l0,0l0,0l0,0c-2.4,2.7-5.7,4.1-9.1,4.1l0,0
			C614.3,594.4,611.6,593.5,609.3,591.5z M55.4,536.5c-3.3-5.7-1.4-13.1,4.3-16.4l0,0c5.7-3.3,13.1-1.4,16.4,4.4l0,0
			c3.3,5.7,1.4,13.1-4.4,16.4l0,0c-1.9,1.1-4,1.6-6,1.6l0,0C61.6,542.5,57.6,540.3,55.4,536.5z M648.6,540.2
			c-5.7-3.3-7.7-10.7-4.4-16.4l0,0c3.3-5.7,10.6-7.7,16.4-4.4l0,0c5.7,3.3,7.7,10.6,4.4,16.4l0,0c-2.2,3.8-6.2,6-10.4,6l0,0
			C652.6,541.8,650.5,541.3,648.6,540.2z M27.5,475.7c-2.2-6.3,1.1-13.1,7.4-15.3l0,0c6.3-2.2,13.1,1.1,15.3,7.4l0,0
			c2.2,6.2-1.1,13.1-7.4,15.3l0,0c-1.3,0.5-2.6,0.7-3.9,0.7l0,0C33.8,483.7,29.2,480.6,27.5,475.7z M677.5,482.3
			c-6.3-2.2-9.6-9-7.4-15.3l0,0c2.2-6.3,9-9.6,15.3-7.4l0,0c6.3,2.2,9.6,9,7.4,15.3l0,0c-1.7,5-6.4,8.1-11.3,8.1l0,0
			C680.2,483,678.8,482.8,677.5,482.3z M11.6,410.7c-1-6.6,3.6-12.7,10.2-13.6l0,0c6.6-0.9,12.6,3.6,13.6,10.2l0,0
			c0.9,6.6-3.6,12.6-10.2,13.6l0,0c-0.6,0.1-1.2,0.1-1.7,0.1l0,0C17.6,420.9,12.5,416.6,11.6,410.7z M694.9,420.1
			c-6.6-0.9-11.1-7-10.2-13.6l0,0c0.9-6.6,7-11.1,13.6-10.2l0,0c6.6,0.9,11.1,7,10.2,13.6l0,0c-0.9,6-6,10.3-11.9,10.3l0,0
			C696.1,420.2,695.5,420.1,694.9,420.1z M19.8,356.4c-6.6-0.3-11.8-5.9-11.5-12.5l0,0l0,0l0,0c0.3-6.6,5.9-11.8,12.5-11.5l0,0
			c6.6,0.3,11.8,5.9,11.5,12.5l0,0c-0.3,6.4-5.6,11.5-12,11.5l0,0C20.2,356.4,20,356.4,19.8,356.4z M687.6,344.2
			c-0.3-6.6,4.8-12.2,11.4-12.5l0,0c6.6-0.3,12.2,4.8,12.6,11.4l0,0c0.3,6.6-4.8,12.2-11.4,12.6l0,0c-0.2,0-0.4,0-0.6,0l0,0
			C693.2,355.6,687.9,350.6,687.6,344.2z M26.6,292.1c-6.4-1.5-10.4-8-8.9-14.5l0,0c1.6-6.4,8-10.4,14.5-8.9l0,0
			c6.4,1.5,10.4,8,8.9,14.5l0,0c-1.3,5.5-6.2,9.2-11.7,9.2l0,0C28.5,292.4,27.5,292.3,26.6,292.1z M678.8,282.5L678.8,282.5
			c-1.6-6.4,2.4-12.9,8.8-14.5l0,0c6.4-1.6,12.9,2.4,14.5,8.8l0,0l0,0l0,0c1.6,6.4-2.4,12.9-8.8,14.5l0,0c-1,0.2-1.9,0.3-2.8,0.3
			l0,0C685,291.7,680.1,288,678.8,282.5z M45.4,230.2c-6-2.7-8.7-9.9-6-15.9l0,0c2.8-6,9.9-8.7,15.9-5.9l0,0c6,2.7,8.7,9.9,6,15.9
			l0,0c-2,4.4-6.4,7-10.9,7l0,0C48.7,231.3,47,231,45.4,230.2z M658.4,223.6L658.4,223.6c-2.8-6-0.1-13.1,5.9-15.9l0,0
			c6-2.8,13.2-0.1,15.9,5.9l0,0l0,0l0,0c2.8,6,0.1,13.1-5.9,15.9l0,0c-1.6,0.7-3.3,1.1-5,1.1l0,0C664.8,230.6,660.4,228,658.4,223.6
			z M75.7,173.1c-5.4-3.8-6.7-11.3-2.8-16.7l0,0c3.8-5.4,11.3-6.7,16.7-2.8l0,0c5.4,3.8,6.7,11.3,2.8,16.7l0,0c-2.3,3.3-6,5-9.8,5
			l0,0C80.2,175.3,77.8,174.6,75.7,173.1z M627.1,169.6c-3.8-5.4-2.6-12.9,2.8-16.7l0,0c5.4-3.9,12.9-2.6,16.7,2.8l0,0l0,0l0,0
			c3.9,5.4,2.6,12.9-2.8,16.7l0,0c-2.1,1.5-4.5,2.2-7,2.2l0,0C633.2,174.7,629.5,172.9,627.1,169.6z M116.2,122.7
			c-4.6-4.8-4.4-12.4,0.4-17l0,0c4.8-4.6,12.4-4.4,17,0.4l0,0c4.6,4.8,4.4,12.4-0.4,17l0,0c-2.3,2.2-5.3,3.3-8.3,3.3l0,0
			C121.7,126.4,118.6,125.1,116.2,122.7z M586.3,122.5c-4.8-4.6-5-12.2-0.4-17l0,0c4.6-4.8,12.2-5,17-0.4l0,0l0,0l0,0
			c4.8,4.6,5,12.2,0.4,17l0,0c-2.4,2.5-5.5,3.7-8.7,3.7l0,0C591.6,125.9,588.6,124.8,586.3,122.5z M165.5,80.8
			c-3.6-5.6-2-13,3.6-16.6l0,0c5.6-3.6,13-2,16.6,3.6l0,0c3.6,5.6,2,13-3.6,16.6l0,0c-2,1.3-4.3,1.9-6.5,1.9l0,0
			C171.7,86.3,167.8,84.4,165.5,80.8z M537.3,84L537.3,84c-5.6-3.6-7.2-11-3.6-16.6l0,0c3.6-5.6,11-7.2,16.6-3.6l0,0l0,0l0,0
			c5.6,3.6,7.2,11,3.6,16.6l0,0c-2.3,3.6-6.2,5.5-10.1,5.5l0,0C541.5,85.9,539.3,85.3,537.3,84z M221.8,49
			c-2.5-6.2,0.5-13.1,6.7-15.6l0,0c6.1-2.5,13.1,0.5,15.6,6.6l0,0c2.5,6.1-0.5,13.1-6.6,15.6l0,0c-1.5,0.6-3,0.9-4.5,0.9l0,0
			C228.2,56.5,223.7,53.7,221.8,49z M481.9,55.4c-6.2-2.5-9.1-9.4-6.7-15.6l0,0c2.5-6.2,9.4-9.2,15.6-6.7l0,0l0,0l0,0
			c6.2,2.5,9.1,9.5,6.7,15.6l0,0c-1.9,4.7-6.4,7.5-11.1,7.5l0,0C484.8,56.2,483.3,56,481.9,55.4z M283.1,28.5
			c-1.3-6.5,3-12.8,9.5-14.1l0,0c6.5-1.3,12.8,3,14.1,9.5l0,0c1.3,6.5-3,12.8-9.5,14.1l0,0c-0.8,0.1-1.5,0.2-2.3,0.2l0,0
			C289.3,38.2,284.2,34.2,283.1,28.5z M422.1,37.9c-6.5-1.2-10.8-7.5-9.5-14l0,0c1.2-6.5,7.5-10.8,14-9.5l0,0l0,0l0,0
			c6.5,1.2,10.8,7.5,9.5,14l0,0c-1.1,5.8-6.1,9.8-11.8,9.8l0,0C423.6,38.1,422.8,38,422.1,37.9z M347.2,20c0-6.6,5.3-12,12-12l0,0
			c0.1,0,0.3,0,0.4,0l0,0c0.1,0,0.2,0,0.4,0l0,0c6.6,0,12,5.4,12,12l0,0c0,6.6-5.4,12-12,12l0,0c-0.1,0-0.2,0-0.4,0l0,0
			c-0.1,0-0.2,0-0.4,0l0,0l0,0l0,0C352.6,32,347.2,26.6,347.2,20z"/>
	</g>
</g>
<g id="surface1_1_">
	<circle fill="#8F96C5" cx="1080" cy="360" r="280"/>
	<circle fill="#DDEAF7" cx="1080" cy="360" r="227.5"/>
	<path fill="#8F96C5" d="M957.5,360L1080,167.5L1202.5,360L1080,430L957.5,360z"/>
	<path fill="#8F96C5" d="M1080,167.5L1202.5,360L1080,430V167.5z"/>
	<path fill="#8F96C5" d="M957.5,386.2l122.5,70l122.5-70L1080,552.5L957.5,386.2z"/>
	<path fill="#8F96C5" d="M1080,456.2l122.5-70L1080,552.5V456.2z"/>
	<path fill="#8F96C5" d="M957.5,360l122.5-52.5l122.5,52.5L1080,430L957.5,360z"/>
	<path fill="#8F96C5" d="M1080,307.5l122.5,52.5L1080,430V307.5z"/>
</g>
<g id="surface1_2_">
	<circle fill="#8F96C5" cx="360" cy="360" r="280"/>
	<circle fill="#DDEAF7" cx="360" cy="360" r="227.5"/>
	<path fill="#8F96C5" d="M237.5,360L360,167.5L482.5,360L360,430L237.5,360z"/>
	<path fill="#8F96C5" d="M360,167.5L482.5,360L360,430V167.5z"/>
	<path fill="#8F96C5" d="M237.5,386.2l122.5,70l122.5-70L360,552.5L237.5,386.2z"/>
	<path fill="#8F96C5" d="M360,456.2l122.5-70L360,552.5V456.2z"/>
	<path fill="#8F96C5" d="M237.5,360L360,307.5L482.5,360L360,430L237.5,360z"/>
	<path fill="#8F96C5" d="M360,307.5L482.5,360L360,430V307.5z"/>
</g>
<g display="none">
	<circle display="inline" opacity="0.14" enable-background="new    " cx="720" cy="360" r="360"/>
	<path display="inline" opacity="0.14" fill="#333333" enable-background="new    " d="M971.1,102C870.5,144.5,800,244,800,360
		s70.5,215.5,171.1,258c67.2-65.4,108.9-156.8,108.9-258S1038.3,167.4,971.1,102z"/>
	<path display="inline" opacity="0.14" fill="#333333" enable-background="new    " d="M468.9,102C401.7,167.4,360,258.8,360,360
		s41.7,192.6,108.9,258C569.5,575.5,640,476,640,360S569.5,144.5,468.9,102z"/>
</g>
<g>
	<circle display="none" opacity="0.14" enable-background="new    " cx="720" cy="360" r="360"/>
	<path opacity="0.1" enable-background="new    " d="M1100,360c0-103.4-41.3-197.2-108.4-265.7C880.3,131.3,800,236.2,800,360
		s80.3,228.7,191.6,265.7C1058.7,557.2,1100,463.4,1100,360z"/>
	<path opacity="0.1" enable-background="new    " d="M448.4,94.3C381.3,162.8,340,256.6,340,360s41.3,197.2,108.4,265.7
		C559.7,588.7,640,483.8,640,360S559.7,131.3,448.4,94.3z"/>
</g>
<g id="surface1">
	<circle fill="#5E6076" cx="720" cy="360" r="320"/>
	<circle fill="#DDEAF7" cx="720" cy="360" r="260"/>
	<path fill="#5E6076" d="M580,360l140-220l140,220l-140,80L580,360z"/>
	<path fill="#5E6076" d="M720,140l140,220l-140,80V140z"/>
	<path fill="#5E6076" d="M580,390l140,80l140-80L720,580L580,390z"/>
	<path fill="#5E6076" d="M720,470l140-80L720,580V470z"/>
	<path fill="#5E6076" d="M580,360l140-60l140,60l-140,80L580,360z"/>
	<path fill="#5E6076" d="M720,300l140,60l-140,80V300z"/>
</g>
</svg>
