<?xml version="1.0" encoding="utf-8"?>
<!-- Generator: Adobe Illustrator 21.1.0, SVG Export Plug-In . SVG Version: 6.00 Build 0)  -->
<svg version="1.1" id="Layer_1" xmlns="http://www.w3.org/2000/svg" xmlns:xlink="http://www.w3.org/1999/xlink" x="0px" y="0px"
	 width="3040px" height="1240px" viewBox="0 0 3040 1240" enable-background="new 0 0 3040 1240" xml:space="preserve">
<rect display="none" fill="#2094FA" width="3040" height="1240"/>
<g>
	<g>
		<path fill="#F2F4FF" d="M175.9,523.5h-19.3v-74.4l-23,7.1v-15.7l40.3-14.4h2.1v97.4L175.9,523.5L175.9,523.5z"/>
		<path fill="#F2F4FF" d="M306.9,483.3c0,7.3-0.8,13.6-2.4,18.8s-3.8,9.5-6.7,12.9c-2.9,3.4-6.3,5.9-10.3,7.4
			c-4,1.6-8.5,2.4-13.4,2.4s-9.4-0.8-13.4-2.4c-4-1.6-7.5-4.1-10.4-7.4c-2.9-3.4-5.1-7.7-6.7-12.9c-1.6-5.2-2.4-11.5-2.4-18.8v-16.9
			c0-7.3,0.8-13.6,2.4-18.8c1.6-5.2,3.8-9.5,6.7-12.9s6.3-5.8,10.3-7.4s8.5-2.4,13.3-2.4c4.9,0,9.4,0.8,13.4,2.4s7.5,4.1,10.4,7.4
			c2.9,3.4,5.1,7.7,6.7,12.9s2.4,11.5,2.4,18.8v16.9H306.9z M287.6,463.7c0-4.3-0.3-7.9-0.9-10.9c-0.6-2.9-1.5-5.3-2.7-7.1
			s-2.6-3.1-4.3-3.9c-1.7-0.8-3.6-1.2-5.7-1.2s-4,0.4-5.7,1.2s-3.1,2.1-4.2,3.9c-1.2,1.8-2,4.2-2.6,7.1c-0.6,2.9-0.9,6.6-0.9,10.9
			v22.2c0,4.4,0.3,8,0.9,11s1.5,5.4,2.7,7.2s2.6,3.2,4.3,4c1.7,0.8,3.6,1.2,5.7,1.2s4-0.4,5.7-1.2s3.1-2.1,4.2-4
			c1.1-1.8,2-4.3,2.6-7.2c0.6-3,0.9-6.7,0.9-11V463.7z"/>
		<path fill="#F2F4FF" d="M400.8,523.5h-19.3v-74.4l-23,7.1v-15.7l40.3-14.4h2.1v97.4L400.8,523.5L400.8,523.5z"/>
		<path fill="#F2F4FF" d="M531.9,483.3c0,7.3-0.8,13.6-2.4,18.8c-1.6,5.2-3.8,9.5-6.7,12.9s-6.3,5.9-10.3,7.4
			c-4,1.6-8.5,2.4-13.4,2.4s-9.4-0.8-13.4-2.4c-4-1.6-7.5-4.1-10.4-7.4c-2.9-3.4-5.1-7.7-6.7-12.9s-2.4-11.5-2.4-18.8v-16.9
			c0-7.3,0.8-13.6,2.4-18.8s3.8-9.5,6.7-12.9c2.9-3.4,6.3-5.8,10.3-7.4s8.5-2.4,13.3-2.4c4.9,0,9.4,0.8,13.4,2.4s7.5,4.1,10.4,7.4
			c2.9,3.4,5.1,7.7,6.7,12.9c1.6,5.2,2.4,11.5,2.4,18.8L531.9,483.3L531.9,483.3z M512.6,463.7c0-4.3-0.3-7.9-0.9-10.9
			c-0.6-2.9-1.5-5.3-2.7-7.1s-2.6-3.1-4.3-3.9c-1.7-0.8-3.6-1.2-5.7-1.2s-4,0.4-5.7,1.2s-3.1,2.1-4.2,3.9c-1.2,1.8-2,4.2-2.6,7.1
			c-0.6,2.9-0.9,6.6-0.9,10.9v22.2c0,4.4,0.3,8,0.9,11s1.5,5.4,2.7,7.2s2.6,3.2,4.3,4c1.7,0.8,3.6,1.2,5.7,1.2s4-0.4,5.7-1.2
			s3.1-2.1,4.2-4c1.1-1.8,2-4.3,2.6-7.2c0.6-3,0.9-6.7,0.9-11V463.7z"/>
	</g>
	<g>
		<path fill="#F2F4FF" d="M175.9,813.7h-19.3v-74.4l-23,7.1v-15.7l40.3-14.4h2.1v97.4L175.9,813.7L175.9,813.7z"/>
		<path fill="#F2F4FF" d="M306.9,773.5c0,7.3-0.8,13.6-2.4,18.8s-3.8,9.5-6.7,12.9c-2.9,3.4-6.3,5.9-10.3,7.4
			c-4,1.6-8.5,2.4-13.4,2.4s-9.4-0.8-13.4-2.4c-4-1.6-7.5-4.1-10.4-7.4c-2.9-3.4-5.1-7.7-6.7-12.9c-1.6-5.2-2.4-11.5-2.4-18.8v-16.9
			c0-7.3,0.8-13.6,2.4-18.8c1.6-5.2,3.8-9.5,6.7-12.9s6.3-5.8,10.3-7.4c4-1.6,8.5-2.4,13.3-2.4c4.9,0,9.4,0.8,13.4,2.4
			c4,1.6,7.5,4.1,10.4,7.4c2.9,3.4,5.1,7.7,6.7,12.9s2.4,11.5,2.4,18.8v16.9H306.9z M287.6,753.9c0-4.3-0.3-7.9-0.9-10.9
			c-0.6-2.9-1.5-5.3-2.7-7.1s-2.6-3.1-4.3-3.9c-1.7-0.8-3.6-1.2-5.7-1.2s-4,0.4-5.7,1.2s-3.1,2.1-4.2,3.9c-1.2,1.8-2,4.2-2.6,7.1
			c-0.6,2.9-0.9,6.6-0.9,10.9V776c0,4.4,0.3,8,0.9,11s1.5,5.4,2.7,7.2s2.6,3.2,4.3,4c1.7,0.8,3.6,1.2,5.7,1.2s4-0.4,5.7-1.2
			s3.1-2.1,4.2-4c1.1-1.8,2-4.3,2.6-7.2c0.6-3,0.9-6.7,0.9-11V753.9z"/>
		<path fill="#F2F4FF" d="M400.8,813.7h-19.3v-74.4l-23,7.1v-15.7l40.3-14.4h2.1v97.4L400.8,813.7L400.8,813.7z"/>
		<path fill="#F2F4FF" d="M531.9,773.5c0,7.3-0.8,13.6-2.4,18.8c-1.6,5.2-3.8,9.5-6.7,12.9s-6.3,5.9-10.3,7.4
			c-4,1.6-8.5,2.4-13.4,2.4s-9.4-0.8-13.4-2.4c-4-1.6-7.5-4.1-10.4-7.4c-2.9-3.4-5.1-7.7-6.7-12.9s-2.4-11.5-2.4-18.8v-16.9
			c0-7.3,0.8-13.6,2.4-18.8s3.8-9.5,6.7-12.9c2.9-3.4,6.3-5.8,10.3-7.4c4-1.6,8.5-2.4,13.3-2.4c4.9,0,9.4,0.8,13.4,2.4
			c4,1.6,7.5,4.1,10.4,7.4c2.9,3.4,5.1,7.7,6.7,12.9c1.6,5.2,2.4,11.5,2.4,18.8L531.9,773.5L531.9,773.5z M512.6,753.9
			c0-4.3-0.3-7.9-0.9-10.9c-0.6-2.9-1.5-5.3-2.7-7.1s-2.6-3.1-4.3-3.9c-1.7-0.8-3.6-1.2-5.7-1.2s-4,0.4-5.7,1.2s-3.1,2.1-4.2,3.9
			c-1.2,1.8-2,4.2-2.6,7.1c-0.6,2.9-0.9,6.6-0.9,10.9V776c0,4.4,0.3,8,0.9,11s1.5,5.4,2.7,7.2s2.6,3.2,4.3,4
			c1.7,0.8,3.6,1.2,5.7,1.2s4-0.4,5.7-1.2s3.1-2.1,4.2-4c1.1-1.8,2-4.3,2.6-7.2c0.6-3,0.9-6.7,0.9-11V753.9z"/>
		<path fill="#F2F4FF" d="M625.8,813.7h-19.3v-74.4l-23,7.1v-15.7l40.3-14.4h2.1L625.8,813.7L625.8,813.7z"/>
	</g>
	<g>
		<path fill="#F2F4FF" d="M56.5,672.1H37.2v-74.4l-23,7.1v-15.7l40.3-14.4h2.1L56.5,672.1L56.5,672.1z"/>
		<path fill="#F2F4FF" d="M187.6,631.9c0,7.3-0.8,13.6-2.4,18.8c-1.6,5.2-3.8,9.5-6.7,12.9s-6.3,5.9-10.3,7.4
			c-4,1.6-8.5,2.4-13.4,2.4s-9.4-0.8-13.4-2.4c-4-1.6-7.5-4.1-10.4-7.4c-2.9-3.4-5.1-7.7-6.7-12.9s-2.4-11.5-2.4-18.8V615
			c0-7.3,0.8-13.6,2.4-18.8s3.8-9.5,6.7-12.9s6.3-5.8,10.3-7.4c4-1.6,8.5-2.4,13.3-2.4c4.9,0,9.4,0.8,13.4,2.4
			c4,1.6,7.5,4.1,10.4,7.4c2.9,3.4,5.1,7.7,6.7,12.9c1.6,5.2,2.4,11.5,2.4,18.8L187.6,631.9L187.6,631.9z M168.3,612.3
			c0-4.3-0.3-7.9-0.9-10.9c-0.6-2.9-1.5-5.3-2.7-7.1s-2.6-3.1-4.3-3.9c-1.7-0.8-3.6-1.2-5.7-1.2c-2.1,0-4,0.4-5.7,1.2
			s-3.1,2.1-4.2,3.9c-1.2,1.8-2,4.2-2.6,7.1c-0.6,2.9-0.9,6.6-0.9,10.9v22.2c0,4.4,0.3,8,0.9,11c0.6,3,1.5,5.4,2.7,7.2
			s2.6,3.2,4.3,4s3.6,1.2,5.7,1.2c2.1,0,4-0.4,5.7-1.2s3.1-2.1,4.2-4c1.1-1.8,2-4.3,2.6-7.2c0.6-3,0.9-6.7,0.9-11V612.3z"/>
		<path fill="#F2F4FF" d="M281.5,672.1h-19.3v-74.4l-23,7.1v-15.7l40.3-14.4h2.1v97.4L281.5,672.1L281.5,672.1z"/>
		<path fill="#F2F4FF" d="M412.5,631.9c0,7.3-0.8,13.6-2.4,18.8s-3.8,9.5-6.7,12.9c-2.9,3.4-6.3,5.9-10.3,7.4
			c-4,1.6-8.5,2.4-13.4,2.4s-9.4-0.8-13.4-2.4c-4-1.6-7.5-4.1-10.4-7.4c-2.9-3.4-5.1-7.7-6.7-12.9s-2.4-11.5-2.4-18.8V615
			c0-7.3,0.8-13.6,2.4-18.8s3.8-9.5,6.7-12.9c2.9-3.4,6.3-5.8,10.3-7.4c4-1.6,8.5-2.4,13.3-2.4c4.9,0,9.4,0.8,13.4,2.4
			c4,1.6,7.5,4.1,10.4,7.4c2.9,3.4,5.1,7.7,6.7,12.9s2.4,11.5,2.4,18.8v16.9H412.5z M393.2,612.3c0-4.3-0.3-7.9-0.9-10.9
			c-0.6-2.9-1.5-5.3-2.7-7.1s-2.6-3.1-4.3-3.9c-1.7-0.8-3.6-1.2-5.7-1.2s-4,0.4-5.7,1.2s-3.1,2.1-4.2,3.9s-2,4.2-2.6,7.1
			c-0.6,2.9-0.9,6.6-0.9,10.9v22.2c0,4.4,0.3,8,0.9,11s1.5,5.4,2.7,7.2s2.6,3.2,4.3,4c1.7,0.8,3.6,1.2,5.7,1.2s4-0.4,5.7-1.2
			s3.1-2.1,4.2-4c1.1-1.8,2-4.3,2.6-7.2c0.6-3,0.9-6.7,0.9-11V612.3z"/>
		<path fill="#F2F4FF" d="M506.4,672.1h-19.3v-74.4l-23,7.1v-15.7l40.3-14.4h2.1v97.4L506.4,672.1L506.4,672.1z"/>
		<path fill="#F2F4FF" d="M609.8,672.1h-19.3v-74.4l-23,7.1v-15.7l40.3-14.4h2.1L609.8,672.1L609.8,672.1z"/>
	</g>
</g>
<g id="surface1_9_">
	<circle display="none" fill="#FFFFFF" cx="2720" cy="620" r="320"/>
	<g display="none">
		
			<circle display="inline" fill="none" stroke="#FF3B30" stroke-width="24" stroke-linecap="round" stroke-linejoin="round" stroke-dasharray="0,65.0011" cx="2720" cy="620" r="300"/>
	</g>
	<g>
		<path fill="#F2F4FF" d="M2686.6,930.2L2686.6,930.2L2686.6,930.2c-6.6-0.7-11.4-6.6-10.7-13.2l0,0c0.7-6.6,6.6-11.4,13.2-10.7l0,0
			c6.6,0.7,11.4,6.6,10.7,13.2l0,0c-0.6,6.2-5.9,10.7-11.9,10.7l0,0C2687.5,930.3,2687,930.3,2686.6,930.2z M2740.8,919.5
			c-0.7-6.6,4-12.5,10.6-13.2l0,0c6.6-0.7,12.5,4,13.2,10.6l0,0c0.7,6.6-4.1,12.5-10.6,13.2l0,0c-0.4,0-0.9,0.1-1.3,0.1l0,0
			C2746.7,930.2,2741.5,925.7,2740.8,919.5z M2620.7,915.9c-6.3-2.1-9.7-8.9-7.6-15.2l0,0c2.1-6.3,8.9-9.7,15.2-7.6l0,0
			c6.3,2.1,9.7,8.9,7.6,15.2l0,0c-1.7,5-6.4,8.2-11.4,8.2l0,0C2623.2,916.5,2622,916.3,2620.7,915.9z M2804.7,908.1
			c-2.1-6.3,1.2-13.1,7.5-15.2l0,0c6.3-2.1,13.1,1.2,15.2,7.5l0,0c2.1,6.3-1.2,13.1-7.5,15.2l0,0c-1.3,0.4-2.6,0.6-3.9,0.6l0,0
			C2811.1,916.3,2806.4,913.1,2804.7,908.1z M2559.4,887.6L2559.4,887.6L2559.4,887.6c-5.7-3.4-7.5-10.8-4.1-16.5l0,0
			c3.4-5.7,10.8-7.5,16.5-4.1l0,0c5.7,3.4,7.5,10.8,4.1,16.5l0,0c-2.2,3.8-6.2,5.8-10.3,5.8l0,0
			C2563.5,889.3,2561.4,888.7,2559.4,887.6z M2864.6,883.2c-3.4-5.7-1.6-13,4.1-16.5l0,0c5.7-3.4,13-1.6,16.5,4.1l0,0
			c3.4,5.7,1.6,13-4.1,16.5l0,0l0,0l0,0c-1.9,1.2-4.1,1.7-6.2,1.7l0,0C2870.8,889,2866.9,886.9,2864.6,883.2z M2505.7,846.8
			c-4.8-4.5-5-12.1-0.5-17l0,0c4.6-4.8,12.1-5,17-0.5l0,0c4.8,4.5,5,12.1,0.5,17l0,0c-2.4,2.5-5.5,3.8-8.7,3.8l0,0
			C2511,850,2508,849,2505.7,846.8z M2917.8,845.9c-4.6-4.8-4.4-12.4,0.4-17l0,0c4.8-4.6,12.4-4.4,17,0.4l0,0
			c4.6,4.8,4.4,12.4-0.4,17l0,0l0,0l0,0c-2.3,2.2-5.3,3.3-8.3,3.3l0,0C2923.3,849.6,2920.1,848.4,2917.8,845.9z M2462,795.5
			c-3.7-5.5-2.3-12.9,3.2-16.7l0,0c5.5-3.7,12.9-2.3,16.7,3.2l0,0c3.7,5.5,2.3,12.9-3.2,16.7l0,0c-2.1,1.4-4.4,2.1-6.7,2.1l0,0
			C2468.1,800.7,2464.3,798.9,2462,795.5z M2961.7,798.1c-5.5-3.7-6.9-11.2-3.2-16.7l0,0c3.7-5.5,11.2-6.9,16.7-3.2l0,0
			c5.5,3.7,6.9,11.2,3.2,16.7l0,0c-2.3,3.4-6.1,5.3-9.9,5.3l0,0C2966.1,800.2,2963.8,799.5,2961.7,798.1z M2430.2,735.9
			c-2.5-6.2,0.5-13.1,6.7-15.6l0,0c6.2-2.5,13.1,0.5,15.6,6.7l0,0c2.5,6.2-0.5,13.1-6.7,15.6l0,0c-1.5,0.6-3,0.9-4.5,0.9l0,0
			C2436.6,743.5,2432.1,740.6,2430.2,735.9z M2994.4,742c-6.2-2.5-9.2-9.4-6.7-15.6l0,0c2.4-6.2,9.4-9.2,15.6-6.7l0,0
			c6.2,2.4,9.2,9.4,6.7,15.6l0,0c-1.9,4.7-6.4,7.6-11.1,7.6l0,0C2997.4,742.9,2995.9,742.6,2994.4,742z M2412.1,671
			c-1.1-6.5,3.4-12.7,9.9-13.8l0,0c6.5-1.1,12.7,3.4,13.8,9.9l0,0c1.1,6.5-3.4,12.7-9.9,13.8l0,0c-0.7,0.1-1.3,0.2-2,0.2l0,0
			C2418.2,681,2413.1,676.8,2412.1,671z M3014.2,680.2c-6.5-1.1-11-7.2-9.9-13.8l0,0c1.1-6.5,7.2-11,13.8-9.9l0,0
			c6.5,1.1,11,7.2,9.9,13.8l0,0c-1,5.9-6,10.1-11.8,10.1l0,0C3015.5,680.4,3014.8,680.3,3014.2,680.2z M2419.8,616.2
			c-6.6-0.3-11.7-6-11.4-12.6l0,0c0.3-6.6,6-11.7,12.6-11.4l0,0c6.6,0.3,11.7,6,11.4,12.6l0,0c-0.3,6.4-5.6,11.4-12,11.4l0,0
			C2420.2,616.2,2420,616.2,2419.8,616.2z M3007.6,604.2L3007.6,604.2c-0.4-6.6,4.7-12.3,11.3-12.6l0,0c6.6-0.4,12.3,4.7,12.6,11.3
			l0,0c0.4,6.6-4.7,12.3-11.3,12.6l0,0c-0.2,0-0.4,0-0.7,0l0,0C3013.2,615.6,3007.9,610.6,3007.6,604.2z M2427.5,551.8
			c-6.4-1.8-10.1-8.4-8.4-14.8l0,0c1.8-6.4,8.4-10.2,14.8-8.4l0,0c6.4,1.8,10.1,8.4,8.4,14.8l0,0c-1.5,5.3-6.3,8.8-11.6,8.8l0,0
			C2429.7,552.2,2428.6,552.1,2427.5,551.8z M2997.5,542.8c-1.8-6.4,2-13,8.3-14.8l0,0c6.4-1.8,13,2,14.8,8.4l0,0
			c1.8,6.4-2,13-8.4,14.8l0,0c-1.1,0.3-2.2,0.4-3.2,0.4l0,0C3003.8,551.6,2999,548.1,2997.5,542.8z M2449,490.5
			c-5.9-3.1-8.1-10.4-5-16.2l0,0c3.1-5.9,10.4-8.1,16.2-5l0,0c5.9,3.1,8.1,10.4,5,16.2l0,0c-2.2,4.1-6.3,6.4-10.6,6.4l0,0
			C2452.7,491.9,2450.8,491.5,2449,490.5z M2974.5,485c-3.1-5.9-0.9-13.1,5-16.2l0,0c5.9-3.1,13.1-0.9,16.2,5l0,0l0,0l0,0
			c3.1,5.8,0.9,13.1-5,16.2l0,0c-1.8,1-3.7,1.4-5.6,1.4l0,0C2980.8,491.4,2976.6,489,2974.5,485z M2483.2,435.3
			c-5.1-4.3-5.7-11.8-1.4-16.9l0,0c4.3-5.1,11.9-5.7,16.9-1.4l0,0c5.1,4.3,5.7,11.9,1.4,16.9l0,0c-2.4,2.8-5.8,4.2-9.2,4.2l0,0
			C2488.2,438.2,2485.5,437.3,2483.2,435.3z M2939.5,433.5c-4.3-5.1-3.7-12.6,1.4-16.9l0,0c5.1-4.3,12.6-3.7,16.9,1.4l0,0
			c4.3,5.1,3.7,12.6-1.4,16.9l0,0c-2.2,1.9-5,2.9-7.8,2.9l0,0C2945.2,437.7,2941.8,436.3,2939.5,433.5z M2528.5,388.8
			c-4-5.3-3-12.8,2.2-16.8l0,0c5.3-4,12.8-3,16.8,2.2l0,0c4,5.3,3,12.8-2.2,16.8l0,0c-2.2,1.7-4.7,2.5-7.3,2.5l0,0
			C2534.4,393.5,2530.8,391.9,2528.5,388.8z M2894.2,390.7L2894.2,390.7c-5.3-4-6.3-11.5-2.3-16.8l0,0c4-5.3,11.5-6.3,16.8-2.3l0,0
			l0,0l0,0c5.3,4,6.3,11.5,2.3,16.8l0,0c-2.4,3.1-5.9,4.7-9.6,4.7l0,0C2899,393.1,2896.4,392.3,2894.2,390.7z M2582.6,353
			c-2.8-6-0.2-13.1,5.8-15.9l0,0c6-2.8,13.1-0.2,15.9,5.8l0,0c2.8,6,0.2,13.1-5.8,15.9l0,0c-1.6,0.8-3.4,1.1-5.1,1.1l0,0
			C2588.9,359.9,2584.6,357.3,2582.6,353z M2840.9,358.5L2840.9,358.5c-6-2.8-8.6-9.9-5.8-15.9l0,0c2.8-6,9.9-8.6,15.9-5.8l0,0l0,0
			l0,0c6,2.8,8.6,9.9,5.8,15.9l0,0c-2,4.4-6.4,7-10.9,7l0,0C2844.3,359.6,2842.5,359.3,2840.9,358.5z M2643.2,329.7
			c-1.4-6.5,2.7-12.9,9.1-14.3l0,0c6.5-1.4,12.9,2.7,14.3,9.1l0,0c1.4,6.5-2.6,12.9-9.1,14.3l0,0c-0.9,0.2-1.8,0.3-2.6,0.3l0,0
			C2649.4,339.1,2644.4,335.3,2643.2,329.7z M2781.9,338.7c-6.5-1.4-10.6-7.8-9.1-14.3l0,0c1.4-6.5,7.8-10.6,14.3-9.2l0,0
			c6.5,1.4,10.6,7.8,9.2,14.3l0,0c-1.2,5.6-6.2,9.4-11.7,9.4l0,0C2783.6,338.9,2782.8,338.9,2781.9,338.7z M2707.3,320
			c0-6.6,5.4-12,12-12l0,0c0.1,0,0.2,0,0.4,0l0,0c0.1,0,0.2,0,0.3,0l0,0c6.6,0,12,5.4,12,12l0,0c0,6.6-5.4,12-12,12l0,0
			c-0.1,0-0.2,0-0.3,0l0,0c-0.1,0-0.2,0-0.3,0l0,0l0,0l0,0C2712.7,332,2707.3,326.6,2707.3,320z"/>
	</g>
</g>
<g id="surface1_7_">
	<circle display="none" fill="#FFFFFF" cx="1240" cy="620" r="400"/>
	<g display="none">
		
			<circle display="inline" fill="none" stroke="#FF3B30" stroke-width="24" stroke-linecap="round" stroke-linejoin="round" stroke-dasharray="0,64.7384" cx="1240" cy="620" r="380"/>
	</g>
	<g>
		<g>
			<path fill="#F2F4FF" d="M1257,999.8c-0.5-6.6,4.5-12.4,11.1-12.9l0,0c6.6-0.5,12.4,4.5,12.9,11.1l0,0c0.5,6.6-4.5,12.4-11.1,12.9
				l0,0l0,0l0,0c-0.3,0-0.6,0-0.9,0l0,0C1262.7,1010.9,1257.5,1006.1,1257,999.8z M1203.2,1010.3L1203.2,1010.3L1203.2,1010.3
				c-6.6-0.6-11.4-6.5-10.8-13.1l0,0c0.6-6.6,6.5-11.5,13.1-10.8l0,0c6.6,0.6,11.5,6.5,10.8,13.1l0,0c-0.6,6.2-5.8,10.9-11.9,10.9
				l0,0C1204,1010.3,1203.6,1010.3,1203.2,1010.3z M1321.1,991.5c-1.6-6.4,2.3-12.9,8.7-14.6l0,0c6.4-1.6,13,2.3,14.6,8.7l0,0
				c1.6,6.4-2.3,13-8.7,14.6l0,0l0,0l0,0c-1,0.2-2,0.4-2.9,0.4l0,0C1327.4,1000.6,1322.5,997,1321.1,991.5z M1137.6,998.5
				L1137.6,998.5L1137.6,998.5c-6.4-1.7-10.2-8.3-8.5-14.7l0,0c1.7-6.4,8.3-10.2,14.7-8.5l0,0c6.4,1.7,10.2,8.3,8.5,14.7l0,0
				c-1.5,5.3-6.3,8.9-11.6,8.9l0,0C1139.7,998.9,1138.6,998.8,1137.6,998.5z M1382.9,972.4c-2.7-6.1,0-13.2,6.1-15.8l0,0
				c6.1-2.7,13.1,0.1,15.8,6.1l0,0c2.7,6.1-0.1,13.2-6.1,15.8l0,0c-1.6,0.7-3.2,1-4.9,1l0,0C1389.3,979.5,1384.9,976.9,1382.9,972.4
				z M1074.9,975.6c-6-2.8-8.6-9.9-5.8-15.9l0,0c2.8-6,9.9-8.6,15.9-5.8l0,0c6,2.8,8.6,9.9,5.8,15.9l0,0c-2,4.4-6.4,6.9-10.9,6.9
				l0,0C1078.3,976.8,1076.5,976.4,1074.9,975.6z M1440.5,943.1c-3.7-5.5-2.2-13,3.3-16.6l0,0c5.5-3.7,13-2.2,16.7,3.3l0,0
				c3.7,5.5,2.2,13-3.3,16.6l0,0l0,0l0,0c-2,1.4-4.4,2-6.6,2l0,0C1446.6,948.4,1442.8,946.5,1440.5,943.1z M1017,942.5
				c-5.5-3.8-6.8-11.2-3-16.7l0,0c3.8-5.5,11.2-6.8,16.7-3l0,0c5.5,3.8,6.8,11.2,3,16.7l0,0c-2.3,3.4-6.1,5.2-9.9,5.2l0,0
				C1021.5,944.6,1019.1,943.9,1017,942.5z M1492.3,904.4c-4.5-4.8-4.3-12.4,0.5-17l0,0c4.8-4.5,12.4-4.3,17,0.5l0,0
				c4.5,4.8,4.3,12.4-0.5,17l0,0l0,0l0,0c-2.3,2.2-5.3,3.3-8.2,3.3l0,0C1497.9,908.1,1494.7,906.9,1492.3,904.4z M965.6,900
				c-4.7-4.6-4.8-12.2-0.2-17l0,0c4.6-4.7,12.2-4.8,17-0.2l0,0c4.7,4.6,4.8,12.2,0.2,17l0,0c-2.3,2.4-5.5,3.6-8.6,3.6l0,0
				C971,903.4,968,902.3,965.6,900z M1536.9,857.5c-5.3-4-6.4-11.5-2.4-16.8l0,0c4-5.3,11.5-6.4,16.8-2.4l0,0
				c5.3,4,6.4,11.5,2.4,16.8l0,0c-2.4,3.1-6,4.8-9.6,4.8l0,0C1541.6,859.9,1539.1,859.1,1536.9,857.5z M922.1,849.5L922.1,849.5
				L922.1,849.5c-3.9-5.4-2.7-12.9,2.7-16.8l0,0c5.4-3.9,12.9-2.7,16.8,2.7l0,0c3.9,5.4,2.7,12.9-2.7,16.8l0,0
				c-2.1,1.5-4.6,2.3-7,2.3l0,0C928.1,854.4,924.5,852.7,922.1,849.5z M1572.9,803.7c-5.9-3-8.2-10.3-5.2-16.2l0,0
				c3-5.9,10.2-8.2,16.2-5.2l0,0c5.9,3,8.2,10.2,5.2,16.2l0,0l0,0l0,0c-2.1,4.1-6.3,6.5-10.7,6.5l0,0
				C1576.5,805.1,1574.7,804.6,1572.9,803.7z M887.8,792.3L887.8,792.3L887.8,792.3c-2.9-6-0.5-13.1,5.5-16.1l0,0
				c6-2.9,13.1-0.5,16,5.5l0,0c2.9,5.9,0.5,13.1-5.5,16l0,0c-1.7,0.8-3.5,1.2-5.3,1.2l0,0C894.1,799,889.9,796.5,887.8,792.3z
				 M1599.3,744.6c-6.3-2-9.9-8.7-7.9-15l0,0c2-6.3,8.7-9.9,15-7.9l0,0c6.3,2,9.9,8.7,7.9,15l0,0c-1.6,5.1-6.3,8.4-11.5,8.4l0,0
				C1601.7,745.2,1600.5,745,1599.3,744.6z M863.7,730.1c-1.9-6.4,1.8-13,8.1-14.9l0,0c6.4-1.9,13,1.8,14.9,8.2l0,0
				c1.9,6.4-1.8,13-8.2,14.9l0,0c-1.1,0.3-2.2,0.5-3.4,0.5l0,0C870,738.8,865.2,735.3,863.7,730.1z M1615.2,682
				c-6.6-0.9-11.2-6.9-10.3-13.5l0,0c0.9-6.6,6.9-11.2,13.5-10.3l0,0c6.6,0.9,11.2,6.9,10.3,13.5l0,0c-0.8,6-6,10.4-11.9,10.4l0,0
				C1616.2,682.1,1615.7,682,1615.2,682z M850.5,664.7L850.5,664.7L850.5,664.7c-0.8-6.6,4-12.5,10.6-13.3l0,0
				c6.6-0.8,12.5,4,13.3,10.6l0,0c0.8,6.6-4,12.5-10.6,13.3l0,0c-0.5,0-0.9,0.1-1.4,0.1l0,0C856.4,675.4,851.2,670.9,850.5,664.7z
				 M1607.7,605.9c-0.2-6.6,4.9-12.2,11.5-12.4l0,0c6.6-0.2,12.2,4.9,12.4,11.5l0,0c0.2,6.6-4.9,12.2-11.5,12.4l0,0
				c-0.2,0-0.3,0-0.5,0l0,0C1613.3,617.5,1608,612.4,1607.7,605.9z M859.9,610.8c-6.6-0.4-11.7-6-11.3-12.6l0,0
				c0.4-6.6,6-11.7,12.6-11.3l0,0c6.6,0.4,11.7,6,11.3,12.6l0,0c-0.4,6.4-5.6,11.3-12,11.3l0,0C860.4,610.8,860.1,610.8,859.9,610.8
				z M1600.1,543.8c-1.4-6.5,2.8-12.9,9.3-14.2l0,0c6.5-1.4,12.8,2.8,14.2,9.3l0,0l0,0l0,0c1.4,6.5-2.8,12.9-9.3,14.2l0,0
				c-0.8,0.2-1.7,0.3-2.5,0.3l0,0C1606.3,553.3,1601.3,549.5,1600.1,543.8z M866.9,546.5c-6.4-1.5-10.5-7.9-9-14.4l0,0
				c1.5-6.5,7.9-10.5,14.4-9l0,0c6.5,1.5,10.5,7.9,9,14.4l0,0c-1.3,5.6-6.2,9.3-11.7,9.3l0,0C868.7,546.8,867.8,546.7,866.9,546.5z
				 M1582,483.9c-2.5-6.2,0.5-13.1,6.7-15.6l0,0c6.2-2.5,13.1,0.5,15.6,6.7l0,0c2.5,6.2-0.5,13.1-6.7,15.6l0,0
				c-1.5,0.6-3,0.9-4.4,0.9l0,0C1588.4,491.5,1583.9,488.6,1582,483.9z M884.8,484.3c-6.1-2.6-9-9.6-6.4-15.7l0,0l0,0l0,0
				c2.6-6.1,9.6-9,15.7-6.4l0,0c6.1,2.6,9,9.6,6.4,15.7l0,0c-1.9,4.6-6.4,7.4-11.1,7.4l0,0C887.8,485.2,886.3,484.9,884.8,484.3z
				 M1554,428L1554,428c-3.5-5.6-1.7-13,4-16.5l0,0c5.7-3.5,13-1.7,16.5,4l0,0c3.5,5.6,1.7,13-4,16.5l0,0c-1.9,1.2-4.1,1.8-6.3,1.8
				l0,0C1560.2,433.7,1556.2,431.7,1554,428z M912.9,426c-5.6-3.6-7.2-11-3.7-16.6l0,0l0,0l0,0c3.6-5.6,11-7.2,16.6-3.7l0,0
				c5.6,3.6,7.2,11,3.7,16.6l0,0c-2.3,3.6-6.2,5.5-10.1,5.5l0,0C917.2,427.9,914.9,427.3,912.9,426z M1516.9,377.6L1516.9,377.6
				c-4.4-5-3.9-12.6,1.1-16.9l0,0c5-4.4,12.6-3.9,16.9,1.1l0,0c4.4,5,3.9,12.6-1.1,16.9l0,0c-2.3,2-5.1,3-7.9,3l0,0
				C1522.5,381.6,1519.2,380.3,1516.9,377.6z M950.6,373.4c-4.9-4.5-5.3-12-0.8-17l0,0c4.5-4.9,12-5.3,17-0.8l0,0
				c4.9,4.5,5.3,12,0.8,17l0,0c-2.4,2.6-5.6,3.9-8.9,3.9l0,0C955.8,376.6,952.9,375.5,950.6,373.4z M1471.8,334.1
				c-5.2-4.2-5.9-11.7-1.8-16.9l0,0c4.2-5.1,11.7-5.9,16.9-1.8l0,0c5.1,4.2,5.9,11.7,1.8,16.9l0,0c-2.4,2.9-5.8,4.4-9.3,4.4l0,0
				C1476.6,336.8,1474,335.9,1471.8,334.1z M996.6,327.9c-4.1-5.2-3.2-12.8,2-16.8l0,0c5.2-4.1,12.8-3.2,16.9,2l0,0
				c4.1,5.2,3.2,12.8-2,16.9l0,0c-2.2,1.7-4.8,2.6-7.4,2.6l0,0C1002.5,332.6,998.9,331,996.6,327.9z M1420,298.9
				c-5.8-3.2-7.8-10.6-4.6-16.3l0,0c3.2-5.8,10.6-7.8,16.3-4.6l0,0c5.8,3.2,7.8,10.6,4.6,16.3l0,0c-2.2,3.9-6.3,6.1-10.5,6.1l0,0
				C1423.8,300.5,1421.8,300,1420,298.9z M1049.5,290.9c-3.1-5.8-1-13.1,4.9-16.3l0,0l0,0l0,0c5.8-3.1,13.1-0.9,16.2,4.9l0,0
				c3.1,5.8,1,13.1-4.9,16.3l0,0c-1.8,1-3.8,1.4-5.7,1.4l0,0C1055.8,297.2,1051.7,294.9,1049.5,290.9z M1362.9,273
				c-6.2-2.2-9.5-9.1-7.3-15.3l0,0c2.2-6.2,9.1-9.5,15.3-7.3l0,0l0,0l0,0c6.2,2.2,9.5,9.1,7.3,15.3l0,0c-1.8,4.9-6.4,8-11.3,8l0,0
				C1365.6,273.7,1364.3,273.5,1362.9,273z M1108,263.3c-2.1-6.3,1.3-13.1,7.6-15.2l0,0l0,0l0,0c6.3-2.1,13.1,1.3,15.2,7.6l0,0
				c2.1,6.3-1.3,13.1-7.6,15.2l0,0c-1.3,0.4-2.5,0.6-3.8,0.6l0,0C1114.4,271.5,1109.7,268.4,1108,263.3z M1302.4,257.3
				c-6.5-1.1-10.9-7.3-9.8-13.8l0,0c1.1-6.5,7.3-10.9,13.8-9.8l0,0l0,0l0,0c6.5,1.1,10.9,7.3,9.8,13.9l0,0c-1,5.8-6.1,10-11.8,10
				l0,0C1303.8,257.4,1303.1,257.4,1302.4,257.3z M1170.4,246.2c-1-6.6,3.5-12.7,10-13.7l0,0c6.6-1,12.7,3.5,13.7,10l0,0
				c1,6.5-3.5,12.7-10.1,13.7l0,0c-0.6,0.1-1.2,0.1-1.8,0.1l0,0C1176.4,256.4,1171.3,252.1,1170.4,246.2z M1228,240
				c0-6.6,5.4-12,12-12l0,0c6.6,0,12,5.4,12,12l0,0c0,6.6-5.4,12-12,12l0,0C1233.4,252,1228,246.6,1228,240z"/>
		</g>
	</g>
</g>
<g id="surface1_3_">
	<circle fill="#5E6076" cx="560" cy="620" r="240"/>
	<circle fill="#DDEAF7" cx="560" cy="620" r="195"/>
	<path fill="#5E6076" d="M455,620l105-165l105,165l-105,60L455,620z"/>
	<path fill="#5E6076" d="M560,455l105,165l-105,60V455z"/>
	<path fill="#5E6076" d="M455,642.5l105,60l105-60L560,785L455,642.5z"/>
	<path fill="#5E6076" d="M560,702.5l105-60L560,785V702.5z"/>
	<path fill="#5E6076" d="M455,620l105-45l105,45l-105,60L455,620z"/>
	<path fill="#5E6076" d="M560,575l105,45l-105,60V575z"/>
</g>
<g id="surface1_4_">
	<circle fill="#5E6076" cx="2720" cy="620" r="240"/>
	<circle fill="#DDEAF7" cx="2720" cy="620" r="195"/>
	<path fill="#5E6076" d="M2615,620l105-165l105,165l-105,60L2615,620z"/>
	<path fill="#5E6076" d="M2720,455l105,165l-105,60V455z"/>
	<path fill="#5E6076" d="M2615,642.5l105,60l105-60L2720,785L2615,642.5z"/>
	<path fill="#5E6076" d="M2720,702.5l105-60L2720,785V702.5z"/>
	<path fill="#5E6076" d="M2615,620l105-45l105,45l-105,60L2615,620z"/>
	<path fill="#5E6076" d="M2720,575l105,45l-105,60V575z"/>
</g>
<g>
	<path opacity="0.1" enable-background="new    " d="M2642.7,392.7C2548.1,424.9,2480,514.5,2480,620s68.1,195.1,162.7,227.3
		c55.7-59.5,89.8-139.4,89.8-227.3S2698.4,452.2,2642.7,392.7z"/>
	<path opacity="0.1" enable-background="new    " d="M637.3,392.7c-55.7,59.5-89.8,139.4-89.8,227.3s34.1,167.8,89.8,227.3
		C731.9,815.1,800,725.5,800,620S731.9,424.9,637.3,392.7z"/>
</g>
<g id="surface1_1_">
	<circle fill="#8F96C5" cx="2400" cy="620" r="280"/>
	<circle fill="#DDEAF7" cx="2400" cy="620" r="227.5"/>
	<path fill="#8F96C5" d="M2277.5,620L2400,427.5L2522.5,620L2400,690L2277.5,620z"/>
	<path fill="#8F96C5" d="M2400,427.5L2522.5,620L2400,690V427.5z"/>
	<path fill="#8F96C5" d="M2277.5,646.2l122.5,70l122.5-70L2400,812.5L2277.5,646.2z"/>
	<path fill="#8F96C5" d="M2400,716.2l122.5-70L2400,812.5V716.2z"/>
	<path fill="#8F96C5" d="M2277.5,620l122.5-52.5l122.5,52.5L2400,690L2277.5,620z"/>
	<path fill="#8F96C5" d="M2400,567.5l122.5,52.5L2400,690V567.5z"/>
</g>
<g id="surface1_2_">
	<circle fill="#8F96C5" cx="880" cy="620" r="280"/>
	<circle fill="#DDEAF7" cx="880" cy="620" r="227.5"/>
	<path fill="#8F96C5" d="M757.5,620L880,427.5L1002.5,620L880,690L757.5,620z"/>
	<path fill="#8F96C5" d="M880,427.5L1002.5,620L880,690V427.5z"/>
	<path fill="#8F96C5" d="M757.5,646.2l122.5,70l122.5-70L880,812.5L757.5,646.2z"/>
	<path fill="#8F96C5" d="M880,716.2l122.5-70L880,812.5V716.2z"/>
	<path fill="#8F96C5" d="M757.5,620L880,567.5l122.5,52.5L880,690L757.5,620z"/>
	<path fill="#8F96C5" d="M880,567.5l122.5,52.5L880,690V567.5z"/>
</g>
<g>
	<path opacity="0.1" enable-background="new    " d="M2311.6,354.3c-111.3,37-191.6,142-191.6,265.7s80.3,228.7,191.6,265.7
		C2378.7,817.2,2420,723.4,2420,620S2378.7,422.8,2311.6,354.3z"/>
	<path opacity="0.1" enable-background="new    " d="M968.4,354.3C901.3,422.8,860,516.6,860,620s41.3,197.2,108.4,265.7
		c111.3-37,191.6-141.9,191.6-265.7S1079.7,391.3,968.4,354.3z"/>
</g>
<g id="surface1_5_">
	<circle fill="#3E4149" cx="2040" cy="620" r="320"/>
	<circle fill="#DDEAF7" cx="2040" cy="620" r="260"/>
	<path fill="#3E4149" d="M1900,620l140-220l140,220l-140,80L1900,620z"/>
	<path fill="#3E4149" d="M2040,400l140,220l-140,80V400z"/>
	<path fill="#3E4149" d="M1900,650l140,80l140-80l-140,190L1900,650z"/>
	<path fill="#3E4149" d="M2040,730l140-80l-140,190V730z"/>
	<path fill="#3E4149" d="M1900,620l140-60l140,60l-140,80L1900,620z"/>
	<path fill="#3E4149" d="M2040,560l140,60l-140,80V560z"/>
</g>
<g id="surface1">
	<circle fill="#3E4149" cx="1240" cy="620" r="320"/>
	<circle fill="#DDEAF7" cx="1240" cy="620" r="260"/>
	<path fill="#3E4149" d="M1100,620l140-220l140,220l-140,80L1100,620z"/>
	<path fill="#3E4149" d="M1240,400l140,220l-140,80V400z"/>
	<path fill="#3E4149" d="M1100,650l140,80l140-80l-140,190L1100,650z"/>
	<path fill="#3E4149" d="M1240,730l140-80l-140,190V730z"/>
	<path fill="#3E4149" d="M1100,620l140-60l140,60l-140,80L1100,620z"/>
	<path fill="#3E4149" d="M1240,560l140,60l-140,80V560z"/>
</g>
<g>
	<path opacity="0.1" enable-background="new    " d="M1347.6,318.5C1268.9,394.9,1220,501.7,1220,620s48.9,225.1,127.6,301.5
		C1471.4,877.3,1560,759,1560,620S1471.4,362.7,1347.6,318.5z"/>
	<path opacity="0.1" enable-background="new    " d="M1932.4,318.5C1808.6,362.7,1720,481,1720,620s88.6,257.3,212.4,301.5
		C2011.1,845.1,2060,738.3,2060,620S2011.1,394.9,1932.4,318.5z"/>
</g>
<g>
	<circle fill="#8E95C5" cx="1640" cy="620" r="360"/>
	<g>
		<g>
			<path fill="#F2F4FF" d="M1504,523.6h-19.3v-74.3l-23,7.1v-15.7l40.2-14.4h2.1L1504,523.6L1504,523.6z"/>
			<path fill="#F2F4FF" d="M1634.9,483.4c0,7.3-0.8,13.6-2.4,18.8s-3.8,9.5-6.7,13c-2.8,3.3-6.3,5.9-10.3,7.4
				c-4.1,1.6-8.5,2.4-13.4,2.4s-9.3-0.8-13.4-2.4c-4.1-1.6-7.5-4.1-10.3-7.4c-2.9-3.3-5.1-7.7-6.7-13s-2.4-11.5-2.4-18.8v-16.9
				c0-7.3,0.8-13.6,2.4-18.8s3.8-9.5,6.7-12.9c2.9-3.3,6.4-5.9,10.3-7.4c4-1.6,8.5-2.4,13.4-2.4s9.3,0.8,13.4,2.4
				c4.1,1.6,7.5,4.1,10.3,7.4c2.9,3.3,5.1,7.6,6.7,12.9c1.6,5.2,2.4,11.5,2.4,18.8V483.4z M1615.6,463.9c0-4.3-0.3-7.9-0.9-10.9
				c-0.6-2.9-1.5-5.3-2.7-7.1c-1.1-1.8-2.6-3.1-4.3-3.9c-1.7-0.8-3.6-1.1-5.7-1.1s-4.1,0.4-5.7,1.1c-1.7,0.8-3,2.1-4.3,3.9
				c-1.1,1.8-2,4.2-2.6,7.1c-0.6,2.9-0.9,6.6-0.9,10.9V486c0,4.4,0.3,8,0.9,11s1.5,5.4,2.7,7.2c1.1,1.9,2.6,3.1,4.3,4
				c1.7,0.8,3.6,1.1,5.7,1.1s4.1-0.4,5.7-1.1c1.7-0.8,3.1-2.1,4.3-4c1.1-1.9,2-4.3,2.6-7.2c0.6-3,0.9-6.7,0.9-11V463.9z"/>
			<path fill="#F2F4FF" d="M1728.8,523.6h-19.3v-74.3l-23,7.1v-15.7l40.2-14.4h2.1L1728.8,523.6L1728.8,523.6z"/>
			<path fill="#F2F4FF" d="M1859.8,483.4c0,7.3-0.8,13.6-2.4,18.8s-3.8,9.5-6.7,13c-2.8,3.3-6.3,5.9-10.3,7.4
				c-4.1,1.6-8.5,2.4-13.4,2.4s-9.3-0.8-13.4-2.4c-4.1-1.6-7.5-4.1-10.3-7.4c-2.9-3.3-5.1-7.7-6.7-13c-1.6-5.2-2.4-11.5-2.4-18.8
				v-16.9c0-7.3,0.8-13.6,2.4-18.8s3.8-9.5,6.7-12.9s6.4-5.9,10.3-7.4c4-1.6,8.5-2.4,13.4-2.4s9.3,0.8,13.4,2.4
				c4.1,1.6,7.5,4.1,10.3,7.4c2.9,3.3,5.1,7.6,6.7,12.9c1.6,5.2,2.4,11.5,2.4,18.8V483.4z M1840.4,463.9c0-4.3-0.3-7.9-0.9-10.9
				c-0.6-2.9-1.5-5.3-2.7-7.1c-1.1-1.8-2.6-3.1-4.3-3.9c-1.7-0.8-3.6-1.1-5.7-1.1s-4.1,0.4-5.7,1.1c-1.7,0.8-3,2.1-4.3,3.9
				c-1.1,1.8-2,4.2-2.6,7.1c-0.6,2.9-0.9,6.6-0.9,10.9V486c0,4.4,0.3,8,0.9,11s1.5,5.4,2.7,7.2c1.1,1.9,2.6,3.1,4.3,4
				c1.7,0.8,3.6,1.1,5.7,1.1s4.1-0.4,5.7-1.1c1.7-0.8,3.1-2.1,4.3-4c1.1-1.9,2-4.3,2.6-7.2c0.6-3,0.9-6.7,0.9-11V463.9z"/>
			<path fill="#F2F4FF" d="M1384.7,523.6h-19.3v-74.3l-23,7.1v-15.7l40.2-14.4h2.1L1384.7,523.6L1384.7,523.6z"/>
		</g>
		<g>
			<path fill="#F2F4FF" d="M1504,813.5h-19.3v-74.3l-23,7.1v-15.7l40.2-14.4h2.1L1504,813.5L1504,813.5z"/>
			<path fill="#F2F4FF" d="M1634.9,773.4c0,7.3-0.8,13.6-2.4,18.8s-3.8,9.5-6.7,13c-2.8,3.3-6.3,5.9-10.3,7.4
				c-4.1,1.6-8.5,2.4-13.4,2.4s-9.3-0.8-13.4-2.4c-4.1-1.6-7.5-4.1-10.3-7.4c-2.9-3.3-5.1-7.7-6.7-13c-1.6-5.2-2.4-11.5-2.4-18.8
				v-16.9c0-7.3,0.8-13.6,2.4-18.8s3.8-9.5,6.7-12.9c2.9-3.3,6.4-5.9,10.3-7.4c4-1.6,8.5-2.4,13.4-2.4s9.3,0.8,13.4,2.4
				c4.1,1.6,7.5,4.1,10.3,7.4c2.9,3.3,5.1,7.6,6.7,12.9s2.4,11.5,2.4,18.8V773.4z M1615.6,753.8c0-4.3-0.3-7.9-0.9-10.9
				c-0.6-2.9-1.5-5.3-2.7-7.1c-1.1-1.8-2.6-3.1-4.3-3.9c-1.7-0.8-3.6-1.1-5.7-1.1s-4.1,0.4-5.7,1.1c-1.7,0.8-3,2.1-4.3,3.9
				c-1.1,1.8-2,4.2-2.6,7.1s-0.9,6.6-0.9,10.9v22.1c0,4.4,0.3,8,0.9,11s1.5,5.4,2.7,7.2c1.1,1.9,2.6,3.1,4.3,4
				c1.7,0.8,3.6,1.1,5.7,1.1s4.1-0.4,5.7-1.1c1.7-0.8,3.1-2.1,4.3-4s2-4.3,2.6-7.2c0.6-3,0.9-6.7,0.9-11V753.8z"/>
			<path fill="#F2F4FF" d="M1728.8,813.5h-19.3v-74.3l-23,7.1v-15.7l40.2-14.4h2.1L1728.8,813.5L1728.8,813.5z"/>
			<path fill="#F2F4FF" d="M1859.8,773.4c0,7.3-0.8,13.6-2.4,18.8s-3.8,9.5-6.7,13c-2.8,3.3-6.3,5.9-10.3,7.4
				c-4.1,1.6-8.5,2.4-13.4,2.4s-9.3-0.8-13.4-2.4c-4.1-1.6-7.5-4.1-10.3-7.4c-2.9-3.3-5.1-7.7-6.7-13c-1.6-5.2-2.4-11.5-2.4-18.8
				v-16.9c0-7.3,0.8-13.6,2.4-18.8s3.8-9.5,6.7-12.9c2.9-3.3,6.4-5.9,10.3-7.4c4-1.6,8.5-2.4,13.4-2.4s9.3,0.8,13.4,2.4
				c4.1,1.6,7.5,4.1,10.3,7.4c2.9,3.3,5.1,7.6,6.7,12.9c1.6,5.2,2.4,11.5,2.4,18.8V773.4z M1840.4,753.8c0-4.3-0.3-7.9-0.9-10.9
				c-0.6-2.9-1.5-5.3-2.7-7.1c-1.1-1.8-2.6-3.1-4.3-3.9c-1.7-0.8-3.6-1.1-5.7-1.1s-4.1,0.4-5.7,1.1c-1.7,0.8-3,2.1-4.3,3.9
				c-1.1,1.8-2,4.2-2.6,7.1s-0.9,6.6-0.9,10.9v22.1c0,4.4,0.3,8,0.9,11s1.5,5.4,2.7,7.2c1.1,1.9,2.6,3.1,4.3,4
				c1.7,0.8,3.6,1.1,5.7,1.1s4.1-0.4,5.7-1.1c1.7-0.8,3.1-2.1,4.3-4c1.1-1.9,2-4.3,2.6-7.2c0.6-3,0.9-6.7,0.9-11V753.8z"/>
		</g>
		<g>
			<path fill="#F2F4FF" d="M1384.7,672h-19.3v-74.3l-23,7.1v-15.7l40.2-14.4h2.1L1384.7,672L1384.7,672z"/>
			<path fill="#F2F4FF" d="M1515.6,631.9c0,7.3-0.8,13.6-2.4,18.8s-3.8,9.5-6.7,13c-2.8,3.3-6.3,5.9-10.3,7.4
				c-4.1,1.6-8.5,2.4-13.4,2.4s-9.3-0.8-13.4-2.4c-4.1-1.6-7.5-4.1-10.3-7.4c-2.9-3.3-5.1-7.7-6.7-13c-1.6-5.2-2.4-11.5-2.4-18.8
				V615c0-7.3,0.8-13.6,2.4-18.8s3.8-9.5,6.7-12.9c2.9-3.3,6.4-5.9,10.3-7.4c4-1.6,8.5-2.4,13.4-2.4s9.3,0.8,13.4,2.4
				c4.1,1.6,7.5,4.1,10.3,7.4c2.9,3.3,5.1,7.6,6.7,12.9c1.6,5.2,2.4,11.5,2.4,18.8V631.9z M1496.4,612.2c0-4.3-0.3-7.9-0.9-10.9
				c-0.6-2.9-1.5-5.3-2.7-7.1c-1.1-1.8-2.6-3.1-4.3-3.9c-1.7-0.8-3.6-1.1-5.7-1.1s-4.1,0.4-5.7,1.1c-1.7,0.8-3,2.1-4.3,3.9
				c-1.1,1.8-2,4.2-2.6,7.1s-0.9,6.6-0.9,10.9v22.1c0,4.4,0.3,8,0.9,11s1.5,5.4,2.7,7.2c1.1,1.9,2.6,3.1,4.3,4
				c1.7,0.8,3.6,1.1,5.7,1.1s4.1-0.4,5.7-1.1c1.7-0.8,3.1-2.1,4.3-4s2-4.3,2.6-7.2c0.6-3,0.9-6.7,0.9-11V612.2z"/>
			<path fill="#F2F4FF" d="M1609.5,672h-19.3v-74.3l-23,7.1v-15.7l40.2-14.4h2.1L1609.5,672L1609.5,672z"/>
			<path fill="#F2F4FF" d="M1740.5,631.9c0,7.3-0.8,13.6-2.4,18.8s-3.8,9.5-6.7,13c-2.8,3.3-6.3,5.9-10.3,7.4
				c-4.1,1.6-8.5,2.4-13.4,2.4s-9.3-0.8-13.4-2.4c-4.1-1.6-7.5-4.1-10.3-7.4c-2.9-3.3-5.1-7.7-6.7-13c-1.6-5.2-2.4-11.5-2.4-18.8
				V615c0-7.3,0.8-13.6,2.4-18.8s3.8-9.5,6.7-12.9c2.9-3.3,6.4-5.9,10.3-7.4c4-1.6,8.5-2.4,13.4-2.4s9.3,0.8,13.4,2.4
				c4.1,1.6,7.5,4.1,10.3,7.4c2.9,3.3,5.1,7.6,6.7,12.9c1.6,5.2,2.4,11.5,2.4,18.8V631.9z M1721.1,612.2c0-4.3-0.3-7.9-0.9-10.9
				c-0.6-2.9-1.5-5.3-2.7-7.1c-1.1-1.8-2.6-3.1-4.3-3.9c-1.7-0.8-3.6-1.1-5.7-1.1s-4.1,0.4-5.7,1.1c-1.7,0.8-3,2.1-4.3,3.9
				c-1.1,1.8-2,4.2-2.6,7.1s-0.9,6.6-0.9,10.9v22.1c0,4.4,0.3,8,0.9,11s1.5,5.4,2.7,7.2c1.1,1.9,2.6,3.1,4.3,4
				c1.7,0.8,3.6,1.1,5.7,1.1s4.1-0.4,5.7-1.1c1.7-0.8,3.1-2.1,4.3-4c1.1-1.9,2-4.3,2.6-7.2c0.6-3,0.9-6.7,0.9-11V612.2z"/>
			<path fill="#F2F4FF" d="M1834.3,672H1815v-74.3l-23,7.1v-15.7l40.2-14.4h2.1L1834.3,672L1834.3,672z"/>
			<path fill="#F2F4FF" d="M1937.6,672h-19.3v-74.3l-23,7.1v-15.7l40.2-14.4h2.1L1937.6,672L1937.6,672z"/>
		</g>
	</g>
	<g>
		<path fill="#3E4149" d="M1783.9,837.7l-145.8-145.8l53.3-53.3l145.8,145.8c14.7,14.7,14.7,38.6,0,53.3l0,0
			C1822.6,852.5,1798.7,852.5,1783.9,837.7z"/>
		<path fill="#3E4149" d="M1686.6,456.7c-63.6-63.6-166.7-63.6-230.3,0c-63.6,63.6-63.6,166.7,0,230.3s166.7,63.6,230.3,0
			C1750.2,623.4,1750.2,520.3,1686.6,456.7z M1646.5,646.9c-41.5,41.5-108.7,41.5-150.1,0c-41.5-41.5-41.5-108.7,0-150.1
			c41.5-41.5,108.7-41.5,150.1,0C1687.9,538.2,1687.9,605.5,1646.5,646.9z"/>
	</g>
</g>
</svg>
