<?xml version="1.0" encoding="utf-8"?>
<!-- Generator: Adobe Illustrator 21.1.0, SVG Export Plug-In . SVG Version: 6.00 Build 0)  -->
<svg version="1.1" id="Layer_1" xmlns="http://www.w3.org/2000/svg" xmlns:xlink="http://www.w3.org/1999/xlink" x="0px" y="0px"
	 width="3200px" height="960px" viewBox="0 0 3200 960" enable-background="new 0 0 3200 960" xml:space="preserve">
<rect y="-320" display="none" fill="#2094FA" width="3200" height="1600"/>
<g>
	<g>
		<path fill="#F2F4FF" d="M2743.9,383.6h-19.3v-74.4l-23,7.1v-15.7l40.3-14.4h2.1L2743.9,383.6L2743.9,383.6L2743.9,383.6z"/>
		<path fill="#F2F4FF" d="M2874.9,343.4c0,7.3-0.8,13.6-2.4,18.8s-3.8,9.5-6.7,12.9s-6.3,5.9-10.3,7.4c-4,1.6-8.5,2.4-13.4,2.4
			s-9.4-0.8-13.4-2.4c-4-1.6-7.5-4.1-10.4-7.4c-2.9-3.4-5.1-7.7-6.7-12.9s-2.4-11.5-2.4-18.8v-16.9c0-7.3,0.8-13.6,2.4-18.8
			c1.6-5.2,3.8-9.5,6.7-12.9s6.3-5.8,10.3-7.4s8.5-2.4,13.3-2.4c4.9,0,9.4,0.8,13.4,2.4s7.5,4.1,10.4,7.4c2.9,3.4,5.1,7.7,6.7,12.9
			c1.6,5.2,2.4,11.5,2.4,18.8L2874.9,343.4L2874.9,343.4z M2855.6,323.8c0-4.3-0.3-7.9-0.9-10.9c-0.6-2.9-1.5-5.3-2.7-7.1
			s-2.6-3.1-4.3-3.9c-1.7-0.8-3.6-1.2-5.7-1.2c-2.1,0-4,0.4-5.7,1.2s-3.1,2.1-4.2,3.9c-1.2,1.8-2,4.2-2.6,7.1s-0.9,6.6-0.9,10.9V346
			c0,4.4,0.3,8,0.9,11c0.6,3,1.5,5.4,2.7,7.2s2.6,3.2,4.3,4s3.6,1.2,5.7,1.2c2.1,0,4-0.4,5.7-1.2s3.1-2.1,4.2-4
			c1.1-1.8,2-4.3,2.6-7.2c0.6-3,0.9-6.7,0.9-11V323.8z"/>
		<path fill="#F2F4FF" d="M2968.7,383.6h-19.3v-74.4l-23,7.1v-15.7l40.3-14.4h2.1L2968.7,383.6L2968.7,383.6L2968.7,383.6z"/>
		<path fill="#F2F4FF" d="M3099.8,343.4c0,7.3-0.8,13.6-2.4,18.8s-3.8,9.5-6.7,12.9s-6.3,5.9-10.3,7.4c-4,1.6-8.5,2.4-13.4,2.4
			s-9.4-0.8-13.4-2.4c-4-1.6-7.5-4.1-10.4-7.4c-2.9-3.4-5.1-7.7-6.7-12.9s-2.4-11.5-2.4-18.8v-16.9c0-7.3,0.8-13.6,2.4-18.8
			c1.6-5.2,3.8-9.5,6.7-12.9s6.3-5.8,10.3-7.4c4-1.6,8.5-2.4,13.3-2.4c4.9,0,9.4,0.8,13.4,2.4c4,1.6,7.5,4.1,10.4,7.4
			c2.9,3.4,5.1,7.7,6.7,12.9c1.6,5.2,2.4,11.5,2.4,18.8L3099.8,343.4L3099.8,343.4z M3080.5,323.8c0-4.3-0.3-7.9-0.9-10.9
			c-0.6-2.9-1.5-5.3-2.7-7.1s-2.6-3.1-4.3-3.9c-1.7-0.8-3.6-1.2-5.7-1.2c-2.1,0-4,0.4-5.7,1.2s-3.1,2.1-4.2,3.9
			c-1.2,1.8-2,4.2-2.6,7.1s-0.9,6.6-0.9,10.9V346c0,4.4,0.3,8,0.9,11c0.6,3,1.5,5.4,2.7,7.2s2.6,3.2,4.3,4s3.6,1.2,5.7,1.2
			c2.1,0,4-0.4,5.7-1.2s3.1-2.1,4.2-4c1.1-1.8,2-4.3,2.6-7.2c0.6-3,0.9-6.7,0.9-11V323.8z"/>
	</g>
	<g>
		<path fill="#F2F4FF" d="M2743.9,673.7h-19.3v-74.4l-23,7.1v-15.7l40.3-14.4h2.1L2743.9,673.7L2743.9,673.7L2743.9,673.7z"/>
		<path fill="#F2F4FF" d="M2874.9,633.5c0,7.3-0.8,13.6-2.4,18.8c-1.6,5.2-3.8,9.5-6.7,12.9s-6.3,5.9-10.3,7.4
			c-4,1.6-8.5,2.4-13.4,2.4s-9.4-0.8-13.4-2.4c-4-1.6-7.5-4.1-10.4-7.4c-2.9-3.4-5.1-7.7-6.7-12.9c-1.6-5.2-2.4-11.5-2.4-18.8v-16.9
			c0-7.3,0.8-13.6,2.4-18.8s3.8-9.5,6.7-12.9s6.3-5.8,10.3-7.4c4-1.6,8.5-2.4,13.3-2.4c4.9,0,9.4,0.8,13.4,2.4
			c4,1.6,7.5,4.1,10.4,7.4c2.9,3.4,5.1,7.7,6.7,12.9s2.4,11.5,2.4,18.8L2874.9,633.5L2874.9,633.5z M2855.6,613.9
			c0-4.3-0.3-7.9-0.9-10.9c-0.6-2.9-1.5-5.3-2.7-7.1s-2.6-3.1-4.3-3.9c-1.7-0.8-3.6-1.2-5.7-1.2c-2.1,0-4,0.4-5.7,1.2
			s-3.1,2.1-4.2,3.9c-1.2,1.8-2,4.2-2.6,7.1c-0.6,2.9-0.9,6.6-0.9,10.9V636c0,4.4,0.3,8,0.9,11c0.6,3,1.5,5.4,2.7,7.2s2.6,3.2,4.3,4
			s3.6,1.2,5.7,1.2c2.1,0,4-0.4,5.7-1.2s3.1-2.1,4.2-4c1.1-1.8,2-4.3,2.6-7.2c0.6-3,0.9-6.7,0.9-11V613.9z"/>
		<path fill="#F2F4FF" d="M2968.7,673.7h-19.3v-74.4l-23,7.1v-15.7l40.3-14.4h2.1L2968.7,673.7L2968.7,673.7L2968.7,673.7z"/>
		<path fill="#F2F4FF" d="M3099.8,633.5c0,7.3-0.8,13.6-2.4,18.8c-1.6,5.2-3.8,9.5-6.7,12.9s-6.3,5.9-10.3,7.4
			c-4,1.6-8.5,2.4-13.4,2.4s-9.4-0.8-13.4-2.4c-4-1.6-7.5-4.1-10.4-7.4c-2.9-3.4-5.1-7.7-6.7-12.9c-1.6-5.2-2.4-11.5-2.4-18.8v-16.9
			c0-7.3,0.8-13.6,2.4-18.8s3.8-9.5,6.7-12.9s6.3-5.8,10.3-7.4c4-1.6,8.5-2.4,13.3-2.4c4.9,0,9.4,0.8,13.4,2.4
			c4,1.6,7.5,4.1,10.4,7.4c2.9,3.4,5.1,7.7,6.7,12.9s2.4,11.5,2.4,18.8L3099.8,633.5L3099.8,633.5z M3080.5,613.9
			c0-4.3-0.3-7.9-0.9-10.9c-0.6-2.9-1.5-5.3-2.7-7.1s-2.6-3.1-4.3-3.9c-1.7-0.8-3.6-1.2-5.7-1.2c-2.1,0-4,0.4-5.7,1.2
			s-3.1,2.1-4.2,3.9c-1.2,1.8-2,4.2-2.6,7.1c-0.6,2.9-0.9,6.6-0.9,10.9V636c0,4.4,0.3,8,0.9,11c0.6,3,1.5,5.4,2.7,7.2s2.6,3.2,4.3,4
			s3.6,1.2,5.7,1.2c2.1,0,4-0.4,5.7-1.2s3.1-2.1,4.2-4c1.1-1.8,2-4.3,2.6-7.2c0.6-3,0.9-6.7,0.9-11V613.9z"/>
	</g>
	<g>
		<path fill="#F2F4FF" d="M2624.5,532.1h-19.3v-74.4l-23,7.1v-15.7l40.3-14.4h2.1L2624.5,532.1L2624.5,532.1z"/>
		<path fill="#F2F4FF" d="M2755.6,491.9c0,7.3-0.8,13.6-2.4,18.8s-3.8,9.5-6.7,12.9s-6.3,5.9-10.3,7.4c-4,1.6-8.5,2.4-13.4,2.4
			s-9.4-0.8-13.4-2.4s-7.5-4.1-10.4-7.4c-2.9-3.4-5.1-7.7-6.7-12.9s-2.4-11.5-2.4-18.8V475c0-7.3,0.8-13.6,2.4-18.8
			c1.6-5.2,3.8-9.5,6.7-12.9s6.3-5.8,10.3-7.4c4-1.6,8.5-2.4,13.3-2.4c4.9,0,9.4,0.8,13.4,2.4c4,1.6,7.5,4.1,10.4,7.4
			c2.9,3.4,5.1,7.7,6.7,12.9c1.6,5.2,2.4,11.5,2.4,18.8L2755.6,491.9L2755.6,491.9z M2736.3,472.4c0-4.3-0.3-7.9-0.9-10.9
			c-0.6-2.9-1.5-5.3-2.7-7.1s-2.6-3.1-4.3-3.9c-1.7-0.8-3.6-1.2-5.7-1.2s-4,0.4-5.7,1.2s-3.1,2.1-4.2,3.9c-1.2,1.8-2,4.2-2.6,7.1
			s-0.9,6.6-0.9,10.9v22.2c0,4.4,0.3,8,0.9,11s1.5,5.4,2.7,7.2s2.6,3.2,4.3,4s3.6,1.2,5.7,1.2s4-0.4,5.7-1.2s3.1-2.1,4.2-4
			c1.1-1.8,2-4.3,2.6-7.2c0.6-3,0.9-6.7,0.9-11V472.4z"/>
		<path fill="#F2F4FF" d="M2849.5,532.1h-19.3v-74.4l-23,7.1v-15.7l40.3-14.4h2.1v97.4L2849.5,532.1L2849.5,532.1z"/>
		<path fill="#F2F4FF" d="M2980.4,491.9c0,7.3-0.8,13.6-2.4,18.8s-3.8,9.5-6.7,12.9s-6.3,5.9-10.3,7.4c-4,1.6-8.5,2.4-13.4,2.4
			s-9.4-0.8-13.4-2.4s-7.5-4.1-10.4-7.4c-2.9-3.4-5.1-7.7-6.7-12.9c-1.6-5.2-2.4-11.5-2.4-18.8V475c0-7.3,0.8-13.6,2.4-18.8
			c1.6-5.2,3.8-9.5,6.7-12.9s6.3-5.8,10.3-7.4c4-1.6,8.5-2.4,13.3-2.4c4.9,0,9.4,0.8,13.4,2.4c4,1.6,7.5,4.1,10.4,7.4
			c2.9,3.4,5.1,7.7,6.7,12.9c1.6,5.2,2.4,11.5,2.4,18.8L2980.4,491.9L2980.4,491.9z M2961.1,472.4c0-4.3-0.3-7.9-0.9-10.9
			c-0.6-2.9-1.5-5.3-2.7-7.1s-2.6-3.1-4.3-3.9s-3.6-1.2-5.7-1.2c-2.1,0-4,0.4-5.7,1.2s-3.1,2.1-4.2,3.9c-1.1,1.8-2,4.2-2.6,7.1
			s-0.9,6.6-0.9,10.9v22.2c0,4.4,0.3,8,0.9,11s1.5,5.4,2.7,7.2s2.6,3.2,4.3,4s3.6,1.2,5.7,1.2c2.1,0,4-0.4,5.7-1.2s3.1-2.1,4.2-4
			c1.1-1.8,2-4.3,2.6-7.2c0.6-3,0.9-6.7,0.9-11V472.4z"/>
		<path fill="#F2F4FF" d="M3074.3,532.1H3055v-74.4l-23,7.1v-15.7l40.3-14.4h2.1v97.4L3074.3,532.1L3074.3,532.1z"/>
		<path fill="#F2F4FF" d="M3177.7,532.1h-19.3v-74.4l-23,7.1v-15.7l40.3-14.4h2.1L3177.7,532.1L3177.7,532.1z"/>
	</g>
</g>
<g>
	<g>
		<path fill="#F2F4FF" d="M183.9,383.6h-19.3v-74.4l-23,7.1v-15.7l40.3-14.4h2.1L183.9,383.6L183.9,383.6L183.9,383.6z"/>
		<path fill="#F2F4FF" d="M314.9,343.4c0,7.3-0.8,13.6-2.4,18.8s-3.8,9.5-6.7,12.9c-2.9,3.4-6.3,5.9-10.3,7.4
			c-4,1.6-8.5,2.4-13.4,2.4s-9.4-0.8-13.4-2.4c-4-1.6-7.5-4.1-10.4-7.4c-2.9-3.4-5.1-7.7-6.7-12.9c-1.6-5.2-2.4-11.5-2.4-18.8v-16.9
			c0-7.3,0.8-13.6,2.4-18.8c1.6-5.2,3.8-9.5,6.7-12.9s6.3-5.8,10.3-7.4s8.5-2.4,13.3-2.4c4.9,0,9.4,0.8,13.4,2.4
			c4,1.6,7.5,4.1,10.4,7.4c2.9,3.4,5.1,7.7,6.7,12.9s2.4,11.5,2.4,18.8v16.9H314.9z M295.6,323.8c0-4.3-0.3-7.9-0.9-10.9
			c-0.6-2.9-1.5-5.3-2.7-7.1s-2.6-3.1-4.3-3.9c-1.7-0.8-3.6-1.2-5.7-1.2s-4,0.4-5.7,1.2s-3.1,2.1-4.2,3.9c-1.2,1.8-2,4.2-2.6,7.1
			c-0.6,2.9-0.9,6.6-0.9,10.9V346c0,4.4,0.3,8,0.9,11s1.5,5.4,2.7,7.2s2.6,3.2,4.3,4s3.6,1.2,5.7,1.2s4-0.4,5.7-1.2s3.1-2.1,4.2-4
			c1.1-1.8,2-4.3,2.6-7.2c0.6-3,0.9-6.7,0.9-11V323.8z"/>
		<path fill="#F2F4FF" d="M408.7,383.6h-19.3v-74.4l-23,7.1v-15.7l40.3-14.4h2.1L408.7,383.6L408.7,383.6L408.7,383.6z"/>
		<path fill="#F2F4FF" d="M539.8,343.4c0,7.3-0.8,13.6-2.4,18.8c-1.6,5.2-3.8,9.5-6.7,12.9s-6.3,5.9-10.3,7.4
			c-4,1.6-8.5,2.4-13.4,2.4s-9.4-0.8-13.4-2.4c-4-1.6-7.5-4.1-10.4-7.4c-2.9-3.4-5.1-7.7-6.7-12.9s-2.4-11.5-2.4-18.8v-16.9
			c0-7.3,0.8-13.6,2.4-18.8s3.8-9.5,6.7-12.9c2.9-3.4,6.3-5.8,10.3-7.4s8.5-2.4,13.3-2.4c4.9,0,9.4,0.8,13.4,2.4s7.5,4.1,10.4,7.4
			c2.9,3.4,5.1,7.7,6.7,12.9c1.6,5.2,2.4,11.5,2.4,18.8L539.8,343.4L539.8,343.4z M520.5,323.8c0-4.3-0.3-7.9-0.9-10.9
			c-0.6-2.9-1.5-5.3-2.7-7.1s-2.6-3.1-4.3-3.9c-1.7-0.8-3.6-1.2-5.7-1.2s-4,0.4-5.7,1.2s-3.1,2.1-4.2,3.9c-1.2,1.8-2,4.2-2.6,7.1
			c-0.6,2.9-0.9,6.6-0.9,10.9V346c0,4.4,0.3,8,0.9,11s1.5,5.4,2.7,7.2s2.6,3.2,4.3,4s3.6,1.2,5.7,1.2s4-0.4,5.7-1.2
			c1.7-0.8,3.1-2.1,4.2-4c1.1-1.8,2-4.3,2.6-7.2c0.6-3,0.9-6.7,0.9-11L520.5,323.8L520.5,323.8z"/>
	</g>
	<g>
		<path fill="#F2F4FF" d="M183.9,673.7h-19.3v-74.4l-23,7.1v-15.7l40.3-14.4h2.1L183.9,673.7L183.9,673.7L183.9,673.7z"/>
		<path fill="#F2F4FF" d="M314.9,633.5c0,7.3-0.8,13.6-2.4,18.8s-3.8,9.5-6.7,12.9c-2.9,3.4-6.3,5.9-10.3,7.4
			c-4,1.6-8.5,2.4-13.4,2.4s-9.4-0.8-13.4-2.4c-4-1.6-7.5-4.1-10.4-7.4c-2.9-3.4-5.1-7.7-6.7-12.9c-1.6-5.2-2.4-11.5-2.4-18.8v-16.9
			c0-7.3,0.8-13.6,2.4-18.8c1.6-5.2,3.8-9.5,6.7-12.9s6.3-5.8,10.3-7.4c4-1.6,8.5-2.4,13.3-2.4c4.9,0,9.4,0.8,13.4,2.4
			c4,1.6,7.5,4.1,10.4,7.4c2.9,3.4,5.1,7.7,6.7,12.9s2.4,11.5,2.4,18.8v16.9H314.9z M295.6,613.9c0-4.3-0.3-7.9-0.9-10.9
			c-0.6-2.9-1.5-5.3-2.7-7.1s-2.6-3.1-4.3-3.9c-1.7-0.8-3.6-1.2-5.7-1.2s-4,0.4-5.7,1.2s-3.1,2.1-4.2,3.9c-1.2,1.8-2,4.2-2.6,7.1
			c-0.6,2.9-0.9,6.6-0.9,10.9V636c0,4.4,0.3,8,0.9,11s1.5,5.4,2.7,7.2s2.6,3.2,4.3,4c1.7,0.8,3.6,1.2,5.7,1.2s4-0.4,5.7-1.2
			s3.1-2.1,4.2-4c1.1-1.8,2-4.3,2.6-7.2c0.6-3,0.9-6.7,0.9-11V613.9z"/>
		<path fill="#F2F4FF" d="M408.7,673.7h-19.3v-74.4l-23,7.1v-15.7l40.3-14.4h2.1L408.7,673.7L408.7,673.7L408.7,673.7z"/>
		<path fill="#F2F4FF" d="M539.8,633.5c0,7.3-0.8,13.6-2.4,18.8c-1.6,5.2-3.8,9.5-6.7,12.9s-6.3,5.9-10.3,7.4
			c-4,1.6-8.5,2.4-13.4,2.4s-9.4-0.8-13.4-2.4c-4-1.6-7.5-4.1-10.4-7.4c-2.9-3.4-5.1-7.7-6.7-12.9s-2.4-11.5-2.4-18.8v-16.9
			c0-7.3,0.8-13.6,2.4-18.8s3.8-9.5,6.7-12.9c2.9-3.4,6.3-5.8,10.3-7.4c4-1.6,8.5-2.4,13.3-2.4c4.9,0,9.4,0.8,13.4,2.4
			c4,1.6,7.5,4.1,10.4,7.4c2.9,3.4,5.1,7.7,6.7,12.9c1.6,5.2,2.4,11.5,2.4,18.8L539.8,633.5L539.8,633.5z M520.5,613.9
			c0-4.3-0.3-7.9-0.9-10.9c-0.6-2.9-1.5-5.3-2.7-7.1s-2.6-3.1-4.3-3.9c-1.7-0.8-3.6-1.2-5.7-1.2s-4,0.4-5.7,1.2s-3.1,2.1-4.2,3.9
			c-1.2,1.8-2,4.2-2.6,7.1c-0.6,2.9-0.9,6.6-0.9,10.9V636c0,4.4,0.3,8,0.9,11s1.5,5.4,2.7,7.2s2.6,3.2,4.3,4
			c1.7,0.8,3.6,1.2,5.7,1.2s4-0.4,5.7-1.2c1.7-0.8,3.1-2.1,4.2-4c1.1-1.8,2-4.3,2.6-7.2c0.6-3,0.9-6.7,0.9-11L520.5,613.9
			L520.5,613.9z"/>
	</g>
	<g>
		<path fill="#F2F4FF" d="M64.5,532.1H45.2v-74.4l-23,7.1v-15.7l40.3-14.4h2.1L64.5,532.1L64.5,532.1z"/>
		<path fill="#F2F4FF" d="M195.6,491.9c0,7.3-0.8,13.6-2.4,18.8c-1.6,5.2-3.8,9.5-6.7,12.9s-6.3,5.9-10.3,7.4
			c-4,1.6-8.5,2.4-13.4,2.4s-9.4-0.8-13.4-2.4s-7.5-4.1-10.4-7.4c-2.9-3.4-5.1-7.7-6.7-12.9c-1.6-5.2-2.4-11.5-2.4-18.8V475
			c0-7.3,0.8-13.6,2.4-18.8c1.6-5.2,3.8-9.5,6.7-12.9s6.3-5.8,10.3-7.4c4-1.6,8.5-2.4,13.3-2.4c4.9,0,9.4,0.8,13.4,2.4
			c4,1.6,7.5,4.1,10.4,7.4c2.9,3.4,5.1,7.7,6.7,12.9c1.6,5.2,2.4,11.5,2.4,18.8L195.6,491.9L195.6,491.9z M176.3,472.4
			c0-4.3-0.3-7.9-0.9-10.9c-0.6-2.9-1.5-5.3-2.7-7.1s-2.6-3.1-4.3-3.9c-1.7-0.8-3.6-1.2-5.7-1.2c-2.1,0-4,0.4-5.7,1.2
			s-3.1,2.1-4.2,3.9c-1.2,1.8-2,4.2-2.6,7.1s-0.9,6.6-0.9,10.9v22.2c0,4.4,0.3,8,0.9,11c0.6,3,1.5,5.4,2.7,7.2s2.6,3.2,4.3,4
			s3.6,1.2,5.7,1.2s4-0.4,5.7-1.2s3.1-2.1,4.2-4c1.1-1.8,2-4.3,2.6-7.2c0.6-3,0.9-6.7,0.9-11V472.4z"/>
		<path fill="#F2F4FF" d="M289.5,532.1h-19.3v-74.4l-23,7.1v-15.7l40.3-14.4h2.1L289.5,532.1L289.5,532.1L289.5,532.1z"/>
		<path fill="#F2F4FF" d="M420.4,491.9c0,7.3-0.8,13.6-2.4,18.8s-3.8,9.5-6.7,12.9s-6.3,5.9-10.3,7.4c-4,1.6-8.5,2.4-13.4,2.4
			s-9.4-0.8-13.4-2.4c-4-1.6-7.5-4.1-10.4-7.4c-2.9-3.4-5.1-7.7-6.7-12.9s-2.4-11.5-2.4-18.8V475c0-7.3,0.8-13.6,2.4-18.8
			s3.8-9.5,6.7-12.9c2.9-3.4,6.3-5.8,10.3-7.4c4-1.6,8.5-2.4,13.3-2.4c4.9,0,9.4,0.8,13.4,2.4c4,1.6,7.5,4.1,10.4,7.4
			c2.9,3.4,5.1,7.7,6.7,12.9s2.4,11.5,2.4,18.8L420.4,491.9L420.4,491.9z M401.1,472.4c0-4.3-0.3-7.9-0.9-10.9
			c-0.6-2.9-1.5-5.3-2.7-7.1s-2.6-3.1-4.3-3.9c-1.7-0.8-3.6-1.2-5.7-1.2s-4,0.4-5.7,1.2s-3.1,2.1-4.2,3.9c-1.1,1.8-2,4.2-2.6,7.1
			s-0.9,6.6-0.9,10.9v22.2c0,4.4,0.3,8,0.9,11s1.5,5.4,2.7,7.2s2.6,3.2,4.3,4c1.7,0.8,3.6,1.2,5.7,1.2s4-0.4,5.7-1.2s3.1-2.1,4.2-4
			c1.1-1.8,2-4.3,2.6-7.2c0.6-3,0.9-6.7,0.9-11V472.4z"/>
		<path fill="#F2F4FF" d="M514.3,532.1H495v-74.4l-23,7.1v-15.7l40.3-14.4h2.1L514.3,532.1L514.3,532.1L514.3,532.1z"/>
		<path fill="#F2F4FF" d="M617.7,532.1h-19.3v-74.4l-23,7.1v-15.7l40.3-14.4h2.1L617.7,532.1L617.7,532.1z"/>
	</g>
</g>
<g id="surface1_2_">
	<circle display="none" fill="#FFFFFF" cx="2000" cy="480" r="400"/>
	<g display="none">
		
			<circle display="inline" fill="none" stroke="#FF3B30" stroke-width="24" stroke-linecap="round" stroke-linejoin="round" stroke-dasharray="0,64.7384" cx="2000" cy="480" r="380"/>
	</g>
	<g>
		<g>
			<path fill="#F2F4FF" d="M2017,859.8c-0.5-6.6,4.5-12.4,11.1-12.9l0,0c6.6-0.5,12.4,4.5,12.9,11.1l0,0c0.5,6.6-4.5,12.4-11.1,12.9
				l0,0l0,0l0,0c-0.3,0-0.6,0-0.9,0l0,0C2022.7,870.9,2017.5,866.1,2017,859.8z M1963.2,870.3L1963.2,870.3L1963.2,870.3
				c-6.6-0.6-11.4-6.5-10.8-13.1l0,0c0.6-6.6,6.5-11.5,13.1-10.8l0,0c6.6,0.6,11.5,6.5,10.8,13.1l0,0c-0.6,6.2-5.8,10.9-11.9,10.9
				l0,0C1964,870.3,1963.6,870.3,1963.2,870.3z M2081.1,851.5c-1.6-6.4,2.3-12.9,8.7-14.6l0,0c6.4-1.6,13,2.3,14.6,8.7l0,0
				c1.6,6.4-2.3,13-8.7,14.6l0,0l0,0l0,0c-1,0.2-2,0.4-2.9,0.4l0,0C2087.4,860.6,2082.5,857,2081.1,851.5z M1897.6,858.5
				L1897.6,858.5L1897.6,858.5c-6.4-1.7-10.2-8.3-8.5-14.7l0,0c1.7-6.4,8.3-10.2,14.7-8.5l0,0c6.4,1.7,10.2,8.3,8.5,14.7l0,0
				c-1.5,5.3-6.3,8.9-11.6,8.9l0,0C1899.7,858.9,1898.6,858.8,1897.6,858.5z M2142.9,832.4c-2.7-6.1,0-13.2,6.1-15.8l0,0
				c6.1-2.7,13.1,0.1,15.8,6.1l0,0c2.7,6.1-0.1,13.2-6.1,15.8l0,0c-1.6,0.7-3.2,1-4.9,1l0,0C2149.3,839.5,2144.9,836.9,2142.9,832.4
				z M1834.9,835.6c-6-2.8-8.6-9.9-5.8-15.9l0,0c2.8-6,9.9-8.6,15.9-5.8l0,0c6,2.8,8.6,9.9,5.8,15.9l0,0c-2,4.4-6.4,6.9-10.9,6.9
				l0,0C1838.3,836.8,1836.5,836.4,1834.9,835.6z M2200.5,803.1c-3.7-5.5-2.2-13,3.3-16.6l0,0c5.5-3.7,13-2.2,16.7,3.3l0,0
				c3.7,5.5,2.2,13-3.3,16.6l0,0l0,0l0,0c-2,1.4-4.4,2-6.6,2l0,0C2206.6,808.4,2202.8,806.5,2200.5,803.1z M1777,802.5
				c-5.5-3.8-6.8-11.2-3-16.7l0,0c3.8-5.5,11.2-6.8,16.7-3l0,0c5.5,3.8,6.8,11.2,3,16.7l0,0c-2.3,3.4-6.1,5.2-9.9,5.2l0,0
				C1781.5,804.6,1779.1,803.9,1777,802.5z M2252.3,764.4c-4.5-4.8-4.3-12.4,0.5-17l0,0c4.8-4.5,12.4-4.3,17,0.5l0,0
				c4.5,4.8,4.3,12.4-0.5,17l0,0l0,0l0,0c-2.3,2.2-5.3,3.3-8.2,3.3l0,0C2257.9,768.1,2254.7,766.9,2252.3,764.4z M1725.6,760
				c-4.7-4.6-4.8-12.2-0.2-17l0,0c4.6-4.7,12.2-4.8,17-0.2l0,0c4.7,4.6,4.8,12.2,0.2,17l0,0c-2.3,2.4-5.5,3.6-8.6,3.6l0,0
				C1731,763.4,1728,762.3,1725.6,760z M2296.9,717.5c-5.3-4-6.4-11.5-2.4-16.8l0,0c4-5.3,11.5-6.4,16.8-2.4l0,0
				c5.3,4,6.4,11.5,2.4,16.8l0,0c-2.4,3.1-6,4.8-9.6,4.8l0,0C2301.6,719.9,2299.1,719.1,2296.9,717.5z M1682.1,709.5L1682.1,709.5
				L1682.1,709.5c-3.9-5.4-2.7-12.9,2.7-16.8l0,0c5.4-3.9,12.9-2.7,16.8,2.7l0,0c3.9,5.4,2.7,12.9-2.7,16.8l0,0
				c-2.1,1.5-4.6,2.3-7,2.3l0,0C1688.1,714.4,1684.5,712.7,1682.1,709.5z M2332.9,663.7c-5.9-3-8.2-10.3-5.2-16.2l0,0
				c3-5.9,10.2-8.2,16.2-5.2l0,0c5.9,3,8.2,10.2,5.2,16.2l0,0l0,0l0,0c-2.1,4.1-6.3,6.5-10.7,6.5l0,0
				C2336.5,665.1,2334.7,664.6,2332.9,663.7z M1647.8,652.3L1647.8,652.3L1647.8,652.3c-2.9-6-0.5-13.1,5.5-16.1l0,0
				c6-2.9,13.1-0.5,16,5.5l0,0c2.9,5.9,0.5,13.1-5.5,16l0,0c-1.7,0.8-3.5,1.2-5.3,1.2l0,0C1654.1,659,1649.9,656.5,1647.8,652.3z
				 M2359.3,604.6c-6.3-2-9.9-8.7-7.9-15l0,0c2-6.3,8.7-9.9,15-7.9l0,0c6.3,2,9.9,8.7,7.9,15l0,0c-1.6,5.1-6.3,8.4-11.5,8.4l0,0
				C2361.7,605.2,2360.5,605,2359.3,604.6z M1623.7,590.1c-1.9-6.4,1.8-13,8.1-14.9l0,0c6.4-1.9,13,1.8,14.9,8.2l0,0
				c1.9,6.4-1.8,13-8.2,14.9l0,0c-1.1,0.3-2.2,0.5-3.4,0.5l0,0C1630,598.8,1625.2,595.3,1623.7,590.1z M2375.2,542
				c-6.6-0.9-11.2-6.9-10.3-13.5l0,0c0.9-6.6,6.9-11.2,13.5-10.3l0,0c6.6,0.9,11.2,6.9,10.3,13.5l0,0c-0.8,6-6,10.4-11.9,10.4l0,0
				C2376.2,542.1,2375.7,542,2375.2,542z M1610.5,524.7L1610.5,524.7L1610.5,524.7c-0.8-6.6,4-12.5,10.6-13.3l0,0
				c6.6-0.8,12.5,4,13.3,10.6l0,0c0.8,6.6-4,12.5-10.6,13.3l0,0c-0.5,0-0.9,0.1-1.4,0.1l0,0C1616.4,535.4,1611.2,530.9,1610.5,524.7
				z M2367.7,465.9c-0.2-6.6,4.9-12.2,11.5-12.4l0,0c6.6-0.2,12.2,4.9,12.4,11.5l0,0c0.2,6.6-4.9,12.2-11.5,12.4l0,0
				c-0.2,0-0.3,0-0.5,0l0,0C2373.3,477.5,2368,472.4,2367.7,465.9z M1619.9,470.8c-6.6-0.4-11.7-6-11.3-12.6l0,0
				c0.4-6.6,6-11.7,12.6-11.3l0,0c6.6,0.4,11.7,6,11.3,12.6l0,0c-0.4,6.4-5.6,11.3-12,11.3l0,0
				C1620.4,470.8,1620.1,470.8,1619.9,470.8z M2360.1,403.8c-1.4-6.5,2.8-12.9,9.3-14.2l0,0c6.5-1.4,12.8,2.8,14.2,9.3l0,0l0,0l0,0
				c1.4,6.5-2.8,12.9-9.3,14.2l0,0c-0.8,0.2-1.7,0.3-2.5,0.3l0,0C2366.3,413.3,2361.3,409.5,2360.1,403.8z M1626.9,406.5
				c-6.4-1.5-10.5-7.9-9-14.4l0,0c1.5-6.5,7.9-10.5,14.4-9l0,0c6.5,1.5,10.5,7.9,9,14.4l0,0c-1.3,5.6-6.2,9.3-11.7,9.3l0,0
				C1628.7,406.8,1627.8,406.7,1626.9,406.5z M2342,343.9c-2.5-6.2,0.5-13.1,6.7-15.6l0,0c6.2-2.5,13.1,0.5,15.6,6.7l0,0
				c2.5,6.2-0.5,13.1-6.7,15.6l0,0c-1.5,0.6-3,0.9-4.4,0.9l0,0C2348.4,351.5,2343.9,348.6,2342,343.9z M1644.8,344.3
				c-6.1-2.6-9-9.6-6.4-15.7l0,0l0,0l0,0c2.6-6.1,9.6-9,15.7-6.4l0,0c6.1,2.6,9,9.6,6.4,15.7l0,0c-1.9,4.6-6.4,7.4-11.1,7.4l0,0
				C1647.8,345.2,1646.3,344.9,1644.8,344.3z M2314,288L2314,288c-3.5-5.6-1.7-13,4-16.5l0,0c5.7-3.5,13-1.7,16.5,4l0,0
				c3.5,5.6,1.7,13-4,16.5l0,0c-1.9,1.2-4.1,1.8-6.3,1.8l0,0C2320.2,293.7,2316.2,291.7,2314,288z M1672.9,286
				c-5.6-3.6-7.2-11-3.7-16.6l0,0l0,0l0,0c3.6-5.6,11-7.2,16.6-3.7l0,0c5.6,3.6,7.2,11,3.7,16.6l0,0c-2.3,3.6-6.2,5.5-10.1,5.5l0,0
				C1677.2,287.9,1674.9,287.3,1672.9,286z M2276.9,237.6L2276.9,237.6c-4.4-5-3.9-12.6,1.1-16.9l0,0c5-4.4,12.6-3.9,16.9,1.1l0,0
				c4.4,5,3.9,12.6-1.1,16.9l0,0c-2.3,2-5.1,3-7.9,3l0,0C2282.5,241.6,2279.2,240.3,2276.9,237.6z M1710.6,233.4
				c-4.9-4.5-5.3-12-0.8-17l0,0c4.5-4.9,12-5.3,17-0.8l0,0c4.9,4.5,5.3,12,0.8,17l0,0c-2.4,2.6-5.6,3.9-8.9,3.9l0,0
				C1715.8,236.6,1712.9,235.5,1710.6,233.4z M2231.8,194.1c-5.2-4.2-5.9-11.7-1.8-16.9l0,0c4.2-5.1,11.7-5.9,16.9-1.8l0,0
				c5.1,4.2,5.9,11.7,1.8,16.9l0,0c-2.4,2.9-5.8,4.4-9.3,4.4l0,0C2236.6,196.8,2234,195.9,2231.8,194.1z M1756.6,187.9
				c-4.1-5.2-3.2-12.8,2-16.8l0,0c5.2-4.1,12.8-3.2,16.9,2l0,0c4.1,5.2,3.2,12.8-2,16.9l0,0c-2.2,1.7-4.8,2.6-7.4,2.6l0,0
				C1762.5,192.6,1758.9,191,1756.6,187.9z M2180,158.9c-5.8-3.2-7.8-10.6-4.6-16.3l0,0c3.2-5.8,10.6-7.8,16.3-4.6l0,0
				c5.8,3.2,7.8,10.6,4.6,16.3l0,0c-2.2,3.9-6.3,6.1-10.5,6.1l0,0C2183.8,160.5,2181.8,160,2180,158.9z M1809.5,150.9
				c-3.1-5.8-1-13.1,4.9-16.3l0,0l0,0l0,0c5.8-3.1,13.1-0.9,16.2,4.9l0,0c3.1,5.8,1,13.1-4.9,16.3l0,0c-1.8,1-3.8,1.4-5.7,1.4l0,0
				C1815.8,157.2,1811.7,154.9,1809.5,150.9z M2122.9,133c-6.2-2.2-9.5-9.1-7.3-15.3l0,0c2.2-6.2,9.1-9.5,15.3-7.3l0,0l0,0l0,0
				c6.2,2.2,9.5,9.1,7.3,15.3l0,0c-1.8,4.9-6.4,8-11.3,8l0,0C2125.6,133.7,2124.3,133.5,2122.9,133z M1868,123.3
				c-2.1-6.3,1.3-13.1,7.6-15.2l0,0l0,0l0,0c6.3-2.1,13.1,1.3,15.2,7.6l0,0c2.1,6.3-1.3,13.1-7.6,15.2l0,0c-1.3,0.4-2.5,0.6-3.8,0.6
				l0,0C1874.4,131.5,1869.7,128.4,1868,123.3z M2062.4,117.3c-6.5-1.1-10.9-7.3-9.8-13.8l0,0c1.1-6.5,7.3-10.9,13.8-9.8l0,0l0,0
				l0,0c6.5,1.1,10.9,7.3,9.8,13.9l0,0c-1,5.8-6.1,10-11.8,10l0,0C2063.8,117.4,2063.1,117.4,2062.4,117.3z M1930.4,106.2
				c-1-6.6,3.5-12.7,10-13.7l0,0c6.6-1,12.7,3.5,13.7,10l0,0c1,6.5-3.5,12.7-10.1,13.7l0,0c-0.6,0.1-1.2,0.1-1.8,0.1l0,0
				C1936.4,116.4,1931.3,112.1,1930.4,106.2z M1988,100c0-6.6,5.4-12,12-12l0,0c6.6,0,12,5.4,12,12l0,0c0,6.6-5.4,12-12,12l0,0
				C1993.4,112,1988,106.6,1988,100z"/>
		</g>
	</g>
</g>
<g id="surface1_7_">
	<circle display="none" fill="#FFFFFF" cx="1200" cy="480" r="400"/>
	<g display="none">
		
			<circle display="inline" fill="none" stroke="#FF3B30" stroke-width="24" stroke-linecap="round" stroke-linejoin="round" stroke-dasharray="0,64.7384" cx="1200" cy="480" r="380"/>
	</g>
	<g>
		<g>
			<path fill="#F2F4FF" d="M1217,859.8c-0.5-6.6,4.5-12.4,11.1-12.9l0,0c6.6-0.5,12.4,4.5,12.9,11.1l0,0c0.5,6.6-4.5,12.4-11.1,12.9
				l0,0l0,0l0,0c-0.3,0-0.6,0-0.9,0l0,0C1222.7,870.9,1217.5,866.1,1217,859.8z M1163.2,870.3L1163.2,870.3L1163.2,870.3
				c-6.6-0.6-11.4-6.5-10.8-13.1l0,0c0.6-6.6,6.5-11.5,13.1-10.8l0,0c6.6,0.6,11.5,6.5,10.8,13.1l0,0c-0.6,6.2-5.8,10.9-11.9,10.9
				l0,0C1164,870.3,1163.6,870.3,1163.2,870.3z M1281.1,851.5c-1.6-6.4,2.3-12.9,8.7-14.6l0,0c6.4-1.6,13,2.3,14.6,8.7l0,0
				c1.6,6.4-2.3,13-8.7,14.6l0,0l0,0l0,0c-1,0.2-2,0.4-2.9,0.4l0,0C1287.4,860.6,1282.5,857,1281.1,851.5z M1097.6,858.5
				L1097.6,858.5L1097.6,858.5c-6.4-1.7-10.2-8.3-8.5-14.7l0,0c1.7-6.4,8.3-10.2,14.7-8.5l0,0c6.4,1.7,10.2,8.3,8.5,14.7l0,0
				c-1.5,5.3-6.3,8.9-11.6,8.9l0,0C1099.7,858.9,1098.6,858.8,1097.6,858.5z M1342.9,832.4c-2.7-6.1,0-13.2,6.1-15.8l0,0
				c6.1-2.7,13.1,0.1,15.8,6.1l0,0c2.7,6.1-0.1,13.2-6.1,15.8l0,0c-1.6,0.7-3.2,1-4.9,1l0,0C1349.3,839.5,1344.9,836.9,1342.9,832.4
				z M1034.9,835.6c-6-2.8-8.6-9.9-5.8-15.9l0,0c2.8-6,9.9-8.6,15.9-5.8l0,0c6,2.8,8.6,9.9,5.8,15.9l0,0c-2,4.4-6.4,6.9-10.9,6.9
				l0,0C1038.3,836.8,1036.5,836.4,1034.9,835.6z M1400.5,803.1c-3.7-5.5-2.2-13,3.3-16.6l0,0c5.5-3.7,13-2.2,16.7,3.3l0,0
				c3.7,5.5,2.2,13-3.3,16.6l0,0l0,0l0,0c-2,1.4-4.4,2-6.6,2l0,0C1406.6,808.4,1402.8,806.5,1400.5,803.1z M977,802.5
				c-5.5-3.8-6.8-11.2-3-16.7l0,0c3.8-5.5,11.2-6.8,16.7-3l0,0c5.5,3.8,6.8,11.2,3,16.7l0,0c-2.3,3.4-6.1,5.2-9.9,5.2l0,0
				C981.5,804.6,979.1,803.9,977,802.5z M1452.3,764.4c-4.5-4.8-4.3-12.4,0.5-17l0,0c4.8-4.5,12.4-4.3,17,0.5l0,0
				c4.5,4.8,4.3,12.4-0.5,17l0,0l0,0l0,0c-2.3,2.2-5.3,3.3-8.2,3.3l0,0C1457.9,768.1,1454.7,766.9,1452.3,764.4z M925.6,760
				c-4.7-4.6-4.8-12.2-0.2-17l0,0c4.6-4.7,12.2-4.8,17-0.2l0,0c4.7,4.6,4.8,12.2,0.2,17l0,0c-2.3,2.4-5.5,3.6-8.6,3.6l0,0
				C931,763.4,928,762.3,925.6,760z M1496.9,717.5c-5.3-4-6.4-11.5-2.4-16.8l0,0c4-5.3,11.5-6.4,16.8-2.4l0,0
				c5.3,4,6.4,11.5,2.4,16.8l0,0c-2.4,3.1-6,4.8-9.6,4.8l0,0C1501.6,719.9,1499.1,719.1,1496.9,717.5z M882.1,709.5L882.1,709.5
				L882.1,709.5c-3.9-5.4-2.7-12.9,2.7-16.8l0,0c5.4-3.9,12.9-2.7,16.8,2.7l0,0c3.9,5.4,2.7,12.9-2.7,16.8l0,0
				c-2.1,1.5-4.6,2.3-7,2.3l0,0C888.1,714.4,884.5,712.7,882.1,709.5z M1532.9,663.7c-5.9-3-8.2-10.3-5.2-16.2l0,0
				c3-5.9,10.2-8.2,16.2-5.2l0,0c5.9,3,8.2,10.2,5.2,16.2l0,0l0,0l0,0c-2.1,4.1-6.3,6.5-10.7,6.5l0,0
				C1536.5,665.1,1534.7,664.6,1532.9,663.7z M847.8,652.3L847.8,652.3L847.8,652.3c-2.9-6-0.5-13.1,5.5-16.1l0,0
				c6-2.9,13.1-0.5,16,5.5l0,0c2.9,5.9,0.5,13.1-5.5,16l0,0c-1.7,0.8-3.5,1.2-5.3,1.2l0,0C854.1,659,849.9,656.5,847.8,652.3z
				 M1559.3,604.6c-6.3-2-9.9-8.7-7.9-15l0,0c2-6.3,8.7-9.9,15-7.9l0,0c6.3,2,9.9,8.7,7.9,15l0,0c-1.6,5.1-6.3,8.4-11.5,8.4l0,0
				C1561.7,605.2,1560.5,605,1559.3,604.6z M823.7,590.1c-1.9-6.4,1.8-13,8.1-14.9l0,0c6.4-1.9,13,1.8,14.9,8.2l0,0
				c1.9,6.4-1.8,13-8.2,14.9l0,0c-1.1,0.3-2.2,0.5-3.4,0.5l0,0C830,598.8,825.2,595.3,823.7,590.1z M1575.2,542
				c-6.6-0.9-11.2-6.9-10.3-13.5l0,0c0.9-6.6,6.9-11.2,13.5-10.3l0,0c6.6,0.9,11.2,6.9,10.3,13.5l0,0c-0.8,6-6,10.4-11.9,10.4l0,0
				C1576.2,542.1,1575.7,542,1575.2,542z M810.5,524.7L810.5,524.7L810.5,524.7c-0.8-6.6,4-12.5,10.6-13.3l0,0
				c6.6-0.8,12.5,4,13.3,10.6l0,0c0.8,6.6-4,12.5-10.6,13.3l0,0c-0.5,0-0.9,0.1-1.4,0.1l0,0C816.4,535.4,811.2,530.9,810.5,524.7z
				 M1567.7,465.9c-0.2-6.6,4.9-12.2,11.5-12.4l0,0c6.6-0.2,12.2,4.9,12.4,11.5l0,0c0.2,6.6-4.9,12.2-11.5,12.4l0,0
				c-0.2,0-0.3,0-0.5,0l0,0C1573.3,477.5,1568,472.4,1567.7,465.9z M819.9,470.8c-6.6-0.4-11.7-6-11.3-12.6l0,0
				c0.4-6.6,6-11.7,12.6-11.3l0,0c6.6,0.4,11.7,6,11.3,12.6l0,0c-0.4,6.4-5.6,11.3-12,11.3l0,0C820.4,470.8,820.1,470.8,819.9,470.8
				z M1560.1,403.8c-1.4-6.5,2.8-12.9,9.3-14.2l0,0c6.5-1.4,12.8,2.8,14.2,9.3l0,0l0,0l0,0c1.4,6.5-2.8,12.9-9.3,14.2l0,0
				c-0.8,0.2-1.7,0.3-2.5,0.3l0,0C1566.3,413.3,1561.3,409.5,1560.1,403.8z M826.9,406.5c-6.4-1.5-10.5-7.9-9-14.4l0,0
				c1.5-6.5,7.9-10.5,14.4-9l0,0c6.5,1.5,10.5,7.9,9,14.4l0,0c-1.3,5.6-6.2,9.3-11.7,9.3l0,0C828.7,406.8,827.8,406.7,826.9,406.5z
				 M1542,343.9c-2.5-6.2,0.5-13.1,6.7-15.6l0,0c6.2-2.5,13.1,0.5,15.6,6.7l0,0c2.5,6.2-0.5,13.1-6.7,15.6l0,0
				c-1.5,0.6-3,0.9-4.4,0.9l0,0C1548.4,351.5,1543.9,348.6,1542,343.9z M844.8,344.3c-6.1-2.6-9-9.6-6.4-15.7l0,0l0,0l0,0
				c2.6-6.1,9.6-9,15.7-6.4l0,0c6.1,2.6,9,9.6,6.4,15.7l0,0c-1.9,4.6-6.4,7.4-11.1,7.4l0,0C847.8,345.2,846.3,344.9,844.8,344.3z
				 M1514,288L1514,288c-3.5-5.6-1.7-13,4-16.5l0,0c5.7-3.5,13-1.7,16.5,4l0,0c3.5,5.6,1.7,13-4,16.5l0,0c-1.9,1.2-4.1,1.8-6.3,1.8
				l0,0C1520.2,293.7,1516.2,291.7,1514,288z M872.9,286c-5.6-3.6-7.2-11-3.7-16.6l0,0l0,0l0,0c3.6-5.6,11-7.2,16.6-3.7l0,0
				c5.6,3.6,7.2,11,3.7,16.6l0,0c-2.3,3.6-6.2,5.5-10.1,5.5l0,0C877.2,287.9,874.9,287.3,872.9,286z M1476.9,237.6L1476.9,237.6
				c-4.4-5-3.9-12.6,1.1-16.9l0,0c5-4.4,12.6-3.9,16.9,1.1l0,0c4.4,5,3.9,12.6-1.1,16.9l0,0c-2.3,2-5.1,3-7.9,3l0,0
				C1482.5,241.6,1479.2,240.3,1476.9,237.6z M910.6,233.4c-4.9-4.5-5.3-12-0.8-17l0,0c4.5-4.9,12-5.3,17-0.8l0,0
				c4.9,4.5,5.3,12,0.8,17l0,0c-2.4,2.6-5.6,3.9-8.9,3.9l0,0C915.8,236.6,912.9,235.5,910.6,233.4z M1431.8,194.1
				c-5.2-4.2-5.9-11.7-1.8-16.9l0,0c4.2-5.1,11.7-5.9,16.9-1.8l0,0c5.1,4.2,5.9,11.7,1.8,16.9l0,0c-2.4,2.9-5.8,4.4-9.3,4.4l0,0
				C1436.6,196.8,1434,195.9,1431.8,194.1z M956.6,187.9c-4.1-5.2-3.2-12.8,2-16.8l0,0c5.2-4.1,12.8-3.2,16.9,2l0,0
				c4.1,5.2,3.2,12.8-2,16.9l0,0c-2.2,1.7-4.8,2.6-7.4,2.6l0,0C962.5,192.6,958.9,191,956.6,187.9z M1380,158.9
				c-5.8-3.2-7.8-10.6-4.6-16.3l0,0c3.2-5.8,10.6-7.8,16.3-4.6l0,0c5.8,3.2,7.8,10.6,4.6,16.3l0,0c-2.2,3.9-6.3,6.1-10.5,6.1l0,0
				C1383.8,160.5,1381.8,160,1380,158.9z M1009.5,150.9c-3.1-5.8-1-13.1,4.9-16.3l0,0l0,0l0,0c5.8-3.1,13.1-0.9,16.2,4.9l0,0
				c3.1,5.8,1,13.1-4.9,16.3l0,0c-1.8,1-3.8,1.4-5.7,1.4l0,0C1015.8,157.2,1011.7,154.9,1009.5,150.9z M1322.9,133
				c-6.2-2.2-9.5-9.1-7.3-15.3l0,0c2.2-6.2,9.1-9.5,15.3-7.3l0,0l0,0l0,0c6.2,2.2,9.5,9.1,7.3,15.3l0,0c-1.8,4.9-6.4,8-11.3,8l0,0
				C1325.6,133.7,1324.3,133.5,1322.9,133z M1068,123.3c-2.1-6.3,1.3-13.1,7.6-15.2l0,0l0,0l0,0c6.3-2.1,13.1,1.3,15.2,7.6l0,0
				c2.1,6.3-1.3,13.1-7.6,15.2l0,0c-1.3,0.4-2.5,0.6-3.8,0.6l0,0C1074.4,131.5,1069.7,128.4,1068,123.3z M1262.4,117.3
				c-6.5-1.1-10.9-7.3-9.8-13.8l0,0c1.1-6.5,7.3-10.9,13.8-9.8l0,0l0,0l0,0c6.5,1.1,10.9,7.3,9.8,13.9l0,0c-1,5.8-6.1,10-11.8,10
				l0,0C1263.8,117.4,1263.1,117.4,1262.4,117.3z M1130.4,106.2c-1-6.6,3.5-12.7,10-13.7l0,0c6.6-1,12.7,3.5,13.7,10l0,0
				c1,6.5-3.5,12.7-10.1,13.7l0,0c-0.6,0.1-1.2,0.1-1.8,0.1l0,0C1136.4,116.4,1131.3,112.1,1130.4,106.2z M1188,100
				c0-6.6,5.4-12,12-12l0,0c6.6,0,12,5.4,12,12l0,0c0,6.6-5.4,12-12,12l0,0C1193.4,112,1188,106.6,1188,100z"/>
		</g>
	</g>
</g>
<g id="surface1_10_">
	<circle fill="#5E6076" cx="2560" cy="720" r="240"/>
	<circle fill="#DDEAF7" cx="2560" cy="720" r="195"/>
	<path fill="#5E6076" d="M2455,720l105-165l105,165l-105,60L2455,720z"/>
	<path fill="#5E6076" d="M2560,555l105,165l-105,60V555z"/>
	<path fill="#5E6076" d="M2455,742.5l105,60l105-60L2560,885L2455,742.5z"/>
	<path fill="#5E6076" d="M2560,802.5l105-60L2560,885V802.5z"/>
	<path fill="#5E6076" d="M2455,720l105-45l105,45l-105,60L2455,720z"/>
	<path fill="#5E6076" d="M2560,675l105,45l-105,60V675z"/>
</g>
<g id="surface1_11_">
	<circle fill="#5E6076" cx="2560" cy="240" r="240"/>
	<circle fill="#DDEAF7" cx="2560" cy="240" r="195"/>
	<path fill="#5E6076" d="M2455,240l105-165l105,165l-105,60L2455,240z"/>
	<path fill="#5E6076" d="M2560,75l105,165l-105,60V75z"/>
	<path fill="#5E6076" d="M2455,262.5l105,60l105-60L2560,405L2455,262.5z"/>
	<path fill="#5E6076" d="M2560,322.5l105-60L2560,405V322.5z"/>
	<path fill="#5E6076" d="M2455,240l105-45l105,45l-105,60L2455,240z"/>
	<path fill="#5E6076" d="M2560,195l105,45l-105,60V195z"/>
</g>
<g id="surface1_8_">
	<circle fill="#5E6076" cx="640" cy="720" r="240"/>
	<circle fill="#DDEAF7" cx="640" cy="720" r="195"/>
	<path fill="#5E6076" d="M535,720l105-165l105,165l-105,60L535,720z"/>
	<path fill="#5E6076" d="M640,555l105,165l-105,60V555z"/>
	<path fill="#5E6076" d="M535,742.5l105,60l105-60L640,885L535,742.5z"/>
	<path fill="#5E6076" d="M640,802.5l105-60L640,885V802.5z"/>
	<path fill="#5E6076" d="M535,720l105-45l105,45l-105,60L535,720z"/>
	<path fill="#5E6076" d="M640,675l105,45l-105,60V675z"/>
</g>
<g id="surface1_6_">
	<circle fill="#5E6076" cx="640" cy="240" r="240"/>
	<circle fill="#DDEAF7" cx="640" cy="240" r="195"/>
	<path fill="#5E6076" d="M535,240L640,75l105,165l-105,60L535,240z"/>
	<path fill="#5E6076" d="M640,75l105,165l-105,60V75z"/>
	<path fill="#5E6076" d="M535,262.5l105,60l105-60L640,405L535,262.5z"/>
	<path fill="#5E6076" d="M640,322.5l105-60L640,405V322.5z"/>
	<path fill="#5E6076" d="M535,240l105-45l105,45l-105,60L535,240z"/>
	<path fill="#5E6076" d="M640,195l105,45l-105,60V195z"/>
</g>
<g>
	<path opacity="0.1" enable-background="new    " d="M640,480c-51.1,0-98.4,16-137.3,43.1C523.9,690.5,666.8,820,840,820
		c6.2,0,12.3-0.2,18.5-0.5c13.8-30.3,21.5-64,21.5-99.5C880,587.5,772.5,480,640,480z"/>
	<path opacity="0.1" enable-background="new    " d="M2360,140c-6.2,0-12.3,0.2-18.5,0.5c-13.8,30.3-21.5,64-21.5,99.5
		c0,132.5,107.5,240,240,240c51.1,0,98.4-16,137.3-43.1C2676.1,269.5,2533.2,140,2360,140z"/>
	<path opacity="0.1" enable-background="new    " d="M502.7,436.9C541.6,464,588.9,480,640,480c132.5,0,240-107.5,240-240
		c0-35.5-7.7-69.2-21.5-99.5c-6.1-0.3-12.3-0.5-18.5-0.5C666.8,140,523.9,269.5,502.7,436.9z"/>
	<path opacity="0.1" enable-background="new    " d="M2697.3,523.1C2658.4,496,2611.1,480,2560,480c-132.5,0-240,107.5-240,240
		c0,35.5,7.7,69.2,21.5,99.5c6.1,0.3,12.3,0.5,18.5,0.5C2533.2,820,2676.1,690.5,2697.3,523.1z"/>
</g>
<g id="surface1_1_">
	<circle fill="#8F96C5" cx="2360" cy="480" r="280"/>
	<circle fill="#DDEAF7" cx="2360" cy="480" r="227.5"/>
	<path fill="#8F96C5" d="M2237.5,480L2360,287.5L2482.5,480L2360,550L2237.5,480z"/>
	<path fill="#8F96C5" d="M2360,287.5L2482.5,480L2360,550V287.5z"/>
	<path fill="#8F96C5" d="M2237.5,506.2l122.5,70l122.5-70L2360,672.5L2237.5,506.2z"/>
	<path fill="#8F96C5" d="M2360,576.2l122.5-70L2360,672.5V576.2z"/>
	<path fill="#8F96C5" d="M2237.5,480l122.5-52.5l122.5,52.5L2360,550L2237.5,480z"/>
	<path fill="#8F96C5" d="M2360,427.5l122.5,52.5L2360,550V427.5z"/>
</g>
<g id="surface1_12_">
	<circle fill="#8F96C5" cx="840" cy="480" r="280"/>
	<circle fill="#DDEAF7" cx="840" cy="480" r="227.5"/>
	<path fill="#8F96C5" d="M717.5,480L840,287.5L962.5,480L840,550L717.5,480z"/>
	<path fill="#8F96C5" d="M840,287.5L962.5,480L840,550V287.5z"/>
	<path fill="#8F96C5" d="M717.5,506.2l122.5,70l122.5-70L840,672.5L717.5,506.2z"/>
	<path fill="#8F96C5" d="M840,576.2l122.5-70L840,672.5V576.2z"/>
	<path fill="#8F96C5" d="M717.5,480L840,427.5L962.5,480L840,550L717.5,480z"/>
	<path fill="#8F96C5" d="M840,427.5L962.5,480L840,550V427.5z"/>
</g>
<g>
	<path opacity="0.1" enable-background="new    " d="M2271.6,214.3c-111.3,37-191.6,142-191.6,265.7s80.3,228.7,191.6,265.7
		C2338.7,677.2,2380,583.4,2380,480S2338.7,282.8,2271.6,214.3z"/>
	<path opacity="0.1" enable-background="new    " d="M928.4,214.3C861.3,282.8,820,376.6,820,480s41.3,197.2,108.4,265.7
		c111.3-37,191.6-141.9,191.6-265.7S1039.7,251.3,928.4,214.3z"/>
</g>
<g id="surface1_5_">
	<circle fill="#5E6076" cx="2000" cy="480" r="320"/>
	<circle fill="#DDEAF7" cx="2000" cy="480" r="260"/>
	<path fill="#5E6076" d="M1860,480l140-220l140,220l-140,80L1860,480z"/>
	<path fill="#5E6076" d="M2000,260l140,220l-140,80V260z"/>
	<path fill="#5E6076" d="M1860,510l140,80l140-80l-140,190L1860,510z"/>
	<path fill="#5E6076" d="M2000,590l140-80l-140,190V590z"/>
	<path fill="#5E6076" d="M1860,480l140-60l140,60l-140,80L1860,480z"/>
	<path fill="#5E6076" d="M2000,420l140,60l-140,80V420z"/>
</g>
<g id="surface1">
	<circle fill="#5E6076" cx="1200" cy="480" r="320"/>
	<circle fill="#DDEAF7" cx="1200" cy="480" r="260"/>
	<path fill="#5E6076" d="M1060,480l140-220l140,220l-140,80L1060,480z"/>
	<path fill="#5E6076" d="M1200,260l140,220l-140,80V260z"/>
	<path fill="#5E6076" d="M1060,510l140,80l140-80l-140,190L1060,510z"/>
	<path fill="#5E6076" d="M1200,590l140-80l-140,190V590z"/>
	<path fill="#5E6076" d="M1060,480l140-60l140,60l-140,80L1060,480z"/>
	<path fill="#5E6076" d="M1200,420l140,60l-140,80V420z"/>
</g>
<g>
	<path opacity="0.1" enable-background="new    " d="M1307.6,178.5C1228.9,254.9,1180,361.7,1180,480s48.9,225.1,127.6,301.5
		C1431.4,737.3,1520,619,1520,480S1431.4,222.7,1307.6,178.5z"/>
	<path opacity="0.1" enable-background="new    " d="M1892.4,178.5C1768.6,222.7,1680,341,1680,480s88.6,257.3,212.4,301.5
		C1971.1,705.1,2020,598.3,2020,480S1971.1,254.9,1892.4,178.5z"/>
</g>
<g display="none">
	<circle display="inline" fill="#8E95C5" cx="1600" cy="480" r="360"/>
	<g display="inline">
		<g>
			<path fill="#F2F4FF" d="M1464,383.6h-19.3v-74.3l-23,7.1v-15.7l40.2-14.4h2.1L1464,383.6L1464,383.6z"/>
			<path fill="#F2F4FF" d="M1594.9,343.4c0,7.3-0.8,13.6-2.4,18.8s-3.8,9.5-6.7,13c-2.8,3.3-6.3,5.9-10.3,7.4
				c-4.1,1.6-8.5,2.4-13.4,2.4s-9.3-0.8-13.4-2.4c-4.1-1.6-7.5-4.1-10.3-7.4c-2.9-3.3-5.1-7.7-6.7-13s-2.4-11.5-2.4-18.8v-16.9
				c0-7.3,0.8-13.6,2.4-18.8s3.8-9.5,6.7-12.9c2.9-3.3,6.4-5.9,10.3-7.4c4-1.6,8.5-2.4,13.4-2.4s9.3,0.8,13.4,2.4
				c4.1,1.6,7.5,4.1,10.3,7.4c2.9,3.3,5.1,7.6,6.7,12.9c1.6,5.2,2.4,11.5,2.4,18.8V343.4z M1575.6,323.9c0-4.3-0.3-7.9-0.9-10.9
				c-0.6-2.9-1.5-5.3-2.7-7.1c-1.1-1.8-2.6-3.1-4.3-3.9c-1.7-0.8-3.6-1.1-5.7-1.1s-4.1,0.4-5.7,1.1c-1.7,0.8-3,2.1-4.3,3.9
				c-1.1,1.8-2,4.2-2.6,7.1c-0.6,2.9-0.9,6.6-0.9,10.9V346c0,4.4,0.3,8,0.9,11s1.5,5.4,2.7,7.2c1.1,1.9,2.6,3.1,4.3,4
				c1.7,0.8,3.6,1.1,5.7,1.1s4.1-0.4,5.7-1.1c1.7-0.8,3.1-2.1,4.3-4c1.1-1.9,2-4.3,2.6-7.2c0.6-3,0.9-6.7,0.9-11V323.9z"/>
			<path fill="#F2F4FF" d="M1688.8,383.6h-19.3v-74.3l-23,7.1v-15.7l40.2-14.4h2.1L1688.8,383.6L1688.8,383.6z"/>
			<path fill="#F2F4FF" d="M1819.8,343.4c0,7.3-0.8,13.6-2.4,18.8s-3.8,9.5-6.7,13c-2.8,3.3-6.3,5.9-10.3,7.4
				c-4.1,1.6-8.5,2.4-13.4,2.4s-9.3-0.8-13.4-2.4c-4.1-1.6-7.5-4.1-10.3-7.4c-2.9-3.3-5.1-7.7-6.7-13c-1.6-5.2-2.4-11.5-2.4-18.8
				v-16.9c0-7.3,0.8-13.6,2.4-18.8s3.8-9.5,6.7-12.9s6.4-5.9,10.3-7.4c4-1.6,8.5-2.4,13.4-2.4s9.3,0.8,13.4,2.4
				c4.1,1.6,7.5,4.1,10.3,7.4c2.9,3.3,5.1,7.6,6.7,12.9c1.6,5.2,2.4,11.5,2.4,18.8V343.4z M1800.4,323.9c0-4.3-0.3-7.9-0.9-10.9
				c-0.6-2.9-1.5-5.3-2.7-7.1c-1.1-1.8-2.6-3.1-4.3-3.9c-1.7-0.8-3.6-1.1-5.7-1.1s-4.1,0.4-5.7,1.1c-1.7,0.8-3,2.1-4.3,3.9
				c-1.1,1.8-2,4.2-2.6,7.1c-0.6,2.9-0.9,6.6-0.9,10.9V346c0,4.4,0.3,8,0.9,11s1.5,5.4,2.7,7.2c1.1,1.9,2.6,3.1,4.3,4
				c1.7,0.8,3.6,1.1,5.7,1.1s4.1-0.4,5.7-1.1c1.7-0.8,3.1-2.1,4.3-4c1.1-1.9,2-4.3,2.6-7.2c0.6-3,0.9-6.7,0.9-11V323.9z"/>
			<path fill="#F2F4FF" d="M1344.7,383.6h-19.3v-74.3l-23,7.1v-15.7l40.2-14.4h2.1L1344.7,383.6L1344.7,383.6z"/>
		</g>
		<g>
			<path fill="#F2F4FF" d="M1464,673.5h-19.3v-74.3l-23,7.1v-15.7l40.2-14.4h2.1L1464,673.5L1464,673.5z"/>
			<path fill="#F2F4FF" d="M1594.9,633.4c0,7.3-0.8,13.6-2.4,18.8s-3.8,9.5-6.7,13c-2.8,3.3-6.3,5.9-10.3,7.4
				c-4.1,1.6-8.5,2.4-13.4,2.4s-9.3-0.8-13.4-2.4c-4.1-1.6-7.5-4.1-10.3-7.4c-2.9-3.3-5.1-7.7-6.7-13c-1.6-5.2-2.4-11.5-2.4-18.8
				v-16.9c0-7.3,0.8-13.6,2.4-18.8s3.8-9.5,6.7-12.9c2.9-3.3,6.4-5.9,10.3-7.4c4-1.6,8.5-2.4,13.4-2.4s9.3,0.8,13.4,2.4
				c4.1,1.6,7.5,4.1,10.3,7.4c2.9,3.3,5.1,7.6,6.7,12.9s2.4,11.5,2.4,18.8V633.4z M1575.6,613.8c0-4.3-0.3-7.9-0.9-10.9
				c-0.6-2.9-1.5-5.3-2.7-7.1c-1.1-1.8-2.6-3.1-4.3-3.9c-1.7-0.8-3.6-1.1-5.7-1.1s-4.1,0.4-5.7,1.1c-1.7,0.8-3,2.1-4.3,3.9
				c-1.1,1.8-2,4.2-2.6,7.1s-0.9,6.6-0.9,10.9v22.1c0,4.4,0.3,8,0.9,11s1.5,5.4,2.7,7.2c1.1,1.9,2.6,3.1,4.3,4
				c1.7,0.8,3.6,1.1,5.7,1.1s4.1-0.4,5.7-1.1c1.7-0.8,3.1-2.1,4.3-4s2-4.3,2.6-7.2c0.6-3,0.9-6.7,0.9-11V613.8z"/>
			<path fill="#F2F4FF" d="M1688.8,673.5h-19.3v-74.3l-23,7.1v-15.7l40.2-14.4h2.1L1688.8,673.5L1688.8,673.5z"/>
			<path fill="#F2F4FF" d="M1819.8,633.4c0,7.3-0.8,13.6-2.4,18.8s-3.8,9.5-6.7,13c-2.8,3.3-6.3,5.9-10.3,7.4
				c-4.1,1.6-8.5,2.4-13.4,2.4s-9.3-0.8-13.4-2.4c-4.1-1.6-7.5-4.1-10.3-7.4c-2.9-3.3-5.1-7.7-6.7-13c-1.6-5.2-2.4-11.5-2.4-18.8
				v-16.9c0-7.3,0.8-13.6,2.4-18.8s3.8-9.5,6.7-12.9c2.9-3.3,6.4-5.9,10.3-7.4c4-1.6,8.5-2.4,13.4-2.4s9.3,0.8,13.4,2.4
				c4.1,1.6,7.5,4.1,10.3,7.4c2.9,3.3,5.1,7.6,6.7,12.9c1.6,5.2,2.4,11.5,2.4,18.8V633.4z M1800.4,613.8c0-4.3-0.3-7.9-0.9-10.9
				c-0.6-2.9-1.5-5.3-2.7-7.1c-1.1-1.8-2.6-3.1-4.3-3.9c-1.7-0.8-3.6-1.1-5.7-1.1s-4.1,0.4-5.7,1.1c-1.7,0.8-3,2.1-4.3,3.9
				c-1.1,1.8-2,4.2-2.6,7.1s-0.9,6.6-0.9,10.9v22.1c0,4.4,0.3,8,0.9,11s1.5,5.4,2.7,7.2c1.1,1.9,2.6,3.1,4.3,4
				c1.7,0.8,3.6,1.1,5.7,1.1s4.1-0.4,5.7-1.1c1.7-0.8,3.1-2.1,4.3-4c1.1-1.9,2-4.3,2.6-7.2c0.6-3,0.9-6.7,0.9-11V613.8z"/>
		</g>
		<g>
			<path fill="#F2F4FF" d="M1344.7,532h-19.3v-74.3l-23,7.1v-15.7l40.2-14.4h2.1L1344.7,532L1344.7,532z"/>
			<path fill="#F2F4FF" d="M1475.6,491.9c0,7.3-0.8,13.6-2.4,18.8s-3.8,9.5-6.7,13c-2.8,3.3-6.3,5.9-10.3,7.4
				c-4.1,1.6-8.5,2.4-13.4,2.4s-9.3-0.8-13.4-2.4c-4.1-1.6-7.5-4.1-10.3-7.4c-2.9-3.3-5.1-7.7-6.7-13c-1.6-5.2-2.4-11.5-2.4-18.8
				V475c0-7.3,0.8-13.6,2.4-18.8s3.8-9.5,6.7-12.9c2.9-3.3,6.4-5.9,10.3-7.4c4-1.6,8.5-2.4,13.4-2.4s9.3,0.8,13.4,2.4
				c4.1,1.6,7.5,4.1,10.3,7.4c2.9,3.3,5.1,7.6,6.7,12.9c1.6,5.2,2.4,11.5,2.4,18.8V491.9z M1456.4,472.2c0-4.3-0.3-7.9-0.9-10.9
				c-0.6-2.9-1.5-5.3-2.7-7.1c-1.1-1.8-2.6-3.1-4.3-3.9c-1.7-0.8-3.6-1.1-5.7-1.1s-4.1,0.4-5.7,1.1c-1.7,0.8-3,2.1-4.3,3.9
				c-1.1,1.8-2,4.2-2.6,7.1s-0.9,6.6-0.9,10.9v22.1c0,4.4,0.3,8,0.9,11s1.5,5.4,2.7,7.2c1.1,1.9,2.6,3.1,4.3,4
				c1.7,0.8,3.6,1.1,5.7,1.1s4.1-0.4,5.7-1.1c1.7-0.8,3.1-2.1,4.3-4s2-4.3,2.6-7.2c0.6-3,0.9-6.7,0.9-11V472.2z"/>
			<path fill="#F2F4FF" d="M1569.5,532h-19.3v-74.3l-23,7.1v-15.7l40.2-14.4h2.1L1569.5,532L1569.5,532z"/>
			<path fill="#F2F4FF" d="M1700.5,491.9c0,7.3-0.8,13.6-2.4,18.8s-3.8,9.5-6.7,13c-2.8,3.3-6.3,5.9-10.3,7.4
				c-4.1,1.6-8.5,2.4-13.4,2.4s-9.3-0.8-13.4-2.4c-4.1-1.6-7.5-4.1-10.3-7.4c-2.9-3.3-5.1-7.7-6.7-13c-1.6-5.2-2.4-11.5-2.4-18.8
				V475c0-7.3,0.8-13.6,2.4-18.8s3.8-9.5,6.7-12.9c2.9-3.3,6.4-5.9,10.3-7.4c4-1.6,8.5-2.4,13.4-2.4s9.3,0.8,13.4,2.4
				c4.1,1.6,7.5,4.1,10.3,7.4c2.9,3.3,5.1,7.6,6.7,12.9c1.6,5.2,2.4,11.5,2.4,18.8V491.9z M1681.1,472.2c0-4.3-0.3-7.9-0.9-10.9
				c-0.6-2.9-1.5-5.3-2.7-7.1c-1.1-1.8-2.6-3.1-4.3-3.9c-1.7-0.8-3.6-1.1-5.7-1.1s-4.1,0.4-5.7,1.1c-1.7,0.8-3,2.1-4.3,3.9
				c-1.1,1.8-2,4.2-2.6,7.1s-0.9,6.6-0.9,10.9v22.1c0,4.4,0.3,8,0.9,11s1.5,5.4,2.7,7.2c1.1,1.9,2.6,3.1,4.3,4
				c1.7,0.8,3.6,1.1,5.7,1.1s4.1-0.4,5.7-1.1c1.7-0.8,3.1-2.1,4.3-4c1.1-1.9,2-4.3,2.6-7.2c0.6-3,0.9-6.7,0.9-11V472.2z"/>
			<path fill="#F2F4FF" d="M1794.3,532H1775v-74.3l-23,7.1v-15.7l40.2-14.4h2.1L1794.3,532L1794.3,532z"/>
			<path fill="#F2F4FF" d="M1897.6,532h-19.3v-74.3l-23,7.1v-15.7l40.2-14.4h2.1L1897.6,532L1897.6,532z"/>
		</g>
	</g>
	<g display="inline">
		<path fill="#3E4149" d="M1743.9,697.7l-145.8-145.8l53.3-53.3l145.8,145.8c14.7,14.7,14.7,38.6,0,53.3l0,0
			C1782.6,712.5,1758.7,712.5,1743.9,697.7z"/>
		<path fill="#3E4149" d="M1646.6,316.7c-63.6-63.6-166.7-63.6-230.3,0c-63.6,63.6-63.6,166.7,0,230.3s166.7,63.6,230.3,0
			C1710.2,483.4,1710.2,380.3,1646.6,316.7z M1606.5,506.9c-41.5,41.5-108.7,41.5-150.1,0c-41.5-41.5-41.5-108.7,0-150.1
			c41.5-41.5,108.7-41.5,150.1,0C1647.9,398.2,1647.9,465.5,1606.5,506.9z"/>
	</g>
</g>
<g>
	<circle fill="#3E4149" cx="1600" cy="480" r="360"/>
	<circle display="none" fill="#DDEAF7" cx="1600" cy="480" r="300"/>
	<g>
		<path display="none" fill="#DDEAF7" d="M1381.5,224c25.5-20.7,57.1-32,90.5-32h91h36.5h128c33.4,0,64.9,11.3,90.5,32h438
			c-102.4-262.2-357.5-448-656-448S1046.4-38.2,944,224H1381.5z"/>
		<path display="none" fill="#DDEAF7" d="M1772.8,736c-10.7,7.5-23.4,11.5-36.7,11.5c-1.4,0-2.8,0-4.1-0.1
			c1.1,17.7-5.1,35.8-18.6,49.3c-12.1,12.1-28.1,18.7-45.3,18.7c-17.2,0-33.2-6.6-45.3-18.7l-22.5-22.6l-22.6,22.6
			c-12.5,12.5-28.9,18.7-45.3,18.7s-32.8-6.3-45.2-18.7c-13.5-13.5-19.7-31.6-18.6-49.3c-1.4,0-2.7,0.1-4.1,0.1
			c-12.9,0-25.7-3.8-36.7-11.5H944c102.4,262.2,357.5,448,656,448s553.6-185.8,656-448H1772.8z"/>
		<path fill="#F2F4FF" d="M1513.2,551.5c3.6,0,7.1-1.4,9.7-4l28.9-28.9c2.6-2.6,4-6,4-9.6s-1.4-7.1-4-9.6c-5.3-5.3-14-5.3-19.3,0
			l-28.9,28.9c-5.3,5.3-5.3,14,0,19.3C1506.2,550.1,1509.6,551.5,1513.2,551.5z"/>
		<path fill="#F2F4FF" d="M1580.7,605.4l14-14c0.1-0.2,0.3-0.3,0.4-0.5c0.1-0.1,0.3-0.3,0.4-0.4l14.1-14c2.6-2.6,4-6,4-9.6
			c0-3.4-1.2-6.6-3.4-9l-1.2-1.2c-2.5-2.2-5.7-3.4-9-3.4c-3.6,0-7.1,1.4-9.6,4l-28.9,28.9c-5.3,5.3-5.3,14,0,19.3
			C1566.7,610.7,1575.4,610.7,1580.7,605.4z"/>
		<path fill="#F2F4FF" d="M1628.9,609.3c3.6,0,7.1-1.4,9.6-4c5.3-5.3,5.3-14,0-19.3l-12.2-12.2c-1.2,4.6-3.6,8.7-7,12.2l-9.7,9.7
			l9.6,9.6C1621.9,607.9,1625.3,609.3,1628.9,609.3z"/>
		<path fill="#F2F4FF" d="M1551.8,576.4l28.9-28.9c5.3-5.3,5.3-14,0-19.3c-2.6-2.6-6-4-9.6-4s-7.1,1.4-9.6,4l-28.9,28.9
			c-2.6,2.6-4,6-4,9.6s1.4,7.1,4,9.6C1537.8,581.8,1546.5,581.8,1551.8,576.4z"/>
		<path fill="#F2F4FF" d="M1522.9,470.3c-2.6-2.6-6-4-9.6-4s-7.1,1.4-9.6,4l-28.9,28.9c-2.3,2.3-3.7,5.3-4,8.6
			c-0.1,1.5,0,3.1,0.4,4.6c0.6,2.3,1.8,4.4,3.5,6.1c2.6,2.6,6,4,9.7,4c3.6,0,7.1-1.4,9.6-4l28.9-28.9
			C1528.2,484.3,1528.2,475.7,1522.9,470.3z"/>
		<path fill="#F2F4FF" d="M1900,480c0-9.2-0.4-18.3-1.2-27.3h-133.2h-9.6l-13.6-13.6l-54.2-54.2c-9-9-21-14-33.8-14h-54.5h-15.6
			c-12.7,0-24.7,4.9-33.8,14l-13.1,13.1c-3.9,3.9-6,9-6,14.4s2.1,10.6,6,14.4c3.9,3.9,9,6,14.4,6s10.6-2.1,14.4-6l13.2-13.2
			c0.2-0.2,0.3-0.3,0.5-0.5c0.1,0,0.2-0.1,0.3-0.2c0.1-0.1,0.2-0.1,0.3-0.2c0.1,0,0.2-0.1,0.3-0.2c0.1,0,0.2-0.1,0.3-0.2
			c0.1-0.1,0.2-0.1,0.3-0.2c0.1,0,0.2-0.1,0.3-0.1s0.2-0.1,0.3-0.1s0.2-0.1,0.3-0.1c0.1,0,0.2,0,0.3-0.1c0.1,0,0.2,0,0.3-0.1
			c0.1,0,0.3,0,0.4,0s0.2,0,0.3,0c0.2,0,0.5,0,0.7,0h70.1c0.1,0,0.1,0,0.2,0c0.2,0,0.3,0,0.5,0c0.1,0,0.2,0,0.3,0c0.1,0,0.2,0,0.3,0
			s0.2,0,0.3,0.1s0.3,0,0.3,0.1c0.1,0,0.2,0.1,0.3,0.1s0.2,0.1,0.3,0.1s0.2,0.1,0.3,0.1c0.1,0.1,0.2,0.1,0.3,0.2
			c0.1,0,0.2,0.1,0.3,0.2c0.1,0,0.2,0.1,0.3,0.2c0.1,0.1,0.2,0.1,0.3,0.2c0.1,0,0.2,0.1,0.3,0.2c0.1,0.1,0.2,0.2,0.3,0.3
			c0.1,0,0.1,0.1,0.2,0.1l3.5,3.5l72.3,72.3c4.6,4.6,7.4,10.6,7.9,17.1c0,0.2,0,0.4,0,0.6h155.9C1899.6,498.2,1900,489.1,1900,480z"
			/>
		<path fill="#F2F4FF" d="M1725.4,499.3l-72.3-72.3l-1.5-1.5h-64.5l-11.2,11.2c-6.5,6.4-15,10-24.1,10s-17.6-3.5-24.1-10
			c-6.4-6.5-10-15-10-24.1s3.5-17.6,10-24.1l13.2-13.2c1.5-1.5,3.2-3,4.8-4.3h-0.2c-12.7,0-24.7,4.9-33.8,14l-54.2,54.2l-13.6,13.6
			h-9.6h-133c-0.8,9-1.2,18.1-1.2,27.3s0.4,18.2,1.2,27.2H1457c0-0.2,0-0.4,0-0.6c0.5-6.4,3.3-12.5,7.9-17.1l28.9-28.9
			c5.2-5.2,12-8,19.3-8s14.1,2.8,19.3,8c5.8,5.8,8.4,13.5,7.9,21c7.5-0.5,15.3,2.2,21,7.9c5.2,5.2,8,12,8,19.3c0,0.6,0,1.2,0,1.7
			c0.6,0,1.2,0,1.7,0c7.3,0,14.1,2.8,19.3,8c3.7,3.7,6.1,8.2,7.2,12.9c2.4-0.9,5.2-0.4,7.2,1.6l13.6,13.6c0.3,0.3,0.6,0.6,0.9,0.9
			c0.3,0.3,0.6,0.6,0.9,0.9l28,28c5.3,5.3,14,5.3,19.3,0c2.6-2.6,4-6,4-9.6s-1.4-7.1-4-9.6l-43.3-43.3c-2.6-2.6-2.6-7,0-9.6
			s7-2.6,9.6,0l43.4,43.4c2.6,2.6,6,4,9.6,4s7.1-1.4,9.6-4c5.3-5.3,5.3-14,0-19.3l-43.4-43.4c-2.6-2.6-2.6-7,0-9.6s7-2.6,9.6,0
			l43.4,43.4c5.3,5.3,14,5.3,19.3,0c1.7-1.7,2.9-3.8,3.5-6.2c0.4-1.5,0.5-3,0.4-4.6C1729.1,504.6,1727.7,501.6,1725.4,499.3z"/>
	</g>
	<g>
		<path fill="#F2F4FF" d="M1302.8,439.1h135.5l54.5-54.5h-177.3C1309.6,402.1,1305.3,420.3,1302.8,439.1z"/>
		<path fill="#F2F4FF" d="M1884.4,575.5c5.9-17.6,10.2-35.8,12.8-54.6h-157c-1.3,2.7-3.1,5.2-5.2,7.3c-5.3,5.3-12.3,8-19.3,8
			c-0.6,0-1.2,0-1.7,0c0,0.6,0,1.2,0,1.7c0,7.3-2.8,14.1-8,19.3s-12,8-19.3,8c-0.6,0-1.2,0-1.7,0c0,0.6,0,1.2,0,1.7
			c0,3-0.5,5.9-1.4,8.7h200.8V575.5z"/>
		<path fill="#F2F4FF" d="M1484.2,536.2c-7.3,0-14.1-2.8-19.3-8c-2.1-2.1-3.9-4.6-5.2-7.3h-156.9c2.6,18.8,6.9,37,12.7,54.5h200.8
			c-0.9-2.8-1.4-5.7-1.4-8.7c0-0.6,0-1.2,0-1.7c-0.6,0-1.2,0-1.7,0c-7.3,0-14.1-2.8-19.3-8c-5.8-5.8-8.4-13.5-7.9-21
			C1485.4,536.2,1484.8,536.2,1484.2,536.2z"/>
		<path fill="#F2F4FF" d="M1884.5,384.5H1707l54.5,54.5h135.7C1894.7,420.3,1890.4,402.1,1884.5,384.5z"/>
	</g>
	<g>
		<path fill="#F2F4FF" d="M1842,302.7L1842,302.7c-54.6-74.4-142.7-122.7-242-122.7s-187.5,48.3-242,122.7l0,0
			c-15.3,20.8-28,43.7-37.5,68.2h59.6c12.7-25.6,29.7-48.6,50.2-68.2l0,0c44.1-42.2,103.9-68.2,169.8-68.2c20.9,0,41.2,2.6,60.6,7.5
			l-60.6,60.6l167.2,40.8l112.4,27.4C1870,346.4,1857.3,323.6,1842,302.7z"/>
		<path fill="#F2F4FF" d="M1879.5,589.1h-59.6c-12.7,25.6-29.7,48.6-50.2,68.2l0,0c-44.1,42.2-103.9,68.2-169.8,68.2
			c-20.9,0-41.2-2.6-60.6-7.5l60.6-60.6l-167.2-40.8l-112.4-27.4c9.5,24.5,22.2,47.3,37.5,68.2l0,0c54.6,74.4,142.7,122.7,242,122.7
			s187.5-48.3,242-122.7l0,0C1857.3,636.4,1870,613.6,1879.5,589.1z"/>
	</g>
</g>
</svg>
