<?xml version="1.0" encoding="utf-8"?>
<!-- Generator: Adobe Illustrator 21.1.0, SVG Export Plug-In . SVG Version: 6.00 Build 0)  -->
<svg version="1.1" id="Layer_1" xmlns="http://www.w3.org/2000/svg" xmlns:xlink="http://www.w3.org/1999/xlink" x="0px" y="0px"
	 width="2240px" height="1240px" viewBox="0 0 2240 1240" enable-background="new 0 0 2240 1240" xml:space="preserve">
<rect display="none" fill="#2094FA" width="2240" height="1240"/>
<g id="surface1_5_" display="none">
	<circle fill="#FFFFFF" cx="1920" cy="620" r="320"/>
	<g>
		
			<circle display="inline" fill="none" stroke="#FF3B30" stroke-width="24" stroke-linecap="round" stroke-linejoin="round" stroke-dasharray="0,65.0011" cx="1920" cy="620" r="300"/>
	</g>
	<g display="inline">
		<path fill="#5AC8FA" d="M1886.6,930.2L1886.6,930.2L1886.6,930.2c-6.6-0.7-11.4-6.6-10.7-13.2l0,0c0.7-6.6,6.6-11.4,13.2-10.7l0,0
			c6.6,0.7,11.4,6.6,10.7,13.2l0,0c-0.6,6.2-5.9,10.7-11.9,10.7l0,0C1887.5,930.3,1887,930.3,1886.6,930.2z M1940.8,919.5
			c-0.7-6.6,4-12.5,10.6-13.2l0,0c6.6-0.7,12.5,4,13.2,10.6l0,0c0.7,6.6-4.1,12.5-10.6,13.2l0,0c-0.4,0-0.9,0.1-1.3,0.1l0,0
			C1946.7,930.2,1941.5,925.7,1940.8,919.5z M1820.7,915.9c-6.3-2.1-9.7-8.9-7.6-15.2l0,0c2.1-6.3,8.9-9.7,15.2-7.6l0,0
			c6.3,2.1,9.7,8.9,7.6,15.2l0,0c-1.7,5-6.4,8.2-11.4,8.2l0,0C1823.2,916.5,1822,916.3,1820.7,915.9z M2004.7,908.1
			c-2.1-6.3,1.2-13.1,7.5-15.2l0,0c6.3-2.1,13.1,1.2,15.2,7.5l0,0c2.1,6.3-1.2,13.1-7.5,15.2l0,0c-1.3,0.4-2.6,0.6-3.9,0.6l0,0
			C2011.1,916.3,2006.4,913.1,2004.7,908.1z M1759.4,887.6L1759.4,887.6L1759.4,887.6c-5.7-3.4-7.5-10.8-4.1-16.5l0,0
			c3.4-5.7,10.8-7.5,16.5-4.1l0,0c5.7,3.4,7.5,10.8,4.1,16.5l0,0c-2.2,3.8-6.2,5.8-10.3,5.8l0,0
			C1763.5,889.3,1761.4,888.7,1759.4,887.6z M2064.6,883.2c-3.4-5.7-1.6-13,4.1-16.5l0,0c5.7-3.4,13-1.6,16.5,4.1l0,0
			c3.4,5.7,1.6,13-4.1,16.5l0,0l0,0l0,0c-1.9,1.2-4.1,1.7-6.2,1.7l0,0C2070.8,889,2066.9,886.9,2064.6,883.2z M1705.7,846.8
			c-4.8-4.5-5-12.1-0.5-17l0,0c4.6-4.8,12.1-5,17-0.5l0,0c4.8,4.5,5,12.1,0.5,17l0,0c-2.4,2.5-5.5,3.8-8.7,3.8l0,0
			C1711,850,1708,849,1705.7,846.8z M2117.8,845.9c-4.6-4.8-4.4-12.4,0.4-17l0,0c4.8-4.6,12.4-4.4,17,0.4l0,0
			c4.6,4.8,4.4,12.4-0.4,17l0,0l0,0l0,0c-2.3,2.2-5.3,3.3-8.3,3.3l0,0C2123.3,849.6,2120.1,848.4,2117.8,845.9z M1662,795.5
			c-3.7-5.5-2.3-12.9,3.2-16.7l0,0c5.5-3.7,12.9-2.3,16.7,3.2l0,0c3.7,5.5,2.3,12.9-3.2,16.7l0,0c-2.1,1.4-4.4,2.1-6.7,2.1l0,0
			C1668.1,800.7,1664.3,798.9,1662,795.5z M2161.7,798.1c-5.5-3.7-6.9-11.2-3.2-16.7l0,0c3.7-5.5,11.2-6.9,16.7-3.2l0,0
			c5.5,3.7,6.9,11.2,3.2,16.7l0,0c-2.3,3.4-6.1,5.3-9.9,5.3l0,0C2166.1,800.2,2163.8,799.5,2161.7,798.1z M1630.2,735.9
			c-2.5-6.2,0.5-13.1,6.7-15.6l0,0c6.2-2.5,13.1,0.5,15.6,6.7l0,0c2.5,6.2-0.5,13.1-6.7,15.6l0,0c-1.5,0.6-3,0.9-4.5,0.9l0,0
			C1636.6,743.5,1632.1,740.6,1630.2,735.9z M2194.4,742c-6.2-2.5-9.2-9.4-6.7-15.6l0,0c2.4-6.2,9.4-9.2,15.6-6.7l0,0
			c6.2,2.4,9.2,9.4,6.7,15.6l0,0c-1.9,4.7-6.4,7.6-11.1,7.6l0,0C2197.4,742.9,2195.9,742.6,2194.4,742z M1612.1,671
			c-1.1-6.5,3.4-12.7,9.9-13.8l0,0c6.5-1.1,12.7,3.4,13.8,9.9l0,0c1.1,6.5-3.4,12.7-9.9,13.8l0,0c-0.7,0.1-1.3,0.2-2,0.2l0,0
			C1618.2,681,1613.1,676.8,1612.1,671z M2214.2,680.2c-6.5-1.1-11-7.2-9.9-13.8l0,0c1.1-6.5,7.2-11,13.8-9.9l0,0
			c6.5,1.1,11,7.2,9.9,13.8l0,0c-1,5.9-6,10.1-11.8,10.1l0,0C2215.5,680.4,2214.8,680.3,2214.2,680.2z M1619.8,616.2
			c-6.6-0.3-11.7-6-11.4-12.6l0,0c0.3-6.6,6-11.7,12.6-11.4l0,0c6.6,0.3,11.7,6,11.4,12.6l0,0c-0.3,6.4-5.6,11.4-12,11.4l0,0
			C1620.2,616.2,1620,616.2,1619.8,616.2z M2207.6,604.2L2207.6,604.2c-0.4-6.6,4.7-12.3,11.3-12.6l0,0c6.6-0.4,12.3,4.7,12.6,11.3
			l0,0c0.4,6.6-4.7,12.3-11.3,12.6l0,0c-0.2,0-0.4,0-0.7,0l0,0C2213.2,615.6,2207.9,610.6,2207.6,604.2z M1627.5,551.8
			c-6.4-1.8-10.1-8.4-8.4-14.8l0,0c1.8-6.4,8.4-10.2,14.8-8.4l0,0c6.4,1.8,10.1,8.4,8.4,14.8l0,0c-1.5,5.3-6.3,8.8-11.6,8.8l0,0
			C1629.7,552.2,1628.6,552.1,1627.5,551.8z M2197.5,542.8c-1.8-6.4,2-13,8.3-14.8l0,0c6.4-1.8,13,2,14.8,8.4l0,0
			c1.8,6.4-2,13-8.4,14.8l0,0c-1.1,0.3-2.2,0.4-3.2,0.4l0,0C2203.8,551.6,2199,548.1,2197.5,542.8z M1649,490.5
			c-5.9-3.1-8.1-10.4-5-16.2l0,0c3.1-5.9,10.4-8.1,16.2-5l0,0c5.9,3.1,8.1,10.4,5,16.2l0,0c-2.2,4.1-6.3,6.4-10.6,6.4l0,0
			C1652.7,491.9,1650.8,491.5,1649,490.5z M2174.5,485c-3.1-5.9-0.9-13.1,5-16.2l0,0c5.9-3.1,13.1-0.9,16.2,5l0,0l0,0l0,0
			c3.1,5.8,0.9,13.1-5,16.2l0,0c-1.8,1-3.7,1.4-5.6,1.4l0,0C2180.8,491.4,2176.6,489,2174.5,485z M1683.2,435.3
			c-5.1-4.3-5.7-11.8-1.4-16.9l0,0c4.3-5.1,11.9-5.7,16.9-1.4l0,0c5.1,4.3,5.7,11.9,1.4,16.9l0,0c-2.4,2.8-5.8,4.2-9.2,4.2l0,0
			C1688.2,438.2,1685.5,437.3,1683.2,435.3z M2139.5,433.5c-4.3-5.1-3.7-12.6,1.4-16.9l0,0c5.1-4.3,12.6-3.7,16.9,1.4l0,0
			c4.3,5.1,3.7,12.6-1.4,16.9l0,0c-2.2,1.9-5,2.9-7.8,2.9l0,0C2145.2,437.7,2141.8,436.3,2139.5,433.5z M1728.5,388.8
			c-4-5.3-3-12.8,2.2-16.8l0,0c5.3-4,12.8-3,16.8,2.2l0,0c4,5.3,3,12.8-2.2,16.8l0,0c-2.2,1.7-4.7,2.5-7.3,2.5l0,0
			C1734.4,393.5,1730.8,391.9,1728.5,388.8z M2094.2,390.7L2094.2,390.7c-5.3-4-6.3-11.5-2.3-16.8l0,0c4-5.3,11.5-6.3,16.8-2.3l0,0
			l0,0l0,0c5.3,4,6.3,11.5,2.3,16.8l0,0c-2.4,3.1-5.9,4.7-9.6,4.7l0,0C2099,393.1,2096.4,392.3,2094.2,390.7z M1782.6,353
			c-2.8-6-0.2-13.1,5.8-15.9l0,0c6-2.8,13.1-0.2,15.9,5.8l0,0c2.8,6,0.2,13.1-5.8,15.9l0,0c-1.6,0.8-3.4,1.1-5.1,1.1l0,0
			C1788.9,359.9,1784.6,357.3,1782.6,353z M2040.9,358.5L2040.9,358.5c-6-2.8-8.6-9.9-5.8-15.9l0,0c2.8-6,9.9-8.6,15.9-5.8l0,0l0,0
			l0,0c6,2.8,8.6,9.9,5.8,15.9l0,0c-2,4.4-6.4,7-10.9,7l0,0C2044.3,359.6,2042.5,359.3,2040.9,358.5z M1843.2,329.7
			c-1.4-6.5,2.7-12.9,9.1-14.3l0,0c6.5-1.4,12.9,2.7,14.3,9.1l0,0c1.4,6.5-2.6,12.9-9.1,14.3l0,0c-0.9,0.2-1.8,0.3-2.6,0.3l0,0
			C1849.4,339.1,1844.4,335.3,1843.2,329.7z M1981.9,338.7c-6.5-1.4-10.6-7.8-9.1-14.3l0,0c1.4-6.5,7.8-10.6,14.3-9.2l0,0
			c6.5,1.4,10.6,7.8,9.2,14.3l0,0c-1.2,5.6-6.2,9.4-11.7,9.4l0,0C1983.6,338.9,1982.8,338.9,1981.9,338.7z M1907.3,320
			c0-6.6,5.4-12,12-12l0,0c0.1,0,0.2,0,0.4,0l0,0c0.1,0,0.2,0,0.3,0l0,0c6.6,0,12,5.4,12,12l0,0c0,6.6-5.4,12-12,12l0,0
			c-0.1,0-0.2,0-0.3,0l0,0c-0.1,0-0.2,0-0.3,0l0,0l0,0l0,0C1912.7,332,1907.3,326.6,1907.3,320z"/>
	</g>
</g>
<g id="surface1_6_" display="none">
	<circle fill="#FFFFFF" cx="560" cy="620" r="320"/>
	<g>
		
			<circle display="inline" fill="none" stroke="#FF3B30" stroke-width="24" stroke-linecap="round" stroke-linejoin="round" stroke-dasharray="0,65.0011" cx="560" cy="620" r="300"/>
	</g>
	<g display="inline">
		<path fill="#5AC8FA" d="M526.6,930.2L526.6,930.2L526.6,930.2c-6.6-0.7-11.4-6.6-10.7-13.2l0,0c0.7-6.6,6.6-11.4,13.2-10.7l0,0
			c6.6,0.7,11.4,6.6,10.7,13.2l0,0c-0.6,6.2-5.9,10.7-11.9,10.7l0,0C527.5,930.3,527,930.3,526.6,930.2z M580.8,919.5
			c-0.7-6.6,4-12.5,10.6-13.2l0,0c6.6-0.7,12.5,4,13.2,10.6l0,0c0.7,6.6-4.1,12.5-10.6,13.2l0,0c-0.4,0-0.9,0.1-1.3,0.1l0,0
			C586.7,930.2,581.5,925.7,580.8,919.5z M460.7,915.9c-6.3-2.1-9.7-8.9-7.6-15.2l0,0c2.1-6.3,8.9-9.7,15.2-7.6l0,0
			c6.3,2.1,9.7,8.9,7.6,15.2l0,0c-1.7,5-6.4,8.2-11.4,8.2l0,0C463.2,916.5,462,916.3,460.7,915.9z M644.7,908.1
			c-2.1-6.3,1.2-13.1,7.5-15.2l0,0c6.3-2.1,13.1,1.2,15.2,7.5l0,0c2.1,6.3-1.2,13.1-7.5,15.2l0,0c-1.3,0.4-2.6,0.6-3.9,0.6l0,0
			C651.1,916.3,646.4,913.1,644.7,908.1z M399.4,887.6L399.4,887.6L399.4,887.6c-5.7-3.4-7.5-10.8-4.1-16.5l0,0
			c3.4-5.7,10.8-7.5,16.5-4.1l0,0c5.7,3.4,7.5,10.8,4.1,16.5l0,0c-2.2,3.8-6.2,5.8-10.3,5.8l0,0
			C403.5,889.3,401.4,888.7,399.4,887.6z M704.6,883.2c-3.4-5.7-1.6-13,4.1-16.5l0,0c5.7-3.4,13-1.6,16.5,4.1l0,0
			c3.4,5.7,1.6,13-4.1,16.5l0,0l0,0l0,0c-1.9,1.2-4.1,1.7-6.2,1.7l0,0C710.8,889,706.9,886.9,704.6,883.2z M345.7,846.8
			c-4.8-4.5-5-12.1-0.5-17l0,0c4.6-4.8,12.1-5,17-0.5l0,0c4.8,4.5,5,12.1,0.5,17l0,0c-2.4,2.5-5.5,3.8-8.7,3.8l0,0
			C351,850,348,849,345.7,846.8z M757.8,845.9c-4.6-4.8-4.4-12.4,0.4-17l0,0c4.8-4.6,12.4-4.4,17,0.4l0,0c4.6,4.8,4.4,12.4-0.4,17
			l0,0l0,0l0,0c-2.3,2.2-5.3,3.3-8.3,3.3l0,0C763.3,849.6,760.1,848.4,757.8,845.9z M302,795.5c-3.7-5.5-2.3-12.9,3.2-16.7l0,0
			c5.5-3.7,12.9-2.3,16.7,3.2l0,0c3.7,5.5,2.3,12.9-3.2,16.7l0,0c-2.1,1.4-4.4,2.1-6.7,2.1l0,0C308.1,800.7,304.3,798.9,302,795.5z
			 M801.7,798.1c-5.5-3.7-6.9-11.2-3.2-16.7l0,0c3.7-5.5,11.2-6.9,16.7-3.2l0,0c5.5,3.7,6.9,11.2,3.2,16.7l0,0
			c-2.3,3.4-6.1,5.3-9.9,5.3l0,0C806.1,800.2,803.8,799.5,801.7,798.1z M270.2,735.9c-2.5-6.2,0.5-13.1,6.7-15.6l0,0
			c6.2-2.5,13.1,0.5,15.6,6.7l0,0c2.5,6.2-0.5,13.1-6.7,15.6l0,0c-1.5,0.6-3,0.9-4.5,0.9l0,0C276.6,743.5,272.1,740.6,270.2,735.9z
			 M834.4,742c-6.2-2.5-9.2-9.4-6.7-15.6l0,0c2.4-6.2,9.4-9.2,15.6-6.7l0,0c6.2,2.4,9.2,9.4,6.7,15.6l0,0c-1.9,4.7-6.4,7.6-11.1,7.6
			l0,0C837.4,742.9,835.9,742.6,834.4,742z M252.1,671c-1.1-6.5,3.4-12.7,9.9-13.8l0,0c6.5-1.1,12.7,3.4,13.8,9.9l0,0
			c1.1,6.5-3.4,12.7-9.9,13.8l0,0c-0.7,0.1-1.3,0.2-2,0.2l0,0C258.2,681,253.1,676.8,252.1,671z M854.2,680.2
			c-6.5-1.1-11-7.2-9.9-13.8l0,0c1.1-6.5,7.2-11,13.8-9.9l0,0c6.5,1.1,11,7.2,9.9,13.8l0,0c-1,5.9-6,10.1-11.8,10.1l0,0
			C855.5,680.4,854.8,680.3,854.2,680.2z M259.8,616.2c-6.6-0.3-11.7-6-11.4-12.6l0,0c0.3-6.6,6-11.7,12.6-11.4l0,0
			c6.6,0.3,11.7,6,11.4,12.6l0,0c-0.3,6.4-5.6,11.4-12,11.4l0,0C260.2,616.2,260,616.2,259.8,616.2z M847.6,604.2L847.6,604.2
			c-0.4-6.6,4.7-12.3,11.3-12.6l0,0c6.6-0.4,12.3,4.7,12.6,11.3l0,0c0.4,6.6-4.7,12.3-11.3,12.6l0,0c-0.2,0-0.4,0-0.7,0l0,0
			C853.2,615.6,847.9,610.6,847.6,604.2z M267.5,551.8c-6.4-1.8-10.1-8.4-8.4-14.8l0,0c1.8-6.4,8.4-10.2,14.8-8.4l0,0
			c6.4,1.8,10.1,8.4,8.4,14.8l0,0c-1.5,5.3-6.3,8.8-11.6,8.8l0,0C269.7,552.2,268.6,552.1,267.5,551.8z M837.5,542.8
			c-1.8-6.4,2-13,8.3-14.8l0,0c6.4-1.8,13,2,14.8,8.4l0,0c1.8,6.4-2,13-8.4,14.8l0,0c-1.1,0.3-2.2,0.4-3.2,0.4l0,0
			C843.8,551.6,839,548.1,837.5,542.8z M289,490.5c-5.9-3.1-8.1-10.4-5-16.2l0,0c3.1-5.9,10.4-8.1,16.2-5l0,0
			c5.9,3.1,8.1,10.4,5,16.2l0,0c-2.2,4.1-6.3,6.4-10.6,6.4l0,0C292.7,491.9,290.8,491.5,289,490.5z M814.5,485
			c-3.1-5.9-0.9-13.1,5-16.2l0,0c5.9-3.1,13.1-0.9,16.2,5l0,0l0,0l0,0c3.1,5.8,0.9,13.1-5,16.2l0,0c-1.8,1-3.7,1.4-5.6,1.4l0,0
			C820.8,491.4,816.6,489,814.5,485z M323.2,435.3c-5.1-4.3-5.7-11.8-1.4-16.9l0,0c4.3-5.1,11.9-5.7,16.9-1.4l0,0
			c5.1,4.3,5.7,11.9,1.4,16.9l0,0c-2.4,2.8-5.8,4.2-9.2,4.2l0,0C328.2,438.2,325.5,437.3,323.2,435.3z M779.5,433.5
			c-4.3-5.1-3.7-12.6,1.4-16.9l0,0c5.1-4.3,12.6-3.7,16.9,1.4l0,0c4.3,5.1,3.7,12.6-1.4,16.9l0,0c-2.2,1.9-5,2.9-7.8,2.9l0,0
			C785.2,437.7,781.8,436.3,779.5,433.5z M368.5,388.8c-4-5.3-3-12.8,2.2-16.8l0,0c5.3-4,12.8-3,16.8,2.2l0,0c4,5.3,3,12.8-2.2,16.8
			l0,0c-2.2,1.7-4.7,2.5-7.3,2.5l0,0C374.4,393.5,370.8,391.9,368.5,388.8z M734.2,390.7L734.2,390.7c-5.3-4-6.3-11.5-2.3-16.8l0,0
			c4-5.3,11.5-6.3,16.8-2.3l0,0l0,0l0,0c5.3,4,6.3,11.5,2.3,16.8l0,0c-2.4,3.1-5.9,4.7-9.6,4.7l0,0
			C739,393.1,736.4,392.3,734.2,390.7z M422.6,353c-2.8-6-0.2-13.1,5.8-15.9l0,0c6-2.8,13.1-0.2,15.9,5.8l0,0
			c2.8,6,0.2,13.1-5.8,15.9l0,0c-1.6,0.8-3.4,1.1-5.1,1.1l0,0C428.9,359.9,424.6,357.3,422.6,353z M680.9,358.5L680.9,358.5
			c-6-2.8-8.6-9.9-5.8-15.9l0,0c2.8-6,9.9-8.6,15.9-5.8l0,0l0,0l0,0c6,2.8,8.6,9.9,5.8,15.9l0,0c-2,4.4-6.4,7-10.9,7l0,0
			C684.3,359.6,682.5,359.3,680.9,358.5z M483.2,329.7c-1.4-6.5,2.7-12.9,9.1-14.3l0,0c6.5-1.4,12.9,2.7,14.3,9.1l0,0
			c1.4,6.5-2.6,12.9-9.1,14.3l0,0c-0.9,0.2-1.8,0.3-2.6,0.3l0,0C489.4,339.1,484.4,335.3,483.2,329.7z M621.9,338.7
			c-6.5-1.4-10.6-7.8-9.1-14.3l0,0c1.4-6.5,7.8-10.6,14.3-9.2l0,0c6.5,1.4,10.6,7.8,9.2,14.3l0,0c-1.2,5.6-6.2,9.4-11.7,9.4l0,0
			C623.6,338.9,622.8,338.9,621.9,338.7z M547.3,320c0-6.6,5.4-12,12-12l0,0c0.1,0,0.2,0,0.4,0l0,0c0.1,0,0.2,0,0.3,0l0,0
			c6.6,0,12,5.4,12,12l0,0c0,6.6-5.4,12-12,12l0,0c-0.1,0-0.2,0-0.3,0l0,0c-0.1,0-0.2,0-0.3,0l0,0l0,0l0,0
			C552.7,332,547.3,326.6,547.3,320z"/>
	</g>
</g>
<g>
	<g>
		<path fill="#F2F4FF" d="M175.9,523.5h-19.3v-74.4l-23,7.1v-15.7l40.3-14.4h2.1V523.5z"/>
		<path fill="#F2F4FF" d="M306.9,483.3c0,7.3-0.8,13.6-2.4,18.8c-1.6,5.2-3.8,9.5-6.7,12.9c-2.9,3.4-6.3,5.9-10.3,7.4
			c-4,1.6-8.5,2.4-13.4,2.4c-4.9,0-9.4-0.8-13.4-2.4c-4-1.6-7.5-4.1-10.4-7.4c-2.9-3.4-5.1-7.7-6.7-12.9c-1.6-5.2-2.4-11.5-2.4-18.8
			v-16.9c0-7.3,0.8-13.6,2.4-18.8c1.6-5.2,3.8-9.5,6.7-12.9c2.9-3.4,6.3-5.8,10.3-7.4c4-1.6,8.5-2.4,13.3-2.4
			c4.9,0,9.4,0.8,13.4,2.4c4,1.6,7.5,4.1,10.4,7.4c2.9,3.4,5.1,7.7,6.7,12.9c1.6,5.2,2.4,11.5,2.4,18.8V483.3z M287.6,463.7
			c0-4.3-0.3-7.9-0.9-10.9c-0.6-2.9-1.5-5.3-2.7-7.1c-1.2-1.8-2.6-3.1-4.3-3.9c-1.7-0.8-3.6-1.2-5.7-1.2s-4,0.4-5.7,1.2
			c-1.7,0.8-3.1,2.1-4.2,3.9c-1.2,1.8-2,4.2-2.6,7.1c-0.6,2.9-0.9,6.6-0.9,10.9v22.2c0,4.4,0.3,8,0.9,11c0.6,3,1.5,5.4,2.7,7.2
			c1.2,1.8,2.6,3.2,4.3,4c1.7,0.8,3.6,1.2,5.7,1.2s4-0.4,5.7-1.2c1.7-0.8,3.1-2.1,4.2-4c1.1-1.8,2-4.3,2.6-7.2c0.6-3,0.9-6.7,0.9-11
			V463.7z"/>
		<path fill="#F2F4FF" d="M400.8,523.5h-19.3v-74.4l-23,7.1v-15.7l40.3-14.4h2.1V523.5z"/>
		<path fill="#F2F4FF" d="M531.9,483.3c0,7.3-0.8,13.6-2.4,18.8c-1.6,5.2-3.8,9.5-6.7,12.9c-2.9,3.4-6.3,5.9-10.3,7.4
			c-4,1.6-8.5,2.4-13.4,2.4c-4.9,0-9.4-0.8-13.4-2.4c-4-1.6-7.5-4.1-10.4-7.4c-2.9-3.4-5.1-7.7-6.7-12.9c-1.6-5.2-2.4-11.5-2.4-18.8
			v-16.9c0-7.3,0.8-13.6,2.4-18.8c1.6-5.2,3.8-9.5,6.7-12.9c2.9-3.4,6.3-5.8,10.3-7.4c4-1.6,8.5-2.4,13.3-2.4
			c4.9,0,9.4,0.8,13.4,2.4c4,1.6,7.5,4.1,10.4,7.4c2.9,3.4,5.1,7.7,6.7,12.9c1.6,5.2,2.4,11.5,2.4,18.8V483.3z M512.6,463.7
			c0-4.3-0.3-7.9-0.9-10.9c-0.6-2.9-1.5-5.3-2.7-7.1s-2.6-3.1-4.3-3.9c-1.7-0.8-3.6-1.2-5.7-1.2c-2.1,0-4,0.4-5.7,1.2
			c-1.7,0.8-3.1,2.1-4.2,3.9c-1.2,1.8-2,4.2-2.6,7.1c-0.6,2.9-0.9,6.6-0.9,10.9v22.2c0,4.4,0.3,8,0.9,11c0.6,3,1.5,5.4,2.7,7.2
			c1.2,1.8,2.6,3.2,4.3,4c1.7,0.8,3.6,1.2,5.7,1.2c2.1,0,4-0.4,5.7-1.2c1.7-0.8,3.1-2.1,4.2-4c1.1-1.8,2-4.3,2.6-7.2
			c0.6-3,0.9-6.7,0.9-11V463.7z"/>
	</g>
	<g>
		<path fill="#F2F4FF" d="M175.9,813.7h-19.3v-74.4l-23,7.1v-15.7l40.3-14.4h2.1V813.7z"/>
		<path fill="#F2F4FF" d="M306.9,773.5c0,7.3-0.8,13.6-2.4,18.8c-1.6,5.2-3.8,9.5-6.7,12.9c-2.9,3.4-6.3,5.9-10.3,7.4
			c-4,1.6-8.5,2.4-13.4,2.4c-4.9,0-9.4-0.8-13.4-2.4c-4-1.6-7.5-4.1-10.4-7.4c-2.9-3.4-5.1-7.7-6.7-12.9c-1.6-5.2-2.4-11.5-2.4-18.8
			v-16.9c0-7.3,0.8-13.6,2.4-18.8c1.6-5.2,3.8-9.5,6.7-12.9c2.9-3.4,6.3-5.8,10.3-7.4c4-1.6,8.5-2.4,13.3-2.4
			c4.9,0,9.4,0.8,13.4,2.4c4,1.6,7.5,4.1,10.4,7.4c2.9,3.4,5.1,7.7,6.7,12.9c1.6,5.2,2.4,11.5,2.4,18.8V773.5z M287.6,753.9
			c0-4.3-0.3-7.9-0.9-10.9c-0.6-2.9-1.5-5.3-2.7-7.1c-1.2-1.8-2.6-3.1-4.3-3.9c-1.7-0.8-3.6-1.2-5.7-1.2s-4,0.4-5.7,1.2
			c-1.7,0.8-3.1,2.1-4.2,3.9c-1.2,1.8-2,4.2-2.6,7.1c-0.6,2.9-0.9,6.6-0.9,10.9V776c0,4.4,0.3,8,0.9,11c0.6,3,1.5,5.4,2.7,7.2
			c1.2,1.8,2.6,3.2,4.3,4c1.7,0.8,3.6,1.2,5.7,1.2s4-0.4,5.7-1.2c1.7-0.8,3.1-2.1,4.2-4c1.1-1.8,2-4.3,2.6-7.2c0.6-3,0.9-6.7,0.9-11
			V753.9z"/>
		<path fill="#F2F4FF" d="M400.8,813.7h-19.3v-74.4l-23,7.1v-15.7l40.3-14.4h2.1V813.7z"/>
		<path fill="#F2F4FF" d="M531.9,773.5c0,7.3-0.8,13.6-2.4,18.8c-1.6,5.2-3.8,9.5-6.7,12.9c-2.9,3.4-6.3,5.9-10.3,7.4
			c-4,1.6-8.5,2.4-13.4,2.4c-4.9,0-9.4-0.8-13.4-2.4c-4-1.6-7.5-4.1-10.4-7.4c-2.9-3.4-5.1-7.7-6.7-12.9c-1.6-5.2-2.4-11.5-2.4-18.8
			v-16.9c0-7.3,0.8-13.6,2.4-18.8c1.6-5.2,3.8-9.5,6.7-12.9c2.9-3.4,6.3-5.8,10.3-7.4c4-1.6,8.5-2.4,13.3-2.4
			c4.9,0,9.4,0.8,13.4,2.4c4,1.6,7.5,4.1,10.4,7.4c2.9,3.4,5.1,7.7,6.7,12.9c1.6,5.2,2.4,11.5,2.4,18.8V773.5z M512.6,753.9
			c0-4.3-0.3-7.9-0.9-10.9c-0.6-2.9-1.5-5.3-2.7-7.1c-1.2-1.8-2.6-3.1-4.3-3.9c-1.7-0.8-3.6-1.2-5.7-1.2c-2.1,0-4,0.4-5.7,1.2
			c-1.7,0.8-3.1,2.1-4.2,3.9c-1.2,1.8-2,4.2-2.6,7.1c-0.6,2.9-0.9,6.6-0.9,10.9V776c0,4.4,0.3,8,0.9,11c0.6,3,1.5,5.4,2.7,7.2
			c1.2,1.8,2.6,3.2,4.3,4c1.7,0.8,3.6,1.2,5.7,1.2c2.1,0,4-0.4,5.7-1.2c1.7-0.8,3.1-2.1,4.2-4c1.1-1.8,2-4.3,2.6-7.2
			c0.6-3,0.9-6.7,0.9-11V753.9z"/>
		<path fill="#F2F4FF" d="M625.8,813.7h-19.3v-74.4l-23,7.1v-15.7l40.3-14.4h2.1V813.7z"/>
	</g>
	<g>
		<path fill="#F2F4FF" d="M56.5,672.1H37.2v-74.4l-23,7.1v-15.7l40.3-14.4h2.1V672.1z"/>
		<path fill="#F2F4FF" d="M187.6,631.9c0,7.3-0.8,13.6-2.4,18.8c-1.6,5.2-3.8,9.5-6.7,12.9c-2.9,3.4-6.3,5.9-10.3,7.4
			c-4,1.6-8.5,2.4-13.4,2.4c-4.9,0-9.4-0.8-13.4-2.4c-4-1.6-7.5-4.1-10.4-7.4c-2.9-3.4-5.1-7.7-6.7-12.9c-1.6-5.2-2.4-11.5-2.4-18.8
			V615c0-7.3,0.8-13.6,2.4-18.8c1.6-5.2,3.8-9.5,6.7-12.9c2.9-3.4,6.3-5.8,10.3-7.4c4-1.6,8.5-2.4,13.3-2.4c4.9,0,9.4,0.8,13.4,2.4
			c4,1.6,7.5,4.1,10.4,7.4c2.9,3.4,5.1,7.7,6.7,12.9c1.6,5.2,2.4,11.5,2.4,18.8V631.9z M168.3,612.3c0-4.3-0.3-7.9-0.9-10.9
			c-0.6-2.9-1.5-5.3-2.7-7.1s-2.6-3.1-4.3-3.9c-1.7-0.8-3.6-1.2-5.7-1.2c-2.1,0-4,0.4-5.7,1.2c-1.7,0.8-3.1,2.1-4.2,3.9
			c-1.2,1.8-2,4.2-2.6,7.1c-0.6,2.9-0.9,6.6-0.9,10.9v22.2c0,4.4,0.3,8,0.9,11c0.6,3,1.5,5.4,2.7,7.2c1.2,1.8,2.6,3.2,4.3,4
			c1.7,0.8,3.6,1.2,5.7,1.2c2.1,0,4-0.4,5.7-1.2c1.7-0.8,3.1-2.1,4.2-4c1.1-1.8,2-4.3,2.6-7.2c0.6-3,0.9-6.7,0.9-11V612.3z"/>
		<path fill="#F2F4FF" d="M281.5,672.1h-19.3v-74.4l-23,7.1v-15.7l40.3-14.4h2.1V672.1z"/>
		<path fill="#F2F4FF" d="M412.5,631.9c0,7.3-0.8,13.6-2.4,18.8c-1.6,5.2-3.8,9.5-6.7,12.9c-2.9,3.4-6.3,5.9-10.3,7.4
			c-4,1.6-8.5,2.4-13.4,2.4c-4.9,0-9.4-0.8-13.4-2.4c-4-1.6-7.5-4.1-10.4-7.4c-2.9-3.4-5.1-7.7-6.7-12.9c-1.6-5.2-2.4-11.5-2.4-18.8
			V615c0-7.3,0.8-13.6,2.4-18.8c1.6-5.2,3.8-9.5,6.7-12.9c2.9-3.4,6.3-5.8,10.3-7.4c4-1.6,8.5-2.4,13.3-2.4c4.9,0,9.4,0.8,13.4,2.4
			c4,1.6,7.5,4.1,10.4,7.4c2.9,3.4,5.1,7.7,6.7,12.9c1.6,5.2,2.4,11.5,2.4,18.8V631.9z M393.2,612.3c0-4.3-0.3-7.9-0.9-10.9
			c-0.6-2.9-1.5-5.3-2.7-7.1c-1.2-1.8-2.6-3.1-4.3-3.9c-1.7-0.8-3.6-1.2-5.7-1.2c-2.1,0-4,0.4-5.7,1.2c-1.7,0.8-3.1,2.1-4.2,3.9
			s-2,4.2-2.6,7.1c-0.6,2.9-0.9,6.6-0.9,10.9v22.2c0,4.4,0.3,8,0.9,11c0.6,3,1.5,5.4,2.7,7.2c1.2,1.8,2.6,3.2,4.3,4
			c1.7,0.8,3.6,1.2,5.7,1.2c2.1,0,4-0.4,5.7-1.2c1.7-0.8,3.1-2.1,4.2-4c1.1-1.8,2-4.3,2.6-7.2c0.6-3,0.9-6.7,0.9-11V612.3z"/>
		<path fill="#F2F4FF" d="M506.4,672.1h-19.3v-74.4l-23,7.1v-15.7l40.3-14.4h2.1V672.1z"/>
		<path fill="#F2F4FF" d="M609.8,672.1h-19.3v-74.4l-23,7.1v-15.7l40.3-14.4h2.1V672.1z"/>
	</g>
</g>
<g id="surface1_9_">
	<circle display="none" fill="#FFFFFF" cx="1920" cy="620" r="320"/>
	<g display="none">
		
			<circle display="inline" fill="none" stroke="#FF3B30" stroke-width="24" stroke-linecap="round" stroke-linejoin="round" stroke-dasharray="0,65.0011" cx="1920" cy="620" r="300"/>
	</g>
	<g>
		<path fill="#F2F4FF" d="M1886.6,930.2L1886.6,930.2L1886.6,930.2c-6.6-0.7-11.4-6.6-10.7-13.2l0,0c0.7-6.6,6.6-11.4,13.2-10.7l0,0
			c6.6,0.7,11.4,6.6,10.7,13.2l0,0c-0.6,6.2-5.9,10.7-11.9,10.7l0,0C1887.5,930.3,1887,930.3,1886.6,930.2z M1940.8,919.5
			c-0.7-6.6,4-12.5,10.6-13.2l0,0c6.6-0.7,12.5,4,13.2,10.6l0,0c0.7,6.6-4.1,12.5-10.6,13.2l0,0c-0.4,0-0.9,0.1-1.3,0.1l0,0
			C1946.7,930.2,1941.5,925.7,1940.8,919.5z M1820.7,915.9c-6.3-2.1-9.7-8.9-7.6-15.2l0,0c2.1-6.3,8.9-9.7,15.2-7.6l0,0
			c6.3,2.1,9.7,8.9,7.6,15.2l0,0c-1.7,5-6.4,8.2-11.4,8.2l0,0C1823.2,916.5,1822,916.3,1820.7,915.9z M2004.7,908.1
			c-2.1-6.3,1.2-13.1,7.5-15.2l0,0c6.3-2.1,13.1,1.2,15.2,7.5l0,0c2.1,6.3-1.2,13.1-7.5,15.2l0,0c-1.3,0.4-2.6,0.6-3.9,0.6l0,0
			C2011.1,916.3,2006.4,913.1,2004.7,908.1z M1759.4,887.6L1759.4,887.6L1759.4,887.6c-5.7-3.4-7.5-10.8-4.1-16.5l0,0
			c3.4-5.7,10.8-7.5,16.5-4.1l0,0c5.7,3.4,7.5,10.8,4.1,16.5l0,0c-2.2,3.8-6.2,5.8-10.3,5.8l0,0
			C1763.5,889.3,1761.4,888.7,1759.4,887.6z M2064.6,883.2c-3.4-5.7-1.6-13,4.1-16.5l0,0c5.7-3.4,13-1.6,16.5,4.1l0,0
			c3.4,5.7,1.6,13-4.1,16.5l0,0l0,0l0,0c-1.9,1.2-4.1,1.7-6.2,1.7l0,0C2070.8,889,2066.9,886.9,2064.6,883.2z M1705.7,846.8
			c-4.8-4.5-5-12.1-0.5-17l0,0c4.6-4.8,12.1-5,17-0.5l0,0c4.8,4.5,5,12.1,0.5,17l0,0c-2.4,2.5-5.5,3.8-8.7,3.8l0,0
			C1711,850,1708,849,1705.7,846.8z M2117.8,845.9c-4.6-4.8-4.4-12.4,0.4-17l0,0c4.8-4.6,12.4-4.4,17,0.4l0,0
			c4.6,4.8,4.4,12.4-0.4,17l0,0l0,0l0,0c-2.3,2.2-5.3,3.3-8.3,3.3l0,0C2123.3,849.6,2120.1,848.4,2117.8,845.9z M1662,795.5
			c-3.7-5.5-2.3-12.9,3.2-16.7l0,0c5.5-3.7,12.9-2.3,16.7,3.2l0,0c3.7,5.5,2.3,12.9-3.2,16.7l0,0c-2.1,1.4-4.4,2.1-6.7,2.1l0,0
			C1668.1,800.7,1664.3,798.9,1662,795.5z M2161.7,798.1c-5.5-3.7-6.9-11.2-3.2-16.7l0,0c3.7-5.5,11.2-6.9,16.7-3.2l0,0
			c5.5,3.7,6.9,11.2,3.2,16.7l0,0c-2.3,3.4-6.1,5.3-9.9,5.3l0,0C2166.1,800.2,2163.8,799.5,2161.7,798.1z M1630.2,735.9
			c-2.5-6.2,0.5-13.1,6.7-15.6l0,0c6.2-2.5,13.1,0.5,15.6,6.7l0,0c2.5,6.2-0.5,13.1-6.7,15.6l0,0c-1.5,0.6-3,0.9-4.5,0.9l0,0
			C1636.6,743.5,1632.1,740.6,1630.2,735.9z M2194.4,742c-6.2-2.5-9.2-9.4-6.7-15.6l0,0c2.4-6.2,9.4-9.2,15.6-6.7l0,0
			c6.2,2.4,9.2,9.4,6.7,15.6l0,0c-1.9,4.7-6.4,7.6-11.1,7.6l0,0C2197.4,742.9,2195.9,742.6,2194.4,742z M1612.1,671
			c-1.1-6.5,3.4-12.7,9.9-13.8l0,0c6.5-1.1,12.7,3.4,13.8,9.9l0,0c1.1,6.5-3.4,12.7-9.9,13.8l0,0c-0.7,0.1-1.3,0.2-2,0.2l0,0
			C1618.2,681,1613.1,676.8,1612.1,671z M2214.2,680.2c-6.5-1.1-11-7.2-9.9-13.8l0,0c1.1-6.5,7.2-11,13.8-9.9l0,0
			c6.5,1.1,11,7.2,9.9,13.8l0,0c-1,5.9-6,10.1-11.8,10.1l0,0C2215.5,680.4,2214.8,680.3,2214.2,680.2z M1619.8,616.2
			c-6.6-0.3-11.7-6-11.4-12.6l0,0c0.3-6.6,6-11.7,12.6-11.4l0,0c6.6,0.3,11.7,6,11.4,12.6l0,0c-0.3,6.4-5.6,11.4-12,11.4l0,0
			C1620.2,616.2,1620,616.2,1619.8,616.2z M2207.6,604.2L2207.6,604.2c-0.4-6.6,4.7-12.3,11.3-12.6l0,0c6.6-0.4,12.3,4.7,12.6,11.3
			l0,0c0.4,6.6-4.7,12.3-11.3,12.6l0,0c-0.2,0-0.4,0-0.7,0l0,0C2213.2,615.6,2207.9,610.6,2207.6,604.2z M1627.5,551.8
			c-6.4-1.8-10.1-8.4-8.4-14.8l0,0c1.8-6.4,8.4-10.2,14.8-8.4l0,0c6.4,1.8,10.1,8.4,8.4,14.8l0,0c-1.5,5.3-6.3,8.8-11.6,8.8l0,0
			C1629.7,552.2,1628.6,552.1,1627.5,551.8z M2197.5,542.8c-1.8-6.4,2-13,8.3-14.8l0,0c6.4-1.8,13,2,14.8,8.4l0,0
			c1.8,6.4-2,13-8.4,14.8l0,0c-1.1,0.3-2.2,0.4-3.2,0.4l0,0C2203.8,551.6,2199,548.1,2197.5,542.8z M1649,490.5
			c-5.9-3.1-8.1-10.4-5-16.2l0,0c3.1-5.9,10.4-8.1,16.2-5l0,0c5.9,3.1,8.1,10.4,5,16.2l0,0c-2.2,4.1-6.3,6.4-10.6,6.4l0,0
			C1652.7,491.9,1650.8,491.5,1649,490.5z M2174.5,485c-3.1-5.9-0.9-13.1,5-16.2l0,0c5.9-3.1,13.1-0.9,16.2,5l0,0l0,0l0,0
			c3.1,5.8,0.9,13.1-5,16.2l0,0c-1.8,1-3.7,1.4-5.6,1.4l0,0C2180.8,491.4,2176.6,489,2174.5,485z M1683.2,435.3
			c-5.1-4.3-5.7-11.8-1.4-16.9l0,0c4.3-5.1,11.9-5.7,16.9-1.4l0,0c5.1,4.3,5.7,11.9,1.4,16.9l0,0c-2.4,2.8-5.8,4.2-9.2,4.2l0,0
			C1688.2,438.2,1685.5,437.3,1683.2,435.3z M2139.5,433.5c-4.3-5.1-3.7-12.6,1.4-16.9l0,0c5.1-4.3,12.6-3.7,16.9,1.4l0,0
			c4.3,5.1,3.7,12.6-1.4,16.9l0,0c-2.2,1.9-5,2.9-7.8,2.9l0,0C2145.2,437.7,2141.8,436.3,2139.5,433.5z M1728.5,388.8
			c-4-5.3-3-12.8,2.2-16.8l0,0c5.3-4,12.8-3,16.8,2.2l0,0c4,5.3,3,12.8-2.2,16.8l0,0c-2.2,1.7-4.7,2.5-7.3,2.5l0,0
			C1734.4,393.5,1730.8,391.9,1728.5,388.8z M2094.2,390.7L2094.2,390.7c-5.3-4-6.3-11.5-2.3-16.8l0,0c4-5.3,11.5-6.3,16.8-2.3l0,0
			l0,0l0,0c5.3,4,6.3,11.5,2.3,16.8l0,0c-2.4,3.1-5.9,4.7-9.6,4.7l0,0C2099,393.1,2096.4,392.3,2094.2,390.7z M1782.6,353
			c-2.8-6-0.2-13.1,5.8-15.9l0,0c6-2.8,13.1-0.2,15.9,5.8l0,0c2.8,6,0.2,13.1-5.8,15.9l0,0c-1.6,0.8-3.4,1.1-5.1,1.1l0,0
			C1788.9,359.9,1784.6,357.3,1782.6,353z M2040.9,358.5L2040.9,358.5c-6-2.8-8.6-9.9-5.8-15.9l0,0c2.8-6,9.9-8.6,15.9-5.8l0,0l0,0
			l0,0c6,2.8,8.6,9.9,5.8,15.9l0,0c-2,4.4-6.4,7-10.9,7l0,0C2044.3,359.6,2042.5,359.3,2040.9,358.5z M1843.2,329.7
			c-1.4-6.5,2.7-12.9,9.1-14.3l0,0c6.5-1.4,12.9,2.7,14.3,9.1l0,0c1.4,6.5-2.6,12.9-9.1,14.3l0,0c-0.9,0.2-1.8,0.3-2.6,0.3l0,0
			C1849.4,339.1,1844.4,335.3,1843.2,329.7z M1981.9,338.7c-6.5-1.4-10.6-7.8-9.1-14.3l0,0c1.4-6.5,7.8-10.6,14.3-9.2l0,0
			c6.5,1.4,10.6,7.8,9.2,14.3l0,0c-1.2,5.6-6.2,9.4-11.7,9.4l0,0C1983.6,338.9,1982.8,338.9,1981.9,338.7z M1907.3,320
			c0-6.6,5.4-12,12-12l0,0c0.1,0,0.2,0,0.4,0l0,0c0.1,0,0.2,0,0.3,0l0,0c6.6,0,12,5.4,12,12l0,0c0,6.6-5.4,12-12,12l0,0
			c-0.1,0-0.2,0-0.3,0l0,0c-0.1,0-0.2,0-0.3,0l0,0l0,0l0,0C1912.7,332,1907.3,326.6,1907.3,320z"/>
	</g>
</g>
<g id="surface1_7_">
	<circle display="none" fill="#FFFFFF" cx="1240" cy="620" r="400"/>
	<g display="none">
		
			<circle display="inline" fill="none" stroke="#FF3B30" stroke-width="24" stroke-linecap="round" stroke-linejoin="round" stroke-dasharray="0,64.7384" cx="1240" cy="620" r="380"/>
	</g>
	<g>
		<g>
			<path fill="#F2F4FF" d="M1257,999.8c-0.5-6.6,4.5-12.4,11.1-12.9l0,0c6.6-0.5,12.4,4.5,12.9,11.1l0,0c0.5,6.6-4.5,12.4-11.1,12.9
				l0,0l0,0l0,0c-0.3,0-0.6,0-0.9,0l0,0C1262.7,1010.9,1257.5,1006.1,1257,999.8z M1203.2,1010.3L1203.2,1010.3L1203.2,1010.3
				c-6.6-0.6-11.4-6.5-10.8-13.1l0,0c0.6-6.6,6.5-11.5,13.1-10.8l0,0c6.6,0.6,11.5,6.5,10.8,13.1l0,0c-0.6,6.2-5.8,10.9-11.9,10.9
				l0,0C1204,1010.3,1203.6,1010.3,1203.2,1010.3z M1321.1,991.5c-1.6-6.4,2.3-12.9,8.7-14.6l0,0c6.4-1.6,13,2.3,14.6,8.7l0,0
				c1.6,6.4-2.3,13-8.7,14.6l0,0l0,0l0,0c-1,0.2-2,0.4-2.9,0.4l0,0C1327.4,1000.6,1322.5,997,1321.1,991.5z M1137.6,998.5
				L1137.6,998.5L1137.6,998.5c-6.4-1.7-10.2-8.3-8.5-14.7l0,0c1.7-6.4,8.3-10.2,14.7-8.5l0,0c6.4,1.7,10.2,8.3,8.5,14.7l0,0
				c-1.5,5.3-6.3,8.9-11.6,8.9l0,0C1139.7,998.9,1138.6,998.8,1137.6,998.5z M1382.9,972.4c-2.7-6.1,0-13.2,6.1-15.8l0,0
				c6.1-2.7,13.1,0.1,15.8,6.1l0,0c2.7,6.1-0.1,13.2-6.1,15.8l0,0c-1.6,0.7-3.2,1-4.9,1l0,0C1389.3,979.5,1384.9,976.9,1382.9,972.4
				z M1074.9,975.6c-6-2.8-8.6-9.9-5.8-15.9l0,0c2.8-6,9.9-8.6,15.9-5.8l0,0c6,2.8,8.6,9.9,5.8,15.9l0,0c-2,4.4-6.4,6.9-10.9,6.9
				l0,0C1078.3,976.8,1076.5,976.4,1074.9,975.6z M1440.5,943.1c-3.7-5.5-2.2-13,3.3-16.6l0,0c5.5-3.7,13-2.2,16.7,3.3l0,0
				c3.7,5.5,2.2,13-3.3,16.6l0,0l0,0l0,0c-2,1.4-4.4,2-6.6,2l0,0C1446.6,948.4,1442.8,946.5,1440.5,943.1z M1017,942.5
				c-5.5-3.8-6.8-11.2-3-16.7l0,0c3.8-5.5,11.2-6.8,16.7-3l0,0c5.5,3.8,6.8,11.2,3,16.7l0,0c-2.3,3.4-6.1,5.2-9.9,5.2l0,0
				C1021.5,944.6,1019.1,943.9,1017,942.5z M1492.3,904.4c-4.5-4.8-4.3-12.4,0.5-17l0,0c4.8-4.5,12.4-4.3,17,0.5l0,0
				c4.5,4.8,4.3,12.4-0.5,17l0,0l0,0l0,0c-2.3,2.2-5.3,3.3-8.2,3.3l0,0C1497.9,908.1,1494.7,906.9,1492.3,904.4z M965.6,900
				c-4.7-4.6-4.8-12.2-0.2-17l0,0c4.6-4.7,12.2-4.8,17-0.2l0,0c4.7,4.6,4.8,12.2,0.2,17l0,0c-2.3,2.4-5.5,3.6-8.6,3.6l0,0
				C971,903.4,968,902.3,965.6,900z M1536.9,857.5c-5.3-4-6.4-11.5-2.4-16.8l0,0c4-5.3,11.5-6.4,16.8-2.4l0,0
				c5.3,4,6.4,11.5,2.4,16.8l0,0c-2.4,3.1-6,4.8-9.6,4.8l0,0C1541.6,859.9,1539.1,859.1,1536.9,857.5z M922.1,849.5L922.1,849.5
				L922.1,849.5c-3.9-5.4-2.7-12.9,2.7-16.8l0,0c5.4-3.9,12.9-2.7,16.8,2.7l0,0c3.9,5.4,2.7,12.9-2.7,16.8l0,0
				c-2.1,1.5-4.6,2.3-7,2.3l0,0C928.1,854.4,924.5,852.7,922.1,849.5z M1572.9,803.7c-5.9-3-8.2-10.3-5.2-16.2l0,0
				c3-5.9,10.2-8.2,16.2-5.2l0,0c5.9,3,8.2,10.2,5.2,16.2l0,0l0,0l0,0c-2.1,4.1-6.3,6.5-10.7,6.5l0,0
				C1576.5,805.1,1574.7,804.6,1572.9,803.7z M887.8,792.3L887.8,792.3L887.8,792.3c-2.9-6-0.5-13.1,5.5-16.1l0,0
				c6-2.9,13.1-0.5,16,5.5l0,0c2.9,5.9,0.5,13.1-5.5,16l0,0c-1.7,0.8-3.5,1.2-5.3,1.2l0,0C894.1,799,889.9,796.5,887.8,792.3z
				 M1599.3,744.6c-6.3-2-9.9-8.7-7.9-15l0,0c2-6.3,8.7-9.9,15-7.9l0,0c6.3,2,9.9,8.7,7.9,15l0,0c-1.6,5.1-6.3,8.4-11.5,8.4l0,0
				C1601.7,745.2,1600.5,745,1599.3,744.6z M863.7,730.1c-1.9-6.4,1.8-13,8.1-14.9l0,0c6.4-1.9,13,1.8,14.9,8.2l0,0
				c1.9,6.4-1.8,13-8.2,14.9l0,0c-1.1,0.3-2.2,0.5-3.4,0.5l0,0C870,738.8,865.2,735.3,863.7,730.1z M1615.2,682
				c-6.6-0.9-11.2-6.9-10.3-13.5l0,0c0.9-6.6,6.9-11.2,13.5-10.3l0,0c6.6,0.9,11.2,6.9,10.3,13.5l0,0c-0.8,6-6,10.4-11.9,10.4l0,0
				C1616.2,682.1,1615.7,682,1615.2,682z M850.5,664.7L850.5,664.7L850.5,664.7c-0.8-6.6,4-12.5,10.6-13.3l0,0
				c6.6-0.8,12.5,4,13.3,10.6l0,0c0.8,6.6-4,12.5-10.6,13.3l0,0c-0.5,0-0.9,0.1-1.4,0.1l0,0C856.4,675.4,851.2,670.9,850.5,664.7z
				 M1607.7,605.9c-0.2-6.6,4.9-12.2,11.5-12.4l0,0c6.6-0.2,12.2,4.9,12.4,11.5l0,0c0.2,6.6-4.9,12.2-11.5,12.4l0,0
				c-0.2,0-0.3,0-0.5,0l0,0C1613.3,617.5,1608,612.4,1607.7,605.9z M859.9,610.8c-6.6-0.4-11.7-6-11.3-12.6l0,0
				c0.4-6.6,6-11.7,12.6-11.3l0,0c6.6,0.4,11.7,6,11.3,12.6l0,0c-0.4,6.4-5.6,11.3-12,11.3l0,0C860.4,610.8,860.1,610.8,859.9,610.8
				z M1600.1,543.8c-1.4-6.5,2.8-12.9,9.3-14.2l0,0c6.5-1.4,12.8,2.8,14.2,9.3l0,0l0,0l0,0c1.4,6.5-2.8,12.9-9.3,14.2l0,0
				c-0.8,0.2-1.7,0.3-2.5,0.3l0,0C1606.3,553.3,1601.3,549.5,1600.1,543.8z M866.9,546.5c-6.4-1.5-10.5-7.9-9-14.4l0,0
				c1.5-6.5,7.9-10.5,14.4-9l0,0c6.5,1.5,10.5,7.9,9,14.4l0,0c-1.3,5.6-6.2,9.3-11.7,9.3l0,0C868.7,546.8,867.8,546.7,866.9,546.5z
				 M1582,483.9c-2.5-6.2,0.5-13.1,6.7-15.6l0,0c6.2-2.5,13.1,0.5,15.6,6.7l0,0c2.5,6.2-0.5,13.1-6.7,15.6l0,0
				c-1.5,0.6-3,0.9-4.4,0.9l0,0C1588.4,491.5,1583.9,488.6,1582,483.9z M884.8,484.3c-6.1-2.6-9-9.6-6.4-15.7l0,0l0,0l0,0
				c2.6-6.1,9.6-9,15.7-6.4l0,0c6.1,2.6,9,9.6,6.4,15.7l0,0c-1.9,4.6-6.4,7.4-11.1,7.4l0,0C887.8,485.2,886.3,484.9,884.8,484.3z
				 M1554,428L1554,428c-3.5-5.6-1.7-13,4-16.5l0,0c5.7-3.5,13-1.7,16.5,4l0,0c3.5,5.6,1.7,13-4,16.5l0,0c-1.9,1.2-4.1,1.8-6.3,1.8
				l0,0C1560.2,433.7,1556.2,431.7,1554,428z M912.9,426c-5.6-3.6-7.2-11-3.7-16.6l0,0l0,0l0,0c3.6-5.6,11-7.2,16.6-3.7l0,0
				c5.6,3.6,7.2,11,3.7,16.6l0,0c-2.3,3.6-6.2,5.5-10.1,5.5l0,0C917.2,427.9,914.9,427.3,912.9,426z M1516.9,377.6L1516.9,377.6
				c-4.4-5-3.9-12.6,1.1-16.9l0,0c5-4.4,12.6-3.9,16.9,1.1l0,0c4.4,5,3.9,12.6-1.1,16.9l0,0c-2.3,2-5.1,3-7.9,3l0,0
				C1522.5,381.6,1519.2,380.3,1516.9,377.6z M950.6,373.4c-4.9-4.5-5.3-12-0.8-17l0,0c4.5-4.9,12-5.3,17-0.8l0,0
				c4.9,4.5,5.3,12,0.8,17l0,0c-2.4,2.6-5.6,3.9-8.9,3.9l0,0C955.8,376.6,952.9,375.5,950.6,373.4z M1471.8,334.1
				c-5.2-4.2-5.9-11.7-1.8-16.9l0,0c4.2-5.1,11.7-5.9,16.9-1.8l0,0c5.1,4.2,5.9,11.7,1.8,16.9l0,0c-2.4,2.9-5.8,4.4-9.3,4.4l0,0
				C1476.6,336.8,1474,335.9,1471.8,334.1z M996.6,327.9c-4.1-5.2-3.2-12.8,2-16.8l0,0c5.2-4.1,12.8-3.2,16.9,2l0,0
				c4.1,5.2,3.2,12.8-2,16.9l0,0c-2.2,1.7-4.8,2.6-7.4,2.6l0,0C1002.5,332.6,998.9,331,996.6,327.9z M1420,298.9
				c-5.8-3.2-7.8-10.6-4.6-16.3l0,0c3.2-5.8,10.6-7.8,16.3-4.6l0,0c5.8,3.2,7.8,10.6,4.6,16.3l0,0c-2.2,3.9-6.3,6.1-10.5,6.1l0,0
				C1423.8,300.5,1421.8,300,1420,298.9z M1049.5,290.9c-3.1-5.8-1-13.1,4.9-16.3l0,0l0,0l0,0c5.8-3.1,13.1-0.9,16.2,4.9l0,0
				c3.1,5.8,1,13.1-4.9,16.3l0,0c-1.8,1-3.8,1.4-5.7,1.4l0,0C1055.8,297.2,1051.7,294.9,1049.5,290.9z M1362.9,273
				c-6.2-2.2-9.5-9.1-7.3-15.3l0,0c2.2-6.2,9.1-9.5,15.3-7.3l0,0l0,0l0,0c6.2,2.2,9.5,9.1,7.3,15.3l0,0c-1.8,4.9-6.4,8-11.3,8l0,0
				C1365.6,273.7,1364.3,273.5,1362.9,273z M1108,263.3c-2.1-6.3,1.3-13.1,7.6-15.2l0,0l0,0l0,0c6.3-2.1,13.1,1.3,15.2,7.6l0,0
				c2.1,6.3-1.3,13.1-7.6,15.2l0,0c-1.3,0.4-2.5,0.6-3.8,0.6l0,0C1114.4,271.5,1109.7,268.4,1108,263.3z M1302.4,257.3
				c-6.5-1.1-10.9-7.3-9.8-13.8l0,0c1.1-6.5,7.3-10.9,13.8-9.8l0,0l0,0l0,0c6.5,1.1,10.9,7.3,9.8,13.9l0,0c-1,5.8-6.1,10-11.8,10
				l0,0C1303.8,257.4,1303.1,257.4,1302.4,257.3z M1170.4,246.2c-1-6.6,3.5-12.7,10-13.7l0,0c6.6-1,12.7,3.5,13.7,10l0,0
				c1,6.5-3.5,12.7-10.1,13.7l0,0c-0.6,0.1-1.2,0.1-1.8,0.1l0,0C1176.4,256.4,1171.3,252.1,1170.4,246.2z M1228,240
				c0-6.6,5.4-12,12-12l0,0c6.6,0,12,5.4,12,12l0,0c0,6.6-5.4,12-12,12l0,0C1233.4,252,1228,246.6,1228,240z"/>
		</g>
	</g>
</g>
<g id="surface1_3_">
	<circle fill="#8F96C5" cx="560" cy="620" r="240"/>
	<circle fill="#DDEAF7" cx="560" cy="620" r="195"/>
	<path fill="#8F96C5" d="M455,620l105-165l105,165l-105,60L455,620z"/>
	<path fill="#8F96C5" d="M560,455l105,165l-105,60V455z"/>
	<path fill="#8F96C5" d="M455,642.5l105,60l105-60L560,785L455,642.5z"/>
	<path fill="#8F96C5" d="M560,702.5l105-60L560,785V702.5z"/>
	<path fill="#8F96C5" d="M455,620l105-45l105,45l-105,60L455,620z"/>
	<path fill="#8F96C5" d="M560,575l105,45l-105,60V575z"/>
</g>
<g id="surface1_4_">
	<circle fill="#8F96C5" cx="1920" cy="620" r="240"/>
	<circle fill="#DDEAF7" cx="1920" cy="620" r="195"/>
	<path fill="#8F96C5" d="M1815,620l105-165l105,165l-105,60L1815,620z"/>
	<path fill="#8F96C5" d="M1920,455l105,165l-105,60V455z"/>
	<path fill="#8F96C5" d="M1815,642.5l105,60l105-60L1920,785L1815,642.5z"/>
	<path fill="#8F96C5" d="M1920,702.5l105-60L1920,785V702.5z"/>
	<path fill="#8F96C5" d="M1815,620l105-45l105,45l-105,60L1815,620z"/>
	<path fill="#8F96C5" d="M1920,575l105,45l-105,60V575z"/>
</g>
<g>
	<path opacity="0.1" enable-background="new    " d="M1842.7,392.7C1748.1,424.9,1680,514.5,1680,620s68.1,195.1,162.7,227.3
		c55.7-59.5,89.8-139.4,89.8-227.3S1898.4,452.2,1842.7,392.7z"/>
	<path opacity="0.1" enable-background="new    " d="M637.3,392.7c-55.7,59.5-89.8,139.4-89.8,227.3s34.1,167.8,89.8,227.3
		C731.9,815.1,800,725.5,800,620S731.9,424.9,637.3,392.7z"/>
</g>
<g id="surface1_1_">
	<circle fill="#3E4149" cx="1600" cy="620" r="280"/>
	<circle fill="#DDEAF7" cx="1600" cy="620" r="227.5"/>
	<path fill="#3E4149" d="M1477.5,620L1600,427.5L1722.5,620L1600,690L1477.5,620z"/>
	<path fill="#3E4149" d="M1600,427.5L1722.5,620L1600,690V427.5z"/>
	<path fill="#3E4149" d="M1477.5,646.2l122.5,70l122.5-70L1600,812.5L1477.5,646.2z"/>
	<path fill="#3E4149" d="M1600,716.2l122.5-70L1600,812.5V716.2z"/>
	<path fill="#3E4149" d="M1477.5,620l122.5-52.5l122.5,52.5L1600,690L1477.5,620z"/>
	<path fill="#3E4149" d="M1600,567.5l122.5,52.5L1600,690V567.5z"/>
</g>
<g id="surface1_2_">
	<circle fill="#3E4149" cx="880" cy="620" r="280"/>
	<circle fill="#DDEAF7" cx="880" cy="620" r="227.5"/>
	<path fill="#3E4149" d="M757.5,620L880,427.5L1002.5,620L880,690L757.5,620z"/>
	<path fill="#3E4149" d="M880,427.5L1002.5,620L880,690V427.5z"/>
	<path fill="#3E4149" d="M757.5,646.2l122.5,70l122.5-70L880,812.5L757.5,646.2z"/>
	<path fill="#3E4149" d="M880,716.2l122.5-70L880,812.5V716.2z"/>
	<path fill="#3E4149" d="M757.5,620L880,567.5l122.5,52.5L880,690L757.5,620z"/>
	<path fill="#3E4149" d="M880,567.5l122.5,52.5L880,690V567.5z"/>
</g>
<g>
	<circle display="none" opacity="0.14" enable-background="new    " cx="1240" cy="620" r="360"/>
	<path opacity="0.1" enable-background="new    " d="M1620,620c0-103.4-41.3-197.2-108.4-265.7c-111.3,37-191.6,142-191.6,265.7
		s80.3,228.7,191.6,265.7C1578.7,817.2,1620,723.4,1620,620z"/>
	<path opacity="0.1" enable-background="new    " d="M968.4,354.3C901.3,422.8,860,516.6,860,620s41.3,197.2,108.4,265.7
		c111.3-37,191.6-141.9,191.6-265.7S1079.7,391.3,968.4,354.3z"/>
</g>
<g id="surface1">
	<circle fill="#5E6076" cx="1240" cy="620" r="320"/>
	<circle fill="#F2F4FF" cx="1240" cy="620" r="260"/>
	<path fill="#5E6076" d="M1100,620l140-220l140,220l-140,80L1100,620z"/>
	<path fill="#5E6076" d="M1240,400l140,220l-140,80V400z"/>
	<path fill="#5E6076" d="M1100,650l140,80l140-80l-140,190L1100,650z"/>
	<path fill="#5E6076" d="M1240,730l140-80l-140,190V730z"/>
	<path fill="#5E6076" d="M1100,620l140-60l140,60l-140,80L1100,620z"/>
	<path fill="#5E6076" d="M1240,560l140,60l-140,80V560z"/>
</g>
</svg>
