<?xml version="1.0" encoding="utf-8"?>
<!-- Generator: Adobe Illustrator 21.1.0, SVG Export Plug-In . SVG Version: 6.00 Build 0)  -->
<svg version="1.1" id="Layer_1" xmlns="http://www.w3.org/2000/svg" xmlns:xlink="http://www.w3.org/1999/xlink" x="0px" y="0px"
	 width="1120px" height="560px" viewBox="0 0 1120 560" enable-background="new 0 0 1120 560" xml:space="preserve">
<rect display="none" fill="#FFFFFF" width="1120" height="560"/>
<g>
	<g>
		<circle fill="#3E4149" cx="220" cy="280" r="220"/>
		<circle fill="#DDEAF7" cx="220" cy="280" r="185.6"/>
		<g>
			<g>
				<polygon fill="#DDEAF7" points="135.5,298.2 220,418.5 304.6,298.2 220,350.2 				"/>
				<polygon fill="#DDEAF7" points="304.6,279.3 220,141.6 135.5,279.3 220,330.3 				"/>
			</g>
			<polygon fill="#5E6076" points="220,330.3 220,141.6 304.6,279.3 			"/>
			<polygon fill="#8F96C5" points="220,141.6 220,330.3 135.5,279.3 			"/>
			<polygon fill="#5E6076" points="220,350.2 220,418.5 304.6,298.2 			"/>
			<polygon fill="#8F96C5" points="135.5,298.2 220,350.2 220,418.5 			"/>
			<polygon fill="#3E4149" points="220,330.3 304.6,279.3 220,235.9 			"/>
			<polygon fill="#5E6076" points="220,235.9 220,330.3 135.5,279.3 			"/>
		</g>
	</g>
</g>
<g>
	<g>
		<circle fill="#3E4149" cx="900" cy="280" r="220"/>
		<circle fill="#DDEAF7" cx="900" cy="280" r="185.6"/>
		<g>
			<g>
				<polygon fill="#DDEAF7" points="815.5,298.2 900,418.5 984.6,298.2 900,350.2 				"/>
				<polygon fill="#DDEAF7" points="984.6,279.3 900,141.6 815.5,279.3 900,330.3 				"/>
			</g>
			<polygon fill="#5E6076" points="900,330.3 900,141.6 984.6,279.3 			"/>
			<polygon fill="#8F96C5" points="900,141.6 900,330.3 815.5,279.3 			"/>
			<polygon fill="#5E6076" points="900,350.2 900,418.5 984.6,298.2 			"/>
			<polygon fill="#8F96C5" points="815.5,298.2 900,350.2 900,418.5 			"/>
			<polygon fill="#3E4149" points="900,330.3 984.6,279.3 900,235.9 			"/>
			<polygon fill="#5E6076" points="900,235.9 900,330.3 815.5,279.3 			"/>
		</g>
	</g>
</g>
<g>
	<g>
		<circle fill="#3E4149" cx="560" cy="280" r="280"/>
		<circle fill="#DDEAF7" cx="560" cy="280" r="236.2"/>
		<g>
			<g>
				<polygon fill="#DDEAF7" points="452.4,303.2 560,456.3 667.7,303.2 560,369.3 				"/>
				<polygon fill="#DDEAF7" points="667.7,279.1 560,103.8 452.4,279.1 560,344 				"/>
			</g>
			<polygon fill="#5E6076" points="560,344 560,103.8 667.7,279.1 			"/>
			<polygon fill="#8F96C5" points="560,103.8 560,344 452.4,279.1 			"/>
			<polygon fill="#5E6076" points="560,369.3 560,456.3 667.7,303.2 			"/>
			<polygon fill="#8F96C5" points="452.4,303.2 560,369.3 560,456.3 			"/>
			<polygon fill="#3E4149" points="560,344 667.7,279.1 560,223.9 			"/>
			<polygon fill="#5E6076" points="560,223.9 560,344 452.4,279.1 			"/>
		</g>
	</g>
</g>
</svg>
