<?xml version="1.0" encoding="utf-8"?>
<!-- Generator: Adobe Illustrator 21.1.0, SVG Export Plug-In . SVG Version: 6.00 Build 0)  -->
<svg version="1.1" id="Layer_1" xmlns="http://www.w3.org/2000/svg" xmlns:xlink="http://www.w3.org/1999/xlink" x="0px" y="0px"
	 width="1120px" height="800px" viewBox="0 0 1120 800" enable-background="new 0 0 1120 800" xml:space="preserve">
<g id="surface1_4_">
	<circle display="none" fill="#FFFFFF" cx="760" cy="400" r="360"/>
	<g display="none">
		
			<circle display="inline" fill="none" stroke="#FF3B30" stroke-width="24" stroke-linecap="round" stroke-linejoin="round" stroke-dasharray="0,64.7384" cx="760" cy="400" r="340"/>
	</g>
	<g>
		<path fill="#F2F4FF" d="M727,750.5c-6.6-0.6-11.5-6.5-10.8-13.1l0,0c0.6-6.6,6.5-11.5,13.1-10.8l0,0c6.6,0.6,11.5,6.5,10.8,13.1
			l0,0c-0.6,6.2-5.8,10.9-11.9,10.9l0,0C727.7,750.5,727.3,750.5,727,750.5z M780.7,739.6c-0.6-6.6,4.2-12.5,10.8-13.1l0,0
			c6.6-0.6,12.5,4.2,13.1,10.8l0,0c0.6,6.6-4.2,12.5-10.8,13.1l0,0c-0.4,0-0.8,0.1-1.2,0.1l0,0C786.6,750.5,781.3,745.8,780.7,739.6
			z M661.2,738L661.2,738L661.2,738c-6.4-1.9-10-8.5-8.1-14.9l0,0c1.8-6.4,8.5-10,14.9-8.2l0,0c6.4,1.9,10,8.5,8.2,14.9l0,0
			c-1.5,5.2-6.3,8.6-11.5,8.6l0,0C663.5,738.4,662.4,738.3,661.2,738z M844.6,729.6c-1.9-6.3,1.8-13,8.1-14.9l0,0
			c6.4-1.9,13,1.8,14.9,8.1l0,0c1.9,6.4-1.8,13-8.1,14.9l0,0l0,0l0,0c-1.1,0.3-2.3,0.5-3.4,0.5l0,0
			C851,738.2,846.2,734.8,844.6,729.6z M599.1,713.1c-5.9-3-8.2-10.3-5.2-16.2l0,0c3-5.9,10.3-8.2,16.2-5.2l0,0
			c5.9,3,8.2,10.3,5.2,16.2l0,0c-2.1,4.1-6.3,6.5-10.7,6.5l0,0C602.7,714.5,600.8,714,599.1,713.1z M905.4,707.6
			c-3-5.9-0.7-13.1,5.1-16.2l0,0c5.9-3,13.1-0.8,16.2,5.1l0,0c3,5.9,0.7,13.1-5.1,16.2l0,0c-1.8,0.9-3.7,1.3-5.5,1.3l0,0
			C911.8,714.1,907.6,711.8,905.4,707.6z M542.8,677c-5.2-4.1-6.1-11.6-2-16.8l0,0c4.1-5.2,11.6-6.1,16.8-2l0,0
			c5.2,4.1,6.1,11.6,2,16.8l0,0c-2.4,3-5.9,4.6-9.5,4.6l0,0C547.6,679.6,545,678.7,542.8,677z M961,674.5c-4.1-5.2-3.2-12.7,2-16.8
			l0,0c5.2-4.1,12.8-3.2,16.9,2l0,0c4.1,5.2,3.2,12.8-2,16.8l0,0l0,0l0,0c-2.2,1.7-4.8,2.6-7.4,2.6l0,0
			C966.9,679.1,963.4,677.5,961,674.5z M494.3,630.9c-4.3-5-3.8-12.6,1.2-16.9l0,0c5-4.4,12.6-3.8,16.9,1.2l0,0
			c4.3,5,3.8,12.6-1.2,16.9l0,0c-2.3,2-5.1,2.9-7.9,2.9l0,0C500,635,496.7,633.6,494.3,630.9z M1009.3,631.5
			c-5-4.3-5.6-11.9-1.2-16.9l0,0c4.3-5,11.9-5.5,16.9-1.2l0,0c5,4.3,5.5,11.9,1.2,16.9l0,0l0,0l0,0c-2.4,2.7-5.7,4.1-9.1,4.1l0,0
			C1014.3,634.4,1011.6,633.5,1009.3,631.5z M455.4,576.5c-3.3-5.7-1.4-13.1,4.3-16.4l0,0c5.7-3.3,13.1-1.4,16.4,4.4l0,0
			c3.3,5.7,1.4,13.1-4.4,16.4l0,0c-1.9,1.1-4,1.6-6,1.6l0,0C461.6,582.5,457.6,580.3,455.4,576.5z M1048.6,580.2
			c-5.7-3.3-7.7-10.7-4.4-16.4l0,0c3.3-5.7,10.6-7.7,16.4-4.4l0,0c5.7,3.3,7.7,10.6,4.4,16.4l0,0c-2.2,3.8-6.2,6-10.4,6l0,0
			C1052.6,581.8,1050.5,581.3,1048.6,580.2z M427.5,515.7c-2.2-6.3,1.1-13.1,7.4-15.3l0,0c6.3-2.2,13.1,1.1,15.3,7.4l0,0
			c2.2,6.2-1.1,13.1-7.4,15.3l0,0c-1.3,0.5-2.6,0.7-3.9,0.7l0,0C433.8,523.7,429.2,520.6,427.5,515.7z M1077.5,522.3
			c-6.3-2.2-9.6-9-7.4-15.3l0,0c2.2-6.3,9-9.6,15.3-7.4l0,0c6.3,2.2,9.6,9,7.4,15.3l0,0c-1.7,5-6.4,8.1-11.3,8.1l0,0
			C1080.2,523,1078.8,522.8,1077.5,522.3z M411.6,450.7c-1-6.6,3.6-12.7,10.2-13.6l0,0c6.6-0.9,12.6,3.6,13.6,10.2l0,0
			c0.9,6.6-3.6,12.6-10.2,13.6l0,0c-0.6,0.1-1.2,0.1-1.7,0.1l0,0C417.6,460.9,412.5,456.6,411.6,450.7z M1094.9,460.1
			c-6.6-0.9-11.1-7-10.2-13.6l0,0c0.9-6.6,7-11.1,13.6-10.2l0,0c6.6,0.9,11.1,7,10.2,13.6l0,0c-0.9,6-6,10.3-11.9,10.3l0,0
			C1096.1,460.2,1095.5,460.1,1094.9,460.1z M419.8,396.4c-6.6-0.3-11.8-5.9-11.5-12.5l0,0l0,0l0,0c0.3-6.6,5.9-11.8,12.5-11.5l0,0
			c6.6,0.3,11.8,5.9,11.5,12.5l0,0c-0.3,6.4-5.6,11.5-12,11.5l0,0C420.2,396.4,420,396.4,419.8,396.4z M1087.6,384.2
			c-0.3-6.6,4.8-12.2,11.4-12.5l0,0c6.6-0.3,12.2,4.8,12.6,11.4l0,0c0.3,6.6-4.8,12.2-11.4,12.6l0,0c-0.2,0-0.4,0-0.6,0l0,0
			C1093.2,395.6,1087.9,390.6,1087.6,384.2z M426.6,332.1c-6.4-1.5-10.4-8-8.9-14.5l0,0c1.6-6.4,8-10.4,14.5-8.9l0,0
			c6.4,1.5,10.4,8,8.9,14.5l0,0c-1.3,5.5-6.2,9.2-11.7,9.2l0,0C428.5,332.4,427.5,332.3,426.6,332.1z M1078.8,322.5L1078.8,322.5
			c-1.6-6.4,2.4-12.9,8.8-14.5l0,0c6.4-1.6,12.9,2.4,14.5,8.8l0,0l0,0l0,0c1.6,6.4-2.4,12.9-8.8,14.5l0,0c-1,0.2-1.9,0.3-2.8,0.3
			l0,0C1085,331.7,1080.1,328,1078.8,322.5z M445.4,270.2c-6-2.7-8.7-9.9-6-15.9l0,0c2.8-6,9.9-8.7,15.9-5.9l0,0
			c6,2.7,8.7,9.9,6,15.9l0,0c-2,4.4-6.4,7-10.9,7l0,0C448.7,271.3,447,271,445.4,270.2z M1058.4,263.6L1058.4,263.6
			c-2.8-6-0.1-13.1,5.9-15.9l0,0c6-2.8,13.2-0.1,15.9,5.9l0,0l0,0l0,0c2.8,6,0.1,13.1-5.9,15.9l0,0c-1.6,0.7-3.3,1.1-5,1.1l0,0
			C1064.8,270.6,1060.4,268,1058.4,263.6z M475.7,213.1c-5.4-3.8-6.7-11.3-2.8-16.7l0,0c3.8-5.4,11.3-6.7,16.7-2.8l0,0
			c5.4,3.8,6.7,11.3,2.8,16.7l0,0c-2.3,3.3-6,5-9.8,5l0,0C480.2,215.3,477.8,214.6,475.7,213.1z M1027.1,209.6
			c-3.8-5.4-2.6-12.9,2.8-16.7l0,0c5.4-3.9,12.9-2.6,16.7,2.8l0,0l0,0l0,0c3.9,5.4,2.6,12.9-2.8,16.7l0,0c-2.1,1.5-4.5,2.2-7,2.2
			l0,0C1033.2,214.7,1029.5,212.9,1027.1,209.6z M516.2,162.7c-4.6-4.8-4.4-12.4,0.4-17l0,0c4.8-4.6,12.4-4.4,17,0.4l0,0
			c4.6,4.8,4.4,12.4-0.4,17l0,0c-2.3,2.2-5.3,3.3-8.3,3.3l0,0C521.7,166.4,518.6,165.1,516.2,162.7z M986.3,162.5
			c-4.8-4.6-5-12.2-0.4-17l0,0c4.6-4.8,12.2-5,17-0.4l0,0l0,0l0,0c4.8,4.6,5,12.2,0.4,17l0,0c-2.4,2.5-5.5,3.7-8.7,3.7l0,0
			C991.6,165.9,988.6,164.8,986.3,162.5z M565.5,120.8c-3.6-5.6-2-13,3.6-16.6l0,0c5.6-3.6,13-2,16.6,3.6l0,0c3.6,5.6,2,13-3.6,16.6
			l0,0c-2,1.3-4.3,1.9-6.5,1.9l0,0C571.7,126.3,567.8,124.4,565.5,120.8z M937.3,124L937.3,124c-5.6-3.6-7.2-11-3.6-16.6l0,0
			c3.6-5.6,11-7.2,16.6-3.6l0,0l0,0l0,0c5.6,3.6,7.2,11,3.6,16.6l0,0c-2.3,3.6-6.2,5.5-10.1,5.5l0,0
			C941.5,125.9,939.3,125.3,937.3,124z M621.8,89c-2.5-6.2,0.5-13.1,6.7-15.6l0,0c6.1-2.5,13.1,0.5,15.6,6.6l0,0
			c2.5,6.1-0.5,13.1-6.6,15.6l0,0c-1.5,0.6-3,0.9-4.5,0.9l0,0C628.2,96.5,623.7,93.7,621.8,89z M881.9,95.4
			c-6.2-2.5-9.1-9.4-6.7-15.6l0,0c2.5-6.2,9.4-9.2,15.6-6.7l0,0l0,0l0,0c6.2,2.5,9.1,9.5,6.7,15.6l0,0c-1.9,4.7-6.4,7.5-11.1,7.5
			l0,0C884.8,96.2,883.3,96,881.9,95.4z M683.1,68.5c-1.3-6.5,3-12.8,9.5-14.1l0,0c6.5-1.3,12.8,3,14.1,9.5l0,0
			c1.3,6.5-3,12.8-9.5,14.1l0,0c-0.8,0.1-1.5,0.2-2.3,0.2l0,0C689.3,78.2,684.2,74.2,683.1,68.5z M822.1,77.9
			c-6.5-1.2-10.8-7.5-9.5-14l0,0c1.2-6.5,7.5-10.8,14-9.5l0,0l0,0l0,0c6.5,1.2,10.8,7.5,9.5,14l0,0c-1.1,5.8-6.1,9.8-11.8,9.8l0,0
			C823.6,78.1,822.8,78,822.1,77.9z M747.2,60c0-6.6,5.3-12,12-12l0,0c0.1,0,0.3,0,0.4,0l0,0c0.1,0,0.2,0,0.4,0l0,0
			c6.6,0,12,5.4,12,12l0,0c0,6.6-5.4,12-12,12l0,0c-0.1,0-0.2,0-0.4,0l0,0c-0.1,0-0.2,0-0.4,0l0,0l0,0l0,0
			C752.6,72,747.2,66.6,747.2,60z"/>
	</g>
</g>
<g id="surface1_2_">
	<circle display="none" fill="#FFFFFF" cx="400" cy="400" r="400"/>
	<g display="none">
		
			<circle display="inline" fill="none" stroke="#FF3B30" stroke-width="24" stroke-linecap="round" stroke-linejoin="round" stroke-dasharray="0,64.7384" cx="400" cy="400" r="380"/>
	</g>
	<g>
		<g>
			<path fill="#F2F4FF" d="M417,779.8c-0.5-6.6,4.5-12.4,11.1-12.9l0,0c6.6-0.5,12.4,4.5,12.9,11.1l0,0c0.5,6.6-4.5,12.4-11.1,12.9
				l0,0l0,0l0,0c-0.3,0-0.6,0-0.9,0l0,0C422.7,790.9,417.5,786.1,417,779.8z M363.2,790.3C363.2,790.3,363.2,790.3,363.2,790.3
				L363.2,790.3c-6.6-0.6-11.4-6.5-10.8-13.1l0,0c0.6-6.6,6.5-11.5,13.1-10.8l0,0c6.6,0.6,11.5,6.5,10.8,13.1l0,0
				c-0.6,6.2-5.8,10.9-11.9,10.9l0,0C364,790.3,363.6,790.3,363.2,790.3z M481.1,771.5c-1.6-6.4,2.3-12.9,8.7-14.6l0,0
				c6.4-1.6,13,2.3,14.6,8.7l0,0c1.6,6.4-2.3,13-8.7,14.6l0,0l0,0l0,0c-1,0.2-2,0.4-2.9,0.4l0,0C487.4,780.6,482.5,777,481.1,771.5z
				 M297.6,778.5C297.6,778.5,297.6,778.5,297.6,778.5L297.6,778.5c-6.4-1.7-10.2-8.3-8.5-14.7l0,0c1.7-6.4,8.3-10.2,14.7-8.5l0,0
				c6.4,1.7,10.2,8.3,8.5,14.7l0,0c-1.5,5.3-6.3,8.9-11.6,8.9l0,0C299.7,778.9,298.6,778.8,297.6,778.5z M542.9,752.4
				c-2.7-6.1,0-13.2,6.1-15.8l0,0c6.1-2.7,13.1,0.1,15.8,6.1l0,0c2.7,6.1-0.1,13.2-6.1,15.8l0,0c-1.6,0.7-3.2,1-4.9,1l0,0
				C549.3,759.5,544.9,756.9,542.9,752.4z M234.9,755.6c-6-2.8-8.6-9.9-5.8-15.9l0,0c2.8-6,9.9-8.6,15.9-5.8l0,0
				c6,2.8,8.6,9.9,5.8,15.9l0,0c-2,4.4-6.4,6.9-10.9,6.9l0,0C238.3,756.8,236.5,756.4,234.9,755.6z M600.5,723.1
				c-3.7-5.5-2.2-13,3.3-16.6l0,0c5.5-3.7,13-2.2,16.7,3.3l0,0c3.7,5.5,2.2,13-3.3,16.6l0,0l0,0l0,0c-2,1.4-4.4,2-6.6,2l0,0
				C606.6,728.4,602.8,726.5,600.5,723.1z M177,722.5c-5.5-3.8-6.8-11.2-3-16.7l0,0c3.8-5.5,11.2-6.8,16.7-3l0,0
				c5.5,3.8,6.8,11.2,3,16.7l0,0c-2.3,3.4-6.1,5.2-9.9,5.2l0,0C181.5,724.6,179.1,723.9,177,722.5z M652.3,684.4
				c-4.5-4.8-4.3-12.4,0.5-17l0,0c4.8-4.5,12.4-4.3,17,0.5l0,0c4.5,4.8,4.3,12.4-0.5,17l0,0l0,0l0,0c-2.3,2.2-5.3,3.3-8.2,3.3l0,0
				C657.9,688.1,654.7,686.9,652.3,684.4z M125.6,680c-4.7-4.6-4.8-12.2-0.2-17l0,0c4.6-4.7,12.2-4.8,17-0.2l0,0
				c4.7,4.6,4.8,12.2,0.2,17l0,0c-2.3,2.4-5.5,3.6-8.6,3.6l0,0C131,683.4,128,682.3,125.6,680z M696.9,637.5
				c-5.3-4-6.4-11.5-2.4-16.8l0,0c4-5.3,11.5-6.4,16.8-2.4l0,0c5.3,4,6.4,11.5,2.4,16.8l0,0c-2.4,3.1-6,4.8-9.6,4.8l0,0
				C701.6,639.9,699.1,639.1,696.9,637.5z M82.1,629.5L82.1,629.5L82.1,629.5c-3.9-5.4-2.7-12.9,2.7-16.8l0,0
				c5.4-3.9,12.9-2.7,16.8,2.7l0,0c3.9,5.4,2.7,12.9-2.7,16.8l0,0c-2.1,1.5-4.6,2.3-7,2.3l0,0C88.1,634.4,84.5,632.7,82.1,629.5z
				 M732.9,583.7c-5.9-3-8.2-10.3-5.2-16.2l0,0c3-5.9,10.2-8.2,16.2-5.2l0,0c5.9,3,8.2,10.2,5.2,16.2l0,0c0,0,0,0,0,0l0,0
				c-2.1,4.1-6.3,6.5-10.7,6.5l0,0C736.5,585.1,734.7,584.6,732.9,583.7z M47.8,572.3L47.8,572.3L47.8,572.3
				c-2.9-6-0.5-13.1,5.5-16.1l0,0c6-2.9,13.1-0.5,16,5.5l0,0c2.9,5.9,0.5,13.1-5.5,16l0,0c-1.7,0.8-3.5,1.2-5.3,1.2l0,0
				C54.1,579,49.9,576.5,47.8,572.3z M759.3,524.6c-6.3-2-9.9-8.7-7.9-15l0,0c2-6.3,8.7-9.9,15-7.9l0,0c6.3,2,9.9,8.7,7.9,15l0,0
				c-1.6,5.1-6.3,8.4-11.5,8.4l0,0C761.7,525.2,760.5,525,759.3,524.6z M23.7,510.1c-1.9-6.4,1.8-13,8.1-14.9l0,0
				c6.4-1.9,13,1.8,14.9,8.2l0,0c1.9,6.4-1.8,13-8.2,14.9l0,0c-1.1,0.3-2.2,0.5-3.4,0.5l0,0C30,518.8,25.2,515.3,23.7,510.1z
				 M775.2,462c-6.6-0.9-11.2-6.9-10.3-13.5l0,0c0.9-6.6,6.9-11.2,13.5-10.3l0,0c6.6,0.9,11.2,6.9,10.3,13.5l0,0
				c-0.8,6-6,10.4-11.9,10.4l0,0C776.2,462.1,775.7,462,775.2,462z M10.5,444.7L10.5,444.7L10.5,444.7c-0.8-6.6,4-12.5,10.6-13.3
				l0,0c6.6-0.8,12.5,4,13.3,10.6l0,0c0.8,6.6-4,12.5-10.6,13.3l0,0c-0.5,0-0.9,0.1-1.4,0.1l0,0C16.4,455.4,11.2,450.9,10.5,444.7z
				 M767.7,385.9c-0.2-6.6,4.9-12.2,11.5-12.4l0,0c6.6-0.2,12.2,4.9,12.4,11.5l0,0c0.2,6.6-4.9,12.2-11.5,12.4l0,0
				c-0.2,0-0.3,0-0.5,0l0,0C773.3,397.5,768,392.4,767.7,385.9z M19.9,390.8c-6.6-0.4-11.7-6-11.3-12.6l0,0
				c0.4-6.6,6-11.7,12.6-11.3l0,0c6.6,0.4,11.7,6,11.3,12.6l0,0c-0.4,6.4-5.6,11.3-12,11.3l0,0C20.4,390.8,20.1,390.8,19.9,390.8z
				 M760.1,323.8c-1.4-6.5,2.8-12.9,9.3-14.2l0,0c6.5-1.4,12.8,2.8,14.2,9.3l0,0l0,0l0,0c1.4,6.5-2.8,12.9-9.3,14.2l0,0
				c-0.8,0.2-1.7,0.3-2.5,0.3l0,0C766.3,333.3,761.3,329.5,760.1,323.8z M26.9,326.5c-6.4-1.5-10.5-7.9-9-14.4l0,0
				c1.5-6.5,7.9-10.5,14.4-9l0,0c6.5,1.5,10.5,7.9,9,14.4l0,0c-1.3,5.6-6.2,9.3-11.7,9.3l0,0C28.7,326.8,27.8,326.7,26.9,326.5z
				 M742,263.9c-2.5-6.2,0.5-13.1,6.7-15.6l0,0c6.2-2.5,13.1,0.5,15.6,6.7l0,0c2.5,6.2-0.5,13.1-6.7,15.6l0,0
				c-1.5,0.6-3,0.9-4.4,0.9l0,0C748.4,271.5,743.9,268.6,742,263.9z M44.8,264.3c-6.1-2.6-9-9.6-6.4-15.7l0,0c0,0,0,0,0,0l0,0
				c2.6-6.1,9.6-9,15.7-6.4l0,0c6.1,2.6,9,9.6,6.4,15.7l0,0c-1.9,4.6-6.4,7.4-11.1,7.4l0,0C47.8,265.2,46.3,264.9,44.8,264.3z
				 M714,208L714,208c-3.5-5.6-1.7-13,4-16.5l0,0c5.7-3.5,13-1.7,16.5,4l0,0c3.5,5.6,1.7,13-4,16.5l0,0c-1.9,1.2-4.1,1.8-6.3,1.8
				l0,0C720.2,213.7,716.2,211.7,714,208z M72.9,206c-5.6-3.6-7.2-11-3.7-16.6l0,0l0,0l0,0c3.6-5.6,11-7.2,16.6-3.7l0,0
				c5.6,3.6,7.2,11,3.7,16.6l0,0c-2.3,3.6-6.2,5.5-10.1,5.5l0,0C77.2,207.9,74.9,207.3,72.9,206z M676.9,157.6L676.9,157.6
				c-4.4-5-3.9-12.6,1.1-16.9l0,0c5-4.4,12.6-3.9,16.9,1.1l0,0c4.4,5,3.9,12.6-1.1,16.9l0,0c-2.3,2-5.1,3-7.9,3l0,0
				C682.5,161.6,679.2,160.3,676.9,157.6z M110.6,153.4c-4.9-4.5-5.3-12-0.8-17l0,0c4.5-4.9,12-5.3,17-0.8l0,0
				c4.9,4.5,5.3,12,0.8,17l0,0c-2.4,2.6-5.6,3.9-8.9,3.9l0,0C115.8,156.6,112.9,155.5,110.6,153.4z M631.8,114.1
				c-5.2-4.2-5.9-11.7-1.8-16.9l0,0c4.2-5.1,11.7-5.9,16.9-1.8l0,0c5.1,4.2,5.9,11.7,1.8,16.9l0,0c-2.4,2.9-5.8,4.4-9.3,4.4l0,0
				C636.6,116.8,634,115.9,631.8,114.1z M156.6,107.9c-4.1-5.2-3.2-12.8,2-16.8l0,0c5.2-4.1,12.8-3.2,16.9,2l0,0
				c4.1,5.2,3.2,12.8-2,16.9l0,0c-2.2,1.7-4.8,2.6-7.4,2.6l0,0C162.5,112.6,158.9,111,156.6,107.9z M580,78.9
				c-5.8-3.2-7.8-10.6-4.6-16.3l0,0c3.2-5.8,10.6-7.8,16.3-4.6l0,0c5.8,3.2,7.8,10.6,4.6,16.3l0,0c-2.2,3.9-6.3,6.1-10.5,6.1l0,0
				C583.8,80.5,581.8,80,580,78.9z M209.5,70.9c-3.1-5.8-1-13.1,4.9-16.3l0,0l0,0l0,0c5.8-3.1,13.1-0.9,16.2,4.9l0,0
				c3.1,5.8,1,13.1-4.9,16.3l0,0c-1.8,1-3.8,1.4-5.7,1.4l0,0C215.8,77.2,211.7,74.9,209.5,70.9z M522.9,53
				c-6.2-2.2-9.5-9.1-7.3-15.3l0,0c2.2-6.2,9.1-9.5,15.3-7.3l0,0c0,0,0,0,0,0l0,0c6.2,2.2,9.5,9.1,7.3,15.3l0,0
				c-1.8,4.9-6.4,8-11.3,8l0,0C525.6,53.7,524.3,53.5,522.9,53z M268,43.3c-2.1-6.3,1.3-13.1,7.6-15.2l0,0c0,0,0,0,0,0l0,0
				c6.3-2.1,13.1,1.3,15.2,7.6l0,0c2.1,6.3-1.3,13.1-7.6,15.2l0,0c-1.3,0.4-2.5,0.6-3.8,0.6l0,0C274.4,51.5,269.7,48.4,268,43.3z
				 M462.4,37.3c-6.5-1.1-10.9-7.3-9.8-13.8l0,0c1.1-6.5,7.3-10.9,13.8-9.8l0,0l0,0l0,0c6.5,1.1,10.9,7.3,9.8,13.9l0,0
				c-1,5.8-6.1,10-11.8,10l0,0C463.8,37.4,463.1,37.4,462.4,37.3z M330.4,26.2c-1-6.6,3.5-12.7,10-13.7l0,0c6.6-1,12.7,3.5,13.7,10
				l0,0c1,6.5-3.5,12.7-10.1,13.7l0,0c-0.6,0.1-1.2,0.1-1.8,0.1l0,0C336.4,36.4,331.3,32.1,330.4,26.2z M388,20c0-6.6,5.4-12,12-12
				l0,0c6.6,0,12,5.4,12,12l0,0c0,6.6-5.4,12-12,12l0,0C393.4,32,388,26.6,388,20z"/>
		</g>
	</g>
</g>
<g id="surface1_1_">
	<circle fill="#8F96C5" cx="760" cy="400" r="280"/>
	<circle fill="#DDEAF7" cx="760" cy="400" r="227.5"/>
	<path fill="#8F96C5" d="M637.5,400L760,207.5L882.5,400L760,470L637.5,400z"/>
	<path fill="#8F96C5" d="M760,207.5L882.5,400L760,470V207.5z"/>
	<path fill="#8F96C5" d="M637.5,426.2l122.5,70l122.5-70L760,592.5L637.5,426.2z"/>
	<path fill="#8F96C5" d="M760,496.2l122.5-70L760,592.5V496.2z"/>
	<path fill="#8F96C5" d="M637.5,400L760,347.5L882.5,400L760,470L637.5,400z"/>
	<path fill="#8F96C5" d="M760,347.5L882.5,400L760,470V347.5z"/>
</g>
<g display="none">
	<circle display="inline" opacity="0.14" enable-background="new    " cx="400" cy="400" r="360"/>
	<path display="inline" opacity="0.14" fill="#333333" enable-background="new    " d="M651.1,142C550.5,184.5,480,284,480,400
		s70.5,215.5,171.1,258C718.3,592.6,760,501.2,760,400S718.3,207.4,651.1,142z"/>
	<path display="inline" opacity="0.14" fill="#333333" enable-background="new    " d="M148.9,142C81.7,207.4,40,298.8,40,400
		s41.7,192.6,108.9,258C249.5,615.5,320,516,320,400S249.5,184.5,148.9,142z"/>
</g>
<g>
	<circle display="none" opacity="0.14" enable-background="new    " cx="400" cy="400" r="360"/>
	<path opacity="0.1" enable-background="new    " d="M780,400c0-103.4-41.3-197.2-108.4-265.7C560.3,171.3,480,276.2,480,400
		s80.3,228.7,191.6,265.7C738.7,597.2,780,503.4,780,400z"/>
</g>
<g id="surface1">
	<circle fill="#3E4149" cx="400" cy="400" r="320"/>
	<circle fill="#DDEAF7" cx="400" cy="400" r="260"/>
	<path fill="#3E4149" d="M260,400l140-220l140,220l-140,80L260,400z"/>
	<path fill="#3E4149" d="M400,180l140,220l-140,80V180z"/>
	<path fill="#3E4149" d="M260,430l140,80l140-80L400,620L260,430z"/>
	<path fill="#3E4149" d="M400,510l140-80L400,620V510z"/>
	<path fill="#3E4149" d="M260,400l140-60l140,60l-140,80L260,400z"/>
	<path fill="#3E4149" d="M400,340l140,60l-140,80V340z"/>
</g>
</svg>
