<?xml version="1.0" encoding="utf-8"?>
<!-- Generator: Adobe Illustrator 21.1.0, SVG Export Plug-In . SVG Version: 6.00 Build 0)  -->
<svg version="1.1" id="Layer_1" xmlns="http://www.w3.org/2000/svg" xmlns:xlink="http://www.w3.org/1999/xlink" x="0px" y="0px"
	 width="1720px" height="720px" viewBox="0 0 1720 720" enable-background="new 0 0 1720 720" xml:space="preserve">
<g id="surface1_4_">
	<circle display="none" fill="#FFFFFF" cx="1360" cy="360" r="360"/>
	<g display="none">
		
			<circle display="inline" fill="none" stroke="#FF3B30" stroke-width="24" stroke-linecap="round" stroke-linejoin="round" stroke-dasharray="0,64.7384" cx="1360" cy="360" r="340"/>
	</g>
	<g>
		<path fill="#F2F4FF" d="M1327,710.5c-6.6-0.6-11.5-6.5-10.8-13.1l0,0c0.6-6.6,6.5-11.5,13.1-10.8h0c6.6,0.6,11.5,6.5,10.8,13.1
			l0,0c-0.6,6.2-5.8,10.9-11.9,10.9l0,0C1327.7,710.5,1327.3,710.5,1327,710.5z M1380.7,699.6c-0.6-6.6,4.2-12.5,10.8-13.1l0,0
			c6.6-0.6,12.5,4.2,13.1,10.8l0,0c0.6,6.6-4.2,12.5-10.8,13.1l0,0c-0.4,0-0.8,0.1-1.2,0.1l0,0
			C1386.6,710.5,1381.3,705.8,1380.7,699.6z M1261.2,698L1261.2,698L1261.2,698c-6.4-1.9-10-8.5-8.1-14.9l0,0
			c1.8-6.4,8.5-10,14.9-8.2l0,0c6.4,1.9,10,8.5,8.2,14.9l0,0c-1.5,5.2-6.3,8.6-11.5,8.6l0,0C1263.5,698.4,1262.4,698.3,1261.2,698z
			 M1444.6,689.6c-1.9-6.3,1.8-13,8.1-14.9v0c6.4-1.9,13,1.8,14.9,8.1l0,0c1.9,6.4-1.8,13-8.1,14.9l0,0l0,0l0,0
			c-1.1,0.3-2.3,0.5-3.4,0.5l0,0C1451,698.2,1446.2,694.8,1444.6,689.6z M1199.1,673.1c-5.9-3-8.2-10.3-5.2-16.2l0,0
			c3-5.9,10.3-8.2,16.2-5.2l0,0c5.9,3,8.2,10.3,5.2,16.2l0,0c-2.1,4.1-6.3,6.5-10.7,6.5l0,0C1202.7,674.5,1200.8,674,1199.1,673.1z
			 M1505.4,667.6c-3-5.9-0.7-13.1,5.1-16.2l0,0c5.9-3,13.1-0.8,16.2,5.1l0,0c3,5.9,0.7,13.1-5.1,16.2l0,0c-1.8,0.9-3.7,1.3-5.5,1.3
			l0,0C1511.8,674.1,1507.6,671.8,1505.4,667.6z M1142.8,637c-5.2-4.1-6.1-11.6-2-16.8l0,0c4.1-5.2,11.6-6.1,16.8-2l0,0
			c5.2,4.1,6.1,11.6,2,16.8l0,0c-2.4,3-5.9,4.6-9.5,4.6l0,0C1147.6,639.6,1145,638.7,1142.8,637z M1561,634.5
			c-4.1-5.2-3.2-12.7,2-16.8h0c5.2-4.1,12.8-3.2,16.9,2l0,0c4.1,5.2,3.2,12.8-2,16.8l0,0l0,0l0,0c-2.2,1.7-4.8,2.6-7.4,2.6l0,0
			C1566.9,639.1,1563.4,637.5,1561,634.5z M1094.3,590.9c-4.3-5-3.8-12.6,1.2-16.9l0,0c5-4.4,12.6-3.8,16.9,1.2l0,0
			c4.3,5,3.8,12.6-1.2,16.9l0,0c-2.3,2-5.1,2.9-7.9,2.9l0,0C1100,595,1096.7,593.6,1094.3,590.9z M1609.3,591.5
			c-5-4.3-5.6-11.9-1.2-16.9l0,0c4.3-5,11.9-5.5,16.9-1.2l0,0c5,4.3,5.5,11.9,1.2,16.9l0,0l0,0l0,0c-2.4,2.7-5.7,4.1-9.1,4.1l0,0
			C1614.3,594.4,1611.6,593.5,1609.3,591.5z M1055.4,536.5c-3.3-5.7-1.4-13.1,4.3-16.4l0,0c5.7-3.3,13.1-1.4,16.4,4.4l0,0
			c3.3,5.7,1.4,13.1-4.4,16.4l0,0c-1.9,1.1-4,1.6-6,1.6l0,0C1061.6,542.5,1057.6,540.3,1055.4,536.5z M1648.6,540.2
			c-5.7-3.3-7.7-10.7-4.4-16.4l0,0c3.3-5.7,10.6-7.7,16.4-4.4l0,0c5.7,3.3,7.7,10.6,4.4,16.4l0,0c-2.2,3.8-6.2,6-10.4,6l0,0
			C1652.6,541.8,1650.5,541.3,1648.6,540.2z M1027.5,475.7c-2.2-6.3,1.1-13.1,7.4-15.3l0,0c6.3-2.2,13.1,1.1,15.3,7.4v0
			c2.2,6.2-1.1,13.1-7.4,15.3l0,0c-1.3,0.5-2.6,0.7-3.9,0.7l0,0C1033.8,483.7,1029.2,480.6,1027.5,475.7z M1677.5,482.3
			c-6.3-2.2-9.6-9-7.4-15.3l0,0c2.2-6.3,9-9.6,15.3-7.4l0,0c6.3,2.2,9.6,9,7.4,15.3l0,0c-1.7,5-6.4,8.1-11.3,8.1l0,0
			C1680.2,483,1678.8,482.8,1677.5,482.3z M1011.6,410.7c-1-6.6,3.6-12.7,10.2-13.6l0,0c6.6-0.9,12.6,3.6,13.6,10.2l0,0
			c0.9,6.6-3.6,12.6-10.2,13.6l0,0c-0.6,0.1-1.2,0.1-1.7,0.1l0,0C1017.6,420.9,1012.5,416.6,1011.6,410.7z M1694.9,420.1
			c-6.6-0.9-11.1-7-10.2-13.6l0,0c0.9-6.6,7-11.1,13.6-10.2l0,0c6.6,0.9,11.1,7,10.2,13.6l0,0c-0.9,6-6,10.3-11.9,10.3l0,0
			C1696.1,420.2,1695.5,420.1,1694.9,420.1z M1019.8,356.4c-6.6-0.3-11.8-5.9-11.5-12.5l0,0c0,0,0,0,0,0l0,0
			c0.3-6.6,5.9-11.8,12.5-11.5l0,0c6.6,0.3,11.8,5.9,11.5,12.5l0,0c-0.3,6.4-5.6,11.5-12,11.5l0,0
			C1020.2,356.4,1020,356.4,1019.8,356.4z M1687.6,344.2c-0.3-6.6,4.8-12.2,11.4-12.5l0,0c6.6-0.3,12.2,4.8,12.6,11.4l0,0
			c0.3,6.6-4.8,12.2-11.4,12.6l0,0c-0.2,0-0.4,0-0.6,0l0,0C1693.2,355.6,1687.9,350.6,1687.6,344.2z M1026.6,292.1
			c-6.4-1.5-10.4-8-8.9-14.5l0,0c1.6-6.4,8-10.4,14.5-8.9l0,0c6.4,1.5,10.4,8,8.9,14.5l0,0c-1.3,5.5-6.2,9.2-11.7,9.2l0,0
			C1028.5,292.4,1027.5,292.3,1026.6,292.1z M1678.8,282.5L1678.8,282.5c-1.6-6.4,2.4-12.9,8.8-14.5l0,0c6.4-1.6,12.9,2.4,14.5,8.8
			l0,0l0,0l0,0c1.6,6.4-2.4,12.9-8.8,14.5l0,0c-1,0.2-1.9,0.3-2.8,0.3l0,0C1685,291.7,1680.1,288,1678.8,282.5z M1045.4,230.2
			c-6-2.7-8.7-9.9-6-15.9l0,0c2.8-6,9.9-8.7,15.9-5.9l0,0c6,2.7,8.7,9.9,6,15.9l0,0c-2,4.4-6.4,7-10.9,7l0,0
			C1048.7,231.3,1047,231,1045.4,230.2z M1658.4,223.6L1658.4,223.6c-2.8-6-0.1-13.1,5.9-15.9l0,0c6-2.8,13.2-0.1,15.9,5.9l0,0
			c0,0,0,0,0,0l0,0c2.8,6,0.1,13.1-5.9,15.9l0,0c-1.6,0.7-3.3,1.1-5,1.1l0,0C1664.8,230.6,1660.4,228,1658.4,223.6z M1075.7,173.1
			c-5.4-3.8-6.7-11.3-2.8-16.7l0,0c3.8-5.4,11.3-6.7,16.7-2.8l0,0c5.4,3.8,6.7,11.3,2.8,16.7l0,0c-2.3,3.3-6,5-9.8,5l0,0
			C1080.2,175.3,1077.8,174.6,1075.7,173.1z M1627.1,169.6c-3.8-5.4-2.6-12.9,2.8-16.7l0,0c5.4-3.9,12.9-2.6,16.7,2.8l0,0
			c0,0,0,0,0,0l0,0c3.9,5.4,2.6,12.9-2.8,16.7l0,0c-2.1,1.5-4.5,2.2-7,2.2l0,0C1633.2,174.7,1629.5,172.9,1627.1,169.6z
			 M1116.2,122.7c-4.6-4.8-4.4-12.4,0.4-17l0,0c4.8-4.6,12.4-4.4,17,0.4l0,0c4.6,4.8,4.4,12.4-0.4,17l0,0c-2.3,2.2-5.3,3.3-8.3,3.3
			l0,0C1121.7,126.4,1118.6,125.1,1116.2,122.7z M1586.3,122.5c-4.8-4.6-5-12.2-0.4-17l0,0c4.6-4.8,12.2-5,17-0.4l0,0l0,0l0,0
			c4.8,4.6,5,12.2,0.4,17l0,0c-2.4,2.5-5.5,3.7-8.7,3.7l0,0C1591.6,125.9,1588.6,124.8,1586.3,122.5z M1165.5,80.8
			c-3.6-5.6-2-13,3.6-16.6l0,0c5.6-3.6,13-2,16.6,3.6l0,0c3.6,5.6,2,13-3.6,16.6l0,0c-2,1.3-4.3,1.9-6.5,1.9l0,0
			C1171.7,86.3,1167.8,84.4,1165.5,80.8z M1537.3,84L1537.3,84c-5.6-3.6-7.2-11-3.6-16.6l0,0c3.6-5.6,11-7.2,16.6-3.6l0,0
			c0,0,0,0,0,0l0,0c5.6,3.6,7.2,11,3.6,16.6l0,0c-2.3,3.6-6.2,5.5-10.1,5.5l0,0C1541.5,85.9,1539.3,85.3,1537.3,84z M1221.8,49
			c-2.5-6.2,0.5-13.1,6.7-15.6l0,0c6.1-2.5,13.1,0.5,15.6,6.6l0,0c2.5,6.1-0.5,13.1-6.6,15.6l0,0c-1.5,0.6-3,0.9-4.5,0.9l0,0
			C1228.2,56.5,1223.7,53.7,1221.8,49z M1481.9,55.4c-6.2-2.5-9.1-9.4-6.7-15.6l0,0c2.5-6.2,9.4-9.2,15.6-6.7l0,0l0,0l0,0
			c6.2,2.5,9.1,9.5,6.7,15.6l0,0c-1.9,4.7-6.4,7.5-11.1,7.5l0,0C1484.8,56.2,1483.3,56,1481.9,55.4z M1283.1,28.5
			c-1.3-6.5,3-12.8,9.5-14.1l0,0c6.5-1.3,12.8,3,14.1,9.5l0,0c1.3,6.5-3,12.8-9.5,14.1l0,0c-0.8,0.1-1.5,0.2-2.3,0.2l0,0
			C1289.3,38.2,1284.2,34.2,1283.1,28.5z M1422.1,37.9c-6.5-1.2-10.8-7.5-9.5-14l0,0c1.2-6.5,7.5-10.8,14-9.5l0,0l0,0l0,0
			c6.5,1.2,10.8,7.5,9.5,14l0,0c-1.1,5.8-6.1,9.8-11.8,9.8l0,0C1423.6,38.1,1422.8,38,1422.1,37.9z M1347.2,20c0-6.6,5.3-12,12-12
			l0,0c0.1,0,0.3,0,0.4,0l0,0c0.1,0,0.2,0,0.4,0l0,0c6.6,0,12,5.4,12,12l0,0c0,6.6-5.4,12-12,12l0,0c-0.1,0-0.2,0-0.4,0l0,0
			c-0.1,0-0.2,0-0.4,0l0,0c0,0,0,0,0,0l0,0C1352.6,32,1347.2,26.6,1347.2,20z"/>
	</g>
</g>
<g id="surface1_5_">
	<circle display="none" fill="#FFFFFF" cx="320" cy="360" r="320"/>
	<g display="none">
		
			<circle display="inline" fill="none" stroke="#FF3B30" stroke-width="24" stroke-linecap="round" stroke-linejoin="round" stroke-dasharray="0,65.0011" cx="320" cy="360" r="300"/>
	</g>
	<g>
		<path fill="#F2F4FF" d="M286.6,670.2L286.6,670.2L286.6,670.2c-6.6-0.7-11.4-6.6-10.7-13.2l0,0c0.7-6.6,6.6-11.4,13.2-10.7l0,0
			c6.6,0.7,11.4,6.6,10.7,13.2l0,0c-0.6,6.2-5.9,10.7-11.9,10.7l0,0C287.5,670.3,287,670.3,286.6,670.2z M340.8,659.5
			c-0.7-6.6,4-12.5,10.6-13.2l0,0c6.6-0.7,12.5,4,13.2,10.6l0,0c0.7,6.6-4.1,12.5-10.6,13.2l0,0c-0.4,0-0.9,0.1-1.3,0.1l0,0
			C346.7,670.2,341.5,665.7,340.8,659.5z M220.7,655.9c-6.3-2.1-9.7-8.9-7.6-15.2l0,0c2.1-6.3,8.9-9.7,15.2-7.6l0,0
			c6.3,2.1,9.7,8.9,7.6,15.2l0,0c-1.7,5-6.4,8.2-11.4,8.2l0,0C223.2,656.5,222,656.3,220.7,655.9z M404.7,648.1
			c-2.1-6.3,1.2-13.1,7.5-15.2l0,0c6.3-2.1,13.1,1.2,15.2,7.5l0,0c2.1,6.3-1.2,13.1-7.5,15.2l0,0c-1.3,0.4-2.6,0.6-3.9,0.6l0,0
			C411.1,656.3,406.4,653.1,404.7,648.1z M159.4,627.6L159.4,627.6L159.4,627.6c-5.7-3.4-7.5-10.8-4.1-16.5l0,0
			c3.4-5.7,10.8-7.5,16.5-4.1v0c5.7,3.4,7.5,10.8,4.1,16.5l0,0c-2.2,3.8-6.2,5.8-10.3,5.8l0,0C163.5,629.3,161.4,628.7,159.4,627.6z
			 M464.6,623.2c-3.4-5.7-1.6-13,4.1-16.5l0,0c5.7-3.4,13-1.6,16.5,4.1l0,0c3.4,5.7,1.6,13-4.1,16.5l0,0c0,0,0,0,0,0l0,0
			c-1.9,1.2-4.1,1.7-6.2,1.7l0,0C470.8,629,466.9,626.9,464.6,623.2z M105.7,586.8c-4.8-4.5-5-12.1-0.5-17l0,0
			c4.6-4.8,12.1-5,17-0.5l0,0c4.8,4.5,5,12.1,0.5,17l0,0c-2.4,2.5-5.5,3.8-8.7,3.8l0,0C111,590,108,589,105.7,586.8z M517.8,585.9
			c-4.6-4.8-4.4-12.4,0.4-17l0,0c4.8-4.6,12.4-4.4,17,0.4l0,0c4.6,4.8,4.4,12.4-0.4,17l0,0l0,0l0,0c-2.3,2.2-5.3,3.3-8.3,3.3l0,0
			C523.3,589.6,520.1,588.4,517.8,585.9z M62,535.5c-3.7-5.5-2.3-12.9,3.2-16.7l0,0c5.5-3.7,12.9-2.3,16.7,3.2l0,0
			c3.7,5.5,2.3,12.9-3.2,16.7l0,0c-2.1,1.4-4.4,2.1-6.7,2.1l0,0C68.1,540.7,64.3,538.9,62,535.5z M561.7,538.1
			c-5.5-3.7-6.9-11.2-3.2-16.7l0,0c3.7-5.5,11.2-6.9,16.7-3.2l0,0c5.5,3.7,6.9,11.2,3.2,16.7l0,0c-2.3,3.4-6.1,5.3-9.9,5.3l0,0
			C566.1,540.2,563.8,539.5,561.7,538.1z M30.2,475.9c-2.5-6.2,0.5-13.1,6.7-15.6l0,0c6.2-2.5,13.1,0.5,15.6,6.7l0,0
			c2.5,6.2-0.5,13.1-6.7,15.6l0,0c-1.5,0.6-3,0.9-4.5,0.9l0,0C36.6,483.5,32.1,480.6,30.2,475.9z M594.4,482
			c-6.2-2.5-9.2-9.4-6.7-15.6l0,0c2.4-6.2,9.4-9.2,15.6-6.7l0,0c6.2,2.4,9.2,9.4,6.7,15.6l0,0c-1.9,4.7-6.4,7.6-11.1,7.6l0,0
			C597.4,482.9,595.9,482.6,594.4,482z M12.1,411c-1.1-6.5,3.4-12.7,9.9-13.8l0,0c6.5-1.1,12.7,3.4,13.8,9.9l0,0
			c1.1,6.5-3.4,12.7-9.9,13.8l0,0c-0.7,0.1-1.3,0.2-2,0.2l0,0C18.2,421,13.1,416.8,12.1,411z M614.2,420.2c-6.5-1.1-11-7.2-9.9-13.8
			l0,0c1.1-6.5,7.2-11,13.8-9.9l0,0c6.5,1.1,11,7.2,9.9,13.8l0,0c-1,5.9-6,10.1-11.8,10.1l0,0C615.5,420.4,614.8,420.3,614.2,420.2z
			 M19.8,356.2c-6.6-0.3-11.7-6-11.4-12.6l0,0c0.3-6.6,6-11.7,12.6-11.4l0,0c6.6,0.3,11.7,6,11.4,12.6l0,0
			c-0.3,6.4-5.6,11.4-12,11.4l0,0C20.2,356.2,20,356.2,19.8,356.2z M607.6,344.2L607.6,344.2c-0.4-6.6,4.7-12.3,11.3-12.6l0,0
			c6.6-0.4,12.3,4.7,12.6,11.3l0,0c0.4,6.6-4.7,12.3-11.3,12.6l0,0c-0.2,0-0.4,0-0.7,0l0,0C613.2,355.6,607.9,350.6,607.6,344.2z
			 M27.5,291.8c-6.4-1.8-10.1-8.4-8.4-14.8l0,0c1.8-6.4,8.4-10.2,14.8-8.4l0,0c6.4,1.8,10.1,8.4,8.4,14.8l0,0
			c-1.5,5.3-6.3,8.8-11.6,8.8l0,0C29.7,292.2,28.6,292.1,27.5,291.8z M597.5,282.8c-1.8-6.4,2-13,8.3-14.8l0,0
			c6.4-1.8,13,2,14.8,8.4l0,0c1.8,6.4-2,13-8.4,14.8l0,0c-1.1,0.3-2.2,0.4-3.2,0.4l0,0C603.8,291.6,599,288.1,597.5,282.8z
			 M49,230.5c-5.9-3.1-8.1-10.4-5-16.2l0,0c3.1-5.9,10.4-8.1,16.2-5l0,0c5.9,3.1,8.1,10.4,5,16.2l0,0c-2.2,4.1-6.3,6.4-10.6,6.4l0,0
			C52.7,231.9,50.8,231.5,49,230.5z M574.5,225c-3.1-5.9-0.9-13.1,5-16.2l0,0c5.9-3.1,13.1-0.9,16.2,5l0,0l0,0l0,0
			c3.1,5.8,0.9,13.1-5,16.2l0,0c-1.8,1-3.7,1.4-5.6,1.4l0,0C580.8,231.4,576.6,229,574.5,225z M83.2,175.3
			c-5.1-4.3-5.7-11.8-1.4-16.9l0,0c4.3-5.1,11.9-5.7,16.9-1.4l0,0c5.1,4.3,5.7,11.9,1.4,16.9v0c-2.4,2.8-5.8,4.2-9.2,4.2l0,0
			C88.2,178.2,85.5,177.3,83.2,175.3z M539.5,173.5c-4.3-5.1-3.7-12.6,1.4-16.9l0,0c5.1-4.3,12.6-3.7,16.9,1.4l0,0
			c4.3,5.1,3.7,12.6-1.4,16.9l0,0c-2.2,1.9-5,2.9-7.8,2.9l0,0C545.2,177.7,541.8,176.3,539.5,173.5z M128.5,128.8
			c-4-5.3-3-12.8,2.2-16.8l0,0c5.3-4,12.8-3,16.8,2.2l0,0c4,5.3,3,12.8-2.2,16.8l0,0c-2.2,1.7-4.7,2.5-7.3,2.5l0,0
			C134.4,133.5,130.8,131.9,128.5,128.8z M494.2,130.7L494.2,130.7c-5.3-4-6.3-11.5-2.3-16.8l0,0c4-5.3,11.5-6.3,16.8-2.3l0,0
			c0,0,0,0,0,0l0,0c5.3,4,6.3,11.5,2.3,16.8l0,0c-2.4,3.1-5.9,4.7-9.6,4.7l0,0C499,133.1,496.4,132.3,494.2,130.7z M182.6,93
			c-2.8-6-0.2-13.1,5.8-15.9l0,0c6-2.8,13.1-0.2,15.9,5.8l0,0c2.8,6,0.2,13.1-5.8,15.9l0,0c-1.6,0.8-3.4,1.1-5.1,1.1l0,0
			C188.9,99.9,184.6,97.3,182.6,93z M440.9,98.5L440.9,98.5c-6-2.8-8.6-9.9-5.8-15.9l0,0c2.8-6,9.9-8.6,15.9-5.8l0,0c0,0,0,0,0,0
			l0,0c6,2.8,8.6,9.9,5.8,15.9l0,0c-2,4.4-6.4,7-10.9,7l0,0C444.3,99.6,442.5,99.3,440.9,98.5z M243.2,69.7
			c-1.4-6.5,2.7-12.9,9.1-14.3l0,0c6.5-1.4,12.9,2.7,14.3,9.1l0,0c1.4,6.5-2.6,12.9-9.1,14.3l0,0c-0.9,0.2-1.8,0.3-2.6,0.3l0,0
			C249.4,79.1,244.4,75.3,243.2,69.7z M381.9,78.7c-6.5-1.4-10.6-7.8-9.1-14.3l0,0c1.4-6.5,7.8-10.6,14.3-9.2l0,0
			c6.5,1.4,10.6,7.8,9.2,14.3l0,0c-1.2,5.6-6.2,9.4-11.7,9.4l0,0C383.6,78.9,382.8,78.9,381.9,78.7z M307.3,60c0-6.6,5.4-12,12-12
			l0,0c0.1,0,0.2,0,0.4,0l0,0c0.1,0,0.2,0,0.3,0l0,0c6.6,0,12,5.4,12,12l0,0c0,6.6-5.4,12-12,12l0,0c-0.1,0-0.2,0-0.3,0l0,0
			c-0.1,0-0.2,0-0.3,0l0,0c0,0,0,0,0,0l0,0C312.7,72,307.3,66.6,307.3,60z"/>
	</g>
</g>
<g id="surface1_3_">
	<circle fill="#8F96C5" cx="320" cy="360" r="240"/>
	<circle fill="#DDEAF7" cx="320" cy="360" r="195"/>
	<path fill="#8F96C5" d="M215,360l105-165l105,165l-105,60L215,360z"/>
	<path fill="#8F96C5" d="M320,195l105,165l-105,60V195z"/>
	<path fill="#8F96C5" d="M215,382.5l105,60l105-60L320,525L215,382.5z"/>
	<path fill="#8F96C5" d="M320,442.5l105-60L320,525V442.5z"/>
	<path fill="#8F96C5" d="M215,360l105-45l105,45l-105,60L215,360z"/>
	<path fill="#8F96C5" d="M320,315l105,45l-105,60V315z"/>
</g>
<path opacity="0.1" enable-background="new    " d="M397.3,132.7c-55.7,59.5-89.8,139.4-89.8,227.3s34.1,167.8,89.8,227.3
	C491.9,555.1,560,465.5,560,360S491.9,164.9,397.3,132.7z"/>
<g id="surface1_1_">
	<circle fill="#3E4149" cx="1360" cy="360" r="280"/>
	<circle fill="#DDEAF7" cx="1360" cy="360" r="227.5"/>
	<path fill="#3E4149" d="M1237.5,360L1360,167.5L1482.5,360L1360,430L1237.5,360z"/>
	<path fill="#3E4149" d="M1360,167.5L1482.5,360L1360,430V167.5z"/>
	<path fill="#3E4149" d="M1237.5,386.2l122.5,70l122.5-70L1360,552.5L1237.5,386.2z"/>
	<path fill="#3E4149" d="M1360,456.2l122.5-70L1360,552.5V456.2z"/>
	<path fill="#3E4149" d="M1237.5,360l122.5-52.5l122.5,52.5L1360,430L1237.5,360z"/>
	<path fill="#3E4149" d="M1360,307.5l122.5,52.5L1360,430V307.5z"/>
</g>
<g id="surface1_2_">
	<circle fill="#3E4149" cx="640" cy="360" r="280"/>
	<circle fill="#DDEAF7" cx="640" cy="360" r="227.5"/>
	<path fill="#3E4149" d="M517.5,360L640,167.5L762.5,360L640,430L517.5,360z"/>
	<path fill="#3E4149" d="M640,167.5L762.5,360L640,430V167.5z"/>
	<path fill="#3E4149" d="M517.5,386.2l122.5,70l122.5-70L640,552.5L517.5,386.2z"/>
	<path fill="#3E4149" d="M640,456.2l122.5-70L640,552.5V456.2z"/>
	<path fill="#3E4149" d="M517.5,360L640,307.5L762.5,360L640,430L517.5,360z"/>
	<path fill="#3E4149" d="M640,307.5L762.5,360L640,430V307.5z"/>
</g>
<g>
	<circle display="none" opacity="0.14" enable-background="new    " cx="1000" cy="360" r="360"/>
	<path opacity="0.1" enable-background="new    " d="M1380,360c0-103.4-41.3-197.2-108.4-265.7c-111.3,37-191.6,142-191.6,265.7
		s80.3,228.7,191.6,265.7C1338.7,557.2,1380,463.4,1380,360z"/>
	<path opacity="0.1" enable-background="new    " d="M728.4,94.3C661.3,162.8,620,256.6,620,360s41.3,197.2,108.4,265.7
		C839.7,588.7,920,483.8,920,360S839.7,131.3,728.4,94.3z"/>
</g>
<g id="surface1">
	<circle fill="#5E6076" cx="1000" cy="360" r="320"/>
	<circle fill="#DDEAF7" cx="1000" cy="360" r="260"/>
	<path fill="#5E6076" d="M860,360l140-220l140,220l-140,80L860,360z"/>
	<path fill="#5E6076" d="M1000,140l140,220l-140,80V140z"/>
	<path fill="#5E6076" d="M860,390l140,80l140-80l-140,190L860,390z"/>
	<path fill="#5E6076" d="M1000,470l140-80l-140,190V470z"/>
	<path fill="#5E6076" d="M860,360l140-60l140,60l-140,80L860,360z"/>
	<path fill="#5E6076" d="M1000,300l140,60l-140,80V300z"/>
</g>
</svg>
