<svg id="SvgjsSvg1404" xmlns="http://www.w3.org/2000/svg" version="1.1" xmlns:xlink="http://www.w3.org/1999/xlink" xmlns:svgjs="http://svgjs.com/svgjs" width="184" height="203" viewBox="0 0 184 203"><title>Forma 1 копия 4</title><desc>Created with Avocode.</desc><defs id="SvgjsDefs1405"></defs><path id="SvgjsPath1406" d="M1140.27 955.602C1140.27 923.155 1113.92 896.75 1081.55 896.75C1049.1699999999998 896.75 1022.8199999999999 923.155 1022.8199999999999 955.602C1022.8199999999999 980.785 1038.71 1002.26 1060.9399999999998 1010.65L1067.6399999999999 992.728C1052.6499999999999 987.0649999999999 1041.9299999999998 972.5849999999999 1041.9299999999998 955.602C1041.9299999999998 933.718 1059.6999999999998 915.9069999999999 1081.5399999999997 915.9069999999999C1103.3699999999997 915.9069999999999 1121.1399999999996 933.718 1121.1399999999996 955.602C1121.1399999999996 972.5849999999999 1110.4099999999996 987.077 1095.4199999999996 992.728L1102.1199999999997 1010.65C1124.3699999999997 1002.27 1140.2699999999998 980.79 1140.2699999999998 955.602ZM1107.48 955.602C1107.48 941.265 1095.85 929.598 1081.55 929.598C1067.23 929.598 1055.6 941.265 1055.6 955.602C1055.6 966.726 1062.6399999999999 976.168 1072.4699999999998 979.876L1040.5799999999997 1065.09L1081.5399999999997 1065.09L1081.5399999999997 955.6019999999999L1079.1599999999996 961.9619999999999C1076.5799999999997 960.9849999999999 1074.7099999999996 958.5339999999999 1074.7099999999996 955.6019999999999C1074.7099999999996 951.8279999999999 1077.7699999999995 948.7619999999998 1081.5499999999995 948.7619999999998C1085.2999999999995 948.7619999999998 1088.3699999999994 951.8279999999999 1088.3699999999994 955.6019999999999C1088.3699999999994 958.5339999999999 1086.5099999999995 960.9919999999998 1083.9199999999994 961.9619999999999L1090.6199999999994 979.8759999999999C1100.4499999999994 976.1779999999999 1107.4799999999993 966.7329999999998 1107.4799999999993 955.6019999999999ZM1081.55 863.903C1031.09 863.903 990.0469999999999 905.042 990.0469999999999 955.602C990.0469999999999 994.837 1014.81 1028.3 1049.4499999999998 1041.37L1056.1499999999999 1023.4499999999999C1028.7499999999998 1013.0999999999999 1009.1599999999999 986.636 1009.1599999999999 955.597C1009.1599999999999 915.5989999999999 1041.6299999999999 883.057 1081.54 883.057C1121.45 883.057 1153.92 915.599 1153.92 955.597C1153.92 986.636 1134.3300000000002 1013.11 1106.92 1023.4499999999999L1113.6200000000001 1041.37C1148.2700000000002 1028.3 1173.0300000000002 994.8369999999999 1173.0300000000002 955.5969999999999C1173.0300000000002 905.0419999999999 1132.0000000000002 863.9029999999999 1081.5500000000002 863.9029999999999Z " fill="#f0f0f0" fill-opacity="1" transform="matrix(1,0,0,1,-990,-863)"></path></svg>