<svg id="SvgjsSvg1382" xmlns="http://www.w3.org/2000/svg" version="1.1" xmlns:xlink="http://www.w3.org/1999/xlink" xmlns:svgjs="http://svgjs.com/svgjs" width="204" height="220" viewBox="0 0 204 220"><title>Forma 1 копия 9</title><desc>Created with Avocode.</desc><defs id="SvgjsDefs1383"></defs><path id="SvgjsPath1384" d="M596.114 1083.55C623.967 1078.98 668.4250000000001 1054.6399999999999 689.991 1054.6399999999999L682.444 1022.5999999999999C680.13 1020.2699999999999 677.4029999999999 1018.31 674.2479999999999 1016.7099999999999C658.4309999999999 1008.7499999999999 642.0609999999999 1002.1099999999999 625.515 995.8629999999999C624.276 995.4119999999999 622.802 994.4849999999999 622.294 993.41C620.944 990.4649999999999 620.009 987.361 619.029 984.271C618.431 982.305 617.901 980.448 615.705 979.497C615.1080000000001 979.236 614.576 978.102 614.576 977.371C614.702 970.22 613.014 962.711 618.409 956.4739999999999C618.571 956.2769999999999 618.645 956.001 618.755 955.7729999999999C621.667 949.5099999999999 622.168 942.3499999999999 626.237 936.5179999999999C626.3399999999999 936.387 626.362 936.1919999999999 626.384 936.021C626.856 931.574 627.342 927.137 627.726 922.6949999999999C627.77 922.141 627.276 921.1579999999999 626.797 920.987C624.556 920.207 624.674 918.447 624.6890000000001 916.664C624.6890000000001 907.981 624.6890000000001 906.7189999999999 624.6740000000001 898.029C624.6740000000001 892.975 623.1700000000001 888.481 619.2940000000001 885.043C614.8720000000001 881.145 610.3310000000001 877.362 605.791 873.591C603.609 871.7620000000001 603.4100000000001 870.357 605.4670000000001 868.346C606.3810000000001 867.461 607.5300000000001 866.83 608.5920000000001 866.079C608.3550000000001 865.736 608.1270000000001 865.4029999999999 607.8990000000001 865.063C606.5280000000001 865.063 605.1420000000002 864.884 603.8160000000001 865.085C598.7890000000001 865.88 593.7470000000002 866.5790000000001 588.8200000000002 867.72C579.4080000000001 869.897 570.2680000000001 872.803 562.6330000000002 879.005C557.4110000000002 883.245 553.2360000000001 888.177 552.7090000000002 895.16C552.4510000000001 898.829 552.4800000000001 902.501 552.4510000000001 906.159C552.4140000000001 912.133 552.5020000000002 910.687 552.3660000000001 916.6419999999999C552.344 917.6139999999999 551.7950000000001 919.2049999999999 551.1060000000001 919.4279999999999C548.6550000000001 920.2139999999998 548.5850000000002 921.7529999999999 548.9100000000001 923.7659999999998C549.152 925.1479999999998 548.979 926.5939999999998 549.2810000000001 927.9469999999999C550.1260000000001 931.6759999999999 551.032 935.4039999999999 552.1260000000001 939.0829999999999C552.926 941.8159999999998 554.5100000000001 944.4029999999999 554.9570000000001 947.1879999999999C555.8230000000001 952.7399999999999 557.9310000000002 957.5729999999999 561.7400000000001 961.7689999999999C562.3610000000001 962.4639999999999 562.8430000000001 963.6259999999999 562.7690000000001 964.5479999999999C562.4670000000001 968.8159999999999 562.0280000000001 973.0889999999999 561.4390000000001 977.3439999999999C561.3100000000001 978.1769999999999 560.4290000000001 979.41 559.71 979.5559999999999C556.821 980.15 556.383 982.3419999999999 555.69 984.5469999999999C554.783 987.4689999999999 553.8180000000001 990.3939999999999 552.668 993.2069999999999C552.306 994.0929999999998 551.407 995.0129999999999 550.527 995.3969999999999C545.393 997.5889999999999 540.164 999.621 534.994 1001.7499999999999C529.4920000000001 1004.0299999999999 523.931 1006.2099999999999 518.561 1008.7199999999999C513.023 1011.3199999999999 507.65000000000003 1014.2599999999999 502.225 1017.1199999999999C499.03000000000003 1018.7999999999998 496.048 1020.6599999999999 493.54900000000004 1022.9799999999999L486.002 1054.62C522.766 1054.62 541.966 1080.78 580.219 1084Z " fill="#f0f0f0" fill-opacity="1" transform="matrix(1,0,0,1,-486,-864)"></path></svg>