<?xml version="1.0" encoding="utf-8"?>
<!-- Generator: Adobe Illustrator 21.1.0, SVG Export Plug-In . SVG Version: 6.00 Build 0)  -->
<svg version="1.1" id="Layer_1" xmlns="http://www.w3.org/2000/svg" xmlns:xlink="http://www.w3.org/1999/xlink" x="0px" y="0px"
	 viewBox="0 0 2048 1408" enable-background="new 0 0 2048 1408" xml:space="preserve">
<rect y="-320" display="none" fill="#EEEEEE" width="2048" height="2048"/>
<rect x="320" display="none" fill="#DFDFDF" width="1408" height="1408"/>
<rect y="-320" display="none" fill="#FAFAFA" width="1024" height="1024"/>
<g display="none">
	<rect y="640" display="inline" fill="#FFCC00" width="2048" height="128"/>
	<rect y="800" display="inline" fill="#FFCC00" width="2048" height="128"/>
	<rect y="480" display="inline" fill="#FFCC00" width="2048" height="128"/>
	<rect y="320" display="inline" fill="#FFCC00" width="2048" height="128"/>
	<rect y="1280" display="inline" fill="#FFCC00" width="2048" height="128"/>
	<rect y="1440" display="inline" fill="#FFCC00" width="2048" height="128"/>
	<rect y="1600" display="inline" fill="#FFCC00" width="2048" height="128"/>
	<rect y="1760" display="inline" fill="#FFCC00" width="2048" height="128"/>
	<rect y="1120" display="inline" fill="#FFCC00" width="2048" height="128"/>
	<rect y="960" display="inline" fill="#FFCC00" width="2048" height="128"/>
	<rect y="160" display="inline" fill="#FFCC00" width="2048" height="128"/>
	<rect display="inline" fill="#FFCC00" width="2048" height="128"/>
	<rect y="-160" display="inline" fill="#FFCC00" width="2048" height="128"/>
	<rect y="-320" display="inline" fill="#FFCC00" width="2048" height="128"/>
	<rect y="-480" display="inline" fill="#FFCC00" width="2048" height="128"/>
</g>
<path display="none" d="M907.8,480.8C929,459.6,957.1,448,987,448h36.5h128c29.9,0,58,11.7,79.2,32.8L1357.9,608l32,32h22.6H2048
	v-32h-644.9l-149.8-149.8C1226.1,431,1190,416,1151.5,416h-128H987h-91c-38.5,0-74.6,15-101.8,42.2L644.4,608H0v32h635h22.6l32-32
	l127.2-127.2C838,459.6,866.1,448,896,448h0.5c-3.9,3.2-7.7,6.6-11.3,10.2l-30.9,30.9c-15.2,15.2-23.5,35.2-23.5,56.6
	s8.4,41.4,23.5,56.6c15.2,15.2,35.2,23.5,56.6,23.5s41.4-8.4,56.6-23.5l26.2-26.2H1145l3.6,3.5l169.7,169.7l0,0l0,0
	c5.4,5.4,8.6,12.4,9.3,20.1c0.3,3.6,0,7.2-0.9,10.7l0,0c-1.4,5.5-4.3,10.5-8.3,14.5c-12.5,12.5-32.8,12.5-45.3,0l-101.8-101.8
	c-6.2-6.2-16.4-6.2-22.6,0s-6.2,16.4,0,22.6l101.8,101.8c12.5,12.5,12.5,32.8,0,45.3c-6,6-14.1,9.3-22.6,9.3s-16.6-3.3-22.6-9.3
	l-101.8-101.8c-6.2-6.2-16.4-6.2-22.6,0s-6.2,16.4,0,22.6L1182.4,885c6,6,9.3,14.1,9.3,22.6s-3.3,16.6-9.3,22.6
	c-12.5,12.5-32.8,12.5-45.3,0l-65.8-65.8c-0.6-0.7-1.3-1.4-2-2.1s-1.4-1.3-2.1-2l-31.9-31.9c-4.6-4.6-11.2-5.8-16.9-3.7
	c-2.6-11.1-8.3-21.7-17-30.3c-12.1-12.1-28.1-18.7-45.3-18.7c-1.4,0-2.7,0.1-4.1,0.1c0.1-1.3,0.1-2.7,0.1-4.1
	c0-17.1-6.6-33.2-18.7-45.3c-13.5-13.5-31.6-19.7-49.3-18.6c1.1-17.7-5.1-35.8-18.6-49.3c-12.1-12.1-28.1-18.7-45.3-18.7
	s-33.2,6.6-45.3,18.7L707,726.4c-10.7,10.7-17.3,25-18.5,40.1c0,0.4-0.1,0.9-0.1,1.3H0v32h694.9c3.1,6.3,7.2,12.1,12.3,17.1
	c12.1,12.1,28.1,18.7,45.3,18.7c1.4,0,2.7-0.1,4.1-0.1c-1.1,17.7,5.1,35.8,18.6,49.3c12.1,12.1,28.1,18.7,45.3,18.7
	c1.4,0,2.7-0.1,4.1-0.1c-0.1,1.3-0.1,2.7-0.1,4.1c0,17.1,6.6,33.2,18.7,45.3c12.5,12.5,28.9,18.7,45.3,18.7c1.4,0,2.7-0.1,4.1-0.1
	c-1.1,17.7,5.1,35.8,18.6,49.3c12.4,12.4,28.8,18.7,45.2,18.7s32.8-6.2,45.3-18.7l22.6-22.6l22.5,22.6l0,0l0,0
	c12.1,12.1,28.1,18.7,45.3,18.7s33.2-6.6,45.3-18.7c13.5-13.5,19.7-31.6,18.6-49.3c1.3,0.1,2.7,0.1,4.1,0.1
	c17.1,0,33.2-6.6,45.3-18.7c12.1-12.1,18.7-28.1,18.7-45.3c0-1.4-0.1-2.7-0.1-4.1c1.3,0.1,2.7,0.1,4.1,0.1
	c17.1,0,33.2-6.6,45.3-18.7c12.1-12.1,18.7-28.1,18.7-45.3c0-1.4-0.1-2.7-0.1-4.1c1.4,0.1,2.7,0.1,4.1,0.1
	c16.4,0,32.7-6.2,45.2-18.7c5-5,9.2-10.8,12.3-17.2H2048v-32h-688.6c0-0.4,0-0.9-0.1-1.3l0,0c-1.2-15.2-7.8-29.4-18.5-40.1l0,0
	l-169.7-169.7l0,0l0,0l-8.3-8.2c-0.1-0.1-0.2-0.2-0.4-0.3c-0.3-0.2-0.5-0.5-0.8-0.7c-0.2-0.2-0.4-0.3-0.6-0.4
	c-0.2-0.2-0.4-0.3-0.7-0.5c-0.2-0.2-0.5-0.3-0.7-0.4c-0.2-0.1-0.4-0.3-0.6-0.4c-0.2-0.1-0.5-0.2-0.7-0.4c-0.2-0.1-0.5-0.2-0.7-0.3
	s-0.5-0.2-0.7-0.3s-0.5-0.2-0.7-0.3s-0.5-0.1-0.8-0.2c-0.3-0.1-0.5-0.1-0.8-0.2c-0.3-0.1-0.6-0.1-0.8-0.1c-0.2,0-0.5-0.1-0.7-0.1
	c-0.4,0-0.7,0-1.1-0.1c-0.2,0-0.3,0-0.5,0H987c-0.5,0-1.1,0-1.6,0.1c-0.2,0-0.5,0.1-0.7,0.1c-0.3,0-0.6,0.1-0.9,0.1
	c-0.3,0.1-0.5,0.1-0.8,0.2c-0.2,0.1-0.5,0.1-0.7,0.2c-0.3,0.1-0.5,0.2-0.7,0.3s-0.5,0.2-0.7,0.3s-0.5,0.2-0.7,0.3s-0.5,0.2-0.7,0.4
	c-0.2,0.1-0.4,0.3-0.6,0.4c-0.2,0.1-0.5,0.3-0.7,0.4c-0.2,0.2-0.5,0.3-0.7,0.5c-0.2,0.1-0.4,0.3-0.6,0.4c-0.4,0.3-0.8,0.7-1.2,1.1
	l-30.9,30.9c-9.1,9.1-21.2,14.1-33.9,14.1s-24.8-5-33.9-14.1s-14.1-21.2-14.1-33.9s5-24.8,14.1-33.9L907.8,480.8z M752.5,803.8
	c-8.6,0-16.6-3.3-22.7-9.4c-4-4-6.9-8.9-8.3-14.4c-0.9-3.5-1.2-7.1-0.9-10.7c0.6-7.7,3.8-14.7,9.3-20.1l67.9-67.9
	c6-6,14.1-9.3,22.6-9.3c8.6,0,16.6,3.3,22.6,9.3c12.5,12.5,12.5,32.8,0,45.3l-67.9,67.9C769.1,800.5,761,803.8,752.5,803.8z
	 M820.4,871.7c-8.6,0-16.6-3.3-22.6-9.3l0,0c-12.5-12.5-12.5-32.8,0-45.3l67.9-67.9l0,0c12.5-12.5,32.8-12.5,45.3,0
	c6,6,9.3,14.1,9.3,22.6s-3.3,16.6-9.3,22.6l-67.9,67.9C837,868.4,828.9,871.7,820.4,871.7z M910.9,930.3
	c-12.5,12.5-32.8,12.5-45.3,0c-6-6-9.3-14.1-9.3-22.6s3.3-16.6,9.3-22.6l67.9-67.9c6-6,14.1-9.3,22.6-9.3s16.6,3.3,22.6,9.3
	c12.5,12.5,12.5,32.8,0,45.3L910.9,930.3L910.9,930.3z M1013.7,963.3c-0.3,0.3-0.7,0.6-1,0.9c-0.3,0.3-0.7,0.7-1,1.1l-32.9,32.9
	c-12.5,12.5-32.9,12.5-45.3,0c-12.5-12.5-12.5-32.8,0-45.3l67.9-67.9c6-6,14.1-9.3,22.6-9.3c7.9,0,15.3,2.8,21.2,8l2.9,2.9
	c5.1,5.8,8,13.3,8,21.2c0,8.6-3.3,16.6-9.3,22.6L1013.7,963.3z M1114.5,998.2c-6,6-14.1,9.3-22.6,9.3s-16.6-3.3-22.6-9.3l0,0
	l-22.5-22.6l22.7-22.7c8.1-8.1,13.7-17.9,16.5-28.6l28.6,28.6C1127,965.4,1127,985.7,1114.5,998.2z"/>
<g display="none">
	<rect y="1280" display="inline" fill="#FFCC00" width="2048" height="128"/>
	<rect y="1440" display="inline" fill="#FFCC00" width="2048" height="128"/>
	<path display="inline" fill="#FFCC00" d="M1159.8,971.6c-1.4,0-2.7-0.1-4.1-0.1c1.1,17.7-5.1,35.8-18.6,49.3
		c-12.1,12.1-28.1,18.7-45.3,18.7s-33.2-6.6-45.3-18.7l0,0l0,0l-22.5-22.6l-22.6,22.6c-12.5,12.4-28.9,18.7-45.3,18.7
		s-32.8-6.2-45.2-18.7c-13.5-13.5-19.7-31.6-18.6-49.3c-1.4,0.1-2.7,0.1-4.1,0.1c-12.9,0-25.8-3.9-36.8-11.6H0v128h2048V960h-851.4
		C1185.9,967.5,1173.1,971.6,1159.8,971.6z"/>
	<rect y="1120" display="inline" fill="#FFCC00" width="2048" height="128"/>
	<polygon display="inline" fill="#FFCC00" points="772.4,480 0,480 0,608 644.4,608 	"/>
	<rect y="1600" display="inline" fill="#FFCC00" width="2048" height="128"/>
	<path display="inline" fill="#FFCC00" d="M824.3,907.7c0-1.4,0.1-2.7,0.1-4.1c-1.3,0.1-2.7,0.1-4.1,0.1c-17.1,0-33.2-6.6-45.3-18.7
		c-13.5-13.5-19.7-31.6-18.6-49.3c-1.3,0.1-2.7,0.1-4.1,0.1c-17.1,0-33.2-6.6-45.3-18.7c-5-5-9.2-10.8-12.3-17.1H0v128h827.6
		C825.4,921.5,824.3,914.7,824.3,907.7z"/>
	<polygon display="inline" fill="#FFCC00" points="1403.1,608 2048,608 2048,480 1275.1,480 	"/>
	<rect y="-160" display="inline" fill="#FFCC00" width="2048" height="128"/>
	<path display="inline" fill="#FFCC00" d="M1340.8,817.2c-12.4,12.4-28.8,18.7-45.2,18.7c-1.4,0-2.7-0.1-4.1-0.1
		c0.1,1.3,0.1,2.7,0.1,4.1c0,17.1-6.6,33.2-18.7,45.3s-28.1,18.7-45.3,18.7c-1.4,0-2.7-0.1-4.1-0.1c0.1,1.3,0.1,2.7,0.1,4.1
		c0,7-1.1,13.9-3.3,20.3H2048V800h-694.9C1350,806.4,1345.8,812.2,1340.8,817.2z"/>
	<rect y="-320" display="inline" fill="#FFCC00" width="2048" height="128"/>
	<rect display="inline" fill="#FFCC00" width="2048" height="128"/>
	<rect y="160" display="inline" fill="#FFCC00" width="2048" height="128"/>
	<path display="inline" fill="#FFCC00" d="M0,448h805.5c25.6-20.7,57.2-32,90.5-32h91h36.5h128c33.3,0,65,11.3,90.5,32h806V320H0
		V448z"/>
</g>
<g display="none">
	<path display="inline" fill="#5A5A5A" d="M843,681.3c-6-6-14.1-9.3-22.6-9.3c-8.6,0-16.6,3.3-22.6,9.3l-67.9,67.9
		c-5.4,5.4-8.6,12.4-9.3,20.1c-0.3,3.6,0,7.2,0.9,10.7c1.4,5.5,4.3,10.5,8.3,14.4c6.1,6.1,14.1,9.4,22.7,9.4s16.6-3.3,22.6-9.3
		l67.9-67.9C855.5,714.1,855.5,693.8,843,681.3z"/>
	<path display="inline" fill="#5A5A5A" d="M978.8,998.2l32.9-32.9c0.3-0.4,0.6-0.7,1-1.1c0.3-0.3,0.7-0.6,1-0.9l33-33
		c6-6,9.3-14.1,9.3-22.6c0-7.9-2.8-15.3-8-21.2l-2.9-2.9c-5.8-5.1-13.3-8-21.2-8c-8.6,0-16.6,3.3-22.6,9.3l-67.9,67.9
		c-12.5,12.5-12.5,32.8,0,45.3C946,1010.6,966.3,1010.6,978.8,998.2z"/>
	<path display="inline" fill="#5A5A5A" d="M910.9,930.3L910.9,930.3l67.9-67.9c12.5-12.5,12.5-32.8,0-45.3c-6-6-14.1-9.3-22.6-9.3
		s-16.6,3.3-22.6,9.3L865.7,885c-6,6-9.3,14.1-9.3,22.6s3.3,16.6,9.3,22.6C878.1,942.8,898.4,942.8,910.9,930.3z"/>
	<path display="inline" fill="#5A5A5A" d="M820.4,871.7c8.6,0,16.6-3.3,22.6-9.3l67.9-67.9c6-6,9.3-14.1,9.3-22.6
		s-3.3-16.6-9.3-22.6c-12.5-12.5-32.8-12.5-45.3,0l0,0l-67.9,67.9c-12.5,12.5-12.5,32.8,0,45.3l0,0
		C803.7,868.4,811.8,871.7,820.4,871.7z"/>
	<path display="inline" fill="#5A5A5A" d="M688.7,766.7c1.2-15.2,7.8-29.4,18.5-40.1l67.9-67.9c12.1-12.1,28.1-18.7,45.3-18.7
		s33.2,6.6,45.3,18.7c13.5,13.5,19.7,31.6,18.6,49.3c17.7-1.1,35.8,5.1,49.3,18.6c12.1,12.1,18.7,28.1,18.7,45.3
		c0,1.4-0.1,2.7-0.1,4.1c1.3-0.1,2.7-0.1,4.1-0.1c17.1,0,33.2,6.6,45.3,18.7c8.7,8.7,14.3,19.2,17,30.3c5.7-2.1,12.4-0.9,16.9,3.7
		l31.9,31.9c0.7,0.6,1.4,1.3,2.1,2s1.3,1.4,2,2.1l65.8,65.8c12.5,12.5,32.8,12.5,45.3,0c6-6,9.3-14.1,9.3-22.6s-3.3-16.6-9.3-22.6
		l-101.8-101.8c-6.2-6.2-6.2-16.4,0-22.6c6.2-6.2,16.4-6.2,22.6,0L1205,862.4c6,6,14.1,9.3,22.6,9.3s16.6-3.3,22.6-9.3
		c12.5-12.5,12.5-32.8,0-45.3l-101.8-101.8c-6.2-6.2-6.2-16.4,0-22.6c6.2-6.2,16.4-6.2,22.6,0l101.8,101.8
		c12.5,12.5,32.8,12.5,45.3,0c4-4,6.9-9,8.3-14.5l0,0c0.9-3.5,1.2-7.1,0.9-10.7c-0.6-7.7-3.8-14.7-9.3-20.1l0,0l0,0l-169.7-169.7
		l-3.6-3.5H993.4l-26.2,26.2c-15.2,15.2-35.2,23.5-56.6,23.5s-41.4-8.4-56.6-23.5c-15.2-15.2-23.5-35.2-23.5-56.6
		s8.4-41.4,23.5-56.6l30.9-30.9c3.6-3.6,7.4-7,11.3-10.2h-0.5c-29.9,0-58,11.7-79.2,32.8L689.6,608l-32,32H635H0v128h688.6
		C688.6,767.6,688.6,767.1,688.7,766.7z"/>
	<path display="inline" fill="#5A5A5A" d="M1069.2,998.2c6,6,14.1,9.3,22.6,9.3s16.6-3.3,22.6-9.3c12.5-12.5,12.5-32.8,0-45.3
		l-28.6-28.6c-2.9,10.7-8.5,20.6-16.5,28.6l-22.7,22.7L1069.2,998.2L1069.2,998.2z"/>
	<path display="inline" fill="#5A5A5A" d="M1389.9,640l-32-32l-127.2-127.2c-21.2-21.2-49.3-32.8-79.2-32.8h-128H987
		c-29.9,0-58,11.7-79.2,32.8l-30.9,30.9c-9.1,9.1-14.1,21.2-14.1,33.9s5,24.8,14.1,33.9c9.1,9.1,21.2,14.1,33.9,14.1
		s24.8-5,33.9-14.1l30.9-30.9c0.4-0.4,0.8-0.7,1.2-1.1c0.2-0.1,0.4-0.3,0.6-0.4c0.2-0.2,0.5-0.4,0.7-0.5c0.2-0.2,0.5-0.3,0.7-0.4
		c0.2-0.1,0.4-0.3,0.6-0.4c0.2-0.1,0.5-0.2,0.7-0.4c0.2-0.1,0.5-0.2,0.7-0.3s0.5-0.2,0.7-0.3s0.5-0.2,0.7-0.3s0.5-0.1,0.7-0.2
		c0.3-0.1,0.5-0.1,0.8-0.2c0.3-0.1,0.6-0.1,0.9-0.1c0.2,0,0.4-0.1,0.7-0.1c0.5-0.1,1.1-0.1,1.6-0.1h164.5c0.2,0,0.3,0,0.5,0
		c0.4,0,0.7,0,1.1,0.1c0.2,0,0.5,0.1,0.7,0.1c0.3,0,0.6,0.1,0.8,0.1c0.3,0.1,0.5,0.1,0.8,0.2c0.3,0.1,0.5,0.1,0.8,0.2
		c0.3,0.1,0.5,0.2,0.7,0.3s0.5,0.2,0.7,0.3s0.5,0.2,0.7,0.3s0.5,0.2,0.7,0.4c0.2,0.1,0.4,0.3,0.6,0.4c0.2,0.1,0.5,0.3,0.7,0.4
		c0.2,0.2,0.4,0.3,0.7,0.5c0.2,0.1,0.4,0.3,0.6,0.4c0.3,0.2,0.5,0.5,0.8,0.7c0.1,0.1,0.2,0.2,0.4,0.3l8.3,8.2l0,0l0,0l169.7,169.7
		l0,0c10.7,10.7,17.3,25,18.5,40.1l0,0c0,0.4,0.1,0.9,0.1,1.3H2048V640h-635.5H1389.9z"/>
</g>
<polygon display="none" fill="none" points="1024,-384 81.8,1248 1966.2,1248 "/>
<polygon display="none" fill="none" points="802.3,0 81.8,1248 1966.2,1248 1245.7,0 "/>
<path display="none" fill="#5A5A5A" d="M1024-320l147.8,256H876.2L1024-320 M1024-384L820.8-32h406.5L1024-384L1024-384z"/>
<path display="none" fill="#5A5A5A" d="M1024,0C635.2,0,320,315.2,320,704s315.2,704,704,704s704-315.2,704-704S1412.8,0,1024,0z
	 M1024,1280c-318.1,0-576-257.9-576-576s257.9-576,576-576s576,257.9,576,576S1342.1,1280,1024,1280z"/>
<g display="none">
	<path display="inline" fill="#FFCC00" d="M896,416h91h36.5h128c33.4,0,64.9,11.3,90.5,32h262.4l-73.9-128h-813l-73.9,128h261.9
		C831.1,427.3,862.6,416,896,416z"/>
	<polygon display="inline" fill="#FFCC00" points="1338.1,160 709.9,160 636,288 1412,288 	"/>
	<polygon display="inline" fill="#FFCC00" points="1245.7,0 802.3,0 728.4,128 1319.6,128 	"/>
	<polygon display="inline" fill="#FFCC00" points="772.4,480 525.2,480 451.3,608 644.4,608 	"/>
	<path display="inline" fill="#FFCC00" d="M1800,960h-603.2c-10.7,7.5-23.4,11.5-36.7,11.5c-1.4,0-2.8,0-4.1-0.1
		c1.1,17.7-5.1,35.8-18.6,49.3c-12.1,12.1-28.1,18.7-45.3,18.7s-33.2-6.6-45.3-18.7l-22.5-22.6l-22.6,22.6
		c-12.5,12.5-28.9,18.7-45.3,18.7s-32.8-6.3-45.2-18.7c-13.5-13.5-19.7-31.6-18.6-49.3c-1.4,0-2.7,0.1-4.1,0.1
		c-12.9,0-25.7-3.8-36.7-11.5H248l-73.9,128h1699.7L1800,960z"/>
	<polygon display="inline" fill="#FFCC00" points="1892.3,1120 155.7,1120 81.8,1248 1966.2,1248 	"/>
	<path display="inline" fill="#FFCC00" d="M1086,924.3c-0.3,1.2-0.7,2.5-1.1,3.7h4.8L1086,924.3z"/>
	<path display="inline" fill="#FFCC00" d="M824.5,907.5c0-1.4,0-2.8,0.1-4.1c-1.4,0-2.7,0.1-4.1,0.1c-17.2,0-33.2-6.6-45.3-18.7
		c-13.5-13.5-19.7-31.6-18.6-49.3c-1.4,0-2.7,0.1-4.1,0.1c-17.2,0-33.2-6.6-45.3-18.7c-5-4.9-9.1-10.7-12.2-16.9H340.4l-73.9,128
		h561.3C825.6,921.5,824.5,914.6,824.5,907.5z"/>
	<polygon display="inline" fill="#FFCC00" points="1403.1,608 1596.7,608 1522.8,480 1275.1,480 	"/>
	<path display="inline" fill="#FFCC00" d="M1341.3,816.8c-12.5,12.5-28.8,18.7-45.2,18.7c-1.4,0-2.7,0-4.1-0.1
		c0,1.4,0.1,2.7,0.1,4.1c0,17.2-6.6,33.2-18.7,45.3s-28.2,18.7-45.3,18.7c-1.4,0-2.8,0-4.1-0.1c0,1.4,0.1,2.7,0.1,4.1
		c0,7.1-1.1,14-3.3,20.5h560.7l-73.9-128h-354.2C1350.3,806.2,1346.2,811.9,1341.3,816.8z"/>
</g>
<g>
	<path fill="#FFFFFF" d="M896,416h91h36.5h128c33.4,0,64.9,11.3,90.5,32h262.4l-73.9-128h-813l-73.9,128h261.9
		C831.1,427.3,862.6,416,896,416z"/>
	<polygon fill="#FFFFFF" points="1338.1,160 709.9,160 636,288 1412,288 	"/>
	<path fill="#FFFFFF" d="M1227.2,0H820.8c-11.4,0-22,6.1-27.7,16l-64.7,112h591.2l-64.7-112C1249.2,6.1,1238.7,0,1227.2,0z"/>
	<polygon fill="#FFFFFF" points="772.4,480 525.2,480 451.3,608 644.4,608 	"/>
	<path fill="#FFFFFF" d="M1800,960h-603.2c-10.7,7.5-23.4,11.5-36.7,11.5c-1.4,0-2.8,0-4.1-0.1c1.1,17.7-5.1,35.8-18.6,49.3
		c-12.1,12.1-28.1,18.7-45.3,18.7s-33.2-6.6-45.3-18.7l-22.5-22.6l-22.6,22.6c-12.5,12.5-28.9,18.7-45.3,18.7s-32.8-6.3-45.2-18.7
		c-13.5-13.5-19.7-31.6-18.6-49.3c-1.4,0-2.7,0.1-4.1,0.1c-12.9,0-25.7-3.8-36.7-11.5H248l-73.9,128h1699.7L1800,960z"/>
	<path fill="#FFFFFF" d="M1892.3,1120H155.7l-46.2,80c-12.3,21.3,3.1,48,27.7,48h1773.5c24.6,0,40-26.7,27.7-48L1892.3,1120z"/>
	<path fill="#FFFFFF" d="M1086,924.3c-0.3,1.2-0.7,2.5-1.1,3.7h4.8L1086,924.3z"/>
	<path fill="#FFFFFF" d="M824.5,907.5c0-1.4,0-2.8,0.1-4.1c-1.4,0-2.7,0.1-4.1,0.1c-17.2,0-33.2-6.6-45.3-18.7
		c-13.5-13.5-19.7-31.6-18.6-49.3c-1.4,0-2.7,0.1-4.1,0.1c-17.2,0-33.2-6.6-45.3-18.7c-5-4.9-9.1-10.7-12.2-16.9H340.4l-73.9,128
		h561.3C825.6,921.5,824.5,914.6,824.5,907.5z"/>
	<polygon fill="#FFFFFF" points="1403.1,608 1596.7,608 1522.8,480 1275.1,480 	"/>
	<path fill="#FFFFFF" d="M1341.3,816.8c-12.5,12.5-28.8,18.7-45.2,18.7c-1.4,0-2.7,0-4.1-0.1c0,1.4,0.1,2.7,0.1,4.1
		c0,17.2-6.6,33.2-18.7,45.3s-28.2,18.7-45.3,18.7c-1.4,0-2.8,0-4.1-0.1c0,1.4,0.1,2.7,0.1,4.1c0,7.1-1.1,14-3.3,20.5h560.7
		l-73.9-128h-354.2C1350.3,806.2,1346.2,811.9,1341.3,816.8z"/>
</g>
<g>
	<path fill="#FFFFFF" d="M843,681.3c-6-6-14.1-9.3-22.6-9.3c-8.6,0-16.6,3.3-22.6,9.3l-67.9,67.9c-5.4,5.4-8.6,12.4-9.3,20.1
		c-0.3,3.6,0,7.2,0.9,10.7c1.4,5.5,4.3,10.5,8.3,14.4c6.1,6.1,14.1,9.4,22.7,9.4s16.6-3.3,22.6-9.3l67.9-67.9
		C855.5,714.1,855.5,693.8,843,681.3z"/>
	<path fill="#FFFFFF" d="M1056,907.7c0-7.9-2.8-15.3-8-21.2l-2.9-2.9c-5.8-5.1-13.3-8-21.2-8c-8.6,0-16.6,3.3-22.6,9.3l-67.9,67.9
		c-12.5,12.5-12.5,32.8,0,45.3c12.6,12.5,32.9,12.5,45.4,0.1l32.9-32.9c0.3-0.4,0.6-0.7,1-1.1c0.3-0.3,0.7-0.6,1-0.9l33-33
		C1052.7,924.3,1056,916.2,1056,907.7z"/>
	<path fill="#FFFFFF" d="M978.8,817.1c-6-6-14.1-9.3-22.6-9.3s-16.6,3.3-22.6,9.3L865.7,885c-6,6-9.3,14.1-9.3,22.6
		s3.3,16.6,9.3,22.6c12.4,12.6,32.7,12.6,45.2,0.1l67.9-67.9C991.3,849.9,991.3,829.6,978.8,817.1z"/>
	<path fill="#FFFFFF" d="M920.2,771.9c0-8.5-3.3-16.6-9.3-22.6c-12.5-12.5-32.8-12.5-45.3,0l-67.9,67.9c-12.5,12.5-12.5,32.8,0,45.3
		c6,5.9,14.1,9.2,22.7,9.2c8.6,0,16.6-3.3,22.6-9.3l67.9-67.9C916.9,788.5,920.2,780.4,920.2,771.9z"/>
	<path fill="#FFFFFF" d="M688.6,768c0-0.4,0-0.9,0.1-1.3c1.2-15.2,7.8-29.4,18.5-40.1l67.9-67.9c12.1-12.1,28.1-18.7,45.3-18.7
		s33.2,6.6,45.3,18.7c13.5,13.5,19.7,31.6,18.6,49.3c17.7-1.1,35.8,5.1,49.3,18.6c12.1,12.1,18.7,28.1,18.7,45.3
		c0,1.4-0.1,2.7-0.1,4.1c1.3-0.1,2.7-0.1,4.1-0.1c17.1,0,33.2,6.6,45.3,18.7c8.7,8.7,14.3,19.2,17,30.3c5.7-2.1,12.4-0.9,16.9,3.7
		l31.9,31.9c0.7,0.6,1.4,1.3,2.1,2s1.3,1.4,2,2.1l65.8,65.8c12.5,12.5,32.8,12.5,45.3,0c6-6,9.3-14.1,9.3-22.6s-3.3-16.6-9.3-22.6
		l-101.8-101.8c-6.2-6.2-6.2-16.4,0-22.6c6.2-6.2,16.4-6.2,22.6,0L1205,862.4c6,6,14.1,9.3,22.6,9.3s16.6-3.3,22.6-9.3
		c12.5-12.5,12.5-32.8,0-45.3l-101.8-101.8c-6.2-6.2-6.2-16.4,0-22.6c6.2-6.2,16.4-6.2,22.6,0l101.8,101.8
		c12.5,12.5,32.8,12.5,45.3,0c4-4,6.9-9,8.3-14.5c0.9-3.5,1.2-7.1,0.9-10.7c-0.6-7.7-3.8-14.7-9.3-20.1l-169.7-169.7l-3.6-3.5H993.4
		l-26.2,26.2c-15.2,15.2-35.2,23.5-56.6,23.5s-41.4-8.4-56.6-23.5c-15.2-15.2-23.5-35.2-23.5-56.6s8.4-41.4,23.5-56.6l30.9-30.9
		c3.6-3.6,7.4-7,11.3-10.2h-0.5c-29.9,0-58,11.7-79.2,32.8L689.6,608l-32,32H635H432.8l-73.9,128H688.6z"/>
	<path fill="#FFFFFF" d="M1085.8,924.3c-2.9,10.7-8.5,20.6-16.5,28.6l-22.7,22.7l22.6,22.6c6,6,14.1,9.3,22.6,9.3s16.6-3.3,22.6-9.3
		c12.5-12.5,12.5-32.8,0-45.3L1085.8,924.3z"/>
	<path fill="#FFFFFF" d="M1615.2,640h-202.7h-22.6l-32-32l-127.2-127.2c-21.2-21.2-49.3-32.8-79.2-32.8h-128H987
		c-29.9,0-58,11.7-79.2,32.8l-30.9,30.9c-9.1,9.1-14.1,21.2-14.1,33.9s5,24.8,14.1,33.9c9.1,9.1,21.2,14.1,33.9,14.1
		s24.8-5,33.9-14.1l30.9-30.9c0.4-0.4,0.8-0.7,1.2-1.1c0.2-0.1,0.4-0.3,0.6-0.4c0.2-0.2,0.5-0.4,0.7-0.5c0.2-0.2,0.5-0.3,0.7-0.4
		c0.2-0.1,0.4-0.3,0.6-0.4c0.2-0.1,0.5-0.2,0.7-0.4c0.2-0.1,0.5-0.2,0.7-0.3s0.5-0.2,0.7-0.3s0.5-0.2,0.7-0.3s0.5-0.1,0.7-0.2
		c0.3-0.1,0.5-0.1,0.8-0.2c0.3-0.1,0.6-0.1,0.9-0.1c0.2,0,0.4-0.1,0.7-0.1c0.5-0.1,1.1-0.1,1.6-0.1h164.5c0.2,0,0.3,0,0.5,0
		c0.4,0,0.7,0,1.1,0.1c0.2,0,0.5,0.1,0.7,0.1c0.3,0,0.6,0.1,0.8,0.1c0.3,0.1,0.5,0.1,0.8,0.2c0.3,0.1,0.5,0.1,0.8,0.2
		c0.3,0.1,0.5,0.2,0.7,0.3s0.5,0.2,0.7,0.3s0.5,0.2,0.7,0.3s0.5,0.2,0.7,0.4c0.2,0.1,0.4,0.3,0.6,0.4c0.2,0.1,0.5,0.3,0.7,0.4
		c0.2,0.2,0.4,0.3,0.7,0.5c0.2,0.1,0.4,0.3,0.6,0.4c0.3,0.2,0.5,0.5,0.8,0.7c0.1,0.1,0.2,0.2,0.4,0.3l8.3,8.2l169.7,169.7
		c10.7,10.7,17.3,25,18.5,40.1c0,0.4,0.1,0.9,0.1,1.3H1689L1615.2,640z"/>
</g>
</svg>
