<?xml version="1.0" encoding="utf-8"?>
<!-- Generator: Adobe Illustrator 21.1.0, SVG Export Plug-In . SVG Version: 6.00 Build 0)  -->
<svg version="1.1" id="Layer_1" xmlns="http://www.w3.org/2000/svg" xmlns:xlink="http://www.w3.org/1999/xlink" x="0px" y="0px"
	 viewBox="0 0 2432 2432" enable-background="new 0 0 2432 2432" xml:space="preserve">
<g display="none">
	<path display="inline" opacity="0.14" enable-background="new    " d="M1216,32C562.1,32,32,562.1,32,1216s530.1,1184,1184,1184
		s1184-530.1,1184-1184S1869.9,32,1216,32z M1216,2368C579.8,2368,64,1852.2,64,1216S579.8,64,1216,64s1152,515.8,1152,1152
		S1852.2,2368,1216,2368z"/>
	<path display="inline" opacity="0.14" enable-background="new    " d="M1216,80C588.6,80,80,588.6,80,1216s508.6,1136,1136,1136
		s1136-508.6,1136-1136S1843.4,80,1216,80z M1216,2320c-609.7,0-1104-494.3-1104-1104S606.3,112,1216,112s1104,494.3,1104,1104
		S1825.7,2320,1216,2320z"/>
	<path display="inline" opacity="0.14" enable-background="new    " d="M1216,128C615.1,128,128,615.1,128,1216
		s487.1,1088,1088,1088s1088-487.1,1088-1088S1816.9,128,1216,128z M1216,2272c-583.2,0-1056-472.8-1056-1056S632.8,160,1216,160
		s1056,472.8,1056,1056S1799.2,2272,1216,2272z"/>
</g>
<g>
	<path fill="#FFFFFF" enable-background="new    " d="M1216,0C544.4,0,0,544.4,0,1216s544.4,1216,1216,1216s1216-544.4,1216-1216
		S1887.6,0,1216,0z M1216,2400C562.1,2400,32,1869.9,32,1216S562.1,32,1216,32s1184,530.1,1184,1184S1869.9,2400,1216,2400z"/>
	<path fill="#FFFFFF" enable-background="new    " d="M1216,64C579.8,64,64,579.8,64,1216s515.8,1152,1152,1152
		s1152-515.8,1152-1152S1852.2,64,1216,64z M1216,2352C588.6,2352,80,1843.4,80,1216S588.6,80,1216,80s1136,508.6,1136,1136
		S1843.4,2352,1216,2352z"/>
	<path fill="#FFFFFF" enable-background="new    " d="M1216,112C606.3,112,112,606.3,112,1216s494.3,1104,1104,1104
		s1104-494.3,1104-1104S1825.7,112,1216,112z M1216,2304c-600.9,0-1088-487.1-1088-1088S615.1,128,1216,128s1088,487.1,1088,1088
		S1816.9,2304,1216,2304z"/>
	<path fill="#FFFFFF" enable-background="new    " d="M1216,160C632.8,160,160,632.8,160,1216s472.8,1056,1056,1056
		s1056-472.8,1056-1056S1799.2,160,1216,160z M1216,2240c-565.6,0-1024-458.4-1024-1024S650.4,192,1216,192s1024,458.4,1024,1024
		S1781.6,2240,1216,2240z"/>
</g>
<g>
	<path fill="#FFFFFF" enable-background="new    " d="M1216,480c-406.5,0-736,329.5-736,736s329.5,736,736,736s736-329.5,736-736
		S1622.5,480,1216,480z M1216,1920c-388.8,0-704-315.2-704-704s315.2-704,704-704s704,315.2,704,704S1604.8,1920,1216,1920z"/>
	<path fill="#FFFFFF" enable-background="new    " d="M1216,544c-371.1,0-672,300.9-672,672s300.9,672,672,672s672-300.9,672-672
		S1587.1,544,1216,544z M1216,1872c-362.3,0-656-293.7-656-656s293.7-656,656-656s656,293.7,656,656S1578.3,1872,1216,1872z"/>
	<path fill="#FFFFFF" enable-background="new    " d="M1216,592c-344.6,0-624,279.4-624,624s279.4,624,624,624s624-279.4,624-624
		S1560.6,592,1216,592z M1216,1824c-335.8,0-608-272.2-608-608s272.2-608,608-608s608,272.2,608,608S1551.8,1824,1216,1824z"/>
	<path fill="#FFFFFF" enable-background="new    " d="M1216,640c-318.1,0-576,257.9-576,576s257.9,576,576,576s576-257.9,576-576
		S1534.1,640,1216,640z M1216,1760c-300.4,0-544-243.6-544-544s243.6-544,544-544s544,243.6,544,544S1516.4,1760,1216,1760z"/>
</g>
<g display="none" opacity="0.14">
	<path display="inline" d="M2176.9,1726.8c-11.8,22.2-24.4,43.9-37.7,65.2h74.7L2176.9,1726.8z"/>
	<path display="inline" d="M218.3,1792h74.5c-13.1-21-25.6-42.5-37.3-64.4L218.3,1792z"/>
	<path display="inline" d="M1178.7,128.6c12.4-0.4,24.8-0.6,37.3-0.6s24.9,0.2,37.3,0.6L1216,64L1178.7,128.6z"/>
</g>
</svg>
