<?xml version="1.0" encoding="utf-8"?>
<!-- Generator: Adobe Illustrator 21.1.0, SVG Export Plug-In . SVG Version: 6.00 Build 0)  -->
<svg version="1.1" id="Layer_1" xmlns="http://www.w3.org/2000/svg" xmlns:xlink="http://www.w3.org/1999/xlink" x="0px" y="0px"
	 viewBox="0 0 3968 2048" enable-background="new 0 0 3968 2048" xml:space="preserve">
<g display="none">
	<rect x="960" y="640" display="inline" fill="#FFCC00" width="2048" height="128"/>
	<rect x="960" y="800" display="inline" fill="#FFCC00" width="2048" height="128"/>
	<rect x="960" y="480" display="inline" fill="#FFCC00" width="2048" height="128"/>
	<rect x="960" y="320" display="inline" fill="#FFCC00" width="2048" height="128"/>
	<rect x="960" y="1280" display="inline" fill="#FFCC00" width="2048" height="128"/>
	<rect x="960" y="1440" display="inline" fill="#FFCC00" width="2048" height="128"/>
	<rect x="960" y="1600" display="inline" fill="#FFCC00" width="2048" height="128"/>
	<rect x="960" y="1760" display="inline" fill="#FFCC00" width="2048" height="128"/>
	<rect x="960" y="1120" display="inline" fill="#FFCC00" width="2048" height="128"/>
	<rect x="960" y="960" display="inline" fill="#FFCC00" width="2048" height="128"/>
	<rect x="960" y="160" display="inline" fill="#FFCC00" width="2048" height="128"/>
	<rect x="960" display="inline" fill="#FFCC00" width="2048" height="128"/>
	<rect x="960" y="-160" display="inline" fill="#FFCC00" width="2048" height="128"/>
	<rect x="960" y="-320" display="inline" fill="#FFCC00" width="2048" height="128"/>
	<rect x="960" y="-480" display="inline" fill="#FFCC00" width="2048" height="128"/>
</g>
<path display="none" d="M1867.8,480.8c21.2-21.2,49.3-32.8,79.2-32.8h36.5h128c29.9,0,58,11.7,79.2,32.8L2317.9,608l32,32h22.6H3008
	v-32h-644.9l-149.8-149.8C2186.1,431,2150,416,2111.5,416h-128H1947h-91c-38.5,0-74.6,15-101.8,42.2L1604.4,608H960v32h635h22.6
	l32-32l127.2-127.2c21.2-21.2,49.3-32.8,79.2-32.8h0.5c-3.9,3.2-7.7,6.6-11.3,10.2l-30.9,30.9c-15.2,15.2-23.5,35.2-23.5,56.6
	s8.4,41.4,23.5,56.6c15.2,15.2,35.2,23.5,56.6,23.5s41.4-8.4,56.6-23.5l26.2-26.2H2105l3.6,3.5l169.7,169.7l0,0l0,0
	c5.4,5.4,8.6,12.4,9.3,20.1c0.3,3.6,0,7.2-0.9,10.7l0,0c-1.4,5.5-4.3,10.5-8.3,14.5c-12.5,12.5-32.8,12.5-45.3,0l-101.8-101.8
	c-6.2-6.2-16.4-6.2-22.6,0s-6.2,16.4,0,22.6l101.8,101.8c12.5,12.5,12.5,32.8,0,45.3c-6,6-14.1,9.3-22.6,9.3s-16.6-3.3-22.6-9.3
	l-101.8-101.8c-6.2-6.2-16.4-6.2-22.6,0s-6.2,16.4,0,22.6L2142.4,885c6,6,9.3,14.1,9.3,22.6s-3.3,16.6-9.3,22.6
	c-12.5,12.5-32.8,12.5-45.3,0l-65.8-65.8c-0.6-0.7-1.3-1.4-2-2.1s-1.4-1.3-2.1-2l-31.9-31.9c-4.6-4.6-11.2-5.8-16.9-3.7
	c-2.6-11.1-8.3-21.7-17-30.3c-12.1-12.1-28.1-18.7-45.3-18.7c-1.4,0-2.7,0.1-4.1,0.1c0.1-1.3,0.1-2.7,0.1-4.1
	c0-17.1-6.6-33.2-18.7-45.3c-13.5-13.5-31.6-19.7-49.3-18.6c1.1-17.7-5.1-35.8-18.6-49.3c-12.1-12.1-28.1-18.7-45.3-18.7
	s-33.2,6.6-45.3,18.7l-67.9,67.9c-10.7,10.7-17.3,25-18.5,40.1c0,0.4-0.1,0.9-0.1,1.3H960v32h694.9c3.1,6.3,7.2,12.1,12.3,17.1
	c12.1,12.1,28.1,18.7,45.3,18.7c1.4,0,2.7-0.1,4.1-0.1c-1.1,17.7,5.1,35.8,18.6,49.3c12.1,12.1,28.1,18.7,45.3,18.7
	c1.4,0,2.7-0.1,4.1-0.1c-0.1,1.3-0.1,2.7-0.1,4.1c0,17.1,6.6,33.2,18.7,45.3c12.5,12.5,28.9,18.7,45.3,18.7c1.4,0,2.7-0.1,4.1-0.1
	c-1.1,17.7,5.1,35.8,18.6,49.3c12.4,12.4,28.8,18.7,45.2,18.7s32.8-6.2,45.3-18.7l22.6-22.6l22.5,22.6l0,0l0,0
	c12.1,12.1,28.1,18.7,45.3,18.7s33.2-6.6,45.3-18.7c13.5-13.5,19.7-31.6,18.6-49.3c1.3,0.1,2.7,0.1,4.1,0.1
	c17.1,0,33.2-6.6,45.3-18.7s18.7-28.1,18.7-45.3c0-1.4-0.1-2.7-0.1-4.1c1.3,0.1,2.7,0.1,4.1,0.1c17.1,0,33.2-6.6,45.3-18.7
	s18.7-28.1,18.7-45.3c0-1.4-0.1-2.7-0.1-4.1c1.4,0.1,2.7,0.1,4.1,0.1c16.4,0,32.7-6.2,45.2-18.7c5-5,9.2-10.8,12.3-17.2H3008v-32
	h-688.6c0-0.4,0-0.9-0.1-1.3l0,0c-1.2-15.2-7.8-29.4-18.5-40.1l0,0l-169.7-169.7l0,0l0,0l-8.3-8.2c-0.1-0.1-0.2-0.2-0.4-0.3
	c-0.3-0.2-0.5-0.5-0.8-0.7c-0.2-0.2-0.4-0.3-0.6-0.4c-0.2-0.2-0.4-0.3-0.7-0.5c-0.2-0.2-0.5-0.3-0.7-0.4s-0.4-0.3-0.6-0.4
	s-0.5-0.2-0.7-0.4c-0.2-0.1-0.5-0.2-0.7-0.3c-0.2-0.1-0.5-0.2-0.7-0.3s-0.5-0.2-0.7-0.3c-0.2-0.1-0.5-0.1-0.8-0.2s-0.5-0.1-0.8-0.2
	s-0.6-0.1-0.8-0.1s-0.5-0.1-0.7-0.1c-0.4,0-0.7,0-1.1-0.1c-0.2,0-0.3,0-0.5,0H1947c-0.5,0-1.1,0-1.6,0.1c-0.2,0-0.5,0.1-0.7,0.1
	c-0.3,0-0.6,0.1-0.9,0.1c-0.3,0.1-0.5,0.1-0.8,0.2c-0.2,0.1-0.5,0.1-0.7,0.2c-0.3,0.1-0.5,0.2-0.7,0.3s-0.5,0.2-0.7,0.3
	c-0.2,0.1-0.5,0.2-0.7,0.3s-0.5,0.2-0.7,0.4c-0.2,0.1-0.4,0.3-0.6,0.4s-0.5,0.3-0.7,0.4c-0.2,0.2-0.5,0.3-0.7,0.5
	c-0.2,0.1-0.4,0.3-0.6,0.4c-0.4,0.3-0.8,0.7-1.2,1.1l-30.9,30.9c-9.1,9.1-21.2,14.1-33.9,14.1s-24.8-5-33.9-14.1
	s-14.1-21.2-14.1-33.9s5-24.8,14.1-33.9L1867.8,480.8z M1712.5,803.8c-8.6,0-16.6-3.3-22.7-9.4c-4-4-6.9-8.9-8.3-14.4
	c-0.9-3.5-1.2-7.1-0.9-10.7c0.6-7.7,3.8-14.7,9.3-20.1l67.9-67.9c6-6,14.1-9.3,22.6-9.3c8.6,0,16.6,3.3,22.6,9.3
	c12.5,12.5,12.5,32.8,0,45.3l-67.9,67.9C1729.1,800.5,1721,803.8,1712.5,803.8z M1780.4,871.7c-8.6,0-16.6-3.3-22.6-9.3l0,0
	c-12.5-12.5-12.5-32.8,0-45.3l67.9-67.9l0,0c12.5-12.5,32.8-12.5,45.3,0c6,6,9.3,14.1,9.3,22.6s-3.3,16.6-9.3,22.6l-67.9,67.9
	C1797,868.4,1788.9,871.7,1780.4,871.7z M1870.9,930.3c-12.5,12.5-32.8,12.5-45.3,0c-6-6-9.3-14.1-9.3-22.6s3.3-16.6,9.3-22.6
	l67.9-67.9c6-6,14.1-9.3,22.6-9.3s16.6,3.3,22.6,9.3c12.5,12.5,12.5,32.8,0,45.3L1870.9,930.3L1870.9,930.3z M1973.7,963.3
	c-0.3,0.3-0.7,0.6-1,0.9s-0.7,0.7-1,1.1l-32.9,32.9c-12.5,12.5-32.9,12.5-45.3,0c-12.5-12.5-12.5-32.8,0-45.3l67.9-67.9
	c6-6,14.1-9.3,22.6-9.3c7.9,0,15.3,2.8,21.2,8l2.9,2.9c5.1,5.8,8,13.3,8,21.2c0,8.6-3.3,16.6-9.3,22.6L1973.7,963.3z M2074.5,998.2
	c-6,6-14.1,9.3-22.6,9.3s-16.6-3.3-22.6-9.3l0,0l-22.5-22.6l22.7-22.7c8.1-8.1,13.7-17.9,16.5-28.6l28.6,28.6
	C2087,965.4,2087,985.7,2074.5,998.2z"/>
<g display="none">
	<rect x="960" y="1280" display="inline" fill="#FFCC00" width="2048" height="128"/>
	<rect x="960" y="1440" display="inline" fill="#FFCC00" width="2048" height="128"/>
	<path display="inline" fill="#FFCC00" d="M2119.8,971.6c-1.4,0-2.7-0.1-4.1-0.1c1.1,17.7-5.1,35.8-18.6,49.3
		c-12.1,12.1-28.1,18.7-45.3,18.7s-33.2-6.6-45.3-18.7l0,0l0,0l-22.5-22.6l-22.6,22.6c-12.5,12.4-28.9,18.7-45.3,18.7
		s-32.8-6.2-45.2-18.7c-13.5-13.5-19.7-31.6-18.6-49.3c-1.4,0.1-2.7,0.1-4.1,0.1c-12.9,0-25.8-3.9-36.8-11.6H960v128h2048V960
		h-851.4C2145.9,967.5,2133.1,971.6,2119.8,971.6z"/>
	<rect x="960" y="1120" display="inline" fill="#FFCC00" width="2048" height="128"/>
	<polygon display="inline" fill="#FFCC00" points="1732.4,480 960,480 960,608 1604.4,608 	"/>
	<rect x="960" y="1600" display="inline" fill="#FFCC00" width="2048" height="128"/>
	<path display="inline" fill="#FFCC00" d="M1784.3,907.7c0-1.4,0.1-2.7,0.1-4.1c-1.3,0.1-2.7,0.1-4.1,0.1
		c-17.1,0-33.2-6.6-45.3-18.7c-13.5-13.5-19.7-31.6-18.6-49.3c-1.3,0.1-2.7,0.1-4.1,0.1c-17.1,0-33.2-6.6-45.3-18.7
		c-5-5-9.2-10.8-12.3-17.1H960v128h827.6C1785.4,921.5,1784.3,914.7,1784.3,907.7z"/>
	<polygon display="inline" fill="#FFCC00" points="2363.1,608 3008,608 3008,480 2235.1,480 	"/>
	<rect x="960" y="-160" display="inline" fill="#FFCC00" width="2048" height="128"/>
	<path display="inline" fill="#FFCC00" d="M2300.8,817.2c-12.4,12.4-28.8,18.7-45.2,18.7c-1.4,0-2.7-0.1-4.1-0.1
		c0.1,1.3,0.1,2.7,0.1,4.1c0,17.1-6.6,33.2-18.7,45.3c-12.1,12.1-28.1,18.7-45.3,18.7c-1.4,0-2.7-0.1-4.1-0.1
		c0.1,1.3,0.1,2.7,0.1,4.1c0,7-1.1,13.9-3.3,20.3H3008V800h-694.9C2310,806.4,2305.8,812.2,2300.8,817.2z"/>
	<rect x="960" y="-320" display="inline" fill="#FFCC00" width="2048" height="128"/>
	<rect x="960" display="inline" fill="#FFCC00" width="2048" height="128"/>
	<rect x="960" y="160" display="inline" fill="#FFCC00" width="2048" height="128"/>
	<path display="inline" fill="#FFCC00" d="M960,448h805.5c25.6-20.7,57.2-32,90.5-32h91h36.5h128c33.3,0,65,11.3,90.5,32h806V320
		H960V448z"/>
</g>
<g display="none">
	<path display="inline" fill="#5A5A5A" d="M1803,681.3c-6-6-14.1-9.3-22.6-9.3c-8.6,0-16.6,3.3-22.6,9.3l-67.9,67.9
		c-5.4,5.4-8.6,12.4-9.3,20.1c-0.3,3.6,0,7.2,0.9,10.7c1.4,5.5,4.3,10.5,8.3,14.4c6.1,6.1,14.1,9.4,22.7,9.4s16.6-3.3,22.6-9.3
		l67.9-67.9C1815.5,714.1,1815.5,693.8,1803,681.3z"/>
	<path display="inline" fill="#5A5A5A" d="M1938.8,998.2l32.9-32.9c0.3-0.4,0.6-0.7,1-1.1c0.3-0.3,0.7-0.6,1-0.9l33-33
		c6-6,9.3-14.1,9.3-22.6c0-7.9-2.8-15.3-8-21.2l-2.9-2.9c-5.8-5.1-13.3-8-21.2-8c-8.6,0-16.6,3.3-22.6,9.3l-67.9,67.9
		c-12.5,12.5-12.5,32.8,0,45.3C1906,1010.6,1926.3,1010.6,1938.8,998.2z"/>
	<path display="inline" fill="#5A5A5A" d="M1870.9,930.3L1870.9,930.3l67.9-67.9c12.5-12.5,12.5-32.8,0-45.3c-6-6-14.1-9.3-22.6-9.3
		s-16.6,3.3-22.6,9.3l-67.9,67.9c-6,6-9.3,14.1-9.3,22.6s3.3,16.6,9.3,22.6C1838.1,942.8,1858.4,942.8,1870.9,930.3z"/>
	<path display="inline" fill="#5A5A5A" d="M1780.4,871.7c8.6,0,16.6-3.3,22.6-9.3l67.9-67.9c6-6,9.3-14.1,9.3-22.6
		s-3.3-16.6-9.3-22.6c-12.5-12.5-32.8-12.5-45.3,0l0,0l-67.9,67.9c-12.5,12.5-12.5,32.8,0,45.3l0,0
		C1763.7,868.4,1771.8,871.7,1780.4,871.7z"/>
	<path display="inline" fill="#5A5A5A" d="M1648.7,766.7c1.2-15.2,7.8-29.4,18.5-40.1l67.9-67.9c12.1-12.1,28.1-18.7,45.3-18.7
		s33.2,6.6,45.3,18.7c13.5,13.5,19.7,31.6,18.6,49.3c17.7-1.1,35.8,5.1,49.3,18.6c12.1,12.1,18.7,28.1,18.7,45.3
		c0,1.4-0.1,2.7-0.1,4.1c1.3-0.1,2.7-0.1,4.1-0.1c17.1,0,33.2,6.6,45.3,18.7c8.7,8.7,14.3,19.2,17,30.3c5.7-2.1,12.4-0.9,16.9,3.7
		l31.9,31.9c0.7,0.6,1.4,1.3,2.1,2s1.3,1.4,2,2.1l65.8,65.8c12.5,12.5,32.8,12.5,45.3,0c6-6,9.3-14.1,9.3-22.6s-3.3-16.6-9.3-22.6
		l-101.8-101.8c-6.2-6.2-6.2-16.4,0-22.6s16.4-6.2,22.6,0L2165,862.4c6,6,14.1,9.3,22.6,9.3s16.6-3.3,22.6-9.3
		c12.5-12.5,12.5-32.8,0-45.3l-101.8-101.8c-6.2-6.2-6.2-16.4,0-22.6s16.4-6.2,22.6,0l101.8,101.8c12.5,12.5,32.8,12.5,45.3,0
		c4-4,6.9-9,8.3-14.5l0,0c0.9-3.5,1.2-7.1,0.9-10.7c-0.6-7.7-3.8-14.7-9.3-20.1l0,0l0,0l-169.7-169.7l-3.6-3.5h-151.3l-26.2,26.2
		c-15.2,15.2-35.2,23.5-56.6,23.5s-41.4-8.4-56.6-23.5c-15.2-15.2-23.5-35.2-23.5-56.6s8.4-41.4,23.5-56.6l30.9-30.9
		c3.6-3.6,7.4-7,11.3-10.2h-0.5c-29.9,0-58,11.7-79.2,32.8L1649.6,608l-32,32H1595H960v128h688.6
		C1648.6,767.6,1648.6,767.1,1648.7,766.7z"/>
	<path display="inline" fill="#5A5A5A" d="M2029.2,998.2c6,6,14.1,9.3,22.6,9.3s16.6-3.3,22.6-9.3c12.5-12.5,12.5-32.8,0-45.3
		l-28.6-28.6c-2.9,10.7-8.5,20.6-16.5,28.6l-22.7,22.7L2029.2,998.2L2029.2,998.2z"/>
	<path display="inline" fill="#5A5A5A" d="M2349.9,640l-32-32l-127.2-127.2c-21.2-21.2-49.3-32.8-79.2-32.8h-128H1947
		c-29.9,0-58,11.7-79.2,32.8l-30.9,30.9c-9.1,9.1-14.1,21.2-14.1,33.9c0,12.7,5,24.8,14.1,33.9s21.2,14.1,33.9,14.1
		s24.8-5,33.9-14.1l30.9-30.9c0.4-0.4,0.8-0.7,1.2-1.1c0.2-0.1,0.4-0.3,0.6-0.4c0.2-0.2,0.5-0.4,0.7-0.5c0.2-0.2,0.5-0.3,0.7-0.4
		s0.4-0.3,0.6-0.4s0.5-0.2,0.7-0.4c0.2-0.1,0.5-0.2,0.7-0.3s0.5-0.2,0.7-0.3c0.2-0.1,0.5-0.2,0.7-0.3s0.5-0.1,0.7-0.2
		c0.3-0.1,0.5-0.1,0.8-0.2s0.6-0.1,0.9-0.1c0.2,0,0.4-0.1,0.7-0.1c0.5-0.1,1.1-0.1,1.6-0.1h164.5c0.2,0,0.3,0,0.5,0
		c0.4,0,0.7,0,1.1,0.1c0.2,0,0.5,0.1,0.7,0.1c0.3,0,0.6,0.1,0.8,0.1c0.3,0.1,0.5,0.1,0.8,0.2s0.5,0.1,0.8,0.2s0.5,0.2,0.7,0.3
		c0.2,0.1,0.5,0.2,0.7,0.3c0.2,0.1,0.5,0.2,0.7,0.3c0.2,0.1,0.5,0.2,0.7,0.4c0.2,0.1,0.4,0.3,0.6,0.4s0.5,0.3,0.7,0.4
		c0.2,0.2,0.4,0.3,0.7,0.5c0.2,0.1,0.4,0.3,0.6,0.4c0.3,0.2,0.5,0.5,0.8,0.7c0.1,0.1,0.2,0.2,0.4,0.3l8.3,8.2l0,0l0,0l169.7,169.7
		l0,0c10.7,10.7,17.3,25,18.5,40.1l0,0c0,0.4,0.1,0.9,0.1,1.3H3008V640h-635.5H2349.9z"/>
</g>
<polygon display="none" fill="none" points="2205.7,0 1762.3,0 1041.8,1248 2926.2,1248 "/>
<g display="none">
	<path display="inline" fill="#FFCC00" d="M1856,416h91h36.5h128c33.4,0,64.9,11.3,90.5,32h262.4l-73.9-128h-812.9l-73.9,128h261.9
		C1791.1,427.3,1822.6,416,1856,416z"/>
	<polygon display="inline" fill="#FFCC00" points="2298.1,160 1669.9,160 1596,288 2372,288 	"/>
	<polygon display="inline" fill="#FFCC00" points="2205.7,0 1762.3,0 1688.4,128 2279.6,128 	"/>
	<polygon display="inline" fill="#FFCC00" points="1732.4,480 1485.2,480 1411.3,608 1604.4,608 	"/>
	<path display="inline" fill="#FFCC00" d="M2760,960h-603.2c-10.7,7.5-23.4,11.5-36.7,11.5c-1.4,0-2.8,0-4.1-0.1
		c1.1,17.7-5.1,35.8-18.6,49.3c-12.1,12.1-28.1,18.7-45.3,18.7s-33.2-6.6-45.3-18.7l-22.5-22.6l-22.6,22.6
		c-12.5,12.5-28.9,18.7-45.3,18.7s-32.8-6.3-45.2-18.7c-13.5-13.5-19.7-31.6-18.6-49.3c-1.4,0-2.7,0.1-4.1,0.1
		c-12.9,0-25.7-3.8-36.7-11.5H1208l-73.9,128h1699.7L2760,960z"/>
	<polygon display="inline" fill="#FFCC00" points="2852.3,1120 1115.7,1120 1041.8,1248 2926.2,1248 	"/>
	<path display="inline" fill="#FFCC00" d="M2046,924.3c-0.3,1.2-0.7,2.5-1.1,3.7h4.8L2046,924.3z"/>
	<path display="inline" fill="#FFCC00" d="M1784.5,907.5c0-1.4,0-2.8,0.1-4.1c-1.4,0-2.7,0.1-4.1,0.1c-17.2,0-33.2-6.6-45.3-18.7
		c-13.5-13.5-19.7-31.6-18.6-49.3c-1.4,0-2.7,0.1-4.1,0.1c-17.2,0-33.2-6.6-45.3-18.7c-5-4.9-9.1-10.7-12.2-16.9h-354.6l-73.9,128
		h561.3C1785.6,921.5,1784.5,914.6,1784.5,907.5z"/>
	<polygon display="inline" fill="#FFCC00" points="2363.1,608 2556.7,608 2482.8,480 2235.1,480 	"/>
	<path display="inline" fill="#FFCC00" d="M2301.3,816.8c-12.5,12.5-28.8,18.7-45.2,18.7c-1.4,0-2.7,0-4.1-0.1
		c0,1.4,0.1,2.7,0.1,4.1c0,17.2-6.6,33.2-18.7,45.3c-12.1,12.1-28.2,18.7-45.3,18.7c-1.4,0-2.8,0-4.1-0.1c0,1.4,0.1,2.7,0.1,4.1
		c0,7.1-1.1,14-3.3,20.5h560.7l-73.9-128h-354.2C2310.3,806.2,2306.2,811.9,2301.3,816.8z"/>
</g>
<rect display="none" fill="#DFDFDF" width="3968" height="2048"/>
<rect x="-480" y="-640" display="none" fill="#DFDFDF" width="4928" height="2688"/>
<g display="none" opacity="0.1">
	<rect x="960" y="2880" display="inline" fill="#FFCC00" width="2048" height="128"/>
	<rect x="960" y="3040" display="inline" fill="#FFCC00" width="2048" height="128"/>
	<rect x="960" y="2720" display="inline" fill="#FFCC00" width="2048" height="128"/>
	<rect x="960" y="2560" display="inline" fill="#FFCC00" width="2048" height="128"/>
	<rect x="960" y="3520" display="inline" fill="#FFCC00" width="2048" height="128"/>
	<rect x="960" y="3680" display="inline" fill="#FFCC00" width="2048" height="128"/>
	<rect x="960" y="3840" display="inline" fill="#FFCC00" width="2048" height="128"/>
	<rect x="960" y="4000" display="inline" fill="#FFCC00" width="2048" height="128"/>
	<rect x="960" y="3360" display="inline" fill="#FFCC00" width="2048" height="128"/>
	<rect x="960" y="3200" display="inline" fill="#FFCC00" width="2048" height="128"/>
	<rect x="960" y="2400" display="inline" fill="#FFCC00" width="2048" height="128"/>
	<rect x="960" y="2240" display="inline" fill="#FFCC00" width="2048" height="128"/>
	<rect x="960" y="2080" display="inline" fill="#FFCC00" width="2048" height="128"/>
	<rect x="960" y="1920" display="inline" fill="#FFCC00" width="2048" height="128"/>
	<rect x="960" y="1760" display="inline" fill="#FFCC00" width="2048" height="128"/>
</g>
<g display="none" opacity="0.1">
	<rect x="1920" y="1920" display="inline" fill="#FFCC00" width="128" height="2048"/>
	<rect x="2080" y="1920" display="inline" fill="#FFCC00" width="128" height="2048"/>
	<rect x="1760" y="1920" display="inline" fill="#FFCC00" width="128" height="2048"/>
	<rect x="1600" y="1920" display="inline" fill="#FFCC00" width="128" height="2048"/>
	<rect x="2560" y="1920" display="inline" fill="#FFCC00" width="128" height="2048"/>
	<rect x="2720" y="1920" display="inline" fill="#FFCC00" width="128" height="2048"/>
	<rect x="2880" y="1920" display="inline" fill="#FFCC00" width="128" height="2048"/>
	<rect x="3040" y="1920" display="inline" fill="#FFCC00" width="128" height="2048"/>
	<rect x="2400" y="1920" display="inline" fill="#FFCC00" width="128" height="2048"/>
	<rect x="2240" y="1920" display="inline" fill="#FFCC00" width="128" height="2048"/>
	<rect x="1440" y="1920" display="inline" fill="#FFCC00" width="128" height="2048"/>
	<rect x="1280" y="1920" display="inline" fill="#FFCC00" width="128" height="2048"/>
	<rect x="1120" y="1920" display="inline" fill="#FFCC00" width="128" height="2048"/>
	<rect x="960" y="1920" display="inline" fill="#FFCC00" width="128" height="2048"/>
	<rect x="800" y="1920" display="inline" fill="#FFCC00" width="128" height="2048"/>
</g>
<g display="none" opacity="0.1">
	<rect x="-640" y="2880" display="inline" fill="#FFCC00" width="2048" height="128"/>
	<rect x="-640" y="3040" display="inline" fill="#FFCC00" width="2048" height="128"/>
	<rect x="-640" y="2720" display="inline" fill="#FFCC00" width="2048" height="128"/>
	<rect x="-640" y="2560" display="inline" fill="#FFCC00" width="2048" height="128"/>
	<rect x="-640" y="3520" display="inline" fill="#FFCC00" width="2048" height="128"/>
	<rect x="-640" y="3680" display="inline" fill="#FFCC00" width="2048" height="128"/>
	<rect x="-640" y="3840" display="inline" fill="#FFCC00" width="2048" height="128"/>
	<rect x="-640" y="4000" display="inline" fill="#FFCC00" width="2048" height="128"/>
	<rect x="-640" y="3360" display="inline" fill="#FFCC00" width="2048" height="128"/>
	<rect x="-640" y="3200" display="inline" fill="#FFCC00" width="2048" height="128"/>
	<rect x="-640" y="2400" display="inline" fill="#FFCC00" width="2048" height="128"/>
	<rect x="-640" y="2240" display="inline" fill="#FFCC00" width="2048" height="128"/>
	<rect x="-640" y="2080" display="inline" fill="#FFCC00" width="2048" height="128"/>
	<rect x="-640" y="1920" display="inline" fill="#FFCC00" width="2048" height="128"/>
	<rect x="-640" y="1760" display="inline" fill="#FFCC00" width="2048" height="128"/>
</g>
<g display="none" opacity="0.1">
	<rect x="320" y="1920" display="inline" fill="#FFCC00" width="128" height="2048"/>
	<rect x="480" y="1920" display="inline" fill="#FFCC00" width="128" height="2048"/>
	<rect x="160" y="1920" display="inline" fill="#FFCC00" width="128" height="2048"/>
	<rect y="1920" display="inline" fill="#FFCC00" width="128" height="2048"/>
	<rect x="960" y="1920" display="inline" fill="#FFCC00" width="128" height="2048"/>
	<rect x="1120" y="1920" display="inline" fill="#FFCC00" width="128" height="2048"/>
	<rect x="1280" y="1920" display="inline" fill="#FFCC00" width="128" height="2048"/>
	<rect x="1440" y="1920" display="inline" fill="#FFCC00" width="128" height="2048"/>
	<rect x="800" y="1920" display="inline" fill="#FFCC00" width="128" height="2048"/>
	<rect x="640" y="1920" display="inline" fill="#FFCC00" width="128" height="2048"/>
	<rect x="-160" y="1920" display="inline" fill="#FFCC00" width="128" height="2048"/>
	<rect x="-320" y="1920" display="inline" fill="#FFCC00" width="128" height="2048"/>
	<rect x="-480" y="1920" display="inline" fill="#FFCC00" width="128" height="2048"/>
	<rect x="-640" y="1920" display="inline" fill="#FFCC00" width="128" height="2048"/>
	<rect x="-800" y="1920" display="inline" fill="#FFCC00" width="128" height="2048"/>
</g>
<g display="none">
	<rect x="2080" y="544" display="inline" fill="#FF3B30" width="288" height="704"/>
	<rect x="1600" y="544" display="inline" fill="#FF3B30" width="288" height="704"/>
	<rect x="800" y="160" display="inline" fill="#FF3B30" width="768" height="288"/>
	<rect x="1040" y="160" display="inline" fill="#FF3B30" width="288" height="1088"/>
	<rect x="3200" y="160" display="inline" fill="#FF3B30" width="768" height="288"/>
	<rect x="3440" y="160" display="inline" fill="#FF3B30" width="288" height="1088"/>
	<rect x="344" y="160" display="inline" fill="#FF3B30" width="424" height="288"/>
	<rect y="960" display="inline" fill="#FF3B30" width="424" height="288"/>
	<rect x="344" y="560" display="inline" fill="#FF3B30" width="80" height="288"/>
	<path display="inline" fill="#FF3B30" d="M1984,448c53,0,96,43,96,96h288c0-212.1-171.9-384-384-384s-384,171.9-384,384h288
		C1888,491,1931,448,1984,448z"/>
	<rect x="1888" y="560" display="inline" fill="#FF3B30" width="192" height="288"/>
	<rect x="2400" y="160" display="inline" fill="#FF3B30" width="424" height="288"/>
	<path display="inline" fill="#FF3B30" d="M2824,160v288c30.9,0,56,25.1,56,56s-25.1,56-56,56v288c190,0,344-154,344-344
		S3014,160,2824,160z"/>
	<path display="inline" fill="#FF3B30" d="M2824,560v288c30.9,0,56,25.1,56,56h288C3168,714,3014,560,2824,560z"/>
	<rect x="2880" y="904" display="inline" fill="#FF3B30" width="288" height="344"/>
	<rect x="2628" y="560" display="inline" fill="#FF3B30" width="288" height="288"/>
	<path display="inline" fill="#FF3B30" d="M424,560v288c30.9,0,56,25.1,56,56s-25.1,56-56,56v288c190,0,344-154,344-344
		S614,560,424,560z"/>
	<path display="inline" fill="#FF3B30" d="M288,504c0-30.9,25.1-56,56-56V160C154,160,0,314,0,504s154,344,344,344V560
		C313.1,560,288,534.9,288,504z"/>
</g>
<g>
	<path fill="#FF3B30" d="M1040,160H816c-8.8,0-16,7.2-16,16v256c0,8.8,7.2,16,16,16h224v784c0,8.8,7.2,16,16,16h256
		c8.8,0,16-7.2,16-16V448h224c8.8,0,16-7.2,16-16V176c0-8.8-7.2-16-16-16h-224H1040z"/>
	<path fill="#FF3B30" d="M3968,176c0-8.8-7.2-16-16-16h-224h-288h-224c-8.8,0-16,7.2-16,16v256c0,8.8,7.2,16,16,16h224v784
		c0,8.8,7.2,16,16,16h256c8.8,0,16-7.2,16-16V448h224c8.8,0,16-7.2,16-16V176z"/>
	<path fill="#FF3B30" d="M1986.6,160C1774,158.6,1600,333.9,1600,546.5V1232c0,8.8,7.2,16,16,16h256c8.8,0,16-7.2,16-16V848h192v384
		c0,8.8,7.2,16,16,16h256c8.8,0,16-7.2,16-16V544C2368,332.8,2197.5,161.4,1986.6,160z M2080,560h-192v-14.8
		c0-52.9,42.3-96.8,95.2-97.2c53.4-0.4,96.8,42.7,96.8,96V560z"/>
	<path fill="#FF3B30" d="M2821.7,160H2416c-8.8,0-16,7.2-16,16v256c0,8.8,7.2,16,16,16h407.2c30.8,0,56.4,24.4,56.8,55.2
		c0.4,31.3-24.8,56.8-56,56.8h-180c-8.8,0-16,7.2-16,16v256c0,8.8,7.2,16,16,16h180c30.9,0,56,25.1,56,56v328c0,8.8,7.2,16,16,16
		h256c8.8,0,16-7.2,16-16V904c0-74.6-23.7-143.6-64.1-200c40.2-56.1,63.9-124.8,64.1-199.1C3168.5,315.2,3011.4,160,2821.7,160z"/>
	<path fill="#FF3B30" d="M0,501.7C-1.2,692.1,155.8,848,346.2,848h76.9c30.8,0,56.4,24.4,56.8,55.2c0.4,31.3-24.8,56.8-56,56.8H16
		c-8.8,0-16,7.2-16,16v256c0,8.8,7.2,16,16,16h405.7c190.5,0,347.5-155.8,346.2-346.3c-1.2-189-154.8-341.7-344-341.7h-79.2
		c-30.8,0-56.4-24.4-56.8-55.2c-0.4-31.3,24.8-56.8,56-56.8h408c8.8,0,16-7.2,16-16V176c0-8.8-7.2-16-16-16H344
		C154.8,160,1.2,312.8,0,501.7z"/>
</g>
<path fill="#FFFFFF" d="M2168.7,0h-369.5c-22.9,0-44,12.2-55.4,32l-646.6,1120c-24.6,42.7,6.2,96,55.4,96h1662.7
	c49.3,0,80.1-53.3,55.4-96L2224.2,32C2212.7,12.2,2191.6,0,2168.7,0z"/>
<g>
	<path fill="#FFCC00" d="M1856,416h91h36.5h128c33.4,0,64.9,11.3,90.5,32h262.4l-73.9-128h-812.9l-73.9,128h261.9
		C1791.1,427.3,1822.6,416,1856,416z"/>
	<polygon fill="#FFCC00" points="2298.1,160 1669.9,160 1596,288 2372,288 	"/>
	<path fill="#FFCC00" d="M2168.7,0h-369.5c-22.9,0-44,12.2-55.4,32l-55.4,96h591.2l-55.4-96C2212.7,12.2,2191.6,0,2168.7,0z"/>
	<polygon fill="#FFCC00" points="1732.4,480 1485.2,480 1411.3,608 1604.4,608 	"/>
	<path fill="#FFCC00" d="M2760,960h-603.2c-10.7,7.5-23.4,11.5-36.7,11.5c-1.4,0-2.8,0-4.1-0.1c1.1,17.7-5.1,35.8-18.6,49.3
		c-12.1,12.1-28.1,18.7-45.3,18.7s-33.2-6.6-45.3-18.7l-22.5-22.6l-22.6,22.6c-12.5,12.5-28.9,18.7-45.3,18.7s-32.8-6.3-45.2-18.7
		c-13.5-13.5-19.7-31.6-18.6-49.3c-1.4,0-2.7,0.1-4.1,0.1c-12.9,0-25.7-3.8-36.7-11.5H1208l-73.9,128h1699.7L2760,960z"/>
	<path fill="#FFCC00" d="M2852.3,1120H1115.7l-18.5,32c-24.6,42.7,6.2,96,55.4,96h1662.7c49.3,0,80.1-53.3,55.4-96L2852.3,1120z"/>
	<path fill="#FFCC00" d="M2046,924.3c-0.3,1.2-0.7,2.5-1.1,3.7h4.8L2046,924.3z"/>
	<path fill="#FFCC00" d="M1784.5,907.5c0-1.4,0-2.8,0.1-4.1c-1.4,0-2.7,0.1-4.1,0.1c-17.2,0-33.2-6.6-45.3-18.7
		c-13.5-13.5-19.7-31.6-18.6-49.3c-1.4,0-2.7,0.1-4.1,0.1c-17.2,0-33.2-6.6-45.3-18.7c-5-4.9-9.1-10.7-12.2-16.9h-354.6l-73.9,128
		h561.3C1785.6,921.5,1784.5,914.6,1784.5,907.5z"/>
	<polygon fill="#FFCC00" points="2363.1,608 2556.7,608 2482.8,480 2235.1,480 	"/>
	<path fill="#FFCC00" d="M2301.3,816.8c-12.5,12.5-28.8,18.7-45.2,18.7c-1.4,0-2.7,0-4.1-0.1c0,1.4,0.1,2.7,0.1,4.1
		c0,17.2-6.6,33.2-18.7,45.3c-12.1,12.1-28.2,18.7-45.3,18.7c-1.4,0-2.8,0-4.1-0.1c0,1.4,0.1,2.7,0.1,4.1c0,7.1-1.1,14-3.3,20.5
		h560.7l-73.9-128h-354.2C2310.3,806.2,2306.2,811.9,2301.3,816.8z"/>
</g>
<g>
	<path fill="#5A5A5A" d="M1803,681.3c-6-6-14.1-9.3-22.6-9.3c-8.6,0-16.6,3.3-22.6,9.3l-67.9,67.9c-5.4,5.4-8.6,12.4-9.3,20.1
		c-0.3,3.6,0,7.2,0.9,10.7c1.4,5.5,4.3,10.5,8.3,14.4c6.1,6.1,14.1,9.4,22.7,9.4s16.6-3.3,22.6-9.3l67.9-67.9
		C1815.5,714.1,1815.5,693.8,1803,681.3z"/>
	<path fill="#5A5A5A" d="M2016,907.7c0-7.9-2.8-15.3-8-21.2l-2.9-2.9c-5.8-5.1-13.3-8-21.2-8c-8.6,0-16.6,3.3-22.6,9.3l-67.9,67.9
		c-12.5,12.5-12.5,32.8,0,45.3c12.6,12.5,32.9,12.5,45.4,0.1l32.9-32.9c0.3-0.4,0.6-0.7,1-1.1c0.3-0.3,0.7-0.6,1-0.9l33-33
		C2012.7,924.3,2016,916.2,2016,907.7z"/>
	<path fill="#5A5A5A" d="M1938.8,817.1c-6-6-14.1-9.3-22.6-9.3s-16.6,3.3-22.6,9.3l-67.9,67.9c-6,6-9.3,14.1-9.3,22.6
		s3.3,16.6,9.3,22.6c12.4,12.6,32.7,12.6,45.2,0.1l67.9-67.9C1951.3,849.9,1951.3,829.6,1938.8,817.1z"/>
	<path fill="#5A5A5A" d="M1880.2,771.9c0-8.5-3.3-16.6-9.3-22.6c-12.5-12.5-32.8-12.5-45.3,0l-67.9,67.9
		c-12.5,12.5-12.5,32.8,0,45.3c6,5.9,14.1,9.2,22.7,9.2s16.6-3.3,22.6-9.3l67.9-67.9C1876.9,788.5,1880.2,780.4,1880.2,771.9z"/>
	<path fill="#5A5A5A" d="M1648.6,768c0-0.4,0-0.9,0.1-1.3c1.2-15.2,7.8-29.4,18.5-40.1l67.9-67.9c12.1-12.1,28.1-18.7,45.3-18.7
		s33.2,6.6,45.3,18.7c13.5,13.5,19.7,31.6,18.6,49.3c17.7-1.1,35.8,5.1,49.3,18.6c12.1,12.1,18.7,28.1,18.7,45.3
		c0,1.4-0.1,2.7-0.1,4.1c1.3-0.1,2.7-0.1,4.1-0.1c17.1,0,33.2,6.6,45.3,18.7c8.7,8.7,14.3,19.2,17,30.3c5.7-2.1,12.4-0.9,16.9,3.7
		l31.9,31.9c0.7,0.6,1.4,1.3,2.1,2s1.3,1.4,2,2.1l65.8,65.8c12.5,12.5,32.8,12.5,45.3,0c6-6,9.3-14.1,9.3-22.6s-3.3-16.6-9.3-22.6
		l-101.8-101.8c-6.2-6.2-6.2-16.4,0-22.6s16.4-6.2,22.6,0L2165,862.4c6,6,14.1,9.3,22.6,9.3s16.6-3.3,22.6-9.3
		c12.5-12.5,12.5-32.8,0-45.3l-101.8-101.8c-6.2-6.2-6.2-16.4,0-22.6s16.4-6.2,22.6,0l101.8,101.8c12.5,12.5,32.8,12.5,45.3,0
		c4-4,6.9-9,8.3-14.5c0.9-3.5,1.2-7.1,0.9-10.7c-0.6-7.7-3.8-14.7-9.3-20.1l-169.7-169.7l-3.6-3.5h-151.3l-26.2,26.2
		c-15.2,15.2-35.2,23.5-56.6,23.5s-41.4-8.4-56.6-23.5c-15.2-15.2-23.5-35.2-23.5-56.6s8.4-41.4,23.5-56.6l30.9-30.9
		c3.6-3.6,7.4-7,11.3-10.2h-0.5c-29.9,0-58,11.7-79.2,32.8L1649.6,608l-32,32H1595h-202.2l-73.9,128H1648.6z"/>
	<path fill="#5A5A5A" d="M2045.8,924.3c-2.9,10.7-8.5,20.6-16.5,28.6l-22.7,22.7l22.6,22.6c6,6,14.1,9.3,22.6,9.3s16.6-3.3,22.6-9.3
		c12.5-12.5,12.5-32.8,0-45.3L2045.8,924.3z"/>
	<path fill="#5A5A5A" d="M2575.2,640h-202.7h-22.6l-32-32l-127.2-127.2c-21.2-21.2-49.3-32.8-79.2-32.8h-128H1947
		c-29.9,0-58,11.7-79.2,32.8l-30.9,30.9c-9.1,9.1-14.1,21.2-14.1,33.9c0,12.7,5,24.8,14.1,33.9s21.2,14.1,33.9,14.1
		s24.8-5,33.9-14.1l30.9-30.9c0.4-0.4,0.8-0.7,1.2-1.1c0.2-0.1,0.4-0.3,0.6-0.4c0.2-0.2,0.5-0.4,0.7-0.5c0.2-0.2,0.5-0.3,0.7-0.4
		s0.4-0.3,0.6-0.4s0.5-0.2,0.7-0.4c0.2-0.1,0.5-0.2,0.7-0.3s0.5-0.2,0.7-0.3c0.2-0.1,0.5-0.2,0.7-0.3s0.5-0.1,0.7-0.2
		c0.3-0.1,0.5-0.1,0.8-0.2s0.6-0.1,0.9-0.1c0.2,0,0.4-0.1,0.7-0.1c0.5-0.1,1.1-0.1,1.6-0.1h164.5c0.2,0,0.3,0,0.5,0
		c0.4,0,0.7,0,1.1,0.1c0.2,0,0.5,0.1,0.7,0.1c0.3,0,0.6,0.1,0.8,0.1c0.3,0.1,0.5,0.1,0.8,0.2s0.5,0.1,0.8,0.2s0.5,0.2,0.7,0.3
		c0.2,0.1,0.5,0.2,0.7,0.3c0.2,0.1,0.5,0.2,0.7,0.3c0.2,0.1,0.5,0.2,0.7,0.4c0.2,0.1,0.4,0.3,0.6,0.4s0.5,0.3,0.7,0.4
		c0.2,0.2,0.4,0.3,0.7,0.5c0.2,0.1,0.4,0.3,0.6,0.4c0.3,0.2,0.5,0.5,0.8,0.7c0.1,0.1,0.2,0.2,0.4,0.3l8.3,8.2l169.7,169.7
		c10.7,10.7,17.3,25,18.5,40.1c0,0.4,0.1,0.9,0.1,1.3H2649L2575.2,640z"/>
</g>
<g>
	<path fill="#5A5A5A" d="M1984,1600c-123.7,0-224,100.3-224,224s100.3,224,224,224s224-100.3,224-224S2107.7,1600,1984,1600z
		 M1984,1984c-88.4,0-160-71.6-160-160s71.6-160,160-160s160,71.6,160,160C2144,1912.4,2072.4,1984,1984,1984z"/>
	<circle fill="#5A5A5A" cx="1984" cy="1824" r="64"/>
	<path fill="#5A5A5A" d="M2400,1792h-162c1.3,10.5,2,21.2,2,32s-0.7,21.5-2,32h162v192h64v-192v-64v-192h-64V1792z"/>
	<path fill="#5A5A5A" d="M2656,1600c-88.4,0-160,71.6-160,160v32v64v192h64v-192h192v192h64v-192v-64v-32
		C2816,1671.6,2744.4,1600,2656,1600z M2752,1792h-192v-32c0-53,43-96,96-96s96,43,96,96V1792z"/>
	<path fill="#5A5A5A" d="M1056,1696c0,53-43,96-96,96s-96-43-96-96v-96h-64v96c0,77.4,55,142,128,156.8V2048h64v-195.2
		c73-14.8,128-79.4,128-156.8v-96h-64V1696z"/>
	<path fill="#5A5A5A" d="M96,1824c0,123.7,100.3,224,224,224h96v-64h-96c-88.4,0-160-71.6-160-160s71.6-160,160-160h96v-64h-96
		C196.3,1600,96,1700.3,96,1824z"/>
	<path fill="#5A5A5A" d="M3296,1600h-32h-64v448h64h32c123.7,0,224-100.3,224-224S3419.7,1600,3296,1600z M3296,1984h-32v-320h32
		c88.4,0,160,71.6,160,160C3456,1912.4,3384.4,1984,3296,1984z"/>
	<path fill="#5A5A5A" d="M768,1728c0-70.7-57.3-128-128-128H512h-64v448h64v-192h128c35.3,0,64,28.7,64,64v128h64v-128
		c0-38.2-16.8-72.5-43.3-96C751.2,1800.5,768,1766.2,768,1728z M512,1792v-128h128c35.3,0,64,28.7,64,64s-28.7,64-64,64H512z"/>
	<path fill="#5A5A5A" d="M1344,1600h-128h-64v448h64v-192h128c70.7,0,128-57.3,128-128S1414.7,1600,1344,1600z M1344,1792h-128v-128
		h128c35.3,0,64,28.7,64,64S1379.3,1792,1344,1792z"/>
	<path fill="#5A5A5A" d="M3680,1664h192v-64h-192c-70.7,0-128,57.3-128,128s57.3,128,128,128h64c35.3,0,64,28.7,64,64
		s-28.7,64-64,64h-192v64h192c70.7,0,128-57.3,128-128s-57.3-128-128-128h-64c-35.3,0-64-28.7-64-64S3644.7,1664,3680,1664z"/>
	<path fill="#5A5A5A" d="M1784.2,1664c20.8-26,46.6-47.8,75.8-64h-164h-64h-128v64h128v384h64v-384H1784.2z"/>
	<polygon fill="#5A5A5A" points="3104,1927.5 2916.9,1600 2912,1600 2880,1600 2848,1600 2848,2048 2912,2048 2912,1720.5 
		3099.1,2048 3104,2048 3136,2048 3168,2048 3168,1600 3104,1600 	"/>
</g>
<rect x="-576" y="1280" display="none" fill="#DFDFDF" width="5120" height="864"/>
</svg>
