<?xml version="1.0" encoding="utf-8"?>
<!-- Generator: Adobe Illustrator 21.1.0, SVG Export Plug-In . SVG Version: 6.00 Build 0)  -->
<svg version="1.1" id="Layer_1" xmlns="http://www.w3.org/2000/svg" xmlns:xlink="http://www.w3.org/1999/xlink" x="0px" y="0px"
	 viewBox="0 0 5728 1408" enable-background="new 0 0 5728 1408" xml:space="preserve">
<rect x="-128" y="-320" display="none" fill="#EEEEEE" width="2048" height="2048"/>
<rect y="-192" display="none" fill="#EEEEEE" width="1792" height="1792"/>
<rect x="-128" y="-320" display="none" fill="#FAFAFA" width="1024" height="1024"/>
<g display="none">
	<rect x="-128" y="640" display="inline" fill="#FFCC00" width="2048" height="128"/>
	<rect x="-128" y="800" display="inline" fill="#FFCC00" width="2048" height="128"/>
	<rect x="-128" y="480" display="inline" fill="#FFCC00" width="2048" height="128"/>
	<rect x="-128" y="320" display="inline" fill="#FFCC00" width="2048" height="128"/>
	<rect x="-128" y="1280" display="inline" fill="#FFCC00" width="2048" height="128"/>
	<rect x="-128" y="1440" display="inline" fill="#FFCC00" width="2048" height="128"/>
	<rect x="-128" y="1600" display="inline" fill="#FFCC00" width="2048" height="128"/>
	<rect x="-128" y="1760" display="inline" fill="#FFCC00" width="2048" height="128"/>
	<rect x="-128" y="1120" display="inline" fill="#FFCC00" width="2048" height="128"/>
	<rect x="-128" y="960" display="inline" fill="#FFCC00" width="2048" height="128"/>
	<rect x="-128" y="160" display="inline" fill="#FFCC00" width="2048" height="128"/>
	<rect x="-128" display="inline" fill="#FFCC00" width="2048" height="128"/>
	<rect x="-128" y="-160" display="inline" fill="#FFCC00" width="2048" height="128"/>
	<rect x="-128" y="-320" display="inline" fill="#FFCC00" width="2048" height="128"/>
	<rect x="-128" y="-480" display="inline" fill="#FFCC00" width="2048" height="128"/>
</g>
<path display="none" d="M779.8,480.8C801,459.6,829.1,448,859,448h36.5h128c29.9,0,58,11.7,79.2,32.8L1229.9,608l32,32h22.6H1920
	v-32h-644.9l-149.8-149.8C1098.1,431,1062,416,1023.5,416h-128H859h-91c-38.5,0-74.6,15-101.8,42.2L516.4,608H-128v32h635h22.6
	l32-32l127.2-127.2C710,459.6,738.1,448,768,448h0.5c-3.9,3.2-7.7,6.6-11.3,10.2l-30.9,30.9c-15.2,15.2-23.5,35.2-23.5,56.6
	s8.4,41.4,23.5,56.6c15.2,15.2,35.2,23.5,56.6,23.5s41.4-8.4,56.6-23.5l26.2-26.2H1017l3.6,3.5l169.7,169.7l0,0l0,0
	c5.4,5.4,8.6,12.4,9.3,20.1c0.3,3.6,0,7.2-0.9,10.7l0,0c-1.4,5.5-4.3,10.5-8.3,14.5c-12.5,12.5-32.8,12.5-45.3,0l-101.8-101.8
	c-6.2-6.2-16.4-6.2-22.6,0s-6.2,16.4,0,22.6l101.8,101.8c12.5,12.5,12.5,32.8,0,45.3c-6,6-14.1,9.3-22.6,9.3s-16.6-3.3-22.6-9.3
	L975.5,760.7c-6.2-6.2-16.4-6.2-22.6,0s-6.2,16.4,0,22.6L1054.4,885c6,6,9.3,14.1,9.3,22.6s-3.3,16.6-9.3,22.6
	c-12.5,12.5-32.8,12.5-45.3,0l-65.8-65.8c-0.6-0.7-1.3-1.4-2-2.1s-1.4-1.3-2.1-2l-31.9-31.9c-4.6-4.6-11.2-5.8-16.9-3.7
	c-2.6-11.1-8.3-21.7-17-30.3c-12.1-12.1-28.1-18.7-45.3-18.7c-1.4,0-2.7,0.1-4.1,0.1c0.1-1.3,0.1-2.7,0.1-4.1
	c0-17.1-6.6-33.2-18.7-45.3c-13.5-13.5-31.6-19.7-49.3-18.6c1.1-17.7-5.1-35.8-18.6-49.3c-12.1-12.1-28.1-18.7-45.3-18.7
	s-33.2,6.6-45.3,18.7L579,726.4c-10.7,10.7-17.3,25-18.5,40.1c0,0.4-0.1,0.9-0.1,1.3H-128v32h694.9c3.1,6.3,7.2,12.1,12.3,17.1
	c12.1,12.1,28.1,18.7,45.3,18.7c1.4,0,2.7-0.1,4.1-0.1c-1.1,17.7,5.1,35.8,18.6,49.3c12.1,12.1,28.1,18.7,45.3,18.7
	c1.4,0,2.7-0.1,4.1-0.1c-0.1,1.3-0.1,2.7-0.1,4.1c0,17.1,6.6,33.2,18.7,45.3c12.5,12.5,28.9,18.7,45.3,18.7c1.4,0,2.7-0.1,4.1-0.1
	c-1.1,17.7,5.1,35.8,18.6,49.3c12.4,12.4,28.8,18.7,45.2,18.7s32.8-6.2,45.3-18.7l22.6-22.6l22.5,22.6l0,0l0,0
	c12.1,12.1,28.1,18.7,45.3,18.7c17.2,0,33.2-6.6,45.3-18.7c13.5-13.5,19.7-31.6,18.6-49.3c1.3,0.1,2.7,0.1,4.1,0.1
	c17.1,0,33.2-6.6,45.3-18.7c12.1-12.1,18.7-28.1,18.7-45.3c0-1.4-0.1-2.7-0.1-4.1c1.3,0.1,2.7,0.1,4.1,0.1
	c17.1,0,33.2-6.6,45.3-18.7c12.1-12.1,18.7-28.1,18.7-45.3c0-1.4-0.1-2.7-0.1-4.1c1.4,0.1,2.7,0.1,4.1,0.1
	c16.4,0,32.7-6.2,45.2-18.7c5-5,9.2-10.8,12.3-17.2H1920v-32h-688.6c0-0.4,0-0.9-0.1-1.3l0,0c-1.2-15.2-7.8-29.4-18.5-40.1l0,0
	l-169.7-169.7l0,0l0,0l-8.3-8.2c-0.1-0.1-0.2-0.2-0.4-0.3c-0.3-0.2-0.5-0.5-0.8-0.7c-0.2-0.2-0.4-0.3-0.6-0.4
	c-0.2-0.2-0.4-0.3-0.7-0.5c-0.2-0.2-0.5-0.3-0.7-0.4c-0.2-0.1-0.4-0.3-0.6-0.4c-0.2-0.1-0.5-0.2-0.7-0.4c-0.2-0.1-0.5-0.2-0.7-0.3
	s-0.5-0.2-0.7-0.3s-0.5-0.2-0.7-0.3s-0.5-0.1-0.8-0.2c-0.3-0.1-0.5-0.1-0.8-0.2c-0.3-0.1-0.6-0.1-0.8-0.1c-0.2,0-0.5-0.1-0.7-0.1
	c-0.4,0-0.7,0-1.1-0.1c-0.2,0-0.3,0-0.5,0H859c-0.5,0-1.1,0-1.6,0.1c-0.2,0-0.5,0.1-0.7,0.1c-0.3,0-0.6,0.1-0.9,0.1
	c-0.3,0.1-0.5,0.1-0.8,0.2c-0.2,0.1-0.5,0.1-0.7,0.2c-0.3,0.1-0.5,0.2-0.7,0.3s-0.5,0.2-0.7,0.3s-0.5,0.2-0.7,0.3s-0.5,0.2-0.7,0.4
	c-0.2,0.1-0.4,0.3-0.6,0.4c-0.2,0.1-0.5,0.3-0.7,0.4c-0.2,0.2-0.5,0.3-0.7,0.5c-0.2,0.1-0.4,0.3-0.6,0.4c-0.4,0.3-0.8,0.7-1.2,1.1
	l-30.9,30.9c-9.1,9.1-21.2,14.1-33.9,14.1s-24.8-5-33.9-14.1s-14.1-21.2-14.1-33.9s5-24.8,14.1-33.9L779.8,480.8z M624.5,803.8
	c-8.6,0-16.6-3.3-22.7-9.4c-4-4-6.9-8.9-8.3-14.4c-0.9-3.5-1.2-7.1-0.9-10.7c0.6-7.7,3.8-14.7,9.3-20.1l67.9-67.9
	c6-6,14.1-9.3,22.6-9.3c8.6,0,16.6,3.3,22.6,9.3c12.5,12.5,12.5,32.8,0,45.3l-67.9,67.9C641.1,800.5,633,803.8,624.5,803.8z
	 M692.4,871.7c-8.6,0-16.6-3.3-22.6-9.3l0,0c-12.5-12.5-12.5-32.8,0-45.3l67.9-67.9l0,0c12.5-12.5,32.8-12.5,45.3,0
	c6,6,9.3,14.1,9.3,22.6s-3.3,16.6-9.3,22.6l-67.9,67.9C709,868.4,700.9,871.7,692.4,871.7z M782.9,930.3
	c-12.5,12.5-32.8,12.5-45.3,0c-6-6-9.3-14.1-9.3-22.6s3.3-16.6,9.3-22.6l67.9-67.9c6-6,14.1-9.3,22.6-9.3s16.6,3.3,22.6,9.3
	c12.5,12.5,12.5,32.8,0,45.3L782.9,930.3L782.9,930.3z M885.7,963.3c-0.3,0.3-0.7,0.6-1,0.9c-0.3,0.3-0.7,0.7-1,1.1l-32.9,32.9
	c-12.5,12.5-32.9,12.5-45.3,0c-12.5-12.5-12.5-32.8,0-45.3l67.9-67.9c6-6,14.1-9.3,22.6-9.3c7.9,0,15.3,2.8,21.2,8l2.9,2.9
	c5.1,5.8,8,13.3,8,21.2c0,8.6-3.3,16.6-9.3,22.6L885.7,963.3z M986.5,998.2c-6,6-14.1,9.3-22.6,9.3s-16.6-3.3-22.6-9.3l0,0
	l-22.5-22.6l22.7-22.7c8.1-8.1,13.7-17.9,16.5-28.6l28.6,28.6C999,965.4,999,985.7,986.5,998.2z"/>
<g display="none">
	<rect x="-128" y="1280" display="inline" fill="#FFCC00" width="2048" height="128"/>
	<rect x="-128" y="1440" display="inline" fill="#FFCC00" width="2048" height="128"/>
	<path display="inline" fill="#FFCC00" d="M1031.8,971.6c-1.4,0-2.7-0.1-4.1-0.1c1.1,17.7-5.1,35.8-18.6,49.3
		c-12.1,12.1-28.1,18.7-45.3,18.7s-33.2-6.6-45.3-18.7l0,0l0,0L896,998.2l-22.6,22.6c-12.5,12.4-28.9,18.7-45.3,18.7
		s-32.8-6.2-45.2-18.7c-13.5-13.5-19.7-31.6-18.6-49.3c-1.4,0.1-2.7,0.1-4.1,0.1c-12.9,0-25.8-3.9-36.8-11.6H-128v128h2048V960
		h-851.4C1057.9,967.5,1045.1,971.6,1031.8,971.6z"/>
	<rect x="-128" y="1120" display="inline" fill="#FFCC00" width="2048" height="128"/>
	<polygon display="inline" fill="#FFCC00" points="644.4,480 -128,480 -128,608 516.4,608 	"/>
	<rect x="-128" y="1600" display="inline" fill="#FFCC00" width="2048" height="128"/>
	<path display="inline" fill="#FFCC00" d="M696.3,907.7c0-1.4,0.1-2.7,0.1-4.1c-1.3,0.1-2.7,0.1-4.1,0.1c-17.1,0-33.2-6.6-45.3-18.7
		c-13.5-13.5-19.7-31.6-18.6-49.3c-1.3,0.1-2.7,0.1-4.1,0.1c-17.1,0-33.2-6.6-45.3-18.7c-5-5-9.2-10.8-12.3-17.1H-128v128h827.6
		C697.4,921.5,696.3,914.7,696.3,907.7z"/>
	<polygon display="inline" fill="#FFCC00" points="1275.1,608 1920,608 1920,480 1147.1,480 	"/>
	<rect x="-128" y="-160" display="inline" fill="#FFCC00" width="2048" height="128"/>
	<path display="inline" fill="#FFCC00" d="M1212.8,817.2c-12.4,12.4-28.8,18.7-45.2,18.7c-1.4,0-2.7-0.1-4.1-0.1
		c0.1,1.3,0.1,2.7,0.1,4.1c0,17.1-6.6,33.2-18.7,45.3s-28.1,18.7-45.3,18.7c-1.4,0-2.7-0.1-4.1-0.1c0.1,1.3,0.1,2.7,0.1,4.1
		c0,7-1.1,13.9-3.3,20.3H1920V800h-694.9C1222,806.4,1217.8,812.2,1212.8,817.2z"/>
	<rect x="-128" y="-320" display="inline" fill="#FFCC00" width="2048" height="128"/>
	<rect x="-128" display="inline" fill="#FFCC00" width="2048" height="128"/>
	<rect x="-128" y="160" display="inline" fill="#FFCC00" width="2048" height="128"/>
	<path display="inline" fill="#FFCC00" d="M-128,448h805.5c25.6-20.7,57.2-32,90.5-32h91h36.5h128c33.3,0,65,11.3,90.5,32h806V320
		H-128V448z"/>
</g>
<g display="none">
	<path display="inline" fill="#5A5A5A" d="M715,681.3c-6-6-14.1-9.3-22.6-9.3c-8.6,0-16.6,3.3-22.6,9.3l-67.9,67.9
		c-5.4,5.4-8.6,12.4-9.3,20.1c-0.3,3.6,0,7.2,0.9,10.7c1.4,5.5,4.3,10.5,8.3,14.4c6.1,6.1,14.1,9.4,22.7,9.4s16.6-3.3,22.6-9.3
		l67.9-67.9C727.5,714.1,727.5,693.8,715,681.3z"/>
	<path display="inline" fill="#5A5A5A" d="M850.8,998.2l32.9-32.9c0.3-0.4,0.6-0.7,1-1.1c0.3-0.3,0.7-0.6,1-0.9l33-33
		c6-6,9.3-14.1,9.3-22.6c0-7.9-2.8-15.3-8-21.2l-2.9-2.9c-5.8-5.1-13.3-8-21.2-8c-8.6,0-16.6,3.3-22.6,9.3l-67.9,67.9
		c-12.5,12.5-12.5,32.8,0,45.3C818,1010.6,838.3,1010.6,850.8,998.2z"/>
	<path display="inline" fill="#5A5A5A" d="M782.9,930.3L782.9,930.3l67.9-67.9c12.5-12.5,12.5-32.8,0-45.3c-6-6-14.1-9.3-22.6-9.3
		s-16.6,3.3-22.6,9.3L737.7,885c-6,6-9.3,14.1-9.3,22.6s3.3,16.6,9.3,22.6C750.1,942.8,770.4,942.8,782.9,930.3z"/>
	<path display="inline" fill="#5A5A5A" d="M692.4,871.7c8.6,0,16.6-3.3,22.6-9.3l67.9-67.9c6-6,9.3-14.1,9.3-22.6
		s-3.3-16.6-9.3-22.6c-12.5-12.5-32.8-12.5-45.3,0l0,0l-67.9,67.9c-12.5,12.5-12.5,32.8,0,45.3l0,0
		C675.7,868.4,683.8,871.7,692.4,871.7z"/>
	<path display="inline" fill="#5A5A5A" d="M560.7,766.7c1.2-15.2,7.8-29.4,18.5-40.1l67.9-67.9c12.1-12.1,28.1-18.7,45.3-18.7
		s33.2,6.6,45.3,18.7c13.5,13.5,19.7,31.6,18.6,49.3c17.7-1.1,35.8,5.1,49.3,18.6c12.1,12.1,18.7,28.1,18.7,45.3
		c0,1.4-0.1,2.7-0.1,4.1c1.3-0.1,2.7-0.1,4.1-0.1c17.1,0,33.2,6.6,45.3,18.7c8.7,8.7,14.3,19.2,17,30.3c5.7-2.1,12.4-0.9,16.9,3.7
		l31.9,31.9c0.7,0.6,1.4,1.3,2.1,2s1.3,1.4,2,2.1l65.8,65.8c12.5,12.5,32.8,12.5,45.3,0c6-6,9.3-14.1,9.3-22.6s-3.3-16.6-9.3-22.6
		L952.8,783.4c-6.2-6.2-6.2-16.4,0-22.6c6.2-6.2,16.4-6.2,22.6,0L1077,862.4c6,6,14.1,9.3,22.6,9.3s16.6-3.3,22.6-9.3
		c12.5-12.5,12.5-32.8,0-45.3l-101.8-101.8c-6.2-6.2-6.2-16.4,0-22.6c6.2-6.2,16.4-6.2,22.6,0l101.8,101.8
		c12.5,12.5,32.8,12.5,45.3,0c4-4,6.9-9,8.3-14.5l0,0c0.9-3.5,1.2-7.1,0.9-10.7c-0.6-7.7-3.8-14.7-9.3-20.1l0,0l0,0l-169.7-169.7
		l-3.6-3.5H865.4l-26.2,26.2c-15.2,15.2-35.2,23.5-56.6,23.5s-41.4-8.4-56.6-23.5c-15.2-15.2-23.5-35.2-23.5-56.6
		s8.4-41.4,23.5-56.6l30.9-30.9c3.6-3.6,7.4-7,11.3-10.2h-0.5c-29.9,0-58,11.7-79.2,32.8L561.6,608l-32,32H507h-635v128h688.6
		C560.6,767.6,560.6,767.1,560.7,766.7z"/>
	<path display="inline" fill="#5A5A5A" d="M941.2,998.2c6,6,14.1,9.3,22.6,9.3c8.5,0,16.6-3.3,22.6-9.3c12.5-12.5,12.5-32.8,0-45.3
		l-28.6-28.6c-2.9,10.7-8.5,20.6-16.5,28.6l-22.7,22.7L941.2,998.2L941.2,998.2z"/>
	<path display="inline" fill="#5A5A5A" d="M1261.9,640l-32-32l-127.2-127.2c-21.2-21.2-49.3-32.8-79.2-32.8h-128H859
		c-29.9,0-58,11.7-79.2,32.8l-30.9,30.9c-9.1,9.1-14.1,21.2-14.1,33.9s5,24.8,14.1,33.9c9.1,9.1,21.2,14.1,33.9,14.1
		s24.8-5,33.9-14.1l30.9-30.9c0.4-0.4,0.8-0.7,1.2-1.1c0.2-0.1,0.4-0.3,0.6-0.4c0.2-0.2,0.5-0.4,0.7-0.5c0.2-0.2,0.5-0.3,0.7-0.4
		c0.2-0.1,0.4-0.3,0.6-0.4c0.2-0.1,0.5-0.2,0.7-0.4c0.2-0.1,0.5-0.2,0.7-0.3s0.5-0.2,0.7-0.3s0.5-0.2,0.7-0.3s0.5-0.1,0.7-0.2
		c0.3-0.1,0.5-0.1,0.8-0.2c0.3-0.1,0.6-0.1,0.9-0.1c0.2,0,0.4-0.1,0.7-0.1c0.5-0.1,1.1-0.1,1.6-0.1h164.5c0.2,0,0.3,0,0.5,0
		c0.4,0,0.7,0,1.1,0.1c0.2,0,0.5,0.1,0.7,0.1c0.3,0,0.6,0.1,0.8,0.1c0.3,0.1,0.5,0.1,0.8,0.2c0.3,0.1,0.5,0.1,0.8,0.2
		c0.3,0.1,0.5,0.2,0.7,0.3s0.5,0.2,0.7,0.3s0.5,0.2,0.7,0.3s0.5,0.2,0.7,0.4c0.2,0.1,0.4,0.3,0.6,0.4c0.2,0.1,0.5,0.3,0.7,0.4
		c0.2,0.2,0.4,0.3,0.7,0.5c0.2,0.1,0.4,0.3,0.6,0.4c0.3,0.2,0.5,0.5,0.8,0.7c0.1,0.1,0.2,0.2,0.4,0.3l8.3,8.2l0,0l0,0l169.7,169.7
		l0,0c10.7,10.7,17.3,25,18.5,40.1l0,0c0,0.4,0.1,0.9,0.1,1.3H1920V640h-635.5H1261.9z"/>
</g>
<g>
	<path fill="#F2F4FF" d="M3840,480c-123.7,0-224,100.3-224,224s100.3,224,224,224s224-100.3,224-224S3963.7,480,3840,480z M3840,864
		c-88.4,0-160-71.6-160-160s71.6-160,160-160s160,71.6,160,160S3928.4,864,3840,864z"/>
	<circle fill="#F2F4FF" cx="3840" cy="704" r="64"/>
	<path fill="#F2F4FF" d="M4256,672h-162c1.3,10.5,2,21.2,2,32s-0.7,21.5-2,32h162v192h64V736v-64V480h-64V672z"/>
	<path fill="#F2F4FF" d="M4512,480c-88.4,0-160,71.6-160,160v32v64v192h64V736h192v192h64V736v-64v-32
		C4672,551.6,4600.4,480,4512,480z M4608,672h-192v-32c0-53,43-96,96-96s96,43,96,96V672z"/>
	<path fill="#F2F4FF" d="M2912,576c0,53-43,96-96,96s-96-43-96-96v-96h-64v96c0,77.4,55,142,128,156.8V928h64V732.8
		c73-14.8,128-79.4,128-156.8v-96h-64V576z"/>
	<path fill="#F2F4FF" d="M1952,704c0,123.7,100.3,224,224,224h96v-64h-96c-88.4,0-160-71.6-160-160s71.6-160,160-160h96v-64h-96
		C2052.3,480,1952,580.3,1952,704z"/>
	<path fill="#F2F4FF" d="M5152,480h-32h-64v448h64h32c123.7,0,224-100.3,224-224S5275.7,480,5152,480z M5152,864h-32V544h32
		c88.4,0,160,71.6,160,160S5240.4,864,5152,864z"/>
	<path fill="#F2F4FF" d="M2624,608c0-70.7-57.3-128-128-128h-128h-64v448h64V736h128c35.3,0,64,28.7,64,64v128h64V800
		c0-38.2-16.8-72.5-43.3-96C2607.2,680.5,2624,646.2,2624,608z M2368,672V544h128c35.3,0,64,28.7,64,64s-28.7,64-64,64H2368z"/>
	<path fill="#F2F4FF" d="M3200,480h-128h-64v448h64V736h128c70.7,0,128-57.3,128-128S3270.7,480,3200,480z M3200,672h-128V544h128
		c35.3,0,64,28.7,64,64S3235.3,672,3200,672z"/>
	<path fill="#F2F4FF" d="M5536,544h192v-64h-192c-70.7,0-128,57.3-128,128s57.3,128,128,128h64c35.3,0,64,28.7,64,64s-28.7,64-64,64
		h-192v64h192c70.7,0,128-57.3,128-128s-57.3-128-128-128h-64c-35.3,0-64-28.7-64-64S5500.7,544,5536,544z"/>
	<path fill="#F2F4FF" d="M3640.2,544c20.8-26,46.6-47.8,75.8-64h-164h-64h-128v64h128v384h64V544H3640.2z"/>
	<polygon fill="#F2F4FF" points="4960,807.5 4772.9,480 4768,480 4736,480 4704,480 4704,928 4768,928 4768,600.5 4955.1,928 
		4960,928 4992,928 5024,928 5024,480 4960,480 	"/>
</g>
<g display="none">
	<path display="inline" fill="#FFCC00" d="M768,416h91h36.5h128c33.4,0,64.9,11.3,90.5,32h262.4l-73.9-128H489.6l-73.9,128h261.9
		C703.1,427.3,734.6,416,768,416z"/>
	<polygon display="inline" fill="#FFCC00" points="1210.1,160 581.9,160 508,288 1284,288 	"/>
	<polygon display="inline" fill="#FFCC00" points="1117.7,0 674.3,0 600.4,128 1191.6,128 	"/>
	<polygon display="inline" fill="#FFCC00" points="644.4,480 397.2,480 323.3,608 516.4,608 	"/>
	<path display="inline" fill="#FFCC00" d="M1672,960h-603.2c-10.7,7.5-23.4,11.5-36.7,11.5c-1.4,0-2.8,0-4.1-0.1
		c1.1,17.7-5.1,35.8-18.6,49.3c-12.1,12.1-28.1,18.7-45.3,18.7s-33.2-6.6-45.3-18.7l-22.5-22.6l-22.6,22.6
		c-12.5,12.5-28.9,18.7-45.3,18.7s-32.8-6.3-45.2-18.7c-13.5-13.5-19.7-31.6-18.6-49.3c-1.4,0-2.7,0.1-4.1,0.1
		c-12.9,0-25.7-3.8-36.7-11.5H120l-73.9,128h1699.7L1672,960z"/>
	<polygon display="inline" fill="#FFCC00" points="1764.3,1120 27.7,1120 -46.2,1248 1838.2,1248 	"/>
	<path display="inline" fill="#FFCC00" d="M958,924.3c-0.3,1.2-0.7,2.5-1.1,3.7h4.8L958,924.3z"/>
	<path display="inline" fill="#FFCC00" d="M696.5,907.5c0-1.4,0-2.8,0.1-4.1c-1.4,0-2.7,0.1-4.1,0.1c-17.2,0-33.2-6.6-45.3-18.7
		c-13.5-13.5-19.7-31.6-18.6-49.3c-1.4,0-2.7,0.1-4.1,0.1c-17.2,0-33.2-6.6-45.3-18.7c-5-4.9-9.1-10.7-12.2-16.9H212.4l-73.9,128
		h561.3C697.6,921.5,696.5,914.6,696.5,907.5z"/>
	<polygon display="inline" fill="#FFCC00" points="1275.1,608 1468.7,608 1394.8,480 1147.1,480 	"/>
	<path display="inline" fill="#FFCC00" d="M1213.3,816.8c-12.5,12.5-28.8,18.7-45.2,18.7c-1.4,0-2.7,0-4.1-0.1
		c0,1.4,0.1,2.7,0.1,4.1c0,17.2-6.6,33.2-18.7,45.3s-28.2,18.7-45.3,18.7c-1.4,0-2.8,0-4.1-0.1c0,1.4,0.1,2.7,0.1,4.1
		c0,7.1-1.1,14-3.3,20.5h560.7l-73.9-128h-354.2C1222.3,806.2,1218.2,811.9,1213.3,816.8z"/>
</g>
<g display="none">
	<path display="inline" fill="#FFCC00" d="M768,416h91h36.5h128c33.4,0,64.9,11.3,90.5,32h262.4l-73.9-128H489.6l-73.9,128h261.9
		C703.1,427.3,734.6,416,768,416z"/>
	<polygon display="inline" fill="#FFCC00" points="1210.1,160 581.9,160 508,288 1284,288 	"/>
	<path display="inline" fill="#FFCC00" d="M1099.2,0H692.8c-11.4,0-22,6.1-27.7,16l-64.7,112h591.2l-64.7-112
		C1121.2,6.1,1110.7,0,1099.2,0z"/>
	<polygon display="inline" fill="#FFCC00" points="644.4,480 397.2,480 323.3,608 516.4,608 	"/>
	<path display="inline" fill="#FFCC00" d="M1672,960h-603.2c-10.7,7.5-23.4,11.5-36.7,11.5c-1.4,0-2.8,0-4.1-0.1
		c1.1,17.7-5.1,35.8-18.6,49.3c-12.1,12.1-28.1,18.7-45.3,18.7s-33.2-6.6-45.3-18.7l-22.5-22.6l-22.6,22.6
		c-12.5,12.5-28.9,18.7-45.3,18.7s-32.8-6.3-45.2-18.7c-13.5-13.5-19.7-31.6-18.6-49.3c-1.4,0-2.7,0.1-4.1,0.1
		c-12.9,0-25.7-3.8-36.7-11.5H120l-73.9,128h1699.7L1672,960z"/>
	<path display="inline" fill="#FFCC00" d="M1764.3,1120H27.7l-46.2,80c-12.3,21.3,3.1,48,27.7,48h1773.5c24.6,0,40-26.7,27.7-48
		L1764.3,1120z"/>
	<path display="inline" fill="#FFCC00" d="M958,924.3c-0.3,1.2-0.7,2.5-1.1,3.7h4.8L958,924.3z"/>
	<path display="inline" fill="#FFCC00" d="M696.5,907.5c0-1.4,0-2.8,0.1-4.1c-1.4,0-2.7,0.1-4.1,0.1c-17.2,0-33.2-6.6-45.3-18.7
		c-13.5-13.5-19.7-31.6-18.6-49.3c-1.4,0-2.7,0.1-4.1,0.1c-17.2,0-33.2-6.6-45.3-18.7c-5-4.9-9.1-10.7-12.2-16.9H212.4l-73.9,128
		h561.3C697.6,921.5,696.5,914.6,696.5,907.5z"/>
	<polygon display="inline" fill="#FFCC00" points="1275.1,608 1468.7,608 1394.8,480 1147.1,480 	"/>
	<path display="inline" fill="#FFCC00" d="M1213.3,816.8c-12.5,12.5-28.8,18.7-45.2,18.7c-1.4,0-2.7,0-4.1-0.1
		c0,1.4,0.1,2.7,0.1,4.1c0,17.2-6.6,33.2-18.7,45.3s-28.2,18.7-45.3,18.7c-1.4,0-2.8,0-4.1-0.1c0,1.4,0.1,2.7,0.1,4.1
		c0,7.1-1.1,14-3.3,20.5h560.7l-73.9-128h-354.2C1222.3,806.2,1218.2,811.9,1213.3,816.8z"/>
</g>
<g>
	<path fill="#FFE620" d="M768,416h91h36.5h128c33.4,0,64.9,11.3,90.5,32h262.4l-73.9-128H489.6l-73.9,128h261.9
		C703.1,427.3,734.6,416,768,416z"/>
	<polygon fill="#FFE620" points="1210.1,160 581.9,160 508,288 1284,288 	"/>
	<path fill="#FFE620" d="M1080.7,0H711.3c-22.9,0-44,12.2-55.4,32l-55.4,96h591.2l-55.4-96C1124.7,12.2,1103.6,0,1080.7,0z"/>
	<polygon fill="#FFE620" points="644.4,480 397.2,480 323.3,608 516.4,608 	"/>
	<path fill="#FFE620" d="M1672,960h-603.2c-10.7,7.5-23.4,11.5-36.7,11.5c-1.4,0-2.8,0-4.1-0.1c1.1,17.7-5.1,35.8-18.6,49.3
		c-12.1,12.1-28.1,18.7-45.3,18.7s-33.2-6.6-45.3-18.7l-22.5-22.6l-22.6,22.6c-12.5,12.5-28.9,18.7-45.3,18.7s-32.8-6.3-45.2-18.7
		c-13.5-13.5-19.7-31.6-18.6-49.3c-1.4,0-2.7,0.1-4.1,0.1c-12.9,0-25.7-3.8-36.7-11.5H120l-73.9,128h1699.7L1672,960z"/>
	<path fill="#FFE620" d="M1764.3,1120H27.7l-18.5,32c-24.6,42.7,6.2,96,55.4,96h1662.7c49.3,0,80.1-53.3,55.4-96L1764.3,1120z"/>
	<path fill="#FFE620" d="M958,924.3c-0.3,1.2-0.7,2.5-1.1,3.7h4.8L958,924.3z"/>
	<path fill="#FFE620" d="M696.5,907.5c0-1.4,0-2.8,0.1-4.1c-1.4,0-2.7,0.1-4.1,0.1c-17.2,0-33.2-6.6-45.3-18.7
		c-13.5-13.5-19.7-31.6-18.6-49.3c-1.4,0-2.7,0.1-4.1,0.1c-17.2,0-33.2-6.6-45.3-18.7c-5-4.9-9.1-10.7-12.2-16.9H212.4l-73.9,128
		h561.3C697.6,921.5,696.5,914.6,696.5,907.5z"/>
	<polygon fill="#FFE620" points="1275.1,608 1468.7,608 1394.8,480 1147.1,480 	"/>
	<path fill="#FFE620" d="M1213.3,816.8c-12.5,12.5-28.8,18.7-45.2,18.7c-1.4,0-2.7,0-4.1-0.1c0,1.4,0.1,2.7,0.1,4.1
		c0,17.2-6.6,33.2-18.7,45.3s-28.2,18.7-45.3,18.7c-1.4,0-2.8,0-4.1-0.1c0,1.4,0.1,2.7,0.1,4.1c0,7.1-1.1,14-3.3,20.5h560.7
		l-73.9-128h-354.2C1222.3,806.2,1218.2,811.9,1213.3,816.8z"/>
</g>
<g>
	<path fill="#F2F4FF" d="M715,681.3c-6-6-14.1-9.3-22.6-9.3c-8.6,0-16.6,3.3-22.6,9.3l-67.9,67.9c-5.4,5.4-8.6,12.4-9.3,20.1
		c-0.3,3.6,0,7.2,0.9,10.7c1.4,5.5,4.3,10.5,8.3,14.4c6.1,6.1,14.1,9.4,22.7,9.4s16.6-3.3,22.6-9.3l67.9-67.9
		C727.5,714.1,727.5,693.8,715,681.3z"/>
	<path fill="#F2F4FF" d="M928,907.7c0-7.9-2.8-15.3-8-21.2l-2.9-2.9c-5.8-5.1-13.3-8-21.2-8c-8.6,0-16.6,3.3-22.6,9.3l-67.9,67.9
		c-12.5,12.5-12.5,32.8,0,45.3c12.6,12.5,32.9,12.5,45.4,0.1l32.9-32.9c0.3-0.4,0.6-0.7,1-1.1c0.3-0.3,0.7-0.6,1-0.9l33-33
		C924.7,924.3,928,916.2,928,907.7z"/>
	<path fill="#F2F4FF" d="M850.8,817.1c-6-6-14.1-9.3-22.6-9.3s-16.6,3.3-22.6,9.3L737.7,885c-6,6-9.3,14.1-9.3,22.6
		s3.3,16.6,9.3,22.6c12.4,12.6,32.7,12.6,45.2,0.1l67.9-67.9C863.3,849.9,863.3,829.6,850.8,817.1z"/>
	<path fill="#F2F4FF" d="M792.2,771.9c0-8.5-3.3-16.6-9.3-22.6c-12.5-12.5-32.8-12.5-45.3,0l-67.9,67.9c-12.5,12.5-12.5,32.8,0,45.3
		c6,5.9,14.1,9.2,22.7,9.2s16.6-3.3,22.6-9.3l67.9-67.9C788.9,788.5,792.2,780.4,792.2,771.9z"/>
	<path fill="#F2F4FF" d="M560.6,768c0-0.4,0-0.9,0.1-1.3c1.2-15.2,7.8-29.4,18.5-40.1l67.9-67.9c12.1-12.1,28.1-18.7,45.3-18.7
		s33.2,6.6,45.3,18.7c13.5,13.5,19.7,31.6,18.6,49.3c17.7-1.1,35.8,5.1,49.3,18.6c12.1,12.1,18.7,28.1,18.7,45.3
		c0,1.4-0.1,2.7-0.1,4.1c1.3-0.1,2.7-0.1,4.1-0.1c17.1,0,33.2,6.6,45.3,18.7c8.7,8.7,14.3,19.2,17,30.3c5.7-2.1,12.4-0.9,16.9,3.7
		l31.9,31.9c0.7,0.6,1.4,1.3,2.1,2s1.3,1.4,2,2.1l65.8,65.8c12.5,12.5,32.8,12.5,45.3,0c6-6,9.3-14.1,9.3-22.6s-3.3-16.6-9.3-22.6
		L952.8,783.4c-6.2-6.2-6.2-16.4,0-22.6c6.2-6.2,16.4-6.2,22.6,0L1077,862.4c6,6,14.1,9.3,22.6,9.3s16.6-3.3,22.6-9.3
		c12.5-12.5,12.5-32.8,0-45.3l-101.8-101.8c-6.2-6.2-6.2-16.4,0-22.6c6.2-6.2,16.4-6.2,22.6,0l101.8,101.8
		c12.5,12.5,32.8,12.5,45.3,0c4-4,6.9-9,8.3-14.5c0.9-3.5,1.2-7.1,0.9-10.7c-0.6-7.7-3.8-14.7-9.3-20.1l-169.7-169.7l-3.6-3.5H865.4
		l-26.2,26.2c-15.2,15.2-35.2,23.5-56.6,23.5s-41.4-8.4-56.6-23.5c-15.2-15.2-23.5-35.2-23.5-56.6s8.4-41.4,23.5-56.6l30.9-30.9
		c3.6-3.6,7.4-7,11.3-10.2h-0.5c-29.9,0-58,11.7-79.2,32.8L561.6,608l-32,32H507H304.8l-73.9,128H560.6z"/>
	<path fill="#F2F4FF" d="M957.8,924.3c-2.9,10.7-8.5,20.6-16.5,28.6l-22.7,22.7l22.6,22.6c6,6,14.1,9.3,22.6,9.3s16.6-3.3,22.6-9.3
		c12.5-12.5,12.5-32.8,0-45.3L957.8,924.3z"/>
	<path fill="#F2F4FF" d="M1487.2,640h-202.7h-22.6l-32-32l-127.2-127.2c-21.2-21.2-49.3-32.8-79.2-32.8h-128H859
		c-29.9,0-58,11.7-79.2,32.8l-30.9,30.9c-9.1,9.1-14.1,21.2-14.1,33.9s5,24.8,14.1,33.9c9.1,9.1,21.2,14.1,33.9,14.1
		s24.8-5,33.9-14.1l30.9-30.9c0.4-0.4,0.8-0.7,1.2-1.1c0.2-0.1,0.4-0.3,0.6-0.4c0.2-0.2,0.5-0.4,0.7-0.5c0.2-0.2,0.5-0.3,0.7-0.4
		c0.2-0.1,0.4-0.3,0.6-0.4c0.2-0.1,0.5-0.2,0.7-0.4c0.2-0.1,0.5-0.2,0.7-0.3s0.5-0.2,0.7-0.3s0.5-0.2,0.7-0.3s0.5-0.1,0.7-0.2
		c0.3-0.1,0.5-0.1,0.8-0.2c0.3-0.1,0.6-0.1,0.9-0.1c0.2,0,0.4-0.1,0.7-0.1c0.5-0.1,1.1-0.1,1.6-0.1h164.5c0.2,0,0.3,0,0.5,0
		c0.4,0,0.7,0,1.1,0.1c0.2,0,0.5,0.1,0.7,0.1c0.3,0,0.6,0.1,0.8,0.1c0.3,0.1,0.5,0.1,0.8,0.2c0.3,0.1,0.5,0.1,0.8,0.2
		c0.3,0.1,0.5,0.2,0.7,0.3s0.5,0.2,0.7,0.3s0.5,0.2,0.7,0.3s0.5,0.2,0.7,0.4c0.2,0.1,0.4,0.3,0.6,0.4c0.2,0.1,0.5,0.3,0.7,0.4
		c0.2,0.2,0.4,0.3,0.7,0.5c0.2,0.1,0.4,0.3,0.6,0.4c0.3,0.2,0.5,0.5,0.8,0.7c0.1,0.1,0.2,0.2,0.4,0.3l8.3,8.2l169.7,169.7
		c10.7,10.7,17.3,25,18.5,40.1c0,0.4,0.1,0.9,0.1,1.3H1561L1487.2,640z"/>
</g>
<g display="none" opacity="0.14">
	<path display="inline" d="M2016,480c-123.7,0-224,100.3-224,224s100.3,224,224,224s224-100.3,224-224S2139.7,480,2016,480z
		 M2016,864c-88.4,0-160-71.6-160-160s71.6-160,160-160c88.4,0,160,71.6,160,160S2104.4,864,2016,864z"/>
	<circle display="inline" cx="2016" cy="704" r="64"/>
</g>
<g display="none">
	<path display="inline" fill="#F2F4FF" d="M-224,480c-123.7,0-224,100.3-224,224s100.3,224,224,224S0,827.7,0,704
		S-100.3,480-224,480z M-224,864c-88.4,0-160-71.6-160-160s71.6-160,160-160s160,71.6,160,160S-135.6,864-224,864z"/>
	<circle display="inline" fill="#F2F4FF" cx="-224" cy="704" r="64"/>
</g>
</svg>
