<?xml version="1.0" encoding="utf-8"?>
<!-- Generator: Adobe Illustrator 21.1.0, SVG Export Plug-In . SVG Version: 6.00 Build 0)  -->
<svg version="1.1" id="Layer_1" xmlns="http://www.w3.org/2000/svg" xmlns:xlink="http://www.w3.org/1999/xlink" x="0px" y="0px"
	 viewBox="0 0 3488 1408" enable-background="new 0 0 3488 1408" xml:space="preserve">
<rect x="1760" y="-320" display="none" fill="#EEEEEE" width="2048" height="2048"/>
<rect x="1920" y="-160" display="none" fill="#EEEEEE" width="1728" height="1728"/>
<rect x="1760" y="-320" display="none" fill="#FAFAFA" width="1024" height="1024"/>
<g display="none">
	<rect x="1760" y="640" display="inline" fill="#FFCC00" width="2048" height="128"/>
	<rect x="1760" y="800" display="inline" fill="#FFCC00" width="2048" height="128"/>
	<rect x="1760" y="480" display="inline" fill="#FFCC00" width="2048" height="128"/>
	<rect x="1760" y="320" display="inline" fill="#FFCC00" width="2048" height="128"/>
	<rect x="1760" y="1280" display="inline" fill="#FFCC00" width="2048" height="128"/>
	<rect x="1760" y="1440" display="inline" fill="#FFCC00" width="2048" height="128"/>
	<rect x="1760" y="1600" display="inline" fill="#FFCC00" width="2048" height="128"/>
	<rect x="1760" y="1760" display="inline" fill="#FFCC00" width="2048" height="128"/>
	<rect x="1760" y="1120" display="inline" fill="#FFCC00" width="2048" height="128"/>
	<rect x="1760" y="960" display="inline" fill="#FFCC00" width="2048" height="128"/>
	<rect x="1760" y="160" display="inline" fill="#FFCC00" width="2048" height="128"/>
	<rect x="1760" display="inline" fill="#FFCC00" width="2048" height="128"/>
	<rect x="1760" y="-160" display="inline" fill="#FFCC00" width="2048" height="128"/>
	<rect x="1760" y="-320" display="inline" fill="#FFCC00" width="2048" height="128"/>
	<rect x="1760" y="-480" display="inline" fill="#FFCC00" width="2048" height="128"/>
</g>
<path display="none" d="M2667.8,480.8c21.2-21.2,49.3-32.8,79.2-32.8h36.5h128c29.9,0,58,11.7,79.2,32.8L3117.9,608l32,32h22.6H3808
	v-32h-644.9l-149.8-149.8C2986.1,431,2950,416,2911.5,416h-128H2747h-91c-38.5,0-74.6,15-101.8,42.2L2404.4,608H1760v32h635h22.6
	l32-32l127.2-127.2c21.2-21.2,49.3-32.8,79.2-32.8h0.5c-3.9,3.2-7.7,6.6-11.3,10.2l-30.9,30.9c-15.2,15.2-23.5,35.2-23.5,56.6
	s8.4,41.4,23.5,56.6c15.2,15.2,35.2,23.5,56.6,23.5c21.4,0,41.4-8.4,56.6-23.5l26.2-26.2H2905l3.6,3.5l169.7,169.7l0,0l0,0
	c5.4,5.4,8.6,12.4,9.3,20.1c0.3,3.6,0,7.2-0.9,10.7l0,0c-1.4,5.5-4.3,10.5-8.3,14.5c-12.5,12.5-32.8,12.5-45.3,0l-101.8-101.8
	c-6.2-6.2-16.4-6.2-22.6,0c-6.2,6.2-6.2,16.4,0,22.6l101.8,101.8c12.5,12.5,12.5,32.8,0,45.3c-6,6-14.1,9.3-22.6,9.3
	s-16.6-3.3-22.6-9.3l-101.8-101.8c-6.2-6.2-16.4-6.2-22.6,0c-6.2,6.2-6.2,16.4,0,22.6L2942.4,885c6,6,9.3,14.1,9.3,22.6
	s-3.3,16.6-9.3,22.6c-12.5,12.5-32.8,12.5-45.3,0l-65.8-65.8c-0.6-0.7-1.3-1.4-2-2.1s-1.4-1.3-2.1-2l-31.9-31.9
	c-4.6-4.6-11.2-5.8-16.9-3.7c-2.6-11.1-8.3-21.7-17-30.3c-12.1-12.1-28.1-18.7-45.3-18.7c-1.4,0-2.7,0.1-4.1,0.1
	c0.1-1.3,0.1-2.7,0.1-4.1c0-17.1-6.6-33.2-18.7-45.3c-13.5-13.5-31.6-19.7-49.3-18.6c1.1-17.7-5.1-35.8-18.6-49.3
	c-12.1-12.1-28.1-18.7-45.3-18.7s-33.2,6.6-45.3,18.7l-67.9,67.9c-10.7,10.7-17.3,25-18.5,40.1c0,0.4-0.1,0.9-0.1,1.3H1760v32h694.9
	c3.1,6.3,7.2,12.1,12.3,17.1c12.1,12.1,28.1,18.7,45.3,18.7c1.4,0,2.7-0.1,4.1-0.1c-1.1,17.7,5.1,35.8,18.6,49.3
	c12.1,12.1,28.1,18.7,45.3,18.7c1.4,0,2.7-0.1,4.1-0.1c-0.1,1.3-0.1,2.7-0.1,4.1c0,17.1,6.6,33.2,18.7,45.3
	c12.5,12.5,28.9,18.7,45.3,18.7c1.4,0,2.7-0.1,4.1-0.1c-1.1,17.7,5.1,35.8,18.6,49.3c12.4,12.4,28.8,18.7,45.2,18.7
	s32.8-6.2,45.3-18.7l22.6-22.6l22.5,22.6l0,0l0,0c12.1,12.1,28.1,18.7,45.3,18.7s33.2-6.6,45.3-18.7c13.5-13.5,19.7-31.6,18.6-49.3
	c1.3,0.1,2.7,0.1,4.1,0.1c17.1,0,33.2-6.6,45.3-18.7s18.7-28.1,18.7-45.3c0-1.4-0.1-2.7-0.1-4.1c1.3,0.1,2.7,0.1,4.1,0.1
	c17.1,0,33.2-6.6,45.3-18.7s18.7-28.1,18.7-45.3c0-1.4-0.1-2.7-0.1-4.1c1.4,0.1,2.7,0.1,4.1,0.1c16.4,0,32.7-6.2,45.2-18.7
	c5-5,9.2-10.8,12.3-17.2H3808v-32h-688.6c0-0.4,0-0.9-0.1-1.3l0,0c-1.2-15.2-7.8-29.4-18.5-40.1l0,0l-169.7-169.7l0,0l0,0l-8.3-8.2
	c-0.1-0.1-0.2-0.2-0.4-0.3c-0.3-0.2-0.5-0.5-0.8-0.7c-0.2-0.2-0.4-0.3-0.6-0.4c-0.2-0.2-0.4-0.3-0.7-0.5c-0.2-0.2-0.5-0.3-0.7-0.4
	c-0.2-0.1-0.4-0.3-0.6-0.4c-0.2-0.1-0.5-0.2-0.7-0.4c-0.2-0.1-0.5-0.2-0.7-0.3s-0.5-0.2-0.7-0.3s-0.5-0.2-0.7-0.3s-0.5-0.1-0.8-0.2
	c-0.3-0.1-0.5-0.1-0.8-0.2c-0.3-0.1-0.6-0.1-0.8-0.1s-0.5-0.1-0.7-0.1c-0.4,0-0.7,0-1.1-0.1c-0.2,0-0.3,0-0.5,0H2747
	c-0.5,0-1.1,0-1.6,0.1c-0.2,0-0.5,0.1-0.7,0.1c-0.3,0-0.6,0.1-0.9,0.1c-0.3,0.1-0.5,0.1-0.8,0.2c-0.2,0.1-0.5,0.1-0.7,0.2
	c-0.3,0.1-0.5,0.2-0.7,0.3s-0.5,0.2-0.7,0.3s-0.5,0.2-0.7,0.3s-0.5,0.2-0.7,0.4c-0.2,0.1-0.4,0.3-0.6,0.4c-0.2,0.1-0.5,0.3-0.7,0.4
	c-0.2,0.2-0.5,0.3-0.7,0.5c-0.2,0.1-0.4,0.3-0.6,0.4c-0.4,0.3-0.8,0.7-1.2,1.1l-30.9,30.9c-9.1,9.1-21.2,14.1-33.9,14.1
	s-24.8-5-33.9-14.1c-9.1-9.1-14.1-21.2-14.1-33.9s5-24.8,14.1-33.9L2667.8,480.8z M2512.5,803.8c-8.6,0-16.6-3.3-22.7-9.4
	c-4-4-6.9-8.9-8.3-14.4c-0.9-3.5-1.2-7.1-0.9-10.7c0.6-7.7,3.8-14.7,9.3-20.1l67.9-67.9c6-6,14.1-9.3,22.6-9.3
	c8.6,0,16.6,3.3,22.6,9.3c12.5,12.5,12.5,32.8,0,45.3l-67.9,67.9C2529.1,800.5,2521,803.8,2512.5,803.8z M2580.4,871.7
	c-8.6,0-16.6-3.3-22.6-9.3l0,0c-12.5-12.5-12.5-32.8,0-45.3l67.9-67.9l0,0c12.5-12.5,32.8-12.5,45.3,0c6,6,9.3,14.1,9.3,22.6
	s-3.3,16.6-9.3,22.6l-67.9,67.9C2597,868.4,2588.9,871.7,2580.4,871.7z M2670.9,930.3c-12.5,12.5-32.8,12.5-45.3,0
	c-6-6-9.3-14.1-9.3-22.6s3.3-16.6,9.3-22.6l67.9-67.9c6-6,14.1-9.3,22.6-9.3s16.6,3.3,22.6,9.3c12.5,12.5,12.5,32.8,0,45.3
	L2670.9,930.3L2670.9,930.3z M2773.7,963.3c-0.3,0.3-0.7,0.6-1,0.9s-0.7,0.7-1,1.1l-32.9,32.9c-12.5,12.5-32.9,12.5-45.3,0
	c-12.5-12.5-12.5-32.8,0-45.3l67.9-67.9c6-6,14.1-9.3,22.6-9.3c7.9,0,15.3,2.8,21.2,8l2.9,2.9c5.1,5.8,8,13.3,8,21.2
	c0,8.6-3.3,16.6-9.3,22.6L2773.7,963.3z M2874.5,998.2c-6,6-14.1,9.3-22.6,9.3s-16.6-3.3-22.6-9.3l0,0l-22.5-22.6l22.7-22.7
	c8.1-8.1,13.7-17.9,16.5-28.6l28.6,28.6C2887,965.4,2887,985.7,2874.5,998.2z"/>
<g display="none">
	<rect x="1760" y="1280" display="inline" fill="#FFCC00" width="2048" height="128"/>
	<rect x="1760" y="1440" display="inline" fill="#FFCC00" width="2048" height="128"/>
	<path display="inline" fill="#FFCC00" d="M2919.8,971.6c-1.4,0-2.7-0.1-4.1-0.1c1.1,17.7-5.1,35.8-18.6,49.3
		c-12.1,12.1-28.1,18.7-45.3,18.7s-33.2-6.6-45.3-18.7l0,0l0,0l-22.5-22.6l-22.6,22.6c-12.5,12.4-28.9,18.7-45.3,18.7
		c-16.4,0-32.8-6.2-45.2-18.7c-13.5-13.5-19.7-31.6-18.6-49.3c-1.4,0.1-2.7,0.1-4.1,0.1c-12.9,0-25.8-3.9-36.8-11.6H1760v128h2048
		V960h-851.4C2945.9,967.5,2933.1,971.6,2919.8,971.6z"/>
	<rect x="1760" y="1120" display="inline" fill="#FFCC00" width="2048" height="128"/>
	<polygon display="inline" fill="#FF3B30" points="2532.4,480 1760,480 1760,608 2404.4,608 	"/>
	<rect x="1760" y="1600" display="inline" fill="#FFCC00" width="2048" height="128"/>
	<path display="inline" fill="#FF3B30" d="M2584.3,907.7c0-1.4,0.1-2.7,0.1-4.1c-1.3,0.1-2.7,0.1-4.1,0.1
		c-17.1,0-33.2-6.6-45.3-18.7c-13.5-13.5-19.7-31.6-18.6-49.3c-1.3,0.1-2.7,0.1-4.1,0.1c-17.1,0-33.2-6.6-45.3-18.7
		c-5-5-9.2-10.8-12.3-17.1H1760v128h827.6C2585.4,921.5,2584.3,914.7,2584.3,907.7z"/>
	<polygon display="inline" fill="#FF3B30" points="3163.1,608 3808,608 3808,480 3035.1,480 	"/>
	<rect x="1760" y="-160" display="inline" fill="#FFCC00" width="2048" height="128"/>
	<path display="inline" fill="#FF3B30" d="M3100.8,817.2c-12.4,12.4-28.8,18.7-45.2,18.7c-1.4,0-2.7-0.1-4.1-0.1
		c0.1,1.3,0.1,2.7,0.1,4.1c0,17.1-6.6,33.2-18.7,45.3c-12.1,12.1-28.1,18.7-45.3,18.7c-1.4,0-2.7-0.1-4.1-0.1
		c0.1,1.3,0.1,2.7,0.1,4.1c0,7-1.1,13.9-3.3,20.3H3808V800h-694.9C3110,806.4,3105.8,812.2,3100.8,817.2z"/>
	<rect x="1760" y="-320" display="inline" fill="#FFCC00" width="2048" height="128"/>
	<rect x="1760" display="inline" fill="#FFCC00" width="2048" height="128"/>
	<rect x="1760" y="160" display="inline" fill="#FFCC00" width="2048" height="128"/>
	<path display="inline" fill="#FFCC00" d="M1760,448h805.5c25.6-20.7,57.2-32,90.5-32h91h36.5h128c33.3,0,65,11.3,90.5,32h806V320
		H1760V448z"/>
</g>
<g display="none">
	<path display="inline" fill="#FF3B30" d="M2603,681.3c-6-6-14.1-9.3-22.6-9.3c-8.6,0-16.6,3.3-22.6,9.3l-67.9,67.9
		c-5.4,5.4-8.6,12.4-9.3,20.1c-0.3,3.6,0,7.2,0.9,10.7c1.4,5.5,4.3,10.5,8.3,14.4c6.1,6.1,14.1,9.4,22.7,9.4s16.6-3.3,22.6-9.3
		l67.9-67.9C2615.5,714.1,2615.5,693.8,2603,681.3z"/>
	<path display="inline" fill="#FF3B30" d="M2738.8,998.2l32.9-32.9c0.3-0.4,0.6-0.7,1-1.1c0.3-0.3,0.7-0.6,1-0.9l33-33
		c6-6,9.3-14.1,9.3-22.6c0-7.9-2.8-15.3-8-21.2l-2.9-2.9c-5.8-5.1-13.3-8-21.2-8c-8.6,0-16.6,3.3-22.6,9.3l-67.9,67.9
		c-12.5,12.5-12.5,32.8,0,45.3C2706,1010.6,2726.3,1010.6,2738.8,998.2z"/>
	<path display="inline" fill="#FF3B30" d="M2670.9,930.3L2670.9,930.3l67.9-67.9c12.5-12.5,12.5-32.8,0-45.3c-6-6-14.1-9.3-22.6-9.3
		s-16.6,3.3-22.6,9.3l-67.9,67.9c-6,6-9.3,14.1-9.3,22.6s3.3,16.6,9.3,22.6C2638.1,942.8,2658.4,942.8,2670.9,930.3z"/>
	<path display="inline" fill="#FF3B30" d="M2580.4,871.7c8.6,0,16.6-3.3,22.6-9.3l67.9-67.9c6-6,9.3-14.1,9.3-22.6
		s-3.3-16.6-9.3-22.6c-12.5-12.5-32.8-12.5-45.3,0l0,0l-67.9,67.9c-12.5,12.5-12.5,32.8,0,45.3l0,0
		C2563.7,868.4,2571.8,871.7,2580.4,871.7z"/>
	<path display="inline" fill="#FF3B30" d="M2448.7,766.7c1.2-15.2,7.8-29.4,18.5-40.1l67.9-67.9c12.1-12.1,28.1-18.7,45.3-18.7
		s33.2,6.6,45.3,18.7c13.5,13.5,19.7,31.6,18.6,49.3c17.7-1.1,35.8,5.1,49.3,18.6c12.1,12.1,18.7,28.1,18.7,45.3
		c0,1.4-0.1,2.7-0.1,4.1c1.3-0.1,2.7-0.1,4.1-0.1c17.1,0,33.2,6.6,45.3,18.7c8.7,8.7,14.3,19.2,17,30.3c5.7-2.1,12.4-0.9,16.9,3.7
		l31.9,31.9c0.7,0.6,1.4,1.3,2.1,2c0.7,0.7,1.3,1.4,2,2.1l65.8,65.8c12.5,12.5,32.8,12.5,45.3,0c6-6,9.3-14.1,9.3-22.6
		s-3.3-16.6-9.3-22.6l-101.8-101.8c-6.2-6.2-6.2-16.4,0-22.6c6.2-6.2,16.4-6.2,22.6,0L2965,862.4c6,6,14.1,9.3,22.6,9.3
		s16.6-3.3,22.6-9.3c12.5-12.5,12.5-32.8,0-45.3l-101.8-101.8c-6.2-6.2-6.2-16.4,0-22.6c6.2-6.2,16.4-6.2,22.6,0l101.8,101.8
		c12.5,12.5,32.8,12.5,45.3,0c4-4,6.9-9,8.3-14.5l0,0c0.9-3.5,1.2-7.1,0.9-10.7c-0.6-7.7-3.8-14.7-9.3-20.1l0,0l0,0l-169.7-169.7
		l-3.6-3.5h-151.3l-26.2,26.2c-15.2,15.2-35.2,23.5-56.6,23.5s-41.4-8.4-56.6-23.5c-15.2-15.2-23.5-35.2-23.5-56.6
		s8.4-41.4,23.5-56.6l30.9-30.9c3.6-3.6,7.4-7,11.3-10.2h-0.5c-29.9,0-58,11.7-79.2,32.8L2449.6,608l-32,32H2395h-635v128h688.6
		C2448.6,767.6,2448.6,767.1,2448.7,766.7z"/>
	<path display="inline" fill="#FF3B30" d="M2829.2,998.2c6,6,14.1,9.3,22.6,9.3s16.6-3.3,22.6-9.3c12.5-12.5,12.5-32.8,0-45.3
		l-28.6-28.6c-2.9,10.7-8.5,20.6-16.5,28.6l-22.7,22.7L2829.2,998.2L2829.2,998.2z"/>
	<path display="inline" fill="#FF3B30" d="M3149.9,640l-32-32l-127.2-127.2c-21.2-21.2-49.3-32.8-79.2-32.8h-128H2747
		c-29.9,0-58,11.7-79.2,32.8l-30.9,30.9c-9.1,9.1-14.1,21.2-14.1,33.9s5,24.8,14.1,33.9c9.1,9.1,21.2,14.1,33.9,14.1
		s24.8-5,33.9-14.1l30.9-30.9c0.4-0.4,0.8-0.7,1.2-1.1c0.2-0.1,0.4-0.3,0.6-0.4c0.2-0.2,0.5-0.4,0.7-0.5c0.2-0.2,0.5-0.3,0.7-0.4
		c0.2-0.1,0.4-0.3,0.6-0.4c0.2-0.1,0.5-0.2,0.7-0.4c0.2-0.1,0.5-0.2,0.7-0.3s0.5-0.2,0.7-0.3s0.5-0.2,0.7-0.3s0.5-0.1,0.7-0.2
		c0.3-0.1,0.5-0.1,0.8-0.2c0.3-0.1,0.6-0.1,0.9-0.1c0.2,0,0.4-0.1,0.7-0.1c0.5-0.1,1.1-0.1,1.6-0.1h164.5c0.2,0,0.3,0,0.5,0
		c0.4,0,0.7,0,1.1,0.1c0.2,0,0.5,0.1,0.7,0.1c0.3,0,0.6,0.1,0.8,0.1c0.3,0.1,0.5,0.1,0.8,0.2c0.3,0.1,0.5,0.1,0.8,0.2
		c0.3,0.1,0.5,0.2,0.7,0.3s0.5,0.2,0.7,0.3s0.5,0.2,0.7,0.3s0.5,0.2,0.7,0.4c0.2,0.1,0.4,0.3,0.6,0.4c0.2,0.1,0.5,0.3,0.7,0.4
		c0.2,0.2,0.4,0.3,0.7,0.5c0.2,0.1,0.4,0.3,0.6,0.4c0.3,0.2,0.5,0.5,0.8,0.7c0.1,0.1,0.2,0.2,0.4,0.3l8.3,8.2l0,0l0,0l169.7,169.7
		l0,0c10.7,10.7,17.3,25,18.5,40.1l0,0c0,0.4,0.1,0.9,0.1,1.3H3808V640h-635.5H3149.9z"/>
</g>
<g display="none">
	<polygon display="inline" fill="#FFCC00" points="3707.8,1280 1860.2,1280 1786.3,1408 3781.7,1408 	"/>
	<polygon display="inline" fill="#FFCC00" points="3800.1,1440 1767.9,1440 1760,1453.6 1760,1568 3808,1568 3808,1453.6 	"/>
	<rect x="1760" y="1600" display="inline" fill="#FFCC00" width="2048" height="128"/>
	<rect x="1760" y="1760" display="inline" fill="#FFCC00" width="2048" height="128"/>
	<path display="inline" fill="#FFCC00" d="M3523,960h-566.4c-10.7,7.5-23.4,11.6-36.8,11.6c-1.4,0-2.7-0.1-4.1-0.1
		c1.1,17.7-5.1,35.8-18.6,49.3c-12.1,12.1-28.1,18.7-45.3,18.7s-33.2-6.6-45.3-18.7l0,0l0,0l-22.5-22.6l-22.6,22.6
		c-12.5,12.4-28.9,18.7-45.3,18.7c-16.4,0-32.8-6.2-45.2-18.7c-13.5-13.5-19.7-31.6-18.6-49.3c-1.4,0.1-2.7,0.1-4.1,0.1
		c-12.9,0-25.8-3.9-36.8-11.6H2045l-73.9,128h1625.8L3523,960z"/>
	<polygon display="inline" fill="#FFCC00" points="3615.4,1120 1952.6,1120 1878.7,1248 3689.3,1248 	"/>
	<polygon display="inline" fill="#FFCC00" points="2532.4,480 2322.1,480 2248.2,608 2404.4,608 	"/>
	<path display="inline" fill="#FFCC00" d="M2584.3,907.7c0-1.4,0.1-2.7,0.1-4.1c-1.3,0.1-2.7,0.1-4.1,0.1
		c-17.1,0-33.2-6.6-45.3-18.7c-13.5-13.5-19.7-31.6-18.6-49.3c-1.3,0.1-2.7,0.1-4.1,0.1c-17.1,0-33.2-6.6-45.3-18.7
		c-5-5-9.2-10.8-12.3-17.1h-317.6l-73.9,128h524.1C2585.4,921.5,2584.3,914.7,2584.3,907.7z"/>
	<polygon display="inline" fill="#FFCC00" points="3163.1,608 3319.8,608 3245.9,480 3035.1,480 	"/>
	<polygon display="inline" fill="#FFCC00" points="2876.4,-160 2691.6,-160 2617.7,-32 2950.3,-32 	"/>
	<path display="inline" fill="#FFCC00" d="M3100.8,817.2c-12.4,12.4-28.8,18.7-45.2,18.7c-1.4,0-2.7-0.1-4.1-0.1
		c0.1,1.3,0.1,2.7,0.1,4.1c0,17.1-6.6,33.2-18.7,45.3c-12.1,12.1-28.1,18.7-45.3,18.7c-1.4,0-2.7-0.1-4.1-0.1
		c0.1,1.3,0.1,2.7,0.1,4.1c0,7-1.1,13.9-3.3,20.3h524.1l-73.9-128h-317.6C3110,806.4,3105.8,812.2,3100.8,817.2z"/>
	<polygon display="inline" fill="#FFCC00" points="2784,-320 2710.1,-192 2857.9,-192 	"/>
	<polygon display="inline" fill="#FFCC00" points="2968.8,0 2599.2,0 2525.3,128 3042.7,128 	"/>
	<polygon display="inline" fill="#FFCC00" points="3061.1,160 2506.9,160 2433,288 3135,288 	"/>
	<path display="inline" fill="#FFCC00" d="M2656,416h91h36.5h128c33.3,0,65,11.3,90.5,32h225.4l-73.9-128h-739l-73.9,128h224.9
		C2591,427.3,2622.7,416,2656,416z"/>
</g>
<g display="none">
	<path display="inline" fill="#5A5A5A" d="M2603,681.3c-6-6-14.1-9.3-22.6-9.3c-8.6,0-16.6,3.3-22.6,9.3l-67.9,67.9
		c-5.4,5.4-8.6,12.4-9.3,20.1c-0.3,3.6,0,7.2,0.9,10.7c1.4,5.5,4.3,10.5,8.3,14.4c6.1,6.1,14.1,9.4,22.7,9.4s16.6-3.3,22.6-9.3
		l67.9-67.9C2615.5,714.1,2615.5,693.8,2603,681.3z"/>
	<path display="inline" fill="#5A5A5A" d="M2816,907.7c0-7.9-2.8-15.3-8-21.2l-2.9-2.9c-5.8-5.1-13.3-8-21.2-8
		c-8.6,0-16.6,3.3-22.6,9.3l-67.9,67.9c-12.5,12.5-12.5,32.8,0,45.3c12.4,12.4,32.8,12.4,45.3,0l32.9-32.9c0.3-0.4,0.6-0.7,1-1.1
		c0.3-0.3,0.7-0.6,1-0.9l33-33C2812.7,924.3,2816,916.2,2816,907.7z"/>
	<path display="inline" fill="#5A5A5A" d="M2738.8,817.1c-6-6-14.1-9.3-22.6-9.3s-16.6,3.3-22.6,9.3l-67.9,67.9
		c-6,6-9.3,14.1-9.3,22.6s3.3,16.6,9.3,22.6c12.5,12.5,32.8,12.5,45.3,0l0,0l67.9-67.9C2751.3,849.9,2751.3,829.6,2738.8,817.1z"/>
	<path display="inline" fill="#5A5A5A" d="M2680.2,771.8c0-8.6-3.3-16.6-9.3-22.6c-12.5-12.5-32.8-12.5-45.3,0l0,0l-67.9,67.9
		c-12.5,12.5-12.5,32.8,0,45.3l0,0c6,6,14.1,9.3,22.6,9.3s16.6-3.3,22.6-9.3l67.9-67.9C2676.9,788.5,2680.2,780.4,2680.2,771.8z"/>
	<path display="inline" fill="#5A5A5A" d="M2448.6,768c0-0.4,0-0.9,0.1-1.3c1.2-15.2,7.8-29.4,18.5-40.1l67.9-67.9
		c12.1-12.1,28.1-18.7,45.3-18.7s33.2,6.6,45.3,18.7c13.5,13.5,19.7,31.6,18.6,49.3c17.7-1.1,35.8,5.1,49.3,18.6
		c12.1,12.1,18.7,28.1,18.7,45.3c0,1.4-0.1,2.7-0.1,4.1c1.3-0.1,2.7-0.1,4.1-0.1c17.1,0,33.2,6.6,45.3,18.7
		c8.7,8.7,14.3,19.2,17,30.3c5.7-2.1,12.4-0.9,16.9,3.7l31.9,31.9c0.7,0.6,1.4,1.3,2.1,2c0.7,0.7,1.3,1.4,2,2.1l65.8,65.8
		c12.5,12.5,32.8,12.5,45.3,0c6-6,9.3-14.1,9.3-22.6s-3.3-16.6-9.3-22.6l-101.8-101.8c-6.2-6.2-6.2-16.4,0-22.6
		c6.2-6.2,16.4-6.2,22.6,0L2965,862.4c6,6,14.1,9.3,22.6,9.3s16.6-3.3,22.6-9.3c12.5-12.5,12.5-32.8,0-45.3l-101.8-101.8
		c-6.2-6.2-6.2-16.4,0-22.6c6.2-6.2,16.4-6.2,22.6,0l101.8,101.8c12.5,12.5,32.8,12.5,45.3,0c4-4,6.9-9,8.3-14.5l0,0
		c0.9-3.5,1.2-7.1,0.9-10.7c-0.6-7.7-3.8-14.7-9.3-20.1l0,0l0,0l-169.7-169.7l-3.6-3.5h-151.3l-26.2,26.2
		c-15.2,15.2-35.2,23.5-56.6,23.5s-41.4-8.4-56.6-23.5c-15.2-15.2-23.5-35.2-23.5-56.6s8.4-41.4,23.5-56.6l30.9-30.9
		c3.6-3.6,7.4-7,11.3-10.2h-0.5c-29.9,0-58,11.7-79.2,32.8L2449.6,608l-32,32H2395h-165.3l-73.9,128H2448.6z"/>
	<path display="inline" fill="#5A5A5A" d="M2845.8,924.3c-2.9,10.7-8.5,20.6-16.5,28.6l-22.7,22.7l22.5,22.6l0,0
		c6,6,14.1,9.3,22.6,9.3s16.6-3.3,22.6-9.3c12.5-12.5,12.5-32.8,0-45.3L2845.8,924.3z"/>
	<path display="inline" fill="#5A5A5A" d="M3338.3,640h-165.8h-22.6l-32-32l-127.2-127.2c-21.2-21.2-49.3-32.8-79.2-32.8h-128H2747
		c-29.9,0-58,11.7-79.2,32.8l-30.9,30.9c-9.1,9.1-14.1,21.2-14.1,33.9s5,24.8,14.1,33.9c9.1,9.1,21.2,14.1,33.9,14.1
		s24.8-5,33.9-14.1l30.9-30.9c0.4-0.4,0.8-0.7,1.2-1.1c0.2-0.1,0.4-0.3,0.6-0.4c0.2-0.2,0.5-0.4,0.7-0.5c0.2-0.2,0.5-0.3,0.7-0.4
		c0.2-0.1,0.4-0.3,0.6-0.4c0.2-0.1,0.5-0.2,0.7-0.4c0.2-0.1,0.5-0.2,0.7-0.3s0.5-0.2,0.7-0.3s0.5-0.2,0.7-0.3s0.5-0.1,0.7-0.2
		c0.3-0.1,0.5-0.1,0.8-0.2c0.3-0.1,0.6-0.1,0.9-0.1c0.2,0,0.4-0.1,0.7-0.1c0.5-0.1,1.1-0.1,1.6-0.1h164.5c0.2,0,0.3,0,0.5,0
		c0.4,0,0.7,0,1.1,0.1c0.2,0,0.5,0.1,0.7,0.1c0.3,0,0.6,0.1,0.8,0.1c0.3,0.1,0.5,0.1,0.8,0.2c0.3,0.1,0.5,0.1,0.8,0.2
		c0.3,0.1,0.5,0.2,0.7,0.3s0.5,0.2,0.7,0.3s0.5,0.2,0.7,0.3s0.5,0.2,0.7,0.4c0.2,0.1,0.4,0.3,0.6,0.4c0.2,0.1,0.5,0.3,0.7,0.4
		c0.2,0.2,0.4,0.3,0.7,0.5c0.2,0.1,0.4,0.3,0.6,0.4c0.3,0.2,0.5,0.5,0.8,0.7c0.1,0.1,0.2,0.2,0.4,0.3l8.3,8.2l0,0l0,0l169.7,169.7
		l0,0c10.7,10.7,17.3,25,18.5,40.1l0,0c0,0.4,0.1,0.9,0.1,1.3H3412L3338.3,640z"/>
</g>
<rect x="1920" y="-160" display="none" fill="#FFCC00" width="1728" height="1728"/>
<circle display="none" fill="#FFCC00" cx="2784" cy="704" r="864"/>
<g display="none">
	<path display="inline" fill="#FFCC00" d="M2404.4,608l149.8-149.8c27.2-27.2,63.3-42.2,101.8-42.2h91h36.5h128
		c38.5,0,74.6,15,101.8,42.2L3163.1,608h479.6c-47.8-432-414-768-858.7-768s-811,336-858.7,768H2404.4z"/>
	<path display="inline" fill="#5AC8FA" d="M3113.6,799.6c-3.1,6.4-7.3,12.2-12.3,17.2c-12.5,12.5-28.8,18.7-45.2,18.7
		c-1.4,0-2.7,0-4.1-0.1c0,1.4,0.1,2.7,0.1,4.1c0,17.2-6.6,33.2-18.7,45.3s-28.2,18.7-45.3,18.7c-1.4,0-2.8,0-4.1-0.1
		c0,1.4,0.1,2.7,0.1,4.1c0,17.2-6.6,33.2-18.7,45.3s-28.2,18.7-45.3,18.7c-1.4,0-2.8,0-4.1-0.1c1.1,17.7-5.1,35.8-18.6,49.3
		c-12.1,12.1-28.1,18.7-45.3,18.7s-33.2-6.6-45.3-18.7l-22.5-22.6l-22.6,22.6c-12.5,12.5-28.9,18.7-45.3,18.7s-32.8-6.3-45.2-18.7
		c-13.5-13.5-19.7-31.6-18.6-49.3c-1.4,0-2.7,0.1-4.1,0.1c-16.4,0-32.8-6.2-45.3-18.7c-12.1-12.1-18.7-28.2-18.7-45.3
		c0-1.4,0-2.8,0.1-4.1c-1.4,0-2.7,0.1-4.1,0.1c-17.2,0-33.2-6.6-45.3-18.7c-13.5-13.5-19.7-31.6-18.6-49.3c-1.4,0-2.7,0.1-4.1,0.1
		c-17.2,0-33.2-6.6-45.3-18.7c-5.1-5-9.2-10.8-12.3-17.1h-529.6C1973,1231.9,2339.2,1568,2784,1568c444.9,0,811.2-336.2,858.8-768.4
		H3113.6z"/>
	<rect x="1920" y="448" display="inline" fill="#FFFFFF" width="1728" height="512"/>
	<path display="inline" fill="#FF3B30" d="M2931.3,692.8l101.8,101.8c12.5,12.5,32.8,12.5,45.3,0c4-4,6.9-9,8.3-14.5
		c0.9-3.5,1.2-7.1,0.9-10.7c-0.7-7.7-3.9-14.7-9.3-20.1l-169.7-169.7l-3.6-3.5h-151.3l-26.2,26.2c-15.2,15.1-35.2,23.5-56.6,23.5
		c-21.4,0-41.4-8.3-56.6-23.5c-15.1-15.2-23.5-35.2-23.5-56.6s8.3-41.4,23.5-56.6l30.9-30.9c3.6-3.6,7.4-7,11.3-10.2h-0.5
		c-29.9,0-58,11.6-79.2,32.8L2449.6,608l-32,32H2395h-472.7c-1.5,21.1-2.3,42.5-2.3,64s0.8,42.7,2.3,63.8h526.1
		c0-0.4,0.1-0.9,0.1-1.3c1.2-15.1,7.8-29.4,18.5-40.1l67.9-67.9c12.1-12.1,28.1-18.7,45.3-18.7s33.2,6.6,45.3,18.7
		c13.5,13.5,19.7,31.6,18.6,49.3c17.7-1.1,35.8,5.1,49.3,18.6c12.1,12.1,18.7,28.2,18.7,45.3c0,1.4,0,2.8-0.1,4.1
		c1.4,0,2.7-0.1,4.1-0.1c17.2,0,33.2,6.6,45.3,18.7c8.7,8.6,14.4,19.2,17,30.3c5.7-2.1,12.3-0.9,16.9,3.7l31.9,31.9
		c0.7,0.7,1.4,1.3,2.1,2s1.4,1.4,2,2.1l65.8,65.8c12.5,12.5,32.8,12.5,45.3,0c6-6,9.3-14.1,9.3-22.6s-3.3-16.6-9.3-22.6
		l-101.5-101.7c-6.2-6.2-6.2-16.4,0-22.6c6.2-6.2,16.4-6.2,22.6,0l101.8,101.8c6,6,14.1,9.3,22.6,9.3s16.6-3.3,22.6-9.3
		c12.5-12.5,12.5-32.8,0-45.3l-101.8-101.8c-6.2-6.2-6.2-16.4,0-22.6C2914.9,686.6,2925.1,686.6,2931.3,692.8z"/>
	<path display="inline" fill="#FF3B30" d="M2580.4,871.7c8.5,0,16.6-3.3,22.7-9.4l67.9-67.9c6-6,9.3-14.1,9.3-22.6
		s-3.3-16.6-9.3-22.6c-12.5-12.5-32.8-12.5-45.3,0l-67.9,67.9c-12.5,12.5-12.5,32.8,0,45.3C2563.8,868.4,2571.8,871.7,2580.4,871.7z
		"/>
	<path display="inline" fill="#FF3B30" d="M3149.9,640l-32-32l-127.2-127.2c-21.2-21.1-49.3-32.8-79.2-32.8h-128H2747
		c-29.9,0-58,11.6-79.2,32.8l-30.8,30.7c-9.1,9.1-14.1,21.2-14.1,33.9s5,24.8,14.1,33.9c9.1,9.1,21.2,14.1,33.9,14.1
		s24.8-5,33.9-14.1l30.9-30.9c0.4-0.4,0.8-0.8,1.2-1.1c0.2-0.1,0.4-0.3,0.6-0.4c0.2-0.2,0.5-0.3,0.7-0.5c0.2-0.1,0.5-0.3,0.7-0.4
		c0.2-0.1,0.4-0.3,0.6-0.4c0.2-0.2,0.5-0.3,0.7-0.4s0.5-0.2,0.7-0.3s0.5-0.2,0.7-0.3s0.4-0.2,0.7-0.3c0.2-0.1,0.5-0.1,0.7-0.2
		c0.3-0.1,0.5-0.1,0.8-0.2c0.3,0,0.6-0.1,0.9-0.1c0.2,0,0.5-0.1,0.7-0.1c0.5-0.1,1.1-0.1,1.6-0.1h164.5c0.2,0,0.3,0,0.5,0
		c0.4,0.1,0.7,0.1,1.1,0.1c0.2,0,0.5,0.1,0.7,0.1s0.5,0,0.8,0.1s0.5,0.1,0.8,0.2c0.3,0.1,0.6,0.1,0.8,0.2s0.5,0.2,0.7,0.3
		s0.5,0.2,0.7,0.3s0.5,0.2,0.7,0.3c0.2,0.2,0.5,0.3,0.7,0.4c0.2,0.1,0.4,0.3,0.6,0.4c0.2,0.1,0.5,0.2,0.7,0.4
		c0.3,0.2,0.5,0.3,0.7,0.5c0.2,0.1,0.4,0.2,0.6,0.4c0.3,0.2,0.5,0.5,0.8,0.7c0.2,0.1,0.3,0.2,0.4,0.3l8.3,8.2l169.7,169.7
		c10.7,10.7,17.3,24.9,18.5,40.1c0.1,0.4,0.1,0.9,0.1,1.3h526.3c1.5-21,2.3-42.2,2.3-63.6c0-21.5-0.8-42.9-2.3-64h-473.2L3149.9,640
		L3149.9,640z"/>
	<path display="inline" fill="#FF3B30" d="M2738.8,998.2l32.9-32.9c0.3-0.4,0.7-0.8,1-1.1s0.7-0.6,1-0.9l33.1-32.9
		c6-6,9.3-14,9.3-22.6c0-7.9-2.9-15.4-8-21.2l-2.9-2.9c-5.9-5.2-13.3-8-21.2-8c-8.5,0-16.6,3.3-22.6,9.3l-67.9,67.9
		c-12.5,12.5-12.5,32.8,0,45.3C2705.9,1010.7,2726.3,1010.7,2738.8,998.2z"/>
	<path display="inline" fill="#FF3B30" d="M2851.9,1007.5c8.5,0,16.6-3.3,22.6-9.3c12.5-12.5,12.5-32.8,0.1-45.3l-28.6-28.6
		c-2.8,10.7-8.4,20.5-16.5,28.6l-22.7,22.7l22.5,22.6C2835.3,1004.2,2843.4,1007.5,2851.9,1007.5z"/>
	<path display="inline" fill="#FF3B30" d="M2670.9,930.3l67.8-67.8c12.5-12.5,12.5-32.8,0-45.3c-6-6-14.1-9.3-22.6-9.3
		s-16.6,3.3-22.6,9.3l-67.9,67.9c-6,6-9.3,14.1-9.3,22.6s3.3,16.6,9.3,22.6C2638.1,942.8,2658.4,942.8,2670.9,930.3z"/>
	<path display="inline" fill="#FF3B30" d="M2603,681.3c-6-6-14-9.3-22.6-9.3c-8.5,0-16.6,3.3-22.6,9.3l-67.9,67.9
		c-5.5,5.4-8.7,12.4-9.3,20.1c-0.3,3.6,0,7.2,0.9,10.7c1.4,5.5,4.3,10.4,8.3,14.4c6.1,6.1,14.1,9.4,22.7,9.4
		c8.5,0,16.6-3.3,22.6-9.3l67.9-67.9C2615.5,714.1,2615.5,693.8,2603,681.3z"/>
</g>
<g display="none">
	<rect x="1760" y="1280" display="inline" fill="#FFCC00" width="2048" height="128"/>
	<rect x="1760" y="1440" display="inline" fill="#FFCC00" width="2048" height="128"/>
	<path display="inline" fill="#FFCC00" d="M2919.8,971.6c-1.4,0-2.7-0.1-4.1-0.1c1.1,17.7-5.1,35.8-18.6,49.3
		c-12.1,12.1-28.1,18.7-45.3,18.7s-33.2-6.6-45.3-18.7l0,0l0,0l-22.5-22.6l-22.6,22.6c-12.5,12.4-28.9,18.7-45.3,18.7
		c-16.4,0-32.8-6.2-45.2-18.7c-13.5-13.5-19.7-31.6-18.6-49.3c-1.4,0.1-2.7,0.1-4.1,0.1c-12.9,0-25.8-3.9-36.8-11.6H1760v128h2048
		V960h-851.4C2945.9,967.5,2933.1,971.6,2919.8,971.6z"/>
	<rect x="1760" y="1120" display="inline" fill="#FFCC00" width="2048" height="128"/>
	<polygon display="inline" fill="#FF3B30" points="2532.4,480 1760,480 1760,608 2404.4,608 	"/>
	<rect x="1760" y="1600" display="inline" fill="#FFCC00" width="2048" height="128"/>
	<path display="inline" fill="#FF3B30" d="M2584.3,907.7c0-1.4,0.1-2.7,0.1-4.1c-1.3,0.1-2.7,0.1-4.1,0.1
		c-17.1,0-33.2-6.6-45.3-18.7c-13.5-13.5-19.7-31.6-18.6-49.3c-1.3,0.1-2.7,0.1-4.1,0.1c-17.1,0-33.2-6.6-45.3-18.7
		c-5-5-9.2-10.8-12.3-17.1H1760v128h827.6C2585.4,921.5,2584.3,914.7,2584.3,907.7z"/>
	<polygon display="inline" fill="#FF3B30" points="3163.1,608 3808,608 3808,480 3035.1,480 	"/>
	<rect x="1760" y="-160" display="inline" fill="#FFCC00" width="2048" height="128"/>
	<path display="inline" fill="#FF3B30" d="M3100.8,817.2c-12.4,12.4-28.8,18.7-45.2,18.7c-1.4,0-2.7-0.1-4.1-0.1
		c0.1,1.3,0.1,2.7,0.1,4.1c0,17.1-6.6,33.2-18.7,45.3c-12.1,12.1-28.1,18.7-45.3,18.7c-1.4,0-2.7-0.1-4.1-0.1
		c0.1,1.3,0.1,2.7,0.1,4.1c0,7-1.1,13.9-3.3,20.3H3808V800h-694.9C3110,806.4,3105.8,812.2,3100.8,817.2z"/>
	<rect x="1760" y="-320" display="inline" fill="#FFCC00" width="2048" height="128"/>
	<rect x="1760" display="inline" fill="#FFCC00" width="2048" height="128"/>
	<rect x="1760" y="160" display="inline" fill="#FFCC00" width="2048" height="128"/>
	<path display="inline" fill="#FFCC00" d="M1760,448h805.5c25.6-20.7,57.2-32,90.5-32h91h36.5h128c33.3,0,65,11.3,90.5,32h806V320
		H1760V448z"/>
</g>
<g display="none">
	<path display="inline" fill="#007AFF" d="M2512.3,835.8c-17.1,0-33.2-6.6-45.3-18.7c-5-5-9.2-10.8-12.3-17.1h-529.4
		c4.8,43.7,12.9,86.5,24,128h638.3c-2.2-6.5-3.3-13.3-3.3-20.3c0-1.4,0.1-2.7,0.1-4.1c-1.3,0.1-2.7,0.1-4.1,0.1
		c-17.1,0-33.2-6.6-45.3-18.7c-13.5-13.5-19.7-31.6-18.6-49.3C2515.1,835.8,2513.7,835.8,2512.3,835.8z"/>
	<path display="inline" fill="#007AFF" d="M3618.6,928.2c11.1-41.6,19.3-84.4,24.1-128.2h-529.6c-3.1,6.4-7.3,12.2-12.3,17.2
		c-12.4,12.4-28.8,18.7-45.2,18.7c-1.4,0-2.7-0.1-4.1-0.1c0.1,1.3,0.1,2.7,0.1,4.1c0,17.1-6.6,33.2-18.7,45.3
		c-12.1,12.1-28.1,18.7-45.3,18.7c-1.4,0-2.7-0.1-4.1-0.1c0.1,1.3,0.1,2.7,0.1,4.1c0,7-1.1,13.9-3.3,20.3H3618.6z"/>
	<path display="inline" fill="#FF9500" d="M3618.7,480h-583.6l128,128h479.6C3637.9,564.3,3629.8,521.5,3618.7,480z"/>
	<path display="inline" fill="#FF9500" d="M1925.3,608h479.1l128-128h-583.1C1938.2,521.5,1930.1,564.3,1925.3,608z"/>
</g>
<g display="none">
	<path display="inline" fill="#FFCC00" d="M2784,0c-356.2,0-650.7,264.6-697.5,608h317.9l149.8-149.8
		c27.2-27.2,63.3-42.2,101.8-42.2h91h36.5h128c38.5,0,74.6,15,101.8,42.2L3163.1,608h318.4C3434.7,264.6,3140.2,0,2784,0z"/>
	<path display="inline" fill="#5AC8FA" d="M3113.6,799.6c-3.1,6.4-7.3,12.2-12.3,17.2c-12.5,12.5-28.8,18.7-45.2,18.7
		c-1.4,0-2.7,0-4.1-0.1c0,1.4,0.1,2.7,0.1,4.1c0,17.2-6.6,33.2-18.7,45.3s-28.2,18.7-45.3,18.7c-1.4,0-2.8,0-4.1-0.1
		c0,1.4,0.1,2.7,0.1,4.1c0,17.2-6.6,33.2-18.7,45.3s-28.2,18.7-45.3,18.7c-1.4,0-2.8,0-4.1-0.1c1.1,17.7-5.1,35.8-18.6,49.3
		c-12.1,12.1-28.1,18.7-45.3,18.7s-33.2-6.6-45.3-18.7l-22.5-22.6l-22.6,22.6c-12.5,12.5-28.9,18.7-45.3,18.7s-32.8-6.3-45.2-18.7
		c-13.5-13.5-19.7-31.6-18.6-49.3c-1.4,0-2.7,0.1-4.1,0.1c-16.4,0-32.8-6.2-45.3-18.7c-12.1-12.1-18.7-28.2-18.7-45.3
		c0-1.4,0-2.8,0.1-4.1c-1.4,0-2.7,0.1-4.1,0.1c-17.2,0-33.2-6.6-45.3-18.7c-13.5-13.5-19.7-31.6-18.6-49.3c-1.4,0-2.7,0.1-4.1,0.1
		c-17.2,0-33.2-6.6-45.3-18.7c-5.1-5-9.2-10.8-12.3-17.1h-368.4c46.7,343.5,341.2,608.2,697.5,608.2
		c356.4,0,650.9-264.8,697.6-608.4H3113.6z"/>
	<rect x="1920" y="448" display="inline" fill="#FFFFFF" width="1728" height="512"/>
	<path display="inline" fill="#FF3B30" d="M2931.3,692.8l101.8,101.8c12.5,12.5,32.8,12.5,45.3,0c4-4,6.9-9,8.3-14.5
		c0.9-3.5,1.2-7.1,0.9-10.7c-0.7-7.7-3.9-14.7-9.3-20.1l-169.7-169.7l-3.6-3.5h-151.3l-26.2,26.2c-15.2,15.1-35.2,23.5-56.6,23.5
		c-21.4,0-41.4-8.3-56.6-23.5c-15.1-15.2-23.5-35.2-23.5-56.6s8.3-41.4,23.5-56.6l30.9-30.9c3.6-3.6,7.4-7,11.3-10.2h-0.5
		c-29.9,0-58,11.6-79.2,32.8L2449.6,608l-32,32H2395h-472.7c-1.5,21.1-2.3,42.5-2.3,64s0.8,42.7,2.3,63.8h526.1
		c0-0.4,0.1-0.9,0.1-1.3c1.2-15.1,7.8-29.4,18.5-40.1l67.9-67.9c12.1-12.1,28.1-18.7,45.3-18.7s33.2,6.6,45.3,18.7
		c13.5,13.5,19.7,31.6,18.6,49.3c17.7-1.1,35.8,5.1,49.3,18.6c12.1,12.1,18.7,28.2,18.7,45.3c0,1.4,0,2.8-0.1,4.1
		c1.4,0,2.7-0.1,4.1-0.1c17.2,0,33.2,6.6,45.3,18.7c8.7,8.6,14.4,19.2,17,30.3c5.7-2.1,12.3-0.9,16.9,3.7l31.9,31.9
		c0.7,0.7,1.4,1.3,2.1,2s1.4,1.4,2,2.1l65.8,65.8c12.5,12.5,32.8,12.5,45.3,0c6-6,9.3-14.1,9.3-22.6s-3.3-16.6-9.3-22.6
		l-101.5-101.7c-6.2-6.2-6.2-16.4,0-22.6c6.2-6.2,16.4-6.2,22.6,0l101.8,101.8c6,6,14.1,9.3,22.6,9.3s16.6-3.3,22.6-9.3
		c12.5-12.5,12.5-32.8,0-45.3l-101.8-101.8c-6.2-6.2-6.2-16.4,0-22.6C2914.9,686.6,2925.1,686.6,2931.3,692.8z"/>
	<path display="inline" fill="#FF3B30" d="M2580.4,871.7c8.5,0,16.6-3.3,22.7-9.4l67.9-67.9c6-6,9.3-14.1,9.3-22.6
		s-3.3-16.6-9.3-22.6c-12.5-12.5-32.8-12.5-45.3,0l-67.9,67.9c-12.5,12.5-12.5,32.8,0,45.3C2563.8,868.4,2571.8,871.7,2580.4,871.7z
		"/>
	<path display="inline" fill="#FF3B30" d="M3149.9,640l-32-32l-127.2-127.2c-21.2-21.1-49.3-32.8-79.2-32.8h-128H2747
		c-29.9,0-58,11.6-79.2,32.8l-30.8,30.7c-9.1,9.1-14.1,21.2-14.1,33.9s5,24.8,14.1,33.9c9.1,9.1,21.2,14.1,33.9,14.1
		s24.8-5,33.9-14.1l30.9-30.9c0.4-0.4,0.8-0.8,1.2-1.1c0.2-0.1,0.4-0.3,0.6-0.4c0.2-0.2,0.5-0.3,0.7-0.5c0.2-0.1,0.5-0.3,0.7-0.4
		c0.2-0.1,0.4-0.3,0.6-0.4c0.2-0.2,0.5-0.3,0.7-0.4s0.5-0.2,0.7-0.3s0.5-0.2,0.7-0.3s0.4-0.2,0.7-0.3c0.2-0.1,0.5-0.1,0.7-0.2
		c0.3-0.1,0.5-0.1,0.8-0.2c0.3,0,0.6-0.1,0.9-0.1c0.2,0,0.5-0.1,0.7-0.1c0.5-0.1,1.1-0.1,1.6-0.1h164.5c0.2,0,0.3,0,0.5,0
		c0.4,0.1,0.7,0.1,1.1,0.1c0.2,0,0.5,0.1,0.7,0.1s0.5,0,0.8,0.1s0.5,0.1,0.8,0.2c0.3,0.1,0.6,0.1,0.8,0.2s0.5,0.2,0.7,0.3
		s0.5,0.2,0.7,0.3s0.5,0.2,0.7,0.3c0.2,0.2,0.5,0.3,0.7,0.4c0.2,0.1,0.4,0.3,0.6,0.4c0.2,0.1,0.5,0.2,0.7,0.4
		c0.3,0.2,0.5,0.3,0.7,0.5c0.2,0.1,0.4,0.2,0.6,0.4c0.3,0.2,0.5,0.5,0.8,0.7c0.2,0.1,0.3,0.2,0.4,0.3l8.3,8.2l169.7,169.7
		c10.7,10.7,17.3,24.9,18.5,40.1c0.1,0.4,0.1,0.9,0.1,1.3h526.3c1.5-21,2.3-42.2,2.3-63.6c0-21.5-0.8-42.9-2.3-64h-473.2L3149.9,640
		L3149.9,640z"/>
	<path display="inline" fill="#FF3B30" d="M2738.8,998.2l32.9-32.9c0.3-0.4,0.7-0.8,1-1.1s0.7-0.6,1-0.9l33.1-32.9
		c6-6,9.3-14,9.3-22.6c0-7.9-2.9-15.4-8-21.2l-2.9-2.9c-5.9-5.2-13.3-8-21.2-8c-8.5,0-16.6,3.3-22.6,9.3l-67.9,67.9
		c-12.5,12.5-12.5,32.8,0,45.3C2705.9,1010.7,2726.3,1010.7,2738.8,998.2z"/>
	<path display="inline" fill="#FF3B30" d="M2851.9,1007.5c8.5,0,16.6-3.3,22.6-9.3c12.5-12.5,12.5-32.8,0.1-45.3l-28.6-28.6
		c-2.8,10.7-8.4,20.5-16.5,28.6l-22.7,22.7l22.5,22.6C2835.3,1004.2,2843.4,1007.5,2851.9,1007.5z"/>
	<path display="inline" fill="#FF3B30" d="M2670.9,930.3l67.8-67.8c12.5-12.5,12.5-32.8,0-45.3c-6-6-14.1-9.3-22.6-9.3
		s-16.6,3.3-22.6,9.3l-67.9,67.9c-6,6-9.3,14.1-9.3,22.6s3.3,16.6,9.3,22.6C2638.1,942.8,2658.4,942.8,2670.9,930.3z"/>
	<path display="inline" fill="#FF3B30" d="M2603,681.3c-6-6-14-9.3-22.6-9.3c-8.5,0-16.6,3.3-22.6,9.3l-67.9,67.9
		c-5.5,5.4-8.7,12.4-9.3,20.1c-0.3,3.6,0,7.2,0.9,10.7c1.4,5.5,4.3,10.4,8.3,14.4c6.1,6.1,14.1,9.4,22.7,9.4
		c8.5,0,16.6-3.3,22.6-9.3l67.9-67.9C2615.5,714.1,2615.5,693.8,2603,681.3z"/>
</g>
<g>
	<path fill="#FFCC00" d="M2565.5,448c25.5-20.7,57.1-32,90.5-32h91h36.5h128c33.4,0,64.9,11.3,90.5,32h438
		C3337.6,185.8,3082.5,0,2784,0s-553.6,185.8-656,448H2565.5z"/>
	<path fill="#5AC8FA" d="M2956.8,960c-10.7,7.5-23.4,11.5-36.7,11.5c-1.4,0-2.8,0-4.1-0.1c1.1,17.7-5.1,35.8-18.6,49.3
		c-12.1,12.1-28.1,18.7-45.3,18.7s-33.2-6.6-45.3-18.7l-22.5-22.6l-22.6,22.6c-12.5,12.5-28.9,18.7-45.3,18.7s-32.8-6.3-45.2-18.7
		c-13.5-13.5-19.7-31.6-18.6-49.3c-1.4,0-2.7,0.1-4.1,0.1c-12.9,0-25.7-3.8-36.7-11.5H2128c102.4,262.2,357.5,448,656,448
		s553.6-185.8,656-448H2956.8z"/>
	<path fill="#FF3B30" d="M2580.4,871.7c8.5,0,16.6-3.3,22.7-9.4l67.9-67.9c6-6,9.3-14.1,9.3-22.6s-3.3-16.6-9.3-22.6
		c-12.5-12.5-32.8-12.5-45.3,0l-67.9,67.9c-12.5,12.5-12.5,32.8,0,45.3C2563.8,868.4,2571.8,871.7,2580.4,871.7z"/>
	<path fill="#FF3B30" d="M2738.8,998.2l32.9-32.9c0.3-0.4,0.7-0.8,1-1.1s0.7-0.6,1-0.9l33.1-32.9c6-6,9.3-14,9.3-22.6
		c0-7.9-2.9-15.4-8-21.2l-2.9-2.9c-5.9-5.2-13.3-8-21.2-8c-8.5,0-16.6,3.3-22.6,9.3l-67.9,67.9c-12.5,12.5-12.5,32.8,0,45.3
		C2705.9,1010.7,2726.3,1010.7,2738.8,998.2z"/>
	<path fill="#FF3B30" d="M2851.9,1007.5c8.5,0,16.6-3.3,22.6-9.3c12.5-12.5,12.5-32.8,0.1-45.3l-28.6-28.6
		c-2.8,10.7-8.4,20.5-16.5,28.6l-22.7,22.7l22.5,22.6C2835.3,1004.2,2843.4,1007.5,2851.9,1007.5z"/>
	<path fill="#FF3B30" d="M2670.9,930.3l67.8-67.8c12.5-12.5,12.5-32.8,0-45.3c-6-6-14.1-9.3-22.6-9.3s-16.6,3.3-22.6,9.3l-67.9,67.9
		c-6,6-9.3,14.1-9.3,22.6s3.3,16.6,9.3,22.6C2638.1,942.8,2658.4,942.8,2670.9,930.3z"/>
	<path fill="#FF3B30" d="M2603,681.3c-6-6-14-9.3-22.6-9.3c-8.5,0-16.6,3.3-22.6,9.3l-67.9,67.9c-5.5,5.4-8.7,12.4-9.3,20.1
		c-0.3,3.6,0,7.2,0.9,10.7c1.4,5.5,4.3,10.4,8.3,14.4c6.1,6.1,14.1,9.4,22.7,9.4c8.5,0,16.6-3.3,22.6-9.3l67.9-67.9
		C2615.5,714.1,2615.5,693.8,2603,681.3z"/>
	<path fill="#FF3B30" d="M3488,704c0-21.6-1-42.9-2.9-64h-312.6h-22.6l-32-32l-127.2-127.2c-21.2-21.1-49.3-32.8-79.2-32.8h-128
		H2747c-29.9,0-58,11.6-79.2,32.8l-30.8,30.7c-9.1,9.1-14.1,21.2-14.1,33.9s5,24.8,14.1,33.9c9.1,9.1,21.2,14.1,33.9,14.1
		s24.8-5,33.9-14.1l30.9-30.9c0.4-0.4,0.8-0.8,1.2-1.1c0.2-0.1,0.4-0.3,0.6-0.4c0.2-0.2,0.5-0.3,0.7-0.5c0.2-0.1,0.5-0.3,0.7-0.4
		c0.2-0.1,0.4-0.3,0.6-0.4c0.2-0.2,0.5-0.3,0.7-0.4s0.5-0.2,0.7-0.3s0.5-0.2,0.7-0.3s0.4-0.2,0.7-0.3c0.2-0.1,0.5-0.1,0.7-0.2
		c0.3-0.1,0.5-0.1,0.8-0.2c0.3,0,0.6-0.1,0.9-0.1c0.2,0,0.5-0.1,0.7-0.1c0.5-0.1,1.1-0.1,1.6-0.1h164.5c0.2,0,0.3,0,0.5,0
		c0.4,0.1,0.7,0.1,1.1,0.1c0.2,0,0.5,0.1,0.7,0.1s0.5,0,0.8,0.1s0.5,0.1,0.8,0.2c0.3,0.1,0.6,0.1,0.8,0.2s0.5,0.2,0.7,0.3
		s0.5,0.2,0.7,0.3s0.5,0.2,0.7,0.3c0.2,0.2,0.5,0.3,0.7,0.4c0.2,0.1,0.4,0.3,0.6,0.4c0.2,0.1,0.5,0.2,0.7,0.4
		c0.3,0.2,0.5,0.3,0.7,0.5c0.2,0.1,0.4,0.2,0.6,0.4c0.3,0.2,0.5,0.5,0.8,0.7c0.2,0.1,0.3,0.2,0.4,0.3l8.3,8.2l169.7,169.7
		c10.7,10.7,17.3,24.9,18.5,40.1c0.1,0.4,0.1,0.9,0.1,1.3h365.8C3487,746.7,3488,725.4,3488,704z"/>
	<path fill="#FF3B30" d="M3078.3,749.3l-169.7-169.7l-3.6-3.5h-151.3l-26.2,26.2c-15.2,15.1-35.2,23.5-56.6,23.5
		c-21.4,0-41.4-8.3-56.6-23.5c-15.1-15.2-23.5-35.2-23.5-56.6s8.3-41.4,23.5-56.6l30.9-30.9c3.6-3.6,7.4-7,11.3-10.2h-0.5
		c-29.9,0-58,11.6-79.2,32.8L2449.6,608l-32,32H2395h-312.1c-1.9,21.1-2.9,42.4-2.9,64c0,21.5,1,42.8,2.9,63.8h365.5
		c0-0.4,0.1-0.9,0.1-1.3c1.2-15.1,7.8-29.4,18.5-40.1l67.9-67.9c12.1-12.1,28.1-18.7,45.3-18.7s33.2,6.6,45.3,18.7
		c13.5,13.5,19.7,31.6,18.6,49.3c17.7-1.1,35.8,5.1,49.3,18.6c12.1,12.1,18.7,28.2,18.7,45.3c0,1.4,0,2.8-0.1,4.1
		c1.4,0,2.7-0.1,4.1-0.1c17.2,0,33.2,6.6,45.3,18.7c8.7,8.6,14.4,19.2,17,30.3c5.7-2.1,12.3-0.9,16.9,3.7l31.9,31.9
		c0.7,0.7,1.4,1.3,2.1,2s1.4,1.4,2,2.1l65.8,65.8c12.5,12.5,32.8,12.5,45.3,0c6-6,9.3-14.1,9.3-22.6s-3.3-16.6-9.3-22.6
		l-101.5-101.7c-6.2-6.2-6.2-16.4,0-22.6c6.2-6.2,16.4-6.2,22.6,0l101.8,101.8c6,6,14.1,9.3,22.6,9.3s16.6-3.3,22.6-9.3
		c12.5-12.5,12.5-32.8,0-45.3l-101.8-101.8c-6.2-6.2-6.2-16.4,0-22.6c6.2-6.2,16.4-6.2,22.6,0l101.8,101.8
		c12.5,12.5,32.8,12.5,45.3,0c4-4,6.9-9,8.3-14.5c0.9-3.5,1.2-7.1,0.9-10.7C3086.9,761.7,3083.7,754.7,3078.3,749.3z"/>
</g>
<g>
	<path fill="#FF3B30" d="M2086.5,608h317.9l128-128h-416C2102.6,521.1,2092.5,563.9,2086.5,608z"/>
	<path fill="#FF3B30" d="M3451.5,928.2c13.8-41.2,23.9-84,30-128.2h-368.4c-3.1,6.4-7.3,12.2-12.3,17.2
		c-12.4,12.4-28.8,18.7-45.2,18.7c-1.4,0-2.7-0.1-4.1-0.1c0.1,1.3,0.1,2.7,0.1,4.1c0,17.1-6.6,33.2-18.7,45.3
		c-12.1,12.1-28.1,18.7-45.3,18.7c-1.4,0-2.7-0.1-4.1-0.1c0.1,1.3,0.1,2.7,0.1,4.1c0,7-1.1,13.9-3.3,20.3H3451.5z"/>
	<path fill="#FF3B30" d="M2512.3,835.8c-17.1,0-33.2-6.6-45.3-18.7c-5-5-9.2-10.8-12.3-17.1h-368.2c6,44.1,16.1,86.9,29.9,128h471.2
		c-2.2-6.5-3.3-13.3-3.3-20.3c0-1.4,0.1-2.7,0.1-4.1c-1.3,0.1-2.7,0.1-4.1,0.1c-17.1,0-33.2-6.6-45.3-18.7
		c-13.5-13.5-19.7-31.6-18.6-49.3C2515.1,835.8,2513.7,835.8,2512.3,835.8z"/>
	<path fill="#FF3B30" d="M3451.6,480h-416.5l128,128h318.4C3475.5,563.9,3465.4,521.1,3451.6,480z"/>
</g>
<g display="none">
	<path display="inline" fill="#FF3B30" d="M2603,681.3c-6-6-14.1-9.3-22.6-9.3c-8.6,0-16.6,3.3-22.6,9.3l-67.9,67.9
		c-5.4,5.4-8.6,12.4-9.3,20.1c-0.3,3.6,0,7.2,0.9,10.7c1.4,5.5,4.3,10.5,8.3,14.4c6.1,6.1,14.1,9.4,22.7,9.4s16.6-3.3,22.6-9.3
		l67.9-67.9C2615.5,714.1,2615.5,693.8,2603,681.3z"/>
	<path display="inline" fill="#FF3B30" d="M2738.8,998.2l32.9-32.9c0.3-0.4,0.6-0.7,1-1.1c0.3-0.3,0.7-0.6,1-0.9l33-33
		c6-6,9.3-14.1,9.3-22.6c0-7.9-2.8-15.3-8-21.2l-2.9-2.9c-5.8-5.1-13.3-8-21.2-8c-8.6,0-16.6,3.3-22.6,9.3l-67.9,67.9
		c-12.5,12.5-12.5,32.8,0,45.3C2706,1010.6,2726.3,1010.6,2738.8,998.2z"/>
	<path display="inline" fill="#FF3B30" d="M2670.9,930.3L2670.9,930.3l67.9-67.9c12.5-12.5,12.5-32.8,0-45.3c-6-6-14.1-9.3-22.6-9.3
		s-16.6,3.3-22.6,9.3l-67.9,67.9c-6,6-9.3,14.1-9.3,22.6s3.3,16.6,9.3,22.6C2638.1,942.8,2658.4,942.8,2670.9,930.3z"/>
	<path display="inline" fill="#FF3B30" d="M2580.4,871.7c8.6,0,16.6-3.3,22.6-9.3l67.9-67.9c6-6,9.3-14.1,9.3-22.6
		s-3.3-16.6-9.3-22.6c-12.5-12.5-32.8-12.5-45.3,0l0,0l-67.9,67.9c-12.5,12.5-12.5,32.8,0,45.3l0,0
		C2563.7,868.4,2571.8,871.7,2580.4,871.7z"/>
	<path display="inline" fill="#FF3B30" d="M2448.7,766.7c1.2-15.2,7.8-29.4,18.5-40.1l67.9-67.9c12.1-12.1,28.1-18.7,45.3-18.7
		s33.2,6.6,45.3,18.7c13.5,13.5,19.7,31.6,18.6,49.3c17.7-1.1,35.8,5.1,49.3,18.6c12.1,12.1,18.7,28.1,18.7,45.3
		c0,1.4-0.1,2.7-0.1,4.1c1.3-0.1,2.7-0.1,4.1-0.1c17.1,0,33.2,6.6,45.3,18.7c8.7,8.7,14.3,19.2,17,30.3c5.7-2.1,12.4-0.9,16.9,3.7
		l31.9,31.9c0.7,0.6,1.4,1.3,2.1,2c0.7,0.7,1.3,1.4,2,2.1l65.8,65.8c12.5,12.5,32.8,12.5,45.3,0c6-6,9.3-14.1,9.3-22.6
		s-3.3-16.6-9.3-22.6l-101.8-101.8c-6.2-6.2-6.2-16.4,0-22.6c6.2-6.2,16.4-6.2,22.6,0L2965,862.4c6,6,14.1,9.3,22.6,9.3
		s16.6-3.3,22.6-9.3c12.5-12.5,12.5-32.8,0-45.3l-101.8-101.8c-6.2-6.2-6.2-16.4,0-22.6c6.2-6.2,16.4-6.2,22.6,0l101.8,101.8
		c12.5,12.5,32.8,12.5,45.3,0c4-4,6.9-9,8.3-14.5l0,0c0.9-3.5,1.2-7.1,0.9-10.7c-0.6-7.7-3.8-14.7-9.3-20.1l0,0l0,0l-169.7-169.7
		l-3.6-3.5h-151.3l-26.2,26.2c-15.2,15.2-35.2,23.5-56.6,23.5s-41.4-8.4-56.6-23.5c-15.2-15.2-23.5-35.2-23.5-56.6
		s8.4-41.4,23.5-56.6l30.9-30.9c3.6-3.6,7.4-7,11.3-10.2h-0.5c-29.9,0-58,11.7-79.2,32.8L2449.6,608l-32,32H2395h-635v128h688.6
		C2448.6,767.6,2448.6,767.1,2448.7,766.7z"/>
	<path display="inline" fill="#FF3B30" d="M2829.2,998.2c6,6,14.1,9.3,22.6,9.3s16.6-3.3,22.6-9.3c12.5-12.5,12.5-32.8,0-45.3
		l-28.6-28.6c-2.9,10.7-8.5,20.6-16.5,28.6l-22.7,22.7L2829.2,998.2L2829.2,998.2z"/>
	<path display="inline" fill="#FF3B30" d="M3149.9,640l-32-32l-127.2-127.2c-21.2-21.2-49.3-32.8-79.2-32.8h-128H2747
		c-29.9,0-58,11.7-79.2,32.8l-30.9,30.9c-9.1,9.1-14.1,21.2-14.1,33.9s5,24.8,14.1,33.9c9.1,9.1,21.2,14.1,33.9,14.1
		s24.8-5,33.9-14.1l30.9-30.9c0.4-0.4,0.8-0.7,1.2-1.1c0.2-0.1,0.4-0.3,0.6-0.4c0.2-0.2,0.5-0.4,0.7-0.5c0.2-0.2,0.5-0.3,0.7-0.4
		c0.2-0.1,0.4-0.3,0.6-0.4c0.2-0.1,0.5-0.2,0.7-0.4c0.2-0.1,0.5-0.2,0.7-0.3s0.5-0.2,0.7-0.3s0.5-0.2,0.7-0.3s0.5-0.1,0.7-0.2
		c0.3-0.1,0.5-0.1,0.8-0.2c0.3-0.1,0.6-0.1,0.9-0.1c0.2,0,0.4-0.1,0.7-0.1c0.5-0.1,1.1-0.1,1.6-0.1h164.5c0.2,0,0.3,0,0.5,0
		c0.4,0,0.7,0,1.1,0.1c0.2,0,0.5,0.1,0.7,0.1c0.3,0,0.6,0.1,0.8,0.1c0.3,0.1,0.5,0.1,0.8,0.2c0.3,0.1,0.5,0.1,0.8,0.2
		c0.3,0.1,0.5,0.2,0.7,0.3s0.5,0.2,0.7,0.3s0.5,0.2,0.7,0.3s0.5,0.2,0.7,0.4c0.2,0.1,0.4,0.3,0.6,0.4c0.2,0.1,0.5,0.3,0.7,0.4
		c0.2,0.2,0.4,0.3,0.7,0.5c0.2,0.1,0.4,0.3,0.6,0.4c0.3,0.2,0.5,0.5,0.8,0.7c0.1,0.1,0.2,0.2,0.4,0.3l8.3,8.2l0,0l0,0l169.7,169.7
		l0,0c10.7,10.7,17.3,25,18.5,40.1l0,0c0,0.4,0.1,0.9,0.1,1.3H3808V640h-635.5H3149.9z"/>
</g>
<g display="none">
	<g display="inline">
		<path fill="#FF9500" d="M2784,128c177.4,0,336,80.2,441.7,206.3L3111.9,448h188.2H3440C3337.6,185.8,3082.5,0,2784,0
			s-553.6,185.8-656,448h139.9C2362.1,258.3,2557.8,128,2784,128z"/>
	</g>
	<g display="inline">
		<path fill="#007AFF" d="M2784,1280c-177.4,0-336-80.2-441.7-206.3L2456,960h-188.2H2128c102.4,262.2,357.5,448,656,448
			s553.6-185.8,656-448h-139.9C3205.9,1149.7,3010.2,1280,2784,1280z"/>
	</g>
</g>
<g display="none">
	<path display="inline" fill="#FF3B30" d="M-160,480c-123.7,0-224,100.3-224,224s100.3,224,224,224S64,827.7,64,704
		S-36.3,480-160,480z M-160,864c-88.4,0-160-71.6-160-160s71.6-160,160-160S0,615.6,0,704S-71.6,864-160,864z"/>
	<circle display="inline" fill="#FF3B30" cx="-160" cy="704" r="64"/>
	<path display="inline" fill="#FF3B30" d="M256,672H94c1.3,10.5,2,21.2,2,32s-0.7,21.5-2,32h162v192h64V736v-64V480h-64V672z"/>
	<path display="inline" fill="#FF3B30" d="M512,480c-88.4,0-160,71.6-160,160v32v64v192h64V736h192v192h64V736v-64v-32
		C672,551.6,600.4,480,512,480z M608,672H416v-32c0-53,43-96,96-96s96,43,96,96V672z"/>
	<path display="inline" fill="#FF3B30" d="M-1088,576c0,53-43,96-96,96s-96-43-96-96v-96h-64v96c0,77.4,55,142,128,156.8V928h64
		V732.8c73-14.8,128-79.4,128-156.8v-96h-64V576z"/>
	<path display="inline" fill="#FF3B30" d="M-2048,704c0,123.7,100.3,224,224,224h96v-64h-96c-88.4,0-160-71.6-160-160
		s71.6-160,160-160h96v-64h-96C-1947.7,480-2048,580.3-2048,704z"/>
	<path display="inline" fill="#FF3B30" d="M1152,480h-32h-64v448h64h32c123.7,0,224-100.3,224-224S1275.7,480,1152,480z M1152,864
		h-32V544h32c88.4,0,160,71.6,160,160S1240.4,864,1152,864z"/>
	<path display="inline" fill="#FF3B30" d="M-1376,608c0-70.7-57.3-128-128-128h-128h-64v448h64V736h128c35.3,0,64,28.7,64,64v128h64
		V800c0-38.2-16.8-72.5-43.3-96C-1392.8,680.5-1376,646.2-1376,608z M-1632,672V544h128c35.3,0,64,28.7,64,64s-28.7,64-64,64H-1632z
		"/>
	<path display="inline" fill="#FF3B30" d="M-800,480h-128h-64v448h64V736h128c70.7,0,128-57.3,128-128S-729.3,480-800,480z
		 M-800,672h-128V544h128c35.3,0,64,28.7,64,64S-764.7,672-800,672z"/>
	<path display="inline" fill="#FF3B30" d="M1536,544h192v-64h-192c-70.7,0-128,57.3-128,128s57.3,128,128,128h64
		c35.3,0,64,28.7,64,64s-28.7,64-64,64h-192v64h192c70.7,0,128-57.3,128-128s-57.3-128-128-128h-64c-35.3,0-64-28.7-64-64
		S1500.7,544,1536,544z"/>
	<path display="inline" fill="#FF3B30" d="M-359.8,544c20.8-26,46.6-47.8,75.8-64h-164h-64h-128v64h128v384h64V544H-359.8z"/>
	<polygon display="inline" fill="#FF3B30" points="960,807.5 772.9,480 768,480 736,480 704,480 704,928 768,928 768,600.5 
		955.1,928 960,928 992,928 1024,928 1024,480 960,480 	"/>
</g>
<g>
	<path fill="#5A5A5A" d="M944,224c-61.8,0-112,50.2-112,112s50.2,112,112,112s112-50.2,112-112S1005.8,224,944,224z M944,416
		c-44.2,0-80-35.8-80-80s35.8-80,80-80s80,35.8,80,80S988.2,416,944,416z"/>
	<circle fill="#5A5A5A" cx="944" cy="336" r="32"/>
	<path fill="#5A5A5A" d="M1152,320h-81c0.7,5.2,1,10.6,1,16s-0.3,10.8-1,16h81v96h32v-96v-32v-96h-32V320z"/>
	<path fill="#5A5A5A" d="M1280,224c-44.2,0-80,35.8-80,80v16v32v96h32v-96h96v96h32v-96v-32v-16C1360,259.8,1324.2,224,1280,224z
		 M1328,320h-96v-16c0-26.5,21.5-48,48-48s48,21.5,48,48V320z"/>
	<path fill="#5A5A5A" d="M480,272c0,26.5-21.5,48-48,48s-48-21.5-48-48v-48h-32v48c0,38.7,27.5,71,64,78.4V448h32v-97.6
		c36.5-7.4,64-39.7,64-78.4v-48h-32V272z"/>
	<path fill="#5A5A5A" d="M0,336c0,61.8,50.2,112,112,112h48v-32h-48c-44.2,0-80-35.8-80-80s35.8-80,80-80h48v-32h-48
		C50.2,224,0,274.2,0,336z"/>
	<path fill="#5A5A5A" d="M1600,224h-16h-32v224h32h16c61.8,0,112-50.2,112-112S1661.8,224,1600,224z M1600,416h-16V256h16
		c44.2,0,80,35.8,80,80S1644.2,416,1600,416z"/>
	<path fill="#5A5A5A" d="M336,288c0-35.3-28.6-64-64-64h-64h-32v224h32v-96h64c17.6,0,32,14.3,32,32v64h32v-64
		c0-19.1-8.4-36.2-21.6-48C327.6,324.2,336,307.1,336,288z M208,320v-64h64c17.6,0,32,14.3,32,32s-14.4,32-32,32H208z"/>
	<path fill="#5A5A5A" d="M624,224h-64h-32v224h32v-96h64c35.3,0,64-28.7,64-64S659.3,224,624,224z M624,320h-64v-64h64
		c17.7,0,32,14.3,32,32S641.7,320,624,320z"/>
	<path fill="#5A5A5A" d="M1792,256h96v-32h-96c-35.3,0-64,28.7-64,64s28.7,64,64,64h32c17.7,0,32,14.3,32,32s-14.3,32-32,32h-96v32
		h96c35.3,0,64-28.7,64-64s-28.7-64-64-64h-32c-17.7,0-32-14.3-32-32S1774.3,256,1792,256z"/>
	<path fill="#5A5A5A" d="M844.1,256c10.4-13,23.3-23.9,37.9-32h-82h-32h-64v32h64v192h32V256H844.1z"/>
	<polygon fill="#5A5A5A" points="1504,387.8 1410.4,224 1408,224 1392,224 1376,224 1376,448 1408,448 1408,284.2 1501.6,448 
		1504,448 1520,448 1536,448 1536,224 1504,224 	"/>
</g>
<g display="none">
	<path display="inline" fill="#FF3B30" d="M2512.3,835.8c-17.1,0-33.2-6.6-45.3-18.7c-5-5-9.2-10.8-12.3-17.1h-529.4
		c4.8,43.7,12.9,86.5,24,128h638.3c-2.2-6.5-3.3-13.3-3.3-20.3c0-1.4,0.1-2.7,0.1-4.1c-1.3,0.1-2.7,0.1-4.1,0.1
		c-17.1,0-33.2-6.6-45.3-18.7c-13.5-13.5-19.7-31.6-18.6-49.3C2515.1,835.8,2513.7,835.8,2512.3,835.8z"/>
	<path display="inline" fill="#FF3B30" d="M1925.3,608h479.1l128-128h-583.1C1938.2,521.5,1930.1,564.3,1925.3,608z"/>
	<path display="inline" fill="#FF3B30" d="M3618.6,928.2c11.1-41.6,19.3-84.4,24.1-128.2h-529.6c-3.1,6.4-7.3,12.2-12.3,17.2
		c-12.4,12.4-28.8,18.7-45.2,18.7c-1.4,0-2.7-0.1-4.1-0.1c0.1,1.3,0.1,2.7,0.1,4.1c0,17.1-6.6,33.2-18.7,45.3
		c-12.1,12.1-28.1,18.7-45.3,18.7c-1.4,0-2.7-0.1-4.1-0.1c0.1,1.3,0.1,2.7,0.1,4.1c0,7-1.1,13.9-3.3,20.3H3618.6z"/>
	<path display="inline" fill="#FF3B30" d="M3618.7,480h-583.6l128,128h479.6C3637.9,564.3,3629.8,521.5,3618.7,480z"/>
	<path display="inline" fill="#FFCC00" d="M1958.6,448h606.9c25.6-20.7,57.2-32,90.5-32h91h36.5h128c33.3,0,65,11.3,90.5,32h607.4
		C3500.3,95.8,3172-160,2784-160S2067.7,95.8,1958.6,448z"/>
	<path display="inline" fill="#5AC8FA" d="M3609.4,960h-652.8c-10.7,7.5-23.5,11.6-36.8,11.6c-1.4,0-2.7-0.1-4.1-0.1
		c1.1,17.7-5.1,35.8-18.6,49.3c-12.1,12.1-28.1,18.7-45.3,18.7s-33.2-6.6-45.3-18.7l-22.5-22.6l-22.6,22.6
		c-12.5,12.4-28.9,18.7-45.3,18.7c-16.4,0-32.8-6.2-45.2-18.7c-13.5-13.5-19.7-31.6-18.6-49.3c-1.4,0.1-2.7,0.1-4.1,0.1
		c-12.9,0-25.8-3.9-36.8-11.6h-652.8c109.1,352.2,437.4,608,825.4,608S3500.3,1312.2,3609.4,960z"/>
</g>
<g display="none">
	<path display="inline" fill="#FF3B30" d="M2603,681.3c-6-6-14.1-9.3-22.6-9.3c-8.6,0-16.6,3.3-22.6,9.3l-67.9,67.9
		c-5.4,5.4-8.6,12.4-9.3,20.1c-0.3,3.6,0,7.2,0.9,10.7c1.4,5.5,4.3,10.5,8.3,14.4c6.1,6.1,14.1,9.4,22.7,9.4s16.6-3.3,22.6-9.3
		l67.9-67.9C2615.5,714.1,2615.5,693.8,2603,681.3z"/>
	<path display="inline" fill="#FF3B30" d="M2738.8,998.2l32.9-32.9c0.3-0.4,0.6-0.7,1-1.1c0.3-0.3,0.7-0.6,1-0.9l33-33
		c6-6,9.3-14.1,9.3-22.6c0-7.9-2.8-15.3-8-21.2l-2.9-2.9c-5.8-5.1-13.3-8-21.2-8c-8.6,0-16.6,3.3-22.6,9.3l-67.9,67.9
		c-12.5,12.5-12.5,32.8,0,45.3C2706,1010.6,2726.3,1010.6,2738.8,998.2z"/>
	<path display="inline" fill="#FF3B30" d="M2670.9,930.3L2670.9,930.3l67.9-67.9c12.5-12.5,12.5-32.8,0-45.3c-6-6-14.1-9.3-22.6-9.3
		s-16.6,3.3-22.6,9.3l-67.9,67.9c-6,6-9.3,14.1-9.3,22.6s3.3,16.6,9.3,22.6C2638.1,942.8,2658.4,942.8,2670.9,930.3z"/>
	<path display="inline" fill="#FF3B30" d="M2580.4,871.7c8.6,0,16.6-3.3,22.6-9.3l67.9-67.9c6-6,9.3-14.1,9.3-22.6
		s-3.3-16.6-9.3-22.6c-12.5-12.5-32.8-12.5-45.3,0l0,0l-67.9,67.9c-12.5,12.5-12.5,32.8,0,45.3l0,0
		C2563.7,868.4,2571.8,871.7,2580.4,871.7z"/>
	<path display="inline" fill="#FF3B30" d="M2829.2,998.2c6,6,14.1,9.3,22.6,9.3s16.6-3.3,22.6-9.3c12.5-12.5,12.5-32.8,0-45.3
		l-28.6-28.6c-2.9,10.7-8.5,20.6-16.5,28.6l-22.7,22.7L2829.2,998.2L2829.2,998.2z"/>
	<path display="inline" fill="#FF3B30" d="M3172.5,640h-22.6l-32-32l-127.2-127.2c-21.2-21.2-49.3-32.8-79.2-32.8h-128H2747
		c-29.9,0-58,11.7-79.2,32.8l-30.9,30.9c-9.1,9.1-14.1,21.2-14.1,33.9s5,24.8,14.1,33.9c9.1,9.1,21.2,14.1,33.9,14.1
		s24.8-5,33.9-14.1l30.9-30.9c0.4-0.4,0.8-0.7,1.2-1.1c0.2-0.1,0.4-0.3,0.6-0.4c0.2-0.2,0.5-0.4,0.7-0.5c0.2-0.2,0.5-0.3,0.7-0.4
		c0.2-0.1,0.4-0.3,0.6-0.4s0.5-0.2,0.7-0.4c0.2-0.1,0.5-0.2,0.7-0.3s0.5-0.2,0.7-0.3s0.5-0.2,0.7-0.3s0.5-0.1,0.7-0.2
		c0.3-0.1,0.5-0.1,0.8-0.2c0.3-0.1,0.6-0.1,0.9-0.1c0.2,0,0.4-0.1,0.7-0.1c0.5-0.1,1.1-0.1,1.6-0.1h164.5c0.2,0,0.3,0,0.5,0
		c0.4,0,0.7,0,1.1,0.1c0.2,0,0.5,0.1,0.7,0.1c0.3,0,0.6,0.1,0.8,0.1c0.3,0.1,0.5,0.1,0.8,0.2c0.3,0.1,0.5,0.1,0.8,0.2
		c0.3,0.1,0.5,0.2,0.7,0.3s0.5,0.2,0.7,0.3s0.5,0.2,0.7,0.3s0.5,0.2,0.7,0.4c0.2,0.1,0.4,0.3,0.6,0.4c0.2,0.1,0.5,0.3,0.7,0.4
		c0.2,0.2,0.4,0.3,0.7,0.5c0.2,0.1,0.4,0.3,0.6,0.4c0.3,0.2,0.5,0.5,0.8,0.7c0.1,0.1,0.2,0.2,0.4,0.3l8.3,8.2l169.7,169.7
		c10.7,10.7,17.3,25,18.5,40.1c0,0.4,0.1,0.9,0.1,1.3h526.4c1.5-21.1,2.3-42.3,2.3-63.8s-0.8-42.9-2.3-64H3172.5z"/>
	<path display="inline" fill="#FF3B30" d="M2448.6,768c0-0.4,0-0.9,0.1-1.3c1.2-15.2,7.8-29.4,18.5-40.1l67.9-67.9
		c12.1-12.1,28.1-18.7,45.3-18.7s33.2,6.6,45.3,18.7c13.5,13.5,19.7,31.6,18.6,49.3c17.7-1.1,35.8,5.1,49.3,18.6
		c12.1,12.1,18.7,28.1,18.7,45.3c0,1.4-0.1,2.7-0.1,4.1c1.3-0.1,2.7-0.1,4.1-0.1c17.1,0,33.2,6.6,45.3,18.7
		c8.7,8.7,14.3,19.2,17,30.3c5.7-2.1,12.4-0.9,16.9,3.7l31.9,31.9c0.7,0.6,1.4,1.3,2.1,2c0.7,0.7,1.3,1.4,2,2.1l65.8,65.8
		c12.5,12.5,32.8,12.5,45.3,0c6-6,9.3-14.1,9.3-22.6s-3.3-16.6-9.3-22.6l-101.8-101.8c-6.2-6.2-6.2-16.4,0-22.6s16.4-6.2,22.6,0
		L2965,862.4c6,6,14.1,9.3,22.6,9.3s16.6-3.3,22.6-9.3c12.5-12.5,12.5-32.8,0-45.3l-101.8-101.8c-6.2-6.2-6.2-16.4,0-22.6
		c6.2-6.2,16.4-6.2,22.6,0l101.8,101.8c12.5,12.5,32.8,12.5,45.3,0c4-4,6.9-9,8.3-14.5c0.9-3.5,1.2-7.1,0.9-10.7
		c-0.6-7.7-3.8-14.7-9.3-20.1l-169.7-169.7l-3.6-3.5h-151.3l-26.2,26.2c-15.2,15.2-35.2,23.5-56.6,23.5s-41.4-8.4-56.6-23.5
		c-15.2-15.2-23.5-35.2-23.5-56.6s8.4-41.4,23.5-56.6l30.9-30.9c3.6-3.6,7.4-7,11.3-10.2h-0.5c-29.9,0-58,11.7-79.2,32.8L2449.6,608
		l-32,32H2395h-472.7c-1.5,21.1-2.3,42.5-2.3,64s0.8,42.9,2.3,64H2448.6z"/>
</g>
<g display="none">
	<path display="inline" fill="#FF9500" d="M2784,128c49.1,0,96.8,6.2,142.3,17.7L2784,288h398.4H3352C3223.9,113.4,3017.2,0,2784,0
		s-439.9,113.4-568,288h169.6C2489.1,188.9,2629.4,128,2784,128z"/>
	<path display="inline" fill="#007AFF" d="M3182.4,1120c-103.5,99.1-243.8,160-398.4,160c-49.1,0-96.8-6.2-142.3-17.7L2784,1120
		h-398.4H2216c128.1,174.6,334.8,288,568,288s439.9-113.4,568-288H3182.4z"/>
</g>
<g display="none">
	<g display="inline">
		<g>
			<path fill="#FF9500" d="M2216,288c-35.9,48.9-65.6,102.6-88,160h139.9c29.8-60,69.8-114.1,117.7-160H2216z"/>
		</g>
		<g display="none">
			<path display="inline" fill="#FF9500" d="M3182.4,288c15.3,14.6,29.7,30.1,43.3,46.3L3111.9,448h188.2H3440
				c-22.4-57.4-52.1-111.1-88-160H3182.4z"/>
		</g>
	</g>
	<g display="inline">
		<g display="none">
			<path display="inline" fill="#007AFF" d="M2385.6,1120c-15.3-14.6-29.7-30.1-43.3-46.3L2456,960h-188.2H2128
				c22.4,57.4,52.1,111.1,88,160H2385.6z"/>
		</g>
		<g>
			<path fill="#007AFF" d="M3352,1120c35.9-48.9,65.6-102.6,88-160h-139.9c-29.8,60-69.8,114.1-117.7,160H3352z"/>
		</g>
	</g>
</g>
<g>
	<path fill="#FF9500" d="M3352,288L3352,288C3223.9,113.4,3017.2,0,2784,0s-439.9,113.4-568,288l0,0c-35.9,48.9-65.6,102.6-88,160
		h139.9c29.8-60,69.8-114.1,117.7-160l0,0c103.5-99.1,243.8-160,398.4-160c49.1,0,96.8,6.2,142.3,17.7L2784,288l392.3,95.7L3440,448
		C3417.6,390.6,3387.9,336.9,3352,288z"/>
	<path fill="#007AFF" d="M3440,960h-139.9c-29.8,60-69.8,114.1-117.7,160l0,0c-103.5,99.1-243.8,160-398.4,160
		c-49.1,0-96.8-6.2-142.3-17.7L2784,1120l-392.3-95.7L2128,960c22.4,57.4,52.1,111.1,88,160l0,0c128.1,174.6,334.8,288,568,288
		s439.9-113.4,568-288l0,0C3387.9,1071.1,3417.6,1017.4,3440,960z"/>
</g>
<g>
	<rect x="1680" y="480" fill="#FF3B30" width="128" height="448"/>
	<rect x="1280" y="624" fill="#FF3B30" width="128" height="304"/>
	<rect x="1440" y="624" fill="#FF3B30" width="128" height="304"/>
	<rect x="320" y="480" fill="#FF3B30" width="128" height="448"/>
	<rect x="1600" y="480" fill="#FF3B30" width="288" height="128"/>
	<rect x="320" y="480" fill="#FF3B30" width="288" height="128"/>
	<rect x="320" y="800" fill="#FF3B30" width="288" height="128"/>
	<rect x="320" y="640" fill="#FF3B30" width="288" height="128"/>
	<rect x="960" y="480" fill="#FF3B30" width="128" height="448"/>
	<rect x="960" y="480" fill="#FF3B30" width="288" height="128"/>
	<rect x="960" y="800" fill="#FF3B30" width="288" height="128"/>
	<rect x="960" y="640" fill="#FF3B30" width="288" height="128"/>
	<rect x="1280" y="640" fill="#FF3B30" width="288" height="128"/>
	<rect y="480" fill="#FF3B30" width="128" height="448"/>
	<rect x="160" y="800" fill="#FF3B30" width="128" height="128"/>
	<path fill="#FF3B30" d="M144,480v128c8.8,0,16,7.2,16,16s-7.2,16-16,16v128c79.5,0,144-64.5,144-144S223.5,480,144,480z"/>
	<path fill="#FF3B30" d="M144,640v128c8.8,0,16,7.2,16,16h128C288,704.5,223.5,640,144,640z"/>
	<rect x="160" y="784" fill="#FF3B30" width="128" height="16"/>
	<rect x="128" y="480" fill="#FF3B30" width="16" height="128"/>
	<rect x="128" y="640" fill="#FF3B30" width="16" height="128"/>
	<rect x="640" y="480" fill="#FF3B30" width="128" height="448"/>
	<path fill="#FF3B30" d="M784,480v128c8.8,0,16,7.2,16,16s-7.2,16-16,16v128c79.5,0,144-64.5,144-144S863.5,480,784,480z"/>
	<rect x="768" y="480" fill="#FF3B30" width="16" height="128"/>
	<rect x="768" y="640" fill="#FF3B30" width="16" height="128"/>
	<path fill="#FF3B30" d="M1424,608c8.8,0,16,7.2,16,16h128c0-79.5-64.5-144-144-144s-144,64.5-144,144h128
		C1408,615.2,1415.2,608,1424,608z"/>
</g>
<text transform="matrix(1 0 0 1 384 1184)" display="none" enable-background="new    " font-family="'SnellRoundhand'" font-size="224px">Every Eyar</text>
<text transform="matrix(1 0 0 1 441.5789 1184.272)" display="none" enable-background="new    " font-family="'SnellRoundhand'" font-size="224px">Every Eyar</text>
<text transform="matrix(1 0 0 1 441.5789 1184.272)" display="none" enable-background="new    " font-family="'BrushScriptMT'" font-size="224px">Every Year</text>
<g display="none">
	<path display="inline" fill="#5A5A5A" d="M652,1113v7.4c0,3.1-0.6,5-1.8,5.8s-5.6,3-13.2,6.5c-7.6,3.5-14.9,7.6-21.9,12.4
		c2.7-3.9,5.2-6.9,7.4-8.8s5.2-4.3,9-7.1c-3.3-1.3-7.8-2-13.7-2c-9,0-18.8,1.8-29.3,5.4s-19.4,7.8-26.7,12.8s-11,9.1-11,12.5
		c0,1.8,1.1,3.2,3.3,4.3c2.2,1.1,5.8,2,10.7,2.6s11.1,1,18.4,1.3c7.4,0.2,16.4,0.3,27.2,0.3c7.9,0,12.9,0.3,15.2,0.9s3.4,1.9,3.4,4
		c0,2.7-1.3,5.8-4,9.2c-2.7,3.5-6.2,5.5-10.6,6.2c-6.8,1.1-12.2,2-16.2,2.8s-8.8,2.1-14.3,3.9s-11.6,4.4-18.3,7.9
		c-10,5.2-17.8,10.6-23.4,16c-5.6,5.4-8.4,10.2-8.4,14.3c0,3.6,2,6.4,6,8.4s9.8,3,17.3,3c25.9,0,52.2-11.6,79.1-34.9
		c0.1,7.1-0.6,13.4-2.4,18.9c-1.7,5.4-5.2,10.6-10.4,15.6c-4.4,4.2-10.8,8.1-19.2,11.9s-17.6,6.8-27.6,9.1s-19.3,3.4-28.1,3.4
		c-10.1,0-18.5-2.4-25.2-7.3c-6.6-4.8-10-11.3-10-19.3c0-5.8,1.6-11.6,4.8-17.4s8.1-11.3,14.8-16.6c6.6-5.3,15-10.1,25.2-14.4
		s21.9-7.7,35.2-10.2c1.9-0.4,2.8-0.9,2.8-1.8s-1.1-1.4-3.3-1.6s-6.3-0.3-12.2-0.4s-11.2-0.3-15.7-0.8c-4.5-0.4-9.3-1.4-14.3-2.8
		c-5.2-1.6-9.2-4.4-12-8.4s-4.2-8.5-4.2-13.3c0-6.3,2.3-12.6,6.8-18.9s10.9-12.1,19.1-17.2c8.2-5.1,18.2-9.2,29.9-12.3
		c11.7-3.1,24.5-4.6,38.4-4.6c8,0,13.6,0.5,16.8,1.4s5,2.1,5.5,3.6C651.7,1106.1,652,1108.9,652,1113z"/>
	<path display="inline" fill="#5A5A5A" d="M660.1,1216.6l-2,9.2c-0.3,1.2-0.4,2.5-0.4,3.9c0,3.9,1.6,5.9,4.9,5.9
		c3.1,0,10.8-6.1,22.9-18.4c0.1-4.7,1.8-10.2,5.3-16.4c3.5-6.2,7.3-11.6,11.5-16.3c4.2-4.7,7.3-7,9.4-7c3.2,0,4.8,2.1,4.8,6.3
		c0,2.6-0.6,5.7-1.9,9.4c-1.2,3.7-3.1,7.7-5.5,11.9s-5.4,8.7-8.9,13.2c1.8,3.3,3.7,4.9,5.6,4.9c1.6,0,3.4-0.6,5.3-1.7
		c1.9-1.1,4.4-2.9,7.3-5.2v7.3c-4.1,3.2-7.3,5.4-9.7,6.6s-5.4,1.8-9.1,1.8c-1.5,0-4.1-1-7.9-3c-7.4,7.9-13.5,13.8-18.2,17.7
		c-4.7,3.9-8.5,5.9-11.4,5.9c-5,0-9.3-3-12.9-9c-3.5-6-5.3-12.6-5.3-19.9c0-9.7,5.5-21.3,16.4-34.9c3.3-4.1,5.9-6.9,7.9-8.4
		s4.3-2.2,6.8-2.2c2.2,0,4.3,0.4,6.2,1.2c2,0.8,3,1.8,3,2.8c0,3.6-2.4,9-7.3,16C672.1,1205.3,666.5,1211.4,660.1,1216.6z"/>
	<path display="inline" fill="#5A5A5A" d="M735.6,1220.3v2.7c0,4.3,1.1,7.7,3.2,10.1c2.1,2.4,4.9,3.6,8.3,3.6
		c3.6,0,7.3-0.8,11.1-2.5s7.6-3.9,11.4-6.7c3.8-2.8,8.4-6.5,13.9-11.2v6.7c-8.2,9.9-16,17.5-23.2,22.8s-14.5,7.9-22,7.9
		c-6.5,0-11.6-2.5-15.4-7.5c-3.8-5-5.7-11.9-5.7-20.7c0-7.7,1.8-14.6,5.4-20.8c3.6-6.2,9.4-12.8,17.5-19.7c5.5-4.7,11-8.3,16.5-10.7
		s10.4-3.6,14.7-3.6c3.4,0,6.1,0.8,8.1,2.4s3,3.9,3,7.1c0,4.6-1.7,9.2-5.1,13.7c-3.4,4.6-8.7,9.1-15.7,13.6
		C754.6,1211.8,745.9,1216.1,735.6,1220.3z M736.7,1213.2c6.6-2.6,12.2-5.7,16.8-9.5c4.7-3.8,8.1-7.4,10.3-10.9s3.3-6,3.3-7.6
		c0-1.7-0.8-2.5-2.3-2.5c-1.3,0-3.4,0.8-6.4,2.5s-5.9,3.9-9,6.6c-3,2.7-5.7,5.9-8.1,9.5C739,1204.9,737.5,1208.9,736.7,1213.2z"/>
	<path display="inline" fill="#5A5A5A" d="M782.5,1224.8v-7.1c3.9-4.7,6.9-8.6,9-11.9c-2.3-0.8-4-1.8-5.1-3s-1.6-2.9-1.6-5.2
		c0-2.6,1.1-5.9,3.3-10c2.2-4,4.9-7.8,8.1-11.3c3.2-3.5,6.1-5.8,8.8-6.8c1-0.5,2-0.8,3-0.8c1.5,0,2.2,0.7,2.2,2.1
		c0,1.2-1.1,3.8-3.4,7.5c15-2.3,24.5-3.5,28.4-3.5c1.5,0,2.6,0.1,3.2,0.4c1.2,0.7,2.3,2.2,3.1,4.6s1.2,4.8,1.2,7.2
		c0,1.5-0.7,3.2-2,5c-1.4,1.8-3.7,4.4-6.9,7.8c-3.9,4.2-7.1,8.7-9.7,13.6c-2.6,4.9-3.9,8.6-3.9,11c0,3.4,2.1,5.1,6.3,5.1
		c4.4,0,12.2-4.5,23.2-13.6v7.3c-6.1,6.3-11,11.3-15,15c-3.9,3.6-7.6,6.5-10.9,8.7c-3.4,2.2-6.3,3.2-9,3.2c-3.1,0-5.6-1.4-7.7-4.2
		c-2-2.8-3.1-6.9-3.1-12.2c0-3.1,0.8-6.7,2.4-10.7c1.6-4,4-8.4,7.1-13.1s6.6-9.4,10.4-14.1c-2,0.4-4.3,0.9-6.9,1.4
		c-2.6,0.5-5.2,1-8.1,1.5c-2.8,0.5-5,0.9-6.6,1.2C797.6,1209.2,791.1,1217.4,782.5,1224.8z"/>
	<path display="inline" fill="#5A5A5A" d="M899.4,1220.6l-19.5,16.5c-9.3,8.1-15.5,12.1-18.6,12.1c-2.8,0-5.8-3.3-9-9.8
		c-3.1-6.5-4.7-12.2-4.7-17.1c0-4.2,0.6-7.7,1.9-10.6c1.3-2.9,3.5-6.6,6.6-11.2c4.4-6.2,8.7-11.4,12.8-15.8c4.1-4.3,7.7-7.6,10.8-10
		s5.3-3.6,6.6-3.6c2,0,3.9,1,5.7,3.1c1.9,2,2.8,4.2,2.8,6.3c0,1.4-1,3.6-3,6.7s-5.2,6.9-9.5,11.6s-10.4,10.3-18.1,16.9l-2.1,6
		c-0.6,1.2-0.9,2.2-0.9,3.1c0,2,1,3,3,3s6.8-2.6,14.4-7.8c7.5-5.2,15.7-12.1,24.6-20.9c3.4-3.4,6.3-6.5,8.5-9.1
		c2.3-2.6,4.3-5.1,6.1-7.4s3.3-4,4.5-5.2s2.3-1.8,3.2-1.9c1.8-0.2,3.2,0.5,4.3,2.3c1,1.8,1.5,4.3,1.5,7.8c0,2-0.9,4.4-2.6,7.4
		s-5,8-9.8,15.1s-9.6,14.5-14.4,22.1c-4.8,7.6-9.6,16.2-14.6,25.8c0.2-0.2,2.5-2.4,6.7-6.6s8.8-8.5,13.5-13s8.6-8.1,11.7-10.9
		s6.9-5.9,11.5-9.6v7.3c-9.8,10.6-18.8,20.6-26.7,30.1s-14.1,17.1-18.5,22.8c-4.3,5.7-6.9,9-7.6,10c-2,2.6-3.7,4.9-5.3,7.2
		c-1.6,2.2-2.9,3.9-3.9,5.1c-1.1,1.2-1.9,1.8-2.6,1.8c-1.5,0-2.9-1.5-4.1-4.5s-1.8-5.7-1.8-8c0-2.1,0.4-4,1.2-5.6
		C869.3,1270.4,881.1,1249.9,899.4,1220.6z"/>
	<path display="inline" fill="#5A5A5A" d="M1139.9,1113v7.4c0,3.1-0.6,5-1.8,5.8c-1.2,0.8-5.6,3-13.2,6.5s-14.9,7.6-21.9,12.4
		c2.7-3.9,5.2-6.9,7.4-8.8c2.2-1.9,5.2-4.3,9-7.1c-3.3-1.3-7.8-2-13.7-2c-9,0-18.8,1.8-29.3,5.4s-19.4,7.8-26.7,12.8
		c-7.3,5-11,9.1-11,12.5c0,1.8,1.1,3.2,3.3,4.3c2.2,1.1,5.8,2,10.7,2.6c4.9,0.6,11.1,1,18.4,1.3c7.4,0.2,16.4,0.3,27.2,0.3
		c7.9,0,12.9,0.3,15.2,0.9c2.3,0.6,3.4,1.9,3.4,4c0,2.7-1.3,5.8-4,9.2c-2.7,3.5-6.2,5.5-10.6,6.2c-6.8,1.1-12.2,2-16.2,2.8
		s-8.8,2.1-14.3,3.9s-11.6,4.4-18.3,7.9c-10,5.2-17.8,10.6-23.4,16s-8.4,10.2-8.4,14.3c0,3.6,2,6.4,6,8.4s9.8,3,17.3,3
		c25.9,0,52.2-11.6,79.1-34.9c0.1,7.1-0.6,13.4-2.4,18.9c-1.7,5.4-5.2,10.6-10.4,15.6c-4.4,4.2-10.8,8.1-19.2,11.9
		s-17.6,6.8-27.6,9.1s-19.3,3.4-28.1,3.4c-10.1,0-18.5-2.4-25.2-7.3c-6.6-4.8-10-11.3-10-19.3c0-5.8,1.6-11.6,4.8-17.4
		s8.1-11.3,14.8-16.6c6.6-5.3,15-10.1,25.2-14.4s21.9-7.7,35.2-10.2c1.9-0.4,2.8-0.9,2.8-1.8s-1.1-1.4-3.3-1.6
		c-2.2-0.2-6.3-0.3-12.2-0.4c-5.9-0.1-11.2-0.3-15.7-0.8c-4.5-0.4-9.3-1.4-14.3-2.8c-5.2-1.6-9.2-4.4-12-8.4
		c-2.8-4-4.2-8.5-4.2-13.3c0-6.3,2.3-12.6,6.8-18.9s10.9-12.1,19.1-17.2s18.2-9.2,29.9-12.3c11.7-3.1,24.5-4.6,38.4-4.6
		c8,0,13.6,0.5,16.8,1.4c3.2,0.9,5,2.1,5.5,3.6C1139.6,1106.1,1139.9,1108.9,1139.9,1113z"/>
	<path display="inline" fill="#5A5A5A" d="M1184.1,1220.6l-19.5,16.5c-9.3,8.1-15.5,12.1-18.6,12.1c-2.8,0-5.8-3.3-9-9.8
		c-3.1-6.5-4.7-12.2-4.7-17.1c0-4.2,0.6-7.7,1.9-10.6s3.5-6.6,6.6-11.2c4.4-6.2,8.7-11.4,12.8-15.8c4.1-4.3,7.7-7.6,10.8-10
		c3.1-2.4,5.3-3.6,6.6-3.6c2,0,3.9,1,5.7,3.1c1.9,2,2.8,4.2,2.8,6.3c0,1.4-1,3.6-3,6.7s-5.2,6.9-9.5,11.6s-10.4,10.3-18.1,16.9
		l-2.1,6c-0.6,1.2-0.9,2.2-0.9,3.1c0,2,1,3,3,3s6.8-2.6,14.4-7.8c7.5-5.2,15.7-12.1,24.6-20.9c3.4-3.4,6.3-6.5,8.5-9.1
		c2.3-2.6,4.3-5.1,6.1-7.4c1.8-2.3,3.3-4,4.5-5.2s2.3-1.8,3.2-1.9c1.8-0.2,3.2,0.5,4.3,2.3c1,1.8,1.5,4.3,1.5,7.8
		c0,2-0.9,4.4-2.6,7.4s-5,8-9.8,15.1s-9.6,14.5-14.4,22.1s-9.6,16.2-14.6,25.8c0.2-0.2,2.5-2.4,6.7-6.6s8.8-8.5,13.5-13
		s8.6-8.1,11.7-10.9s6.9-5.9,11.5-9.6v7.3c-9.8,10.6-18.8,20.6-26.7,30.1s-14.1,17.1-18.5,22.8c-4.3,5.7-6.9,9-7.6,10
		c-2,2.6-3.7,4.9-5.3,7.2c-1.6,2.2-2.9,3.9-3.9,5.1c-1.1,1.2-1.9,1.8-2.6,1.8c-1.5,0-2.9-1.5-4.1-4.5s-1.8-5.7-1.8-8
		c0-2.1,0.4-4,1.2-5.6C1154,1270.4,1165.8,1249.9,1184.1,1220.6z"/>
	<path display="inline" fill="#5A5A5A" d="M1230.5,1196.8c11.1-10.1,21.8-17.5,32.3-22.4c10.4-4.9,18.5-7.3,24.2-7.3
		c1.5,0,3,0.6,4.3,1.9s2.4,2.8,3.1,4.4c0.8,1.7,1.1,2.9,1.1,3.7c0,1.3-0.5,2.3-1.5,2.9s-2.8,1.4-5.4,2.2c0.5,1.2,1.2,2.7,2,4.5
		s1.4,3.3,1.9,4.4c0.4,1.1,0.7,2.1,0.7,3c0,1.8-1.8,5-5.3,9.8s-6,8.3-7.4,10.6c-1.4,2.3-2.1,5-2.1,8.3c0,5.4,2.5,8.1,7.4,8.1
		c5.1,0,13.1-4.8,24-14.3v6.7c-18.4,20.5-31.6,30.7-39.6,30.7c-2.8,0-4.9-0.9-6.1-2.8s-1.8-4.6-1.8-8.3c0-5.8,2.1-14.1,6.2-25
		c-10.6,11.8-18.6,20.2-23.7,25.2c-5.2,5-9.4,7.5-12.8,7.5c-1.6,0-3.6-1.4-6-4.2c-2.4-2.8-4.5-6.4-6.4-10.8s-2.8-9-2.8-13.7
		c0-3.4,0.3-6.3,1-8.6s1.9-4.6,3.8-7.1C1223.3,1203.9,1226.3,1200.7,1230.5,1196.8z M1282.8,1184.7c-19,8.7-32.5,16-40.5,22.1
		c-8.1,6.1-12.1,12.3-12.1,18.7c0,2.3,0.4,4.2,1.2,5.7c0.8,1.5,1.9,2.2,3.3,2.2c0.8,0,2.2-0.5,4.3-1.5c7.7-4.5,14.7-10.4,21-17.7
		C1266.3,1207.1,1273.9,1197.2,1282.8,1184.7z"/>
	<path display="inline" fill="#5A5A5A" d="M1307.5,1224.8v-7.1c3.9-4.7,6.9-8.6,9-11.9c-2.3-0.8-4-1.8-5.1-3s-1.6-2.9-1.6-5.2
		c0-2.6,1.1-5.9,3.3-10c2.2-4,4.9-7.8,8.1-11.3s6.1-5.8,8.8-6.8c1-0.5,2-0.8,3-0.8c1.5,0,2.2,0.7,2.2,2.1c0,1.2-1.1,3.8-3.4,7.5
		c15-2.3,24.5-3.5,28.4-3.5c1.5,0,2.6,0.1,3.2,0.4c1.2,0.7,2.3,2.2,3.1,4.6c0.8,2.4,1.2,4.8,1.2,7.2c0,1.5-0.7,3.2-2,5
		c-1.4,1.8-3.7,4.4-6.9,7.8c-3.9,4.2-7.1,8.7-9.7,13.6s-3.9,8.6-3.9,11c0,3.4,2.1,5.1,6.3,5.1c4.4,0,12.2-4.5,23.2-13.6v7.3
		c-6.1,6.3-11,11.3-15,15c-3.9,3.6-7.6,6.5-10.9,8.7c-3.4,2.2-6.3,3.2-9,3.2c-3.1,0-5.6-1.4-7.7-4.2c-2-2.8-3.1-6.9-3.1-12.2
		c0-3.1,0.8-6.7,2.4-10.7s4-8.4,7.1-13.1s6.6-9.4,10.4-14.1c-2,0.4-4.3,0.9-6.9,1.4s-5.2,1-8.1,1.5c-2.8,0.5-5,0.9-6.6,1.2
		C1322.6,1209.2,1316.1,1217.4,1307.5,1224.8z"/>
</g>
<g display="none">
	<path display="inline" fill="#888888" d="M618.1,974.9v8.3c0,3.4-0.7,5.6-2,6.5s-6.3,3.3-14.8,7.2s-16.7,8.5-24.5,13.8
		c3-4.4,5.8-7.6,8.2-9.8c2.5-2.1,5.8-4.8,10.1-7.9c-3.7-1.5-8.7-2.2-15.3-2.2c-10.1,0-21,2-32.7,6s-21.6,8.7-29.8,14.3
		c-8.2,5.5-12.3,10.2-12.3,13.9c0,2,1.2,3.6,3.7,4.8c2.5,1.3,6.5,2.2,12,2.9c5.5,0.7,12.3,1.2,20.6,1.4c8.2,0.2,18.4,0.4,30.4,0.4
		c8.8,0,14.4,0.3,17,1c2.5,0.7,3.8,2.2,3.8,4.5c0,3-1.5,6.5-4.5,10.3c-3,3.9-6.9,6.2-11.8,6.9c-7.6,1.2-13.6,2.3-18.1,3.1
		c-4.5,0.9-9.8,2.3-15.9,4.3c-6.1,2-13,5-20.4,8.8c-11.2,5.9-19.9,11.8-26.1,17.8c-6.3,6-9.4,11.4-9.4,16c0,4,2.2,7.1,6.7,9.3
		c4.5,2.2,10.9,3.4,19.3,3.4c28.9,0,58.3-13,88.3-38.9c0.2,8-0.7,15-2.6,21.1c-1.9,6.1-5.8,11.9-11.7,17.4
		c-4.9,4.6-12,9.1-21.4,13.3s-19.7,7.6-30.8,10.1s-21.5,3.8-31.3,3.8c-11.3,0-20.7-2.7-28.1-8.1s-11.1-12.6-11.1-21.5
		c0-6.5,1.8-13,5.4-19.4s9.1-12.6,16.5-18.5s16.8-11.3,28.1-16.1c11.4-4.8,24.4-8.6,39.2-11.4c2.1-0.4,3.2-1.1,3.2-2
		c0-1-1.2-1.6-3.7-1.8c-2.5-0.2-7-0.3-13.7-0.4c-6.6-0.1-12.5-0.4-17.5-0.9s-10.4-1.5-16-3.2c-5.8-1.8-10.2-4.9-13.4-9.4
		c-3.1-4.5-4.7-9.4-4.7-14.9c0-7,2.5-14,7.6-21.1c5-7.1,12.2-13.5,21.4-19.2s20.3-10.3,33.4-13.7c13.1-3.5,27.4-5.2,42.9-5.2
		c9,0,15.2,0.5,18.7,1.5s5.6,2.4,6.2,4C617.8,967.2,618.1,970.3,618.1,974.9z"/>
	<path display="inline" fill="#888888" d="M627.1,1090.5l-2.2,10.3c-0.3,1.3-0.5,2.8-0.5,4.4c0,4.4,1.8,6.6,5.5,6.6
		c3.5,0,12-6.8,25.5-20.5c0.1-5.3,2.1-11.4,5.9-18.3c3.9-6.9,8.1-13,12.8-18.2s8.2-7.8,10.4-7.8c3.6,0,5.4,2.4,5.4,7.1
		c0,2.8-0.7,6.3-2.1,10.4c-1.4,4.1-3.4,8.5-6.1,13.3s-6,9.7-9.9,14.7c2,3.7,4.1,5.5,6.2,5.5c1.8,0,3.8-0.6,5.9-1.9
		c2.2-1.3,4.9-3.2,8.1-5.8v8.2c-4.6,3.6-8.2,6-10.8,7.3s-6,2-10.2,2c-1.6,0-4.6-1.1-8.8-3.3c-8.3,8.8-15.1,15.4-20.3,19.7
		c-5.2,4.4-9.4,6.5-12.7,6.5c-5.6,0-10.4-3.4-14.3-10.1c-3.9-6.7-5.9-14.1-5.9-22.2c0-10.8,6.1-23.8,18.3-38.9
		c3.7-4.6,6.6-7.7,8.9-9.3c2.2-1.7,4.8-2.5,7.6-2.5c2.4,0,4.8,0.4,7,1.3s3.3,2,3.3,3.2c0,4.1-2.7,10-8.2,17.9
		C640.6,1077.9,634.3,1084.7,627.1,1090.5z"/>
	<path display="inline" fill="#888888" d="M711.5,1094.6v3.1c0,4.8,1.2,8.5,3.5,11.2c2.4,2.7,5.5,4,9.3,4c4,0,8.1-0.9,12.4-2.8
		c4.3-1.9,8.5-4.4,12.8-7.4c4.2-3.1,9.4-7.2,15.5-12.5v7.4c-9.2,11.1-17.8,19.6-25.9,25.5c-8.1,5.9-16.2,8.9-24.5,8.9
		c-7.2,0-13-2.8-17.2-8.4s-6.3-13.3-6.3-23.1c0-8.5,2-16.3,6-23.3s10.5-14.3,19.5-22c6.2-5.3,12.3-9.3,18.4-12s11.6-4,16.4-4
		c3.8,0,6.9,0.9,9.1,2.6c2.2,1.8,3.4,4.4,3.4,7.9c0,5.1-1.9,10.2-5.7,15.3c-3.8,5.1-9.7,10.1-17.5,15.1
		C732.6,1085.2,722.9,1090,711.5,1094.6z M712.7,1086.7c7.3-2.8,13.6-6.4,18.8-10.6s9.1-8.3,11.5-12.1c2.5-3.9,3.7-6.7,3.7-8.5
		c0-1.9-0.9-2.8-2.6-2.8c-1.5,0-3.8,0.9-7.1,2.8s-6.6,4.3-10,7.3s-6.4,6.6-9.1,10.6C715.2,1077.5,713.5,1081.9,712.7,1086.7z"/>
	<path display="inline" fill="#888888" d="M763.7,1099.6v-7.9c4.4-5.2,7.7-9.6,10-13.3c-2.6-0.9-4.5-2-5.7-3.3s-1.8-3.3-1.8-5.9
		c0-2.9,1.2-6.6,3.7-11.1c2.4-4.5,5.5-8.7,9-12.6c3.6-3.9,6.8-6.4,9.8-7.6c1.1-0.6,2.2-0.9,3.3-0.9c1.6,0,2.4,0.8,2.4,2.3
		c0,1.4-1.3,4.2-3.8,8.4c16.8-2.6,27.3-3.9,31.7-3.9c1.7,0,2.9,0.2,3.5,0.5c1.4,0.7,2.5,2.4,3.4,5.1s1.3,5.4,1.3,8.1
		c0,1.7-0.8,3.6-2.3,5.6s-4.1,4.9-7.8,8.7c-4.3,4.6-7.9,9.7-10.9,15.1c-2.9,5.5-4.4,9.6-4.4,12.3c0,3.8,2.4,5.7,7.1,5.7
		c5,0,13.6-5,25.9-15.1v8.2c-6.8,7.1-12.3,12.7-16.7,16.7c-4.4,4.1-8.5,7.3-12.2,9.7c-3.7,2.4-7.1,3.6-10,3.6
		c-3.4,0-6.3-1.6-8.5-4.7c-2.3-3.1-3.4-7.7-3.4-13.6c0-3.5,0.9-7.5,2.7-12s4.4-9.3,7.9-14.6c3.5-5.2,7.3-10.5,11.7-15.7
		c-2.3,0.5-4.8,1-7.7,1.5c-2.8,0.5-5.9,1.1-9,1.6c-3.2,0.6-5.6,1-7.3,1.3C780.6,1082.3,773.3,1091.4,763.7,1099.6z"/>
	<path display="inline" fill="#888888" d="M894.2,1095l-21.7,18.4c-10.3,9-17.3,13.5-20.8,13.5c-3.2,0-6.5-3.6-10-10.9
		s-5.2-13.7-5.2-19.1c0-4.6,0.7-8.6,2.1-11.8c1.4-3.2,3.9-7.4,7.4-12.5c5-6.9,9.7-12.8,14.3-17.6c4.6-4.8,8.6-8.5,12.1-11.2
		c3.5-2.6,5.9-4,7.3-4c2.2,0,4.3,1.1,6.4,3.4c2.1,2.3,3.1,4.6,3.1,7.1c0,1.5-1.1,4-3.4,7.4c-2.2,3.4-5.8,7.8-10.6,13
		s-11.6,11.5-20.2,18.9l-2.3,6.7c-0.7,1.3-1,2.4-1,3.4c0,2.2,1.1,3.3,3.3,3.3c2.3,0,7.6-2.9,16.1-8.7c8.4-5.8,17.6-13.5,27.4-23.3
		c3.8-3.8,7-7.2,9.5-10.1s4.8-5.7,6.8-8.2c2-2.6,3.7-4.5,5.1-5.8c1.3-1.3,2.5-2,3.6-2.1c2-0.2,3.6,0.6,4.8,2.6
		c1.1,2,1.7,4.8,1.7,8.7c0,2.2-1,4.9-2.9,8.2s-5.6,8.9-11,16.8s-10.7,16.2-16.1,24.7c-5.3,8.5-10.8,18.1-16.3,28.7
		c0.2-0.2,2.7-2.7,7.5-7.3c4.8-4.6,9.8-9.5,15.1-14.5s9.6-9.1,13.1-12.1s7.7-6.6,12.8-10.7v8.2c-11,11.8-20.9,23-29.8,33.6
		s-15.8,19-20.6,25.4c-4.8,6.3-7.7,10.1-8.5,11.1c-2.2,2.8-4.2,5.5-5.9,8c-1.8,2.5-3.2,4.4-4.4,5.7c-1.2,1.3-2.1,2-2.9,2
		c-1.7,0-3.2-1.7-4.6-5.1s-2-6.4-2-9c0-2.4,0.4-4.4,1.3-6.2C860.6,1150.6,873.8,1127.6,894.2,1095z"/>
	<path display="inline" fill="#888888" d="M1162.6,974.9v8.3c0,3.4-0.7,5.6-2,6.5s-6.3,3.3-14.8,7.2s-16.7,8.5-24.5,13.8
		c3-4.4,5.8-7.6,8.2-9.8c2.5-2.1,5.8-4.8,10.1-7.9c-3.7-1.5-8.7-2.2-15.3-2.2c-10.1,0-21,2-32.7,6s-21.6,8.7-29.8,14.3
		c-8.2,5.5-12.3,10.2-12.3,13.9c0,2,1.2,3.6,3.7,4.8c2.5,1.3,6.5,2.2,12,2.9c5.5,0.7,12.3,1.2,20.6,1.4c8.2,0.2,18.4,0.4,30.4,0.4
		c8.8,0,14.4,0.3,17,1c2.5,0.7,3.8,2.2,3.8,4.5c0,3-1.5,6.5-4.5,10.3c-3,3.9-6.9,6.2-11.8,6.9c-7.6,1.2-13.6,2.3-18.1,3.1
		c-4.5,0.9-9.8,2.3-15.9,4.3s-13,5-20.4,8.8c-11.2,5.9-19.9,11.8-26.1,17.8c-6.3,6-9.4,11.4-9.4,16c0,4,2.2,7.1,6.7,9.3
		c4.5,2.2,10.9,3.4,19.3,3.4c28.9,0,58.3-13,88.3-38.9c0.2,8-0.7,15-2.6,21.1s-5.8,11.9-11.7,17.4c-4.9,4.6-12,9.1-21.4,13.3
		s-19.7,7.6-30.8,10.1c-11.1,2.5-21.5,3.8-31.3,3.8c-11.3,0-20.7-2.7-28.1-8.1s-11.1-12.6-11.1-21.5c0-6.5,1.8-13,5.4-19.4
		c3.6-6.4,9.1-12.6,16.5-18.5s16.8-11.3,28.1-16.1c11.4-4.8,24.4-8.6,39.2-11.4c2.1-0.4,3.2-1.1,3.2-2c0-1-1.2-1.6-3.7-1.8
		c-2.5-0.2-7-0.3-13.7-0.4c-6.6-0.1-12.5-0.4-17.5-0.9s-10.4-1.5-16-3.2c-5.8-1.8-10.2-4.9-13.4-9.4c-3.1-4.5-4.7-9.4-4.7-14.9
		c0-7,2.5-14,7.6-21.1c5-7.1,12.2-13.5,21.4-19.2c9.2-5.7,20.3-10.3,33.4-13.7c13.1-3.5,27.4-5.2,42.9-5.2c9,0,15.2,0.5,18.7,1.5
		s5.6,2.4,6.2,4C1162.3,967.2,1162.6,970.3,1162.6,974.9z"/>
	<path display="inline" fill="#888888" d="M1211.9,1095l-21.7,18.4c-10.3,9-17.3,13.5-20.8,13.5c-3.2,0-6.5-3.6-10-10.9
		s-5.2-13.7-5.2-19.1c0-4.6,0.7-8.6,2.1-11.8c1.4-3.2,3.9-7.4,7.4-12.5c5-6.9,9.7-12.8,14.3-17.6c4.6-4.8,8.6-8.5,12.1-11.2
		c3.5-2.6,5.9-4,7.3-4c2.2,0,4.3,1.1,6.4,3.4s3.1,4.6,3.1,7.1c0,1.5-1.1,4-3.4,7.4c-2.2,3.4-5.8,7.8-10.6,13
		c-4.8,5.2-11.6,11.5-20.2,18.9l-2.3,6.7c-0.7,1.3-1,2.4-1,3.4c0,2.2,1.1,3.3,3.3,3.3c2.3,0,7.6-2.9,16.1-8.7
		c8.4-5.8,17.6-13.5,27.4-23.3c3.8-3.8,7-7.2,9.5-10.1s4.8-5.7,6.8-8.2c2-2.6,3.7-4.5,5.1-5.8c1.3-1.3,2.5-2,3.6-2.1
		c2-0.2,3.6,0.6,4.8,2.6c1.1,2,1.7,4.8,1.7,8.7c0,2.2-1,4.9-2.9,8.2s-5.6,8.9-11,16.8s-10.7,16.2-16.1,24.7
		c-5.3,8.5-10.8,18.1-16.3,28.7c0.2-0.2,2.7-2.7,7.5-7.3c4.8-4.6,9.8-9.5,15.1-14.5c5.3-5,9.6-9.1,13.1-12.1
		c3.4-3.1,7.7-6.6,12.8-10.7v8.2c-11,11.8-20.9,23-29.8,33.6s-15.8,19-20.6,25.4c-4.8,6.3-7.7,10.1-8.5,11.1c-2.2,2.8-4.2,5.5-5.9,8
		c-1.8,2.5-3.2,4.4-4.4,5.7c-1.2,1.3-2.1,2-2.9,2c-1.7,0-3.2-1.7-4.6-5.1s-2-6.4-2-9c0-2.4,0.4-4.4,1.3-6.2
		C1178.4,1150.6,1191.5,1127.6,1211.9,1095z"/>
	<path display="inline" fill="#888888" d="M1263.7,1068.4c12.4-11.2,24.4-19.6,36-25c11.6-5.5,20.6-8.2,27-8.2
		c1.7,0,3.3,0.7,4.8,2.1s2.6,3.1,3.5,4.9c0.9,1.9,1.3,3.3,1.3,4.2c0,1.5-0.6,2.5-1.7,3.2s-3.1,1.5-6,2.5c0.6,1.3,1.3,3,2.2,5
		c0.9,2,1.6,3.7,2.1,4.9c0.5,1.3,0.7,2.4,0.7,3.4c0,2-2,5.6-5.9,10.9s-6.7,9.3-8.3,11.8c-1.6,2.5-2.4,5.6-2.4,9.3c0,6,2.8,9,8.3,9
		c5.7,0,14.6-5.3,26.7-16v7.4c-20.6,22.9-35.3,34.3-44.2,34.3c-3.2,0-5.4-1-6.8-3.1s-2-5.1-2-9.2c0-6.4,2.3-15.7,7-28
		c-11.9,13.2-20.7,22.6-26.5,28.1c-5.8,5.6-10.5,8.4-14.3,8.4c-1.8,0-4-1.5-6.7-4.6s-5.1-7.1-7.1-12c-2.1-4.9-3.1-10-3.1-15.3
		c0-3.8,0.4-7,1.1-9.6s2.2-5.2,4.3-7.9C1255.7,1076.3,1259.1,1072.8,1263.7,1068.4z M1322.2,1055c-21.2,9.7-36.2,17.9-45.2,24.7
		c-9,6.8-13.5,13.7-13.5,20.9c0,2.6,0.4,4.7,1.3,6.4c0.9,1.7,2.1,2.5,3.7,2.5c0.9,0,2.5-0.6,4.8-1.7c8.5-5,16.4-11.6,23.4-19.7
		C1303.7,1079.9,1312.2,1068.9,1322.2,1055z"/>
	<path display="inline" fill="#888888" d="M1349.6,1099.6v-7.9c4.4-5.2,7.7-9.6,10-13.3c-2.6-0.9-4.5-2-5.7-3.3s-1.8-3.3-1.8-5.9
		c0-2.9,1.2-6.6,3.7-11.1c2.4-4.5,5.5-8.7,9-12.6c3.6-3.9,6.8-6.4,9.8-7.6c1.1-0.6,2.2-0.9,3.3-0.9c1.6,0,2.4,0.8,2.4,2.3
		c0,1.4-1.3,4.2-3.8,8.4c16.8-2.6,27.3-3.9,31.7-3.9c1.7,0,2.9,0.2,3.5,0.5c1.4,0.7,2.5,2.4,3.4,5.1s1.3,5.4,1.3,8.1
		c0,1.7-0.8,3.6-2.3,5.6s-4.1,4.9-7.8,8.7c-4.3,4.6-7.9,9.7-10.9,15.1c-2.9,5.5-4.4,9.6-4.4,12.3c0,3.8,2.4,5.7,7.1,5.7
		c5,0,13.6-5,25.9-15.1v8.2c-6.8,7.1-12.3,12.7-16.7,16.7c-4.4,4.1-8.5,7.3-12.2,9.7c-3.7,2.4-7.1,3.6-10,3.6
		c-3.4,0-6.3-1.6-8.5-4.7c-2.3-3.1-3.4-7.7-3.4-13.6c0-3.5,0.9-7.5,2.7-12c1.8-4.5,4.4-9.3,7.9-14.6c3.5-5.2,7.3-10.5,11.7-15.7
		c-2.3,0.5-4.8,1-7.7,1.5c-2.8,0.5-5.9,1.1-9,1.6c-3.2,0.6-5.6,1-7.3,1.3C1366.6,1082.3,1359.2,1091.4,1349.6,1099.6z"/>
</g>
<g enable-background="new    ">
	<path fill="#5E6076" d="M535.9,1042.8v12c0,4.9-1,8-2.9,9.3c-1.9,1.3-9,4.7-21.3,10.4c-12.2,5.6-24,12.2-35.2,19.9
		c4.3-6.3,8.3-11,11.9-14.1c3.6-3,8.4-6.9,14.5-11.4c-5.3-2.1-12.6-3.2-22-3.2c-14.5,0-30.2,2.9-47,8.6
		c-16.8,5.7-31.1,12.6-42.9,20.6c-11.8,8-17.7,14.7-17.7,20c0,2.8,1.8,5.1,5.4,6.9c3.6,1.8,9.3,3.2,17.2,4.2c7.9,1,17.8,1.7,29.6,2
		c11.8,0.4,26.4,0.5,43.8,0.5c12.7,0,20.8,0.5,24.4,1.4c3.6,0.9,5.4,3.1,5.4,6.5c0,4.3-2.1,9.3-6.4,14.9c-4.3,5.6-9.9,8.9-17,9.9
		c-10.9,1.8-19.6,3.3-26,4.5c-6.4,1.2-14.1,3.3-22.9,6.2c-8.8,2.9-18.7,7.2-29.4,12.7c-16.1,8.4-28.6,17-37.6,25.7
		c-9,8.7-13.5,16.3-13.5,23c0,5.7,3.2,10.2,9.7,13.4c6.4,3.2,15.7,4.8,27.8,4.8c41.6,0,84-18.7,127.1-56.1c0.2,11.5-1,21.6-3.8,30.3
		c-2.8,8.7-8.3,17.1-16.8,25c-7,6.7-17.3,13.1-30.8,19.2s-28.3,11-44.3,14.6c-16,3.6-31,5.4-45.1,5.4c-16.3,0-29.8-3.9-40.4-11.7
		c-10.7-7.8-16-18.1-16-31c0-9.4,2.6-18.7,7.7-27.9c5.2-9.3,13.1-18.1,23.7-26.6c10.7-8.5,24.2-16.2,40.5-23.1
		c16.3-6.9,35.2-12.4,56.5-16.3c3-0.6,4.6-1.5,4.6-2.8c0-1.4-1.8-2.3-5.4-2.5c-3.6-0.3-10.1-0.5-19.7-0.6c-9.6-0.1-18-0.5-25.2-1.2
		c-7.3-0.7-14.9-2.2-23-4.6c-8.3-2.6-14.7-7.1-19.2-13.5c-4.5-6.4-6.8-13.6-6.8-21.4c0-10.1,3.6-20.2,10.9-30.4
		c7.3-10.2,17.5-19.4,30.8-27.6c13.2-8.2,29.3-14.8,48.1-19.8c18.8-5,39.4-7.5,61.8-7.5c12.9,0,21.9,0.7,27,2.2
		c5.1,1.5,8.1,3.4,8.9,5.8C535.5,1031.7,535.9,1036.2,535.9,1042.8z"/>
	<path fill="#5E6076" d="M548.9,1209.3l-3.2,14.8c-0.5,1.9-0.7,4-0.7,6.3c0,6.3,2.6,9.5,7.9,9.5c5,0,17.3-9.8,36.7-29.5
		c0.1-7.6,3-16.4,8.5-26.4c5.6-10,11.7-18.7,18.5-26.2c6.7-7.5,11.7-11.2,15-11.2c5.2,0,7.7,3.4,7.7,10.2c0,4.1-1,9.1-3,15
		c-2,5.9-4.9,12.3-8.8,19.2s-8.6,13.9-14.2,21.2c2.9,5.3,5.9,7.9,9,7.9c2.6,0,5.4-0.9,8.5-2.7c3.1-1.8,7-4.6,11.7-8.3v11.8
		c-6.6,5.2-11.8,8.7-15.6,10.5c-3.8,1.9-8.7,2.8-14.7,2.8c-2.3,0-6.6-1.6-12.7-4.7c-12,12.7-21.7,22.1-29.2,28.4
		c-7.5,6.3-13.6,9.4-18.3,9.4c-8.1,0-15-4.8-20.7-14.5c-5.7-9.7-8.5-20.3-8.5-31.9c0-15.6,8.8-34.3,26.4-56.1
		c5.3-6.6,9.5-11,12.7-13.4c3.2-2.4,6.9-3.6,11-3.6c3.5,0,6.9,0.6,10,1.9c3.2,1.3,4.7,2.8,4.7,4.6c0,5.9-3.9,14.4-11.8,25.8
		C568.3,1191.1,559.2,1200.9,548.9,1209.3z"/>
	<path fill="#5E6076" d="M670.4,1215.2v4.4c0,6.9,1.7,12.3,5.1,16.2c3.4,3.9,7.8,5.8,13.4,5.8c5.7,0,11.7-1.3,17.8-4
		c6.2-2.7,12.3-6.3,18.4-10.7c6.1-4.5,13.5-10.4,22.3-17.9v10.7c-13.2,15.9-25.7,28.2-37.3,36.7c-11.6,8.5-23.4,12.7-35.3,12.7
		c-10.4,0-18.7-4-24.8-12.1c-6.1-8.1-9.1-19.2-9.1-33.2c0-12.3,2.9-23.5,8.6-33.5c5.7-10,15.1-20.6,28.1-31.7
		c8.9-7.6,17.8-13.4,26.5-17.2s16.6-5.8,23.6-5.8c5.5,0,9.9,1.3,13.1,3.8c3.2,2.5,4.8,6.3,4.8,11.3c0,7.4-2.8,14.7-8.3,22.1
		c-5.5,7.3-13.9,14.6-25.2,21.8C700.8,1201.6,686.9,1208.5,670.4,1215.2z M672.1,1203.8c10.5-4.1,19.6-9.2,27.1-15.3
		c7.5-6.1,13-11.9,16.6-17.5c3.6-5.6,5.4-9.6,5.4-12.2c0-2.7-1.2-4-3.7-4c-2.1,0-5.5,1.3-10.3,4c-4.7,2.7-9.6,6.2-14.4,10.5
		c-4.9,4.3-9.2,9.4-13.1,15.3C675.8,1190.5,673.3,1196.9,672.1,1203.8z"/>
	<path fill="#5E6076" d="M745.6,1222.4V1211c6.3-7.5,11.1-13.9,14.4-19.2c-3.8-1.3-6.5-2.9-8.2-4.7c-1.7-1.9-2.5-4.7-2.5-8.4
		c0-4.2,1.8-9.5,5.3-16c3.5-6.4,7.8-12.5,13-18.1c5.2-5.6,9.8-9.3,14.1-10.9c1.6-0.8,3.2-1.2,4.7-1.2c2.3,0,3.5,1.1,3.5,3.3
		c0,2-1.8,6-5.4,12.1c24.1-3.7,39.4-5.6,45.7-5.6c2.5,0,4.2,0.2,5.1,0.7c2,1.1,3.6,3.5,4.9,7.4c1.3,3.9,1.9,7.7,1.9,11.6
		c0,2.5-1.1,5.1-3.3,8c-2.2,2.9-5.9,7.1-11.2,12.6c-6.2,6.7-11.4,13.9-15.6,21.8c-4.2,7.9-6.3,13.8-6.3,17.8c0,5.5,3.4,8.3,10.2,8.3
		c7.1,0,19.6-7.3,37.3-21.8v11.8c-9.7,10.2-17.8,18.2-24.1,24.1c-6.3,5.9-12.2,10.5-17.6,14c-5.4,3.5-10.2,5.2-14.4,5.2
		c-4.9,0-9-2.3-12.3-6.8c-3.3-4.5-4.9-11-4.9-19.6c0-5,1.3-10.8,3.9-17.2c2.6-6.4,6.4-13.4,11.3-21c5-7.6,10.6-15.1,16.8-22.6
		c-3.3,0.7-7,1.4-11.1,2.2c-4.1,0.8-8.4,1.6-13,2.4c-4.6,0.8-8.1,1.5-10.5,1.9C770,1197.4,759.4,1210.6,745.6,1222.4z"/>
	<path fill="#5E6076" d="M933.5,1215.8l-31.3,26.5c-14.9,13-24.8,19.5-29.9,19.5c-4.6,0-9.4-5.2-14.4-15.7
		c-5-10.5-7.6-19.7-7.6-27.5c0-6.7,1-12.3,3.1-17c2-4.6,5.6-10.6,10.6-18c7.1-10,14-18.4,20.6-25.3c6.6-6.9,12.4-12.3,17.4-16.1
		c5-3.8,8.6-5.7,10.5-5.7c3.2,0,6.2,1.6,9.2,4.9c3,3.3,4.5,6.7,4.5,10.2c0,2.2-1.6,5.8-4.8,10.7c-3.2,4.9-8.3,11.2-15.3,18.7
		c-7,7.6-16.7,16.6-29.1,27.2l-3.3,9.7c-0.9,1.9-1.4,3.5-1.4,4.9c0,3.2,1.6,4.7,4.7,4.7c3.3,0,11-4.2,23.1-12.5
		c12.1-8.3,25.3-19.5,39.5-33.6c5.5-5.5,10.1-10.4,13.7-14.6c3.6-4.2,6.9-8.2,9.8-11.9c2.9-3.7,5.4-6.5,7.3-8.3
		c1.9-1.9,3.7-2.9,5.2-3c2.9-0.4,5.2,0.9,6.9,3.7c1.6,2.8,2.5,7,2.5,12.5c0,3.2-1.4,7.1-4.2,11.9s-8.1,12.8-15.8,24.3
		s-15.4,23.3-23.1,35.5c-7.7,12.2-15.5,26-23.5,41.4c0.4-0.4,4-3.9,10.8-10.5s14.1-13.7,21.7-20.9c7.6-7.3,13.9-13.1,18.8-17.5
		s11.1-9.5,18.5-15.4v11.8c-15.8,17-30.1,33.1-43,48.3s-22.7,27.4-29.7,36.6c-7,9.1-11,14.5-12.2,16c-3.2,4.1-6,7.9-8.5,11.5
		c-2.5,3.6-4.6,6.3-6.3,8.3c-1.7,1.9-3.1,2.9-4.1,2.9c-2.5,0-4.7-2.4-6.6-7.3c-1.9-4.9-2.9-9.2-2.9-12.9c0-3.4,0.6-6.4,1.9-9
		C885.2,1295.7,904.1,1262.8,933.5,1215.8z"/>
	<path fill="#5E6076" d="M1062.7,1141.9l3.2-20.6c1.1-7,2.9-12.8,5.6-17.2c2.7-4.5,7.4-9.3,14.2-14.7c6.7-5.3,17.2-12.9,31.4-22.8
		c34.1-23.8,60.6-35.7,79.6-35.7c5.7,0,9.8,1.2,12.2,3.5c2.4,2.3,3.6,6.4,3.6,12.3c0,4.1-1.6,9.7-4.7,16.9
		c-3.1,7.2-8.8,18.5-17.1,33.9s-15.6,29.4-21.9,41.7c-5.2,10.1-11,20.8-17.6,32.1c-6.6,11.3-11,19.1-13.2,23.3
		c-2.2,4.2-3.3,7.4-3.3,9.5c0,2.3,0.8,4.4,2.3,6.1c1.5,1.7,3.4,2.5,5.6,2.5c3,0,6.5-1.6,10.3-4.9c3.8-3.3,11.3-10.4,22.4-21.3
		c5.4-5.4,11.2-11.8,17.3-19.2s13.8-16.9,22.9-28.5s17.6-22.4,25.3-32.3c4.8-6.2,9.1-11.8,13-16.7s7.2-8.7,9.9-11.3
		c2.8-2.6,4.9-4,6.6-4c1.4,0,3.7,1.8,6.9,5.3l4.2,5.4c3.2,4.5,4.7,7.7,4.7,9.7c0,2.3-4.4,10.9-13.1,25.8
		c-8.7,14.8-16.1,27.7-22.2,38.5c-6.1,10.8-14,26.5-23.6,46.9c-9.7,20.5-19,43.2-27.9,68.1c23.8-17.9,40.1-29.9,48.9-35.9
		c8.8-6,15.2-9.1,19.2-9.1c2.7,0,4,1.1,4,3.3c0,2.5-1.3,5.7-3.9,9.6c-2.6,3.9-6,8.3-10.4,13c-4.3,4.7-10.9,11.6-19.6,20.6
		c-8.7,9-18.3,18.7-28.6,29.1c-6.3,6.4-12.5,13.9-18.5,22.5c-6,8.6-10.6,15.2-13.9,19.9c-3.3,4.7-6.3,7.4-9,8.1
		c-4,1.2-7.6,0.3-10.9-2.6c-3.3-2.9-4.9-7.6-4.9-13.9c0-4.5,2.3-13.7,6.8-27.6c4.5-13.9,11.3-31.3,20.5-52
		c5.4-12.4,10.9-24.2,16.5-35.2s12.1-23.3,19.4-36.6c7.3-13.3,14.5-25.9,21.5-37.9s13-22.1,17.9-30.6
		c-11.7,15.4-23.4,30.3-34.9,44.7c-11.5,14.5-24.4,29.7-38.7,45.7s-28.6,31-43.2,44.9c-6.3,6-10.9,10-13.6,12.2
		c-2.8,2.2-6.4,3.3-10.8,3.3c-2.8,0-5.5-1-8.2-2.9s-4.8-4.5-6.6-7.6c-1.8-3.1-2.6-6.1-2.6-9.1c0-4.9,0.7-9.3,2.2-13
		c1.5-3.7,4-9.4,7.6-16.9c15.9-32.2,27.5-54.3,34.8-66.3c26-41.7,39-65.1,39-70.1c0-1.6-0.6-3-1.8-4c-1.2-1-2.6-1.5-4.4-1.5
		c-3.3,0-7.2,1.4-11.8,4.3c-4.6,2.9-10.3,7.1-17.2,12.7c-6.9,5.6-15.3,12.4-25.2,20.2c-9.9,7.9-20.3,15.4-31.2,22.5
		c-4.3,2.8-9.2,6.2-14.7,10s-8.6,5.8-9.4,5.8c-1.6,0-2.5-0.8-2.5-2.5C1061.7,1150.1,1062,1146.8,1062.7,1141.9z"/>
	<path fill="#5E6076" d="M1297.4,1215.2v4.4c0,6.9,1.7,12.3,5.1,16.2c3.4,3.9,7.8,5.8,13.4,5.8c5.7,0,11.7-1.3,17.8-4
		c6.2-2.7,12.3-6.3,18.4-10.7c6.1-4.5,13.5-10.4,22.3-17.9v10.7c-13.2,15.9-25.7,28.2-37.3,36.7c-11.6,8.5-23.4,12.7-35.3,12.7
		c-10.4,0-18.7-4-24.8-12.1c-6.1-8.1-9.1-19.2-9.1-33.2c0-12.3,2.9-23.5,8.6-33.5c5.7-10,15.1-20.6,28.1-31.7
		c8.9-7.6,17.8-13.4,26.5-17.2s16.6-5.8,23.6-5.8c5.5,0,9.9,1.3,13.1,3.8c3.2,2.5,4.8,6.3,4.8,11.3c0,7.4-2.8,14.7-8.3,22.1
		c-5.5,7.3-13.9,14.6-25.2,21.8C1327.8,1201.6,1313.9,1208.5,1297.4,1215.2z M1299.1,1203.8c10.5-4.1,19.6-9.2,27.1-15.3
		c7.5-6.1,13-11.9,16.6-17.5c3.6-5.6,5.4-9.6,5.4-12.2c0-2.7-1.2-4-3.7-4c-2.1,0-5.5,1.3-10.3,4c-4.7,2.7-9.6,6.2-14.4,10.5
		c-4.9,4.3-9.2,9.4-13.1,15.3C1302.8,1190.5,1300.3,1196.9,1299.1,1203.8z"/>
	<path fill="#5E6076" d="M1394.9,1177.4c17.8-16.2,35.1-28.2,51.9-36c16.8-7.8,29.7-11.8,38.8-11.8c2.5,0,4.7,1,6.9,3.1
		c2.1,2.1,3.8,4.4,5,7.1c1.2,2.7,1.8,4.7,1.8,6c0,2.1-0.8,3.7-2.5,4.7c-1.6,1-4.5,2.2-8.6,3.6c0.8,1.9,1.9,4.3,3.2,7.2
		c1.3,2.9,2.3,5.3,3,7.1c0.7,1.8,1.1,3.4,1.1,4.8c0,2.8-2.8,8.1-8.5,15.7c-5.7,7.7-9.7,13.3-12,17c-2.3,3.6-3.4,8.1-3.4,13.4
		c0,8.7,4,13,12,13c8.2,0,21-7.7,38.5-23v10.7c-29.6,32.9-50.9,49.4-63.6,49.4c-4.6,0-7.8-1.5-9.8-4.5s-2.9-7.4-2.9-13.3
		c0-9.3,3.3-22.7,10-40.3c-17.1,19-29.8,32.5-38.1,40.5c-8.3,8-15.2,12-20.6,12c-2.6,0-5.8-2.2-9.7-6.7c-3.9-4.5-7.3-10.2-10.3-17.3
		c-3-7.1-4.5-14.4-4.5-22.1c0-5.5,0.5-10.1,1.6-13.8s3.1-7.5,6.2-11.3C1383.4,1188.9,1388.3,1183.8,1394.9,1177.4z M1479.1,1158.1
		c-30.5,13.9-52.2,25.8-65.1,35.5c-13,9.7-19.4,19.7-19.4,30.1c0,3.8,0.6,6.8,1.9,9.2c1.3,2.4,3,3.6,5.3,3.6c1.3,0,3.6-0.8,6.9-2.5
		c12.3-7.3,23.6-16.7,33.8-28.4C1452.6,1194,1464.8,1178.1,1479.1,1158.1z"/>
	<path fill="#5E6076" d="M1518.7,1222.4V1211c6.3-7.5,11.1-13.9,14.4-19.2c-3.8-1.3-6.5-2.9-8.2-4.7c-1.7-1.9-2.5-4.7-2.5-8.4
		c0-4.2,1.8-9.5,5.3-16c3.5-6.4,7.8-12.5,13-18.1c5.2-5.6,9.8-9.3,14.1-10.9c1.6-0.8,3.2-1.2,4.7-1.2c2.3,0,3.5,1.1,3.5,3.3
		c0,2-1.8,6-5.4,12.1c24.1-3.7,39.4-5.6,45.7-5.6c2.5,0,4.2,0.2,5.1,0.7c2,1.1,3.6,3.5,4.9,7.4c1.3,3.9,1.9,7.7,1.9,11.6
		c0,2.5-1.1,5.1-3.3,8c-2.2,2.9-5.9,7.1-11.2,12.6c-6.2,6.7-11.4,13.9-15.6,21.8c-4.2,7.9-6.3,13.8-6.3,17.8c0,5.5,3.4,8.3,10.2,8.3
		c7.1,0,19.6-7.3,37.3-21.8v11.8c-9.7,10.2-17.8,18.2-24.1,24.1c-6.3,5.9-12.2,10.5-17.6,14c-5.4,3.5-10.2,5.2-14.4,5.2
		c-4.9,0-9-2.3-12.3-6.8c-3.3-4.5-4.9-11-4.9-19.6c0-5,1.3-10.8,3.9-17.2c2.6-6.4,6.4-13.4,11.3-21c5-7.6,10.6-15.1,16.8-22.6
		c-3.3,0.7-7,1.4-11.1,2.2c-4.1,0.8-8.4,1.6-13,2.4c-4.6,0.8-8.1,1.5-10.5,1.9C1543.1,1197.4,1532.5,1210.6,1518.7,1222.4z"/>
</g>
</svg>
