<?xml version="1.0" encoding="utf-8"?>
<!-- Generator: Adobe Illustrator 21.1.0, SVG Export Plug-In . SVG Version: 6.00 Build 0)  -->
<svg version="1.1" id="Layer_1" xmlns:ev="http://www.w3.org/2001/xml-events"
	 xmlns="http://www.w3.org/2000/svg" xmlns:xlink="http://www.w3.org/1999/xlink" x="0px" y="0px" viewBox="0 0 255 236.4"
	 enable-background="new 0 0 255 236.4" xml:space="preserve">
<polygon fill="#E2761B" stroke="#E2761B" stroke-linecap="round" stroke-linejoin="round" points="242.3,0 142.8,73.9 161.2,30.3 
	"/>
<g>
	<polygon fill="#E4761B" stroke="#E4761B" stroke-linecap="round" stroke-linejoin="round" points="12.6,0 111.3,74.6 93.8,30.3 	
		"/>
	<polygon fill="#E4761B" stroke="#E4761B" stroke-linecap="round" stroke-linejoin="round" points="206.5,171.3 180,211.9 
		236.7,227.5 253,172.2 	"/>
	<polygon fill="#E4761B" stroke="#E4761B" stroke-linecap="round" stroke-linejoin="round" points="2.1,172.2 18.3,227.5 75,211.9 
		48.5,171.3 	"/>
	<polygon fill="#E4761B" stroke="#E4761B" stroke-linecap="round" stroke-linejoin="round" points="71.8,102.7 56,126.6 
		112.3,129.1 110.3,68.6 	"/>
	<polygon fill="#E4761B" stroke="#E4761B" stroke-linecap="round" stroke-linejoin="round" points="183.1,102.7 144.1,67.9 
		142.8,129.1 199,126.6 	"/>
	<polygon fill="#E4761B" stroke="#E4761B" stroke-linecap="round" stroke-linejoin="round" points="75,211.9 108.8,195.4 
		79.6,172.6 	"/>
	<polygon fill="#E4761B" stroke="#E4761B" stroke-linecap="round" stroke-linejoin="round" points="146.1,195.4 180,211.9 
		175.3,172.6 	"/>
</g>
<g>
	<polygon fill="#D7C1B3" stroke="#D7C1B3" stroke-linecap="round" stroke-linejoin="round" points="180,211.9 146.1,195.4 
		148.8,217.5 148.5,226.8 	"/>
	<polygon fill="#D7C1B3" stroke="#D7C1B3" stroke-linecap="round" stroke-linejoin="round" points="75,211.9 106.5,226.8 
		106.3,217.5 108.8,195.4 	"/>
</g>
<polygon fill="#233447" stroke="#233447" stroke-linecap="round" stroke-linejoin="round" points="107,158 78.8,149.7 98.7,140.6 
	"/>
<polygon fill="#233447" stroke="#233447" stroke-linecap="round" stroke-linejoin="round" points="147.9,158 156.2,140.6 
	176.2,149.7 "/>
<g>
	<polygon fill="#CD6116" stroke="#CD6116" stroke-linecap="round" stroke-linejoin="round" points="75,211.9 79.8,171.3 48.5,172.2 
			"/>
	<polygon fill="#CD6116" stroke="#CD6116" stroke-linecap="round" stroke-linejoin="round" points="175.2,171.3 180,211.9 
		206.5,172.2 	"/>
	<polygon fill="#CD6116" stroke="#CD6116" stroke-linecap="round" stroke-linejoin="round" points="199,126.6 142.8,129.1 148,158 
		156.3,140.6 176.3,149.7 	"/>
	<polygon fill="#CD6116" stroke="#CD6116" stroke-linecap="round" stroke-linejoin="round" points="78.8,149.7 98.8,140.6 107,158 
		112.3,129.1 56,126.6 	"/>
</g>
<g>
	<polygon fill="#E4751F" stroke="#E4751F" stroke-linecap="round" stroke-linejoin="round" points="56,126.6 79.6,172.6 78.8,149.7 
			"/>
	<polygon fill="#E4751F" stroke="#E4751F" stroke-linecap="round" stroke-linejoin="round" points="176.3,149.7 175.3,172.6 
		199,126.6 	"/>
	<polygon fill="#E4751F" stroke="#E4751F" stroke-linecap="round" stroke-linejoin="round" points="112.3,129.1 107,158 
		113.6,192.1 115.1,147.2 	"/>
	<polygon fill="#E4751F" stroke="#E4751F" stroke-linecap="round" stroke-linejoin="round" points="142.8,129.1 140.1,147.1 
		141.3,192.1 148,158 	"/>
</g>
<polygon fill="#F6851B" stroke="#F6851B" stroke-linecap="round" stroke-linejoin="round" points="148,158 141.3,192.1 146.1,195.4 
	175.3,172.6 176.3,149.7 "/>
<polygon fill="#F6851B" stroke="#F6851B" stroke-linecap="round" stroke-linejoin="round" points="78.8,149.7 79.6,172.6 
	108.8,195.4 113.6,192.1 107,158 "/>
<polygon fill="#C0AD9E" stroke="#C0AD9E" stroke-linecap="round" stroke-linejoin="round" points="148.5,226.8 148.8,217.5 
	146.3,215.3 108.6,215.3 106.3,217.5 106.5,226.8 75,211.9 86,220.9 108.3,236.4 146.6,236.4 169,220.9 180,211.9 "/>
<polygon fill="#161616" stroke="#161616" stroke-linecap="round" stroke-linejoin="round" points="146.1,195.4 141.3,192.1 
	113.6,192.1 108.8,195.4 106.3,217.5 108.6,215.3 146.3,215.3 148.8,217.5 "/>
<g>
	<polygon fill="#763D16" stroke="#763D16" stroke-linecap="round" stroke-linejoin="round" points="246.5,78.7 255,37.9 242.3,0 
		146.1,71.4 183.1,102.7 235.4,118 247,104.5 242,100.9 250,93.6 243.8,88.8 251.8,82.7 	"/>
	<polygon fill="#763D16" stroke="#763D16" stroke-linecap="round" stroke-linejoin="round" points="0,37.9 8.5,78.7 3.1,82.7 
		11.1,88.8 5,93.6 13,100.9 8,104.5 19.5,118 71.8,102.7 108.8,71.4 12.6,0 	"/>
</g>
<polygon fill="#F6851B" stroke="#F6851B" stroke-linecap="round" stroke-linejoin="round" points="235.4,118 183.1,102.7 199,126.6 
	175.3,172.6 206.5,172.2 253,172.2 "/>
<polygon fill="#F6851B" stroke="#F6851B" stroke-linecap="round" stroke-linejoin="round" points="71.8,102.7 19.5,118 2.1,172.2 
	48.5,172.2 79.6,172.6 56,126.6 "/>
<polygon fill="#F6851B" stroke="#F6851B" stroke-linecap="round" stroke-linejoin="round" points="142.8,129.1 146.1,71.4 
	161.3,30.3 93.8,30.3 108.8,71.4 112.3,129.1 113.5,147.3 113.6,192.1 141.3,192.1 141.5,147.3 "/>
</svg>
