<?xml version="1.0" standalone="no"?>
<!DOCTYPE svg PUBLIC "-//W3C//DTD SVG 1.1//EN" "http://www.w3.org/Graphics/SVG/1.1/DTD/svg11.dtd" >
<svg>
<metadata>
Created by FontForge 20130207 at Tue Dec 13 02:24:03 2016
 By Евгений Данилов
Copyright (c) 2008-2012 by Jos Buivenga/exljbris. All rights reserved.
</metadata>
<defs>
<font id="MuseoCyrl-500" horiz-adv-x="1181" >
  <font-face 
    font-family="MuseoCyrl-500"
    font-weight="400"
    font-stretch="normal"
    units-per-em="2048"
    panose-1="2 0 0 0 0 0 0 0 0 0"
    ascent="1536"
    descent="-512"
    x-height="1036"
    cap-height="1446"
    bbox="-221 -485 2228 1827"
    underline-thickness="102"
    underline-position="-102"
    unicode-range="U+0020-FB04"
  />
<missing-glyph horiz-adv-x="1044" 
d="M174 102h696l-348 523zM113 195l348 522l-348 522v-1044zM584 717l348 -522v1044zM522 809l348 522h-696zM10 0v1434h1024v-1434h-1024z" />
    <glyph glyph-name="f_f" unicode="ff" horiz-adv-x="1292" 
d="M174 0v877h-129v159h129v35q0 98 29 171t70 113q106 101 292 101l76 -6v-170q-20 4 -72 4t-103 -28q-95 -54 -93 -191v-29h446v35q0 98 29 171q51 127 169 176q89 38 193 38l76 -6v-170q-23 4 -74 4t-101 -28q-95 -54 -93 -191v-29h244v-159h-244v-877h-199v877h-446
v-877h-199z" />
    <glyph glyph-name="fi" unicode="fi" horiz-adv-x="1198" 
d="M831 1239v207h181v-207h-181zM174 0v877h-129v159h129v35q0 98 29 171t70 113q106 101 292 101l76 -6v-170q-23 4 -75 4t-101 -28q-94 -55 -92 -191v-29h522q71 0 101 -30t30 -101v-690q0 -45 45 -45h84v-170h-194q-70 0 -102 31t-32 100v700q0 45 -45 46h-409v-877h-199
z" />
    <glyph glyph-name="fl" unicode="fl" horiz-adv-x="1187" 
d="M174 0v877h-129v159h129v35q0 96 29 169t69 111q41 39 115 67t178 28h316q69 0 101 -31t32 -100v-1100q0 -45 45 -45h84v-170h-197q-70 0 -100 31t-31 100v1100q0 45 -45 45h-180q-217 0 -217 -209v-31h245v-159h-245v-877h-199z" />
    <glyph glyph-name="f_f_i" unicode="ffi" horiz-adv-x="1841" 
d="M1477 1239v207h178v-207h-178zM174 0v877h-129v159h129v35q0 98 29 171t70 113q106 101 292 101l76 -6v-170q-23 4 -75 4t-101 -28q-94 -55 -92 -191v-29h446v35q0 98 29 171q51 127 169 176q89 38 193 38l76 -6v-170q-23 4 -75 4t-101 -28q-94 -55 -92 -191v-29h522
q70 0 100 -30t31 -101v-690q0 -45 45 -45h84v-170h-196q-70 0 -101 31t-30 100v700q0 45 -46 46h-409v-877h-199v877h-446v-877h-199z" />
    <glyph glyph-name="f_f_l" unicode="ffl" horiz-adv-x="1830" 
d="M174 0v877h-129v159h129v39q0 96 29 169t68 112q103 100 290 100l80 -6v-170q-25 4 -76 4t-100 -28q-94 -55 -92 -189v-31h446v35q0 96 29 169t70 111q102 95 290 95h318q70 0 100 -31t31 -100v-1100q0 -45 45 -45h84v-170h-195q-71 0 -101 31t-30 100v1100q0 45 -45 45
h-180q-217 0 -217 -209v-31h244v-159h-244v-877h-199v877h-446v-877h-199z" />
    <glyph glyph-name="f_j" unicode="fj" horiz-adv-x="1200" 
d="M877 1239v207h178v-207h-178zM174 0v877h-129v159h129v35q0 98 29 171t70 113q106 101 292 101l76 -6v-170q-23 4 -75 4t-101 -28q-94 -55 -92 -191v-29h565q70 0 100 -30t31 -101v-940q0 -98 -30 -172q-29 -74 -71 -114q-105 -101 -296 -101l-70 4v170q18 -2 69 -2
t102 28q99 54 97 199v854q0 45 -45 46h-452v-877h-199z" />
    <glyph glyph-name=".notdef" horiz-adv-x="1044" 
d="M174 102h696l-348 523zM113 195l348 522l-348 522v-1044zM584 717l348 -522v1044zM522 809l348 522h-696zM10 0v1434h1024v-1434h-1024z" />
    <glyph glyph-name=".null" horiz-adv-x="0" 
 />
    <glyph glyph-name="nonmarkingreturn" horiz-adv-x="681" 
 />
    <glyph glyph-name="space" unicode=" " horiz-adv-x="550" 
 />
    <glyph glyph-name="exclam" unicode="!" horiz-adv-x="548" 
d="M174 0v199h203v-199h-203zM186 397l-14 1049h205l-12 -1049h-179z" />
    <glyph glyph-name="quotedbl" unicode="&#x22;" horiz-adv-x="706" 
d="M131 1085v385h156v-385h-156zM418 1085v385h157v-385h-157z" />
    <glyph glyph-name="numbersign" unicode="#" horiz-adv-x="1447" 
d="M535 543h317l61 344h-317zM274 0l70 391h-268l24 152h269l61 344h-266l24 149h267l71 410h166l-71 -410h317l72 410h168l-72 -410h266l-24 -149h-269l-61 -344h266l-24 -152h-267l-67 -391h-168l69 391h-317l-70 -391h-166z" />
    <glyph glyph-name="dollar" unicode="$" 
d="M852 372q0 90 -72 150t-175 106t-205 99t-175 146q-71 93 -71 229t104 238q104 101 272 124v193h150v-191q82 -10 154 -36t128 -84q56 -59 56 -142v-119h-189v68q0 55 -62 93t-164 38q-101 0 -171 -53t-70 -123q0 -123 140 -200q61 -34 135 -66q181 -77 285 -157
q61 -48 100 -126t39 -176q-1 -153 -105 -267t-276 -134v-191h-150v189q-82 10 -156 42t-142 90q-69 58 -109 117l-14 27l145 121q11 -22 51 -68q130 -150 294 -148q117 1 185 61t68 150z" />
    <glyph glyph-name="percent" unicode="%" horiz-adv-x="1531" 
d="M987 279q0 -63 43 -107q42 -44 106 -45q64 0 108 43q44 44 44 108t-44 109t-107 45t-107 -45t-43 -108zM827 278q1 126 91 215t219 89t220 -89t91 -214t-91 -214t-220 -89t-219 88t-91 214zM395 1016q63 0 108 44q44 44 44 107t-44 109q-43 46 -107 45q-64 0 -108 -45
t-44 -110q0 -66 44 -108t107 -42zM117 0l1106 1446h192l-1106 -1446h-192zM393 864q-129 0 -219 88t-90 214t91 215t219 89t220 -89t92 -214t-92 -214t-221 -89z" />
    <glyph glyph-name="ampersand" unicode="&#x26;" horiz-adv-x="1306" 
d="M625 674q-158 0 -243 -68t-85 -182t80 -188t216 -74t213 81t77 246v185h-258zM88 414q0 119 68 223t184 137v4q-22 6 -61 36q-127 100 -127 276t119 278q120 102 315 102q63 0 159 -16l25 -6l-51 -162q-61 14 -111 14q-112 0 -182 -63t-70 -152t50 -155q60 -82 217 -80
h260v186h198v-186h185v-176h-185v-193q0 -241 -130 -373t-355 -132t-367 124q-141 126 -141 314z" />
    <glyph glyph-name="quotesingle" unicode="'" horiz-adv-x="419" 
d="M131 1085v385h158v-385h-158z" />
    <glyph glyph-name="parenleft" unicode="(" horiz-adv-x="555" 
d="M84 664q0 486 231 841h174q-225 -377 -225 -833t236 -867h-174q-242 373 -242 859z" />
    <glyph glyph-name="parenright" unicode=")" horiz-adv-x="555" 
d="M291 672q0 456 -228 833h177q231 -355 231 -839t-242 -861h-174q236 411 236 867z" />
    <glyph glyph-name="asterisk" unicode="*" horiz-adv-x="989" 
d="M334 674l-148 106l183 226v4l-281 75l55 172l273 -102l-17 291h187l-17 -291l275 102l57 -172l-283 -75v-4l183 -226l-148 -106l-157 241h-4z" />
    <glyph glyph-name="plus" unicode="+" 
d="M49 504v160h459v503h168v-503h457v-160h-457v-504h-168v504h-459z" />
    <glyph glyph-name="comma" unicode="," horiz-adv-x="509" 
d="M49 -207l127 422h199l-172 -422h-154z" />
    <glyph glyph-name="hyphen" unicode="-" horiz-adv-x="839" 
d="M121 496v176h598v-176h-598z" />
    <glyph glyph-name="period" unicode="." horiz-adv-x="444" 
d="M121 0v211h203v-211h-203z" />
    <glyph glyph-name="slash" unicode="/" horiz-adv-x="845" 
d="M76 -86l520 1610h176l-520 -1610h-176z" />
    <glyph glyph-name="zero" unicode="0" horiz-adv-x="1226" 
d="M613 162q305 0 305 561t-304 561t-305 -561q0 -561 304 -561zM613 -25q-511 -1 -511 747t511 748t511 -748t-511 -747z" />
    <glyph glyph-name="one" unicode="1" horiz-adv-x="952" 
d="M90 0v176h318v934l2 88h-4q-16 -31 -68 -82l-137 -133l-121 127l344 336h188v-1270h314v-176h-836z" />
    <glyph glyph-name="two" unicode="2" horiz-adv-x="1167" 
d="M76 174q0 100 41 188q41 86 118 156t221 152t209 128q146 103 146 255q0 100 -70 165q-70 64 -174 64t-169 -41t-64 -96v-64h-189v123q0 88 72 152q132 117 340 115q207 -1 335 -117t128 -299q0 -137 -76 -243t-184 -174q-108 -67 -214 -125q-108 -58 -184 -133t-75 -165
q0 -39 51 -39h514q45 0 45 45v92h188v-182q-1 -71 -31 -101t-100 -30h-741q-82 0 -110 37q-27 37 -27 137z" />
    <glyph glyph-name="three" unicode="3" horiz-adv-x="1138" 
d="M558 168q110 0 194 75t84 191t-92 186q-92 71 -222 70h-100l-45 109l301 379q34 50 86 94v4q-43 -6 -123 -6h-281q-45 0 -45 -45v-92h-186v182q0 71 28 101t95 30h762v-129l-379 -459q162 -18 286 -124q123 -106 123 -298q0 -190 -139 -325t-358 -136q-170 0 -287 65
t-170 118l-20 20l110 154q16 -18 47 -46t126 -73t205 -45z" />
    <glyph glyph-name="four" unicode="4" horiz-adv-x="1200" 
d="M383 559h338v498l8 147h-4q-35 -68 -72 -121l-319 -434l-74 -92v-4q59 6 123 6zM37 383v131l653 932h234v-887h225v-176h-225v-383h-205v383h-682z" />
    <glyph glyph-name="five" unicode="5" horiz-adv-x="1122" 
d="M836 461q0 127 -100 209t-242 82q-72 0 -142 -18t-102 -38l-33 -18l-84 39l57 598q6 71 35 101t97 30h505q68 0 99 -31t30 -100v-182h-186v92q0 45 -45 45h-303q-39 0 -45 -45l-29 -264l-10 -76h4q80 43 186 43q232 0 374 -136t142 -336t-145 -340t-375 -141
q-169 0 -281 67t-149 116l-18 20l112 150q14 -21 51 -53q122 -107 271 -107t238 83q88 83 88 210z" />
    <glyph glyph-name="six" unicode="6" horiz-adv-x="1169" 
d="M305 555q0 -145 96 -269q95 -124 223 -124t200 84t71 215q0 131 -80 214t-208 83t-215 -62t-87 -141zM1096 453q0 -207 -131 -343t-349 -135q-218 -1 -372 183t-154 486t157 552q77 123 206 199t288 75q76 0 147 -14t103 -31l31 -14l-66 -174q-90 47 -204 47
q-186 0 -297 -144t-138 -352h5q41 62 131 102t188 40q201 0 328 -135t127 -342z" />
    <glyph glyph-name="seven" unicode="7" horiz-adv-x="1081" 
d="M735 1270h-436q-45 0 -45 -45v-92h-186v182q0 71 28 101t94 30h881v-139l-702 -1307h-226l613 1139l84 133v4q-33 -6 -105 -6z" />
    <glyph glyph-name="eight" unicode="8" horiz-adv-x="1185" 
d="M295 416q0 -110 87 -182t208 -72t208 70t87 164q-1 96 -61 147t-186 102t-144 51q-49 0 -124 -85t-75 -195zM702 817q38 0 94 80t56 174q0 93 -70 153t-184 60t-180 -58q-68 -58 -68 -146t58 -134q58 -47 180 -94q76 -35 114 -35zM88 414q0 165 156 308q35 32 59 48
l25 14v4q-22 11 -58 43q-34 33 -58 63t-43 82t-19 107q0 160 120 274q121 113 328 113t331 -110t124 -281q0 -94 -44 -180t-87 -125l-45 -39v-4q217 -125 217 -332q0 -174 -142 -299t-356 -125q-212 0 -360 122t-148 317z" />
    <glyph glyph-name="nine" unicode="9" horiz-adv-x="1169" 
d="M562 688q128 0 215 62t87 141q0 145 -95 269t-223 124t-200 -84t-72 -214t80 -214t208 -84zM420 162q184 0 297 145t137 352h-4q-43 -65 -132 -103t-188 -38q-204 0 -330 134t-126 341t131 342t349 135t372 -183t154 -484t-157 -553q-77 -123 -205 -199t-290 -76
q-76 1 -146 15t-102 30l-33 15l66 176q92 -49 207 -49z" />
    <glyph glyph-name="colon" unicode=":" horiz-adv-x="444" 
d="M121 0v211h203v-211h-203zM121 825v211h203v-211h-203z" />
    <glyph glyph-name="semicolon" unicode=";" horiz-adv-x="548" 
d="M94 -207l105 422h198l-149 -422h-154zM203 825v211h203v-211h-203z" />
    <glyph glyph-name="less" unicode="&#x3c;" 
d="M88 516v135l954 426v-182l-731 -309v-4l731 -310v-182z" />
    <glyph glyph-name="equal" unicode="=" 
d="M102 309v160h977v-160h-977zM102 696v160h977v-160h-977z" />
    <glyph glyph-name="greater" unicode="&#x3e;" 
d="M137 90v182l731 310v4l-731 309v182l955 -426v-135z" />
    <glyph glyph-name="question" unicode="?" horiz-adv-x="948" 
d="M299 0v199h205v-199h-205zM305 397v97q0 158 123 276q51 49 102 94q123 109 123 221q0 86 -67 145q-68 58 -168 58q-58 0 -116 -22t-89 -41l-29 -23l-108 141q14 14 43 36t122 59t191 37q180 -1 304 -105t124 -274t-127 -290q-53 -50 -107 -96q-128 -109 -128 -229v-84
h-193z" />
    <glyph glyph-name="at" unicode="@" horiz-adv-x="1601" 
d="M985 739q-106 -1 -174 -71t-68 -171t68 -171t170 -70h207v483h-203zM98 494q0 317 217 537t531 220q276 1 404 -117t128 -298v-580h148v-150h-559q-186 0 -305 114t-119 273q-1 159 117 271t307 113h221q-4 92 -91 151t-241 59q-236 0 -398 -175q-162 -174 -161 -420
q0 -246 163 -416t419 -170v-162q-340 0 -561 216q-220 217 -220 534z" />
    <glyph glyph-name="A" unicode="A" horiz-adv-x="1361" 
d="M465 588h432l-158 440l-57 203h-4q-31 -127 -55 -203zM25 0v176h28q53 0 68 45l452 1225h215l453 -1225q14 -45 68 -45h28v-176h-112q-76 0 -110 24t-60 95l-109 297h-530l-109 -297q-27 -71 -61 -95t-109 -24h-112z" />
    <glyph glyph-name="B" unicode="B" horiz-adv-x="1247" 
d="M406 221q0 -45 45 -45h260q113 0 179 68t64 178q0 110 -68 180q-68 68 -177 68h-303v-449zM406 838h282q96 0 154 61q57 61 57 157t-57 155q-57 58 -158 59h-278v-432zM201 131v1139h-133v176h620q186 0 303 -98t117 -271q0 -113 -51 -193t-129 -118v-4q111 -33 174 -129
t63 -221q0 -196 -132 -304t-333 -108h-366q-70 0 -102 30t-31 101z" />
    <glyph glyph-name="C" unicode="C" horiz-adv-x="1429" 
d="M805 -25q-319 0 -526 218q-207 219 -207 537t208 530t517 210q169 0 343 -68q87 -34 143 -98t56 -147v-141h-188v82q0 84 -113 133t-237 49q-221 0 -369 -152t-147 -392t151 -404t371 -164q165 0 277 64q113 64 161 112l19 21l110 -148q-26 -33 -88 -79q-60 -46 -122 -78
t-159 -58t-200 -27z" />
    <glyph glyph-name="D" unicode="D" horiz-adv-x="1462" 
d="M406 221q0 -45 45 -45h188q248 0 391 143q144 143 144 405t-144 403q-144 142 -391 143h-233v-1049zM201 131v1139h-133v176h585q334 0 534 -192q199 -192 199 -530q0 -340 -200 -532t-533 -192h-319q-70 0 -102 30t-31 101z" />
    <glyph glyph-name="E" unicode="E" horiz-adv-x="1169" 
d="M201 131v1139h-133v176h852q70 0 100 -31t31 -100v-182h-189v92q0 45 -45 45h-411v-453h507v-176h-507v-420q0 -45 45 -45h423q45 0 46 45v92h186v-182q0 -71 -31 -101t-100 -30h-641q-70 0 -102 30t-31 101z" />
    <glyph glyph-name="F" unicode="F" horiz-adv-x="1046" 
d="M201 0v1270h-133v176h798q70 0 101 -31t30 -100v-182h-186v92q0 45 -45 45h-360v-475h495v-177h-495v-618h-205z" />
    <glyph glyph-name="G" unicode="G" horiz-adv-x="1490" 
d="M72 720q0 322 209 536t520 214q155 0 283 -45t182 -90l51 -43l-117 -149q-18 16 -50 39q-32 24 -135 62t-210 38q-219 0 -370 -157t-151 -401t150 -400t375 -156q150 0 251 59t144 103l17 18v146q0 45 -45 45h-89v176h189q70 0 102 -31t31 -100v-584h-180v90l2 62h-4
q-71 -70 -143 -104q-152 -71 -308 -73q-297 0 -501 211q-203 212 -203 534z" />
    <glyph glyph-name="H" unicode="H" horiz-adv-x="1550" 
d="M203 0v1225q0 45 -45 45h-88v176h206q70 0 101 -31t31 -100v-506h735v506q0 71 32 101t101 30h205v-176h-88q-45 0 -45 -45v-1225h-205v635h-735v-635h-205z" />
    <glyph glyph-name="I" unicode="I" horiz-adv-x="651" 
d="M86 0v176h141v1094h-141v176h477v-176h-139v-1094h139v-176h-477z" />
    <glyph glyph-name="J" unicode="J" horiz-adv-x="1046" 
d="M33 416v71h205v-55q0 -139 66 -202q67 -62 162 -62t161 62t65 194v801q0 45 -45 45h-354v176h471q70 0 102 -31t31 -100v-899q0 -219 -127 -330t-305 -111t-305 112t-127 329z" />
    <glyph glyph-name="K" unicode="K" horiz-adv-x="1253" 
d="M203 0v1225q0 45 -45 45h-88v176h206q70 0 101 -31t31 -100v-477h137q90 0 119 49l321 559h229l-350 -600q-32 -58 -69 -88l-13 -6v-4q41 -10 82 -91l217 -434q23 -47 103 -47h39v-176h-113q-88 0 -128 20t-73 89l-250 501q-29 53 -129 54h-122v-664h-205z" />
    <glyph glyph-name="L" unicode="L" horiz-adv-x="1107" 
d="M201 131v1094q0 45 -45 45h-88v176h206q70 0 101 -31t31 -100v-1094q0 -45 45 -45h401q45 0 45 45v92h186v-182q-1 -71 -31 -101t-100 -30h-618q-70 0 -102 30t-31 101z" />
    <glyph glyph-name="M" unicode="M" horiz-adv-x="1765" 
d="M47 0v176h68q41 0 45 45l98 1225h211l340 -764l72 -184h4q37 104 71 184l340 764h211l99 -1225q4 -45 45 -45h69v-176h-182q-70 0 -98 30t-35 101l-57 764l-5 213h-4q-43 -135 -77 -213l-293 -635h-172l-291 635q-20 41 -68 178l-10 37h-4q2 -129 -4 -215l-60 -764
q-4 -71 -34 -101t-97 -30h-182z" />
    <glyph glyph-name="N" unicode="N" horiz-adv-x="1550" 
d="M70 0v176h88q45 0 45 45v1225h186l643 -916l121 -196h4q-14 117 -14 196v785q0 71 32 101t101 30h205v-176h-88q-45 0 -45 -45v-1225h-185l-645 915l-119 197h-4q12 -117 13 -197v-784q0 -71 -31 -101t-101 -30h-206z" />
    <glyph glyph-name="O" unicode="O" horiz-adv-x="1624" 
d="M811 1280q-221 0 -375 -158t-153 -392q-1 -234 153 -398t375 -164t376 164t155 398t-155 392t-376 158zM70 729q0 315 214 528t527 213t528 -213t215 -528t-215 -534t-528 -219t-527 218q-214 220 -214 535z" />
    <glyph glyph-name="P" unicode="P" horiz-adv-x="1198" 
d="M406 711h266q128 -1 202 75t74 206t-72 204q-73 74 -202 74h-268v-559zM201 0v1270h-133v176h637q201 0 327 -124t127 -329q0 -205 -127 -331t-327 -127h-299v-535h-205z" />
    <glyph glyph-name="Q" unicode="Q" horiz-adv-x="1624" 
d="M810 1278q-224 0 -376 -157t-151 -393t153 -398t373 -162q84 0 161 25t111 49l33 26l-160 156l123 133l158 -162q106 145 106 336q0 233 -153 390q-154 157 -378 157zM809 -25q-313 -1 -526 219t-213 535t213 528t527 213t529 -213t215 -526q0 -268 -170 -475l166 -162
l-123 -131l-165 166q-190 -154 -453 -154z" />
    <glyph glyph-name="R" unicode="R" horiz-adv-x="1273" 
d="M406 752h268q116 0 182 70t66 191t-66 189t-180 68h-270v-518zM201 0v1270h-133v176h632q193 0 313 -115t120 -294t-84 -278t-179 -120v-4q37 -18 62 -66l174 -346q25 -47 104 -47h27v-176h-100q-90 0 -129 20t-74 89l-197 389q-25 49 -52 63q-28 14 -89 14h-190v-575
h-205z" />
    <glyph glyph-name="S" unicode="S" horiz-adv-x="1075" 
d="M543 162q102 0 174 59q71 59 71 149t-71 150q-72 60 -174 106q-103 46 -205 98t-174 143t-72 216q0 166 130 277q130 110 336 110t334 -110q73 -63 73 -156v-119h-189v68q0 55 -66 93t-168 38t-172 -55t-71 -131q0 -76 52 -128t129 -85t168 -77t168 -90t129 -132t52 -199
q0 -172 -125 -292t-333 -120q-212 0 -399 139q-42 32 -62 54l-19 22l119 146q174 -174 365 -174z" />
    <glyph glyph-name="T" unicode="T" horiz-adv-x="1294" 
d="M545 0v1270h-289q-45 0 -45 -45v-92h-184v190q1 71 27 97t96 26h995q71 0 97 -27t26 -96v-190h-183v92q0 45 -45 45h-290v-1270h-205z" />
    <glyph glyph-name="U" unicode="U" horiz-adv-x="1474" 
d="M186 506v719q0 45 -45 45h-88v176h205q70 0 102 -31t31 -100v-801q0 -162 93 -254t252 -92t253 93t94 255v799q0 71 31 101t100 30h207v-176h-88q-45 0 -45 -45v-719q0 -238 -152 -384t-398 -146q-248 0 -400 146t-152 384z" />
    <glyph glyph-name="V" unicode="V" horiz-adv-x="1366" 
d="M51 1270h-28v176h116q78 0 111 -24t57 -95l318 -891l55 -198h4q29 121 55 198l318 891q27 71 59 95t111 24h116v-176h-28q-51 0 -70 -45l-454 -1225h-218l-452 1225q-18 45 -70 45z" />
    <glyph glyph-name="W" unicode="W" horiz-adv-x="1980" 
d="M63 1270h-30v176h119q80 0 120 -25t56 -94l225 -930l27 -153h4q14 74 34 153l293 1045h183l270 -1045l31 -153h4q10 76 28 153l226 930q16 71 55 95t121 24h119v-176h-31q-59 0 -72 -45l-315 -1225h-240l-246 913l-40 199h-5q-18 -104 -45 -197l-264 -915h-239l-316 1225
q-12 45 -72 45z" />
    <glyph glyph-name="X" unicode="X" horiz-adv-x="1218" 
d="M92 1270h-51v176h119q78 0 116 -22t78 -89l162 -274l92 -170h4q41 90 88 170l164 274q39 67 78 89t115 22h121v-176h-54q-63 0 -94 -51l-293 -474l457 -745h-231l-265 440l-90 164h-4q-43 -86 -88 -166l-262 -438h-229l454 745l-291 474q-20 33 -40 42t-56 9z" />
    <glyph glyph-name="Y" unicode="Y" horiz-adv-x="1241" 
d="M518 0v631l-366 588q-29 51 -89 51h-40v176h94q77 0 115 -20t79 -91l219 -364l88 -162h5q41 82 88 162l217 364q41 70 80 90t114 21h97v-176h-41q-59 0 -91 -51l-364 -588v-631h-205z" />
    <glyph glyph-name="Z" unicode="Z" horiz-adv-x="1228" 
d="M66 0v135l712 1004q60 84 94 118l15 15v4q-39 -6 -109 -6h-465q-45 0 -45 -45v-92h-186v182q0 71 31 101t100 30h926v-133l-713 -1006q-50 -70 -94 -114l-15 -17v-4q39 4 109 4h510q45 0 45 45v92h186v-182q-1 -71 -31 -101t-100 -30h-970z" />
    <glyph glyph-name="bracketleft" unicode="[" horiz-adv-x="577" 
d="M160 -63v1437q0 70 30 101q31 31 101 30h209v-149h-121q-45 0 -45 -45v-1309q0 -45 45 -45h121v-152h-209q-70 0 -101 31q-30 31 -30 101z" />
    <glyph glyph-name="backslash" unicode="\" horiz-adv-x="845" 
d="M594 -86l-520 1610h176l520 -1610h-176z" />
    <glyph glyph-name="bracketright" unicode="]" horiz-adv-x="577" 
d="M80 -43h119q45 0 45 45v1309q0 45 -45 45h-119v149h207q69 -1 101 -31t32 -100v-1437q0 -70 -32 -101t-101 -31h-207v152z" />
    <glyph glyph-name="asciicircum" unicode="^" horiz-adv-x="1255" 
d="M141 506l410 940h129l410 -940h-181l-295 721l-292 -721h-181z" />
    <glyph glyph-name="underscore" unicode="_" horiz-adv-x="1157" 
d="M29 0h1101v-160h-1101v160z" />
    <glyph glyph-name="grave" unicode="`" horiz-adv-x="776" 
d="M365 1546l-195 260h201l149 -260h-155z" />
    <glyph glyph-name="a" unicode="a" horiz-adv-x="1083" 
d="M256 301q0 -68 51 -118t144 -50q123 1 201 103t77 227v39h-53q-420 0 -420 -201zM57 283q0 362 627 362h45v14q0 131 -54 187t-175 57q-58 0 -114 -17t-56 -63v-59h-189v104q0 146 258 186q51 7 97 7q240 -1 336 -107t96 -299v-440q0 -45 45 -45h84v-170h-189
q-127 0 -127 119l2 61h-4q2 0 -16 -35t-73 -81q-108 -89 -248 -89q-139 -1 -242 83t-103 225z" />
    <glyph glyph-name="b" unicode="b" horiz-adv-x="1193" 
d="M330 532q0 -168 77 -278t210 -109q133 -1 219 99t86 270t-81 271t-210 101t-215 -92q-86 -94 -86 -262zM137 0v1231q0 45 -45 45h-84v170h195q69 0 101 -31t32 -100v-338l-4 -86h4q4 6 11 18t36 41q108 108 285 111q208 0 332 -150q124 -149 124 -393t-133 -394
t-340 -149q-128 0 -207 56t-108 100l-10 19h-4q4 -33 4 -78v-72h-189z" />
    <glyph glyph-name="c" unicode="c" horiz-adv-x="1085" 
d="M68 516q0 234 154 389q155 156 403 156q117 0 232 -47q60 -25 100 -72t40 -108v-107h-180v57q0 51 -62 79t-130 28q-154 1 -255 -103q-102 -104 -102 -271t106 -266t261 -99q86 0 167 36t118 70l36 37l84 -141q-17 -22 -62 -58q-153 -119 -357 -121q-245 -1 -399 153
t-154 388z" />
    <glyph glyph-name="d" unicode="d" horiz-adv-x="1230" 
d="M864 503q0 169 -76 277t-210 109q-134 -1 -220 -101t-86 -269t82 -270t211 -101t214 92q85 94 85 263zM72 519q0 245 130 393t337 149q133 0 212 -54t97 -89l10 -17h4q-2 31 -2 70v260q0 45 -45 45h-84v170h195q70 0 102 -31t31 -100v-1100q0 -45 45 -45h84v-170h-191
q-127 0 -127 111l2 53h-4q-60 -120 -206 -168q-61 -20 -134 -21q-208 -1 -332 149t-124 395z" />
    <glyph glyph-name="e" unicode="e" horiz-adv-x="1103" 
d="M281 635h555q-4 129 -75 201t-183 72t-194 -74q-83 -72 -103 -199zM68 524q0 238 147 388t365 149q218 0 336 -138t118 -348q0 -35 -6 -83h-756q8 -162 110 -253t249 -92q65 0 128 22t93 41t66 44l18 14l84 -145q-86 -71 -199 -110q-112 -38 -203 -38q-242 0 -396 155
q-154 156 -154 394z" />
    <glyph glyph-name="f" unicode="f" horiz-adv-x="647" 
d="M174 0v877h-129v159h129v35q0 98 29 171t70 113q106 101 292 101l76 -6v-170q-20 4 -49 4q-219 0 -219 -217v-31h245v-159h-245v-877h-199z" />
    <glyph glyph-name="g" unicode="g" horiz-adv-x="1216" 
d="M274 545q0 -161 81 -261t211 -100t207 84t77 273q0 348 -293 348q-133 0 -208 -91t-75 -253zM512 -254q150 0 243 71q91 71 91 218v69l2 66h-4q-96 -158 -307 -158t-338 151t-127 380t122 373t332 145q143 0 226 -55t108 -107h4q-2 16 -2 33q0 104 117 104h192v-170h-84
q-45 0 -45 -41v-782q0 -123 -44 -217q-80 -171 -284 -229q-91 -27 -194 -27q-184 0 -352 86l65 160q129 -70 279 -70z" />
    <glyph glyph-name="h" unicode="h" horiz-adv-x="1239" 
d="M137 0v1231q0 45 -45 45h-84v170h195q133 0 133 -127v-404l-4 -86h4q41 90 141 161t242 71q356 0 356 -397v-449q0 -45 45 -45h84v-170h-196q-70 0 -101 31t-30 100v487q0 125 -40 193t-156 68t-206 -72q-139 -111 -139 -322v-485h-199z" />
    <glyph glyph-name="i" unicode="i" horiz-adv-x="542" 
d="M172 131v690q0 45 -45 45h-84v170h195q70 0 102 -30t31 -101v-690q0 -45 45 -45h84v-170h-197q-71 0 -101 30t-30 101zM176 1239v207h178v-207h-178z" />
    <glyph glyph-name="j" unicode="j" horiz-adv-x="501" 
d="M172 -23v844q0 45 -45 45h-84v170h197q70 0 100 -30t31 -101v-940q0 -98 -30 -172t-72 -114q-106 -101 -296 -101l-69 4v170q18 -2 68 -2t117 37q83 44 83 190zM176 1239v207h178v-207h-178z" />
    <glyph glyph-name="k" unicode="k" horiz-adv-x="1050" 
d="M137 0v1231q0 45 -45 45h-84v170h195q73 0 103 -26t30 -93v-672h92q74 0 107 45l239 336h230l-283 -385q-35 -51 -78 -78v-4q35 -12 70 -77l153 -281q23 -41 90 -41h62v-170h-144q-72 0 -104 18t-65 78l-191 348q-23 43 -102 43h-76v-487h-199z" />
    <glyph glyph-name="l" unicode="l" horiz-adv-x="509" 
d="M137 131v1100q0 45 -45 45h-82v170h195q71 0 101 -31t30 -100v-1100q0 -45 45 -45h84v-170h-195q-70 0 -102 30t-31 101z" />
    <glyph glyph-name="m" unicode="m" horiz-adv-x="1912" 
d="M174 0v821q0 45 -45 45h-84v170h191q131 0 131 -114v-39l-2 -60h4q39 96 138 167t216 71q258 0 313 -236h4q42 98 144 167t223 69q342 0 342 -397v-449q0 -45 45 -45h84v-170h-197q-71 0 -101 31t-30 100v490q0 125 -38 193t-142 67q-104 0 -184 -78t-107 -189
q-18 -63 -18 -141v-473h-199v621q0 123 -36 191t-142 69q-106 0 -186 -79q-125 -123 -125 -329v-473h-199z" />
    <glyph glyph-name="n" unicode="n" horiz-adv-x="1275" 
d="M174 0v821q0 45 -45 45h-84v170h191q131 0 131 -114v-39l-5 -60h5q41 88 140 163t251 75q354 0 354 -397v-449q0 -45 45 -45h84v-170h-197q-70 0 -100 31t-31 100v487q0 125 -40 193q-39 68 -155 68t-205 -71t-122 -183q-18 -53 -18 -140v-485h-199z" />
    <glyph glyph-name="o" unicode="o" horiz-adv-x="1251" 
d="M268 520q0 -160 104 -266t254 -106q149 0 252 104q103 106 103 267t-103 265q-104 104 -252 104t-253 -104t-105 -264zM68 520q0 233 161 387q162 154 397 154q234 0 396 -154t162 -387t-163 -389t-396 -156t-396 156q-161 156 -161 389z" />
    <glyph glyph-name="p" unicode="p" horiz-adv-x="1230" 
d="M367 532q1 -168 79 -278t210 -109t218 101q84 100 84 269t-80 270q-81 101 -210 101t-215 -92q-86 -94 -86 -262zM174 -410v1231q0 45 -45 45h-84v170h186q127 0 127 -104l-2 -55h4q12 25 45 60q110 121 309 123q200 1 324 -149q124 -149 123 -393q0 -244 -132 -394
t-339 -149q-160 0 -271 107q-26 25 -36 41l-10 18h-4q4 -37 4 -90v-461h-199z" />
    <glyph glyph-name="q" unicode="q" horiz-adv-x="1232" 
d="M864 503q0 169 -76 277t-210 109q-134 -1 -220 -101t-86 -269t82 -270t211 -101t214 92q85 94 85 263zM72 519q0 245 130 393t337 149q137 0 219 -59t104 -99l10 -18h5q-2 23 -3 53q0 98 127 98h187v-170h-84q-45 0 -45 -45v-1231h-199v469l4 91h-4q-4 -6 -11 -18
t-36 -43q-108 -111 -285 -114q-208 -1 -332 149t-124 395z" />
    <glyph glyph-name="r" unicode="r" horiz-adv-x="770" 
d="M174 0v821q0 45 -45 45h-84v170h191q131 0 131 -121v-65l-5 -72h5q39 119 126 195t201 76l54 -5v-196q-27 6 -58 6q-98 0 -177 -64q-142 -116 -140 -366v-424h-199z" />
    <glyph glyph-name="s" unicode="s" horiz-adv-x="919" 
d="M651 264q0 57 -58 96t-140 71t-165 71t-142 107q-58 69 -58 161q0 141 109 216t253 75t254 -48t109 -153v-98h-178v51q0 41 -50 65t-123 24t-125 -33q-52 -32 -52 -88t58 -96t142 -70q84 -31 167 -67q84 -36 142 -105t58 -164q0 -137 -108 -221t-268 -83q-160 0 -265 61
q-104 61 -137 103l-17 19l101 133q11 -16 49 -48q125 -103 234 -105q108 -1 159 34t51 92z" />
    <glyph glyph-name="t" unicode="t" horiz-adv-x="671" 
d="M170 379v498h-135v159h139v285h195v-285h249v-159h-249v-476q0 -161 111 -211q50 -22 110 -22l47 4v-176q-29 -4 -74 -4t-90 6t-102 31t-100 64q-42 40 -71 114q-30 74 -30 172z" />
    <glyph glyph-name="u" unicode="u" horiz-adv-x="1263" 
d="M516 -25q-352 0 -352 398v448q0 45 -45 45h-84v170h194q70 0 101 -30t30 -97v-491q0 -123 41 -191t154 -67q154 0 246 114t92 277v485h199v-821q0 -45 45 -45h84v-170h-191q-131 0 -131 115v39l2 59h-4q-39 -90 -140 -164t-241 -74z" />
    <glyph glyph-name="v" unicode="v" horiz-adv-x="1093" 
d="M49 866h-20v170h102q71 0 103 -22t55 -82l223 -596l37 -135h4q16 78 37 135l221 596q23 61 56 83q34 22 102 21h96v-170h-21q-51 0 -65 -41l-317 -825h-230l-319 825q-14 41 -64 41z" />
    <glyph glyph-name="w" unicode="w" horiz-adv-x="1730" 
d="M59 866h-28v170h125q70 0 102 -22t53 -88l183 -617l24 -110h4q12 57 29 110l223 723h184l224 -723l26 -110h4q10 57 27 110l182 617q21 66 53 88t101 22h125v-170h-29q-49 0 -63 -41l-273 -825h-223l-215 666l-29 112h-4q-12 -59 -28 -112l-215 -666h-224l-272 825
q-16 41 -66 41z" />
    <glyph glyph-name="x" unicode="x" horiz-adv-x="1034" 
d="M106 866h-59v170h127q72 0 107 -19t75 -85l125 -201l33 -65h4q18 39 35 65l125 201q41 66 76 85t106 19h127v-170h-59q-59 0 -86 -37l-199 -297l350 -532h-225l-217 338l-33 55h-4q-14 -31 -31 -55l-217 -338h-225l350 532l-198 295q-27 39 -87 39z" />
    <glyph glyph-name="y" unicode="y" horiz-adv-x="1112" 
d="M248 -430q-68 0 -129 26t-88 52l-27 24l82 144q2 -6 20 -22t56 -34t76 -18q119 0 182 149l47 113l-354 821q-18 41 -64 41h-26v170h116q63 0 94 -22t56 -82l233 -584l37 -125h4q16 72 35 125l217 584q20 61 53 83t97 21h118v-170h-26q-47 0 -66 -41l-407 -1011
q-49 -120 -137 -182t-199 -62z" />
    <glyph glyph-name="z" unicode="z" horiz-adv-x="1054" 
d="M76 0v115l530 655l84 96v4q-31 -4 -98 -4h-285q-45 0 -45 -45v-69h-182v153q0 70 32 101t101 30h739v-114l-530 -658l-86 -94v-4q33 4 100 4h330q45 0 45 45v70h182v-154q-1 -71 -31 -101t-100 -30h-786z" />
    <glyph glyph-name="braceleft" unicode="{" horiz-adv-x="661" 
d="M225 158v196q0 146 -111 204q-14 7 -63 20v176q22 0 57 16q117 55 117 211v172q0 92 26 161q25 68 61 104q90 90 245 91l47 -2v-151h-29q-52 0 -95 -26q-79 -50 -81 -189v-211q0 -115 -58 -179q-58 -63 -108 -81v-4q104 -35 148 -153q18 -48 18 -107v-236q0 -139 71 -181
q57 -34 105 -34h29v-152q-18 -4 -51 -4t-69 5t-86 28q-50 22 -86 58t-61 106q-26 70 -26 162z" />
    <glyph glyph-name="bar" unicode="|" horiz-adv-x="489" 
d="M158 -326v1948h174v-1948h-174z" />
    <glyph glyph-name="braceright" unicode="}" horiz-adv-x="661" 
d="M57 -45h29q52 1 95 27q81 51 81 188v236q0 149 107 229q24 18 59 31v4q-21 7 -53 29q-63 43 -87 108q-25 65 -26 123v211q0 138 -64 176q-64 39 -112 39h-29v151q18 2 51 2q228 0 303 -195q26 -69 25 -161v-172q0 -150 112 -208q19 -9 62 -19v-176q-19 0 -55 -16
q-35 -16 -59 -39q-59 -55 -60 -169v-196q0 -92 -26 -162t-61 -106q-91 -91 -245 -91l-47 4v152z" />
    <glyph glyph-name="asciitilde" unicode="~" horiz-adv-x="1210" 
d="M119 418q0 174 76 260t211 86q72 0 130 -32t89 -68q85 -100 166 -101q79 -1 111 57t32 136h162q0 -346 -285 -346q-72 0 -130 30t-89 69q-82 101 -174 99q-72 0 -104 -57t-31 -133h-164z" />
    <glyph glyph-name="uni00A0" unicode="&#xa0;" horiz-adv-x="550" 
 />
    <glyph glyph-name="exclamdown" unicode="&#xa1;" horiz-adv-x="497" 
d="M145 -410l15 1049h178l14 -1049h-207zM145 838v198h205v-198h-205z" />
    <glyph glyph-name="cent" unicode="&#xa2;" 
d="M539 -78v228q-193 28 -306 188t-113 386t113 387t306 187v226h149v-226q258 -39 373 -317l-182 -70q-84 203 -258 203q-139 0 -219 -109q-78 -110 -78 -284t77 -281q78 -106 220 -106q176 0 258 203l182 -72q-53 -125 -147 -213t-226 -102v-228h-149z" />
    <glyph glyph-name="sterling" unicode="&#xa3;" 
d="M94 0v176h125v477h-90v144h90v278q0 170 126 283t319 112q92 0 177 -32t126 -66l39 -33l-117 -141q-98 88 -216 88t-184 -62t-65 -157v-270h377v-144h-377v-477h442q45 0 45 45v92h189v-182q0 -71 -31 -101t-100 -30h-875z" />
    <glyph glyph-name="currency" unicode="&#xa4;" horiz-adv-x="1263" 
d="M467 797h238q129 -1 203 67t73 178q0 110 -73 176q-73 65 -201 64h-240v-485zM262 0v348h-145v144h145v143h-145v162h145v485h-133v164h608q203 0 329 -109t126 -296t-126 -297t-329 -109h-270v-143h512v-144h-512v-348h-205z" />
    <glyph glyph-name="yen" unicode="&#xa5;" horiz-adv-x="1263" 
d="M201 418v129h327v84l-55 90h-278v129h192v4l-229 371q-27 45 -90 45h-35v176h90q78 0 119 -20t82 -91l217 -364l88 -160h4q41 80 88 160l219 364q39 70 80 90t119 21h90v-176h-35q-63 0 -92 -45l-228 -371v-4h187v-129h-270l-58 -90v-84h328v-129h-328v-418h-205v418
h-327z" />
    <glyph glyph-name="section" unicode="&#xa7;" horiz-adv-x="894" 
d="M374 39q104 0 165 56t61 159q0 41 -12 92l-135 770h161l144 -799q10 -41 10 -92q0 -156 -104 -254t-281 -98q-80 0 -152 26t-104 52l-33 26l90 138q86 -76 190 -76zM125 1120q0 154 104 252t283 98q80 0 152 -26t104 -51l33 -27l-94 -131q-83 70 -187 70q-104 1 -164 -53
t-61 -154q0 -43 10 -82l139 -789h-161l-146 799q-12 47 -12 94z" />
    <glyph glyph-name="dieresis" unicode="&#xa8;" horiz-adv-x="1026" 
d="M291 1599v207h151v-207h-151zM629 1599v207h149v-207h-149z" />
    <glyph glyph-name="copyright" unicode="&#xa9;" horiz-adv-x="1644" 
d="M430 720q0 169 112 290q112 120 286 120t289 -131q28 -31 38 -51l12 -20l-125 -68q-8 14 -23 36t-69 58t-112 35q-115 0 -185 -79q-69 -80 -69 -192t68 -189t186 -76q61 1 112 33t72 63l20 33l125 -68q-12 -24 -46 -66q-113 -137 -290 -137t-289 120t-112 289zM242 723
q0 -256 166 -432t412 -176t414 176q169 176 169 432t-169 432t-415 176q-245 0 -411 -176t-166 -432zM90 723q0 311 213 529t517 218t518 -218t214 -529t-214 -529t-518 -218t-517 218t-213 529z" />
    <glyph glyph-name="ordfeminine" unicode="&#xaa;" horiz-adv-x="901" 
d="M135 543v116h639v-116h-639zM289 993q1 -37 27 -63t84 -25q58 -1 98 57q41 58 45 140h-23q-231 0 -231 -109zM344 784q-76 0 -142 54t-65 149q0 219 377 219h29q-2 76 -31 106q-30 30 -106 30t-76 -35v-39h-142v82q0 34 27 60q59 56 205 56q270 0 270 -258v-258
q0 -20 21 -20h57v-133h-119q-86 0 -94 75l-2 21h-4q-5 -13 -19 -31t-62 -48t-124 -30z" />
    <glyph glyph-name="guillemotleft" unicode="&#xab;" horiz-adv-x="1124" 
d="M420 158l-336 420l336 421h198l-335 -421l335 -420h-198zM498 578l336 421h198l-336 -421l336 -420h-198z" />
    <glyph glyph-name="logicalnot" unicode="&#xac;" horiz-adv-x="1236" 
d="M127 696v160h977v-547h-166v387h-811z" />
    <glyph glyph-name="uni00AD" unicode="&#xad;" horiz-adv-x="839" 
d="M121 496v176h598v-176h-598z" />
    <glyph glyph-name="registered" unicode="&#xae;" horiz-adv-x="1644" 
d="M713 745h123q59 0 92 35q33 36 33 96t-33 93t-90 32h-125v-256zM567 340v661h-67v111h366q112 0 178 -64t66 -159t-44 -149t-97 -68v-4q25 -6 43 -41l80 -154q14 -27 49 -27h22v-106h-80q-45 0 -69 10t-41 47l-105 203q-20 39 -71 39h-84v-299h-146zM242 723
q0 -256 166 -432t412 -176t414 176q169 176 169 432t-169 432t-415 176q-245 0 -411 -176t-166 -432zM90 723q0 311 213 529t517 218t518 -218t214 -529t-214 -529t-518 -218t-517 218t-213 529z" />
    <glyph glyph-name="macron" unicode="&#xaf;" horiz-adv-x="950" 
d="M221 1606v139h520v-139h-520z" />
    <glyph glyph-name="degree" unicode="&#xb0;" horiz-adv-x="786" 
d="M393 1016q63 0 108 44q44 44 44 107t-44 109q-43 46 -107 45q-64 0 -108 -45q-44 -44 -44 -108t44 -108t107 -44zM392 864q-128 0 -219 89t-91 214t91 214t219 89t220 -89t92 -214t-92 -214t-220 -89z" />
    <glyph glyph-name="plusminus" unicode="&#xb1;" 
d="M82 -195h1018v-159h-1018v159zM49 504v160h459v503h168v-503h457v-160h-457v-504h-168v504h-459z" />
    <glyph glyph-name="twosuperior" unicode="&#xb2;" horiz-adv-x="770" 
d="M160 545q-55 1 -77 25t-22 92q0 129 75 199t159 116q83 47 117 70q32 23 62 63t30 91q0 50 -37 84t-93 34t-90 -22t-34 -50v-49h-146v90q0 84 88 130t198 46t191 -74t81 -192q0 -157 -170 -265q-30 -19 -92 -54t-93 -55t-59 -56q-28 -35 -27 -74q0 -12 19 -12h303
q12 0 12 14v70h145v-127q0 -94 -94 -94h-446z" />
    <glyph glyph-name="threesuperior" unicode="&#xb3;" horiz-adv-x="770" 
d="M383 528q-86 0 -166 41t-117 82l-37 41l107 101q10 -13 28 -33t74 -53q54 -33 114 -33t107 42q46 42 46 105q-1 63 -49 101t-117 36h-72l-25 91l175 217l43 47v4q-33 -4 -68 -4h-156q-18 0 -18 -21v-53h-146v109q0 54 20 76t77 22h477v-105l-215 -260q94 -12 163 -85
q68 -72 68 -188t-92 -198t-221 -82z" />
    <glyph glyph-name="acute" unicode="&#xb4;" horiz-adv-x="794" 
d="M244 1546l149 260h201l-195 -260h-155z" />
    <glyph glyph-name="mu" unicode="&#xb5;" horiz-adv-x="1341" 
d="M215 -410v1231q0 45 -45 45h-84v170h195q71 0 101 -30t30 -97v-491q0 -123 41 -191t153 -67q154 0 246 114t92 277v485h199v-821q0 -45 45 -45h84v-170h-191q-131 0 -131 115v39l2 59h-4q-13 -32 -48 -77q-36 -46 -76 -78t-108 -58t-140 -25q-70 1 -116 17t-63 33l-16 14
h-4q14 -100 14 -160v-289h-176z" />
    <glyph glyph-name="mu" unicode="&#x3bc;" horiz-adv-x="1341" 
d="M215 -410v1231q0 45 -45 45h-84v170h195q71 0 101 -30t30 -97v-491q0 -123 41 -191t153 -67q154 0 246 114t92 277v485h199v-821q0 -45 45 -45h84v-170h-191q-131 0 -131 115v39l2 59h-4q-13 -32 -48 -77q-36 -46 -76 -78t-108 -58t-140 -25q-70 1 -116 17t-63 33l-16 14
h-4q14 -100 14 -160v-289h-176z" />
    <glyph glyph-name="paragraph" unicode="&#xb6;" horiz-adv-x="1212" 
d="M838 -102v1255h153v-1255h-153zM557 -102v596q-199 0 -342 138t-143 338t142 338t343 138h555v-176h-401v-1372h-154z" />
    <glyph glyph-name="periodcentered" unicode="&#xb7;" horiz-adv-x="444" 
d="M121 489v211h203v-211h-203z" />
    <glyph glyph-name="cedilla" unicode="&#xb8;" horiz-adv-x="851" 
d="M357 -424q-76 0 -128 14v119q41 -14 88 -14q96 0 97 63q0 63 -109 64l-35 -2l58 227l100 -20v-17l-22 -112q63 -8 104 -48t41 -114q0 -76 -59 -118t-135 -42z" />
    <glyph glyph-name="onesuperior" unicode="&#xb9;" horiz-adv-x="770" 
d="M139 545v137h191v494l2 67h-4q-10 -20 -25 -35l-82 -78l-94 101l223 215h135v-764h189v-137h-535z" />
    <glyph glyph-name="ordmasculine" unicode="&#xba;" horiz-adv-x="954" 
d="M158 543v116h641v-116h-641zM476 920q85 0 144 59q58 59 58 150t-58 149t-144 59q-86 0 -143 -58q-59 -57 -59 -149t58 -151t144 -59zM475 786q-147 0 -249 98t-101 244q0 148 102 244q103 96 249 96t248 -96t103 -244q-1 -148 -103 -245t-249 -97z" />
    <glyph glyph-name="guillemotright" unicode="&#xbb;" horiz-adv-x="1124" 
d="M92 158l336 420l-336 421h199l336 -421l-336 -420h-199zM506 158l336 420l-336 421h199l335 -421l-335 -420h-199z" />
    <glyph glyph-name="onequarter" unicode="&#xbc;" horiz-adv-x="1789" 
d="M1219 369h208v280l3 74h-5q-12 -29 -30 -55l-189 -265l-28 -32v-4q27 2 41 2zM1010 231v95l393 577h178v-534h135v-138h-135v-231h-156v231h-415zM111 545v137h190v494l2 67h-4q-10 -20 -25 -35l-81 -78l-95 101l224 215h135v-764h182v-137h-528zM535 0l587 1446h164
l-588 -1446h-163z" />
    <glyph glyph-name="onehalf" unicode="&#xbd;" horiz-adv-x="1773" 
d="M1155 0q-55 0 -77 26t-21 92q0 167 161 271q34 23 86 53q91 51 143 95t52 106q0 63 -37 98t-93 35t-90 -22t-34 -49v-50h-145v88q0 84 88 130q88 47 198 47t190 -74q81 -74 81 -194q0 -156 -170 -264q-31 -20 -92 -54q-61 -35 -92 -55q-31 -19 -59 -55t-27 -72
q0 -14 18 -15h303q12 0 12 15v69h146v-125q0 -96 -94 -96h-447zM104 545v137h191v494l2 67h-4q-10 -20 -25 -35l-82 -78l-94 101l221 215h138v-764h182v-137h-529zM504 0l588 1446h163l-585 -1446h-166z" />
    <glyph glyph-name="threequarters" unicode="&#xbe;" horiz-adv-x="1796" 
d="M1225 369h209v280l2 74h-4q-12 -29 -31 -55l-187 -265l-30 -32v-4q27 2 41 2zM1016 231v95l393 577h178v-534h135v-138h-135v-231h-155v231h-416zM401 528q-85 0 -165 41t-117 82l-37 41l106 101q10 -13 28 -33t74 -53t116 -33t105 42q46 42 46 105t-48 101t-118 36h-72
l-24 91l172 217l45 47v4q-33 -4 -68 -4h-155q-20 0 -21 -21v-53h-143v109q0 54 20 76t76 22h477v-105l-215 -260q94 -12 163 -85q69 -72 69 -188q-1 -116 -93 -198t-221 -82zM537 0l587 1446h164l-586 -1446h-165z" />
    <glyph glyph-name="questiondown" unicode="&#xbf;" horiz-adv-x="935" 
d="M444 639h193v-88q0 -86 -36 -158t-87 -120t-101 -93q-122 -110 -122 -221q1 -86 67 -145t166 -60q58 0 116 23t89 43l29 22l108 -141q-14 -14 -55 -41q-137 -90 -309 -90t-296 104t-124 273q0 170 127 290q53 50 107 96q130 111 128 230v76zM438 838v198h205v-198h-205z
" />
    <glyph glyph-name="Agrave" unicode="&#xc0;" horiz-adv-x="1361" 
d="M600 1546l-194 260h200l150 -260h-156zM465 588h432l-158 440l-57 203h-4q-31 -127 -55 -203zM25 0v176h28q53 0 68 45l452 1225h215l453 -1225q14 -45 68 -45h28v-176h-112q-76 0 -110 24t-60 95l-109 297h-530l-109 -297q-27 -71 -61 -95t-109 -24h-112z" />
    <glyph glyph-name="Aacute" unicode="&#xc1;" horiz-adv-x="1361" 
d="M600 1546l150 260h200l-194 -260h-156zM465 588h432l-158 440l-57 203h-4q-31 -127 -55 -203zM25 0v176h28q53 0 68 45l452 1225h215l453 -1225q14 -45 68 -45h28v-176h-112q-76 0 -110 24t-60 95l-109 297h-530l-109 -297q-27 -71 -61 -95t-109 -24h-112z" />
    <glyph glyph-name="Acircumflex" unicode="&#xc2;" horiz-adv-x="1361" 
d="M412 1546l178 260h182l180 -260h-161l-107 164h-4l-109 -164h-159zM465 588h432l-158 440l-57 203h-4q-31 -127 -55 -203zM25 0v176h28q53 0 68 45l452 1225h215l453 -1225q14 -45 68 -45h28v-176h-112q-76 0 -110 24t-60 95l-109 297h-530l-109 -297q-27 -71 -61 -95
t-109 -24h-112z" />
    <glyph glyph-name="Atilde" unicode="&#xc3;" horiz-adv-x="1361" 
d="M332 1548q0 260 211 260q59 0 106 -34t83 -70q36 -35 76 -35t60 41t21 92h133q0 -260 -211 -260q-59 0 -105 35t-83 70t-77 35t-60 -41q-20 -40 -19 -93h-135zM465 588h432l-158 440l-57 203h-4q-31 -127 -55 -203zM25 0v176h28q53 0 68 45l452 1225h215l453 -1225
q14 -45 68 -45h28v-176h-112q-76 0 -110 24t-60 95l-109 297h-530l-109 -297q-27 -71 -61 -95t-109 -24h-112z" />
    <glyph glyph-name="Adieresis" unicode="&#xc4;" horiz-adv-x="1361" 
d="M438 1599v207h152v-207h-152zM776 1599v207h150v-207h-150zM465 588h432l-158 440l-57 203h-4q-31 -127 -55 -203zM25 0v176h28q53 0 68 45l452 1225h215l453 -1225q14 -45 68 -45h28v-176h-112q-76 0 -110 24t-60 95l-109 297h-530l-109 -297q-27 -71 -61 -95t-109 -24
h-112z" />
    <glyph glyph-name="Aring" unicode="&#xc5;" horiz-adv-x="1361" 
d="M682 1606q31 0 50 19q20 19 20 50t-20 50t-50 19q-31 0 -50 -18q-20 -20 -20 -51t20 -50t50 -19zM848 1674q0 -68 -49 -110t-118 -42t-117 42t-48 110t48 111q48 42 117 42t118 -42t49 -111zM465 588h432l-158 440l-57 203h-4q-31 -127 -55 -203zM25 0v176h28q53 0 68 45
l452 1225h215l453 -1225q14 -45 68 -45h28v-176h-112q-76 0 -110 24t-60 95l-109 297h-530l-109 -297q-27 -71 -61 -95t-109 -24h-112z" />
    <glyph glyph-name="AE" unicode="&#xc6;" horiz-adv-x="1767" 
d="M809 817v453h-88l-170 -453h258zM20 0v176h23q51 0 70 45l485 1225h918q70 0 100 -31t31 -100v-182h-187v92q0 45 -45 45h-399v-453h495v-176h-495v-420q0 -45 53 -45h401q45 0 46 45v92h188v-182q0 -71 -31 -101t-100 -30h-617q-80 0 -114 28t-33 103v510h-326
l-194 -522q-27 -71 -61 -95t-109 -24h-99z" />
    <glyph glyph-name="Ccedilla" unicode="&#xc7;" horiz-adv-x="1429" 
d="M756 -424q-76 0 -125 14v119q41 -14 88 -14q96 0 96 63t-108 64l-37 -2l41 160q-285 30 -462 242t-177 519t208 519t517 210q173 0 345 -69q87 -35 143 -98t56 -146v-141h-188v82q0 84 -113 133t-239 49q-219 0 -367 -152t-147 -392q0 -240 147 -404t369 -164
q127 0 243 49t166 98l54 47l110 -145q-25 -32 -85 -76q-59 -45 -119 -77t-155 -59q-95 -28 -196 -30l-14 -77q63 -8 104 -48t41 -114q0 -76 -60 -118t-136 -42z" />
    <glyph glyph-name="Egrave" unicode="&#xc8;" horiz-adv-x="1169" 
d="M514 1546l-195 260h201l150 -260h-156zM201 131v1139h-133v176h852q70 0 100 -31t31 -100v-182h-189v92q0 45 -45 45h-411v-453h507v-176h-507v-420q0 -45 45 -45h423q45 0 46 45v92h186v-182q0 -71 -31 -101t-100 -30h-641q-70 0 -102 30t-31 101z" />
    <glyph glyph-name="Eacute" unicode="&#xc9;" horiz-adv-x="1169" 
d="M201 131v1139h-133v176h852q70 0 100 -31t31 -100v-182h-189v92q0 45 -45 45h-411v-453h507v-176h-507v-420q0 -45 45 -45h423q45 0 46 45v92h186v-182q0 -71 -31 -101t-100 -30h-641q-70 0 -102 30t-31 101zM514 1546l150 260h200l-194 -260h-156z" />
    <glyph glyph-name="Ecircumflex" unicode="&#xca;" horiz-adv-x="1169" 
d="M201 131v1139h-133v176h852q70 0 100 -31t31 -100v-182h-189v92q0 45 -45 45h-411v-453h507v-176h-507v-420q0 -45 45 -45h423q45 0 46 45v92h186v-182q0 -71 -31 -101t-100 -30h-641q-70 0 -102 30t-31 101zM326 1546l178 260h182l180 -260h-161l-107 164h-4l-109 -164
h-159z" />
    <glyph glyph-name="Edieresis" unicode="&#xcb;" horiz-adv-x="1169" 
d="M201 131v1139h-133v176h852q70 0 100 -31t31 -100v-182h-189v92q0 45 -45 45h-411v-453h507v-176h-507v-420q0 -45 45 -45h423q45 0 46 45v92h186v-182q0 -71 -31 -101t-100 -30h-641q-70 0 -102 30t-31 101zM352 1599v207h152v-207h-152zM690 1599v207h150v-207h-150z
" />
    <glyph glyph-name="Igrave" unicode="&#xcc;" horiz-adv-x="651" 
d="M246 1546l-195 260h201l149 -260h-155zM86 0v176h141v1094h-141v176h477v-176h-139v-1094h139v-176h-477z" />
    <glyph glyph-name="Iacute" unicode="&#xcd;" horiz-adv-x="651" 
d="M244 1546l149 260h201l-195 -260h-155zM86 0v176h141v1094h-141v176h477v-176h-139v-1094h139v-176h-477z" />
    <glyph glyph-name="Icircumflex" unicode="&#xce;" horiz-adv-x="651" 
d="M55 1546l178 260h183l180 -260h-162l-106 164h-4l-109 -164h-160zM86 0v176h141v1094h-141v176h477v-176h-139v-1094h139v-176h-477z" />
    <glyph glyph-name="Idieresis" unicode="&#xcf;" horiz-adv-x="651" 
d="M82 1599v207h151v-207h-151zM420 1599v207h149v-207h-149zM86 0v176h141v1094h-141v176h477v-176h-139v-1094h139v-176h-477z" />
    <glyph glyph-name="Eth" unicode="&#xd0;" horiz-adv-x="1466" 
d="M410 221q0 -45 45 -45h188q248 0 391 143q144 143 144 405t-144 403q-144 142 -391 143h-233v-463h295v-168h-295v-418zM205 131v508h-99v168h99v463h-133v176h585q334 0 534 -192t200 -530q0 -340 -200 -532t-534 -192h-319q-70 0 -102 30t-31 101z" />
    <glyph glyph-name="Ntilde" unicode="&#xd1;" horiz-adv-x="1550" 
d="M446 1548q0 260 211 260q59 0 107 -34t83 -70q36 -35 76 -35t60 41t21 92h133q0 -260 -211 -260q-60 0 -106 35t-83 70t-77 35t-58 -41q-20 -40 -20 -93h-136zM70 0v176h88q45 0 45 45v1225h186l643 -916l121 -196h4q-14 117 -14 196v785q0 71 32 101t101 30h205v-176
h-88q-45 0 -45 -45v-1225h-185l-645 915l-119 197h-4q12 -117 13 -197v-784q0 -71 -31 -101t-101 -30h-206z" />
    <glyph glyph-name="Ograve" unicode="&#xd2;" horiz-adv-x="1624" 
d="M725 1546l-195 260h201l150 -260h-156zM811 1280q-221 0 -375 -158t-153 -392q-1 -234 153 -398t375 -164t376 164t155 398t-155 392t-376 158zM70 729q0 315 214 528t527 213t528 -213t215 -528t-215 -534t-528 -219t-527 218q-214 220 -214 535z" />
    <glyph glyph-name="Oacute" unicode="&#xd3;" horiz-adv-x="1624" 
d="M811 1280q-221 0 -375 -158t-153 -392q-1 -234 153 -398t375 -164t376 164t155 398t-155 392t-376 158zM70 729q0 315 214 528t527 213t528 -213t215 -528t-215 -534t-528 -219t-527 218q-214 220 -214 535zM725 1546l149 260h201l-194 -260h-156z" />
    <glyph glyph-name="Ocircumflex" unicode="&#xd4;" horiz-adv-x="1624" 
d="M811 1280q-221 0 -375 -158t-153 -392q-1 -234 153 -398t375 -164t376 164t155 398t-155 392t-376 158zM70 729q0 315 214 528t527 213t528 -213t215 -528t-215 -534t-528 -219t-527 218q-214 220 -214 535zM537 1546l178 260h182l180 -260h-162l-106 164h-4l-109 -164
h-159z" />
    <glyph glyph-name="Otilde" unicode="&#xd5;" horiz-adv-x="1624" 
d="M457 1548q0 260 211 260q59 0 106 -34t83 -70q36 -35 76 -35t60 41t21 92h133q0 -260 -211 -260q-60 0 -106 35t-82 70t-77 35q-39 0 -59 -41q-20 -40 -20 -93h-135zM811 1280q-221 0 -375 -158t-153 -392q-1 -234 153 -398t375 -164t376 164t155 398t-155 392t-376 158z
M70 729q0 315 214 528t527 213t528 -213t215 -528t-215 -534t-528 -219t-527 218q-214 220 -214 535z" />
    <glyph glyph-name="Odieresis" unicode="&#xd6;" horiz-adv-x="1624" 
d="M811 1280q-221 0 -375 -158t-153 -392q-1 -234 153 -398t375 -164t376 164t155 398t-155 392t-376 158zM70 729q0 315 214 528t527 213t528 -213t215 -528t-215 -534t-528 -219t-527 218q-214 220 -214 535zM563 1599v207h152v-207h-152zM901 1599v207h150v-207h-150z
" />
    <glyph glyph-name="multiply" unicode="&#xd7;" 
d="M59 113l422 471l-422 471l111 112l420 -467l420 467l112 -112l-426 -471l426 -471l-112 -113l-420 465l-420 -465z" />
    <glyph glyph-name="Oslash" unicode="&#xd8;" horiz-adv-x="1624" 
d="M811 168q221 0 376 164t155 400t-168 394l-633 -882q123 -76 270 -76zM811 1280q-221 0 -375 -158t-154 -397t164 -403l633 882q-125 76 -268 76zM811 1470q209 0 385 -104l96 133l101 -69l-97 -134q121 -104 190 -249t68 -314q0 -319 -215 -538t-528 -220
q-213 0 -385 109l-96 -135l-103 69l99 136q-121 106 -189 256t-67 323q0 311 214 524t527 213z" />
    <glyph glyph-name="Ugrave" unicode="&#xd9;" horiz-adv-x="1474" 
d="M645 1546l-194 260h200l150 -260h-156zM186 506v719q0 45 -45 45h-88v176h205q70 0 102 -31t31 -100v-801q0 -162 93 -254t252 -92t253 93t94 255v799q0 71 31 101t100 30h207v-176h-88q-45 0 -45 -45v-719q0 -238 -152 -384t-398 -146q-248 0 -400 146t-152 384z" />
    <glyph glyph-name="Uacute" unicode="&#xda;" horiz-adv-x="1474" 
d="M186 506v719q0 45 -45 45h-88v176h205q70 0 102 -31t31 -100v-801q0 -162 93 -254t252 -92t253 93t94 255v799q0 71 31 101t100 30h207v-176h-88q-45 0 -45 -45v-719q0 -238 -152 -384t-398 -146q-248 0 -400 146t-152 384zM657 1546l150 260h201l-195 -260h-156z" />
    <glyph glyph-name="Ucircumflex" unicode="&#xdb;" horiz-adv-x="1474" 
d="M186 506v719q0 45 -45 45h-88v176h205q70 0 102 -31t31 -100v-801q0 -162 93 -254t252 -92t253 93t94 255v799q0 71 31 101t100 30h207v-176h-88q-45 0 -45 -45v-719q0 -238 -152 -384t-398 -146q-248 0 -400 146t-152 384zM469 1546l178 260h182l181 -260h-162l-107 164
h-4l-108 -164h-160z" />
    <glyph glyph-name="Udieresis" unicode="&#xdc;" horiz-adv-x="1474" 
d="M186 506v719q0 45 -45 45h-88v176h205q70 0 102 -31t31 -100v-801q0 -162 93 -254t252 -92t253 93t94 255v799q0 71 31 101t100 30h207v-176h-88q-45 0 -45 -45v-719q0 -238 -152 -384t-398 -146q-248 0 -400 146t-152 384zM496 1599v207h151v-207h-151zM834 1599v207
h149v-207h-149z" />
    <glyph glyph-name="Yacute" unicode="&#xdd;" horiz-adv-x="1241" 
d="M541 1546l149 260h201l-195 -260h-155zM518 0v631l-366 588q-29 51 -89 51h-40v176h94q77 0 115 -20t79 -91l219 -364l88 -162h5q41 82 88 162l217 364q41 70 80 90t114 21h97v-176h-41q-59 0 -91 -51l-364 -588v-631h-205z" />
    <glyph glyph-name="Thorn" unicode="&#xde;" horiz-adv-x="1198" 
d="M408 465h266q126 0 200 76t74 206q0 129 -72 203t-200 74h-268v-559zM203 0v1225q0 45 -45 45h-88v176h206q70 0 101 -31t31 -100v-115h299q201 0 327 -124t125 -328q0 -204 -127 -332q-127 -127 -327 -127h-297v-289h-205z" />
    <glyph glyph-name="germandbls" unicode="&#xdf;" horiz-adv-x="1208" 
d="M51 0v170h76q45 0 45 45v870q0 177 132 281t305 104t285 -95t112 -234q0 -66 -33 -122t-71 -90q-105 -94 -104 -157t131 -155q54 -37 107 -81t91 -109t38 -140q0 -150 -101 -231t-249 -81q-88 0 -166 26t-110 52l-33 25l55 153q102 -84 230 -84q73 0 123 36q50 35 50 97
t-37 107q-38 45 -91 84t-108 79q-130 96 -130 214q0 55 32 107t70 87q103 92 103 170t-51 124q-52 46 -146 46t-165 -59t-70 -168v-940q0 -71 -31 -101t-100 -30h-189z" />
    <glyph glyph-name="agrave" unicode="&#xe0;" horiz-adv-x="1083" 
d="M444 1188l-194 260h201l149 -260h-156zM256 301q0 -68 51 -118t144 -50q123 1 201 103t77 227v39h-53q-420 0 -420 -201zM57 283q0 362 627 362h45v14q0 131 -54 187t-175 57q-58 0 -114 -17t-56 -63v-59h-189v104q0 146 258 186q51 7 97 7q240 -1 336 -107t96 -299v-440
q0 -45 45 -45h84v-170h-189q-127 0 -127 119l2 61h-4q2 0 -16 -35t-73 -81q-108 -89 -248 -89q-139 -1 -242 83t-103 225z" />
    <glyph glyph-name="aacute" unicode="&#xe1;" horiz-adv-x="1083" 
d="M444 1188l150 260h201l-195 -260h-156zM256 301q0 -68 51 -118t144 -50q123 1 201 103t77 227v39h-53q-420 0 -420 -201zM57 283q0 362 627 362h45v14q0 131 -54 187t-175 57q-58 0 -114 -17t-56 -63v-59h-189v104q0 146 258 186q51 7 97 7q240 -1 336 -107t96 -299v-440
q0 -45 45 -45h84v-170h-189q-127 0 -127 119l2 61h-4q2 0 -16 -35t-73 -81q-108 -89 -248 -89q-139 -1 -242 83t-103 225z" />
    <glyph glyph-name="acircumflex" unicode="&#xe2;" horiz-adv-x="1083" 
d="M256 1188l178 260h182l181 -260h-162l-107 164h-4l-108 -164h-160zM256 301q0 -68 51 -118t144 -50q123 1 201 103t77 227v39h-53q-420 0 -420 -201zM57 283q0 362 627 362h45v14q0 131 -54 187t-175 57q-58 0 -114 -17t-56 -63v-59h-189v104q0 146 258 186q51 7 97 7
q240 -1 336 -107t96 -299v-440q0 -45 45 -45h84v-170h-189q-127 0 -127 119l2 61h-4q2 0 -16 -35t-73 -81q-108 -89 -248 -89q-139 -1 -242 83t-103 225z" />
    <glyph glyph-name="atilde" unicode="&#xe3;" horiz-adv-x="1083" 
d="M178 1190q0 260 211 260q59 0 107 -35t83 -69t75 -35q40 0 61 41q20 41 20 92h133q0 -260 -211 -260q-59 0 -105 35t-83 69t-77 35q-40 0 -59 -40t-20 -93h-135zM256 301q0 -68 51 -118t144 -50q123 1 201 103t77 227v39h-53q-420 0 -420 -201zM57 283q0 362 627 362h45
v14q0 131 -54 187t-175 57q-58 0 -114 -17t-56 -63v-59h-189v104q0 146 258 186q51 7 97 7q240 -1 336 -107t96 -299v-440q0 -45 45 -45h84v-170h-189q-127 0 -127 119l2 61h-4q2 0 -16 -35t-73 -81q-108 -89 -248 -89q-139 -1 -242 83t-103 225z" />
    <glyph glyph-name="adieresis" unicode="&#xe4;" horiz-adv-x="1083" 
d="M285 1241v207h151v-207h-151zM623 1241v207h149v-207h-149zM256 301q0 -68 51 -118t144 -50q123 1 201 103t77 227v39h-53q-420 0 -420 -201zM57 283q0 362 627 362h45v14q0 131 -54 187t-175 57q-58 0 -114 -17t-56 -63v-59h-189v104q0 146 258 186q51 7 97 7
q240 -1 336 -107t96 -299v-440q0 -45 45 -45h84v-170h-189q-127 0 -127 119l2 61h-4q2 0 -16 -35t-73 -81q-108 -89 -248 -89q-139 -1 -242 83t-103 225z" />
    <glyph glyph-name="aring" unicode="&#xe5;" horiz-adv-x="1083" 
d="M526 1247q30 -1 50 19t20 51t-19 50t-51 19t-50 -19q-19 -19 -19 -50t19 -51t50 -19zM525 1163q-69 0 -117 42t-48 111q0 68 48 110t118 42q68 0 117 -42t49 -110t-49 -111q-49 -42 -118 -42zM256 301q0 -68 51 -118t144 -50q123 1 201 103t77 227v39h-53
q-420 0 -420 -201zM57 283q0 362 627 362h45v14q0 131 -54 187t-175 57q-58 0 -114 -17t-56 -63v-59h-189v104q0 146 258 186q51 7 97 7q240 -1 336 -107t96 -299v-440q0 -45 45 -45h84v-170h-189q-127 0 -127 119l2 61h-4q2 0 -16 -35t-73 -81q-108 -89 -248 -89
q-139 -1 -242 83t-103 225z" />
    <glyph glyph-name="ae" unicode="&#xe6;" horiz-adv-x="1738" 
d="M260 301q0 -70 51 -118t159 -48q108 -1 184 103t77 229v29h-96q-375 0 -375 -195zM928 641h538q-6 123 -75 192t-177 69t-186 -68q-77 -68 -100 -193zM59 289q0 352 611 352h59v23q0 131 -54 185t-175 54q-58 0 -114 -17t-56 -63v-59h-189v104q1 70 61 115q102 76 298 78
q270 0 352 -182h4q127 182 369 182q205 0 325 -137t119 -344l-4 -84h-745q8 -168 104 -258t242 -91q80 0 156 31t110 62l37 30l84 -143q-16 -16 -49 -42q-34 -26 -138 -68t-213 -42q-311 0 -444 258h-4q-21 -60 -100 -145q-45 -47 -121 -79t-170 -32q-150 -1 -252 83
t-103 229z" />
    <glyph glyph-name="ccedilla" unicode="&#xe7;" horiz-adv-x="1089" 
d="M754 -264q0 -76 -60 -118t-137 -42q-76 0 -125 14v119q41 -14 86 -14q98 0 98 63t-108 64l-37 -2l43 166q-201 33 -324 179q-122 146 -122 365t155 375q156 156 402 156q185 0 303 -91q70 -54 69 -136v-107h-178v57q0 51 -63 79t-131 28q-152 -1 -253 -105
q-102 -104 -102 -270t106 -265t261 -99q86 0 166 36t117 70l36 37l86 -141q-6 -6 -17 -18t-51 -44q-148 -114 -351 -117l-17 -77q66 -8 107 -48q41 -38 41 -114z" />
    <glyph glyph-name="egrave" unicode="&#xe8;" horiz-adv-x="1103" 
d="M520 1145l-194 260h200l150 -260h-156zM281 635h555q-4 129 -75 201t-183 72t-194 -74q-83 -72 -103 -199zM68 524q0 238 147 388t365 149q218 0 336 -138t118 -348q0 -35 -6 -83h-756q8 -162 110 -253t249 -92q65 0 128 22t93 41t66 44l18 14l84 -145q-86 -71 -199 -110
q-112 -38 -203 -38q-242 0 -396 155q-154 156 -154 394z" />
    <glyph glyph-name="eacute" unicode="&#xe9;" horiz-adv-x="1103" 
d="M281 635h555q-4 129 -75 201t-183 72t-194 -74q-83 -72 -103 -199zM68 524q0 238 147 388t365 149q218 0 336 -138t118 -348q0 -35 -6 -83h-756q8 -162 110 -253t249 -92q65 0 128 22t93 41t66 44l18 14l84 -145q-86 -71 -199 -110q-112 -38 -203 -38q-242 0 -396 155
q-154 156 -154 394zM498 1188l149 260h201l-195 -260h-155z" />
    <glyph glyph-name="ecircumflex" unicode="&#xea;" horiz-adv-x="1103" 
d="M281 635h555q-4 129 -75 201t-183 72t-194 -74q-83 -72 -103 -199zM68 524q0 238 147 388t365 149q218 0 336 -138t118 -348q0 -35 -6 -83h-756q8 -162 110 -253t249 -92q65 0 128 22t93 41t66 44l18 14l84 -145q-86 -71 -199 -110q-112 -38 -203 -38q-242 0 -396 155
q-154 156 -154 394zM307 1188l178 260h183l180 -260h-162l-106 164h-5l-108 -164h-160z" />
    <glyph glyph-name="edieresis" unicode="&#xeb;" horiz-adv-x="1103" 
d="M281 635h555q-4 129 -75 201t-183 72t-194 -74q-83 -72 -103 -199zM68 524q0 238 147 388t365 149q218 0 336 -138t118 -348q0 -35 -6 -83h-756q8 -162 110 -253t249 -92q65 0 128 22t93 41t66 44l18 14l84 -145q-86 -71 -199 -110q-112 -38 -203 -38q-242 0 -396 155
q-154 156 -154 394zM334 1241v207h151v-207h-151zM672 1241v207h149v-207h-149z" />
    <glyph glyph-name="igrave" unicode="&#xec;" horiz-adv-x="542" 
d="M172 131v690q0 45 -45 45h-84v170h195q70 0 102 -30t31 -101v-690q0 -45 45 -45h84v-170h-197q-71 0 -101 30t-30 101zM174 1186l-194 260h200l150 -260h-156z" />
    <glyph glyph-name="iacute" unicode="&#xed;" horiz-adv-x="542" 
d="M172 131v690q0 45 -45 45h-84v170h195q70 0 102 -30t31 -101v-690q0 -45 45 -45h84v-170h-197q-71 0 -101 30t-30 101zM174 1186l150 260h202l-196 -260h-156z" />
    <glyph glyph-name="icircumflex" unicode="&#xee;" horiz-adv-x="542" 
d="M172 131v690q0 45 -45 45h-84v170h195q70 0 102 -30t31 -101v-690q0 -45 45 -45h84v-170h-197q-71 0 -101 30t-30 101zM-14 1186l178 260h182l180 -260h-161l-107 166h-4l-109 -166h-159z" />
    <glyph glyph-name="idieresis" unicode="&#xef;" horiz-adv-x="542" 
d="M172 131v690q0 45 -45 45h-84v170h195q70 0 102 -30t31 -101v-690q0 -45 45 -45h84v-170h-197q-71 0 -101 30t-30 101zM33 1239v207h151v-207h-151zM319 1239v207h150v-207h-150z" />
    <glyph glyph-name="eth" unicode="&#xf0;" horiz-adv-x="1150" 
d="M574 795q-140 1 -221 -93t-81 -227t77 -230t221 -97t224 115q78 116 78 249t-78 208q-80 75 -220 75zM70 475q0 199 130 339t355 140q74 0 136 -22t89 -43l27 -21h4q-61 164 -223 273l-369 -164l-20 127l252 113q-125 63 -265 94l56 162q238 -53 424 -164l284 125
l21 -125l-191 -86q295 -246 295 -660q0 -223 -119 -396q-59 -87 -163 -139t-238 -53q-221 1 -353 151t-132 349z" />
    <glyph glyph-name="ntilde" unicode="&#xf1;" horiz-adv-x="1275" 
d="M311 1190q0 260 211 260q58 0 106 -35t84 -69t76 -35q40 0 60 41t20 92h133q0 -260 -210 -260q-59 0 -105 35t-84 69q-37 34 -77 35q-40 0 -59 -40t-20 -93h-135zM174 0v821q0 45 -45 45h-84v170h191q131 0 131 -114v-39l-5 -60h5q41 88 140 163t251 75q354 0 354 -397
v-449q0 -45 45 -45h84v-170h-197q-70 0 -100 31t-31 100v487q0 125 -40 193q-39 68 -155 68t-205 -71t-122 -183q-18 -53 -18 -140v-485h-199z" />
    <glyph glyph-name="ograve" unicode="&#xf2;" horiz-adv-x="1251" 
d="M545 1188l-195 260h201l149 -260h-155zM268 520q0 -160 104 -266t254 -106q149 0 252 104q103 106 103 267t-103 265q-104 104 -252 104t-253 -104t-105 -264zM68 520q0 233 161 387q162 154 397 154q234 0 396 -154t162 -387t-163 -389t-396 -156t-396 156
q-161 156 -161 389z" />
    <glyph glyph-name="oacute" unicode="&#xf3;" horiz-adv-x="1251" 
d="M268 520q0 -160 104 -266t254 -106q149 0 252 104q103 106 103 267t-103 265q-104 104 -252 104t-253 -104t-105 -264zM68 520q0 233 161 387q162 154 397 154q234 0 396 -154t162 -387t-163 -389t-396 -156t-396 156q-161 156 -161 389zM545 1188l149 260h201l-195 -260
h-155z" />
    <glyph glyph-name="ocircumflex" unicode="&#xf4;" horiz-adv-x="1251" 
d="M268 520q0 -160 104 -266t254 -106q149 0 252 104q103 106 103 267t-103 265q-104 104 -252 104t-253 -104t-105 -264zM68 520q0 233 161 387q162 154 397 154q234 0 396 -154t162 -387t-163 -389t-396 -156t-396 156q-161 156 -161 389zM354 1188l178 260h183l180 -260
h-162l-106 164h-4l-109 -164h-160z" />
    <glyph glyph-name="otilde" unicode="&#xf5;" horiz-adv-x="1251" 
d="M276 1190q0 260 211 260q59 0 107 -35t83 -69q36 -34 76 -35q40 0 60 41t21 92h133q0 -260 -211 -260q-60 0 -106 35t-83 69t-77 35q-40 0 -58 -40q-20 -40 -20 -93h-136zM268 520q0 -160 104 -266t254 -106q149 0 252 104q103 106 103 267t-103 265q-104 104 -252 104
t-253 -104t-105 -264zM68 520q0 233 161 387q162 154 397 154q234 0 396 -154t162 -387t-163 -389t-396 -156t-396 156q-161 156 -161 389z" />
    <glyph glyph-name="odieresis" unicode="&#xf6;" horiz-adv-x="1251" 
d="M268 520q0 -160 104 -266t254 -106q149 0 252 104q103 106 103 267t-103 265q-104 104 -252 104t-253 -104t-105 -264zM68 520q0 233 161 387q162 154 397 154q234 0 396 -154t162 -387t-163 -389t-396 -156t-396 156q-161 156 -161 389zM381 1241v207h151v-207h-151z
M719 1241v207h149v-207h-149z" />
    <glyph glyph-name="divide" unicode="&#xf7;" 
d="M492 90v186h194v-186h-194zM72 504v160h1034v-160h-1034zM492 891v186h194v-186h-194z" />
    <glyph glyph-name="oslash" unicode="&#xf8;" horiz-adv-x="1251" 
d="M625 147q150 -1 253 105t103 260t-94 254l-416 -582q70 -37 154 -37zM625 889q-147 -1 -251 -105t-105 -262q0 -158 106 -268l422 590q-80 45 -172 45zM625 1061q154 0 276 -70l82 115l98 -70l-80 -110q183 -162 183 -400t-163 -395q-163 -156 -396 -156q-143 0 -260 62
l-80 -115l-99 72l78 106q-197 156 -196 420q0 233 161 387q162 154 396 154z" />
    <glyph glyph-name="ugrave" unicode="&#xf9;" horiz-adv-x="1265" 
d="M535 1188l-195 260h201l149 -260h-155zM516 -25q-352 0 -352 398v448q0 45 -45 45h-84v170h194q70 0 101 -30t30 -97v-491q0 -123 41 -191t154 -67q154 0 246 114t92 277v485h199v-821q0 -45 45 -45h84v-170h-191q-131 0 -131 115v39l2 59h-4q-39 -90 -140 -164t-241 -74
z" />
    <glyph glyph-name="uacute" unicode="&#xfa;" horiz-adv-x="1265" 
d="M516 -25q-352 0 -352 398v448q0 45 -45 45h-84v170h194q70 0 101 -30t30 -97v-491q0 -123 41 -191t154 -67q154 0 246 114t92 277v485h199v-821q0 -45 45 -45h84v-170h-191q-131 0 -131 115v39l2 59h-4q-39 -90 -140 -164t-241 -74zM535 1188l149 260h201l-195 -260h-155
z" />
    <glyph glyph-name="ucircumflex" unicode="&#xfb;" horiz-adv-x="1265" 
d="M516 -25q-352 0 -352 398v448q0 45 -45 45h-84v170h194q70 0 101 -30t30 -97v-491q0 -123 41 -191t154 -67q154 0 246 114t92 277v485h199v-821q0 -45 45 -45h84v-170h-191q-131 0 -131 115v39l2 59h-4q-39 -90 -140 -164t-241 -74zM346 1188l178 260h183l180 -260h-162
l-107 164h-4l-108 -164h-160z" />
    <glyph glyph-name="udieresis" unicode="&#xfc;" horiz-adv-x="1265" 
d="M516 -25q-352 0 -352 398v448q0 45 -45 45h-84v170h194q70 0 101 -30t30 -97v-491q0 -123 41 -191t154 -67q154 0 246 114t92 277v485h199v-821q0 -45 45 -45h84v-170h-191q-131 0 -131 115v39l2 59h-4q-39 -90 -140 -164t-241 -74zM373 1241v207h151v-207h-151z
M711 1241v207h149v-207h-149z" />
    <glyph glyph-name="yacute" unicode="&#xfd;" horiz-adv-x="1112" 
d="M473 1188l150 260h200l-194 -260h-156zM238 -258q119 0 182 149l47 113l-354 821q-18 41 -64 41h-26v170h116q63 0 94 -22t56 -82l233 -584l37 -125h4q16 72 35 125l217 584q20 61 53 83t97 21h118v-170h-26q-47 0 -66 -41l-407 -1011q-50 -120 -138 -182t-177 -62
t-150 26t-88 52l-27 24l82 144q0 -2 18 -20t56 -36t78 -18z" />
    <glyph glyph-name="thorn" unicode="&#xfe;" horiz-adv-x="1196" 
d="M332 520q0 -192 85 -282t216 -90t211 102t80 268t-80 268t-212 102t-216 -88t-84 -280zM139 -410v1641q0 45 -45 45h-84v170h195q69 0 101 -31t32 -100v-334l-4 -90h4q98 170 316 170t344 -151q126 -152 126 -392t-126 -392t-334 -151q-174 0 -281 107q-25 25 -35 41
l-10 18h-4q4 -37 4 -90v-461h-199z" />
    <glyph glyph-name="ydieresis" unicode="&#xff;" horiz-adv-x="1112" 
d="M309 1241v207h152v-207h-152zM647 1241v207h150v-207h-150zM238 -258q119 0 182 149l47 113l-354 821q-18 41 -64 41h-26v170h116q63 0 94 -22t56 -82l233 -584l37 -125h4q16 72 35 125l217 584q20 61 53 83t97 21h118v-170h-26q-47 0 -66 -41l-407 -1011
q-50 -120 -138 -182t-177 -62t-150 26t-88 52l-27 24l82 144q0 -2 18 -20t56 -36t78 -18z" />
    <glyph glyph-name="Amacron" unicode="&#x100;" horiz-adv-x="1361" 
d="M422 1606v139h520v-139h-520zM465 588h432l-158 440l-57 203h-4q-31 -127 -55 -203zM25 0v176h28q53 0 68 45l452 1225h215l453 -1225q14 -45 68 -45h28v-176h-112q-76 0 -110 24t-60 95l-109 297h-530l-109 -297q-27 -71 -61 -95t-109 -24h-112z" />
    <glyph glyph-name="amacron" unicode="&#x101;" horiz-adv-x="1083" 
d="M266 1247v139h520v-139h-520zM256 301q0 -68 51 -118t144 -50q123 1 201 103t77 227v39h-53q-420 0 -420 -201zM57 283q0 362 627 362h45v14q0 131 -54 187t-175 57q-58 0 -114 -17t-56 -63v-59h-189v104q0 146 258 186q51 7 97 7q240 -1 336 -107t96 -299v-440
q0 -45 45 -45h84v-170h-189q-127 0 -127 119l2 61h-4q2 0 -16 -35t-73 -81q-108 -89 -248 -89q-139 -1 -242 83t-103 225z" />
    <glyph glyph-name="Abreve" unicode="&#x102;" horiz-adv-x="1361" 
d="M942 1778q0 -112 -78 -176t-183 -64t-184 64t-79 176v28h137v-26q0 -61 36 -92t89 -31t90 32t37 93v24h135v-28zM465 588h432l-158 440l-57 203h-4q-31 -127 -55 -203zM25 0v176h28q53 0 68 45l452 1225h215l453 -1225q14 -45 68 -45h28v-176h-112q-76 0 -110 24t-60 95
l-109 297h-530l-109 -297q-27 -71 -61 -95t-109 -24h-112z" />
    <glyph glyph-name="abreve" unicode="&#x103;" horiz-adv-x="1083" 
d="M786 1419q0 -113 -78 -176t-183 -63t-184 63t-79 176v29h137v-27q0 -61 36 -92t89 -31t90 32t37 93v25h135v-29zM256 301q0 -68 51 -118t144 -50q123 1 201 103t77 227v39h-53q-420 0 -420 -201zM57 283q0 362 627 362h45v14q0 131 -54 187t-175 57q-58 0 -114 -17
t-56 -63v-59h-189v104q0 146 258 186q51 7 97 7q240 -1 336 -107t96 -299v-440q0 -45 45 -45h84v-170h-189q-127 0 -127 119l2 61h-4q2 0 -16 -35t-73 -81q-108 -89 -248 -89q-139 -1 -242 83t-103 225z" />
    <glyph glyph-name="Aogonek" unicode="&#x104;" horiz-adv-x="1361" 
d="M465 588h432l-158 440l-57 203h-4q-31 -127 -55 -203zM25 0v176h28q53 0 68 45l452 1225h215l453 -1225q14 -45 68 -45h28v-176q-131 -111 -131 -182q0 -35 29 -57t57 -27l29 -4l-47 -154q-20 0 -72 15q-51 15 -83 35q-31 20 -57 58t-26 87q0 131 140 231v4q-49 6 -75 31
t-46 82l-109 297h-530l-109 -297q-27 -71 -61 -95t-109 -24h-112z" />
    <glyph glyph-name="aogonek" unicode="&#x105;" horiz-adv-x="1083" 
d="M260 301q0 -68 51 -117t157 -49q106 -1 184 103t77 227v37h-51q-418 0 -418 -201zM57 291q0 354 629 354h43v17q0 131 -54 186t-175 55q-58 0 -114 -17t-56 -63v-59h-189v104q0 146 259 186q52 7 100 7q238 0 333 -108t95 -298v-440q0 -45 45 -45h84v-170
q-133 -102 -133 -182q0 -35 28 -57t58 -27l28 -4l-47 -154q-19 0 -71 15t-84 35t-57 58q-26 38 -25 87q0 123 135 225v4h-37q-59 0 -86 33t-27 80v10l4 57h-4q-41 -86 -123 -145t-216 -59t-239 84q-104 84 -104 231z" />
    <glyph glyph-name="Cacute" unicode="&#x106;" horiz-adv-x="1429" 
d="M805 -25q-319 0 -526 218q-207 219 -207 537t208 530t517 210q169 0 343 -68q87 -34 143 -98t56 -147v-141h-188v82q0 84 -113 133t-237 49q-221 0 -369 -152t-147 -392t151 -404t371 -164q165 0 277 64q113 64 161 112l19 21l110 -148q-26 -33 -88 -79q-60 -46 -122 -78
t-159 -58t-200 -27zM709 1546l149 260h201l-195 -260h-155z" />
    <glyph glyph-name="cacute" unicode="&#x107;" horiz-adv-x="1085" 
d="M68 516q0 234 154 389q155 156 403 156q117 0 232 -47q60 -25 100 -72t40 -108v-107h-180v57q0 51 -62 79t-130 28q-154 1 -255 -103q-102 -104 -102 -271t106 -266t261 -99q86 0 167 36t118 70l36 37l84 -141q-17 -22 -62 -58q-153 -119 -357 -121q-245 -1 -399 153
t-154 388zM510 1188l149 260h201l-194 -260h-156z" />
    <glyph glyph-name="Ccircumflex" unicode="&#x108;" horiz-adv-x="1429" 
d="M805 -25q-319 0 -526 218q-207 219 -207 537t208 530t517 210q169 0 343 -68q87 -34 143 -98t56 -147v-141h-188v82q0 84 -113 133t-237 49q-221 0 -369 -152t-147 -392t151 -404t371 -164q165 0 277 64q113 64 161 112l19 21l110 -148q-26 -33 -88 -79q-60 -46 -122 -78
t-159 -58t-200 -27zM518 1546l178 260h183l180 -260h-162l-106 164h-5l-108 -164h-160z" />
    <glyph glyph-name="ccircumflex" unicode="&#x109;" horiz-adv-x="1085" 
d="M68 516q0 234 154 389q155 156 403 156q117 0 232 -47q60 -25 100 -72t40 -108v-107h-180v57q0 51 -62 79t-130 28q-154 1 -255 -103q-102 -104 -102 -271t106 -266t261 -99q86 0 167 36t118 70l36 37l84 -141q-17 -22 -62 -58q-153 -119 -357 -121q-245 -1 -399 153
t-154 388zM319 1188l179 260h182l180 -260h-162l-106 164h-4l-109 -164h-160z" />
    <glyph glyph-name="Cdotaccent" unicode="&#x10a;" horiz-adv-x="1429" 
d="M698 1599v207h179v-207h-179zM805 -25q-319 0 -526 218q-207 219 -207 537t208 530t517 210q169 0 343 -68q87 -34 143 -98t56 -147v-141h-188v82q0 84 -113 133t-237 49q-221 0 -369 -152t-147 -392t151 -404t371 -164q165 0 277 64q113 64 161 112l19 21l110 -148
q-26 -33 -88 -79q-60 -46 -122 -78t-159 -58t-200 -27z" />
    <glyph glyph-name="cdotaccent" unicode="&#x10b;" horiz-adv-x="1085" 
d="M500 1241v207h178v-207h-178zM68 516q0 234 154 389q155 156 403 156q117 0 232 -47q60 -25 100 -72t40 -108v-107h-180v57q0 51 -62 79t-130 28q-154 1 -255 -103q-102 -104 -102 -271t106 -266t261 -99q86 0 167 36t118 70l36 37l84 -141q-17 -22 -62 -58
q-153 -119 -357 -121q-245 -1 -399 153t-154 388z" />
    <glyph glyph-name="Ccaron" unicode="&#x10c;" horiz-adv-x="1429" 
d="M805 -25q-319 0 -526 218q-207 219 -207 537t208 530t517 210q169 0 343 -68q87 -34 143 -98t56 -147v-141h-188v82q0 84 -113 133t-237 49q-221 0 -369 -152t-147 -392t151 -404t371 -164q165 0 277 64q113 64 161 112l19 21l110 -148q-26 -33 -88 -79q-60 -46 -122 -78
t-159 -58t-200 -27zM698 1546l-180 260h162l106 -166h5l106 166h164l-180 -260h-183z" />
    <glyph glyph-name="ccaron" unicode="&#x10d;" horiz-adv-x="1085" 
d="M68 516q0 234 154 389q155 156 403 156q117 0 232 -47q60 -25 100 -72t40 -108v-107h-180v57q0 51 -62 79t-130 28q-154 1 -255 -103q-102 -104 -102 -271t106 -266t261 -99q86 0 167 36t118 70l36 37l84 -141q-17 -22 -62 -58q-153 -119 -357 -121q-245 -1 -399 153
t-154 388zM500 1188l-181 260h162l107 -166h4l106 166h164l-180 -260h-182z" />
    <glyph glyph-name="Dcaron" unicode="&#x10e;" horiz-adv-x="1462" 
d="M406 221q0 -45 45 -45h188q248 0 391 143q144 143 144 405t-144 403q-144 142 -391 143h-233v-1049zM201 131v1139h-133v176h585q334 0 534 -192q199 -192 199 -530q0 -340 -200 -532t-533 -192h-319q-70 0 -102 30t-31 101zM600 1546l-180 260h162l106 -166h4l107 166
h164l-181 -260h-182z" />
    <glyph glyph-name="dcaron" unicode="&#x10f;" horiz-adv-x="1230" 
d="M864 503q0 169 -76 277t-210 109q-134 -1 -220 -101t-86 -269t82 -270t211 -101t214 92q85 94 85 263zM72 519q0 245 130 393t337 149q133 0 212 -54t97 -89l10 -17h4q-2 31 -2 70v260q0 45 -45 45h-84v170h195q70 0 102 -31t31 -100v-1100q0 -45 45 -45h84v-170h-191
q-127 0 -127 111l2 53h-4q-60 -120 -206 -168q-61 -20 -134 -21q-208 -1 -332 149t-124 395zM1343 1326q0 -64 -49 -169h-141q39 100 39 164t-23 125h162q12 -56 12 -120z" />
    <glyph glyph-name="Dcroat" unicode="&#x110;" horiz-adv-x="1466" 
d="M410 221q0 -45 45 -45h188q248 0 391 143q144 143 144 405t-144 403q-144 142 -391 143h-233v-463h295v-168h-295v-418zM205 131v508h-99v168h99v463h-133v176h585q334 0 534 -192t200 -530q0 -340 -200 -532t-534 -192h-319q-70 0 -102 30t-31 101z" />
    <glyph glyph-name="dcroat" unicode="&#x111;" horiz-adv-x="1230" 
d="M864 503q0 169 -76 277t-210 109q-134 -1 -220 -101t-86 -269t82 -270t211 -101t214 92q85 94 85 263zM72 519q0 245 130 393t337 149q133 0 212 -54t97 -89l10 -17h4q-2 31 -2 70v182h-264v129h264v164h199v-164h158v-129h-158v-938q0 -45 45 -45h84v-170h-191
q-127 0 -127 111l2 53h-4q-60 -120 -206 -168q-61 -20 -134 -21q-208 -1 -332 149t-124 395z" />
    <glyph glyph-name="Emacron" unicode="&#x112;" horiz-adv-x="1169" 
d="M336 1606v139h520v-139h-520zM201 131v1139h-133v176h852q70 0 100 -31t31 -100v-182h-189v92q0 45 -45 45h-411v-453h507v-176h-507v-420q0 -45 45 -45h423q45 0 46 45v92h186v-182q0 -71 -31 -101t-100 -30h-641q-70 0 -102 30t-31 101z" />
    <glyph glyph-name="emacron" unicode="&#x113;" horiz-adv-x="1103" 
d="M317 1247v139h521v-139h-521zM281 635h555q-4 129 -75 201t-183 72t-194 -74q-83 -72 -103 -199zM68 524q0 238 147 388t365 149q218 0 336 -138t118 -348q0 -35 -6 -83h-756q8 -162 110 -253t249 -92q65 0 128 22t93 41t66 44l18 14l84 -145q-86 -71 -199 -110
q-112 -38 -203 -38q-242 0 -396 155q-154 156 -154 394z" />
    <glyph glyph-name="Ebreve" unicode="&#x114;" horiz-adv-x="1169" 
d="M856 1778q0 -112 -78 -176t-183 -64t-184 64t-79 176v28h137v-26q0 -61 36 -92t89 -31t90 32t37 93v24h135v-28zM201 131v1139h-133v176h852q70 0 100 -31t31 -100v-182h-189v92q0 45 -45 45h-411v-453h507v-176h-507v-420q0 -45 45 -45h423q45 0 46 45v92h186v-182
q0 -71 -31 -101t-100 -30h-641q-70 0 -102 30t-31 101z" />
    <glyph glyph-name="ebreve" unicode="&#x115;" horiz-adv-x="1103" 
d="M579 1180q-105 0 -185 63q-79 63 -79 176v29h138v-27q-1 -61 35 -92t90 -31t90 32q37 32 37 93v25h135v-29q0 -113 -78 -176t-183 -63zM281 635h555q-4 129 -75 201t-183 72t-194 -74q-83 -72 -103 -199zM68 524q0 238 147 388t365 149q218 0 336 -138t118 -348
q0 -35 -6 -83h-756q8 -162 110 -253t249 -92q65 0 128 22t93 41t66 44l18 14l84 -145q-86 -71 -199 -110q-112 -38 -203 -38q-242 0 -396 155q-154 156 -154 394z" />
    <glyph glyph-name="Edotaccent" unicode="&#x116;" horiz-adv-x="1169" 
d="M506 1599v207h178v-207h-178zM201 131v1139h-133v176h852q70 0 100 -31t31 -100v-182h-189v92q0 45 -45 45h-411v-453h507v-176h-507v-420q0 -45 45 -45h423q45 0 46 45v92h186v-182q0 -71 -31 -101t-100 -30h-641q-70 0 -102 30t-31 101z" />
    <glyph glyph-name="edotaccent" unicode="&#x117;" horiz-adv-x="1103" 
d="M487 1241v207h179v-207h-179zM281 635h555q-4 129 -75 201t-183 72t-194 -74q-83 -72 -103 -199zM68 524q0 238 147 388t365 149q218 0 336 -138t118 -348q0 -35 -6 -83h-756q8 -162 110 -253t249 -92q65 0 128 22t93 41t66 44l18 14l84 -145q-86 -71 -199 -110
q-112 -38 -203 -38q-242 0 -396 155q-154 156 -154 394z" />
    <glyph glyph-name="Eogonek" unicode="&#x118;" horiz-adv-x="1169" 
d="M201 131v1139h-133v176h852q70 0 100 -31t31 -100v-182h-189v92q0 45 -45 45h-411v-453h507v-176h-507v-420q0 -45 45 -45h423q45 0 46 45v92h186v-182q0 -82 -75 -141t-99 -100q-25 -41 -25 -74t28 -55t56 -27l29 -4l-47 -154q-20 0 -72 15q-51 15 -83 35t-58 58t-25 87
q0 123 133 225v4h-534q-70 0 -102 30t-31 101z" />
    <glyph glyph-name="eogonek" unicode="&#x119;" horiz-adv-x="1105" 
d="M281 629h555q-4 131 -75 204t-183 73t-194 -74q-83 -74 -103 -203zM68 524q0 238 147 388t365 149q218 0 336 -137t118 -349q0 -29 -6 -77h-756q8 -164 110 -257t249 -94q65 0 128 22t93 41t66 44l18 14l84 -145q-18 -19 -99 -77t-128 -112t-47 -103q0 -48 28 -70
q29 -22 57 -27l27 -4l-47 -154q-20 0 -72 15q-51 15 -83 35t-58 58t-25 87q0 104 115 206v5q-33 -6 -70 -7q-242 0 -396 155q-154 156 -154 394z" />
    <glyph glyph-name="Ecaron" unicode="&#x11a;" horiz-adv-x="1169" 
d="M201 131v1139h-133v176h852q70 0 100 -31t31 -100v-182h-189v92q0 45 -45 45h-411v-453h507v-176h-507v-420q0 -45 45 -45h423q45 0 46 45v92h186v-182q0 -71 -31 -101t-100 -30h-641q-70 0 -102 30t-31 101zM504 1546l-180 260h161l107 -166h4l106 166h164l-180 -260
h-182z" />
    <glyph glyph-name="ecaron" unicode="&#x11b;" horiz-adv-x="1103" 
d="M281 635h555q-4 129 -75 201t-183 72t-194 -74q-83 -72 -103 -199zM68 524q0 238 147 388t365 149q218 0 336 -138t118 -348q0 -35 -6 -83h-756q8 -162 110 -253t249 -92q65 0 128 22t93 41t66 44l18 14l84 -145q-86 -71 -199 -110q-112 -38 -203 -38q-242 0 -396 155
q-154 156 -154 394zM487 1188l-180 260h162l106 -166h5l106 166h164l-180 -260h-183z" />
    <glyph glyph-name="Gcircumflex" unicode="&#x11c;" horiz-adv-x="1490" 
d="M72 720q0 322 209 536t520 214q155 0 283 -45t182 -90l51 -43l-117 -149q-18 16 -50 39q-32 24 -135 62t-210 38q-219 0 -370 -157t-151 -401t150 -400t375 -156q150 0 251 59t144 103l17 18v146q0 45 -45 45h-89v176h189q70 0 102 -31t31 -100v-584h-180v90l2 62h-4
q-71 -70 -143 -104q-152 -71 -308 -73q-297 0 -501 211q-203 212 -203 534zM524 1546l178 260h183l180 -260h-162l-106 164h-4l-109 -164h-160z" />
    <glyph glyph-name="gcircumflex" unicode="&#x11d;" horiz-adv-x="1214" 
d="M274 545q0 -161 81 -261t211 -100t207 84t77 273q0 348 -293 348q-133 0 -208 -91t-75 -253zM512 -254q150 0 243 71q91 71 91 218v69l2 66h-4q-96 -158 -307 -158t-338 151t-127 380t122 373t332 145q143 0 226 -55t108 -107h4q-2 16 -2 33q0 104 117 104h192v-170h-84
q-45 0 -45 -41v-782q0 -123 -44 -217q-80 -171 -284 -229q-91 -27 -194 -27q-184 0 -352 86l65 160q129 -70 279 -70zM340 1188l178 260h182l181 -260h-162l-107 164h-4l-108 -164h-160z" />
    <glyph glyph-name="Gbreve" unicode="&#x11e;" horiz-adv-x="1490" 
d="M1055 1778q0 -112 -78 -176t-183 -64q-104 0 -184 64t-80 176v28h138v-26q0 -61 37 -92t89 -31t89 32t37 93v24h135v-28zM72 720q0 322 209 536t520 214q155 0 283 -45t182 -90l51 -43l-117 -149q-18 16 -50 39q-32 24 -135 62t-210 38q-219 0 -370 -157t-151 -401
t150 -400t375 -156q150 0 251 59t144 103l17 18v146q0 45 -45 45h-89v176h189q70 0 102 -31t31 -100v-584h-180v90l2 62h-4q-71 -70 -143 -104q-152 -71 -308 -73q-297 0 -501 211q-203 212 -203 534z" />
    <glyph glyph-name="gbreve" unicode="&#x11f;" horiz-adv-x="1214" 
d="M870 1419q0 -113 -78 -176t-183 -63t-184 63t-79 176v29h137v-27q0 -61 37 -92t89 -31t89 32t37 93v25h135v-29zM274 545q0 -161 81 -261t211 -100t207 84t77 273q0 348 -293 348q-133 0 -208 -91t-75 -253zM512 -254q150 0 243 71q91 71 91 218v69l2 66h-4
q-96 -158 -307 -158t-338 151t-127 380t122 373t332 145q143 0 226 -55t108 -107h4q-2 16 -2 33q0 104 117 104h192v-170h-84q-45 0 -45 -41v-782q0 -123 -44 -217q-80 -171 -284 -229q-91 -27 -194 -27q-184 0 -352 86l65 160q129 -70 279 -70z" />
    <glyph glyph-name="Gdotaccent" unicode="&#x120;" horiz-adv-x="1490" 
d="M705 1599v207h178v-207h-178zM72 720q0 322 209 536t520 214q155 0 283 -45t182 -90l51 -43l-117 -149q-18 16 -50 39q-32 24 -135 62t-210 38q-219 0 -370 -157t-151 -401t150 -400t375 -156q150 0 251 59t144 103l17 18v146q0 45 -45 45h-89v176h189q70 0 102 -31
t31 -100v-584h-180v90l2 62h-4q-71 -70 -143 -104q-152 -71 -308 -73q-297 0 -501 211q-203 212 -203 534z" />
    <glyph glyph-name="gdotaccent" unicode="&#x121;" horiz-adv-x="1214" 
d="M520 1241v207h178v-207h-178zM274 545q0 -161 81 -261t211 -100t207 84t77 273q0 348 -293 348q-133 0 -208 -91t-75 -253zM512 -254q150 0 243 71q91 71 91 218v69l2 66h-4q-96 -158 -307 -158t-338 151t-127 380t122 373t332 145q143 0 226 -55t108 -107h4q-2 16 -2 33
q0 104 117 104h192v-170h-84q-45 0 -45 -41v-782q0 -123 -44 -217q-80 -171 -284 -229q-91 -27 -194 -27q-184 0 -352 86l65 160q129 -70 279 -70z" />
    <glyph glyph-name="Gcommaaccent" unicode="&#x122;" horiz-adv-x="1490" 
d="M72 720q0 322 209 536t520 214q155 0 283 -45t182 -90l51 -43l-117 -149q-18 16 -50 39q-32 24 -135 62t-210 38q-219 0 -370 -157t-151 -401t150 -400t375 -156q150 0 251 59t144 103l17 18v146q0 45 -45 45h-89v176h189q70 0 102 -31t31 -100v-584h-180v90l2 62h-4
q-71 -70 -143 -104q-152 -71 -308 -73q-297 0 -501 211q-203 212 -203 534zM870 -240q0 -64 -49 -170h-141q39 100 39 164t-23 125h162q12 -55 12 -119z" />
    <glyph glyph-name="gcommaaccent" unicode="&#x123;" horiz-adv-x="1214" 
d="M274 545q0 -161 81 -261t211 -100t207 84t77 273q0 348 -293 348q-133 0 -208 -91t-75 -253zM512 -254q150 0 243 71q91 71 91 218v69l2 66h-4q-96 -158 -307 -158t-338 151t-127 380t122 373t332 145q143 0 226 -55t108 -107h4q-2 16 -2 33q0 104 117 104h192v-170h-84
q-45 0 -45 -41v-782q0 -123 -44 -217q-80 -171 -284 -229q-91 -27 -194 -27q-184 0 -352 86l65 160q129 -70 279 -70zM641 1282q0 -64 23 -125h-162q-12 55 -12 119t49 170h141q-39 -100 -39 -164z" />
    <glyph glyph-name="Hcircumflex" unicode="&#x124;" horiz-adv-x="1550" 
d="M203 0v1225q0 45 -45 45h-88v176h206q70 0 101 -31t31 -100v-506h735v506q0 71 32 101t101 30h205v-176h-88q-45 0 -45 -45v-1225h-205v635h-735v-635h-205zM506 1546l178 260h182l181 -260h-162l-107 164h-4l-108 -164h-160z" />
    <glyph glyph-name="hcircumflex" unicode="&#x125;" horiz-adv-x="1239" 
d="M137 0v1231q0 45 -45 45h-84v170h195q133 0 133 -127v-404l-4 -86h4q41 90 141 161t242 71q356 0 356 -397v-449q0 -45 45 -45h84v-170h-196q-70 0 -101 31t-30 100v487q0 125 -40 193t-156 68t-206 -72q-139 -111 -139 -322v-485h-199zM-27 1546l179 260h182l180 -260
h-162l-106 164h-4l-109 -164h-160z" />
    <glyph glyph-name="Hbar" unicode="&#x126;" horiz-adv-x="1556" 
d="M410 809h737v244h-737v-244zM205 0v1053h-133v139h133v254h205v-254h737v254h205v-254h133v-139h-133v-1053h-205v635h-737v-635h-205z" />
    <glyph glyph-name="hbar" unicode="&#x127;" horiz-adv-x="1239" 
d="M137 0v1153h-155v129h155v164h199v-164h262v-129h-262v-238l-4 -86h4q16 54 104 136q45 41 119 69t160 27q356 0 356 -397v-449q0 -45 45 -45h84v-170h-196q-70 0 -101 31t-30 100v487q0 123 -40 192t-155 69q-154 0 -250 -113t-96 -281v-485h-199z" />
    <glyph glyph-name="Itilde" unicode="&#x128;" horiz-adv-x="651" 
d="M-23 1548q0 260 211 260q58 0 106 -34t84 -70q36 -35 76 -35t60 41t21 92h133q0 -260 -211 -260q-59 0 -105 35t-84 70q-36 35 -76 35t-60 -41q-20 -40 -19 -93h-136zM86 0v176h141v1094h-141v176h477v-176h-139v-1094h139v-176h-477z" />
    <glyph glyph-name="itilde" unicode="&#x129;" horiz-adv-x="542" 
d="M172 131v690q0 45 -45 45h-84v170h195q70 0 102 -30t31 -101v-690q0 -45 45 -45h84v-170h-197q-71 0 -101 30t-30 101zM-47 1190q0 260 188 260q39 0 74 -22t54 -46q53 -68 83 -67q70 0 70 129h131q0 -260 -188 -260q-39 0 -74 20t-54 46q-48 65 -83 67q-70 0 -70 -127
h-131z" />
    <glyph glyph-name="Imacron" unicode="&#x12a;" horiz-adv-x="651" 
d="M66 1606v139h520v-139h-520zM86 0v176h141v1094h-141v176h477v-176h-139v-1094h139v-176h-477z" />
    <glyph glyph-name="imacron" unicode="&#x12b;" horiz-adv-x="542" 
d="M172 131v690q0 45 -45 45h-84v170h195q70 0 102 -30t31 -101v-690q0 -45 45 -45h84v-170h-197q-71 0 -101 30t-30 101zM20 1247v139h474v-139h-474z" />
    <glyph glyph-name="Ibreve" unicode="&#x12c;" horiz-adv-x="651" 
d="M588 1778q0 -112 -78 -176t-183 -64t-185 64t-79 176v28h138v-26q0 -61 37 -92t89 -31t89 32t37 93v24h135v-28zM86 0v176h141v1094h-141v176h477v-176h-139v-1094h139v-176h-477z" />
    <glyph glyph-name="ibreve" unicode="&#x12d;" horiz-adv-x="542" 
d="M172 131v690q0 45 -45 45h-84v170h195q70 0 102 -30t31 -101v-690q0 -45 45 -45h84v-170h-197q-71 0 -101 30t-30 101zM255 1178q-105 0 -184 64t-79 177v27h137v-25q0 -61 37 -93t89 -32t89 32t37 93v25h137v-27q0 -113 -79 -177t-184 -64z" />
    <glyph glyph-name="Iogonek" unicode="&#x12e;" horiz-adv-x="651" 
d="M86 0v176h141v1094h-141v176h477v-176h-139v-1094h139v-176q-131 -111 -131 -182q0 -35 29 -57t57 -27l29 -4l-47 -154q-20 0 -72 15q-51 15 -83 35q-31 20 -57 58t-26 87q0 121 131 225v4h-307z" />
    <glyph glyph-name="iogonek" unicode="&#x12f;" horiz-adv-x="542" 
d="M172 166v655q0 45 -45 45h-84v170h195q70 0 102 -30t31 -101v-690q0 -45 45 -45h84v-170q-131 -106 -131 -182q1 -35 29 -57t57 -27l26 -4l-47 -154q-19 0 -71 15q-51 15 -83 35t-58 58t-25 87q0 125 133 225v4h-41q-117 0 -117 166zM176 1239v207h178v-207h-178z" />
    <glyph glyph-name="Idotaccent" unicode="&#x130;" horiz-adv-x="651" 
d="M233 1599v207h179v-207h-179zM86 0v176h141v1094h-141v176h477v-176h-139v-1094h139v-176h-477z" />
    <glyph glyph-name="dotlessi" unicode="&#x131;" horiz-adv-x="542" 
d="M172 131v690q0 45 -45 45h-84v170h195q70 0 102 -30t31 -101v-690q0 -45 45 -45h84v-170h-197q-71 0 -101 30t-30 101z" />
    <glyph glyph-name="IJ" unicode="&#x132;" horiz-adv-x="1382" 
d="M86 0v176h141v1094h-141v176h477v-176h-139v-1094h139v-176h-477zM745 176q106 0 185 56q98 70 98 260v733q0 45 -45 45h-229v176h348q70 0 100 -31t31 -100v-826q0 -296 -162 -407q-137 -92 -326 -92v186z" />
    <glyph glyph-name="ij" unicode="&#x133;" horiz-adv-x="1042" 
d="M713 -23v844q0 45 -45 45h-84v170h196q70 0 101 -30t30 -101v-940q1 -98 -29 -172t-72 -114q-106 -101 -296 -101l-70 4v170q18 -2 69 -2t117 37q83 44 83 190zM717 1239v207h178v-207h-178zM172 131v690q0 45 -45 45h-84v170h195q70 0 102 -30t31 -101v-690
q0 -45 45 -45h84v-170h-197q-71 0 -101 30t-30 101zM176 1239v207h178v-207h-178z" />
    <glyph glyph-name="Jcircumflex" unicode="&#x134;" horiz-adv-x="1046" 
d="M33 416v71h205v-55q0 -139 66 -202q67 -62 162 -62t161 62t65 194v801q0 45 -45 45h-354v176h471q70 0 102 -31t31 -100v-899q0 -219 -127 -330t-305 -111t-305 112t-127 329zM309 1546l178 260h183l180 -260h-162l-106 164h-4l-109 -164h-160z" />
    <glyph glyph-name="jcircumflex" unicode="&#x135;" horiz-adv-x="497" 
d="M172 -25v852q0 45 -51 45h-78v164h190q72 0 103 -26t31 -92v-953q0 -98 -30 -172t-71 -114q-104 -101 -293 -101l-69 4v166q18 -2 50 -2t64 8q154 38 154 221zM-55 1186l180 260h180l180 -260h-161l-109 168l-109 -168h-161z" />
    <glyph glyph-name="Kcommaaccent" unicode="&#x136;" horiz-adv-x="1253" 
d="M203 0v1225q0 45 -45 45h-88v176h206q70 0 101 -31t31 -100v-477h137q90 0 119 49l321 559h229l-350 -600q-32 -58 -69 -88l-13 -6v-4q41 -10 82 -91l217 -434q23 -47 103 -47h39v-176h-113q-88 0 -128 20t-73 89l-250 501q-29 53 -129 54h-122v-664h-205zM596 -246
q0 64 -23 125h162q13 -55 13 -119t-50 -170h-141q39 100 39 164z" />
    <glyph glyph-name="kcommaaccent" unicode="&#x137;" horiz-adv-x="1050" 
d="M137 0v1231q0 45 -45 45h-84v170h195q73 0 103 -26t30 -93v-672h92q74 0 107 45l239 336h230l-283 -385q-35 -51 -78 -78v-4q35 -12 70 -77l153 -281q23 -41 90 -41h62v-170h-144q-72 0 -104 18t-65 78l-191 348q-23 43 -102 43h-76v-487h-199zM633 -240q0 -64 -49 -170
h-142q40 100 40 164t-23 125h162q12 -55 12 -119z" />
    <glyph glyph-name="kgreenlandic" unicode="&#x138;" horiz-adv-x="1083" 
d="M174 0v821q0 45 -45 45h-84v170h197q72 0 102 -26t29 -92v-304h92q78 0 108 43l250 379h226l-293 -424q-40 -58 -74 -75v-5q31 -12 66 -79l133 -242q23 -41 90 -41h71v-170h-151q-72 0 -106 18t-66 78l-168 307q-20 41 -100 41h-78v-444h-199z" />
    <glyph glyph-name="Lacute" unicode="&#x139;" horiz-adv-x="1107" 
d="M201 131v1094q0 45 -45 45h-88v176h206q70 0 101 -31t31 -100v-1094q0 -45 45 -45h401q45 0 45 45v92h186v-182q-1 -71 -31 -101t-100 -30h-618q-70 0 -102 30t-31 101zM242 1546l149 260h201l-195 -260h-155z" />
    <glyph glyph-name="lacute" unicode="&#x13a;" horiz-adv-x="509" 
d="M137 131v1100q0 45 -45 45h-82v170h195q71 0 101 -31t30 -100v-1100q0 -45 45 -45h84v-170h-195q-70 0 -102 30t-31 101zM131 1546l150 260h200l-194 -260h-156z" />
    <glyph glyph-name="Lcommaaccent" unicode="&#x13b;" horiz-adv-x="1107" 
d="M201 131v1094q0 45 -45 45h-88v176h206q70 0 101 -31t31 -100v-1094q0 -45 45 -45h401q45 0 45 45v92h186v-182q-1 -71 -31 -101t-100 -30h-618q-70 0 -102 30t-31 101zM727 -240q0 -64 -49 -170h-141q39 100 39 164t-23 125h162q12 -55 12 -119z" />
    <glyph glyph-name="lcommaaccent" unicode="&#x13c;" horiz-adv-x="509" 
d="M137 131v1100q0 45 -45 45h-82v170h195q71 0 101 -31t30 -100v-1100q0 -45 45 -45h84v-170h-195q-70 0 -102 30t-31 101zM356 -240q0 -64 -49 -170h-141q39 100 39 164t-23 125h162q12 -55 12 -119z" />
    <glyph glyph-name="Lcaron" unicode="&#x13d;" horiz-adv-x="1110" 
d="M201 131v1094q0 45 -45 45h-88v176h206q70 0 101 -31t31 -100v-1094q0 -45 45 -45h401q45 0 45 45v92h186v-182q-1 -71 -31 -101t-100 -30h-618q-70 0 -102 30t-31 101zM580 1446h161q13 -56 13 -120t-49 -169h-142q39 100 39 164t-22 125z" />
    <glyph glyph-name="lcaron" unicode="&#x13e;" horiz-adv-x="509" 
d="M137 131v1100q0 45 -45 45h-82v170h195q71 0 101 -31t30 -100v-1100q0 -45 45 -45h84v-170h-195q-70 0 -102 30t-31 101zM451 1446h161q12 -56 12 -120t-49 -169h-141q40 100 40 164t-23 125z" />
    <glyph glyph-name="Ldot" unicode="&#x13f;" horiz-adv-x="1110" 
d="M635 670v211h203v-211h-203zM201 131v1094q0 45 -45 45h-88v176h206q70 0 101 -31t31 -100v-1094q0 -45 45 -45h401q45 0 45 45v92h186v-182q-1 -71 -31 -101t-100 -30h-618q-70 0 -102 30t-31 101z" />
    <glyph glyph-name="ldot" unicode="&#x140;" horiz-adv-x="696" 
d="M481 670v211h203v-211h-203zM137 131v1100q0 45 -45 45h-82v170h195q71 0 101 -31t30 -100v-1100q0 -45 45 -45h84v-170h-195q-70 0 -102 30t-31 101z" />
    <glyph glyph-name="Lslash" unicode="&#x141;" horiz-adv-x="1114" 
d="M207 131v490l-129 -74v198l129 74v406q0 45 -45 45h-88v176h207q71 0 101 -31t30 -100v-379l213 123v-199l-213 -123v-516q0 -45 45 -45h399q45 0 45 45v92h189v-182q0 -71 -32 -101t-102 -30h-618q-70 0 -100 30t-31 101z" />
    <glyph glyph-name="lslash" unicode="&#x142;" horiz-adv-x="540" 
d="M162 131v526l-154 -88v199l154 90v373q0 45 -45 45h-84v170h196q70 0 101 -31t30 -100v-344l160 92v-199l-160 -94v-555q0 -45 46 -45h83v-170h-196q-71 0 -101 30t-30 101z" />
    <glyph glyph-name="Nacute" unicode="&#x143;" horiz-adv-x="1550" 
d="M70 0v176h88q45 0 45 45v1225h186l643 -916l121 -196h4q-14 117 -14 196v785q0 71 32 101t101 30h205v-176h-88q-45 0 -45 -45v-1225h-185l-645 915l-119 197h-4q12 -117 13 -197v-784q0 -71 -31 -101t-101 -30h-206zM715 1546l149 260h201l-195 -260h-155z" />
    <glyph glyph-name="nacute" unicode="&#x144;" horiz-adv-x="1275" 
d="M174 0v821q0 45 -45 45h-84v170h191q131 0 131 -114v-39l-5 -60h5q41 88 140 163t251 75q354 0 354 -397v-449q0 -45 45 -45h84v-170h-197q-70 0 -100 31t-31 100v487q0 125 -40 193q-39 68 -155 68t-205 -71t-122 -183q-18 -53 -18 -140v-485h-199zM580 1188l149 260
h201l-195 -260h-155z" />
    <glyph glyph-name="Ncommaaccent" unicode="&#x145;" horiz-adv-x="1550" 
d="M70 0v176h88q45 0 45 45v1225h186l643 -916l121 -196h4q-14 117 -14 196v785q0 71 32 101t101 30h205v-176h-88q-45 0 -45 -45v-1225h-185l-645 915l-119 197h-4q12 -117 13 -197v-784q0 -71 -31 -101t-101 -30h-206zM860 -240q0 -64 -49 -170h-141q39 100 39 164
t-23 125h162q12 -55 12 -119z" />
    <glyph glyph-name="ncommaaccent" unicode="&#x146;" horiz-adv-x="1275" 
d="M174 0v821q0 45 -45 45h-84v170h191q131 0 131 -114v-39l-5 -60h5q41 88 140 163t251 75q354 0 354 -397v-449q0 -45 45 -45h84v-170h-197q-70 0 -100 31t-31 100v487q0 125 -40 193q-39 68 -155 68t-205 -71t-122 -183q-18 -53 -18 -140v-485h-199zM582 -121h161
q13 -55 13 -119t-49 -170h-142q39 100 39 164t-22 125z" />
    <glyph glyph-name="Ncaron" unicode="&#x147;" horiz-adv-x="1550" 
d="M70 0v176h88q45 0 45 45v1225h186l643 -916l121 -196h4q-14 117 -14 196v785q0 71 32 101t101 30h205v-176h-88q-45 0 -45 -45v-1225h-185l-645 915l-119 197h-4q12 -117 13 -197v-784q0 -71 -31 -101t-101 -30h-206zM705 1546l-181 260h162l107 -166h4l106 166h164
l-180 -260h-182z" />
    <glyph glyph-name="ncaron" unicode="&#x148;" horiz-adv-x="1275" 
d="M174 0v821q0 45 -45 45h-84v170h191q131 0 131 -114v-39l-5 -60h5q41 88 140 163t251 75q354 0 354 -397v-449q0 -45 45 -45h84v-170h-197q-70 0 -100 31t-31 100v487q0 125 -40 193q-39 68 -155 68t-205 -71t-122 -183q-18 -53 -18 -140v-485h-199zM569 1188l-180 260
h162l106 -166h5l106 166h164l-180 -260h-183z" />
    <glyph glyph-name="napostrophe" unicode="&#x149;" horiz-adv-x="1275" 
d="M174 0v821q0 45 -45 45h-84v170h191q131 0 131 -114v-39l-5 -60h5q41 88 140 163t251 75q354 0 354 -397v-449q0 -45 45 -45h84v-170h-197q-70 0 -100 31t-31 100v487q0 125 -40 193q-39 68 -155 68t-205 -71t-122 -183q-18 -53 -18 -140v-485h-199zM106 1326
q0 -64 -49 -169h-141q39 100 39 164t-23 125h162q12 -56 12 -120z" />
    <glyph glyph-name="Eng" unicode="&#x14a;" horiz-adv-x="1550" 
d="M70 0v176h88q45 0 45 45v1225h186l643 -916l121 -196h4q-14 117 -14 196v785q0 71 32 101t101 30h205v-176h-88q-45 0 -45 -45v-1170q0 -367 -307 -452q-79 -23 -169 -23v187q100 0 186 62q85 62 85 189v15l-625 882l-119 197h-4q12 -117 13 -197v-784q0 -71 -31 -101
t-101 -30h-206z" />
    <glyph glyph-name="eng" unicode="&#x14b;" horiz-adv-x="1228" 
d="M174 0v821q0 45 -45 45h-84v170h191q131 0 131 -114v-39l-5 -60h5q41 88 140 163t251 75q354 0 354 -397v-705q0 -98 -30 -172t-72 -114q-105 -101 -295 -101l-70 4v170q18 -2 70 -2t102 30q98 58 96 199v645q0 125 -40 193q-39 68 -155 68t-206 -72q-139 -111 -139 -322
v-485h-199z" />
    <glyph glyph-name="Omacron" unicode="&#x14c;" horiz-adv-x="1624" 
d="M811 1280q-221 0 -375 -158t-153 -392q-1 -234 153 -398t375 -164t376 164t155 398t-155 392t-376 158zM70 729q0 315 214 528t527 213t528 -213t215 -528t-215 -534t-528 -219t-527 218q-214 220 -214 535zM547 1606v139h520v-139h-520z" />
    <glyph glyph-name="omacron" unicode="&#x14d;" horiz-adv-x="1251" 
d="M268 520q0 -160 104 -266t254 -106q149 0 252 104q103 106 103 267t-103 265q-104 104 -252 104t-253 -104t-105 -264zM68 520q0 233 161 387q162 154 397 154q234 0 396 -154t162 -387t-163 -389t-396 -156t-396 156q-161 156 -161 389zM365 1247v139h520v-139h-520z
" />
    <glyph glyph-name="Obreve" unicode="&#x14e;" horiz-adv-x="1624" 
d="M1067 1778q0 -112 -78 -176t-183 -64t-184 64t-79 176v28h137v-26q0 -61 37 -92t89 -31t89 32t37 93v24h135v-28zM811 1280q-221 0 -375 -158t-153 -392q-1 -234 153 -398t375 -164t376 164t155 398t-155 392t-376 158zM70 729q0 315 214 528t527 213t528 -213t215 -528
t-215 -534t-528 -219t-527 218q-214 220 -214 535z" />
    <glyph glyph-name="obreve" unicode="&#x14f;" horiz-adv-x="1251" 
d="M626 1180q-105 0 -185 63q-79 63 -79 176v29h138v-27q0 -61 37 -92t89 -31t89 32t37 93v25h135v-29q0 -113 -78 -176t-183 -63zM268 520q0 -160 104 -266t254 -106q149 0 252 104q103 106 103 267t-103 265q-104 104 -252 104t-253 -104t-105 -264zM68 520q0 233 161 387
q162 154 397 154q234 0 396 -154t162 -387t-163 -389t-396 -156t-396 156q-161 156 -161 389z" />
    <glyph glyph-name="Ohungarumlaut" unicode="&#x150;" horiz-adv-x="1624" 
d="M811 1280q-221 0 -375 -158t-153 -392q-1 -234 153 -398t375 -164t376 164t155 398t-155 392t-376 158zM70 729q0 315 214 528t527 213t528 -213t215 -528t-215 -534t-528 -219t-527 218q-214 220 -214 535zM563 1546l142 260h172l-144 -260h-170zM877 1546l147 260h203
l-197 -260h-153z" />
    <glyph glyph-name="ohungarumlaut" unicode="&#x151;" horiz-adv-x="1251" 
d="M268 520q0 -160 104 -266t254 -106q149 0 252 104q103 106 103 267t-103 265q-104 104 -252 104t-253 -104t-105 -264zM68 520q0 233 161 387q162 154 397 154q234 0 396 -154t162 -387t-163 -389t-396 -156t-396 156q-161 156 -161 389zM383 1188l141 260h172l-143 -260
h-170zM696 1188l148 260h203l-197 -260h-154z" />
    <glyph glyph-name="OE" unicode="&#x152;" horiz-adv-x="1921" 
d="M285 724q0 -240 138 -396t359 -156q111 0 183 16v1069q-72 16 -183 17q-221 0 -359 -156t-138 -394zM70 725q0 313 204 526q205 213 508 213l293 -18h594q71 0 101 -31t30 -100v-182h-186v92q0 45 -45 45h-400v-453h494v-176h-494v-465h455q45 0 45 45v92h189v-182
q0 -71 -30 -101t-95 -30h-656l-295 -18q-303 0 -508 215q-204 215 -204 528z" />
    <glyph glyph-name="oe" unicode="&#x153;" horiz-adv-x="2023" 
d="M268 517q0 -165 104 -267t252 -102q149 0 253 102q104 104 104 269t-105 267q-104 102 -252 102t-252 -102q-104 -104 -104 -269zM1202 637h549q-6 125 -74 196q-69 71 -179 71t-193 -70t-103 -197zM68 516q0 240 160 392t395 153q153 0 269 -66t185 -180h4
q129 246 428 246q211 0 329 -138t118 -348l-6 -83h-758q12 -166 114 -255t244 -90q80 0 156 31t113 62l34 30l86 -143q-18 -16 -50 -42t-136 -68t-213 -42q-315 0 -455 252h-4q-147 -252 -458 -252q-233 1 -394 151t-161 390z" />
    <glyph glyph-name="Racute" unicode="&#x154;" horiz-adv-x="1273" 
d="M406 752h268q116 0 182 70t66 191t-66 189t-180 68h-270v-518zM201 0v1270h-133v176h632q193 0 313 -115t120 -294t-84 -278t-179 -120v-4q37 -18 62 -66l174 -346q25 -47 104 -47h27v-176h-100q-90 0 -129 20t-74 89l-197 389q-25 49 -52 63q-28 14 -89 14h-190v-575
h-205zM498 1546l149 260h201l-195 -260h-155z" />
    <glyph glyph-name="racute" unicode="&#x155;" horiz-adv-x="770" 
d="M174 0v821q0 45 -45 45h-84v170h191q131 0 131 -121v-65l-5 -72h5q39 119 126 195t201 76l54 -5v-196q-27 6 -58 6q-98 0 -177 -64q-142 -116 -140 -366v-424h-199zM328 1188l149 260h201l-195 -260h-155z" />
    <glyph glyph-name="Rcommaaccent" unicode="&#x156;" horiz-adv-x="1273" 
d="M406 752h268q116 0 182 70t66 191t-66 189t-180 68h-270v-518zM201 0v1270h-133v176h632q193 0 313 -115t120 -294t-84 -278t-179 -120v-4q37 -18 62 -66l174 -346q25 -47 104 -47h27v-176h-100q-90 0 -129 20t-74 89l-197 389q-25 49 -52 63q-28 14 -89 14h-190v-575
h-205zM780 -240q0 -64 -49 -170h-141q39 100 39 164t-23 125h162q12 -55 12 -119z" />
    <glyph glyph-name="rcommaaccent" unicode="&#x157;" horiz-adv-x="770" 
d="M174 0v821q0 45 -45 45h-84v170h191q131 0 131 -121v-65l-5 -72h5q39 119 126 195t201 76l54 -5v-196q-27 6 -58 6q-98 0 -177 -64q-142 -116 -140 -366v-424h-199zM201 -121h161q12 -55 12 -119t-48 -170h-142q40 100 40 164t-23 125z" />
    <glyph glyph-name="Rcaron" unicode="&#x158;" horiz-adv-x="1273" 
d="M406 752h268q116 0 182 70t66 191t-66 189t-180 68h-270v-518zM201 0v1270h-133v176h632q193 0 313 -115t120 -294t-84 -278t-179 -120v-4q37 -18 62 -66l174 -346q25 -47 104 -47h27v-176h-100q-90 0 -129 20t-74 89l-197 389q-25 49 -52 63q-28 14 -89 14h-190v-575
h-205zM487 1546l-180 260h162l106 -166h5l106 166h164l-180 -260h-183z" />
    <glyph glyph-name="rcaron" unicode="&#x159;" horiz-adv-x="770" 
d="M174 0v821q0 45 -45 45h-84v170h191q131 0 131 -121v-65l-5 -72h5q39 119 126 195t201 76l54 -5v-196q-27 6 -58 6q-98 0 -177 -64q-142 -116 -140 -366v-424h-199zM317 1188l-180 260h162l107 -166h4l106 166h164l-180 -260h-183z" />
    <glyph glyph-name="Sacute" unicode="&#x15a;" horiz-adv-x="1075" 
d="M543 162q102 0 174 59q71 59 71 149t-71 150q-72 60 -174 106q-103 46 -205 98t-174 143t-72 216q0 166 130 277q130 110 336 110t334 -110q73 -63 73 -156v-119h-189v68q0 55 -66 93t-168 38t-172 -55t-71 -131q0 -76 52 -128t129 -85t168 -77t168 -90t129 -132t52 -199
q0 -172 -125 -292t-333 -120q-212 0 -399 139q-42 32 -62 54l-19 22l119 146q174 -174 365 -174zM467 1546l149 260h201l-194 -260h-156z" />
    <glyph glyph-name="sacute" unicode="&#x15b;" horiz-adv-x="919" 
d="M651 264q0 57 -58 96t-140 71t-165 71t-142 107q-58 69 -58 161q0 141 109 216t253 75t254 -48t109 -153v-98h-178v51q0 41 -50 65t-123 24t-125 -33q-52 -32 -52 -88t58 -96t142 -70q84 -31 167 -67q84 -36 142 -105t58 -164q0 -137 -108 -221t-268 -83q-160 0 -265 61
q-104 61 -137 103l-17 19l101 133q11 -16 49 -48q125 -103 234 -105q108 -1 159 34t51 92zM383 1188l149 260h201l-194 -260h-156z" />
    <glyph glyph-name="Scircumflex" unicode="&#x15c;" horiz-adv-x="1075" 
d="M543 162q102 0 174 59q71 59 71 149t-71 150q-72 60 -174 106q-103 46 -205 98t-174 143t-72 216q0 166 130 277q130 110 336 110t334 -110q73 -63 73 -156v-119h-189v68q0 55 -66 93t-168 38t-172 -55t-71 -131q0 -76 52 -128t129 -85t168 -77t168 -90t129 -132t52 -199
q0 -172 -125 -292t-333 -120q-212 0 -399 139q-42 32 -62 54l-19 22l119 146q174 -174 365 -174zM279 1546l178 260h182l180 -260h-162l-106 164h-4l-109 -164h-159z" />
    <glyph glyph-name="scircumflex" unicode="&#x15d;" horiz-adv-x="919" 
d="M651 264q0 57 -58 96t-140 71t-165 71t-142 107q-58 69 -58 161q0 141 109 216t253 75t254 -48t109 -153v-98h-178v51q0 41 -50 65t-123 24t-125 -33q-52 -32 -52 -88t58 -96t142 -70q84 -31 167 -67q84 -36 142 -105t58 -164q0 -137 -108 -221t-268 -83q-160 0 -265 61
q-104 61 -137 103l-17 19l101 133q11 -16 49 -48q125 -103 234 -105q108 -1 159 34t51 92zM195 1188l178 260h182l180 -260h-162l-106 164h-4l-109 -164h-159z" />
    <glyph glyph-name="Scedilla" unicode="&#x15e;" horiz-adv-x="1077" 
d="M543 162q104 0 176 59t72 143q-1 84 -53 139q-52 56 -129 91t-168 80t-168 92t-129 129t-52 188q0 164 130 276q130 111 336 111t335 -110q74 -63 74 -156v-119h-189v68q0 55 -67 93t-169 38t-172 -55t-69 -131q0 -76 52 -128t129 -85t168 -77t168 -90t129 -132t52 -199
q1 -164 -113 -281t-304 -129l-17 -79q66 -8 107 -48t41 -114q-1 -76 -61 -118t-134 -42t-127 14v119q41 -14 86 -14q98 0 98 63t-108 64l-37 -2l41 160q-119 12 -221 65t-146 98l-43 47l119 146q174 -174 363 -174z" />
    <glyph glyph-name="scedilla" unicode="&#x15f;" horiz-adv-x="921" 
d="M625 -264q1 -76 -59 -118t-137 -42t-126 14v119q41 -14 88 -14q96 0 96 63t-108 64l-35 -2l41 162q-98 14 -180 58t-115 81l-33 37l101 133q11 -16 49 -48q125 -103 234 -105q108 -1 159 34t51 92t-58 96t-140 71t-165 71t-142 107q-58 69 -58 161q0 141 109 216t253 75
t254 -48t109 -153v-98h-178v51q0 41 -50 65t-123 24t-125 -33q-52 -32 -52 -88t58 -96t142 -70q84 -31 167 -67q84 -36 142 -105t58 -164q0 -131 -100 -213t-256 -91l-17 -77q63 -8 105 -48q42 -38 41 -114z" />
    <glyph glyph-name="Scaron" unicode="&#x160;" horiz-adv-x="1075" 
d="M543 162q102 0 174 59q71 59 71 149t-71 150q-72 60 -174 106q-103 46 -205 98t-174 143t-72 216q0 166 130 277q130 110 336 110t334 -110q73 -63 73 -156v-119h-189v68q0 55 -66 93t-168 38t-172 -55t-71 -131q0 -76 52 -128t129 -85t168 -77t168 -90t129 -132t52 -199
q0 -172 -125 -292t-333 -120q-212 0 -399 139q-42 32 -62 54l-19 22l119 146q174 -174 365 -174zM457 1546l-181 260h162l107 -166h4l106 166h164l-180 -260h-182z" />
    <glyph glyph-name="scaron" unicode="&#x161;" horiz-adv-x="919" 
d="M651 264q0 57 -58 96t-140 71t-165 71t-142 107q-58 69 -58 161q0 141 109 216t253 75t254 -48t109 -153v-98h-178v51q0 41 -50 65t-123 24t-125 -33q-52 -32 -52 -88t58 -96t142 -70q84 -31 167 -67q84 -36 142 -105t58 -164q0 -137 -108 -221t-268 -83q-160 0 -265 61
q-104 61 -137 103l-17 19l101 133q11 -16 49 -48q125 -103 234 -105q108 -1 159 34t51 92zM373 1188l-180 260h161l107 -166h4l106 166h164l-180 -260h-182z" />
    <glyph glyph-name="Tcommaaccent" unicode="&#x162;" horiz-adv-x="1294" 
d="M630 -424q-77 0 -126 14v119q41 -14 88 -14q96 0 96 63t-106 64l-37 -2l45 180h-45v1270h-289q-45 0 -45 -45v-92h-184v190q1 71 27 97t96 26h995q71 0 97 -27t26 -96v-190h-183v92q0 45 -45 45h-290v-1270h-50l-20 -102q63 -8 104 -48t41 -114q0 -76 -59 -118t-136 -42z
" />
    <glyph glyph-name="tcommaaccent" unicode="&#x163;" horiz-adv-x="671" 
d="M586 -264q0 -76 -60 -118t-135 -42q-74 0 -127 14v119q41 -14 86 -14q98 0 99 63q0 63 -109 64l-37 -2l55 213q-188 88 -188 346v498h-135v159h139v285h195v-285h249v-159h-249v-476q0 -161 111 -211q50 -22 110 -22l47 4v-176q-29 -4 -78 -4t-100 10l-21 -104
q66 -8 107 -48q41 -38 41 -114z" />
    <glyph glyph-name="Tcaron" unicode="&#x164;" horiz-adv-x="1294" 
d="M545 0v1270h-289q-45 0 -45 -45v-92h-184v190q1 71 27 97t96 26h995q71 0 97 -27t26 -96v-190h-183v92q0 45 -45 45h-290v-1270h-205zM557 1546l-180 260h162l106 -166h4l107 166h164l-181 -260h-182z" />
    <glyph glyph-name="tcaron" unicode="&#x165;" horiz-adv-x="671" 
d="M170 379v498h-135v159h139v285h195v-285h249v-159h-249v-476q0 -161 111 -211q50 -22 110 -22l47 4v-176q-29 -4 -74 -4t-90 6t-102 31t-100 64q-42 40 -71 114q-30 74 -30 172zM498 1446h161q13 -56 13 -120t-49 -169h-142q39 100 39 164t-22 125z" />
    <glyph glyph-name="Tbar" unicode="&#x166;" horiz-adv-x="1323" 
d="M557 0v635h-315v156h315v479h-289q-45 0 -45 -45v-92h-184v190q0 71 28 97t97 26h993q71 0 97 -27t26 -96v-190h-182v92q0 45 -45 45h-291v-479h330v-156h-330v-635h-205z" />
    <glyph glyph-name="tbar" unicode="&#x167;" horiz-adv-x="677" 
d="M172 379v151h-135v140h135v207h-135v159h139v285h195v-285h247v-159h-247v-207h247v-140h-247v-135q0 -142 82 -189q64 -38 137 -38l47 4v-176q-27 -4 -72 -4t-90 6t-102 31t-100 64q-42 40 -71 114q-30 74 -30 172z" />
    <glyph glyph-name="Utilde" unicode="&#x168;" horiz-adv-x="1474" 
d="M389 1548q0 260 211 260q58 0 106 -34t84 -70q36 -35 76 -35t60 41t20 92h133q0 -260 -211 -260q-59 0 -105 35t-83 70t-77 35t-59 -41q-19 -40 -20 -93h-135zM186 506v719q0 45 -45 45h-88v176h205q70 0 102 -31t31 -100v-801q0 -162 93 -254t252 -92t253 93t94 255v799
q0 71 31 101t100 30h207v-176h-88q-45 0 -45 -45v-719q0 -238 -152 -384t-398 -146q-248 0 -400 146t-152 384z" />
    <glyph glyph-name="utilde" unicode="&#x169;" horiz-adv-x="1265" 
d="M268 1190q0 260 211 260q59 0 107 -35t83 -69t75 -35q40 0 61 41q20 41 20 92h133q0 -260 -210 -260q-60 0 -106 35t-83 69t-77 35q-40 0 -59 -40t-20 -93h-135zM516 -25q-352 0 -352 398v448q0 45 -45 45h-84v170h194q70 0 101 -30t30 -97v-491q0 -123 41 -191t154 -67
q154 0 246 114t92 277v485h199v-821q0 -45 45 -45h84v-170h-191q-131 0 -131 115v39l2 59h-4q-39 -90 -140 -164t-241 -74z" />
    <glyph glyph-name="Umacron" unicode="&#x16a;" horiz-adv-x="1474" 
d="M479 1606v139h520v-139h-520zM186 506v719q0 45 -45 45h-88v176h205q70 0 102 -31t31 -100v-801q0 -162 93 -254t252 -92t253 93t94 255v799q0 71 31 101t100 30h207v-176h-88q-45 0 -45 -45v-719q0 -238 -152 -384t-398 -146q-248 0 -400 146t-152 384z" />
    <glyph glyph-name="umacron" unicode="&#x16b;" horiz-adv-x="1265" 
d="M356 1247v139h521v-139h-521zM516 -25q-352 0 -352 398v448q0 45 -45 45h-84v170h194q70 0 101 -30t30 -97v-491q0 -123 41 -191t154 -67q154 0 246 114t92 277v485h199v-821q0 -45 45 -45h84v-170h-191q-131 0 -131 115v39l2 59h-4q-39 -90 -140 -164t-241 -74z" />
    <glyph glyph-name="Ubreve" unicode="&#x16c;" horiz-adv-x="1474" 
d="M999 1778q0 -112 -78 -176t-183 -64t-184 64t-79 176v28h137v-26q0 -61 36 -92t89 -31t90 32t37 93v24h135v-28zM186 506v719q0 45 -45 45h-88v176h205q70 0 102 -31t31 -100v-801q0 -162 93 -254t252 -92t253 93t94 255v799q0 71 31 101t100 30h207v-176h-88
q-45 0 -45 -45v-719q0 -238 -152 -384t-398 -146q-248 0 -400 146t-152 384z" />
    <glyph glyph-name="ubreve" unicode="&#x16d;" horiz-adv-x="1265" 
d="M877 1419q-1 -113 -79 -176t-183 -63t-184 63t-79 176v29h137v-27q0 -61 36 -92t89 -31t91 32q37 32 36 93v25h136v-29zM516 -25q-352 0 -352 398v448q0 45 -45 45h-84v170h194q70 0 101 -30t30 -97v-491q0 -123 41 -191t154 -67q154 0 246 114t92 277v485h199v-821
q0 -45 45 -45h84v-170h-191q-131 0 -131 115v39l2 59h-4q-39 -90 -140 -164t-241 -74z" />
    <glyph glyph-name="Uring" unicode="&#x16e;" horiz-adv-x="1474" 
d="M186 506v719q0 45 -45 45h-88v176h205q70 0 102 -31t31 -100v-801q0 -162 93 -254t252 -92t253 93t94 255v799q0 71 31 101t100 30h207v-176h-88q-45 0 -45 -45v-719q0 -238 -152 -384t-398 -146q-248 0 -400 146t-152 384zM737 1606q31 0 50 19t19 50t-18 50
q-20 19 -51 19t-50 -18q-19 -20 -19 -51t19 -50t50 -19zM903 1674q0 -68 -49 -110t-118 -42q-68 0 -116 42t-48 110t48 111q48 42 116 42t118 -42q49 -42 49 -111z" />
    <glyph glyph-name="uring" unicode="&#x16f;" horiz-adv-x="1265" 
d="M516 -25q-352 0 -352 398v448q0 45 -45 45h-84v170h194q70 0 101 -30t30 -97v-491q0 -123 41 -191t154 -67q154 0 246 114t92 277v485h199v-821q0 -45 45 -45h84v-170h-191q-131 0 -131 115v39l2 59h-4q-39 -90 -140 -164t-241 -74zM616 1247q30 -1 50 19t20 51t-19 50
t-51 19t-50 -19q-19 -19 -19 -50t19 -51t50 -19zM615 1163q-69 0 -117 42t-47 111q0 68 48 110q49 42 117 42t117 -42t49 -110t-49 -111q-49 -42 -118 -42z" />
    <glyph glyph-name="Uhungarumlaut" unicode="&#x170;" horiz-adv-x="1474" 
d="M496 1546l141 260h172l-143 -260h-170zM809 1546l147 260h203l-196 -260h-154zM186 506v719q0 45 -45 45h-88v176h205q70 0 102 -31t31 -100v-801q0 -162 93 -254t252 -92t253 93t94 255v799q0 71 31 101t100 30h207v-176h-88q-45 0 -45 -45v-719q0 -238 -152 -384
t-398 -146q-248 0 -400 146t-152 384z" />
    <glyph glyph-name="uhungarumlaut" unicode="&#x171;" horiz-adv-x="1265" 
d="M373 1188l141 260h172l-143 -260h-170zM686 1188l148 260h202l-196 -260h-154zM516 -25q-352 0 -352 398v448q0 45 -45 45h-84v170h194q70 0 101 -30t30 -97v-491q0 -123 41 -191t154 -67q154 0 246 114t92 277v485h199v-821q0 -45 45 -45h84v-170h-191q-131 0 -131 115
v39l2 59h-4q-39 -90 -140 -164t-241 -74z" />
    <glyph glyph-name="Uogonek" unicode="&#x172;" horiz-adv-x="1478" 
d="M186 506v719q0 45 -45 45h-88v176h205q70 0 102 -31t31 -100v-801q0 -162 93 -254t252 -92t253 93t94 255v799q0 71 31 101t100 30h207v-176h-88q-45 0 -45 -45v-727q0 -305 -287 -471q-176 -100 -176 -209q0 -35 29 -57t57 -27l29 -4l-47 -154q-20 0 -72 15
q-51 15 -83 35t-58 58t-25 87q0 119 107 204v5q-23 -2 -43 -3q-237 0 -385 148t-148 381z" />
    <glyph glyph-name="uogonek" unicode="&#x173;" horiz-adv-x="1265" 
d="M164 373v448q0 45 -45 45h-84v170h196q80 0 106 -38t25 -132v-448q0 -125 40 -192t153 -66q154 0 246 114t92 277v485h199v-821q0 -45 45 -45h84v-170q-131 -106 -131 -182q0 -35 28 -57t58 -27l26 -4l-47 -154q-20 0 -72 15q-51 15 -83 35t-58 58t-24 87q0 123 137 227
v4h-39q-117 0 -117 113v39l4 59h-6q-13 -32 -48 -77q-36 -46 -75 -78q-40 -32 -108 -58t-148 -25q-178 1 -266 97t-88 301z" />
    <glyph glyph-name="Wcircumflex" unicode="&#x174;" horiz-adv-x="1980" 
d="M63 1270h-30v176h119q80 0 120 -25t56 -94l225 -930l27 -153h4q14 74 34 153l293 1045h183l270 -1045l31 -153h4q10 76 28 153l226 930q16 71 55 95t121 24h119v-176h-31q-59 0 -72 -45l-315 -1225h-240l-246 913l-40 199h-5q-18 -104 -45 -197l-264 -915h-239l-316 1225
q-12 45 -72 45zM731 1546l178 260h183l180 -260h-162l-106 164h-5l-108 -164h-160z" />
    <glyph glyph-name="wcircumflex" unicode="&#x175;" horiz-adv-x="1730" 
d="M59 866h-28v170h125q70 0 102 -22t53 -88l183 -617l24 -110h4q12 57 29 110l223 723h184l224 -723l26 -110h4q10 57 27 110l182 617q21 66 53 88t101 22h125v-170h-29q-49 0 -63 -41l-273 -825h-223l-215 666l-29 112h-4q-12 -59 -28 -112l-215 -666h-224l-272 825
q-16 41 -66 41zM596 1188l178 260h182l181 -260h-162l-107 164h-4l-108 -164h-160z" />
    <glyph glyph-name="Ycircumflex" unicode="&#x176;" horiz-adv-x="1241" 
d="M350 1546l178 260h183l180 -260h-162l-106 164h-5l-108 -164h-160zM518 0v631l-366 588q-29 51 -89 51h-40v176h94q77 0 115 -20t79 -91l219 -364l88 -162h5q41 82 88 162l217 364q41 70 80 90t114 21h97v-176h-41q-59 0 -91 -51l-364 -588v-631h-205z" />
    <glyph glyph-name="ycircumflex" unicode="&#x177;" horiz-adv-x="1112" 
d="M283 1188l178 260h182l180 -260h-161l-107 164h-4l-109 -164h-159zM238 -258q119 0 182 149l47 113l-354 821q-18 41 -64 41h-26v170h116q63 0 94 -22t56 -82l233 -584l37 -125h4q16 72 35 125l217 584q20 61 53 83t97 21h118v-170h-26q-47 0 -66 -41l-407 -1011
q-50 -120 -138 -182t-177 -62t-150 26t-88 52l-27 24l82 144q0 -2 18 -20t56 -36t78 -18z" />
    <glyph glyph-name="Ydieresis" unicode="&#x178;" horiz-adv-x="1241" 
d="M379 1599v207h151v-207h-151zM717 1599v207h149v-207h-149zM518 0v631l-366 588q-29 51 -89 51h-40v176h94q77 0 115 -20t79 -91l219 -364l88 -162h5q41 82 88 162l217 364q41 70 80 90t114 21h97v-176h-41q-59 0 -91 -51l-364 -588v-631h-205z" />
    <glyph glyph-name="Zacute" unicode="&#x179;" horiz-adv-x="1228" 
d="M66 0v135l712 1004q60 84 94 118l15 15v4q-39 -6 -109 -6h-465q-45 0 -45 -45v-92h-186v182q0 71 31 101t100 30h926v-133l-713 -1006q-50 -70 -94 -114l-15 -17v-4q39 4 109 4h510q45 0 45 45v92h186v-182q-1 -71 -31 -101t-100 -30h-970zM553 1546l149 260h201
l-194 -260h-156z" />
    <glyph glyph-name="zacute" unicode="&#x17a;" horiz-adv-x="1054" 
d="M76 0v115l530 655l84 96v4q-31 -4 -98 -4h-285q-45 0 -45 -45v-69h-182v153q0 70 32 101t101 30h739v-114l-530 -658l-86 -94v-4q33 4 100 4h330q45 0 45 45v70h182v-154q-1 -71 -31 -101t-100 -30h-786zM459 1188l149 260h201l-195 -260h-155z" />
    <glyph glyph-name="Zdotaccent" unicode="&#x17b;" horiz-adv-x="1228" 
d="M545 1599v207h178v-207h-178zM66 0v135l712 1004q60 84 94 118l15 15v4q-39 -6 -109 -6h-465q-45 0 -45 -45v-92h-186v182q0 71 31 101t100 30h926v-133l-713 -1006q-50 -70 -94 -114l-15 -17v-4q39 4 109 4h510q45 0 45 45v92h186v-182q-1 -71 -31 -101t-100 -30h-970z
" />
    <glyph glyph-name="zdotaccent" unicode="&#x17c;" horiz-adv-x="1054" 
d="M451 1241v207h178v-207h-178zM76 0v115l530 655l84 96v4q-31 -4 -98 -4h-285q-45 0 -45 -45v-69h-182v153q0 70 32 101t101 30h739v-114l-530 -658l-86 -94v-4q33 4 100 4h330q45 0 45 45v70h182v-154q-1 -71 -31 -101t-100 -30h-786z" />
    <glyph glyph-name="Zcaron" unicode="&#x17d;" horiz-adv-x="1228" 
d="M66 0v135l712 1004q60 84 94 118l15 15v4q-39 -6 -109 -6h-465q-45 0 -45 -45v-92h-186v182q0 71 31 101t100 30h926v-133l-713 -1006q-50 -70 -94 -114l-15 -17v-4q39 4 109 4h510q45 0 45 45v92h186v-182q-1 -71 -31 -101t-100 -30h-970zM543 1546l-181 260h162
l107 -166h4l106 166h164l-180 -260h-182z" />
    <glyph glyph-name="zcaron" unicode="&#x17e;" horiz-adv-x="1054" 
d="M76 0v115l530 655l84 96v4q-31 -4 -98 -4h-285q-45 0 -45 -45v-69h-182v153q0 70 32 101t101 30h739v-114l-530 -658l-86 -94v-4q33 4 100 4h330q45 0 45 45v70h182v-154q-1 -71 -31 -101t-100 -30h-786zM449 1188l-181 260h162l107 -166h4l106 166h164l-180 -260h-182z
" />
    <glyph glyph-name="longs" unicode="&#x17f;" horiz-adv-x="536" 
d="M174 0v877h-129v159h129v35q0 98 29 171t70 113q106 101 292 101l76 -6v-170q-20 4 -72 4t-103 -28q-95 -54 -93 -191v-1065h-199z" />
    <glyph glyph-name="florin" unicode="&#x192;" 
d="M168 61q20 -4 70 -4t103 30q101 58 112 198l36 432h-153v160h170l16 194q8 98 44 171t80 113q44 41 120 71t180 30l76 -6l-16 -170q-20 4 -54 4t-66 -8q-152 -38 -167 -219l-17 -180h216v-160h-230l-39 -447q-8 -98 -44 -171t-80 -113q-113 -102 -298 -101l-75 4z" />
    <glyph glyph-name="Scommaaccent" unicode="&#x218;" horiz-adv-x="1075" 
d="M543 162q102 0 174 59q71 59 71 149t-71 150q-72 60 -174 106q-103 46 -205 98t-174 143t-72 216q0 166 130 277q130 110 336 110t334 -110q73 -63 73 -156v-119h-189v68q0 55 -66 93t-168 38t-172 -55t-71 -131q0 -76 52 -128t129 -85t168 -77t168 -90t129 -132t52 -199
q0 -172 -125 -292t-333 -120q-212 0 -399 139q-42 32 -62 54l-19 22l119 146q174 -174 365 -174zM455 -121h161q12 -55 12 -119t-48 -170h-142q40 100 40 164t-23 125z" />
    <glyph glyph-name="scommaaccent" unicode="&#x219;" horiz-adv-x="919" 
d="M651 264q0 57 -58 96t-140 71t-165 71t-142 107q-58 69 -58 161q0 141 109 216t253 75t254 -48t109 -153v-98h-178v51q0 41 -50 65t-123 24t-125 -33q-52 -32 -52 -88t58 -96t142 -70q84 -31 167 -67q84 -36 142 -105t58 -164q0 -137 -108 -221t-268 -83q-160 0 -265 61
q-104 61 -137 103l-17 19l101 133q11 -16 49 -48q125 -103 234 -105q108 -1 159 34t51 92zM553 -240q0 -64 -49 -170h-142q40 100 40 164t-23 125h162q12 -55 12 -119z" />
    <glyph glyph-name="uni021A" unicode="&#x21a;" horiz-adv-x="1294" 
d="M545 0v1270h-289q-45 0 -45 -45v-92h-184v190q1 71 27 97t96 26h995q71 0 97 -27t26 -96v-190h-183v92q0 45 -45 45h-290v-1270h-205zM733 -240q0 -64 -49 -170h-141q39 100 39 164t-23 125h162q12 -55 12 -119z" />
    <glyph glyph-name="uni021B" unicode="&#x21b;" horiz-adv-x="671" 
d="M170 379v498h-135v159h139v285h195v-285h249v-159h-249v-476q0 -161 111 -211q50 -22 110 -22l47 4v-176q-29 -4 -74 -4t-90 6t-102 31t-100 64q-42 40 -71 114q-30 74 -30 172zM483 -240q0 -64 -49 -170h-141q39 100 39 164t-23 125h162q12 -55 12 -119z" />
    <glyph glyph-name="circumflex" unicode="&#x2c6;" horiz-adv-x="993" 
d="M227 1546l179 260h182l180 -260h-162l-106 164h-4l-109 -164h-160z" />
    <glyph glyph-name="caron" unicode="&#x2c7;" horiz-adv-x="999" 
d="M406 1546l-181 260h162l107 -166h4l106 166h164l-180 -260h-182z" />
    <glyph glyph-name="breve" unicode="&#x2d8;" horiz-adv-x="1026" 
d="M760 1778q0 -112 -78 -176t-183 -64t-185 64t-78 176v28h137v-26q0 -61 37 -92t89 -31t89 32t37 93v24h135v-28z" />
    <glyph glyph-name="dotaccent" unicode="&#x2d9;" horiz-adv-x="524" 
d="M172 1599v207h178v-207h-178z" />
    <glyph glyph-name="ring" unicode="&#x2da;" horiz-adv-x="778" 
d="M389 1606q31 0 50 19t19 50t-18 50q-20 19 -51 19t-50 -18q-19 -20 -19 -51t18 -50q20 -19 51 -19zM555 1674q0 -68 -49 -110t-118 -42t-117 42t-48 110t48 111q48 42 117 42t118 -42t49 -111z" />
    <glyph glyph-name="ogonek" unicode="&#x2db;" horiz-adv-x="739" 
d="M221 -232q0 46 20 90q19 44 67 95t81 70l19 12l141 -15q-61 -40 -109 -101q-49 -60 -49 -98t29 -60t57 -27l29 -4l-47 -154q-10 0 -57 9t-89 35q-41 26 -67 64t-25 84z" />
    <glyph glyph-name="tilde" unicode="&#x2dc;" horiz-adv-x="1062" 
d="M188 1548q0 260 211 260q59 0 107 -34t83 -70q36 -35 76 -35t60 41t20 92h134q0 -260 -211 -260q-60 0 -106 35t-83 70t-77 35t-58 -41q-20 -40 -20 -93h-136z" />
    <glyph glyph-name="hungarumlaut" unicode="&#x2dd;" horiz-adv-x="1095" 
d="M203 1546l141 260h172l-143 -260h-170zM516 1546l148 260h202l-196 -260h-154z" />
    <glyph glyph-name="uni0400" unicode="&#x400;" horiz-adv-x="1169" 
d="M584 1546l-195 260h201l149 -260h-155zM201 131v1139h-133v176h852q70 0 100 -31t31 -100v-182h-189v92q0 45 -45 45h-411v-453h507v-176h-507v-420q0 -45 45 -45h423q45 0 46 45v92h186v-182q0 -71 -31 -101t-100 -30h-641q-70 0 -102 30t-31 101z" />
    <glyph glyph-name="uni0401" unicode="&#x401;" horiz-adv-x="1169" 
d="M201 131v1139h-133v176h852q70 0 100 -31t31 -100v-182h-189v92q0 45 -45 45h-411v-453h507v-176h-507v-420q0 -45 45 -45h423q45 0 46 45v92h186v-182q0 -71 -31 -101t-100 -30h-641q-70 0 -102 30t-31 101zM377 1599v207h151v-207h-151zM715 1599v207h149v-207h-149z
" />
    <glyph glyph-name="uni0402" unicode="&#x402;" horiz-adv-x="1529" 
d="M1036 -25q-76 0 -96 5v172q12 -4 70 -5q116 0 198 68t82 207t-73 212q-74 73 -220 73q-77 0 -157 -22t-121 -42l-41 -20v-623h-205v1278h-229q-45 0 -45 -45v-100h-170v190q-1 71 27 97t98 26h993v-168h-469v-412l-2 -63h4q172 84 374 84t319 -121q118 -122 118 -330
t-127 -334t-328 -127z" />
    <glyph glyph-name="uni0403" unicode="&#x403;" horiz-adv-x="1052" 
d="M201 0v1270h-133v176h827q71 0 101 -31t30 -100v-182h-186v92q0 45 -45 45h-389v-1270h-205zM479 1546l150 260h200l-194 -260h-156z" />
    <glyph glyph-name="uni0404" unicode="&#x404;" horiz-adv-x="1421" 
d="M807 160q125 0 237 47t164 94l52 47l106 -139q-24 -30 -85 -75q-63 -46 -123 -77t-156 -57t-199 -25q-319 -1 -527 219t-206 536q0 316 206 528q207 212 512 212q178 0 352 -68q87 -34 143 -98t56 -147v-133h-188v82q0 84 -113 132t-239 48q-209 0 -350 -135t-162 -350
h757v-168h-753q25 -207 167 -340t349 -133z" />
    <glyph glyph-name="uni0405" unicode="&#x405;" horiz-adv-x="1075" 
d="M543 162q102 0 174 59q71 59 71 149t-71 150q-72 60 -174 106q-103 46 -205 98t-174 143t-72 216q0 166 130 277q130 110 336 110t334 -110q73 -63 73 -156v-119h-189v68q0 55 -66 93t-168 38t-172 -55t-71 -131q0 -76 52 -128t129 -85t168 -77t168 -90t129 -132t52 -199
q0 -172 -125 -292t-333 -120q-212 0 -399 139q-42 32 -62 54l-19 22l119 146q174 -174 365 -174z" />
    <glyph glyph-name="uni0406" unicode="&#x406;" horiz-adv-x="645" 
d="M84 0v176h141v1094h-141v176h477v-176h-139v-1094h139v-176h-477z" />
    <glyph glyph-name="uni0407" unicode="&#x407;" horiz-adv-x="645" 
d="M84 0v176h141v1094h-141v176h477v-176h-139v-1094h139v-176h-477zM80 1599v207h151v-207h-151zM418 1599v207h149v-207h-149z" />
    <glyph glyph-name="uni0408" unicode="&#x408;" horiz-adv-x="1046" 
d="M33 416v71h205v-55q0 -139 66 -202q67 -62 162 -62t161 62t65 194v801q0 45 -45 45h-354v176h471q70 0 102 -31t31 -100v-899q0 -219 -127 -330t-305 -111t-305 112t-127 329z" />
    <glyph glyph-name="uni0409" unicode="&#x409;" horiz-adv-x="1910" 
d="M1141 217q0 -45 45 -45h211q125 0 193 70t69 188q0 118 -68 184q-68 64 -192 64h-258v-461zM342 1071v199h-135v176h801q70 0 102 -31t31 -100v-465h254q187 0 323 -89q70 -46 111 -129t41 -196q0 -212 -135 -324t-349 -112h-319q-71 0 -101 31t-30 100v1094q0 45 -45 45
h-346v-199q0 -548 -92 -761q-92 -212 -240 -279q-84 -39 -193 -45v186q234 23 293 419q29 187 29 480z" />
    <glyph glyph-name="uni040A" unicode="&#x40a;" horiz-adv-x="2052" 
d="M1284 217q0 -45 45 -45h215q121 0 190 72q68 72 68 186t-67 178q-68 63 -189 64h-262v-455zM203 0v1225q0 45 -45 45h-88v176h206q70 0 101 -31t31 -100v-471h671v602h205v-602h260q197 0 333 -98t136 -310t-135 -324t-346 -112h-322q-70 0 -100 31t-31 100v541h-671
v-672h-205z" />
    <glyph glyph-name="uni040B" unicode="&#x40b;" horiz-adv-x="1603" 
d="M473 0v1278h-229q-45 0 -45 -45v-100h-170v190q-1 71 27 97t98 26h993v-168h-469v-420l-4 -65h4q178 96 378 96t301 -110t101 -312v-254q0 -37 45 -37h88v-176h-205q-70 0 -102 31t-31 100v293q0 141 -59 211t-188 70q-182 0 -328 -103v-602h-205z" />
    <glyph glyph-name="uni040C" unicode="&#x40c;" horiz-adv-x="1253" 
d="M203 0v1225q0 45 -45 45h-88v176h206q70 0 101 -31t31 -100v-477h137q90 0 119 49l321 559h229l-350 -600q-32 -58 -69 -88l-13 -6v-4q41 -10 82 -91l217 -434q23 -47 103 -47h39v-176h-113q-88 0 -128 20t-73 89l-250 501q-29 53 -129 54h-122v-664h-205zM571 1546
l150 260h201l-195 -260h-156z" />
    <glyph glyph-name="uni040D" unicode="&#x40d;" horiz-adv-x="1562" 
d="M723 1546l-195 260h201l150 -260h-156zM203 0v1225q0 45 -45 45h-88v176h206q70 0 101 -31t31 -100v-793l-13 -207h4q78 131 129 209l631 922h201v-1225q0 -45 45 -45h88v-176h-205q-70 0 -102 31t-31 100v795l12 211h-4q-72 -133 -123 -211l-634 -926h-203z" />
    <glyph glyph-name="uni040E" unicode="&#x40e;" horiz-adv-x="1273" 
d="M406 162q70 0 106 39q35 39 66 123l-449 901q-23 45 -68 45h-41v176h125q70 0 102 -25t64 -94l293 -625l76 -178h4q25 78 61 178l228 625q27 71 59 95t111 24h110v-176h-32q-51 0 -70 -43l-393 -996q-100 -256 -320 -256q-86 0 -162 34t-108 65l94 151q74 -63 144 -63z
M640 1513q-126 0 -215 71t-89 192v30h160v-28q0 -64 43 -100t101 -36t101 36t43 102v26h158v-30q0 -121 -88 -192t-214 -71z" />
    <glyph glyph-name="uni040F" unicode="&#x40f;" horiz-adv-x="1515" 
d="M201 131v1094q0 45 -45 45h-88v176h206q70 0 101 -31t31 -100v-1094q0 -45 45 -45h614q45 0 45 45v1094q0 71 31 101t100 30h207v-176h-88q-45 0 -45 -45v-1094q0 -71 -32 -101t-101 -30h-332v-287h-184v287h-332q-70 0 -102 30t-31 101z" />
    <glyph glyph-name="uni0410" unicode="&#x410;" horiz-adv-x="1361" 
d="M465 588h432l-158 440l-57 203h-4q-31 -127 -55 -203zM25 0v176h28q53 0 68 45l452 1225h215l453 -1225q14 -45 68 -45h28v-176h-112q-76 0 -110 24t-60 95l-109 297h-530l-109 -297q-27 -71 -61 -95t-109 -24h-112z" />
    <glyph glyph-name="uni0411" unicode="&#x411;" horiz-adv-x="1216" 
d="M406 217q0 -45 45 -45h235q121 0 192 70q70 70 70 186t-70 184t-192 68h-280v-463zM201 131v1139h-133v176h845q70 0 101 -31t30 -100v-182h-186v92q0 45 -45 45h-407v-418h268q203 0 344 -104t141 -314t-137 -322t-348 -112h-340q-70 0 -102 30t-31 101z" />
    <glyph glyph-name="uni0412" unicode="&#x412;" horiz-adv-x="1259" 
d="M403 221q0 -45 46 -45h276q113 0 179 68t65 178q0 110 -67 180q-67 68 -177 68h-322v-449zM403 838h299q96 0 154 61q57 61 57 157t-56 155q-56 58 -157 59h-297v-432zM201 131v1139h-133v176h632q186 0 304 -98t116 -271q0 -113 -51 -193t-129 -118v-4q111 -33 174 -129
t64 -221q0 -196 -132 -304t-333 -108h-379q-70 0 -102 30t-31 101z" />
    <glyph glyph-name="uni0413" unicode="&#x413;" horiz-adv-x="1052" 
d="M201 0v1270h-133v176h827q71 0 101 -31t30 -100v-182h-186v92q0 45 -45 45h-389v-1270h-205z" />
    <glyph glyph-name="uni0414" unicode="&#x414;" horiz-adv-x="1478" 
d="M1053 176v1049q0 45 -45 45h-406v-133q0 -648 -207 -961h658zM20 47q0 69 30 99t100 30h32q135 190 179 432t45 541v121h-132v176h850q70 0 101 -31t30 -100v-1139h45q70 0 100 -30t30 -99v-334h-189v242q0 45 -43 45h-946q-43 0 -43 -45v-242h-189v334z" />
    <glyph glyph-name="uni0415" unicode="&#x415;" horiz-adv-x="1169" 
d="M201 131v1139h-133v176h852q70 0 100 -31t31 -100v-182h-189v92q0 45 -45 45h-411v-453h507v-176h-507v-420q0 -45 45 -45h423q45 0 46 45v92h186v-182q0 -71 -31 -101t-100 -30h-641q-70 0 -102 30t-31 101z" />
    <glyph glyph-name="uni0416" unicode="&#x416;" horiz-adv-x="1810" 
d="M100 1270h-41v176h103q86 0 123 -20t73 -89l244 -446q20 -35 48 -46t77 -11h80v612h197v-612h75q96 0 129 57l244 446q37 68 74 88t123 21h102v-176h-41q-78 0 -104 -47l-207 -379q-39 -71 -68 -84l-12 -6v-4q49 -23 90 -95l387 -655h-225l-352 608q-35 59 -117 60h-98
v-668h-197v668h-98q-82 0 -117 -60l-352 -608h-226l385 655q18 33 42 57t38 29l13 9v4q-39 14 -80 90l-209 379q-25 47 -103 47z" />
    <glyph glyph-name="uni0417" unicode="&#x417;" horiz-adv-x="1083" 
d="M510 158q113 0 199 70t86 185q0 117 -77 181t-192 63h-172v168h148q104 0 177 67t73 169q0 103 -64 165t-170 62q-108 0 -175 -40t-67 -97v-59h-188v112q0 90 73 154q132 115 350 113q218 -1 333 -104t114 -273q0 -221 -208 -328v-4q120 -33 188 -128t68 -226
q0 -190 -140 -312t-366 -121q-147 -1 -265 55t-194 138l121 143q55 -59 145 -106t203 -47z" />
    <glyph glyph-name="uni0418" unicode="&#x418;" horiz-adv-x="1562" 
d="M203 0v1225q0 45 -45 45h-88v176h206q70 0 101 -31t31 -100v-793l-13 -207h4q78 131 129 209l631 922h201v-1225q0 -45 45 -45h88v-176h-205q-70 0 -102 31t-31 100v795l12 211h-4q-72 -133 -123 -211l-634 -926h-203z" />
    <glyph glyph-name="uni0419" unicode="&#x419;" horiz-adv-x="1562" 
d="M203 0v1225q0 45 -45 45h-88v176h206q70 0 101 -31t31 -100v-793l-13 -207h4q78 131 129 209l631 922h201v-1225q0 -45 45 -45h88v-176h-205q-70 0 -102 31t-31 100v795l12 211h-4q-72 -133 -123 -211l-634 -926h-203zM775 1513q-126 0 -215 71t-89 192v30h160v-28
q0 -64 43 -100t101 -36t102 36q43 36 43 102v26h157v-30q0 -121 -88 -192t-214 -71z" />
    <glyph glyph-name="uni041A" unicode="&#x41a;" horiz-adv-x="1253" 
d="M203 0v1225q0 45 -45 45h-88v176h206q70 0 101 -31t31 -100v-477h137q90 0 119 49l321 559h229l-350 -600q-32 -58 -69 -88l-13 -6v-4q41 -10 82 -91l217 -434q23 -47 103 -47h39v-176h-113q-88 0 -128 20t-73 89l-250 501q-29 53 -129 54h-122v-664h-205z" />
    <glyph glyph-name="uni041B" unicode="&#x41b;" horiz-adv-x="1398" 
d="M350 1110v160h-135v176h850q71 0 101 -31t30 -100v-1094q0 -45 45 -45h88v-176h-207q-70 0 -100 31t-31 100v1094q0 45 -45 45h-401v-162q0 -546 -119 -824t-406 -294v186q178 25 254 252t76 682z" />
    <glyph glyph-name="uni041C" unicode="&#x41c;" horiz-adv-x="1765" 
d="M47 0v176h68q41 0 45 45l98 1225h211l340 -764l72 -184h4q37 104 71 184l340 764h211l99 -1225q4 -45 45 -45h69v-176h-182q-70 0 -98 30t-35 101l-57 764l-5 213h-4q-43 -135 -77 -213l-293 -635h-172l-291 635q-20 41 -68 178l-10 37h-4q2 -129 -4 -215l-60 -764
q-4 -71 -34 -101t-97 -30h-182z" />
    <glyph glyph-name="uni041D" unicode="&#x41d;" horiz-adv-x="1550" 
d="M203 0v1225q0 45 -45 45h-88v176h206q70 0 101 -31t31 -100v-506h735v506q0 71 32 101t101 30h205v-176h-88q-45 0 -45 -45v-1225h-205v635h-735v-635h-205z" />
    <glyph glyph-name="uni041E" unicode="&#x41e;" horiz-adv-x="1624" 
d="M811 1280q-221 0 -375 -158t-153 -392q-1 -234 153 -398t375 -164t376 164t155 398t-155 392t-376 158zM70 729q0 315 214 528t527 213t528 -213t215 -528t-215 -534t-528 -219t-527 218q-214 220 -214 535z" />
    <glyph glyph-name="uni041F" unicode="&#x41f;" horiz-adv-x="1525" 
d="M201 0v1270h-133v176h1124q70 0 100 -31t31 -100v-1094q0 -45 45 -45h88v-176h-205q-69 0 -101 31t-32 100v1094q0 45 -45 45h-667v-1270h-205z" />
    <glyph glyph-name="uni0420" unicode="&#x420;" horiz-adv-x="1198" 
d="M406 711h266q128 -1 202 75t74 206t-72 204q-73 74 -202 74h-268v-559zM201 0v1270h-133v176h637q201 0 327 -124t127 -329q0 -205 -127 -331t-327 -127h-299v-535h-205z" />
    <glyph glyph-name="uni0421" unicode="&#x421;" horiz-adv-x="1429" 
d="M805 -25q-319 0 -526 218q-207 219 -207 537t208 530t517 210q169 0 343 -68q87 -34 143 -98t56 -147v-141h-188v82q0 84 -113 133t-237 49q-221 0 -369 -152t-147 -392t151 -404t371 -164q165 0 277 64q113 64 161 112l19 21l110 -148q-26 -33 -88 -79q-60 -46 -122 -78
t-159 -58t-200 -27z" />
    <glyph glyph-name="uni0422" unicode="&#x422;" horiz-adv-x="1294" 
d="M545 0v1270h-289q-45 0 -45 -45v-92h-184v190q1 71 27 97t96 26h995q71 0 97 -27t26 -96v-190h-183v92q0 45 -45 45h-290v-1270h-205z" />
    <glyph glyph-name="uni0423" unicode="&#x423;" horiz-adv-x="1273" 
d="M406 162q70 0 106 39q35 39 66 123l-449 901q-23 45 -68 45h-41v176h125q70 0 102 -25t64 -94l293 -625l76 -178h4q25 78 61 178l228 625q27 71 59 95t111 24h110v-176h-32q-51 0 -70 -43l-393 -996q-100 -256 -320 -256q-86 0 -162 34t-108 65l94 151q74 -63 144 -63z
" />
    <glyph glyph-name="uni0424" unicode="&#x424;" horiz-adv-x="1679" 
d="M737 1196q-217 0 -340 -114t-123 -314t123 -316t340 -116v860zM942 336q215 0 338 116t123 316t-123 314t-338 114v-860zM737 162q-307 0 -491 166t-183 440q-1 274 183 438t491 164v166h205v-166q304 0 488 -165t184 -438t-182 -439t-490 -166v-187h-205v187z" />
    <glyph glyph-name="uni0425" unicode="&#x425;" horiz-adv-x="1218" 
d="M92 1270h-51v176h119q78 0 116 -22t78 -89l162 -274l92 -170h4q41 90 88 170l164 274q39 67 78 89t115 22h121v-176h-54q-63 0 -94 -51l-293 -474l457 -745h-231l-265 440l-90 164h-4q-43 -86 -88 -166l-262 -438h-229l454 745l-291 474q-20 33 -40 42t-56 9z" />
    <glyph glyph-name="uni0426" unicode="&#x426;" horiz-adv-x="1538" 
d="M201 131v1094q0 45 -45 45h-88v176h206q70 0 101 -31t31 -100v-1094q0 -45 45 -45h661v1270h205v-1270h39q70 0 100 -30t29 -99v-334h-185v242q0 45 -40 45h-926q-70 0 -102 30t-31 101z" />
    <glyph glyph-name="uni0427" unicode="&#x427;" horiz-adv-x="1333" 
d="M606 553q-223 0 -334 110t-110 312v250q0 45 -45 45h-88v176h207q70 0 100 -31t31 -100v-295q-1 -141 67 -211t232 -70t295 99v608h204v-1446h-204v586l4 67h-4q-181 -100 -355 -100z" />
    <glyph glyph-name="uni0428" unicode="&#x428;" horiz-adv-x="2078" 
d="M201 131v1094q0 45 -45 45h-88v176h206q70 0 101 -31t31 -100v-1094q0 -45 45 -45h485v1270h205v-1270h487q45 0 45 45v1094q0 71 31 101t100 30h207v-176h-88q-45 0 -45 -45v-1094q0 -71 -32 -101t-101 -30h-1411q-70 0 -102 30t-31 101z" />
    <glyph glyph-name="uni0429" unicode="&#x429;" horiz-adv-x="2107" 
d="M201 131v1094q0 45 -45 45h-88v176h206q70 0 101 -31t31 -100v-1094q0 -45 45 -45h485v1270h205v-1270h530v1270h205v-1270h57q70 0 100 -30t29 -99v-334h-184v242q0 45 -41 45h-1503q-70 0 -102 30t-31 101z" />
    <glyph glyph-name="uni042A" unicode="&#x42a;" horiz-adv-x="1503" 
d="M707 221q0 -45 45 -45h227q125 0 199 72t73 201t-73 199t-199 69h-272v-496zM502 131v1139h-246q-45 0 -45 -45v-92h-182v190q1 71 27 97t96 26h688v-176h-133v-377h292q203 0 333 -112q130 -113 130 -331t-139 -334t-356 -116h-334q-71 0 -101 30t-30 101z" />
    <glyph glyph-name="uni042B" unicode="&#x42b;" horiz-adv-x="1751" 
d="M406 221q0 -45 45 -45h211q126 0 198 74t72 204t-73 200t-197 71h-256v-504zM201 131v1094q0 45 -45 45h-88v176h206q70 0 101 -31t31 -100v-414h276q201 0 331 -113q130 -112 130 -332t-137 -338t-357 -118h-315q-70 0 -102 30t-31 101zM1343 131v1315h205v-1225
q0 -45 45 -45h88v-176h-206q-70 0 -101 30t-31 101z" />
    <glyph glyph-name="uni042C" unicode="&#x42c;" horiz-adv-x="1193" 
d="M406 221q0 -45 45 -45h219q126 0 198 75t72 205t-72 200t-198 69h-264v-504zM201 131v1094q0 45 -45 45h-88v176h206q70 0 101 -31t31 -100v-414h284q203 1 332 -111t129 -333t-137 -339t-357 -118h-323q-70 0 -102 30t-31 101z" />
    <glyph glyph-name="uni042D" unicode="&#x42d;" horiz-adv-x="1423" 
d="M618 160q209 0 353 135q143 135 164 342h-746v168h746q-15 211 -155 346t-351 135q-129 0 -245 -48t-116 -132v-82h-188v133q0 139 167 226t378 87q323 0 525 -208t202 -525t-207 -539t-527 -223q-180 0 -332 71t-229 153l107 143q55 -62 182 -122t272 -60z" />
    <glyph glyph-name="uni042E" unicode="&#x42e;" horiz-adv-x="2164" 
d="M1369 1280q-213 0 -363 -158t-150 -392t150 -398t364 -164t363 164t149 398t-149 392q-150 158 -364 158zM203 0v1225q0 45 -45 45h-88v176h206q70 0 101 -31t31 -100v-506h245q23 285 227 473t500 188t505 -213q210 -213 210 -528t-210 -534t-504 -219q-295 0 -495 186
q-200 188 -229 473h-249v-635h-205z" />
    <glyph glyph-name="uni042F" unicode="&#x42f;" horiz-adv-x="1275" 
d="M621 731h249v539h-249q-129 0 -205 -71t-76 -195t79 -199q79 -74 202 -74zM39 0v176h27q78 0 104 47l190 322q28 46 74 69v4q-44 0 -106 42t-102 82q-40 42 -68 113q-29 71 -29 157q0 198 131 316t338 118h610v-176h-133v-1270h-205v555h-172q-59 0 -88 -15t-59 -71
l-211 -358q-39 -67 -77 -89t-124 -22h-100z" />
    <glyph glyph-name="uni0430" unicode="&#x430;" horiz-adv-x="1083" 
d="M256 301q0 -68 51 -118t144 -50q123 1 201 103t77 227v39h-53q-420 0 -420 -201zM57 283q0 362 627 362h45v14q0 131 -54 187t-175 57q-58 0 -114 -17t-56 -63v-59h-189v104q0 146 258 186q51 7 97 7q240 -1 336 -107t96 -299v-440q0 -45 45 -45h84v-170h-189
q-127 0 -127 119l2 61h-4q2 0 -16 -35t-73 -81q-108 -89 -248 -89q-139 -1 -242 83t-103 225z" />
    <glyph glyph-name="uni0431" unicode="&#x431;" horiz-adv-x="1165" 
d="M301 459q0 -141 84 -227t209 -87q125 0 208 85q83 86 83 232t-82 230t-209 84t-210 -88t-83 -229zM590 -25q-136 1 -234 51t-154 139q-110 175 -110 444t76 425t276 244l228 100q72 31 96 53t23 56v49h192v-90q0 -94 -46 -136t-167 -89l-244 -105q-238 -102 -243 -366h2
q125 193 360 192q197 0 321 -130t124 -349t-140 -353t-360 -135z" />
    <glyph glyph-name="uni0432" unicode="&#x432;" horiz-adv-x="1062" 
d="M369 182q0 -41 39 -41h172q211 0 211 164q1 78 -55 120t-156 42h-211v-285zM369 600h194q86 0 132 41t46 111q0 145 -184 145h-188v-297zM170 113v753h-129v170h557q160 0 252 -68t92 -198q0 -166 -145 -225v-4q94 -20 145 -89t51 -157q0 -141 -103 -218t-278 -77h-327
q-61 0 -88 27t-27 86z" />
    <glyph glyph-name="uni0433" unicode="&#x433;" horiz-adv-x="899" 
d="M174 0v866h-129v170h686q72 0 103 -28t30 -99v-157h-166v69q0 45 -45 45h-280v-866h-199z" />
    <glyph glyph-name="uni0434" unicode="&#x434;" horiz-adv-x="1208" 
d="M825 166v655q0 45 -45 45h-258v-45q0 -452 -160 -655h463zM20 37q0 69 29 99t96 30h17q172 199 172 653v47h-127v170h686q71 0 101 -30t30 -101v-739h33q69 0 97 -31t28 -98v-283h-183v201q0 45 -43 45h-710q-43 0 -43 -45v-201h-183v283z" />
    <glyph glyph-name="uni0435" unicode="&#x435;" horiz-adv-x="1103" 
d="M281 629h555q-4 131 -75 204t-183 73t-194 -74q-83 -74 -103 -203zM68 524q0 238 147 388t365 149q218 0 336 -137t118 -349q0 -39 -6 -77h-756q8 -164 110 -257t260 -93q157 0 294 120l84 -145q-74 -68 -184 -108t-218 -40q-242 0 -396 155q-154 156 -154 394z" />
    <glyph glyph-name="uni0436" unicode="&#x436;" horiz-adv-x="1542" 
d="M119 866h-53v170h122q76 0 111 -17t63 -79l134 -268q33 -61 118 -62h62v426h192v-426h60q86 0 119 62l133 268q29 61 63 79q35 17 111 17h123v-170h-54q-41 0 -60 -8t-32 -33l-106 -213q-15 -31 -35 -51t-35 -24l-12 -7v-4q68 -14 119 -100l249 -426h-231l-205 360
q-49 82 -145 82h-62v-442h-192v442h-62q-96 0 -147 -82l-203 -360h-231l248 426q45 76 118 100v4q-49 14 -82 82l-106 213q-18 41 -92 41z" />
    <glyph glyph-name="uni0437" unicode="&#x437;" horiz-adv-x="903" 
d="M416 137q92 0 153 44t62 128q0 156 -211 156h-131v137h104q203 0 203 158q0 76 -49 114t-121 37q-72 0 -126 -25q-52 -26 -52 -75v-47h-166v96q0 98 102 150t259 51q157 0 255 -73t99 -208q0 -90 -44 -149t-110 -84v-4q82 -19 134 -83t52 -163q1 -152 -115 -237t-286 -85
q-219 0 -381 152l94 131q121 -121 275 -121z" />
    <glyph glyph-name="uni0438" unicode="&#x438;" horiz-adv-x="1267" 
d="M172 0v821q0 45 -43 45h-82v170h182q70 0 101 -30t30 -99v-493q0 -102 -8 -144h4q20 41 97 144l446 622h197v-821q0 -45 43 -45h82v-170h-183q-70 0 -100 31t-31 100v492q0 80 8 145h-4q-16 -39 -96 -145l-446 -623h-197z" />
    <glyph glyph-name="uni0439" unicode="&#x439;" horiz-adv-x="1267" 
d="M934 1417q0 -121 -88 -191t-214 -71q-126 0 -215 71t-89 191v31h159v-29q0 -63 43 -99q44 -36 102 -36t101 36t43 101v27h158v-31zM172 0v821q0 45 -43 45h-82v170h182q70 0 101 -30t30 -99v-493q0 -102 -8 -144h4q20 41 97 144l446 622h197v-821q0 -45 43 -45h82v-170
h-183q-70 0 -100 31t-31 100v492q0 80 8 145h-4q-16 -39 -96 -145l-446 -623h-197z" />
    <glyph glyph-name="uni043A" unicode="&#x43a;" horiz-adv-x="1091" 
d="M174 0v821q0 45 -45 45h-84v170h197q70 0 100 -30t31 -101v-276h86q78 0 108 47l248 360h223l-284 -411q-40 -59 -70 -72l-8 -6v-4q39 -14 78 -78l151 -254q25 -41 90 -41h62v-170h-144q-75 0 -107 18t-65 78l-184 322q-25 41 -100 41h-84v-459h-199z" />
    <glyph glyph-name="uni043B" unicode="&#x43b;" horiz-adv-x="1116" 
d="M270 786v80h-129v170h670q71 0 101 -30t30 -101v-690q0 -45 45 -45h84v-170h-194q-70 0 -102 31t-32 100v690q0 45 -45 45h-237v-82q0 -308 -75 -495q-32 -80 -77 -149q-95 -146 -282 -146v176q65 2 115 61q86 102 116 353q12 100 12 202z" />
    <glyph glyph-name="uni043C" unicode="&#x43c;" horiz-adv-x="1488" 
d="M39 0v170h53q37 0 39 39l72 827h217l270 -594l53 -129h2q29 68 56 129l268 594h217l72 -827q2 -39 39 -39h53v-170h-152q-61 0 -85 27t-27 86l-39 489l-4 184h-4q-25 -76 -62 -155l-241 -506h-189l-237 506l-60 157h-4q0 -123 -4 -186l-39 -489q-4 -59 -28 -86t-85 -27
h-151z" />
    <glyph glyph-name="uni043D" unicode="&#x43d;" horiz-adv-x="1269" 
d="M174 0v821q0 45 -45 45h-84v170h197q70 0 100 -30t31 -101v-293h524v424h199v-821q0 -45 45 -45h82v-170h-195q-70 0 -100 31t-31 100v315h-524v-446h-199z" />
    <glyph glyph-name="uni043E" unicode="&#x43e;" horiz-adv-x="1251" 
d="M268 520q0 -160 104 -266t254 -106q149 0 252 104q103 106 103 267t-103 265q-104 104 -252 104t-253 -104t-105 -264zM68 520q0 233 161 387q162 154 397 154q234 0 396 -154t162 -387t-163 -389t-396 -156t-396 156q-161 156 -161 389z" />
    <glyph glyph-name="uni043F" unicode="&#x43f;" horiz-adv-x="1243" 
d="M174 0v866h-129v170h895q70 0 100 -30t31 -101v-690q0 -45 45 -45h84v-170h-196q-70 0 -101 31t-31 100v690q0 45 -45 45h-454v-866h-199z" />
    <glyph glyph-name="uni0440" unicode="&#x440;" horiz-adv-x="1230" 
d="M367 532q1 -168 79 -278t210 -109t218 101q84 100 84 269t-80 270q-81 101 -210 101t-215 -92q-86 -94 -86 -262zM174 -410v1231q0 45 -45 45h-84v170h186q127 0 127 -104l-2 -55h4q12 25 45 60q110 121 309 123q200 1 324 -149q124 -149 123 -393q0 -244 -132 -394
t-339 -149q-160 0 -271 107q-26 25 -36 41l-10 18h-4q4 -37 4 -90v-461h-199z" />
    <glyph glyph-name="uni0441" unicode="&#x441;" horiz-adv-x="1085" 
d="M68 516q0 234 154 389q155 156 403 156q117 0 232 -47q60 -25 100 -72t40 -108v-107h-180v57q0 51 -62 79t-130 28q-154 1 -255 -103q-102 -104 -102 -271t106 -266t261 -99q86 0 167 36t118 70l36 37l84 -141q-17 -22 -62 -58q-153 -119 -357 -121q-245 -1 -399 153
t-154 388z" />
    <glyph glyph-name="uni0442" unicode="&#x442;" horiz-adv-x="1089" 
d="M446 0v866h-200q-45 0 -45 -45v-69h-164v157q0 68 31 98t100 29h754q70 0 100 -30t31 -97v-157h-164v69q0 45 -45 45h-201v-866h-197z" />
    <glyph glyph-name="uni0443" unicode="&#x443;" horiz-adv-x="1112" 
d="M250 -430q-68 0 -129 26t-88 52l-27 24l82 144q2 -6 20 -22t56 -34q37 -18 76 -18q119 0 182 149l47 113l-354 821q-18 41 -64 41h-26v170h116q63 0 95 -21q31 -22 55 -83l233 -584l37 -125h4q16 72 35 125l217 584q20 61 53 83t97 21h118v-170h-26q-47 0 -66 -41
l-407 -1011q-49 -120 -137 -182t-199 -62z" />
    <glyph glyph-name="uni0444" unicode="&#x444;" horiz-adv-x="1501" 
d="M651 872q-173 0 -277 -97t-104 -256t104 -258t277 -99v710zM850 162q174 0 276 99t102 258t-102 256t-276 97v-710zM70 520q0 231 159 373q160 141 422 143v195q0 45 -45 45h-84v170h197q71 0 101 -31t30 -100v-279q262 -2 422 -143t160 -373t-161 -374
q-161 -144 -421 -146v-410h-199v410q-260 2 -421 145q-160 144 -160 375z" />
    <glyph glyph-name="uni0445" unicode="&#x445;" horiz-adv-x="1036" 
d="M106 866h-59v170h127q72 0 107 -19t75 -85l125 -201l33 -65h4q18 39 35 65l125 201q41 66 76 85t106 19h127v-170h-59q-59 0 -86 -37l-199 -297l350 -532h-225l-217 338l-33 55h-4q-14 -31 -31 -55l-217 -338h-225l350 532l-198 295q-27 39 -87 39z" />
    <glyph glyph-name="uni0446" unicode="&#x446;" horiz-adv-x="1241" 
d="M172 129v692q0 45 -45 45h-84v170h197q70 0 100 -30t31 -101v-694q0 -45 43 -45h442v870h199v-870h32q68 0 98 -31t29 -98v-283h-184v201q0 45 -41 45h-686q-71 0 -101 30t-30 99z" />
    <glyph glyph-name="uni0447" unicode="&#x447;" horiz-adv-x="1107" 
d="M491 360q-167 0 -251 80t-84 232v149q0 45 -47 45h-74v170h186q72 0 101 -34t28 -97v-178q0 -90 42 -142q42 -53 160 -53t226 74v430h199v-1036h-199v375l2 65h-2q-121 -80 -287 -80z" />
    <glyph glyph-name="uni0448" unicode="&#x448;" horiz-adv-x="1697" 
d="M172 131v690q0 45 -45 45h-84v170h197q70 0 100 -30t31 -101v-694q0 -45 43 -45h334v870h198v-870h338q43 0 43 45v694q0 70 31 101t100 30h197v-170h-84q-45 0 -45 -45v-690q0 -71 -31 -101t-100 -30h-1092q-71 0 -101 30t-30 101z" />
    <glyph glyph-name="uni0449" unicode="&#x449;" horiz-adv-x="1712" 
d="M172 131v690q0 45 -45 45h-84v170h197q70 0 100 -30t31 -101v-698q0 -45 43 -45h334v874h198v-874h381v874h199v-874h43q69 0 97 -31t28 -98v-279h-183v201q0 45 -45 45h-1163q-71 0 -101 30t-30 101z" />
    <glyph glyph-name="uni044A" unicode="&#x44a;" horiz-adv-x="1222" 
d="M594 184q0 -41 39 -41h145q94 -1 148 51t55 137q0 85 -53 135t-150 50h-184v-332zM395 113v718q0 45 -41 46h-114q-43 0 -43 -46v-77h-160v155q0 70 31 99t100 28h295q71 0 101 -30t30 -101v-246h209q178 0 278 -90q101 -91 101 -241t-104 -239t-275 -89h-293
q-61 0 -88 27t-27 86z" />
    <glyph glyph-name="uni044B" unicode="&#x44b;" horiz-adv-x="1482" 
d="M371 184q0 -41 39 -41h141q92 -1 144 51q53 52 53 137t-52 134t-145 49h-180v-330zM172 113v708q0 45 -45 45h-84v170h197q131 0 131 -118v-261h204q177 0 275 -89q98 -90 98 -240t-103 -239t-270 -89h-290q-59 0 -86 27t-27 86zM1110 131v905h199v-821q0 -45 45 -45h82
v-170h-195q-71 0 -101 30t-30 101z" />
    <glyph glyph-name="uni044C" unicode="&#x44c;" horiz-adv-x="993" 
d="M371 184q0 -41 39 -41h145q90 -1 142 51q53 52 53 137t-50 134t-145 49h-184v-330zM172 113v708q0 45 -45 45h-84v170h197q129 0 131 -118v-261h209q174 0 271 -89q97 -90 97 -240t-102 -239t-266 -89h-295q-59 0 -86 27t-27 86z" />
    <glyph glyph-name="uni044D" unicode="&#x44d;" horiz-adv-x="1085" 
d="M459 137q141 0 242 86t120 223h-487v140h489q-18 143 -117 228t-231 85q-86 0 -159 -30t-72 -78v-52h-170v86q0 98 113 167q114 69 292 69q235 0 387 -155q152 -156 152 -390t-155 -388t-401 -153q-246 0 -409 156l78 141q133 -135 328 -135z" />
    <glyph glyph-name="uni044E" unicode="&#x44e;" horiz-adv-x="1697" 
d="M750 519q0 -161 98 -266t242 -105t240 104q97 106 97 267t-97 265t-240 104q-144 0 -242 -104t-98 -265zM174 0v821q0 45 -45 45h-84v170h197q70 0 100 -30t31 -101v-305h192q23 203 169 332t364 129t376 -154t156 -387q0 -233 -156 -389t-374 -156q-218 1 -366 133
t-171 336h-190v-444h-199z" />
    <glyph glyph-name="uni044F" unicode="&#x44f;" horiz-adv-x="1073" 
d="M526 520h174v379h-180q-98 0 -152 -51t-54 -137q0 -87 58 -139t154 -52zM45 0v170h33q68 0 96 41l117 162q25 35 53 53v4q-102 25 -166 99q-63 75 -63 204t97 216t251 87h565v-170h-129v-866h-199v377h-114q-40 0 -60 -12t-51 -58l-151 -211q-47 -64 -78 -80t-107 -16
h-94z" />
    <glyph glyph-name="uni0450" unicode="&#x450;" horiz-adv-x="1103" 
d="M535 1188l-195 260h201l149 -260h-155zM281 635h555q-4 129 -75 201t-183 72t-194 -74q-83 -72 -103 -199zM68 524q0 238 147 388t365 149q218 0 336 -138t118 -348q0 -35 -6 -83h-756q8 -162 110 -253t249 -92q65 0 128 22t93 41t66 44l18 14l84 -145q-86 -71 -199 -110
q-112 -38 -203 -38q-242 0 -396 155q-154 156 -154 394z" />
    <glyph glyph-name="uni0451" unicode="&#x451;" horiz-adv-x="1103" 
d="M281 635h555q-4 129 -75 201t-183 72t-194 -74q-83 -72 -103 -199zM68 524q0 238 147 388t365 149q218 0 336 -138t118 -348q0 -35 -6 -83h-756q8 -162 110 -253t249 -92q65 0 128 22t93 41t66 44l18 14l84 -145q-86 -71 -199 -110q-112 -38 -203 -38q-242 0 -396 155
q-154 156 -154 394zM332 1241v207h151v-207h-151zM670 1241v207h149v-207h-149z" />
    <glyph glyph-name="uni0452" unicode="&#x452;" horiz-adv-x="1196" 
d="M137 0v1133h-129v145h129v168h199v-168h422v-145h-422v-336l-4 -86h4q43 91 132 161t228 70q184 0 282 -100t97 -297v-588q0 -121 -42 -204q-43 -83 -111 -120q-117 -63 -244 -63l-70 6v170q18 -4 50 -4t65 8q154 37 154 221v529q0 258 -220 258q-115 0 -193 -69
q-128 -112 -128 -322v-367h-199z" />
    <glyph glyph-name="uni0453" unicode="&#x453;" horiz-adv-x="899" 
d="M174 0v866h-129v170h686q72 0 103 -28t30 -99v-157h-166v69q0 45 -45 45h-280v-866h-199zM381 1188l149 260h201l-194 -260h-156z" />
    <glyph glyph-name="uni0454" unicode="&#x454;" horiz-adv-x="1083" 
d="M68 516q0 234 154 389q155 156 403 156q117 0 232 -47q60 -25 100 -72t40 -108v-95h-170v54q1 49 -67 79t-144 29q-141 0 -239 -84t-115 -225h498v-139h-498q18 -143 120 -229t245 -87q92 0 176 34t123 69l37 34l77 -137l-17 -17q-11 -11 -51 -39q-148 -103 -351 -106
q-245 -1 -399 153t-154 388z" />
    <glyph glyph-name="uni0455" unicode="&#x455;" horiz-adv-x="919" 
d="M651 264q0 57 -58 96t-140 71t-165 71t-142 107q-58 69 -58 161q0 141 109 216t253 75t254 -48t109 -153v-98h-178v51q0 41 -50 65t-123 24t-125 -33q-52 -32 -52 -88t58 -96t142 -70q84 -31 167 -67q84 -36 142 -105t58 -164q0 -137 -108 -221t-268 -83q-160 0 -265 61
q-104 61 -137 103l-17 19l101 133q11 -16 49 -48q125 -103 234 -105q108 -1 159 34t51 92z" />
    <glyph glyph-name="uni0456" unicode="&#x456;" horiz-adv-x="542" 
d="M172 131v690q0 45 -45 45h-84v170h195q70 0 102 -30t31 -101v-690q0 -45 45 -45h84v-170h-197q-71 0 -101 30t-30 101zM176 1239v207h178v-207h-178z" />
    <glyph glyph-name="uni0457" unicode="&#x457;" horiz-adv-x="542" 
d="M172 131v690q0 45 -45 45h-84v170h195q70 0 102 -30t31 -101v-690q0 -45 45 -45h84v-170h-197q-71 0 -101 30t-30 101zM33 1239v207h151v-207h-151zM319 1239v207h150v-207h-150z" />
    <glyph glyph-name="uni0458" unicode="&#x458;" horiz-adv-x="501" 
d="M172 -23v844q0 45 -45 45h-84v170h197q70 0 100 -30t31 -101v-940q0 -98 -30 -172t-72 -114q-106 -101 -296 -101l-69 4v170q18 -2 68 -2t117 37q83 44 83 190zM176 1239v207h178v-207h-178z" />
    <glyph glyph-name="uni0459" unicode="&#x459;" horiz-adv-x="1519" 
d="M891 184q0 -41 39 -41h145q97 -1 153 49t56 133t-54 132t-157 49h-182v-322zM20 -8v176q68 2 119 61q89 103 123 356q14 103 14 210v71h-129v170h613q131 0 131 -118v-267h205q182 0 282 -87t100 -236q0 -148 -98 -238q-100 -90 -284 -90h-291q-59 0 -86 27t-27 86v716
q0 45 -45 45h-182v-73q0 -221 -38 -373t-84 -237t-130 -142t-193 -57z" />
    <glyph glyph-name="uni045A" unicode="&#x45a;" horiz-adv-x="1677" 
d="M1055 184q0 -41 39 -41h145q97 -1 149 49t52 132t-52 127t-149 45h-184v-312zM174 0v821q0 45 -45 45h-84v170h197q70 0 100 -30t31 -101v-262h483v393h199v-391h205q176 0 275 -86q99 -87 99 -235t-102 -236t-272 -88h-291q-59 0 -86 27t-27 86v372h-483v-485h-199z" />
    <glyph glyph-name="uni045B" unicode="&#x45b;" horiz-adv-x="1243" 
d="M137 0v1133h-129v145h129v168h199v-168h422v-145h-422v-334l-4 -86h4q41 87 141 159t242 72q356 0 356 -397v-332q0 -45 45 -45h84v-170h-196q-70 0 -101 31t-30 100v371q0 124 -40 192t-156 68t-206 -72q-139 -111 -139 -321v-369h-199z" />
    <glyph glyph-name="uni045C" unicode="&#x45c;" horiz-adv-x="1091" 
d="M174 0v821q0 45 -45 45h-84v170h197q70 0 100 -30t31 -101v-276h86q78 0 108 47l248 360h223l-284 -411q-40 -59 -70 -72l-8 -6v-4q39 -14 78 -78l151 -254q25 -41 90 -41h62v-170h-144q-75 0 -107 18t-65 78l-184 322q-25 41 -100 41h-84v-459h-199zM471 1188l150 260
h200l-194 -260h-156z" />
    <glyph glyph-name="uni045D" unicode="&#x45d;" horiz-adv-x="1267" 
d="M602 1188l-194 260h200l150 -260h-156zM172 0v821q0 45 -43 45h-82v170h182q70 0 101 -30t30 -99v-493q0 -102 -8 -144h4q20 41 97 144l446 622h197v-821q0 -45 43 -45h82v-170h-183q-70 0 -100 31t-31 100v492q0 80 8 145h-4q-16 -39 -96 -145l-446 -623h-197z" />
    <glyph glyph-name="uni045E" unicode="&#x45e;" horiz-adv-x="1112" 
d="M864 1417q0 -121 -88 -191t-214 -71q-126 0 -215 71t-89 191v31h160v-29q0 -63 43 -99t101 -36t102 36q43 36 43 101v27h157v-31zM250 -430q-68 0 -129 26t-88 52l-27 24l82 144q2 -6 20 -22t56 -34q37 -18 76 -18q119 0 182 149l47 113l-354 821q-18 41 -64 41h-26v170
h116q63 0 95 -21q31 -22 55 -83l233 -584l37 -125h4q16 72 35 125l217 584q20 61 53 83t97 21h118v-170h-26q-47 0 -66 -41l-407 -1011q-49 -120 -137 -182t-199 -62z" />
    <glyph glyph-name="uni045F" unicode="&#x45f;" horiz-adv-x="1210" 
d="M172 129v692q0 45 -45 45h-84v170h197q70 0 100 -30t31 -101v-694q0 -45 43 -45h383q43 0 43 45v694q0 70 31 101q32 31 102 30h194v-170h-84q-45 0 -45 -45v-692q0 -69 -30 -99t-99 -30h-215v-246h-178v246h-213q-71 0 -101 30t-30 99z" />
    <glyph glyph-name="uni0462" unicode="&#x462;" horiz-adv-x="1390" 
d="M590 217q0 -45 45 -45h239q121 0 194 70t73 190t-73 182q-73 61 -194 62h-284v-459zM385 131v944h-360v178h360v193h205v-193h397v-178h-397v-227h289q201 0 337 -102t136 -310t-138 -322t-335 -114h-361q-70 0 -102 30t-31 101z" />
    <glyph glyph-name="uni0463" unicode="&#x463;" horiz-adv-x="1099" 
d="M467 184q0 -41 39 -41h151q95 -1 149 53t54 140t-53 136t-150 50h-190v-338zM268 113v827h-248v150h248v356h199v-356h338v-150h-338v-274h215q176 0 277 -90t101 -244q0 -152 -104 -242t-274 -90h-301q-59 0 -86 27t-27 86z" />
    <glyph glyph-name="uni0472" unicode="&#x472;" horiz-adv-x="1624" 
d="M811 1288q-207 0 -355 -135t-175 -342h1060q-27 207 -175 342t-355 135zM811 160q207 0 354 138t176 351h-1058q27 -213 174 -351t354 -138zM1554 728q0 -318 -213 -534q-213 -218 -530 -218t-529 217t-212 535t212 530t529 212t530 -212t213 -530z" />
    <glyph glyph-name="uni0473" unicode="&#x473;" horiz-adv-x="1247" 
d="M625 901q-137 0 -239 -87t-126 -226h727q-21 139 -123 226t-239 87zM625 135q139 0 241 91t123 235h-729q20 -145 123 -235t242 -91zM66 519q0 232 161 387q162 155 397 155q234 0 396 -154t162 -387t-162 -389t-395 -156t-397 156q-162 156 -162 388z" />
    <glyph glyph-name="uni0474" unicode="&#x474;" horiz-adv-x="1417" 
d="M1260 1446h135v-176h-45q-74 0 -101 -18t-47 -81l-420 -1171h-217l-536 1446h229l358 -1010l56 -198h4q29 121 55 198l287 848q35 104 82 133t160 29z" />
    <glyph glyph-name="uni0475" unicode="&#x475;" horiz-adv-x="1150" 
d="M1024 1036h106v-172h-53q-67 0 -97 -22t-54 -92l-275 -750h-221l-399 1036h217l262 -700l37 -135h4q16 78 37 135l176 510q37 110 93 150t167 40z" />
    <glyph glyph-name="uni048A" unicode="&#x48a;" horiz-adv-x="1622" 
d="M796 1513q-126 0 -215 71t-89 192v30h159v-28q0 -64 43 -100q44 -36 102 -36t101 36t43 102v26h158v-30q0 -121 -88 -192t-214 -71zM203 0v1225q0 45 -45 45h-88v176h206q70 0 101 -31t31 -100v-793l-13 -207h4q78 131 129 209l631 922h201v-1225q0 -45 45 -45h178v-117
l-147 -346h-150l82 287h-80q-70 0 -102 31t-31 100v795l12 211h-4q-72 -133 -123 -211l-634 -926h-203z" />
    <glyph glyph-name="uni048B" unicode="&#x48b;" horiz-adv-x="1320" 
d="M942 1417q0 -121 -88 -191t-214 -71q-126 0 -215 71t-89 191v31h160v-29q0 -63 43 -99t101 -36t101 36t43 101v27h158v-31zM172 0v821q0 45 -43 45h-82v170h182q70 0 101 -30t30 -99v-493q0 -102 -8 -144h4q20 41 97 144l446 622h197v-821q0 -45 43 -45h147v-111
l-129 -305h-141l67 246h-45q-70 0 -100 31t-31 100v492q0 80 8 145h-4q-16 -39 -96 -145l-446 -623h-197z" />
    <glyph glyph-name="uni048C" unicode="&#x48c;" horiz-adv-x="1353" 
d="M549 217q0 -45 45 -45h240q124 0 198 74t74 198t-77 194q-77 71 -204 71h-276v-492zM344 131v1036h-326v158h324v211h207v-211h375v-158h-375v-286h280q205 0 347 -109q142 -110 141 -324q0 -214 -138 -331t-339 -117h-365q-71 0 -101 30t-30 101z" />
    <glyph glyph-name="uni048D" unicode="&#x48d;" horiz-adv-x="1099" 
d="M467 184q0 -41 39 -41h151q95 -1 149 53t54 140t-53 136t-150 50h-190v-338zM268 113v827h-248v150h248v356h199v-356h338v-150h-338v-274h215q176 0 277 -90t101 -244q0 -152 -104 -242t-274 -90h-299q-61 0 -88 27t-27 86z" />
    <glyph glyph-name="uni048E" unicode="&#x48e;" horiz-adv-x="1249" 
d="M983 992q0 124 -76 201t-209 77h-292v-578h290q66 0 119 19l-137 180l115 90l137 -184q53 71 53 195zM201 0v1270h-133v176h655q201 0 327 -124t126 -332t-136 -337l125 -166l-110 -90l-135 176q-84 -39 -197 -38h-317v-535h-205z" />
    <glyph glyph-name="uni048F" unicode="&#x48f;" horiz-adv-x="1253" 
d="M367 528q1 -170 79 -280t218 -111q82 0 147 39l-141 172l110 96l135 -161q57 99 57 249t-85 252q-86 102 -216 102t-217 -93q-87 -95 -87 -265zM174 -410v1231q0 45 -45 45h-84v170h186q127 0 127 -104l-2 -55h4q12 25 45 60q110 121 309 123q200 1 324 -149t123 -388
q0 -238 -123 -388l111 -133l-111 -96l-112 133q-104 -63 -250 -63t-257 106q-26 25 -36 41l-10 18h-4q4 -37 4 -90v-461h-199z" />
    <glyph glyph-name="uni0490" unicode="&#x490;" horiz-adv-x="1026" 
d="M201 0v1270h-133v176h698q45 0 45 45v102h188v-192q1 -70 -31 -101t-102 -30h-460v-1270h-205z" />
    <glyph glyph-name="uni0491" unicode="&#x491;" horiz-adv-x="854" 
d="M174 0v866h-127v170h567q45 0 45 45v93h168v-181q-1 -67 -31 -97t-100 -30h-323v-866h-199z" />
    <glyph glyph-name="uni0492" unicode="&#x492;" horiz-adv-x="1048" 
d="M207 0v618h-133v156h133v496h-133v176h809q69 0 101 -31t32 -100v-182h-189v92q0 45 -45 45h-370v-496h315v-156h-315v-618h-205z" />
    <glyph glyph-name="uni0493" unicode="&#x493;" horiz-adv-x="905" 
d="M47 403v142h127v321h-129v170h686q72 0 103 -28t30 -99v-157h-166v69q0 45 -45 45h-280v-321h264v-142h-264v-403h-199v403h-127z" />
    <glyph glyph-name="uni0494" unicode="&#x494;" horiz-adv-x="1241" 
d="M201 0v1278h-133v168h843q70 0 100 -29t29 -98v-166h-170v80q0 45 -45 45h-419v-483q127 59 280 59q494 0 494 -582q0 -326 -138 -482t-385 -155v166q313 0 314 471q0 214 -78 310t-246 96q-117 0 -241 -57v-621h-205z" />
    <glyph glyph-name="uni0495" unicode="&#x495;" horiz-adv-x="1038" 
d="M174 0v866h-127v170h703q72 0 102 -22t29 -90v-172h-166v75q0 39 -37 39h-305v-364q111 53 229 53q197 0 290 -122t93 -302q0 -358 -307 -555l-98 141q213 127 213 394q-1 123 -55 201t-166 77q-112 0 -199 -53v-336h-199z" />
    <glyph glyph-name="uni0496" unicode="&#x496;" horiz-adv-x="1888" 
d="M100 1270h-41v176h103q86 0 123 -20t73 -89l244 -446q20 -35 48 -46t77 -11h80v612h197v-612h75q96 0 129 57l244 446q37 68 74 88t123 21h102v-176h-41q-78 0 -104 -47l-207 -379q-39 -71 -68 -84l-12 -6v-4q49 -23 90 -95l283 -479h75q70 0 100 -30t29 -99v-334h-184
v242q0 41 -35 45h-106l-352 608q-35 59 -117 60h-98v-668h-197v668h-98q-82 0 -117 -60l-352 -608h-226l385 655q18 33 42 57t38 29l13 9v4q-39 14 -80 90l-209 379q-25 47 -103 47z" />
    <glyph glyph-name="uni0497" unicode="&#x497;" horiz-adv-x="1599" 
d="M119 866h-53v170h122q76 0 111 -17t63 -79l134 -268q33 -61 118 -62h62v426h192v-426h60q86 0 119 62l133 268q29 61 63 79q35 17 111 17h123v-170h-54q-41 0 -60 -8t-32 -33l-106 -213q-15 -31 -35 -51t-35 -24l-12 -7v-4q68 -14 119 -100l151 -260h47q68 0 96 -31
t29 -98v-283h-182v201q0 45 -39 45h-84l-205 360q-49 82 -145 82h-62v-442h-192v442h-62q-96 0 -147 -82l-203 -360h-231l248 426q45 76 118 100v4q-49 14 -82 82l-106 213q-18 41 -92 41z" />
    <glyph glyph-name="uni0498" unicode="&#x498;" horiz-adv-x="1085" 
d="M510 158q113 0 199 70t86 185q0 117 -77 181t-192 63h-172v168h148q104 0 177 67t73 169q0 103 -64 165t-170 62q-108 0 -175 -40t-67 -97v-59h-188v112q0 90 73 154q132 115 350 113q218 -1 333 -104t114 -273q0 -221 -208 -328v-4q120 -33 188 -128q68 -96 68 -244
t-108 -262t-286 -142v-273h-184v267q-240 24 -387 188l121 143q55 -59 145 -106t203 -47z" />
    <glyph glyph-name="uni0499" unicode="&#x499;" horiz-adv-x="905" 
d="M416 137q92 0 153 44t62 128q0 156 -211 156h-131v137h104q203 0 203 158q0 76 -49 114t-121 37q-72 0 -126 -25q-52 -26 -52 -75v-47h-166v96q0 98 102 150t259 51q157 0 255 -73t99 -208q0 -90 -44 -149t-110 -84v-4q82 -19 134 -83t52 -176q1 -112 -79 -192t-209 -104
v-234h-179v226q-180 18 -315 147l94 131q121 -121 275 -121z" />
    <glyph glyph-name="uni049A" unicode="&#x49a;" horiz-adv-x="1296" 
d="M203 0v1225q0 45 -45 45h-88v176h206q70 0 101 -31t31 -100v-477h137q90 0 119 49l321 559h229l-350 -600q-32 -58 -69 -88l-13 -6v-4q43 -10 82 -91l240 -481h61q70 0 99 -30t28 -99v-334h-182v242q0 45 -43 45h-104l-304 610q-25 53 -129 54h-122v-664h-205z" />
    <glyph glyph-name="uni049B" unicode="&#x49b;" horiz-adv-x="1101" 
d="M174 0v821q0 45 -45 45h-84v170h197q72 0 102 -26t29 -92v-281h92q76 0 108 47l242 352h223l-278 -403q-28 -41 -68 -72l-10 -4v-4q33 -16 68 -80l180 -307h43q115 0 114 -129v-283h-182v201q0 45 -33 45h-75l-246 426q-23 41 -100 41h-78v-467h-199z" />
    <glyph glyph-name="uni049C" unicode="&#x49c;" horiz-adv-x="1429" 
d="M555 414v250h-147v-664h-205v1225q0 45 -45 45h-88v176h206q70 0 101 -31t31 -100v-477h147v245h152v-245h20q92 0 119 49l313 559h230l-345 -600q-34 -71 -81 -94v-4q43 -10 81 -91l211 -434q23 -47 103 -47h41v-176h-115q-88 0 -128 20t-73 89l-243 501q-16 33 -46 43
t-83 11h-4v-250h-152z" />
    <glyph glyph-name="uni049D" unicode="&#x49d;" horiz-adv-x="1218" 
d="M483 233v234h-110v-467h-199v821q0 45 -45 45h-84v170h195q72 0 102 -26t31 -92v-279h110v188h144v-188q68 0 96 43l225 354h223l-264 -403q-42 -61 -76 -76v-4q37 -20 70 -84l127 -258q12 -25 30 -33t60 -8h62v-170h-144q-72 0 -106 18t-66 78l-162 330q-23 35 -75 39
v-232h-144z" />
    <glyph glyph-name="uni049E" unicode="&#x49e;" horiz-adv-x="1269" 
d="M41 1075v154h168v217h205v-217h192v-154h-192v-237h147q90 0 119 49l319 559h230l-350 -600q-34 -70 -82 -94v-4q43 -10 82 -91l217 -434q23 -47 102 -47h41v-176h-115q-88 0 -127 20t-73 89l-250 501q-25 53 -129 54h-131v-664h-205v1075h-168z" />
    <glyph glyph-name="uni049F" unicode="&#x49f;" horiz-adv-x="1073" 
d="M12 1081v142h144v223h198v-223h240v-142h-240v-426h92q74 0 107 45l240 336h229l-283 -385q-42 -60 -77 -78v-4q35 -12 69 -77l154 -281q23 -41 90 -41h61v-170h-143q-72 0 -106 18t-66 78l-189 348q-23 43 -102 43h-76v-487h-198v1081h-144z" />
    <glyph glyph-name="uni04A0" unicode="&#x4a0;" horiz-adv-x="1548" 
d="M504 0v1270h-244q-45 0 -45 -45v-92h-188v192q1 69 29 95t98 26h688v-176h-133v-432h131q90 0 118 49l320 559h229l-350 -600q-34 -70 -82 -94v-4q43 -10 82 -91l217 -434q23 -47 103 -47h41v-176h-115q-88 0 -127 20t-74 89l-250 501q-25 53 -129 54h-114v-664h-205z
" />
    <glyph glyph-name="uni04A1" unicode="&#x4a1;" horiz-adv-x="1306" 
d="M397 0v836q0 41 -37 41h-124q-37 0 -37 -41v-82h-162v170q0 68 30 90t101 22h297q71 0 101 -26t30 -92v-289h80q76 0 106 47l246 360h227l-286 -411q-37 -53 -78 -78v-4q41 -14 78 -78l153 -254q23 -41 90 -41h60v-170h-144q-72 0 -106 18t-66 78l-184 322q-25 41 -98 41
h-78v-459h-199z" />
    <glyph glyph-name="uni04A2" unicode="&#x4a2;" horiz-adv-x="1599" 
d="M203 0v1225q0 45 -45 45h-88v176h206q70 0 101 -31t31 -100v-506h735v506q0 71 32 101t101 30h205v-176h-88q-45 0 -45 -45v-1049h71q70 0 100 -30t29 -99v-334h-184v242q0 45 -43 45h-178v635h-735v-635h-205z" />
    <glyph glyph-name="uni04A3" unicode="&#x4a3;" horiz-adv-x="1296" 
d="M897 0v449h-524v-449h-199v821q0 45 -45 45h-84v170h197q70 0 100 -30t31 -101v-291h524v422h199v-870h49q67 0 95 -31t28 -98v-283h-183v201q0 45 -36 45h-152z" />
    <glyph glyph-name="uni04A4" unicode="&#x4a4;" horiz-adv-x="1927" 
d="M203 0v1225q0 45 -45 45h-88v176h206q70 0 101 -31t31 -100v-506h688v461h-133v176h813q70 0 98 -29t29 -98v-186h-189v92q0 45 -45 45h-369v-1270h-204v635h-688v-635h-205z" />
    <glyph glyph-name="uni04A5" unicode="&#x4a5;" horiz-adv-x="1550" 
d="M174 0v821q0 45 -45 45h-84v170h197q70 0 100 -30t31 -101v-313h475v285h-127v159h661q72 0 102 -22t29 -90v-164h-163v76q0 41 -39 41h-264v-877h-199v424h-475v-424h-199z" />
    <glyph glyph-name="uni04A6" unicode="&#x4a6;" horiz-adv-x="2033" 
d="M203 0v1270h-135v176h1011q70 0 101 -31t30 -100v-492q127 59 279 60q496 0 496 -602q0 -645 -525 -646v166q313 0 314 480q0 229 -78 331t-246 103q-96 0 -240 -56v-659h-204v1225q0 45 -45 45h-553v-1270h-205z" />
    <glyph glyph-name="uni04A7" unicode="&#x4a7;" horiz-adv-x="1665" 
d="M172 0v866h-117v170h1045v-170h-115v-303q111 53 225 53q214 0 314 -132t100 -339q0 -367 -307 -569l-98 141q213 137 213 432t-261 295q-98 0 -186 -49v-395h-199v866h-415v-866h-199z" />
    <glyph glyph-name="uni04A8" unicode="&#x4a8;" horiz-adv-x="1857" 
d="M924 852q0 -192 76 -336t219 -233q155 99 247 249t92 336t-88 289q-90 105 -220 105t-228 -108q-98 -110 -98 -302zM72 745q0 154 48 285q82 224 292 361q86 55 176 82l69 -185q-157 -53 -269 -193t-112 -369q0 -228 140 -396t395 -168q113 0 223 35q-150 113 -234 277
t-85 364q-1 280 157 444t381 164t369 -160t145 -434q0 -186 -94 -357t-254 -298q100 -29 236 -29h94v-168h-98q-225 0 -412 80q-205 -104 -430 -105q-325 0 -531 212t-206 558z" />
    <glyph glyph-name="uni04A9" unicode="&#x4a9;" horiz-adv-x="1566" 
d="M1282 635q0 123 -64 195t-175 71q-110 -1 -181 -79t-71 -200t63 -222t174 -160q114 68 184 170t70 225zM68 535q0 207 113 341q114 134 263 185l68 -162q-104 -41 -180 -137t-76 -246t104 -264t308 -113q88 0 180 25q-248 176 -248 457q0 186 126 313t320 127t310 -117
t117 -299q0 -264 -256 -473q70 -14 157 -14h111v-158h-103q-178 0 -342 61q-178 -86 -372 -86q-283 0 -442 158q-158 158 -158 402z" />
    <glyph glyph-name="uni04AA" unicode="&#x4aa;" horiz-adv-x="1429" 
d="M883 -287h-185v271q-282 36 -454 246t-172 514t208 516t517 210q169 0 343 -68q87 -34 143 -98t56 -147v-141h-188v82q0 84 -113 133t-237 49q-221 0 -369 -152t-147 -392t151 -404t371 -164q165 0 277 64q113 64 161 112l19 21l110 -148q-215 -215 -491 -237v-267z" />
    <glyph glyph-name="uni04AB" unicode="&#x4ab;" horiz-adv-x="1089" 
d="M68 530q0 219 154 375q155 156 403 156q117 0 232 -47q60 -25 100 -72t40 -108v-107h-180v57q0 51 -62 79t-130 28q-154 1 -255 -103q-102 -104 -102 -271t106 -266t261 -99q86 0 167 36t118 70l36 37l84 -141q-14 -16 -41 -42t-117 -73t-192 -59v-226h-178v232
q-201 33 -323 179q-121 146 -121 365z" />
    <glyph glyph-name="uni04AC" unicode="&#x4ac;" horiz-adv-x="1302" 
d="M545 0v1270h-289q-45 0 -45 -45v-92h-184v190q1 71 27 97t96 26h995q71 0 97 -27t26 -96v-190h-183v92q0 45 -45 45h-290v-1094h71q70 0 99 -30t28 -99v-334h-182v242q0 41 -37 45h-184z" />
    <glyph glyph-name="uni04AD" unicode="&#x4ad;" horiz-adv-x="1097" 
d="M446 0v866h-200q-45 0 -45 -45v-69h-164v157q0 68 31 98t100 29h754q70 0 100 -30t31 -97v-157h-164v69q0 45 -45 45h-201v-700h53q66 0 95 -31t28 -98v-283h-182v201q0 45 -37 45h-154z" />
    <glyph glyph-name="uni04AE" unicode="&#x4ae;" horiz-adv-x="1241" 
d="M518 0v631l-366 588q-29 51 -89 51h-40v176h94q77 0 115 -20t79 -91l219 -364l88 -162h5q41 82 88 162l217 364q41 70 80 90t114 21h97v-176h-41q-59 0 -91 -51l-364 -588v-631h-205z" />
    <glyph glyph-name="uni04AF" unicode="&#x4af;" horiz-adv-x="1091" 
d="M47 866h-20v170h102q69 0 101 -22t57 -82l217 -549l41 -127h4q23 72 43 127l215 549q25 61 57 83q33 22 101 21h102v-170h-20q-47 0 -66 -41l-336 -778v-457h-196v457l-338 778q-18 41 -64 41z" />
    <glyph glyph-name="uni04B0" unicode="&#x4b0;" horiz-adv-x="1239" 
d="M270 477v150h248v4l-364 588q-31 51 -91 51h-40v176h94q77 0 115 -20t79 -91l219 -362l88 -164h5q41 82 88 164l217 362q43 70 81 90t113 21h97v-176h-41q-61 0 -91 -51l-364 -588v-4h244v-150h-244v-477h-205v477h-248z" />
    <glyph glyph-name="uni04B1" unicode="&#x4b1;" horiz-adv-x="1093" 
d="M211 0v145h195l-295 680q-18 41 -64 41h-20v170h102q69 0 101 -22t57 -82l217 -549l41 -127h4q23 72 43 127l215 549q25 61 57 83q33 22 101 21h102v-170h-20q-47 0 -66 -41l-295 -680h199v-145h-240v-410h-196v410h-238z" />
    <glyph glyph-name="uni04B2" unicode="&#x4b2;" horiz-adv-x="1284" 
d="M92 1270h-51v176h119q78 0 116 -22t78 -89l162 -274l92 -170h4q41 90 88 170l164 274q39 67 78 89t115 22h121v-176h-54q-63 0 -94 -51l-293 -474l348 -569h76q70 0 99 -30t28 -99v-334h-182v242q0 41 -37 45h-106l-265 440l-90 164h-4q-43 -86 -88 -166l-262 -438h-229
l454 745l-291 474q-20 33 -40 42t-56 9z" />
    <glyph glyph-name="uni04B3" unicode="&#x4b3;" horiz-adv-x="1079" 
d="M106 866h-59v170h127q72 0 107 -19t75 -85l125 -201l33 -65h4q18 39 35 65l125 201q41 66 76 85t106 19h127v-170h-59q-59 0 -86 -37l-199 -297l240 -366h51q66 0 94 -31t29 -98v-283h-185v201q0 43 -28 45h-76l-217 338l-33 55h-4q-14 -31 -31 -55l-217 -338h-225
l350 532l-198 295q-27 39 -87 39z" />
    <glyph glyph-name="uni04B4" unicode="&#x4b4;" horiz-adv-x="1882" 
d="M510 131v1139h-254q-45 0 -45 -45v-92h-182v190q1 71 27 97t96 26h913q69 0 97 -27t28 -96v-190h-176v92q0 45 -45 45h-254v-1049q0 -45 45 -45h690v1270h205v-1270h49q70 0 98 -30t29 -99v-334h-182v242q0 45 -43 45h-963q-69 0 -101 30t-32 101z" />
    <glyph glyph-name="uni04B5" unicode="&#x4b5;" horiz-adv-x="1527" 
d="M395 129v745h-182q-39 0 -39 -40v-74h-139v162q0 68 30 92t101 22h651q72 0 102 -24t29 -90v-162h-139v74q0 41 -37 40h-178v-663q0 -45 43 -45h502v870h198v-870h31q68 0 96 -31t29 -98v-283h-182v201q0 45 -43 45h-742q-70 0 -100 30t-31 99z" />
    <glyph glyph-name="uni04B6" unicode="&#x4b6;" horiz-adv-x="1409" 
d="M606 553q-223 0 -334 110t-110 312v250q0 45 -45 45h-88v176h207q70 0 100 -31t31 -100v-295q-1 -141 67 -211t232 -70t295 99v608h204v-1270h72q69 0 99 -29t30 -100v-334h-182v242q0 41 -37 45h-186v586l4 67h-4q-181 -100 -355 -100z" />
    <glyph glyph-name="uni04B7" unicode="&#x4b7;" horiz-adv-x="1177" 
d="M491 360q-167 0 -251 80t-84 232v149q0 45 -47 45h-74v170h186q72 0 101 -34t28 -97v-178q0 -90 42 -142q42 -53 160 -53t226 74v430h199v-870h49q66 0 94 -31t29 -98v-283h-182v201q0 41 -31 45h-158v375l2 65h-2q-121 -80 -287 -80z" />
    <glyph glyph-name="uni04B8" unicode="&#x4b8;" horiz-adv-x="1368" 
d="M592 559q-213 0 -323 108t-109 308v250q0 45 -45 45h-88v176h206q70 0 101 -31t31 -100v-289q0 -264 233 -283v283h152v-278q147 23 247 92v606h205v-1446h-205v588l4 67h-4q-109 -59 -247 -84v-227h-152v215h-6z" />
    <glyph glyph-name="uni04B9" unicode="&#x4b9;" horiz-adv-x="1165" 
d="M504 365q-166 0 -258 86t-92 237v133q0 45 -45 45h-76v170h188q129 0 129 -133v-162q0 -86 36 -140t132 -66v249h144v-243q94 18 172 65v430h198v-1036h-198v383l4 63h-4q-82 -45 -172 -63v-180h-144v162h-14z" />
    <glyph glyph-name="uni04BA" unicode="&#x4ba;" horiz-adv-x="1343" 
d="M776 938q412 0 414 -422v-295q0 -45 45 -45h88v-176h-207q-70 0 -100 31t-31 100v342q0 141 -61 211t-175 70t-202 -30t-139 -67v-657h-205v1225q0 45 -45 45h-88v176h206q70 0 101 -31t31 -100v-404l-5 -67h5q168 94 368 94z" />
    <glyph glyph-name="uni04BB" unicode="&#x4bb;" horiz-adv-x="1239" 
d="M137 0v1231q0 45 -45 45h-84v170h195q133 0 133 -127v-404l-4 -86h4q41 90 141 161t242 71q356 0 356 -397v-449q0 -45 45 -45h84v-170h-196q-70 0 -101 31t-30 100v487q0 125 -40 193t-156 68t-206 -72q-139 -111 -139 -322v-485h-199z" />
    <glyph glyph-name="uni04BC" unicode="&#x4bc;" horiz-adv-x="1738" 
d="M1452 864q0 180 -100 303t-288 123t-310 -125q-121 -125 -144 -301h842zM387 705q-158 0 -248 90t-90 258q0 109 14 170l17 80h186l-18 -82q-14 -66 -14 -153t38 -145q39 -58 123 -59h8q41 272 221 440t446 166q265 0 426 -181t161 -490l-6 -97h-1045q4 -250 148 -395
t354 -145q106 0 235 49t205 121l99 -156q-130 -130 -367 -180q-94 -20 -195 -21q-295 0 -491 204t-201 526h-6z" />
    <glyph glyph-name="uni04BD" unicode="&#x4bd;" horiz-adv-x="1345" 
d="M822 903q-110 -1 -194 -71t-104 -197h553q-4 125 -75 197q-70 72 -180 71zM862 -25q-236 -1 -388 147t-161 372q-270 0 -270 305q0 72 23 151h163q-25 -74 -24 -141q0 -170 119 -172q35 195 174 309q140 114 342 115q202 0 320 -138t118 -348l-4 -83h-758
q8 -162 110 -253t248 -92q80 0 155 31t110 62l37 30l86 -143q-16 -16 -50 -42t-137 -68q-104 -42 -213 -42z" />
    <glyph glyph-name="uni04BE" unicode="&#x4be;" horiz-adv-x="1738" 
d="M1452 864q0 180 -100 303t-288 123t-310 -125q-121 -125 -144 -301h842zM387 705q-158 0 -248 90t-90 258q0 109 14 170l17 80h186l-18 -82q-14 -66 -14 -153t38 -145q39 -58 123 -59h8q41 272 221 440t446 166q265 0 426 -181t161 -490l-6 -97h-1045q4 -250 148 -395
t354 -145q106 0 235 49t205 121l99 -156q-28 -28 -83 -64q-179 -119 -411 -135v-264h-182v273q-254 38 -414 234t-164 485h-6z" />
    <glyph glyph-name="uni04BF" unicode="&#x4bf;" horiz-adv-x="1349" 
d="M824 903q-110 -1 -194 -71t-104 -197h553q-5 125 -75 197t-180 71zM918 -246h-179v234q-184 37 -300 176t-124 330q-270 0 -270 305q0 72 23 151h163q-25 -74 -24 -141q0 -170 119 -172q35 195 174 309t342 115q202 0 320 -138t118 -348l-4 -83h-758q8 -162 110 -253
t249 -92q81 0 155 31t111 62l35 30l86 -143q-14 -14 -43 -37q-29 -24 -119 -64t-184 -49v-223z" />
    <glyph glyph-name="uni04C0" unicode="&#x4c0;" horiz-adv-x="651" 
d="M86 0v176h141v1094h-141v176h477v-176h-139v-1094h139v-176h-477z" />
    <glyph glyph-name="uni04C1" unicode="&#x4c1;" horiz-adv-x="1810" 
d="M910 1513q-126 0 -215 71t-89 192v30h160v-28q0 -64 43 -100t101 -36t102 36q43 36 43 102v26h157v-30q0 -121 -88 -192t-214 -71zM100 1270h-41v176h103q86 0 123 -20t73 -89l244 -446q20 -35 48 -46t77 -11h80v612h197v-612h75q96 0 129 57l244 446q37 68 74 88t123 21
h102v-176h-41q-78 0 -104 -47l-207 -379q-39 -71 -68 -84l-12 -6v-4q49 -23 90 -95l387 -655h-225l-352 608q-35 59 -117 60h-98v-668h-197v668h-98q-82 0 -117 -60l-352 -608h-226l385 655q18 33 42 57t38 29l13 9v4q-39 14 -80 90l-209 379q-25 47 -103 47z" />
    <glyph glyph-name="uni04C2" unicode="&#x4c2;" horiz-adv-x="1542" 
d="M1077 1417q0 -121 -88 -191t-214 -71q-126 0 -215 71t-89 191v31h160v-29q0 -63 43 -99t101 -36t102 36q43 36 43 101v27h157v-31zM119 866h-53v170h122q76 0 111 -17t63 -79l134 -268q33 -61 118 -62h62v426h192v-426h60q86 0 119 62l133 268q29 61 63 79q35 17 111 17
h123v-170h-54q-41 0 -60 -8t-32 -33l-106 -213q-15 -31 -35 -51t-35 -24l-12 -7v-4q68 -14 119 -100l249 -426h-231l-205 360q-49 82 -145 82h-62v-442h-192v442h-62q-96 0 -147 -82l-203 -360h-231l248 426q45 76 118 100v4q-49 14 -82 82l-106 213q-18 41 -92 41z" />
    <glyph glyph-name="uni04C3" unicode="&#x4c3;" horiz-adv-x="1296" 
d="M203 0v1225q0 45 -45 45h-88v176h206q70 0 101 -31t31 -100v-477h137q90 0 119 49l329 559h230l-324 -545q-39 -68 -86 -102v-2q322 -99 386 -425q13 -67 13 -134q0 -279 -137 -441t-368 -162v170q123 -1 209 103t85 322t-119 326t-323 108h-151v-664h-205z" />
    <glyph glyph-name="uni04C4" unicode="&#x4c4;" horiz-adv-x="1087" 
d="M174 0v821q0 45 -45 45h-84v170h197q131 0 131 -118v-302h67q76 0 119 62l242 358h225l-270 -391q-35 -49 -68 -72v-4q180 -49 254 -178t74 -299t-91 -306t-223 -210l-94 143q215 113 215 392q0 157 -91 245t-257 88h-102v-444h-199z" />
    <glyph glyph-name="uni04C5" unicode="&#x4c5;" horiz-adv-x="1456" 
d="M350 1110v160h-135v176h850q71 0 101 -31t30 -100v-1094q0 -45 45 -45h178v-117l-149 -346h-148l82 287h-82q-70 0 -100 31t-31 100v1094q0 45 -45 45h-401v-162q0 -546 -119 -824t-406 -294v186q178 25 254 252t76 682z" />
    <glyph glyph-name="uni04C6" unicode="&#x4c6;" horiz-adv-x="1167" 
d="M270 786v80h-129v170h670q71 0 101 -30t30 -101v-690q0 -45 45 -45h156v-111l-129 -305h-142l68 246h-63q-70 0 -102 31t-32 100v690q0 45 -45 45h-237v-82q0 -308 -75 -495q-32 -80 -77 -149q-95 -146 -282 -146v176q65 2 115 61q86 102 116 353q12 100 12 202z" />
    <glyph glyph-name="uni04C7" unicode="&#x4c7;" horiz-adv-x="1562" 
d="M203 0v1225q0 45 -45 45h-88v176h206q70 0 101 -31t31 -100v-506h749v506q0 71 31 101t100 30h207v-176h-88q-45 0 -45 -45v-1121q0 -290 -145 -392q-114 -77 -279 -79v172q219 0 219 297v533h-749v-635h-205z" />
    <glyph glyph-name="uni04C8" unicode="&#x4c8;" horiz-adv-x="1271" 
d="M174 0v821q0 45 -45 45h-84v170h197q70 0 100 -30t31 -101v-291h524v291q0 70 32 101t101 30h197v-170h-84q-45 0 -45 -45v-723q0 -204 -78 -318t-232 -204l-102 145q104 57 158 141t53 234v348h-524v-444h-199z" />
    <glyph glyph-name="uni04C9" unicode="&#x4c9;" horiz-adv-x="1611" 
d="M203 0v1225q0 45 -45 45h-88v176h206q70 0 101 -31t31 -100v-506h735v506q0 71 32 101t101 30h205v-176h-88q-45 0 -45 -45v-1049h225v-117l-148 -346h-149l88 287h-221v635h-735v-635h-205z" />
    <glyph glyph-name="uni04CA" unicode="&#x4ca;" horiz-adv-x="1296" 
d="M174 0v821q0 45 -45 45h-84v170h197q70 0 100 -30t31 -101v-293h524v424h199v-821q0 -45 45 -45h119v-111l-130 -305h-139l68 246h-31q-70 0 -100 31t-31 100v315h-524v-446h-199z" />
    <glyph glyph-name="uni04CB" unicode="&#x4cb;" horiz-adv-x="1331" 
d="M606 553q-223 0 -334 110t-110 312v250q0 45 -45 45h-88v176h207q70 0 100 -31t31 -100v-295q-1 -141 67 -211t232 -70t295 99v608h204v-1446h-221q-43 0 -43 -45v-242h-182v334q0 69 29 99t98 30h115v410l4 67h-4q-181 -100 -355 -100z" />
    <glyph glyph-name="uni04CC" unicode="&#x4cc;" horiz-adv-x="1107" 
d="M602 18q0 68 28 98t95 29h51v248l4 64h-4q-121 -78 -287 -78q-167 0 -251 80t-84 231v131q0 45 -45 45h-76v170h188q72 0 101 -34t28 -97v-162q0 -90 41 -142t160 -52t225 76v411h199v-1036h-162q-29 -2 -29 -45v-201h-182v264z" />
    <glyph glyph-name="uni04CD" unicode="&#x4cd;" horiz-adv-x="1826" 
d="M47 0v176h68q41 0 45 45l98 1225h211l340 -764l72 -184h4q37 104 71 184l340 764h211l99 -1225q4 -45 45 -45h182v-117l-147 -346h-148l80 287h-80q-70 0 -98 30t-35 101l-57 764l-5 213h-4q-43 -135 -77 -213l-293 -635h-172l-291 635q-20 41 -68 178l-10 37h-4
q2 -129 -4 -215l-60 -764q-4 -71 -34 -101t-97 -30h-182z" />
    <glyph glyph-name="uni04CE" unicode="&#x4ce;" horiz-adv-x="1552" 
d="M39 0v170h53q37 0 39 39l72 827h217l270 -594l53 -129h2q29 68 56 129l268 594h217l72 -827q2 -39 39 -39h155v-111l-129 -305h-141l68 246h-52q-61 0 -85 27t-27 86l-39 489l-4 184h-4q-25 -76 -62 -155l-241 -506h-189l-237 506l-60 157h-4q0 -123 -4 -186l-39 -489
q-4 -59 -28 -86t-85 -27h-151z" />
    <glyph glyph-name="uni04CF" unicode="&#x4cf;" horiz-adv-x="651" 
d="M86 0v170h141v1106h-141v170h477v-170h-139v-1106h139v-170h-477z" />
    <glyph glyph-name="uni04D0" unicode="&#x4d0;" horiz-adv-x="1361" 
d="M679 1513q-126 0 -215 71t-89 192v30h160v-28q0 -64 43 -100t101 -36t101 36t43 102v26h158v-30q0 -121 -88 -192t-214 -71zM465 588h432l-158 440l-57 203h-4q-31 -127 -55 -203zM25 0v176h28q53 0 68 45l452 1225h215l453 -1225q14 -45 68 -45h28v-176h-112
q-76 0 -110 24t-60 95l-109 297h-530l-109 -297q-27 -71 -61 -95t-109 -24h-112z" />
    <glyph glyph-name="uni04D1" unicode="&#x4d1;" horiz-adv-x="1083" 
d="M846 1417q0 -121 -88 -191t-214 -71q-126 0 -215 71t-89 191v31h159v-29q0 -63 43 -99q44 -36 102 -36t101 36t43 101v27h158v-31zM256 301q0 -68 51 -118t144 -50q123 1 201 103t77 227v39h-53q-420 0 -420 -201zM57 283q0 362 627 362h45v14q0 131 -54 187t-175 57
q-58 0 -114 -17t-56 -63v-59h-189v104q0 146 258 186q51 7 97 7q240 -1 336 -107t96 -299v-440q0 -45 45 -45h84v-170h-189q-127 0 -127 119l2 61h-4q2 0 -16 -35t-73 -81q-108 -89 -248 -89q-139 -1 -242 83t-103 225z" />
    <glyph glyph-name="uni04D2" unicode="&#x4d2;" horiz-adv-x="1361" 
d="M436 1599v207h152v-207h-152zM774 1599v207h150v-207h-150zM465 588h432l-158 440l-57 203h-4q-31 -127 -55 -203zM25 0v176h28q53 0 68 45l452 1225h215l453 -1225q14 -45 68 -45h28v-176h-112q-76 0 -110 24t-60 95l-109 297h-530l-109 -297q-27 -71 -61 -95t-109 -24
h-112z" />
    <glyph glyph-name="uni04D3" unicode="&#x4d3;" horiz-adv-x="1083" 
d="M281 1241v207h151v-207h-151zM618 1241v207h150v-207h-150zM256 301q0 -68 51 -118t144 -50q123 1 201 103t77 227v39h-53q-420 0 -420 -201zM57 283q0 362 627 362h45v14q0 131 -54 187t-175 57q-58 0 -114 -17t-56 -63v-59h-189v104q0 146 258 186q51 7 97 7
q240 -1 336 -107t96 -299v-440q0 -45 45 -45h84v-170h-189q-127 0 -127 119l2 61h-4q2 0 -16 -35t-73 -81q-108 -89 -248 -89q-139 -1 -242 83t-103 225z" />
    <glyph glyph-name="uni04D4" unicode="&#x4d4;" horiz-adv-x="1767" 
d="M809 817v453h-88l-170 -453h258zM20 0v176h23q51 0 70 45l485 1225h918q70 0 100 -31t31 -100v-182h-187v92q0 45 -45 45h-399v-453h495v-176h-495v-420q0 -45 53 -45h401q45 0 46 45v92h188v-182q0 -71 -31 -101t-100 -30h-617q-80 0 -114 28t-33 103v510h-326
l-194 -522q-27 -71 -61 -95t-109 -24h-99z" />
    <glyph glyph-name="uni04D5" unicode="&#x4d5;" horiz-adv-x="1738" 
d="M260 301q0 -70 51 -118t159 -48q108 -1 184 103t77 229v29h-96q-375 0 -375 -195zM928 641h538q-6 123 -75 192t-177 69t-186 -68q-77 -68 -100 -193zM59 289q0 352 611 352h59v23q0 131 -54 185t-175 54q-58 0 -114 -17t-56 -63v-59h-189v104q1 70 61 115q102 76 298 78
q270 0 352 -182h4q127 182 369 182q205 0 325 -137t119 -344l-4 -84h-745q8 -168 104 -258t242 -91q80 0 156 31t110 62l37 30l84 -143q-16 -16 -49 -42q-34 -26 -138 -68t-213 -42q-311 0 -444 258h-4q-21 -60 -100 -145q-45 -47 -121 -79t-170 -32q-150 -1 -252 83
t-103 229z" />
    <glyph glyph-name="uni04D6" unicode="&#x4d6;" horiz-adv-x="1169" 
d="M922 1776q0 -121 -88 -192t-215 -71q-126 0 -215 71t-89 192v30h160v-28q0 -64 43 -100t101 -36t102 36q43 36 43 102v26h158v-30zM201 131v1139h-133v176h852q70 0 100 -31t31 -100v-182h-189v92q0 45 -45 45h-411v-453h507v-176h-507v-420q0 -45 45 -45h423q45 0 46 45
v92h186v-182q0 -71 -31 -101t-100 -30h-641q-70 0 -102 30t-31 101z" />
    <glyph glyph-name="uni04D7" unicode="&#x4d7;" horiz-adv-x="1103" 
d="M879 1417q-1 -121 -89 -191t-214 -71q-126 0 -215 71t-89 191v31h160v-29q0 -63 43 -99t101 -36t102 36q43 36 43 101v27h158v-31zM281 635h555q-4 129 -75 201t-183 72t-194 -74q-83 -72 -103 -199zM68 524q0 238 147 388t365 149q218 0 336 -138t118 -348q0 -35 -6 -83
h-756q8 -162 110 -253t249 -92q65 0 128 22t93 41t66 44l18 14l84 -145q-86 -71 -199 -110q-112 -38 -203 -38q-242 0 -396 155q-154 156 -154 394z" />
    <glyph glyph-name="uni04D8" unicode="&#x4d8;" horiz-adv-x="1421" 
d="M283 635q0 -229 103 -353q102 -124 304 -124t322 131q119 131 121 346h-850zM109 1280q217 190 565 190q297 0 485 -210q189 -210 189 -536q0 -325 -180 -537t-472 -212q-290 1 -454 187t-164 532l6 103h1051q-11 217 -143 352t-339 135q-111 0 -241 -44t-203 -112z" />
    <glyph glyph-name="uni04D9" unicode="&#x4d9;" horiz-adv-x="1107" 
d="M538 133q116 0 198 77t91 220h-551q4 -154 75 -226t187 -71zM500 897q-84 0 -167 -29t-124 -57l-39 -31l-78 142q209 139 435 139q225 0 367 -153q142 -154 142 -396t-142 -389t-362 -147t-342 138q-120 140 -120 367l6 92h758q-8 145 -104 235t-230 89z" />
    <glyph glyph-name="uni04DA" unicode="&#x4da;" horiz-adv-x="1421" 
d="M283 635q0 -229 103 -353q102 -124 304 -124t322 131q119 131 121 346h-850zM109 1280q217 190 565 190q297 0 485 -210q189 -210 189 -536q0 -325 -180 -537t-472 -212q-290 1 -454 187t-164 532l6 103h1051q-11 217 -143 352t-339 135q-111 0 -241 -44t-203 -112z
M457 1597v207h151v-207h-151zM795 1597v207h151v-207h-151z" />
    <glyph glyph-name="uni04DB" unicode="&#x4db;" horiz-adv-x="1105" 
d="M538 133q116 0 198 77t91 220h-551q4 -154 75 -226t187 -71zM500 897q-84 0 -167 -29t-124 -57l-39 -31l-78 142q209 139 435 139q225 0 367 -153q142 -154 142 -396t-142 -389t-362 -147t-342 138q-120 140 -120 367l6 92h758q-8 145 -104 235t-230 89zM281 1241v207
h151v-207h-151zM618 1241v207h150v-207h-150z" />
    <glyph glyph-name="uni04DC" unicode="&#x4dc;" horiz-adv-x="1810" 
d="M668 1599v207h151v-207h-151zM1006 1599v207h149v-207h-149zM100 1270h-41v176h103q86 0 123 -20t73 -89l244 -446q20 -35 48 -46t77 -11h80v612h197v-612h75q96 0 129 57l244 446q37 68 74 88t123 21h102v-176h-41q-78 0 -104 -47l-207 -379q-39 -71 -68 -84l-12 -6v-4
q49 -23 90 -95l387 -655h-225l-352 608q-35 59 -117 60h-98v-668h-197v668h-98q-82 0 -117 -60l-352 -608h-226l385 655q18 33 42 57t38 29l13 9v4q-39 14 -80 90l-209 379q-25 47 -103 47z" />
    <glyph glyph-name="uni04DD" unicode="&#x4dd;" horiz-adv-x="1542" 
d="M119 866h-53v170h122q76 0 111 -17t63 -79l134 -268q33 -61 118 -62h62v426h192v-426h60q86 0 119 62l133 268q29 61 63 79q35 17 111 17h123v-170h-54q-41 0 -60 -8t-32 -33l-106 -213q-15 -31 -35 -51t-35 -24l-12 -7v-4q68 -14 119 -100l249 -426h-231l-205 360
q-49 82 -145 82h-62v-442h-192v442h-62q-96 0 -147 -82l-203 -360h-231l248 426q45 76 118 100v4q-49 14 -82 82l-106 213q-18 41 -92 41zM528 1241v207h152v-207h-152zM866 1241v207h150v-207h-150z" />
    <glyph glyph-name="uni04DE" unicode="&#x4de;" horiz-adv-x="1083" 
d="M510 158q113 0 199 70t86 185q0 117 -77 181t-192 63h-172v168h148q104 0 177 67t73 169q0 103 -64 165t-170 62q-108 0 -175 -40t-67 -97v-59h-188v112q0 90 73 154q132 115 350 113q218 -1 333 -104t114 -273q0 -221 -208 -328v-4q120 -33 188 -128t68 -226
q0 -190 -140 -312t-366 -121q-147 -1 -265 55t-194 138l121 143q55 -59 145 -106t203 -47zM291 1599v207h151v-207h-151zM629 1599v207h149v-207h-149z" />
    <glyph glyph-name="uni04DF" unicode="&#x4df;" horiz-adv-x="903" 
d="M416 137q92 0 153 44t62 128q0 156 -211 156h-131v137h104q203 0 203 158q0 76 -49 114t-121 37q-72 0 -126 -25q-52 -26 -52 -75v-47h-166v96q0 98 102 150t259 51q157 0 255 -73t99 -208q0 -90 -44 -149t-110 -84v-4q82 -19 134 -83t52 -163q1 -152 -115 -237t-286 -85
q-219 0 -381 152l94 131q121 -121 275 -121zM199 1241v207h151v-207h-151zM537 1241v207h149v-207h-149z" />
    <glyph glyph-name="uni04E0" unicode="&#x4e0;" horiz-adv-x="1034" 
d="M762 406q0 108 -53 164t-174 71q-51 8 -297 8v133l376 416l86 78l-2 4q-59 -4 -129 -4h-270q-45 0 -45 -45v-70h-174v156q0 69 31 99t100 30h709v-162l-392 -424l-57 -51v-4q113 -2 172 -14q317 -57 318 -367q-1 -205 -143 -325q-142 -119 -364 -119t-405 131l84 153
q59 -49 145 -81t166 -31q143 0 231 72q87 74 87 182z" />
    <glyph glyph-name="uni04E1" unicode="&#x4e1;" horiz-adv-x="966" 
d="M406 -258q143 0 230 73t87 181t-53 164t-174 71q-51 8 -297 9v133l376 415l87 78l-3 4q-59 -4 -129 -4h-270q-45 0 -45 -45v-69h-174v155q0 70 31 100t100 29h709v-162l-392 -423l-57 -52v-4q113 -2 172 -14q317 -57 318 -367q0 -204 -142 -324t-365 -120
q-222 0 -405 131l84 154q60 -49 146 -81t166 -32z" />
    <glyph glyph-name="uni04E2" unicode="&#x4e2;" horiz-adv-x="1562" 
d="M203 0v1225q0 45 -45 45h-88v176h206q70 0 101 -31t31 -100v-793l-13 -207h4q78 131 129 209l631 922h201v-1225q0 -45 45 -45h88v-176h-205q-70 0 -102 31t-31 100v795l12 211h-4q-72 -133 -123 -211l-634 -926h-203zM535 1608v139h520v-139h-520z" />
    <glyph glyph-name="uni04E3" unicode="&#x4e3;" horiz-adv-x="1267" 
d="M379 1249v140h520v-140h-520zM172 0v821q0 45 -43 45h-82v170h182q70 0 101 -30t30 -99v-493q0 -102 -8 -144h4q20 41 97 144l446 622h197v-821q0 -45 43 -45h82v-170h-183q-70 0 -100 31t-31 100v492q0 80 8 145h-4q-16 -39 -96 -145l-446 -623h-197z" />
    <glyph glyph-name="uni04E4" unicode="&#x4e4;" horiz-adv-x="1562" 
d="M203 0v1225q0 45 -45 45h-88v176h206q70 0 101 -31t31 -100v-793l-13 -207h4q78 131 129 209l631 922h201v-1225q0 -45 45 -45h88v-176h-205q-70 0 -102 31t-31 100v795l12 211h-4q-72 -133 -123 -211l-634 -926h-203zM539 1599v207h151v-207h-151zM877 1599v207h149
v-207h-149z" />
    <glyph glyph-name="uni04E5" unicode="&#x4e5;" horiz-adv-x="1267" 
d="M172 0v821q0 45 -43 45h-82v170h182q70 0 101 -30t30 -99v-493q0 -102 -8 -144h4q20 41 97 144l446 622h197v-821q0 -45 43 -45h82v-170h-183q-70 0 -100 31t-31 100v492q0 80 8 145h-4q-16 -39 -96 -145l-446 -623h-197zM397 1241v207h152v-207h-152zM735 1241v207h150
v-207h-150z" />
    <glyph glyph-name="uni04E6" unicode="&#x4e6;" horiz-adv-x="1624" 
d="M811 1280q-221 0 -375 -158t-153 -392q-1 -234 153 -398t375 -164t376 164t155 398t-155 392t-376 158zM70 729q0 315 214 528t527 213t528 -213t215 -528t-215 -534t-528 -219t-527 218q-214 220 -214 535zM565 1599v207h152v-207h-152zM903 1599v207h150v-207h-150z
" />
    <glyph glyph-name="uni04E7" unicode="&#x4e7;" horiz-adv-x="1247" 
d="M268 520q0 -160 104 -266t254 -106q149 0 252 104q103 106 103 267t-103 265q-104 104 -252 104t-253 -104t-105 -264zM68 520q0 233 161 387q162 154 397 154q234 0 396 -154t162 -387t-163 -389t-396 -156t-396 156q-161 156 -161 389zM381 1239v207h151v-207h-151z
M719 1239v207h149v-207h-149z" />
    <glyph glyph-name="uni04E8" unicode="&#x4e8;" horiz-adv-x="1624" 
d="M811 1288q-207 0 -355 -135t-175 -342h1060q-27 207 -175 342t-355 135zM811 160q207 0 354 138t176 351h-1058q27 -213 174 -351t354 -138zM1554 728q0 -318 -213 -534q-213 -218 -530 -218t-529 217t-212 535t212 530t529 212t530 -212t213 -530z" />
    <glyph glyph-name="uni04E9" unicode="&#x4e9;" horiz-adv-x="1247" 
d="M625 901q-137 0 -239 -87t-126 -226h727q-21 139 -123 226t-239 87zM625 135q139 0 241 91t123 235h-729q20 -145 123 -235t242 -91zM66 519q0 232 161 387q162 155 397 155q234 0 396 -154t162 -387t-162 -389t-395 -156t-397 156q-162 156 -162 388z" />
    <glyph glyph-name="uni04EA" unicode="&#x4ea;" horiz-adv-x="1624" 
d="M905 1599v207h150v-207h-150zM567 1599v207h152v-207h-152zM811 1288q-207 0 -355 -135t-175 -342h1060q-27 207 -175 342t-355 135zM811 160q207 0 354 138t176 351h-1058q27 -213 174 -351t354 -138zM1554 728q0 -318 -213 -534q-213 -218 -530 -218t-529 217t-212 535
t212 530t529 212t530 -212t213 -530z" />
    <glyph glyph-name="uni04EB" unicode="&#x4eb;" horiz-adv-x="1251" 
d="M725 1198v207h149v-207h-149zM387 1198v207h152v-207h-152zM625 901q-137 0 -239 -87t-126 -226h727q-21 139 -123 226t-239 87zM625 135q139 0 241 91t123 235h-729q20 -145 123 -235t242 -91zM66 519q0 232 161 387q162 155 397 155q234 0 396 -154t162 -387t-162 -389
t-395 -156t-397 156q-162 156 -162 388z" />
    <glyph glyph-name="uni04EC" unicode="&#x4ec;" horiz-adv-x="1423" 
d="M618 160q209 0 353 135q143 135 164 342h-746v168h746q-15 211 -155 346t-351 135q-129 0 -245 -48t-116 -132v-82h-188v133q0 139 167 226t378 87q323 0 525 -208t202 -525t-207 -539t-527 -223q-180 0 -332 71t-229 153l107 143q55 -62 182 -122t272 -60zM414 1599v207
h151v-207h-151zM752 1599v207h149v-207h-149z" />
    <glyph glyph-name="uni04ED" unicode="&#x4ed;" horiz-adv-x="1085" 
d="M459 137q141 0 242 86t120 223h-487v140h489q-18 143 -117 228t-231 85q-86 0 -159 -30t-72 -78v-52h-170v86q0 98 113 167q114 69 292 69q235 0 387 -155q152 -156 152 -390t-155 -388t-401 -153q-246 0 -409 156l78 141q133 -135 328 -135zM270 1241v207h152v-207h-152
zM608 1241v207h150v-207h-150z" />
    <glyph glyph-name="uni04EE" unicode="&#x4ee;" horiz-adv-x="1273" 
d="M406 162q70 0 106 39q35 39 66 123l-449 901q-23 45 -68 45h-41v176h125q70 0 102 -25t64 -94l293 -625l76 -178h4q25 78 61 178l228 625q27 71 59 95t111 24h110v-176h-32q-51 0 -70 -43l-393 -996q-100 -256 -320 -256q-86 0 -162 34t-108 65l94 151q74 -63 144 -63z
M391 1608v139h520v-139h-520z" />
    <glyph glyph-name="uni04EF" unicode="&#x4ef;" horiz-adv-x="1112" 
d="M303 1249v140h520v-140h-520zM240 -258q119 0 182 149l49 113l-356 821q-18 41 -64 41h-26v170h116q63 0 95 -21q31 -22 55 -83l233 -584l37 -125h4q16 72 35 125l217 584q20 59 53 82t97 22h118v-170h-24q-49 0 -68 -41l-407 -1011q-47 -116 -136 -180t-200 -64
q-68 0 -129 26t-88 52l-27 24l84 144q0 -2 18 -20t56 -36q37 -18 76 -18z" />
    <glyph glyph-name="uni04F0" unicode="&#x4f0;" horiz-adv-x="1273" 
d="M406 162q70 0 106 39q35 39 66 123l-449 901q-23 45 -68 45h-41v176h125q70 0 102 -25t64 -94l293 -625l76 -178h4q25 78 61 178l228 625q27 71 59 95t111 24h110v-176h-32q-51 0 -70 -43l-393 -996q-100 -256 -320 -256q-86 0 -162 34t-108 65l94 151q74 -63 144 -63z
M406 1599v207h151v-207h-151zM743 1599v207h150v-207h-150z" />
    <glyph glyph-name="uni04F1" unicode="&#x4f1;" horiz-adv-x="1112" 
d="M313 1241v207h152v-207h-152zM651 1241v207h150v-207h-150zM240 -258q119 0 182 149l47 113l-354 821q-18 41 -64 41h-26v170h116q63 0 95 -21q31 -22 55 -83l233 -584l37 -125h4q16 72 35 125l217 584q20 61 53 83t97 21h118v-170h-26q-47 0 -66 -41l-407 -1011
q-49 -120 -137 -182t-199 -62q-68 0 -129 26t-88 52l-27 24l82 144q0 -2 18 -20t56 -36t78 -18z" />
    <glyph glyph-name="uni04F2" unicode="&#x4f2;" horiz-adv-x="1273" 
d="M397 1546l142 260h172l-144 -260h-170zM711 1546l147 260h203l-197 -260h-153zM406 162q70 0 106 39q35 39 66 123l-449 901q-23 45 -68 45h-41v176h125q70 0 102 -25t64 -94l293 -625l76 -178h4q25 78 61 178l228 625q27 71 59 95t111 24h110v-176h-32q-51 0 -70 -43
l-393 -996q-100 -256 -320 -256q-86 0 -162 34t-108 65l94 151q74 -63 144 -63z" />
    <glyph glyph-name="uni04F3" unicode="&#x4f3;" horiz-adv-x="1112" 
d="M309 1188l142 260h172l-144 -260h-170zM623 1188l147 260h203l-197 -260h-153zM240 -258q119 0 182 149l47 113l-354 821q-18 41 -64 41h-26v170h116q63 0 95 -21q31 -22 55 -83l233 -584l37 -125h4q16 72 35 125l217 584q20 61 53 83t97 21h118v-170h-26q-47 0 -66 -41
l-407 -1011q-49 -120 -137 -182t-199 -62q-68 0 -129 26t-88 52l-27 24l82 144q0 -2 18 -20t56 -36t78 -18z" />
    <glyph glyph-name="uni04F4" unicode="&#x4f4;" horiz-adv-x="1333" 
d="M387 1599v207h152v-207h-152zM725 1599v207h149v-207h-149zM606 553q-223 0 -334 110t-110 312v250q0 45 -45 45h-88v176h207q70 0 100 -31t31 -100v-295q-1 -141 67 -211t232 -70t295 99v608h204v-1446h-204v586l4 67h-4q-181 -100 -355 -100z" />
    <glyph glyph-name="uni04F5" unicode="&#x4f5;" horiz-adv-x="1107" 
d="M491 360q-167 0 -251 80t-84 232v149q0 45 -47 45h-74v170h186q72 0 101 -34t28 -97v-178q0 -90 42 -142q42 -53 160 -53t226 74v430h199v-1036h-199v375l2 65h-2q-121 -80 -287 -80zM305 1241v207h152v-207h-152zM643 1241v207h150v-207h-150z" />
    <glyph glyph-name="uni04F6" unicode="&#x4f6;" horiz-adv-x="1058" 
d="M201 0v1270h-133v176h827q71 0 101 -31t30 -100v-182h-186v92q0 45 -45 45h-389v-1094h71q70 0 100 -30t29 -99v-334h-184v242q0 45 -41 45h-180z" />
    <glyph glyph-name="uni04F7" unicode="&#x4f7;" horiz-adv-x="903" 
d="M174 0v866h-129v170h686q72 0 103 -28t30 -99v-157h-166v69q0 45 -45 45h-280v-700h49q68 0 96 -31t29 -98v-283h-185v201q0 45 -36 45h-152z" />
    <glyph glyph-name="uni04F8" unicode="&#x4f8;" horiz-adv-x="1751" 
d="M406 221q0 -45 45 -45h211q126 0 198 74t72 204t-73 200t-197 71h-256v-504zM201 131v1094q0 45 -45 45h-88v176h206q70 0 101 -31t31 -100v-414h276q201 0 331 -113q130 -112 130 -332t-137 -338t-357 -118h-315q-70 0 -102 30t-31 101zM1343 131v1315h205v-1225
q0 -45 45 -45h88v-176h-206q-70 0 -101 30t-31 101zM637 1599v207h151v-207h-151zM975 1599v207h149v-207h-149z" />
    <glyph glyph-name="uni04F9" unicode="&#x4f9;" horiz-adv-x="1482" 
d="M371 184q0 -41 39 -41h141q92 -1 144 51q53 52 53 137t-52 134t-145 49h-180v-330zM172 113v708q0 45 -45 45h-84v170h197q131 0 131 -118v-261h204q177 0 275 -89q98 -90 98 -240t-103 -239t-270 -89h-290q-59 0 -86 27t-27 86zM1110 131v905h199v-821q0 -45 45 -45h82
v-170h-195q-71 0 -101 30t-30 101zM494 1241v207h151v-207h-151zM831 1241v207h150v-207h-150z" />
    <glyph glyph-name="uni0524" unicode="&#x524;" horiz-adv-x="1568" 
d="M203 0v1270h-135v176h1144q70 0 101 -31t30 -100v-1139h68q73 0 101 -29t28 -100v-334h-182v242q0 45 -43 45h-176v1225q0 45 -45 45h-686v-1270h-205z" />
    <glyph glyph-name="uni0525" unicode="&#x525;" horiz-adv-x="1265" 
d="M172 0v866h-117v170h887q70 0 102 -30t31 -101v-739h47q68 0 98 -31t29 -96v-285h-184v201q0 45 -41 45h-147v821q0 45 -46 45h-460v-866h-199z" />
    <glyph glyph-name="uni1E9E" unicode="&#x1e9e;" horiz-adv-x="1306" 
d="M68 0v176h88q45 0 45 45v815q0 178 116 294q117 116 297 116h560v-137l-285 -416l-49 -68v-4l51 -2q147 -12 245 -130q98 -119 97 -281q0 -162 -125 -285t-303 -123h-193v176h181q102 0 168 72t65 172q0 100 -64 170q-65 70 -167 69h-181v142l232 346q64 97 92 125v4
q-16 -6 -90 -6h-225q-93 0 -155 -66t-62 -164v-909q0 -71 -32 -101t-102 -30h-204z" />
    <glyph glyph-name="endash" unicode="&#x2013;" horiz-adv-x="1325" 
d="M123 504v160h1079v-160h-1079z" />
    <glyph glyph-name="emdash" unicode="&#x2014;" horiz-adv-x="1734" 
d="M123 504v160h1489v-160h-1489z" />
    <glyph glyph-name="quoteleft" unicode="&#x2018;" horiz-adv-x="454" 
d="M98 1069l135 399h142l-88 -399h-189z" />
    <glyph glyph-name="quoteright" unicode="&#x2019;" horiz-adv-x="444" 
d="M109 1071l88 399h188l-133 -399h-143z" />
    <glyph glyph-name="quotesinglbase" unicode="&#x201a;" horiz-adv-x="487" 
d="M80 -184l88 399h188l-133 -399h-143z" />
    <glyph glyph-name="quotedblleft" unicode="&#x201c;" horiz-adv-x="737" 
d="M98 1069l135 399h142l-88 -399h-189zM383 1069l133 399h143l-88 -399h-188z" />
    <glyph glyph-name="quotedblright" unicode="&#x201d;" horiz-adv-x="727" 
d="M109 1071l88 399h188l-133 -399h-143zM393 1071l88 399h187l-133 -399h-142z" />
    <glyph glyph-name="quotedblbase" unicode="&#x201e;" horiz-adv-x="772" 
d="M80 -184l88 399h188l-133 -399h-143zM365 -184l88 399h186l-133 -399h-141z" />
    <glyph glyph-name="dagger" unicode="&#x2020;" horiz-adv-x="872" 
d="M338 -102v981h-248v157h248v410h190v-410h254v-157h-254v-981h-190z" />
    <glyph glyph-name="daggerdbl" unicode="&#x2021;" horiz-adv-x="890" 
d="M98 350v160h248v369h-248v157h248v410h191v-410h254v-157h-254v-369h254v-160h-254v-452h-191v452h-248z" />
    <glyph glyph-name="bullet" unicode="&#x2022;" horiz-adv-x="933" 
d="M467 279q-131 0 -224 92t-93 225t93 225t224 92t223 -93t92 -224t-92 -224t-223 -93z" />
    <glyph glyph-name="ellipsis" unicode="&#x2026;" horiz-adv-x="1507" 
d="M121 0v211h203v-211h-203zM651 0v211h205v-211h-205zM1184 0v211h202v-211h-202z" />
    <glyph glyph-name="perthousand" unicode="&#x2030;" horiz-adv-x="2256" 
d="M999 279q0 -63 43 -107t108 -45q64 0 108 44q44 43 44 107t-44 109q-46 45 -109 45t-107 -45t-43 -108zM1876 432q-64 0 -108 -45t-44 -109t43 -108q43 -43 107 -43t109 44q45 43 45 107t-44 109t-108 45zM840 278q0 126 90 215t219 89t220 -89t91 -214t-91 -214
t-220 -89t-219 88t-90 214zM1565 279q0 125 91 214t220 89t220 -89t91 -214t-91 -214t-220 -89t-220 88q-91 90 -91 215zM408 1016q63 0 107 43t44 107t-44 110t-107 45q-64 0 -108 -45t-44 -110q0 -66 44 -108t108 -42zM129 0l1106 1446h192l-1105 -1446h-193zM408 864
q-129 0 -220 88q-90 88 -90 214t90 215t220 89t220 -89q91 -89 91 -214t-91 -214t-220 -89z" />
    <glyph glyph-name="guilsinglleft" unicode="&#x2039;" horiz-adv-x="712" 
d="M420 158l-336 420l336 421h198l-335 -421l335 -420h-198z" />
    <glyph glyph-name="guilsinglright" unicode="&#x203a;" horiz-adv-x="712" 
d="M92 158l336 420l-336 421h199l336 -421l-336 -420h-199z" />
    <glyph glyph-name="fraction" unicode="&#x2044;" horiz-adv-x="307" 
d="M-55 0h-166l588 1446h163z" />
    <glyph glyph-name="Euro" unicode="&#x20ac;" 
d="M51 528v129h123q-4 37 -4 68l4 80h-123v131h146q63 238 253 386t441 148q95 0 170 -18l24 -6l-47 -186q-72 23 -151 22q-170 0 -297 -94t-178 -252h567l-27 -131h-569q-6 -35 -6 -76l6 -72h543l-27 -129h-481q47 -164 176 -262t299 -98q85 0 168 20l22 9l41 -187
q-100 -35 -233 -35q-260 0 -449 153q-188 153 -247 400h-144z" />
    <glyph glyph-name="numero" unicode="&#x2116;" horiz-adv-x="2189" 
d="M1559 403v142h534v-142h-534zM1821 1106q-59 0 -99 -41t-41 -102q0 -61 40 -103q39 -42 99 -43q60 0 101 42q41 41 41 103t-41 103t-100 41zM1528 962q0 122 85 206t208 83q123 0 208 -84q85 -83 85 -205t-85 -206t-208 -84t-208 84t-85 206zM84 0v176h88q45 0 45 45
v1225h184l646 -916l118 -196h4q-12 117 -12 196v785q0 71 32 101t101 30h205v-176h-88q-45 0 -45 -45v-1225h-184l-646 915l-120 197h-4q14 -117 14 -197v-784q0 -71 -32 -101t-101 -30h-205z" />
    <glyph glyph-name="trademark" unicode="&#x2122;" horiz-adv-x="2052" 
d="M430 545v764h-156q-18 0 -18 -19v-61h-137v125q0 53 19 72t77 20h586q55 0 75 -20t21 -72v-125h-135v61q0 18 -19 19h-157v-764h-156zM905 545v137h47q20 0 23 18l57 746h144l213 -471l28 -86h4q10 49 27 86l213 471h143l60 -746q0 -18 20 -18h49v-137h-121q-54 0 -76 18
t-24 74l-35 446l2 62h-4l-194 -434h-125l-195 434h-4l2 -62l-35 -446q-2 -55 -23 -74q-22 -18 -77 -18h-119z" />
    <glyph glyph-name="minus" unicode="&#x2212;" 
d="M61 504v160h1059v-160h-1059z" />
    <glyph glyph-name="infinity" unicode="&#x221e;" horiz-adv-x="942" 
d="M473 342q-153 0 -263 110t-110 264t110 262t264 108t262 -108t108 -262t-108 -264t-263 -110z" />
    <glyph glyph-name="approxequal" unicode="&#x2248;" 
d="M387 541q102 0 220 -72t186 -72q121 0 225 113l84 -121q-143 -147 -309 -147q-103 0 -221 72t-185 71q-116 0 -225 -113l-84 119q145 150 309 150zM387 928q102 0 220 -72t186 -72q121 0 225 113l84 -121q-143 -147 -309 -147q-103 -1 -221 71t-185 72q-114 0 -225 -115
l-84 121q145 150 309 150z" />
    <glyph glyph-name="notequal" unicode="&#x2260;" 
d="M100 309v160h334l162 227h-496v160h605l165 236l105 -72l-117 -164h219v-160h-325l-164 -227h489v-160h-596l-162 -229l-106 70l113 159h-226z" />
    <glyph glyph-name="lessequal" unicode="&#x2264;" 
d="M100 -195h953v-159h-953v159zM98 516v135l955 426v-182l-731 -309v-4l731 -310v-182z" />
    <glyph glyph-name="greaterequal" unicode="&#x2265;" 
d="M127 -195h952v-159h-952v159zM129 90v182l731 310v4l-731 309v182l954 -426v-135z" />
    <glyph glyph-name="commaaccent" unicode="&#xf6c3;" horiz-adv-x="686" 
d="M442 -240q0 -64 -49 -170h-141q39 100 39 164t-23 125h162q12 -55 12 -119z" />
    <glyph glyph-name="cyrbreve" unicode="&#xf6d4;" horiz-adv-x="663" 
d="M343 1513q-126 0 -215 71t-89 192v30h160v-28q0 -64 43 -100t101 -36t101 36t43 102v26h158v-30q0 -121 -88 -192t-214 -71z" />
    <glyph glyph-name="apple" unicode="&#xf8ff;" horiz-adv-x="2314" 
d="M897 0h162v418h422v141h-422v338h309q29 0 39 -12t10 -41v-68h150v152q0 57 -25 83t-86 25h-678v-139h119v-897zM293 315v461l203 119v252l440 233l225 -120l219 120l439 -233v-252l204 -119v-461l-204 -122v-248l-439 -234l-219 119l-225 -119l-440 234v248zM193 291
l233 -131v-285l487 -258l248 135l242 -135l487 258v285l234 131v510l-234 135v278l-487 259l-242 -132l-248 132l-487 -259v-278l-233 -135v-510zM86 262v569l258 146v309l543 291l274 -145l271 145l542 -291v-309l254 -146v-569l-254 -147v-312l-542 -288l-271 145
l-274 -145l-543 288v312z" />
    <glyph glyph-name="zero.tnum" 
d="M591 162q304 0 304 561t-304 561t-304 -561t304 -561zM591 -25q-511 -1 -511 747t511 748t511 -748t-511 -747z" />
    <glyph glyph-name="one.tnum" 
d="M203 0v176h317v934l2 88h-4q-16 -31 -67 -82l-138 -133l-120 127l344 336h188v-1270h313v-176h-835z" />
    <glyph glyph-name="two.tnum" 
d="M219 0q-81 0 -109 37t-28 137t41 188q41 86 118 156t221 152t209 128q146 103 146 255q0 100 -69 165q-70 64 -174 64t-170 -41q-65 -41 -64 -96v-64h-188v123q0 88 71 152q133 116 340 115t335 -117t128 -299q0 -137 -76 -243t-184 -174q-108 -67 -214 -125
q-108 -58 -184 -133t-75 -165q0 -39 51 -39h514q45 0 45 45v92h189v-182q0 -71 -31 -101t-100 -30h-742z" />
    <glyph glyph-name="three.tnum" 
d="M578 168q110 0 194 75t84 191t-91 186q-91 71 -222 70h-101l-45 109l301 379q34 50 86 94v4q-43 -6 -122 -6h-281q-45 0 -45 -45v-92h-186v182q0 71 28 101t94 30h762v-129l-379 -459q162 -18 286 -124t124 -298q0 -190 -139 -325t-359 -136q-170 0 -289 66
q-118 66 -167 117l-21 20l111 154q16 -18 47 -46t126 -73q94 -45 204 -45z" />
    <glyph glyph-name="four.tnum" 
d="M373 559h338v498l8 147h-4q-35 -68 -72 -121l-319 -434l-74 -92v-4q59 6 123 6zM27 383v131l653 932h233v-887h226v-176h-226v-383h-204v383h-682z" />
    <glyph glyph-name="five.tnum" 
d="M553 168q135 0 223 83t88 210t-99 209t-243 82q-72 0 -142 -18t-101 -38l-33 -18l-84 39l57 598q6 71 35 101t96 30h506q68 0 98 -31t31 -100v-182h-186v92q0 45 -45 45h-303q-39 0 -45 -45l-29 -264l-10 -76h4q80 43 186 43q231 0 373 -136t143 -336q0 -200 -145 -340
t-375 -141q-170 0 -281 67t-149 116l-19 20l113 150q16 -23 66 -68q51 -44 130 -68q78 -24 140 -24z" />
    <glyph glyph-name="six.tnum" 
d="M309 555q1 -145 97 -269t223 -124t199 84t71 215q0 131 -80 214t-208 83t-215 -62t-87 -141zM1100 453q0 -207 -131 -343t-349 -135q-218 -1 -372 183t-154 486t157 552q77 123 206 199t288 75q76 0 147 -14t103 -31l31 -14l-65 -174q-90 47 -205 47q-186 0 -297 -144
t-137 -352h4q41 62 131 102t188 40q201 0 328 -135t127 -342z" />
    <glyph glyph-name="seven.tnum" 
d="M784 1270h-436q-45 0 -45 -45v-92h-186v182q-1 71 27 101t96 30h880v-139l-702 -1307h-225l612 1139l84 133v4q-33 -6 -105 -6z" />
    <glyph glyph-name="eight.tnum" 
d="M293 416q0 -110 87 -182t208 -72t208 70t87 164q-1 96 -61 147t-186 102t-144 51q-49 0 -124 -85t-75 -195zM700 817q38 0 94 80t56 174q0 93 -70 153t-184 60t-180 -58q-68 -58 -68 -146t58 -134q58 -47 180 -94q76 -35 114 -35zM241 722q36 32 60 48l25 14v4
q-22 11 -58 43q-34 33 -58 63t-43 82t-20 107q0 160 121 274q121 113 328 113t331 -110t124 -281q0 -94 -44 -180t-89 -125l-44 -39v-4q217 -125 218 -332q0 -174 -142 -299t-356 -125q-213 0 -361 122q-147 122 -147 305q0 182 155 320z" />
    <glyph glyph-name="nine.tnum" 
d="M566 688q128 0 215 62t87 141q0 145 -95 269t-223 124t-200 -84t-72 -214t80 -214t208 -84zM424 162q184 0 297 145t137 352h-4q-43 -65 -132 -103t-187 -38q-203 0 -330 134t-127 341t131 342t349 135t372 -183t154 -484t-157 -553q-77 -123 -205 -199t-290 -76
q-76 1 -146 15t-102 30l-32 15l65 176q92 -49 207 -49z" />
    <glyph glyph-name="hyphen.case" horiz-adv-x="839" 
d="M121 625v176h598v-176h-598z" />
    <glyph glyph-name="parenleft.case" horiz-adv-x="555" 
d="M84 725q0 485 231 842h174q-225 -377 -225 -833t236 -867h-174q-242 373 -242 858z" />
    <glyph glyph-name="parenright.case" horiz-adv-x="555" 
d="M291 734q0 456 -225 833h174q231 -356 231 -841t-240 -859h-176q236 411 236 867z" />
    <glyph glyph-name="bracketleft.case" horiz-adv-x="577" 
d="M160 -2v1438q0 70 30 100t101 31h209v-150h-121q-45 0 -45 -45v-1309q0 -45 45 -45h121v-151h-209q-71 1 -101 31t-30 100z" />
    <glyph glyph-name="bracketright.case" horiz-adv-x="577" 
d="M80 18h119q45 0 45 45v1309q0 45 -45 45h-119v150h207q69 0 101 -31t32 -100v-1438q0 -70 -32 -100t-101 -31h-207v151z" />
    <glyph glyph-name="braceleft.case" horiz-adv-x="661" 
d="M225 219v197q0 146 -111 204q-20 10 -63 19v176q23 1 57 17q117 57 117 210v172q0 92 26 161t61 105q91 91 245 91l47 -2v-152h-29q-52 -1 -95 -27q-79 -50 -81 -188v-211q0 -113 -58 -178t-108 -82v-4q104 -35 148 -153q18 -48 18 -107v-236q0 -137 71 -181
q54 -32 105 -34h29v-151q-18 -4 -51 -4t-69 5t-86 28q-50 22 -86 58t-62 106t-25 161z" />
    <glyph glyph-name="braceright.case" horiz-adv-x="661" 
d="M57 16h29q50 0 93 26q83 50 83 189v236q0 149 107 229q29 21 59 31v4q-21 7 -54 30q-110 78 -112 230v211q0 140 -71 181q-57 34 -105 34h-29v152q18 2 51 2t69 -5t86 -28q50 -22 86 -58t62 -105t25 -161v-172q0 -153 112 -207q22 -11 62 -20v-176q-21 0 -56 -16
q-34 -16 -58 -38q-59 -55 -60 -169v-197q0 -92 -26 -162q-26 -69 -61 -105q-92 -90 -245 -91l-47 4v151z" />
    <glyph glyph-name="at.case" horiz-adv-x="1601" 
d="M743 723q0 -100 68 -171t170 -71h207v486h-203q-104 0 -173 -72t-69 -172zM98 721q0 317 217 537t531 221q276 0 404 -118t128 -300v-580h148v-149h-559q-186 0 -305 114t-119 272q-1 158 117 272t307 114h221q-4 92 -91 151t-241 60q-236 0 -398 -176t-161 -421
q0 -245 163 -416t419 -171v-162q-340 0 -561 217q-220 218 -220 535z" />
    <glyph glyph-name="guillemotleft.case" horiz-adv-x="1124" 
d="M418 281l-336 419l336 422h198l-335 -422l335 -419h-198zM831 281l-335 419l335 422h199l-336 -422l336 -419h-199z" />
    <glyph glyph-name="guillemotright.case" horiz-adv-x="1124" 
d="M94 281l336 419l-336 422h199l336 -422l-336 -419h-199zM508 281l336 419l-336 422h199l335 -422l-335 -419h-199z" />
    <glyph glyph-name="guilsinglleft.case" horiz-adv-x="712" 
d="M418 281l-336 419l336 422h198l-335 -422l335 -419h-198z" />
    <glyph glyph-name="guilsinglright.case" horiz-adv-x="712" 
d="M94 281l336 419l-336 422h199l336 -422l-336 -419h-199z" />
    <glyph glyph-name="endash.case" horiz-adv-x="1323" 
d="M123 627v159h1077v-159h-1077z" />
    <glyph glyph-name="emdash.case" horiz-adv-x="1732" 
d="M123 627v159h1487v-159h-1487z" />
    <glyph glyph-name="periodcentered.case" horiz-adv-x="444" 
d="M121 602v211h203v-211h-203z" />
    <glyph glyph-name="questiondown.case" horiz-adv-x="950" 
d="M453 969v80h192v-93q0 -86 -36 -158t-87 -119q-51 -48 -101 -93q-122 -110 -122 -221q0 -85 67 -145t166 -60q58 0 116 22t89 43l29 23l108 -142q-14 -14 -55 -41q-133 -87 -307 -89t-298 102t-124 274t127 290q53 50 108 96q128 109 128 231zM446 1247v199h205v-199
h-205z" />
    <glyph glyph-name="exclamdown.case" horiz-adv-x="548" 
d="M172 0l14 1049h179l12 -1049h-205zM172 1247v199h203v-199h-203z" />
    <glyph glyph-name="bullet.case" horiz-adv-x="927" 
d="M465 406q-131 0 -224 93t-93 225t92 224t224 92t224 -93t92 -224t-92 -224t-223 -93z" />
    <glyph glyph-name="uni0433.BUL" horiz-adv-x="907" 
d="M68 256q0 94 57 164t139 110t164 73q82 34 139 78t57 100t-46 86q-47 30 -121 30t-128 -26t-55 -68v-43h-178v92q0 104 111 156t261 53q150 0 252 -68q101 -68 101 -202q0 -96 -57 -167t-138 -111t-162 -75t-138 -79q-58 -44 -58 -101t47 -87t137 -30t180 46t122 81
l98 -133q-25 -27 -65 -57t-139 -66q-99 -37 -210 -37q-162 0 -266 74t-104 207z" />
    <glyph glyph-name="uni0434.BUL" horiz-adv-x="1216" 
d="M274 545q0 -161 81 -261t211 -100t207 84t77 273q0 348 -293 348q-133 0 -208 -91t-75 -253zM512 -254q150 0 243 71q91 71 91 218v69l2 66h-4q-96 -158 -307 -158t-338 151t-127 380t122 373t332 145q143 0 226 -55t108 -107h4q-2 16 -2 33q0 104 117 104h192v-170h-84
q-45 0 -45 -41v-782q0 -123 -44 -217q-80 -171 -284 -229q-91 -27 -194 -27q-184 0 -352 86l65 160q129 -70 279 -70z" />
    <glyph glyph-name="uni0436.BUL" horiz-adv-x="1564" 
d="M119 866h-53v170h122q76 0 111 -17t63 -79l134 -268q33 -61 118 -62h72v836h193v-836h69q90 0 119 62l133 268q31 60 65 78t109 18h125v-170h-55q-40 0 -60 -8t-32 -33l-105 -213q-25 -55 -82 -82v-4q68 -14 119 -100l248 -426h-229l-207 360q-47 84 -146 84h-71v-444
h-193v444h-72q-96 0 -147 -84l-203 -360h-231l248 426q45 76 118 100v4q-49 14 -82 82l-106 213q-18 41 -92 41z" />
    <glyph glyph-name="uni0438.BUL" horiz-adv-x="1265" 
d="M516 -25q-352 0 -352 398v448q0 45 -45 45h-84v170h194q70 0 101 -30t30 -97v-491q0 -123 41 -191t154 -67q154 0 246 114t92 277v485h199v-821q0 -45 45 -45h84v-170h-191q-131 0 -131 115v39l2 59h-4q-39 -90 -140 -164t-241 -74z" />
    <glyph glyph-name="uni0439.BUL" horiz-adv-x="1265" 
d="M928 1417q0 -121 -88 -191t-214 -71q-126 0 -215 71t-89 191v31h159v-29q0 -63 43 -99q44 -36 102 -36t101 36t43 101v27h158v-31zM516 -25q-352 0 -352 398v448q0 45 -45 45h-84v170h194q70 0 101 -30t30 -97v-491q0 -123 41 -191t154 -67q154 0 246 114t92 277v485h199
v-821q0 -45 45 -45h84v-170h-191q-131 0 -131 115v39l2 59h-4q-39 -90 -140 -164t-241 -74z" />
    <glyph glyph-name="uni043A.BUL" horiz-adv-x="1054" 
d="M137 0v1231q0 45 -45 45h-84v170h195q73 0 103 -26t30 -93v-672h92q74 0 107 45l239 336h230l-283 -385q-35 -51 -78 -78v-4q35 -12 70 -77l153 -281q23 -41 90 -41h62v-170h-144q-72 0 -104 18t-65 78l-191 348q-23 43 -102 43h-76v-487h-199z" />
    <glyph glyph-name="uni043B.BUL" horiz-adv-x="1062" 
d="M31 0v170h24q45 0 62 39l293 827h243l293 -827q12 -39 64 -39h22v-170h-108q-66 0 -100 23t-54 79l-192 578l-48 166h-4q-27 -104 -47 -166l-192 -578q-21 -58 -55 -80t-99 -22h-102z" />
    <glyph glyph-name="uni043F.BUL" horiz-adv-x="1275" 
d="M174 0v821q0 45 -45 45h-84v170h191q131 0 131 -114v-39l-5 -60h5q41 88 140 163t251 75q354 0 354 -397v-449q0 -45 45 -45h84v-170h-197q-70 0 -100 31t-31 100v487q0 125 -40 193q-39 68 -155 68t-205 -71t-122 -183q-18 -53 -18 -140v-485h-199z" />
    <glyph glyph-name="uni0442.BUL" horiz-adv-x="1912" 
d="M174 0v821q0 45 -45 45h-84v170h191q131 0 131 -114v-39l-2 -60h4q39 96 138 167t216 71q258 0 313 -236h4q42 98 144 167t223 69q342 0 342 -397v-449q0 -45 45 -45h84v-170h-197q-71 0 -101 31t-30 100v490q0 125 -38 193t-142 67q-104 0 -184 -78t-107 -189
q-18 -63 -18 -141v-473h-199v621q0 123 -36 191t-142 69q-106 0 -186 -79q-125 -123 -125 -329v-473h-199z" />
    <glyph glyph-name="uni0446.BUL" horiz-adv-x="1294" 
d="M516 -25q-352 0 -352 398v448q0 45 -45 45h-84v170h194q70 0 101 -30t30 -97v-491q0 -123 41 -191t154 -67q154 0 246 114t92 277v485h199v-821q0 -45 45 -45h123v-416h-183v246h-47q-131 0 -131 115v39l2 59h-4q-39 -90 -140 -164t-241 -74z" />
    <glyph glyph-name="uni0448.BUL" horiz-adv-x="1912" 
d="M1739 1036v-821q0 -45 45 -45h84v-170h-191q-131 0 -131 115v39l2 59h-4q-39 -96 -138 -167t-216 -71q-258 0 -313 236h-5q-43 -98 -144 -167t-222 -69q-342 0 -342 398v448q0 45 -45 45h-84v170h196q70 0 101 -30t30 -101v-489q0 -125 38 -193q38 -67 142 -67t185 78
q80 78 107 188q18 63 18 141v473h199v-620q-1 -123 35 -192q36 -68 142 -68t187 78q125 123 125 329v473h199z" />
    <glyph glyph-name="uni0449.BUL" horiz-adv-x="1945" 
d="M1739 1036v-821q0 -45 45 -45h143v-416h-184v246h-66q-131 0 -131 115v39l2 59h-4q-39 -96 -138 -167t-216 -71q-258 0 -313 236h-5q-43 -98 -144 -167t-222 -69q-342 0 -342 398v448q0 45 -45 45h-84v170h196q70 0 101 -30t30 -101v-489q0 -125 38 -193q38 -67 142 -67
t185 78q80 78 107 188q18 63 18 141v473h199v-620q-1 -123 35 -192q36 -68 142 -68t187 78q125 123 125 329v473h199z" />
    <glyph glyph-name="uni044A.BUL" horiz-adv-x="1263" 
d="M569 371q-1 -104 57 -172t159 -68q101 1 165 63t64 181t-62 175t-160 56q-99 0 -161 -66t-62 -169zM373 373v458q0 45 -43 46h-97q-45 0 -45 -46v-77h-151v155q0 70 31 99t100 28h270q133 0 133 -127v-157q0 -57 -4 -99l4 2q93 113 265 113t275 -103t103 -285t-116 -294
q-116 -111 -320 -111q-203 0 -304 110t-101 288z" />
    <glyph glyph-name="uni044C.BUL" horiz-adv-x="1054" 
d="M360 372q0 -106 58 -174q58 -67 158 -67q102 1 165 63t63 181t-60 175q-62 56 -161 56t-161 -64t-62 -170zM162 373v448q0 45 -41 45h-88v170h196q70 0 101 -30t30 -97v-157q0 -57 -4 -99l4 2q98 113 268 113t274 -103t104 -285t-117 -294q-117 -111 -320 -111t-305 111
t-102 287z" />
    <glyph glyph-name="uni044E.BUL" horiz-adv-x="1660" 
d="M715 519q0 -161 97 -266q96 -105 240 -105t242 104q98 106 98 267t-98 265t-241 104t-241 -104t-97 -265zM137 0v1231q0 45 -45 45h-84v170h195q69 0 101 -31t32 -100v-715h188q27 203 174 332q148 129 366 129t374 -154q156 -155 156 -389t-156 -388t-374 -155
q-218 0 -367 131q-148 131 -175 338h-186v-444h-199z" />
    <glyph glyph-name="uni0432.BUL" horiz-adv-x="1171" 
d="M307 450q0 -144 82 -227q82 -82 210 -82t215 84q87 83 87 231t-88 215t-206 67t-209 -72t-91 -216zM307 754h4q41 72 152 129l121 59q112 56 158 108t46 121t-55 109t-133 41q-139 0 -216 -103t-77 -268v-196zM113 496v393q0 254 135 418t373 163q164 0 264 -82t100 -202
q0 -199 -250 -320v-4q203 -18 311 -178q60 -90 60 -213q0 -219 -140 -357t-372 -138t-356 147q-124 148 -125 373z" />
    <glyph glyph-name="uni0437.BUL" horiz-adv-x="917" 
d="M367 -256q129 0 205 79t77 201q0 122 -81 188t-238 67h-107v161h101q124 0 204 66t80 172t-59 164t-170 59q-66 1 -117 -23t-51 -65v-51h-178v98q0 102 107 152q108 49 247 49q203 0 313 -98t109 -250q2 -113 -59 -203t-160 -135v-4q134 -45 198 -139t64 -214
q0 -200 -133 -324t-335 -124t-351 104l76 156q129 -86 258 -86z" />
    <glyph glyph-name="uni0414.ALT" horiz-adv-x="1441" 
d="M385 176h666l-281 850l-51 201h-4q-29 -127 -51 -201zM20 47q0 73 29 101t101 28h26l436 1270h217l437 -1270h26q70 0 100 -30t29 -99v-334h-184v242q0 45 -43 45h-946q-43 0 -43 -45v-242h-185v334z" />
    <glyph glyph-name="uni041B.ALT" horiz-adv-x="1327" 
d="M25 0v176h30q53 0 68 45l428 1225h225l426 -1225q18 -45 70 -45h31v-176h-117q-78 0 -112 24t-56 95l-301 887l-55 211h-5q-31 -135 -55 -211l-301 -887q-23 -71 -55 -95t-111 -24h-110z" />
    <glyph glyph-name="uni0434.ALT" horiz-adv-x="1191" 
d="M348 166h498l-197 532l-49 166h-4q-27 -102 -47 -166zM20 37q0 129 130 129l329 870h244l321 -870q127 0 127 -129v-283h-182v201q0 45 -45 45h-704q-37 0 -37 -45v-201h-183v283z" />
    <glyph glyph-name="uni043B.ALT" horiz-adv-x="1062" 
d="M31 0v170h24q45 0 62 39l293 827h243l293 -827q12 -39 64 -39h22v-170h-108q-66 0 -100 23t-54 79l-195 578l-45 166h-4q-27 -104 -47 -166l-192 -578q-21 -58 -55 -80t-99 -22h-102z" />
    <glyph glyph-name="uni0409.ALT" horiz-adv-x="1796" 
d="M1026 217q0 -45 45 -45h211q125 0 195 69q69 69 69 189t-68 188q-68 66 -194 66h-258v-467zM20 0v176h23q51 0 72 47l485 1223h295q71 0 101 -31t30 -100v-459h252q188 0 327 -92q71 -47 111 -132t41 -198q0 -214 -136 -324t-351 -110h-318q-70 0 -100 31t-31 100v1094
q0 45 -45 45h-33l-452 -1151q-29 -71 -64 -95t-108 -24h-99z" />
    </font>
</defs>
</svg>
