<svg id="SvgjsSvg1407" xmlns="http://www.w3.org/2000/svg" version="1.1" xmlns:xlink="http://www.w3.org/1999/xlink" xmlns:svgjs="http://svgjs.com/svgjs" width="32" height="32" viewBox="0 0 32 32"><title>3</title><desc>Created with Avocode.</desc><defs id="SvgjsDefs1408"><filter id="SvgjsFilter1410" width="200%" height="200%" x="-50%" y="-50%"><feMorphology id="SvgjsFeMorphology1411" operator="dilate" radius="0" result="SvgjsFeMorphology1411Out" in="SourceGraphic"></feMorphology><feOffset id="SvgjsFeOffset1412" dx="0.5" dy="0.9" result="SvgjsFeOffset1412Out" in="SvgjsFeMorphology1411Out"></feOffset><feGaussianBlur id="SvgjsFeGaussianBlur1413" stdDeviation="0.5 " result="SvgjsFeGaussianBlur1413Out" in="SvgjsFeOffset1412Out"></feGaussianBlur><feComposite id="SvgjsFeComposite1414" in="SvgjsFeGaussianBlur1413Out" in2="SourceAlpha" operator="out" result="SvgjsFeComposite1414Out"></feComposite></filter><filter id="SvgjsFilter1417" width="200%" height="200%" x="-50%" y="-50%"><feMorphology id="SvgjsFeMorphology1418" operator="dilate" radius="0" result="SvgjsFeMorphology1418Out" in="SourceGraphic"></feMorphology><feOffset id="SvgjsFeOffset1419" dx="0.5" dy="0.9" result="SvgjsFeOffset1419Out" in="SvgjsFeMorphology1418Out"></feOffset><feGaussianBlur id="SvgjsFeGaussianBlur1420" stdDeviation="0.5 " result="SvgjsFeGaussianBlur1420Out" in="SvgjsFeOffset1419Out"></feGaussianBlur><feComposite id="SvgjsFeComposite1421" in="SvgjsFeGaussianBlur1420Out" in2="SourceAlpha" operator="out" result="SvgjsFeComposite1421Out"></feComposite></filter></defs><path id="SvgjsPath1409" d="M1095 959C1103.28 959 1110 965.716 1110 974C1110 982.284 1103.28 989 1095 989C1086.72 989 1080 982.284 1080 974C1080 965.716 1086.72 959 1095 959Z " fill="#000202" fill-opacity="0.3" filter="url(#SvgjsFilter1410)" transform="matrix(1,0,0,1,-1079.5,-958.9)"></path><path id="SvgjsPath1415" d="M1095 959C1103.28 959 1110 965.716 1110 974C1110 982.284 1103.28 989 1095 989C1086.72 989 1080 982.284 1080 974C1080 965.716 1086.72 959 1095 959Z " fill="#347c9f" fill-opacity="1" transform="matrix(1,0,0,1,-1079.5,-958.9)"></path><path id="SvgjsPath1416" d="M1100.17 973.16C1100.17 970.27 1097.8200000000002 967.9169999999999 1094.93 967.9169999999999C1092.03 967.9169999999999 1089.68 970.2699999999999 1089.68 973.16C1089.68 975.404 1091.1000000000001 977.317 1093.0900000000001 978.064L1093.68 976.468C1092.3500000000001 975.963 1091.39 974.673 1091.39 973.16C1091.39 971.211 1092.98 969.624 1094.93 969.624C1096.8700000000001 969.624 1098.46 971.211 1098.46 973.16C1098.46 974.673 1097.5 975.9639999999999 1096.17 976.468L1096.76 978.064C1098.75 977.318 1100.17 975.404 1100.17 973.16ZM1097.24 973.16C1097.24 971.8829999999999 1096.2 970.8439999999999 1094.93 970.8439999999999C1093.65 970.8439999999999 1092.6100000000001 971.8829999999999 1092.6100000000001 973.16C1092.6100000000001 974.151 1093.2400000000002 974.992 1094.1200000000001 975.323L1091.2700000000002 982.915L1094.9300000000003 982.915L1094.9300000000003 973.16L1094.7100000000003 973.727C1094.4800000000002 973.64 1094.3200000000002 973.422 1094.3200000000002 973.16C1094.3200000000002 972.824 1094.5900000000001 972.5509999999999 1094.93 972.5509999999999C1095.26 972.5509999999999 1095.54 972.824 1095.54 973.16C1095.54 973.4219999999999 1095.37 973.641 1095.1399999999999 973.727L1095.7399999999998 975.323C1096.6099999999997 974.9929999999999 1097.2399999999998 974.1519999999999 1097.2399999999998 973.16ZM1094.93 964.991C1090.42 964.991 1086.75 968.656 1086.75 973.16C1086.75 976.656 1088.97 979.637 1092.06 980.8009999999999L1092.6599999999999 979.204C1090.2099999999998 978.2829999999999 1088.4599999999998 975.925 1088.4599999999998 973.16C1088.4599999999998 969.597 1091.36 966.697 1094.9299999999998 966.697C1098.4899999999998 966.697 1101.3899999999999 969.597 1101.3899999999999 973.16C1101.3899999999999 975.925 1099.6399999999999 978.284 1097.1899999999998 979.204L1097.7899999999997 980.8009999999999C1100.8899999999996 979.637 1103.0999999999997 976.656 1103.0999999999997 973.16C1103.0999999999997 968.656 1099.4299999999996 964.991 1094.9299999999996 964.991Z " fill="#000202" fill-opacity="0.3" filter="url(#SvgjsFilter1417)" transform="matrix(1,0,0,1,-1079.5,-958.9)"></path><path id="SvgjsPath1422" d="M1100.17 973.16C1100.17 970.27 1097.8200000000002 967.9169999999999 1094.93 967.9169999999999C1092.03 967.9169999999999 1089.68 970.2699999999999 1089.68 973.16C1089.68 975.404 1091.1000000000001 977.317 1093.0900000000001 978.064L1093.68 976.468C1092.3500000000001 975.963 1091.39 974.673 1091.39 973.16C1091.39 971.211 1092.98 969.624 1094.93 969.624C1096.8700000000001 969.624 1098.46 971.211 1098.46 973.16C1098.46 974.673 1097.5 975.9639999999999 1096.17 976.468L1096.76 978.064C1098.75 977.318 1100.17 975.404 1100.17 973.16ZM1097.24 973.16C1097.24 971.8829999999999 1096.2 970.8439999999999 1094.93 970.8439999999999C1093.65 970.8439999999999 1092.6100000000001 971.8829999999999 1092.6100000000001 973.16C1092.6100000000001 974.151 1093.2400000000002 974.992 1094.1200000000001 975.323L1091.2700000000002 982.915L1094.9300000000003 982.915L1094.9300000000003 973.16L1094.7100000000003 973.727C1094.4800000000002 973.64 1094.3200000000002 973.422 1094.3200000000002 973.16C1094.3200000000002 972.824 1094.5900000000001 972.5509999999999 1094.93 972.5509999999999C1095.26 972.5509999999999 1095.54 972.824 1095.54 973.16C1095.54 973.4219999999999 1095.37 973.641 1095.1399999999999 973.727L1095.7399999999998 975.323C1096.6099999999997 974.9929999999999 1097.2399999999998 974.1519999999999 1097.2399999999998 973.16ZM1094.93 964.991C1090.42 964.991 1086.75 968.656 1086.75 973.16C1086.75 976.656 1088.97 979.637 1092.06 980.8009999999999L1092.6599999999999 979.204C1090.2099999999998 978.2829999999999 1088.4599999999998 975.925 1088.4599999999998 973.16C1088.4599999999998 969.597 1091.36 966.697 1094.9299999999998 966.697C1098.4899999999998 966.697 1101.3899999999999 969.597 1101.3899999999999 973.16C1101.3899999999999 975.925 1099.6399999999999 978.284 1097.1899999999998 979.204L1097.7899999999997 980.8009999999999C1100.8899999999996 979.637 1103.0999999999997 976.656 1103.0999999999997 973.16C1103.0999999999997 968.656 1099.4299999999996 964.991 1094.9299999999996 964.991Z " fill="#ffffff" fill-opacity="1" transform="matrix(1,0,0,1,-1079.5,-958.9)"></path></svg>