<svg id="SvgjsSvg1000" xmlns="http://www.w3.org/2000/svg" version="1.1" xmlns:xlink="http://www.w3.org/1999/xlink" xmlns:svgjs="http://svgjs.com/svgjs" width="49" height="57" viewBox="0 0 49 57"><title>Shape 1</title><desc>Created with Avocode.</desc><defs id="SvgjsDefs1001"></defs><path id="SvgjsPath1007" d="M638.752 360.167L631.7249999999999 360.167L631.7249999999999 354.051C631.7249999999999 353.36199999999997 631.1659999999999 352.803 630.4769999999999 352.803L601.2399999999999 352.803C600.5509999999999 352.803 599.9919999999998 353.362 599.9919999999998 354.051L599.9919999999998 360.167L592.9719999999999 360.167C592.2829999999999 360.167 591.7239999999998 360.726 591.7239999999998 361.416C591.7239999999998 367.124 595.1849999999998 372.286 600.4029999999998 374.48C601.7399999999998 380.228 606.2079999999997 384.788 611.9029999999998 386.25600000000003C612.1329999999998 389.15200000000004 610.1919999999998 391.87300000000005 607.2869999999998 392.528C607.2749999999999 392.53000000000003 607.2639999999998 392.534 607.2519999999998 392.53700000000003C607.2259999999999 392.54400000000004 607.1999999999998 392.55100000000004 607.1749999999998 392.559C607.1579999999998 392.564 607.1419999999998 392.571 607.1259999999999 392.577C607.1039999999998 392.585 607.0829999999999 392.593 607.0619999999999 392.602C607.0419999999999 392.60999999999996 607.0229999999999 392.61999999999995 607.0039999999999 392.63C606.9869999999999 392.638 606.9709999999999 392.646 606.9549999999999 392.655C606.9329999999999 392.667 606.9119999999999 392.67999999999995 606.8919999999999 392.693C606.8789999999999 392.70099999999996 606.866 392.709 606.8539999999999 392.717C606.8319999999999 392.733 606.8109999999999 392.74899999999997 606.7909999999999 392.765C606.78 392.77299999999997 606.7689999999999 392.781 606.7589999999999 392.78999999999996C606.7389999999999 392.80699999999996 606.7199999999999 392.825 606.6999999999999 392.84299999999996C606.6899999999999 392.85299999999995 606.68 392.86199999999997 606.6709999999999 392.87199999999996C606.6529999999999 392.88999999999993 606.636 392.90899999999993 606.6199999999999 392.92799999999994C606.6099999999999 392.93999999999994 606.5999999999999 392.95099999999996 606.5899999999999 392.96299999999997C606.5759999999999 392.98099999999994 606.5619999999999 392.99999999999994 606.5479999999999 393.01899999999995C606.5379999999999 393.03299999999996 606.5279999999999 393.04699999999997 606.5189999999999 393.0609999999999C606.507 393.0789999999999 606.4949999999999 393.09899999999993 606.4839999999999 393.11799999999994C606.4749999999999 393.1329999999999 606.4659999999999 393.14899999999994 606.4569999999999 393.16499999999996C606.4469999999999 393.18399999999997 606.4379999999999 393.20399999999995 606.4289999999999 393.224C606.4209999999998 393.241 606.4129999999999 393.257 606.4069999999998 393.274C606.3979999999998 393.296 606.3899999999998 393.318 606.3829999999998 393.34C606.3769999999998 393.356 606.3719999999998 393.371 606.3669999999998 393.387C606.3589999999998 393.412 606.3529999999998 393.439 606.3469999999999 393.465C606.3439999999998 393.47799999999995 606.3409999999999 393.48999999999995 606.3379999999999 393.503C606.3319999999999 393.534 606.3279999999999 393.565 606.3239999999998 393.597C606.3229999999999 393.606 606.3209999999998 393.614 606.3199999999998 393.623C606.3169999999998 393.658 606.3149999999998 393.694 606.3149999999998 393.729C606.3149999999998 393.73499999999996 606.3139999999999 393.74 606.3139999999999 393.745L606.3139999999999 393.75600000000003C606.3139999999999 393.762 606.3139999999999 393.76800000000003 606.3139999999999 393.774L606.3139999999999 397.49L602.8209999999998 397.49C602.1319999999998 397.49 601.5729999999998 398.04900000000004 601.5729999999998 398.738L601.5729999999998 407.476C601.5729999999998 408.165 602.1319999999997 408.724 602.8209999999998 408.724L629.0209999999998 408.724C629.7099999999998 408.724 630.2689999999999 408.16499999999996 630.2689999999999 407.476L630.2689999999999 398.738C630.2689999999999 398.049 629.7099999999999 397.49 629.0209999999998 397.49L625.5279999999998 397.49L625.5279999999998 393.745C625.5279999999998 393.415 625.3979999999998 393.115 625.1889999999997 392.892C625.1879999999998 392.89 625.1859999999997 392.888 625.1849999999997 392.887C625.1599999999997 392.861 625.1339999999997 392.836 625.1079999999997 392.813C625.1039999999997 392.80899999999997 625.0999999999997 392.805 625.0959999999998 392.801C625.0699999999998 392.78 625.0439999999998 392.759 625.0169999999998 392.739C625.0109999999999 392.73499999999996 625.0049999999999 392.72999999999996 624.9989999999998 392.726C624.9719999999998 392.707 624.9449999999998 392.689 624.9159999999998 392.672C624.9099999999999 392.668 624.9029999999998 392.66400000000004 624.8969999999998 392.661C624.8669999999998 392.644 624.8359999999998 392.628 624.8049999999998 392.614C624.7989999999999 392.611 624.7939999999999 392.608 624.7879999999998 392.60499999999996C624.7549999999998 392.59 624.7209999999998 392.57699999999994 624.6859999999998 392.56499999999994C624.6819999999998 392.56399999999996 624.6769999999998 392.56199999999995 624.6729999999998 392.55999999999995C624.6379999999998 392.5489999999999 624.6019999999997 392.53899999999993 624.5649999999998 392.53C624.5609999999998 392.529 624.5569999999998 392.52799999999996 624.5529999999999 392.527C621.6319999999998 391.86899999999997 619.6909999999999 389.132 619.9389999999999 386.221C625.5729999999999 384.72 629.9849999999999 380.188 631.3129999999999 374.483C636.5359999999998 372.291 639.9999999999999 367.127 639.9999999999999 361.415C639.9999999999999 360.726 639.4409999999999 360.16700000000003 638.7519999999998 360.16700000000003ZM615.858 384.258C608.4849999999999 384.258 602.487 378.257 602.487 370.881L602.487 355.299L629.2289999999999 355.299L629.2289999999999 370.881C629.2289999999999 378.25699999999995 623.2309999999999 384.258 615.858 384.258ZM627.773 399.986L627.773 406.228L604.068 406.228L604.068 399.986ZM631.712 371.5C631.7189999999999 371.313 631.723 371.126 631.7239999999999 370.938C631.7239999999999 370.933 631.7249999999999 370.928 631.7249999999999 370.924L631.7249999999999 362.664L637.4359999999999 362.664C637.0369999999999 366.35499999999996 634.8889999999999 369.642 631.7119999999999 371.5ZM594.288 362.664L599.992 362.664L599.992 370.924C599.992 370.928 599.9929999999999 370.933 599.9929999999999 370.938C599.9939999999999 371.12399999999997 599.9979999999999 371.31 600.0049999999999 371.495C596.8319999999999 369.637 594.6869999999999 366.35200000000003 594.2879999999999 362.664ZM613.09 391.279C613.979 389.889 614.431 388.304 614.4200000000001 386.689C614.8940000000001 386.732 615.374 386.755 615.8580000000001 386.755C616.3860000000001 386.755 616.907 386.729 617.422 386.678C617.4100000000001 388.868 618.2610000000001 390.944 619.71 392.497L612.143 392.497C612.491 392.124 612.8090000000001 391.718 613.09 391.279ZM623.032 394.993L623.032 397.49L608.8090000000001 397.49L608.8090000000001 394.993ZM619.788 401.859L612.053 401.859C611.364 401.859 610.805 402.418 610.805 403.10699999999997C610.805 403.79699999999997 611.3639999999999 404.35499999999996 612.053 404.35499999999996L619.788 404.35499999999996C620.477 404.35499999999996 621.0360000000001 403.79599999999994 621.0360000000001 403.10699999999997C621.0360000000001 402.41799999999995 620.4770000000001 401.859 619.788 401.859ZM623.414 366.488C623.2669999999999 366.036 622.877 365.707 622.407 365.638L618.6980000000001 365.099L617.0390000000001 361.73699999999997C616.8290000000001 361.311 616.3960000000001 361.04099999999994 615.921 361.04099999999994C615.446 361.04099999999994 615.0120000000001 361.3109999999999 614.802 361.73699999999997L613.143 365.099L609.4350000000001 365.638C608.965 365.707 608.5740000000001 366.036 608.4280000000001 366.488C608.2810000000001 366.94 608.4030000000001 367.436 608.7430000000002 367.768L611.4270000000001 370.385L610.7930000000001 374.08C610.7130000000001 374.549 610.9060000000002 375.022 611.2900000000001 375.301C611.6740000000001 375.58 612.1830000000001 375.61699999999996 612.604 375.396L615.921 373.651L619.238 375.396C619.4200000000001 375.492 619.62 375.539 619.8180000000001 375.539C620.0770000000001 375.539 620.3340000000001 375.459 620.5520000000001 375.301C620.9360000000001 375.022 621.1280000000002 374.548 621.0480000000001 374.08L620.4150000000001 370.385L623.0980000000001 367.768C623.4380000000001 367.436 623.561 366.94 623.4140000000001 366.488ZM618.203 369.055C617.909 369.342 617.775 369.755 617.8439999999999 370.16L618.161 372.009L616.501 371.136C616.319 371.041 616.12 370.99300000000005 615.9209999999999 370.99300000000005C615.7209999999999 370.99300000000005 615.5219999999999 371.04100000000005 615.3399999999999 371.136L613.68 372.009L613.997 370.16C614.067 369.75500000000005 613.9319999999999 369.34200000000004 613.6379999999999 369.055L612.295 367.745L614.151 367.475C614.558 367.416 614.909 367.161 615.091 366.79200000000003L615.921 365.11L616.7510000000001 366.79200000000003C616.9320000000001 367.16100000000006 617.2840000000001 367.41600000000005 617.69 367.475L619.546 367.745Z " fill="#d8e6ef" fill-opacity="1" transform="matrix(1,0,0,1,-591,-352)"></path></svg>