<svg fill="#007aff" xmlns="http://www.w3.org/2000/svg" viewBox="0 0 24 24">
    <path style="line-height:normal;text-indent:0;text-align:start;text-decoration-line:none;text-decoration-style:solid;text-decoration-color:#000;text-transform:none;block-progression:tb;isolation:auto;mix-blend-mode:normal" d="M 12 2 C 10.067 2 8.5 3.567 8.5 5.5 C 8.5 7.433 10.067 9 12 9 C 13.933 9 15.5 7.433 15.5 5.5 C 15.5 3.567 13.933 2 12 2 z M 12 4 C 12.827 4 13.5 4.673 13.5 5.5 C 13.5 6.327 12.827 7 12 7 C 11.173 7 10.5 6.327 10.5 5.5 C 10.5 4.673 11.173 4 12 4 z M 12 10 C 9.664 10 5 11.172 5 13.5 L 5 16 L 6.9199219 16 L 5.2988281 18.025391 A 2 2 0 0 0 5 18 A 2 2 0 0 0 3 20 A 2 2 0 0 0 5 22 A 2 2 0 0 0 7 20 A 2 2 0 0 0 6.8632812 19.273438 L 9.4804688 16 L 11 16 L 11 18.271484 A 2 2 0 0 0 10 20 A 2 2 0 0 0 12 22 A 2 2 0 0 0 14 20 A 2 2 0 0 0 13 18.269531 L 13 16 L 14.519531 16 L 17.138672 19.275391 A 2 2 0 0 0 17 20 A 2 2 0 0 0 19 22 A 2 2 0 0 0 21 20 A 2 2 0 0 0 19 18 A 2 2 0 0 0 18.701172 18.025391 L 17.080078 16 L 19 16 L 19 13.5 C 19 11.172 14.336 10 12 10 z M 12 12 C 14.134 12 16.622 12.961406 17 13.566406 L 17 14 L 7 14 L 7 13.566406 C 7.378 12.961406 9.866 12 12 12 z" font-weight="400" font-family="sans-serif" white-space="normal" overflow="visible"></path>
</svg>