<svg fill="#007aff" xmlns="http://www.w3.org/2000/svg" viewBox="0 0 24 24">
    <path style="line-height:normal;text-indent:0;text-align:start;text-decoration-line:none;text-decoration-style:solid;text-decoration-color:#000;text-transform:none;block-progression:tb;isolation:auto;mix-blend-mode:normal" d="M 17 4 L 17 5 L 17 20 L 23 20 L 23 4 L 17 4 z M 19 6 L 21 6 L 21 18 L 19 18 L 19 6 z M 9 8 L 9 9 L 9 20 L 15 20 L 15 8 L 9 8 z M 11 10 L 13 10 L 13 18 L 11 18 L 11 10 z M 1 12 L 1 13 L 1 20 L 7 20 L 7 12 L 1 12 z M 3 14 L 5 14 L 5 18 L 3 18 L 3 14 z" font-weight="400" font-family="sans-serif" white-space="normal" overflow="visible"></path>
</svg>