<svg fill="#007aff" xmlns="http://www.w3.org/2000/svg" viewBox="0 0 24 24">
    <path style="line-height:normal;text-indent:0;text-align:start;text-decoration-line:none;text-decoration-style:solid;text-decoration-color:#000;text-transform:none;block-progression:tb;isolation:auto;mix-blend-mode:normal" d="M 5 5 C 3.3549904 5 2 6.3549904 2 8 C 2 9.6450096 3.3549904 11 5 11 C 6.6450096 11 8 9.6450096 8 8 C 8 6.3549904 6.6450096 5 5 5 z M 12 5 C 10.35499 5 9 6.3549904 9 8 C 9 9.6450096 10.35499 11 12 11 C 13.64501 11 15 9.6450096 15 8 C 15 6.3549904 13.64501 5 12 5 z M 19 5 C 17.35499 5 16 6.3549904 16 8 C 16 9.6450096 17.35499 11 19 11 C 20.64501 11 22 9.6450096 22 8 C 22 6.3549904 20.64501 5 19 5 z M 5 7 C 5.5641294 7 6 7.4358706 6 8 C 6 8.5641294 5.5641294 9 5 9 C 4.4358706 9 4 8.5641294 4 8 C 4 7.4358706 4.4358706 7 5 7 z M 12 7 C 12.564129 7 13 7.4358706 13 8 C 13 8.5641294 12.564129 9 12 9 C 11.435871 9 11 8.5641294 11 8 C 11 7.4358706 11.435871 7 12 7 z M 19 7 C 19.564129 7 20 7.4358706 20 8 C 20 8.5641294 19.564129 9 19 9 C 18.435871 9 18 8.5641294 18 8 C 18 7.4358706 18.435871 7 19 7 z M 6 13 C 4.5235516 13 3.1652139 13.232561 2.0800781 13.699219 C 1.5375102 13.932548 1.0571732 14.224793 0.671875 14.630859 C 0.28657676 15.036925 0 15.600679 0 16.216797 L 0 19 L 24 19 L 24 16.216797 C 24 15.600679 23.713423 15.036925 23.328125 14.630859 C 22.942827 14.224793 22.46249 13.932548 21.919922 13.699219 C 20.834786 13.232561 19.476448 13 18 13 C 16.919193 13 15.908029 13.13458 15.015625 13.382812 C 14.11597 13.128056 13.09136 13 12 13 C 10.90864 13 9.8840295 13.128056 8.984375 13.382812 C 8.0919706 13.13458 7.0808063 13 6 13 z M 6 15 C 6.1284697 15 6.2512246 15.007306 6.3769531 15.011719 C 6.1509809 15.361134 6 15.774387 6 16.216797 L 6 17 L 2 17 L 2 16.216797 C 2 16.178917 1.99756 16.140057 2.1230469 16.007812 C 2.2485299 15.875566 2.5050366 15.694531 2.8710938 15.537109 C 3.603208 15.222267 4.7454484 15 6 15 z M 12 15 C 13.254552 15 14.396792 15.222267 15.128906 15.537109 C 15.494963 15.694531 15.75147 15.875567 15.876953 16.007812 C 16.002436 16.14006 16 16.178915 16 16.216797 L 16 17 L 8 17 L 8 16.216797 C 8 16.178917 7.99756 16.140057 8.1230469 16.007812 C 8.2485299 15.875566 8.5050366 15.694531 8.8710938 15.537109 C 9.6032079 15.222267 10.745448 15 12 15 z M 18 15 C 19.254552 15 20.396792 15.222267 21.128906 15.537109 C 21.494963 15.694531 21.75147 15.875567 21.876953 16.007812 C 22.002436 16.14006 22 16.178915 22 16.216797 L 22 17 L 18 17 L 18 16.216797 C 18 15.774387 17.849019 15.361134 17.623047 15.011719 C 17.748775 15.007306 17.87153 15 18 15 z" font-weight="400" font-family="sans-serif" white-space="normal" overflow="visible"></path>
</svg>