<svg id="SvgjsSvg1000" xmlns="http://www.w3.org/2000/svg" version="1.1" xmlns:xlink="http://www.w3.org/1999/xlink" xmlns:svgjs="http://svgjs.com/svgjs" width="196" height="163" viewBox="0 0 196 163"><title>mega (up) копия 4</title><desc>Created with Avocode.</desc><defs id="SvgjsDefs1001"></defs><path id="SvgjsPath1007" d="M744.012 980.076C742.232 978.75 739.7929999999999 978.769 738.0379999999999 980.111L686.7049999999999 1019.13L652.997 943.329C651.4 939.757 645.53 939.757 643.93 943.329L609.8409999999999 1020L558.9569999999999 980.151C557.1919999999999 978.7819999999999 554.7339999999999 978.7429999999999 552.9429999999999 980.064C551.1469999999998 981.3729999999999 550.4659999999999 983.741 551.2729999999999 985.8059999999999L586.6299999999999 1076.76C587.3609999999999 1078.66 589.2029999999999 1079.91 591.2449999999999 1079.91L705.6789999999999 1079.91C707.7299999999999 1079.91 709.5619999999999 1078.66 710.2979999999999 1076.76L745.6499999999999 985.806C746.4569999999999 983.7460000000001 745.7799999999999 981.4000000000001 744.0119999999998 980.076ZM648.468 957.511L678.6089999999999 1025.29L647.1329999999999 1049.21L617.8889999999999 1026.31ZM705.588 1061.58L690.834 1028.3899999999999L730.077 998.5649999999998ZM605.706 1029.31L591.3580000000001 1061.58L567.0400000000001 999.0279999999999ZM673.409 1069.77L655.177 1055.49L682.712 1034.55L698.4979999999999 1070.04L673.7309999999999 1070.04C673.6409999999998 1069.95 673.5249999999999 1069.86 673.4089999999999 1069.77ZM598.432 1070.05L613.754 1035.6L639.001 1055.37L619.692 1070.05ZM636.024 1070.05L647.043 1061.68L657.732 1070.05ZM710.123 1097.52C710.123 1100.24 707.904 1102.45 705.168 1102.45L591.761 1102.45C589.026 1102.45 586.807 1100.24 586.807 1097.52C586.807 1094.79 589.0260000000001 1092.58 591.761 1092.58L705.168 1092.58C707.91 1092.58 710.123 1094.79 710.123 1097.52Z " fill="#f0f0f0" fill-opacity="1" transform="matrix(1,0,0,1,-550,-940)"></path></svg>