<svg id="SvgjsSvg1008" xmlns="http://www.w3.org/2000/svg" version="1.1" xmlns:xlink="http://www.w3.org/1999/xlink" xmlns:svgjs="http://svgjs.com/svgjs" width="194" height="179" viewBox="0 0 194 179"><title>vip (up) копия 4</title><desc>Created with Avocode.</desc><defs id="SvgjsDefs1009"></defs><path id="SvgjsPath1010" d="M1067.59 998.658L1036.79 943.448C1035.75 941.592 1033.8 940.443 1031.67 940.443L912.027 940.443C909.903 940.443 907.945 941.591 906.909 943.448L876.103 998.658C874.933 1000.75 875.161 1003.35 876.6769999999999 1005.21L967.31 1116.5C967.3389999999999 1116.53 967.3729999999999 1116.56 967.4029999999999 1116.6C967.4959999999999 1116.7099999999998 967.593 1116.82 967.6949999999999 1116.9199999999998C967.7069999999999 1116.9299999999998 967.717 1116.9499999999998 967.7289999999999 1116.9599999999998C967.756 1116.9799999999998 967.7829999999999 1117.0099999999998 967.81 1117.0299999999997C967.8199999999999 1117.0399999999997 967.8299999999999 1117.0499999999997 967.8389999999999 1117.0599999999997C967.943 1117.1599999999996 968.05 1117.2499999999998 968.161 1117.3399999999997C968.212 1117.3799999999997 968.2629999999999 1117.4199999999996 968.3159999999999 1117.4599999999996C968.429 1117.5499999999995 968.5459999999999 1117.6299999999997 968.6659999999999 1117.7099999999996C968.722 1117.7399999999996 968.7779999999999 1117.7799999999995 968.8349999999999 1117.8199999999995C968.935 1117.8799999999994 969.04 1117.9299999999994 969.1449999999999 1117.9899999999996C969.1879999999999 1118.0099999999995 969.2289999999998 1118.0299999999995 969.2729999999999 1118.0499999999995C969.3129999999999 1118.0699999999995 969.3519999999999 1118.0899999999995 969.3919999999999 1118.1099999999994C969.5079999999999 1118.1699999999994 969.6289999999999 1118.2099999999994 969.7499999999999 1118.2599999999995C969.8259999999999 1118.2899999999995 969.8999999999999 1118.3199999999995 969.9779999999998 1118.3499999999995C969.9919999999998 1118.3499999999995 970.0049999999999 1118.3599999999994 970.0199999999999 1118.3599999999994C970.0249999999999 1118.3699999999994 970.0309999999998 1118.3699999999994 970.0359999999998 1118.3699999999994C970.0879999999999 1118.3799999999994 970.1429999999998 1118.3899999999994 970.1969999999998 1118.4099999999994C970.3939999999998 1118.4699999999993 970.5949999999998 1118.5199999999993 970.7979999999998 1118.5499999999995C970.8819999999997 1118.5699999999995 970.9659999999998 1118.5899999999995 971.0509999999998 1118.5999999999995C971.2929999999998 1118.6299999999994 971.5369999999998 1118.6499999999994 971.7839999999998 1118.6599999999994C971.8069999999998 1118.6599999999994 971.8299999999998 1118.6599999999994 971.8529999999997 1118.6599999999994L971.8539999999997 1118.6599999999994C971.8779999999997 1118.6599999999994 971.8999999999997 1118.6599999999994 971.9229999999997 1118.6599999999994C972.1709999999997 1118.6499999999994 972.4149999999996 1118.6299999999994 972.6569999999997 1118.5999999999995C972.7409999999996 1118.5899999999995 972.8239999999997 1118.5699999999995 972.9079999999997 1118.5499999999995C973.1129999999997 1118.5199999999995 973.3149999999997 1118.4699999999996 973.5139999999997 1118.4099999999994C973.5649999999997 1118.3899999999994 973.6179999999997 1118.3799999999994 973.6679999999997 1118.3699999999994C973.6749999999996 1118.3699999999994 973.6809999999997 1118.3699999999994 973.6869999999997 1118.3599999999994C973.7019999999997 1118.3599999999994 973.7149999999997 1118.3499999999995 973.7299999999997 1118.3499999999995C973.8059999999997 1118.3199999999995 973.8789999999997 1118.2899999999995 973.9539999999997 1118.2599999999995C974.0759999999997 1118.2099999999996 974.1979999999998 1118.1699999999996 974.3149999999997 1118.1099999999994C974.3559999999998 1118.0999999999995 974.3959999999997 1118.0699999999995 974.4359999999997 1118.0499999999995C974.4769999999997 1118.0299999999995 974.5169999999997 1118.0099999999995 974.5569999999997 1117.9899999999996C974.6629999999997 1117.9299999999996 974.7689999999997 1117.8799999999997 974.8699999999997 1117.8199999999995C974.9279999999997 1117.7799999999995 974.9839999999997 1117.7399999999996 975.0419999999997 1117.7099999999996C975.1609999999997 1117.6299999999997 975.2779999999997 1117.5499999999995 975.3889999999997 1117.4599999999996C975.4419999999997 1117.4299999999996 975.4939999999997 1117.3799999999997 975.5439999999996 1117.3399999999997C975.6569999999997 1117.2499999999998 975.7639999999997 1117.1599999999996 975.8679999999996 1117.0599999999997C975.8779999999996 1117.0499999999997 975.8889999999996 1117.0399999999997 975.8989999999995 1117.0299999999997C975.9219999999996 1117.0099999999998 975.9479999999995 1116.9899999999998 975.9709999999995 1116.9599999999998C975.9839999999996 1116.9499999999998 975.9959999999995 1116.9399999999998 976.0089999999996 1116.9199999999998C976.1139999999996 1116.82 976.2129999999995 1116.7099999999998 976.3089999999995 1116.59C976.3369999999995 1116.56 976.3679999999995 1116.53 976.3949999999995 1116.5L1067.0199999999995 1005.21C1068.5299999999995 1003.35 1068.7599999999995 1000.75 1067.5899999999995 998.658ZM1000.42 1007.37L971.8539999999999 1094.07L943.2829999999999 1007.3699999999999ZM930.944 1007.37L956.356 1084.49L893.55 1007.37ZM1012.76 1007.37L1050.15 1007.37L987.3530000000001 1084.49ZM1052.5 995.654L1012.56 995.654L995.9599999999999 952.163L1028.23 952.163ZM983.416 952.163L1000.0100000000001 995.654L943.6910000000001 995.654L960.2930000000001 952.163ZM915.467 952.163L947.749 952.163L931.147 995.654L891.2 995.654Z " fill="#f0f0f0" fill-opacity="1" transform="matrix(1,0,0,1,-875,-940)"></path></svg>