<svg id="SvgjsSvg1023" xmlns="http://www.w3.org/2000/svg" version="1.1" xmlns:xlink="http://www.w3.org/1999/xlink" xmlns:svgjs="http://svgjs.com/svgjs" width="225" height="209" viewBox="0 0 225 209"><title>vip (up) копия 3</title><desc>Created with Avocode.</desc><defs id="SvgjsDefs1024"></defs><path id="SvgjsPath1025" d="M1084.12 382.65L1048.32 318.48799999999994C1047.12 316.33199999999994 1044.84 314.9959999999999 1042.37 314.9959999999999L903.329 314.9959999999999C900.8599999999999 314.9959999999999 898.584 316.3309999999999 897.381 318.48799999999994L861.5799999999999 382.65C860.2209999999999 385.08599999999996 860.4849999999999 388.10499999999996 862.247 390.269L967.5749999999999 519.596C967.6089999999999 519.6370000000001 967.6479999999999 519.673 967.6829999999999 519.713C967.7909999999998 519.842 967.9039999999999 519.966 968.0229999999999 520.086C968.0369999999999 520.1 968.0479999999999 520.116 968.0619999999999 520.13C968.0929999999998 520.16 968.1249999999999 520.188 968.156 520.217C968.1669999999999 520.2289999999999 968.179 520.236 968.1899999999999 520.246C968.3109999999999 520.361 968.435 520.47 968.564 520.574C968.6229999999999 520.6229999999999 968.683 520.6709999999999 968.7439999999999 520.717C968.8759999999999 520.817 969.012 520.911 969.151 521.001C969.216 521.045 969.281 521.086 969.347 521.127C969.4639999999999 521.198 969.586 521.261 969.707 521.327C969.757 521.352 969.805 521.38 969.856 521.405C969.903 521.427 969.948 521.4499999999999 969.994 521.472C970.13 521.534 970.269 521.588 970.4110000000001 521.6419999999999C970.499 521.6779999999999 970.585 521.7139999999999 970.6750000000001 521.7449999999999C970.6920000000001 521.7509999999999 970.7070000000001 521.7589999999999 970.724 521.7639999999999C970.731 521.7659999999998 970.7370000000001 521.7669999999999 970.743 521.7689999999999C970.803 521.7879999999999 970.868 521.7999999999998 970.9300000000001 521.8169999999999C971.1590000000001 521.8859999999999 971.393 521.9409999999999 971.629 521.9859999999999C971.727 522.0029999999999 971.8240000000001 522.0209999999998 971.923 522.0349999999999C972.203 522.0739999999998 972.487 522.0979999999998 972.774 522.1029999999998C972.801 522.1029999999998 972.827 522.1079999999998 972.854 522.1079999999998L972.856 522.1079999999998C972.884 522.1079999999998 972.91 522.1029999999998 972.936 522.1029999999998C973.224 522.0979999999998 973.508 522.0739999999998 973.789 522.0349999999999C973.887 522.0209999999998 973.983 522.0029999999998 974.08 521.9859999999999C974.3190000000001 521.9409999999999 974.5540000000001 521.8859999999999 974.7850000000001 521.8169999999999C974.844 521.7999999999998 974.9050000000001 521.7879999999999 974.964 521.7689999999999C974.9720000000001 521.7669999999999 974.979 521.7669999999999 974.9860000000001 521.7639999999999C975.0030000000002 521.7589999999999 975.0180000000001 521.7509999999999 975.0350000000001 521.7439999999999C975.1240000000001 521.7139999999999 975.2090000000001 521.6779999999999 975.296 521.6429999999999C975.4380000000001 521.5889999999999 975.5790000000001 521.535 975.716 521.4739999999999C975.763 521.4519999999999 975.8100000000001 521.4269999999999 975.856 521.405C975.904 521.381 975.951 521.353 975.997 521.3299999999999C976.12 521.266 976.2429999999999 521.1999999999999 976.361 521.1289999999999C976.428 521.0889999999999 976.494 521.045 976.561 521.0009999999999C976.6990000000001 520.9129999999999 976.835 520.8179999999999 976.964 520.7189999999998C977.0260000000001 520.6729999999998 977.086 520.6249999999998 977.1450000000001 520.5749999999998C977.2750000000001 520.4699999999998 977.4000000000001 520.3609999999998 977.5210000000001 520.2459999999999C977.532 520.2359999999999 977.5450000000001 520.2259999999999 977.557 520.2149999999999C977.5840000000001 520.189 977.613 520.1639999999999 977.64 520.137C977.656 520.121 977.67 520.1049999999999 977.685 520.0889999999999C977.8069999999999 519.9659999999999 977.9219999999999 519.838 978.0329999999999 519.707C978.0649999999999 519.669 978.1019999999999 519.636 978.1329999999999 519.597L1083.4499999999998 390.269C1085.2099999999998 388.105 1085.4799999999998 385.086 1084.12 382.65ZM1006.05 392.779L972.8549999999999 493.53499999999997L939.6529999999999 392.779ZM925.313 392.779L954.8439999999999 482.397L881.856 392.779ZM1020.39 392.779L1063.84 392.779L990.867 482.394ZM1066.57 379.159L1020.16 379.159L1000.87 328.61699999999996L1038.37 328.61699999999996ZM986.292 328.617L1005.58 379.159L940.1270000000001 379.159L959.421 328.61699999999996ZM907.327 328.617L944.842 328.617L925.549 379.159L879.125 379.159Z " fill="#e5eef3" fill-opacity="1" transform="matrix(1,0,0,1,-860,-314)"></path></svg>