<svg id="SvgjsSvg1017" xmlns="http://www.w3.org/2000/svg" version="1.1" xmlns:xlink="http://www.w3.org/1999/xlink" xmlns:svgjs="http://svgjs.com/svgjs" width="227" height="216" viewBox="0 0 227 216"><title>standart (up) копия 3</title><desc>Created with Avocode.</desc><defs id="SvgjsDefs1018"></defs><path id="SvgjsPath1019" d="M439.658 395.631C438.839 393.11699999999996 436.659 391.28299999999996 434.035 390.90299999999996L364.386 380.80799999999994L333.24 317.88399999999996C332.06600000000003 315.51199999999994 329.645 314.01199999999994 326.994 314.01199999999994C324.34200000000004 314.01199999999994 321.92 315.51199999999994 320.74600000000004 317.88399999999996L289.6 380.80799999999994L219.949 390.90299999999996C217.324 391.28299999999996 215.144 393.11699999999996 214.32500000000002 395.631C213.50500000000002 398.145 214.18800000000002 400.905 216.08800000000002 402.751L266.487 451.73299999999995L254.591 520.891C254.143 523.496 255.217 526.131 257.362 527.684C259.50600000000003 529.2389999999999 262.351 529.444 264.69800000000004 528.213L326.994 495.56199999999995L389.288 528.213C390.307 528.7479999999999 391.421 529.01 392.529 529.01C392.536 529.01 392.542 529.01 392.548 529.01C392.548 529.01 392.548 529.01 392.549 529.01C396.397 529.01 399.51599999999996 525.901 399.51599999999996 522.064C399.51599999999996 521.48 399.44399999999996 520.915 399.30899999999997 520.3739999999999L387.49999999999994 451.7299999999999L437.89599999999996 402.7499999999999C439.79499999999996 400.90699999999987 440.47799999999995 398.14499999999987 439.65799999999996 395.63099999999986ZM375.151 444.332C373.509 445.929 372.759 448.228 373.148 450.48199999999997L383.278 509.36699999999996L330.236 481.566C328.207 480.503 325.782 480.503 323.753 481.566L270.711 509.36699999999996L280.841 450.48199999999997C281.23 448.22799999999995 280.48 445.92999999999995 278.838 444.332L235.92300000000003 402.627L295.23100000000005 394.031C297.50000000000006 393.70300000000003 299.46200000000005 392.281 300.47600000000006 390.231L326.99600000000004 336.654L353.516 390.231C354.531 392.28 356.492 393.703 358.761 394.031L418.06500000000005 402.627Z " fill="#f0f0f0" fill-opacity="1" transform="matrix(1,0,0,1,-213,-314)"></path></svg>