<svg id="SvgjsSvg1020" xmlns="http://www.w3.org/2000/svg" version="1.1" xmlns:xlink="http://www.w3.org/1999/xlink" xmlns:svgjs="http://svgjs.com/svgjs" width="229" height="191" viewBox="0 0 229 191"><title>mega (up) копия 3</title><desc>Created with Avocode.</desc><defs id="SvgjsDefs1021"></defs><path id="SvgjsPath1022" d="M761.738 359.798C759.657 358.241 756.8050000000001 358.263 754.754 359.839L694.74 405.651L655.332 316.648C653.465 312.45500000000004 646.602 312.45500000000004 644.732 316.648L604.8779999999999 406.673L545.3889999999999 359.886C543.3259999999999 358.278 540.4519999999999 358.233 538.3589999999999 359.78400000000005C536.2589999999999 361.321 535.463 364.10200000000003 536.406 366.52600000000007L577.741 473.3280000000001C578.597 475.5600000000001 580.75 477.0230000000001 583.138 477.0230000000001L716.922 477.0230000000001C719.32 477.0230000000001 721.462 475.56000000000006 722.323 473.3280000000001L763.653 366.52600000000007C764.597 364.1070000000001 763.8050000000001 361.3520000000001 761.738 359.79800000000006ZM650.037 333.302L685.2750000000001 412.884L648.4760000000001 440.971L614.2870000000001 414.09000000000003ZM716.817 455.505L699.567 416.53499999999997L745.447 381.508ZM600.044 417.606L583.27 455.505L554.8389999999999 382.052ZM679.196 465.115L657.881 448.348L690.072 423.76L708.527 465.432L679.5730000000001 465.432C679.4670000000001 465.333 679.3320000000001 465.22 679.1960000000001 465.115ZM591.54 465.446L609.452 424.997L638.969 448.212L616.3950000000001 465.44599999999997ZM635.488 465.446L648.3710000000001 455.619L660.868 465.446ZM722.119 497.697C722.119 500.895 719.524 503.489 716.326 503.489L583.741 503.489C580.543 503.489 577.948 500.895 577.948 497.697C577.948 494.499 580.543 491.90500000000003 583.741 491.90500000000003L716.326 491.90500000000003C719.5310000000001 491.90500000000003 722.119 494.499 722.119 497.697Z " fill="#e5eef3" fill-opacity="1" transform="matrix(1,0,0,1,-536,-313)"></path></svg>