<?xml version="1.0" encoding="utf-8"?>
<!-- Generator: Adobe Illustrator 21.1.0, SVG Export Plug-In . SVG Version: 6.00 Build 0)  -->
<svg version="1.1" id="Layer_1" xmlns="http://www.w3.org/2000/svg" xmlns:xlink="http://www.w3.org/1999/xlink" x="0px" y="0px"
	 viewBox="0 0 1860 2520" enable-background="new 0 0 1860 2520" xml:space="preserve">
<rect x="-1170" y="210" display="none" fill="#F2F2F2" width="4200" height="2100"/>
<rect x="-2850" display="none" fill="#F2F2F2" width="7560" height="2520"/>
<rect y="-2520" display="none" fill="#F2F2F2" width="1860" height="7560"/>
<rect y="210" display="none" fill="#F2F2F2" width="1860" height="2100"/>
<rect x="180" y="210" display="none" fill="#F2F2F2" width="1500" height="2100"/>
<linearGradient id="SVGID_1_" gradientUnits="userSpaceOnUse" x1="-120" y1="-5720" x2="1980" y2="-5720" gradientTransform="matrix(1 0 0 1 0 6980)">
	<stop  offset="3.658725e-02" style="stop-color:#F2F2F2"/>
	<stop  offset="0.5" style="stop-color:#F8F8F8"/>
	<stop  offset="1" style="stop-color:#F2F2F2"/>
</linearGradient>
<rect x="-120" y="210" display="none" fill="url(#SVGID_1_)" width="2100" height="2100"/>
<rect x="6" y="336" display="none" fill="#F2F2F2" width="1848" height="1848"/>
<g>
	<g>
		<path fill="#FAFAFA" d="M930,564c-152.4,0-276,123.6-276,276s123.6,276,276,276s276-123.6,276-276S1082.4,564,930,564z M930,1104
			c-145.8,0-264-118.2-264-264s118.2-264,264-264s264,118.2,264,264S1075.8,1104,930,1104z"/>
		<path display="none" fill="#FAFAFA" d="M930,588c-139.2,0-252,112.8-252,252s112.8,252,252,252s252-112.8,252-252
			S1069.2,588,930,588z M930,1086c-135.9,0-246-110.1-246-246s110.1-246,246-246s246,110.1,246,246S1065.9,1086,930,1086z"/>
		<path display="none" fill="#FAFAFA" d="M930,594c-135.9,0-246,110.1-246,246s110.1,246,246,246s246-110.1,246-246
			S1065.9,594,930,594z M930,1074c-129.2,0-234-104.8-234-234s104.8-234,234-234s234,104.8,234,234S1059.2,1074,930,1074z"/>
		<path display="none" fill="#FAFAFA" d="M930,606c-129.2,0-234,104.8-234,234s104.8,234,234,234s234-104.8,234-234
			S1059.2,606,930,606z M930,1068c-125.9,0-228-102.1-228-228s102.1-228,228-228s228,102.1,228,228S1055.9,1068,930,1068z"/>
		<path fill="#FAFAFA" d="M930,624c-119.3,0-216,96.7-216,216s96.7,216,216,216s216-96.7,216-216S1049.3,624,930,624z M930,1044
			c-112.6,0-204-91.3-204-204s91.4-204,204-204s204,91.3,204,204S1042.6,1044,930,1044z"/>
		<path display="none" fill="#FAFAFA" d="M930,384c-251.9,0-456,204.2-456,456s204.1,456,456,456s456-204.1,456-456
			S1181.9,384,930,384z M930,1284c-245.2,0-444-198.8-444-444s198.8-444,444-444s444,198.8,444,444S1175.2,1284,930,1284z"/>
		<path display="none" fill="#FAFAFA" d="M930,408c-238.6,0-432,193.4-432,432s193.4,432,432,432s432-193.4,432-432
			S1168.6,408,930,408z M930,1266c-235.3,0-426-190.7-426-426s190.7-426,426-426s426,190.7,426,426S1165.3,1266,930,1266z"/>
		<path fill="#FAFAFA" d="M930,414c-235.3,0-426,190.7-426,426s190.7,426,426,426s426-190.7,426-426S1165.3,414,930,414z M930,1254
			c-228.6,0-414-185.4-414-414s185.4-414,414-414s414,185.4,414,414S1158.6,1254,930,1254z"/>
		<path display="none" fill="#FAFAFA" d="M930,426c-228.6,0-414,185.4-414,414s185.4,414,414,414s414-185.4,414-414
			S1158.6,426,930,426z M930,1248c-225.3,0-408-182.7-408-408s182.7-408,408-408s408,182.7,408,408S1155.3,1248,930,1248z"/>
		<path display="none" fill="#FAFAFA" d="M930,444c-218.7,0-396,177.3-396,396s177.3,396,396,396s396-177.3,396-396
			S1148.7,444,930,444z M930,1224c-212.1,0-384-171.9-384-384s171.9-384,384-384s384,171.9,384,384S1142.1,1224,930,1224z"/>
	</g>
	<rect x="-2850" y="1464" fill="#FAFAFA" width="7560" height="12"/>
	<rect x="-2850" y="624" fill="none" width="7560" height="432"/>
	<rect x="-2850" y="1044" fill="#FAFAFA" width="7560" height="12"/>
	
		<rect x="-3031.8" y="729" transform="matrix(0.5 -0.866 0.866 0.5 -262.5252 1015.3842)" fill="#FAFAFA" width="7559.8" height="12"/>
	
		<rect x="1105.9" y="-3045" transform="matrix(0.866 -0.5 0.5 0.866 -218.5211 654.417)" fill="#FAFAFA" width="12" height="7559.8"/>
</g>
<path fill="#F2F2F2" d="M930,1164c-53,0-96,43-96,96s43,96,96,96s96-43,96-96S983,1164,930,1164z"/>
<path fill="#FAFAFA" d="M930,1164c-53,0-96,43-96,96s43,96,96,96s96-43,96-96S983,1164,930,1164z M930,1344c-46.3,0-84-37.7-84-84
	s37.7-84,84-84s84,37.7,84,84S976.3,1344,930,1344z"/>
</svg>
