<svg id="SvgjsSvg1385" xmlns="http://www.w3.org/2000/svg" version="1.1" xmlns:xlink="http://www.w3.org/1999/xlink" xmlns:svgjs="http://svgjs.com/svgjs" width="32" height="32" viewBox="0 0 32 32"><title>1</title><desc>Created with Avocode.</desc><defs id="SvgjsDefs1386"><filter id="SvgjsFilter1388" width="200%" height="200%" x="-50%" y="-50%"><feMorphology id="SvgjsFeMorphology1389" operator="dilate" radius="0" result="SvgjsFeMorphology1389Out" in="SourceGraphic"></feMorphology><feOffset id="SvgjsFeOffset1390" dx="0.5" dy="0.9" result="SvgjsFeOffset1390Out" in="SvgjsFeMorphology1389Out"></feOffset><feGaussianBlur id="SvgjsFeGaussianBlur1391" stdDeviation="0.5 " result="SvgjsFeGaussianBlur1391Out" in="SvgjsFeOffset1390Out"></feGaussianBlur><feComposite id="SvgjsFeComposite1392" in="SvgjsFeGaussianBlur1391Out" in2="SourceAlpha" operator="out" result="SvgjsFeComposite1392Out"></feComposite></filter><filter id="SvgjsFilter1395" width="200%" height="200%" x="-50%" y="-50%"><feMorphology id="SvgjsFeMorphology1396" operator="dilate" radius="0" result="SvgjsFeMorphology1396Out" in="SourceGraphic"></feMorphology><feOffset id="SvgjsFeOffset1397" dx="0.5" dy="0.9" result="SvgjsFeOffset1397Out" in="SvgjsFeMorphology1396Out"></feOffset><feGaussianBlur id="SvgjsFeGaussianBlur1398" stdDeviation="0.5 " result="SvgjsFeGaussianBlur1398Out" in="SvgjsFeOffset1397Out"></feGaussianBlur><feComposite id="SvgjsFeComposite1399" in="SvgjsFeGaussianBlur1398Out" in2="SourceAlpha" operator="out" result="SvgjsFeComposite1399Out"></feComposite></filter></defs><path id="SvgjsPath1387" d="M610 759C618.284 759 625 765.716 625 774C625 782.284 618.284 789 610 789C601.716 789 595 782.284 595 774C595 765.716 601.716 759 610 759Z " fill="#000202" fill-opacity="0.3" filter="url(#SvgjsFilter1388)" transform="matrix(1,0,0,1,-594.5,-758.9)"></path><path id="SvgjsPath1393" d="M610 759C618.284 759 625 765.716 625 774C625 782.284 618.284 789 610 789C601.716 789 595 782.284 595 774C595 765.716 601.716 759 610 759Z " fill="#347c9f" fill-opacity="1" transform="matrix(1,0,0,1,-594.5,-758.9)"></path><path id="SvgjsPath1394" d="M610.778 782.591C613.0210000000001 782.223 616.601 780.261 618.338 780.261L617.73 777.679C617.544 777.491 617.3240000000001 777.333 617.07 777.204C615.796 776.5619999999999 614.4780000000001 776.0279999999999 613.1460000000001 775.524C613.046 775.488 612.927 775.413 612.8860000000001 775.326C612.7780000000001 775.089 612.7020000000001 774.839 612.623 774.59C612.575 774.431 612.533 774.282 612.356 774.205C612.308 774.1840000000001 612.265 774.0930000000001 612.265 774.034C612.275 773.457 612.139 772.852 612.574 772.349C612.587 772.3340000000001 612.593 772.311 612.601 772.293C612.836 771.788 612.876 771.211 613.204 770.741C613.212 770.73 613.2139999999999 770.715 613.2159999999999 770.701C613.2539999999999 770.3430000000001 613.2929999999999 769.985 613.3239999999998 769.6270000000001C613.3269999999999 769.5820000000001 613.2879999999999 769.503 613.2489999999998 769.489C613.0689999999998 769.426 613.0779999999997 769.284 613.0789999999998 769.1410000000001C613.0789999999998 768.441 613.0789999999998 768.339 613.0779999999999 767.6390000000001C613.0779999999999 767.2310000000001 612.9569999999999 766.8690000000001 612.6449999999999 766.5920000000001C612.2889999999999 766.2780000000001 611.9229999999999 765.9730000000001 611.5579999999999 765.6690000000001C611.3819999999998 765.522 611.3659999999999 765.4090000000001 611.5309999999998 765.2470000000001C611.6049999999998 765.1750000000001 611.6979999999999 765.124 611.7829999999998 765.0640000000001C611.7639999999998 765.0360000000001 611.7459999999998 765.0090000000001 611.7269999999997 764.9820000000001C611.6169999999997 764.9820000000001 611.5049999999998 764.9680000000001 611.3989999999998 764.984C610.9939999999998 765.048 610.5879999999997 765.104 610.1909999999998 765.196C609.4329999999998 765.371 608.6969999999998 765.606 608.0819999999998 766.106C607.6619999999998 766.447 607.3259999999998 766.845 607.2829999999998 767.408C607.2619999999998 767.703 607.2649999999998 767.999 607.2619999999998 768.294C607.2589999999998 768.776 607.2669999999998 768.659 607.2559999999999 769.139C607.2539999999999 769.217 607.2099999999998 769.346 607.1539999999999 769.364C606.9569999999999 769.427 606.9509999999999 769.551 606.9769999999999 769.7130000000001C606.9969999999998 769.825 606.9829999999998 769.941 607.0069999999998 770.0500000000001C607.0749999999998 770.3510000000001 607.1479999999998 770.6510000000001 607.2359999999999 770.9480000000001C607.3009999999999 771.1680000000001 607.4279999999999 771.3760000000001 607.4639999999998 771.6010000000001C607.5339999999999 772.0480000000001 607.7039999999998 772.4380000000001 608.0099999999999 772.7760000000001C608.0599999999998 772.8320000000001 608.0989999999999 772.926 608.0929999999998 773.0000000000001C608.0689999999998 773.3440000000002 608.0339999999999 773.6880000000001 607.9859999999999 774.0310000000001C607.9759999999999 774.099 607.9049999999999 774.1980000000001 607.8469999999999 774.21C607.6139999999999 774.258 607.5789999999998 774.4340000000001 607.5229999999999 774.6120000000001C607.4499999999999 774.8480000000001 607.3729999999999 775.0830000000001 607.2799999999999 775.3100000000001C607.2509999999999 775.3810000000001 607.1779999999999 775.456 607.1079999999998 775.4870000000001C606.6939999999998 775.6630000000001 606.2729999999998 775.8270000000001 605.8569999999999 775.999C605.4139999999999 776.182 604.9659999999999 776.3580000000001 604.5339999999999 776.5600000000001C604.0879999999999 776.7700000000001 603.6549999999999 777.0070000000001 603.2179999999998 777.2370000000001C602.9609999999999 777.373 602.7209999999999 777.523 602.5199999999999 777.7090000000001L601.9119999999999 780.2600000000001C604.872 780.2600000000001 606.4179999999999 782.368 609.4979999999999 782.6280000000002Z " fill="#000202" fill-opacity="0.3" filter="url(#SvgjsFilter1395)" transform="matrix(1,0,0,1,-594.5,-758.9)"></path><path id="SvgjsPath1400" d="M610.778 782.591C613.0210000000001 782.223 616.601 780.261 618.338 780.261L617.73 777.679C617.544 777.491 617.3240000000001 777.333 617.07 777.204C615.796 776.5619999999999 614.4780000000001 776.0279999999999 613.1460000000001 775.524C613.046 775.488 612.927 775.413 612.8860000000001 775.326C612.7780000000001 775.089 612.7020000000001 774.839 612.623 774.59C612.575 774.431 612.533 774.282 612.356 774.205C612.308 774.1840000000001 612.265 774.0930000000001 612.265 774.034C612.275 773.457 612.139 772.852 612.574 772.349C612.587 772.3340000000001 612.593 772.311 612.601 772.293C612.836 771.788 612.876 771.211 613.204 770.741C613.212 770.73 613.2139999999999 770.715 613.2159999999999 770.701C613.2539999999999 770.3430000000001 613.2929999999999 769.985 613.3239999999998 769.6270000000001C613.3269999999999 769.5820000000001 613.2879999999999 769.503 613.2489999999998 769.489C613.0689999999998 769.426 613.0779999999997 769.284 613.0789999999998 769.1410000000001C613.0789999999998 768.441 613.0789999999998 768.339 613.0779999999999 767.6390000000001C613.0779999999999 767.2310000000001 612.9569999999999 766.8690000000001 612.6449999999999 766.5920000000001C612.2889999999999 766.2780000000001 611.9229999999999 765.9730000000001 611.5579999999999 765.6690000000001C611.3819999999998 765.522 611.3659999999999 765.4090000000001 611.5309999999998 765.2470000000001C611.6049999999998 765.1750000000001 611.6979999999999 765.124 611.7829999999998 765.0640000000001C611.7639999999998 765.0360000000001 611.7459999999998 765.0090000000001 611.7269999999997 764.9820000000001C611.6169999999997 764.9820000000001 611.5049999999998 764.9680000000001 611.3989999999998 764.984C610.9939999999998 765.048 610.5879999999997 765.104 610.1909999999998 765.196C609.4329999999998 765.371 608.6969999999998 765.606 608.0819999999998 766.106C607.6619999999998 766.447 607.3259999999998 766.845 607.2829999999998 767.408C607.2619999999998 767.703 607.2649999999998 767.999 607.2619999999998 768.294C607.2589999999998 768.776 607.2669999999998 768.659 607.2559999999999 769.139C607.2539999999999 769.217 607.2099999999998 769.346 607.1539999999999 769.364C606.9569999999999 769.427 606.9509999999999 769.551 606.9769999999999 769.7130000000001C606.9969999999998 769.825 606.9829999999998 769.941 607.0069999999998 770.0500000000001C607.0749999999998 770.3510000000001 607.1479999999998 770.6510000000001 607.2359999999999 770.9480000000001C607.3009999999999 771.1680000000001 607.4279999999999 771.3760000000001 607.4639999999998 771.6010000000001C607.5339999999999 772.0480000000001 607.7039999999998 772.4380000000001 608.0099999999999 772.7760000000001C608.0599999999998 772.8320000000001 608.0989999999999 772.926 608.0929999999998 773.0000000000001C608.0689999999998 773.3440000000002 608.0339999999999 773.6880000000001 607.9859999999999 774.0310000000001C607.9759999999999 774.099 607.9049999999999 774.1980000000001 607.8469999999999 774.21C607.6139999999999 774.258 607.5789999999998 774.4340000000001 607.5229999999999 774.6120000000001C607.4499999999999 774.8480000000001 607.3729999999999 775.0830000000001 607.2799999999999 775.3100000000001C607.2509999999999 775.3810000000001 607.1779999999999 775.456 607.1079999999998 775.4870000000001C606.6939999999998 775.6630000000001 606.2729999999998 775.8270000000001 605.8569999999999 775.999C605.4139999999999 776.182 604.9659999999999 776.3580000000001 604.5339999999999 776.5600000000001C604.0879999999999 776.7700000000001 603.6549999999999 777.0070000000001 603.2179999999998 777.2370000000001C602.9609999999999 777.373 602.7209999999999 777.523 602.5199999999999 777.7090000000001L601.9119999999999 780.2600000000001C604.872 780.2600000000001 606.4179999999999 782.368 609.4979999999999 782.6280000000002Z " fill="#ffffff" fill-opacity="1" transform="matrix(1,0,0,1,-594.5,-758.9)"></path></svg>