<svg id="SvgjsSvg1014" xmlns="http://www.w3.org/2000/svg" version="1.1" xmlns:xlink="http://www.w3.org/1999/xlink" xmlns:svgjs="http://svgjs.com/svgjs" width="116" height="169" viewBox="0 0 116 169"><title>Forma 1</title><desc>Created with Avocode.</desc><defs id="SvgjsDefs1015"></defs><path id="SvgjsPath1016" d="M447.182 650.938L447.182 619.252C447.182 595.957 428.26 577.0039999999999 405.00300000000004 577.0039999999999C381.74500000000006 577.0039999999999 362.82300000000004 595.9569999999999 362.82300000000004 619.252L362.82300000000004 650.938C354.103 650.938 347.00500000000005 658.047 347.00500000000005 666.781L347.00500000000005 730.1529999999999C347.00500000000005 738.8889999999999 354.10300000000007 745.9959999999999 362.82300000000004 745.9959999999999L447.182 745.9959999999999C455.90500000000003 745.9959999999999 463 738.8889999999999 463 730.1529999999999L463 666.781C463 658.0469999999999 455.905 650.938 447.182 650.938ZM452.455 730.153C452.455 733.067 450.087 735.434 447.18199999999996 735.434L362.823 735.434C359.919 735.434 357.54999999999995 733.067 357.54999999999995 730.153L357.54999999999995 666.7810000000001C357.54999999999995 663.8670000000001 359.919 661.5000000000001 362.823 661.5000000000001L447.18199999999996 661.5000000000001C450.08699999999993 661.5000000000001 452.455 663.8670000000001 452.455 666.7810000000001ZM373.368 619.252C373.368 601.776 387.555 587.5659999999999 405.003 587.5659999999999C422.447 587.5659999999999 436.638 601.776 436.638 619.252L436.638 650.938L373.368 650.938ZM415.548 703.748C415.548 709.575 410.821 714.3100000000001 405.003 714.3100000000001C399.18199999999996 714.3100000000001 394.45799999999997 709.575 394.45799999999997 703.748C394.45799999999997 699.849 396.592 696.481 399.72999999999996 694.6500000000001L399.72999999999996 682.6240000000001C399.72999999999996 679.7050000000002 402.09299999999996 677.3430000000002 405.003 677.3430000000002C407.912 677.3430000000002 410.275 679.7050000000002 410.275 682.6240000000001L410.275 694.6500000000001C413.416 696.4810000000001 415.548 699.849 415.548 703.748Z " fill="#f0f0f0" fill-opacity="1" transform="matrix(1,0,0,1,-347,-577)"></path></svg>