<?xml version="1.0" encoding="utf-8"?>
<!-- Generator: Adobe Illustrator 21.1.0, SVG Export Plug-In . SVG Version: 6.00 Build 0)  -->
<svg version="1.1" id="Layer_1" xmlns="http://www.w3.org/2000/svg" xmlns:xlink="http://www.w3.org/1999/xlink" x="0px" y="0px"
	 viewBox="0 0 7296 3008" style="enable-background:new 0 0 7296 3008;" xml:space="preserve">
<style type="text/css">
	.st0{display:none;}
	.st1{display:inline;fill:#FFCC00;}
	.st2{display:inline;fill:#5A5A5A;}
	.st3{display:none;fill:none;}
	.st4{fill:#F2F2F2;}
	.st5{display:none;fill:#F2F2F2;}
	.st6{fill:#FAFAFA;}
	.st7{display:none;fill:#FAFAFA;}
	.st8{fill:none;stroke:#FAFAFA;stroke-width:32;stroke-miterlimit:10;}
	.st9{display:none;fill:none;stroke:#FAFAFA;stroke-width:32;stroke-miterlimit:10;}
	.st10{fill:#FFFFFF;}
	.st11{fill:#DFDFDF;}
	.st12{display:inline;fill:#DFDFDF;}
	.st13{fill:#FFCC00;}
	.st14{fill:#FFE620;}
	.st15{fill:#5A5A5A;}
	.st16{fill:#888888;}
</style>
<g class="st0">
	<rect x="2624" y="1440" class="st1" width="2048" height="128"/>
	<rect x="2624" y="1600" class="st1" width="2048" height="128"/>
	<rect x="2624" y="1280" class="st1" width="2048" height="128"/>
	<rect x="2624" y="1120" class="st1" width="2048" height="128"/>
	<rect x="2624" y="2080" class="st1" width="2048" height="128"/>
	<rect x="2624" y="2240" class="st1" width="2048" height="128"/>
	<rect x="2624" y="2400" class="st1" width="2048" height="128"/>
	<rect x="2624" y="2560" class="st1" width="2048" height="128"/>
	<rect x="2624" y="1920" class="st1" width="2048" height="128"/>
	<rect x="2624" y="1760" class="st1" width="2048" height="128"/>
	<rect x="2624" y="960" class="st1" width="2048" height="128"/>
	<rect x="2624" y="800" class="st1" width="2048" height="128"/>
	<rect x="2624" y="640" class="st1" width="2048" height="128"/>
	<rect x="2624" y="480" class="st1" width="2048" height="128"/>
	<rect x="2624" y="320" class="st1" width="2048" height="128"/>
</g>
<path class="st0" d="M3531.8,1280.8c21.2-21.2,49.3-32.8,79.2-32.8h36.5h128c29.9,0,58,11.7,79.2,32.8l127.2,127.2l32,32h22.6H4672
	v-32h-644.9l-149.8-149.8c-27.2-27.2-63.3-42.2-101.8-42.2h-128H3611h-91c-38.5,0-74.6,15-101.8,42.2L3268.4,1408H2624v32h635h22.6
	l32-32l127.2-127.2c21.2-21.2,49.3-32.8,79.2-32.8h0.5c-3.9,3.2-7.7,6.6-11.3,10.2l-30.9,30.9c-15.2,15.2-23.5,35.2-23.5,56.6
	s8.4,41.4,23.5,56.6c15.2,15.2,35.2,23.5,56.6,23.5s41.4-8.4,56.6-23.5l26.2-26.2H3769l3.6,3.5l169.7,169.7l0,0l0,0
	c5.4,5.4,8.6,12.4,9.3,20.1c0.3,3.6,0,7.2-0.9,10.7l0,0c-1.4,5.5-4.3,10.5-8.3,14.5c-12.5,12.5-32.8,12.5-45.3,0l-101.8-101.8
	c-6.2-6.2-16.4-6.2-22.6,0s-6.2,16.4,0,22.6l101.8,101.8c12.5,12.5,12.5,32.8,0,45.3c-6,6-14.1,9.3-22.6,9.3s-16.6-3.3-22.6-9.3
	l-101.8-101.8c-6.2-6.2-16.4-6.2-22.6,0s-6.2,16.4,0,22.6l101.5,101.7c6,6,9.3,14.1,9.3,22.6s-3.3,16.6-9.3,22.6
	c-12.5,12.5-32.8,12.5-45.3,0l-65.8-65.8c-0.6-0.7-1.3-1.4-2-2.1s-1.4-1.3-2.1-2l-31.9-31.9c-4.6-4.6-11.2-5.8-16.9-3.7
	c-2.6-11.1-8.3-21.7-17-30.3c-12.1-12.1-28.1-18.7-45.3-18.7c-1.4,0-2.7,0.1-4.1,0.1c0.1-1.3,0.1-2.7,0.1-4.1
	c0-17.1-6.6-33.2-18.7-45.3c-13.5-13.5-31.6-19.7-49.3-18.6c1.1-17.7-5.1-35.8-18.6-49.3c-12.1-12.1-28.1-18.7-45.3-18.7
	s-33.2,6.6-45.3,18.7l-67.9,67.9c-10.7,10.7-17.3,25-18.5,40.1c0,0.4-0.1,0.9-0.1,1.3H2624v32h694.9c3.1,6.3,7.2,12.1,12.3,17.1
	c12.1,12.1,28.1,18.7,45.3,18.7c1.4,0,2.7-0.1,4.1-0.1c-1.1,17.7,5.1,35.8,18.6,49.3c12.1,12.1,28.1,18.7,45.3,18.7
	c1.4,0,2.7-0.1,4.1-0.1c-0.1,1.3-0.1,2.7-0.1,4.1c0,17.1,6.6,33.2,18.7,45.3c12.5,12.5,28.9,18.7,45.3,18.7c1.4,0,2.7-0.1,4.1-0.1
	c-1.1,17.7,5.1,35.8,18.6,49.3c12.4,12.4,28.8,18.7,45.2,18.7s32.8-6.2,45.3-18.7l22.6-22.6l22.5,22.6l0,0l0,0
	c12.1,12.1,28.1,18.7,45.3,18.7s33.2-6.6,45.3-18.7c13.5-13.5,19.7-31.6,18.6-49.3c1.3,0.1,2.7,0.1,4.1,0.1
	c17.1,0,33.2-6.6,45.3-18.7s18.7-28.1,18.7-45.3c0-1.4-0.1-2.7-0.1-4.1c1.3,0.1,2.7,0.1,4.1,0.1c17.1,0,33.2-6.6,45.3-18.7
	s18.7-28.1,18.7-45.3c0-1.4-0.1-2.7-0.1-4.1c1.4,0.1,2.7,0.1,4.1,0.1c16.4,0,32.7-6.2,45.2-18.7c5-5,9.2-10.8,12.3-17.2H4672v-32
	h-688.6c0-0.4,0-0.9-0.1-1.3l0,0c-1.2-15.2-7.8-29.4-18.5-40.1l0,0l-169.7-169.7l0,0l0,0l-8.3-8.2c-0.1-0.1-0.2-0.2-0.4-0.3
	c-0.3-0.2-0.5-0.5-0.8-0.7c-0.2-0.2-0.4-0.3-0.6-0.4c-0.2-0.2-0.4-0.3-0.7-0.5c-0.2-0.2-0.5-0.3-0.7-0.4s-0.4-0.3-0.6-0.4
	s-0.5-0.2-0.7-0.4c-0.2-0.1-0.5-0.2-0.7-0.3c-0.2-0.1-0.5-0.2-0.7-0.3s-0.5-0.2-0.7-0.3c-0.2-0.1-0.5-0.1-0.8-0.2s-0.5-0.1-0.8-0.2
	s-0.6-0.1-0.8-0.1s-0.5-0.1-0.7-0.1c-0.4,0-0.7,0-1.1-0.1c-0.2,0-0.3,0-0.5,0H3611c-0.5,0-1.1,0-1.6,0.1c-0.2,0-0.5,0.1-0.7,0.1
	c-0.3,0-0.6,0.1-0.9,0.1c-0.3,0.1-0.5,0.1-0.8,0.2c-0.2,0.1-0.5,0.1-0.7,0.2c-0.3,0.1-0.5,0.2-0.7,0.3s-0.5,0.2-0.7,0.3
	c-0.2,0.1-0.5,0.2-0.7,0.3s-0.5,0.2-0.7,0.4c-0.2,0.1-0.4,0.3-0.6,0.4s-0.5,0.3-0.7,0.4c-0.2,0.2-0.5,0.3-0.7,0.5
	c-0.2,0.1-0.4,0.3-0.6,0.4c-0.4,0.3-0.8,0.7-1.2,1.1l-30.9,30.9c-9.1,9.1-21.2,14.1-33.9,14.1s-24.8-5-33.9-14.1
	s-14.1-21.2-14.1-33.9s5-24.8,14.1-33.9L3531.8,1280.8z M3376.5,1603.8c-8.6,0-16.6-3.3-22.7-9.4c-4-4-6.9-8.9-8.3-14.4
	c-0.9-3.5-1.2-7.1-0.9-10.7c0.6-7.7,3.8-14.7,9.3-20.1l67.9-67.9c6-6,14.1-9.3,22.6-9.3c8.6,0,16.6,3.3,22.6,9.3
	c12.5,12.5,12.5,32.8,0,45.3l-67.9,67.9C3393.1,1600.5,3385,1603.8,3376.5,1603.8z M3444.4,1671.7c-8.6,0-16.6-3.3-22.6-9.3l0,0
	c-12.5-12.5-12.5-32.8,0-45.3l67.9-67.9l0,0c12.5-12.5,32.8-12.5,45.3,0c6,6,9.3,14.1,9.3,22.6s-3.3,16.6-9.3,22.6l-67.9,67.9
	C3461,1668.4,3452.9,1671.7,3444.4,1671.7z M3534.9,1730.3c-12.5,12.5-32.8,12.5-45.3,0c-6-6-9.3-14.1-9.3-22.6s3.3-16.6,9.3-22.6
	l67.9-67.9c6-6,14.1-9.3,22.6-9.3s16.6,3.3,22.6,9.3c12.5,12.5,12.5,32.8,0,45.3L3534.9,1730.3L3534.9,1730.3z M3637.7,1763.3
	c-0.3,0.3-0.7,0.6-1,0.9s-0.7,0.7-1,1.1l-32.9,32.9c-12.5,12.5-32.9,12.5-45.3,0c-12.5-12.5-12.5-32.8,0-45.3l67.9-67.9
	c6-6,14.1-9.3,22.6-9.3c7.9,0,15.3,2.8,21.2,8l2.9,2.9c5.1,5.8,8,13.3,8,21.2c0,8.6-3.3,16.6-9.3,22.6L3637.7,1763.3z
	 M3738.5,1798.2c-6,6-14.1,9.3-22.6,9.3s-16.6-3.3-22.6-9.3l0,0l-22.5-22.6l22.7-22.7c8.1-8.1,13.7-17.9,16.5-28.6l28.6,28.6
	C3751,1765.4,3751,1785.7,3738.5,1798.2z"/>
<g class="st0">
	<rect x="2624" y="2080" class="st1" width="2048" height="128"/>
	<rect x="2624" y="2240" class="st1" width="2048" height="128"/>
	<path class="st1" d="M3783.8,1771.6c-1.4,0-2.7-0.1-4.1-0.1c1.1,17.7-5.1,35.8-18.6,49.3c-12.1,12.1-28.1,18.7-45.3,18.7
		s-33.2-6.6-45.3-18.7l0,0l0,0l-22.5-22.6l-22.6,22.6c-12.5,12.4-28.9,18.7-45.3,18.7s-32.8-6.2-45.2-18.7
		c-13.5-13.5-19.7-31.6-18.6-49.3c-1.4,0.1-2.7,0.1-4.1,0.1c-12.9,0-25.8-3.9-36.8-11.6H2624v128h2048v-128h-851.4
		C3809.9,1767.5,3797.1,1771.6,3783.8,1771.6z"/>
	<rect x="2624" y="1920" class="st1" width="2048" height="128"/>
	<polygon class="st1" points="3396.4,1280 2624,1280 2624,1408 3268.4,1408 	"/>
	<rect x="2624" y="2400" class="st1" width="2048" height="128"/>
	<path class="st1" d="M3448.3,1707.7c0-1.4,0.1-2.7,0.1-4.1c-1.3,0.1-2.7,0.1-4.1,0.1c-17.1,0-33.2-6.6-45.3-18.7
		c-13.5-13.5-19.7-31.6-18.6-49.3c-1.3,0.1-2.7,0.1-4.1,0.1c-17.1,0-33.2-6.6-45.3-18.7c-5-5-9.2-10.8-12.3-17.1H2624v128h827.6
		C3449.4,1721.5,3448.3,1714.7,3448.3,1707.7z"/>
	<polygon class="st1" points="4027.1,1408 4672,1408 4672,1280 3899.1,1280 	"/>
	<rect x="2624" y="640" class="st1" width="2048" height="128"/>
	<path class="st1" d="M3964.8,1617.2c-12.4,12.4-28.8,18.7-45.2,18.7c-1.4,0-2.7-0.1-4.1-0.1c0.1,1.3,0.1,2.7,0.1,4.1
		c0,17.1-6.6,33.2-18.7,45.3c-12.1,12.1-28.1,18.7-45.3,18.7c-1.4,0-2.7-0.1-4.1-0.1c0.1,1.3,0.1,2.7,0.1,4.1c0,7-1.1,13.9-3.3,20.3
		H4672V1600h-694.9C3974,1606.4,3969.8,1612.2,3964.8,1617.2z"/>
	<rect x="2624" y="480" class="st1" width="2048" height="128"/>
	<rect x="2624" y="800" class="st1" width="2048" height="128"/>
	<rect x="2624" y="960" class="st1" width="2048" height="128"/>
	<path class="st1" d="M2624,1248h805.5c25.6-20.7,57.2-32,90.5-32h91h36.5h128c33.3,0,65,11.3,90.5,32h806v-128H2624V1248z"/>
</g>
<g class="st0">
	<path class="st2" d="M3467,1481.3c-6-6-14.1-9.3-22.6-9.3c-8.6,0-16.6,3.3-22.6,9.3l-67.9,67.9c-5.4,5.4-8.6,12.4-9.3,20.1
		c-0.3,3.6,0,7.2,0.9,10.7c1.4,5.5,4.3,10.5,8.3,14.4c6.1,6.1,14.1,9.4,22.7,9.4s16.6-3.3,22.6-9.3l67.9-67.9
		C3479.5,1514.1,3479.5,1493.8,3467,1481.3z"/>
	<path class="st2" d="M3602.8,1798.2l32.9-32.9c0.3-0.4,0.6-0.7,1-1.1c0.3-0.3,0.7-0.6,1-0.9l33-33c6-6,9.3-14.1,9.3-22.6
		c0-7.9-2.8-15.3-8-21.2l-2.9-2.9c-5.8-5.1-13.3-8-21.2-8c-8.6,0-16.6,3.3-22.6,9.3l-67.9,67.9c-12.5,12.5-12.5,32.8,0,45.3
		C3570,1810.6,3590.3,1810.6,3602.8,1798.2z"/>
	<path class="st2" d="M3534.9,1730.3L3534.9,1730.3l67.9-67.9c12.5-12.5,12.5-32.8,0-45.3c-6-6-14.1-9.3-22.6-9.3
		s-16.6,3.3-22.6,9.3l-67.9,67.9c-6,6-9.3,14.1-9.3,22.6s3.3,16.6,9.3,22.6C3502.1,1742.8,3522.4,1742.8,3534.9,1730.3z"/>
	<path class="st2" d="M3444.4,1671.7c8.6,0,16.6-3.3,22.6-9.3l67.9-67.9c6-6,9.3-14.1,9.3-22.6s-3.3-16.6-9.3-22.6
		c-12.5-12.5-32.8-12.5-45.3,0l0,0l-67.9,67.9c-12.5,12.5-12.5,32.8,0,45.3l0,0C3427.7,1668.4,3435.8,1671.7,3444.4,1671.7z"/>
	<path class="st2" d="M3312.7,1566.7c1.2-15.2,7.8-29.4,18.5-40.1l67.9-67.9c12.1-12.1,28.1-18.7,45.3-18.7s33.2,6.6,45.3,18.7
		c13.5,13.5,19.7,31.6,18.6,49.3c17.7-1.1,35.8,5.1,49.3,18.6c12.1,12.1,18.7,28.1,18.7,45.3c0,1.4-0.1,2.7-0.1,4.1
		c1.3-0.1,2.7-0.1,4.1-0.1c17.1,0,33.2,6.6,45.3,18.7c8.7,8.7,14.3,19.2,17,30.3c5.7-2.1,12.4-0.9,16.9,3.7l31.9,31.9
		c0.7,0.6,1.4,1.3,2.1,2s1.3,1.4,2,2.1l65.8,65.8c12.5,12.5,32.8,12.5,45.3,0c6-6,9.3-14.1,9.3-22.6s-3.3-16.6-9.3-22.6
		l-101.8-101.8c-6.2-6.2-6.2-16.4,0-22.6s16.4-6.2,22.6,0l101.6,101.6c6,6,14.1,9.3,22.6,9.3s16.6-3.3,22.6-9.3
		c12.5-12.5,12.5-32.8,0-45.3l-101.8-101.8c-6.2-6.2-6.2-16.4,0-22.6s16.4-6.2,22.6,0l101.8,101.8c12.5,12.5,32.8,12.5,45.3,0
		c4-4,6.9-9,8.3-14.5l0,0c0.9-3.5,1.2-7.1,0.9-10.7c-0.6-7.7-3.8-14.7-9.3-20.1l0,0l0,0l-169.7-169.7l-3.6-3.5h-151.3l-26.2,26.2
		c-15.2,15.2-35.2,23.5-56.6,23.5s-41.4-8.4-56.6-23.5c-15.2-15.2-23.5-35.2-23.5-56.6s8.4-41.4,23.5-56.6l30.9-30.9
		c3.6-3.6,7.4-7,11.3-10.2h-0.5c-29.9,0-58,11.7-79.2,32.8L3313.6,1408l-32,32H3259h-635v128h688.6
		C3312.6,1567.6,3312.6,1567.1,3312.7,1566.7z"/>
	<path class="st2" d="M3693.2,1798.2c6,6,14.1,9.3,22.6,9.3s16.6-3.3,22.6-9.3c12.5-12.5,12.5-32.8,0-45.3l-28.6-28.6
		c-2.9,10.7-8.5,20.6-16.5,28.6l-22.7,22.7L3693.2,1798.2L3693.2,1798.2z"/>
	<path class="st2" d="M4013.9,1440l-32-32l-127.2-127.2c-21.2-21.2-49.3-32.8-79.2-32.8h-128H3611c-29.9,0-58,11.7-79.2,32.8
		l-30.9,30.9c-9.1,9.1-14.1,21.2-14.1,33.9c0,12.7,5,24.8,14.1,33.9s21.2,14.1,33.9,14.1s24.8-5,33.9-14.1l30.9-30.9
		c0.4-0.4,0.8-0.7,1.2-1.1c0.2-0.1,0.4-0.3,0.6-0.4c0.2-0.2,0.5-0.4,0.7-0.5c0.2-0.2,0.5-0.3,0.7-0.4s0.4-0.3,0.6-0.4
		s0.5-0.2,0.7-0.4c0.2-0.1,0.5-0.2,0.7-0.3s0.5-0.2,0.7-0.3c0.2-0.1,0.5-0.2,0.7-0.3s0.5-0.1,0.7-0.2c0.3-0.1,0.5-0.1,0.8-0.2
		s0.6-0.1,0.9-0.1c0.2,0,0.4-0.1,0.7-0.1c0.5-0.1,1.1-0.1,1.6-0.1h164.5c0.2,0,0.3,0,0.5,0c0.4,0,0.7,0,1.1,0.1
		c0.2,0,0.5,0.1,0.7,0.1c0.3,0,0.6,0.1,0.8,0.1c0.3,0.1,0.5,0.1,0.8,0.2s0.5,0.1,0.8,0.2s0.5,0.2,0.7,0.3c0.2,0.1,0.5,0.2,0.7,0.3
		c0.2,0.1,0.5,0.2,0.7,0.3c0.2,0.1,0.5,0.2,0.7,0.4c0.2,0.1,0.4,0.3,0.6,0.4s0.5,0.3,0.7,0.4c0.2,0.2,0.4,0.3,0.7,0.5
		c0.2,0.1,0.4,0.3,0.6,0.4c0.3,0.2,0.5,0.5,0.8,0.7c0.1,0.1,0.2,0.2,0.4,0.3l8.3,8.2l0,0l0,0l169.7,169.7l0,0
		c10.7,10.7,17.3,25,18.5,40.1l0,0c0,0.4,0.1,0.9,0.1,1.3H4672V1440h-635.5H4013.9z"/>
</g>
<polygon class="st3" points="3869.7,800 3426.3,800 2705.8,2048 4590.2,2048 "/>
<g class="st0">
	<path class="st1" d="M3520,1216h91h36.5h128c33.4,0,64.9,11.3,90.5,32h262.4l-73.9-128h-812.9l-73.9,128h261.9
		C3455.1,1227.3,3486.6,1216,3520,1216z"/>
	<polygon class="st1" points="3962.1,960 3333.9,960 3260,1088 4036,1088 	"/>
	<polygon class="st1" points="3869.7,800 3426.3,800 3352.4,928 3943.6,928 	"/>
	<polygon class="st1" points="3396.4,1280 3149.2,1280 3075.3,1408 3268.4,1408 	"/>
	<path class="st1" d="M4424,1760h-603.2c-10.7,7.5-23.4,11.5-36.7,11.5c-1.4,0-2.8,0-4.1-0.1c1.1,17.7-5.1,35.8-18.6,49.3
		c-12.1,12.1-28.1,18.7-45.3,18.7s-33.2-6.6-45.3-18.7l-22.5-22.6l-22.6,22.6c-12.5,12.5-28.9,18.7-45.3,18.7s-32.8-6.3-45.2-18.7
		c-13.5-13.5-19.7-31.6-18.6-49.3c-1.4,0-2.7,0.1-4.1,0.1c-12.9,0-25.7-3.8-36.7-11.5H2872l-73.9,128h1699.7L4424,1760z"/>
	<polygon class="st1" points="4516.3,1920 2779.7,1920 2705.8,2048 4590.2,2048 	"/>
	<path class="st1" d="M3710,1724.3c-0.3,1.2-0.7,2.5-1.1,3.7h4.8L3710,1724.3z"/>
	<path class="st1" d="M3448.5,1707.5c0-1.4,0-2.8,0.1-4.1c-1.4,0-2.7,0.1-4.1,0.1c-17.2,0-33.2-6.6-45.3-18.7
		c-13.5-13.5-19.7-31.6-18.6-49.3c-1.4,0-2.7,0.1-4.1,0.1c-17.2,0-33.2-6.6-45.3-18.7c-5-4.9-9.1-10.7-12.2-16.9h-354.6l-73.9,128
		h561.3C3449.6,1721.5,3448.5,1714.6,3448.5,1707.5z"/>
	<polygon class="st1" points="4027.1,1408 4220.7,1408 4146.8,1280 3899.1,1280 	"/>
	<path class="st1" d="M3965.3,1616.8c-12.5,12.5-28.8,18.7-45.2,18.7c-1.4,0-2.7,0-4.1-0.1c0,1.4,0.1,2.7,0.1,4.1
		c0,17.2-6.6,33.2-18.7,45.3c-12.1,12.1-28.2,18.7-45.3,18.7c-1.4,0-2.8,0-4.1-0.1c0,1.4,0.1,2.7,0.1,4.1c0,7.1-1.1,14-3.3,20.5
		h560.7l-73.9-128h-354.2C3974.3,1606.2,3970.2,1611.9,3965.3,1616.8z"/>
</g>
<rect class="st4" width="7296" height="3008"/>
<rect x="1824" class="st5" width="3648" height="3008"/>
<g>
	<rect y="2048" class="st6" width="7296" height="32"/>
	<polygon class="st6" points="5181.4,3008 3444.8,0 3407.8,0 5144.5,3008 	"/>
	<polygon class="st6" points="2151.5,3008 3888.2,0 3851.2,0 2114.6,3008 	"/>
	<path class="st7" d="M2687.3,928c-6.3,10.5-12.5,21.2-18.5,31.9l960.6,1663.9c6.2,0.1,12.4,0.2,18.6,0.2c6.1,0,12.3-0.1,18.4-0.2
		L2687.3,928z"/>
	<path class="st7" d="M4608.7,928l-979.1,1695.8c6.1,0.1,12.3,0.2,18.4,0.2c6.2,0,12.4-0.1,18.6-0.2l960.6-1663.9
		C4621.2,949.2,4615,938.5,4608.7,928z"/>
	<path class="st7" d="M2668.8,960h1958.5c-6-10.8-12.2-21.4-18.5-32H2687.3C2680.9,938.6,2674.8,949.2,2668.8,960z"/>
	<rect y="928" class="st6" width="7296" height="32"/>
	<polygon class="st6" points="5144.5,0 3407.8,3008 3444.8,3008 5181.4,0 	"/>
	<polygon class="st6" points="2114.6,0 3851.2,3008 3888.2,3008 2151.5,0 	"/>
	<path class="st6" d="M3648,368c-627.4,0-1136,508.6-1136,1136s508.6,1136,1136,1136s1136-508.6,1136-1136S4275.4,368,3648,368z
		 M3648,2608c-609.7,0-1104-494.3-1104-1104S3038.3,400,3648,400s1104,494.3,1104,1104S4257.7,2608,3648,2608z"/>
	<path class="st8" d="M3648,2064c-309.3,0-560-250.7-560-560s250.7-560,560-560s560,250.7,560,560S3957.3,2064,3648,2064z"/>
	<path class="st9" d="M3648,3184c-309.3,0-560-250.7-560-560s250.7-560,560-560s560,250.7,560,560S3957.3,3184,3648,3184z"/>
	<path class="st9" d="M3648,944c-309.3,0-560-250.7-560-560s250.7-560,560-560s560,250.7,560,560S3957.3,944,3648,944z"/>
	<path class="st10" d="M4055.3,2216.7c-52.9-52.9-114.5-94.4-183.1-123.4c-71-30-146.5-45.3-224.2-45.3s-153.2,15.2-224.2,45.3
		c-68.6,29-130.2,70.5-183.1,123.4c-52.9,52.9-94.4,114.5-123.4,183.1c-30,71-45.3,146.5-45.3,224.2s15.2,153.2,45.3,224.2
		c24.8,58.8,58.9,112.4,101.4,159.8h44c-49.6-49.8-88.6-107.8-115.9-172.2c-28.4-67.1-42.7-138.3-42.7-211.8s14.4-144.7,42.7-211.8
		c27.4-64.8,66.6-123,116.6-172.9c50-50,108.1-89.2,172.9-116.6c67.1-28.4,138.3-42.7,211.8-42.7s144.7,14.4,211.8,42.7
		c64.8,27.4,123,66.6,172.9,116.6s89.2,108.1,116.6,172.9c28.4,67.1,42.7,138.3,42.7,211.8s-14.4,144.7-42.7,211.8
		c-27.3,64.5-66.3,122.4-115.9,172.2h44c42.5-47.4,76.5-101,101.4-159.8c30-71,45.3-146.5,45.3-224.2s-15.2-153.2-45.3-224.2
		C4149.7,2331.2,4108.2,2269.6,4055.3,2216.7z"/>
	<path class="st10" d="M4149.3,172.2c28.4,67.1,42.7,138.3,42.7,211.8s-14.4,144.7-42.7,211.8c-27.4,64.8-66.6,123-116.6,172.9
		c-50,50-108.1,89.2-172.9,116.6c-67.1,28.4-138.3,42.7-211.8,42.7s-144.7-14.4-211.8-42.7c-64.8-27.4-123-66.6-172.9-116.6
		c-50-50-89.2-108.1-116.6-172.9c-28.4-67.1-42.7-138.3-42.7-211.8s14.4-144.7,42.7-211.8C3174,107.8,3213,49.8,3262.7,0h-44
		c-42.5,47.4-76.5,101-101.4,159.8c-30,71-45.3,146.5-45.3,224.2s15.2,153.2,45.3,224.2c29,68.6,70.5,130.2,123.4,183.1
		s114.5,94.4,183.1,123.4c71,30,146.5,45.3,224.2,45.3s153.2-15.2,224.2-45.3c68.6-29,130.2-70.5,183.1-123.4
		s94.4-114.5,123.4-183.1c30-71,45.3-146.5,45.3-224.2s-15.2-153.2-45.3-224.2C4153.9,101,4119.8,47.4,4077.4,0h-44
		C4083,49.8,4122,107.8,4149.3,172.2z"/>
	<path class="st8" d="M5102.9,664c154.6,267.8,62.9,610.3-205,765c-267.8,154.6-610.3,62.9-765-205c-154.6-267.8-62.9-610.3,205-765
		C4605.8,304.4,4948.3,396.2,5102.9,664z"/>
	<path class="st8" d="M3163,1784c154.6,267.8,62.9,610.3-205,765s-610.3,62.9-765-205s-62.9-610.3,205-765S3008.4,1516.2,3163,1784z
		"/>
	<path class="st8" d="M2193.1,664c154.6-267.8,497.1-359.6,765-205s359.6,497.1,205,765c-154.6,267.8-497.1,359.6-765,205
		S2038.4,931.8,2193.1,664z"/>
	<path class="st8" d="M4133,1784c154.6-267.8,497.1-359.6,765-205c267.8,154.6,359.6,497.1,205,765
		c-154.6,267.8-497.1,359.6-765,205C4070.1,2394.3,3978.3,2051.8,4133,1784z"/>
	<g>
		<path class="st10" d="M3424,384c0,123.7,100.3,224,224,224s224-100.3,224-224s-100.3-224-224-224S3424,260.3,3424,384z M3808,384
			c0,88.4-71.6,160-160,160s-160-71.6-160-160s71.6-160,160-160S3808,295.6,3808,384z"/>
		<path class="st10" d="M3712,384c0,35.3-28.7,64-64,64s-64-28.7-64-64s28.7-64,64-64S3712,348.7,3712,384z"/>
	</g>
	<g>
		<path class="st6" d="M3424,2624c0,123.7,100.3,224,224,224s224-100.3,224-224s-100.3-224-224-224S3424,2500.3,3424,2624z
			 M3808,2624c0,88.4-71.6,160-160,160s-160-71.6-160-160s71.6-160,160-160S3808,2535.6,3808,2624z"/>
		<path class="st6" d="M3712,2624c0,35.3-28.7,64-64,64s-64-28.7-64-64s28.7-64,64-64S3712,2588.7,3712,2624z"/>
	</g>
	<g>
		<path class="st6" d="M2790.1,2258c107.1-61.9,143.8-198.9,82-306c-61.9-107.1-198.9-143.8-306-82c-107.1,61.9-143.8,198.9-82,306
			C2545.9,2283.1,2682.9,2319.8,2790.1,2258z M2598.1,1925.4c76.6-44.2,174.4-18,218.6,58.6c44.2,76.6,18,174.4-58.6,218.6
			c-76.6,44.2-174.4,18-218.6-58.6S2521.5,1969.6,2598.1,1925.4z"/>
		<path class="st6" d="M2646.1,2008.6c30.6-17.6,69.8-7.1,87.4,23.4c17.6,30.6,7.1,69.8-23.4,87.4c-30.6,17.7-69.8,7.1-87.4-23.4
			C2605,2065.4,2615.5,2026.2,2646.1,2008.6z"/>
	</g>
	<g>
		<path class="st6" d="M4729.9,1138c107.1-61.8,143.8-198.9,82-306s-198.9-143.8-306-82s-143.8,198.9-82,306
			C4485.8,1163.1,4622.8,1199.8,4729.9,1138z M4537.9,805.4c76.6-44.2,174.4-18,218.6,58.6s18,174.4-58.6,218.6
			s-174.4,18-218.6-58.6C4435.2,947.4,4461.4,849.6,4537.9,805.4z"/>
		<path class="st6" d="M4585.9,888.6c30.6-17.7,69.8-7.1,87.4,23.4s7.1,69.8-23.4,87.4c-30.6,17.7-69.8,7.1-87.4-23.4
			C4544.9,945.4,4555.4,906.2,4585.9,888.6z"/>
	</g>
	<g>
		<path class="st6" d="M4729.9,1870c-107.1-61.8-244.1-25.1-306,82c-61.9,107.1-25.1,244.1,82,306c107.1,61.8,244.1,25.1,306-82
			S4837.1,1931.9,4729.9,1870z M4537.9,2202.6c-76.6-44.2-102.8-142-58.6-218.6c44.2-76.6,142-102.8,218.6-58.6
			c76.6,44.2,102.8,142,58.6,218.6C4712.3,2220.6,4614.5,2246.8,4537.9,2202.6z"/>
		<path class="st6" d="M4585.9,2119.4c-30.6-17.6-41.1-56.9-23.4-87.4c17.6-30.6,56.9-41.1,87.4-23.4c30.6,17.7,41.1,56.9,23.4,87.4
			S4616.5,2137.1,4585.9,2119.4z"/>
	</g>
	<g>
		<path class="st6" d="M2790.1,750c-107.1-61.8-244.1-25.1-306,82c-61.8,107.1-25.1,244.1,82,306c107.1,61.8,244.1,25.1,306-82
			C2933.9,948.9,2897.2,811.9,2790.1,750z M2598.1,1082.6c-76.6-44.2-102.8-142-58.6-218.6s142-102.8,218.6-58.6
			s102.8,142,58.6,218.6S2674.6,1126.8,2598.1,1082.6z"/>
		<path class="st6" d="M2646.1,999.4c-30.6-17.7-41.1-56.9-23.4-87.4c17.6-30.6,56.9-41.1,87.4-23.4s41.1,56.9,23.4,87.4
			C2715.8,1006.6,2676.6,1017.1,2646.1,999.4z"/>
	</g>
	<g>
		<path class="st11" d="M2528,1728c123.7,0,224-100.3,224-224s-100.3-224-224-224s-224,100.3-224,224S2404.3,1728,2528,1728z
			 M2528,1344c88.4,0,160,71.6,160,160s-71.6,160-160,160s-160-71.6-160-160S2439.6,1344,2528,1344z"/>
		<path class="st11" d="M2528,1440c35.3,0,64,28.7,64,64s-28.7,64-64,64s-64-28.7-64-64S2492.7,1440,2528,1440z"/>
	</g>
	<g>
		<path class="st10" d="M4768,1728c123.7,0,224-100.3,224-224s-100.3-224-224-224s-224,100.3-224,224S4644.3,1728,4768,1728z
			 M4768,1344c88.4,0,160,71.6,160,160s-71.6,160-160,160s-160-71.6-160-160S4679.6,1344,4768,1344z"/>
		<path class="st10" d="M4768,1440c35.3,0,64,28.7,64,64s-28.7,64-64,64s-64-28.7-64-64S4732.7,1440,4768,1440z"/>
	</g>
</g>
<g class="st0">
	<path class="st2" d="M3648,2400c-123.7,0-224,100.3-224,224s100.3,224,224,224s224-100.3,224-224S3771.7,2400,3648,2400z
		 M3648,2784c-88.4,0-160-71.6-160-160s71.6-160,160-160s160,71.6,160,160S3736.4,2784,3648,2784z"/>
	<circle class="st2" cx="3648" cy="2624" r="64"/>
	<path class="st2" d="M4064,2592h-162c1.3,10.5,2,21.2,2,32s-0.7,21.5-2,32h162v192h64v-192v-64v-192h-64V2592z"/>
	<path class="st2" d="M4320,2400c-88.4,0-160,71.6-160,160v32v64v192h64v-192h192v192h64v-192v-64v-32
		C4480,2471.6,4408.4,2400,4320,2400z M4416,2592h-192v-32c0-53,43-96,96-96s96,43,96,96V2592z"/>
	<path class="st2" d="M2720,2496c0,53-43,96-96,96s-96-43-96-96v-96h-64v96c0,77.4,55,142,128,156.8V2848h64v-195.2
		c73-14.8,128-79.4,128-156.8v-96h-64V2496z"/>
	<path class="st2" d="M1760,2624c0,123.7,100.3,224,224,224h96v-64h-96c-88.4,0-160-71.6-160-160s71.6-160,160-160h96v-64h-96
		C1860.3,2400,1760,2500.3,1760,2624z"/>
	<path class="st2" d="M4960,2400h-32h-64v448h64h32c123.7,0,224-100.3,224-224S5083.7,2400,4960,2400z M4960,2784h-32v-320h32
		c88.4,0,160,71.6,160,160S5048.4,2784,4960,2784z"/>
	<path class="st2" d="M2432,2528c0-70.7-57.3-128-128-128h-128h-64v448h64v-192h128c35.3,0,64,28.7,64,64v128h64v-128
		c0-38.2-16.8-72.5-43.3-96C2415.2,2600.5,2432,2566.2,2432,2528z M2176,2592v-128h128c35.3,0,64,28.7,64,64s-28.7,64-64,64H2176z"
		/>
	<path class="st2" d="M3008,2400h-128h-64v448h64v-192h128c70.7,0,128-57.3,128-128S3078.7,2400,3008,2400z M3008,2592h-128v-128
		h128c35.3,0,64,28.7,64,64S3043.3,2592,3008,2592z"/>
	<path class="st2" d="M5344,2464h192v-64h-192c-70.7,0-128,57.3-128,128s57.3,128,128,128h64c35.3,0,64,28.7,64,64s-28.7,64-64,64
		h-192v64h192c70.7,0,128-57.3,128-128s-57.3-128-128-128h-64c-35.3,0-64-28.7-64-64S5308.7,2464,5344,2464z"/>
	<path class="st2" d="M3448.2,2464c20.8-26,46.6-47.8,75.8-64h-164h-64h-128v64h128v384h64v-384H3448.2z"/>
	<polygon class="st2" points="4768,2727.5 4580.9,2400 4576,2400 4544,2400 4512,2400 4512,2848 4576,2848 4576,2520.5 4763.1,2848 
		4768,2848 4800,2848 4832,2848 4832,2400 4768,2400 	"/>
</g>
<g>
	<path class="st11" d="M3648,2400c-123.7,0-224,100.3-224,224s100.3,224,224,224s224-100.3,224-224S3771.7,2400,3648,2400z
		 M3648,2784c-88.4,0-160-71.6-160-160s71.6-160,160-160s160,71.6,160,160S3736.4,2784,3648,2784z"/>
	<circle class="st11" cx="3648" cy="2624" r="64"/>
	<path class="st11" d="M4064,2592h-162c1.3,10.5,2,21.2,2,32s-0.7,21.5-2,32h162v192h64v-192v-64v-192h-64V2592z"/>
	<path class="st11" d="M4320,2400c-88.4,0-160,71.6-160,160v32v64v192h64v-192h192v192h64v-192v-64v-32
		C4480,2471.6,4408.4,2400,4320,2400z M4416,2592h-192v-32c0-53,43-96,96-96s96,43,96,96V2592z"/>
	<path class="st11" d="M2720,2496c0,53-43,96-96,96s-96-43-96-96v-96h-64v96c0,77.4,55,142,128,156.8V2848h64v-195.2
		c73-14.8,128-79.4,128-156.8v-96h-64V2496z"/>
	<path class="st11" d="M1760,2624c0,123.7,100.3,224,224,224h96v-64h-96c-88.4,0-160-71.6-160-160s71.6-160,160-160h96v-64h-96
		C1860.3,2400,1760,2500.3,1760,2624z"/>
	<path class="st11" d="M4960,2400h-32h-64v448h64h32c123.7,0,224-100.3,224-224S5083.7,2400,4960,2400z M4960,2784h-32v-320h32
		c88.4,0,160,71.6,160,160S5048.4,2784,4960,2784z"/>
	<path class="st11" d="M2432,2528c0-70.7-57.3-128-128-128h-128h-64v448h64v-192h128c35.3,0,64,28.7,64,64v128h64v-128
		c0-38.2-16.8-72.5-43.3-96C2415.2,2600.5,2432,2566.2,2432,2528z M2176,2592v-128h128c35.3,0,64,28.7,64,64s-28.7,64-64,64H2176z"
		/>
	<path class="st11" d="M3008,2400h-128h-64v448h64v-192h128c70.7,0,128-57.3,128-128S3078.7,2400,3008,2400z M3008,2592h-128v-128
		h128c35.3,0,64,28.7,64,64S3043.3,2592,3008,2592z"/>
	<path class="st11" d="M5344,2464h192v-64h-192c-70.7,0-128,57.3-128,128s57.3,128,128,128h64c35.3,0,64,28.7,64,64s-28.7,64-64,64
		h-192v64h192c70.7,0,128-57.3,128-128s-57.3-128-128-128h-64c-35.3,0-64-28.7-64-64S5308.7,2464,5344,2464z"/>
	<path class="st11" d="M3448.2,2464c20.8-26,46.6-47.8,75.8-64h-164h-64h-128v64h128v384h64v-384H3448.2z"/>
	<polygon class="st11" points="4768,2727.5 4580.9,2400 4576,2400 4544,2400 4512,2400 4512,2848 4576,2848 4576,2520.5 
		4763.1,2848 4768,2848 4800,2848 4832,2848 4832,2400 4768,2400 	"/>
</g>
<g class="st0">
	<path class="st12" d="M3648,160c-123.7,0-224,100.3-224,224s100.3,224,224,224s224-100.3,224-224S3771.7,160,3648,160z M3648,544
		c-88.4,0-160-71.6-160-160s71.6-160,160-160s160,71.6,160,160S3736.4,544,3648,544z"/>
	<circle class="st12" cx="3648" cy="384" r="64"/>
	<path class="st12" d="M4064,352h-162c1.3,10.5,2,21.2,2,32s-0.7,21.5-2,32h162v192h64V416v-64V160h-64V352z"/>
	<path class="st12" d="M4320,160c-88.4,0-160,71.6-160,160v32v64v192h64V416h192v192h64V416v-64v-32C4480,231.6,4408.4,160,4320,160
		z M4416,352h-192v-32c0-53,43-96,96-96s96,43,96,96V352z"/>
	<path class="st12" d="M2720,256c0,53-43,96-96,96s-96-43-96-96v-96h-64v96c0,77.4,55,142,128,156.8V608h64V412.8
		c73-14.8,128-79.4,128-156.8v-96h-64V256z"/>
	<path class="st12" d="M1760,384c0,123.7,100.3,224,224,224h96v-64h-96c-88.4,0-160-71.6-160-160s71.6-160,160-160h96v-64h-96
		C1860.3,160,1760,260.3,1760,384z"/>
	<path class="st12" d="M4960,160h-32h-64v448h64h32c123.7,0,224-100.3,224-224S5083.7,160,4960,160z M4960,544h-32V224h32
		c88.4,0,160,71.6,160,160S5048.4,544,4960,544z"/>
	<path class="st12" d="M2432,288c0-70.7-57.3-128-128-128h-128h-64v448h64V416h128c35.3,0,64,28.7,64,64v128h64V480
		c0-38.2-16.8-72.5-43.3-96C2415.2,360.5,2432,326.2,2432,288z M2176,352V224h128c35.3,0,64,28.7,64,64s-28.7,64-64,64H2176z"/>
	<path class="st12" d="M3008,160h-128h-64v448h64V416h128c70.7,0,128-57.3,128-128S3078.7,160,3008,160z M3008,352h-128V224h128
		c35.3,0,64,28.7,64,64S3043.3,352,3008,352z"/>
	<path class="st12" d="M5344,224h192v-64h-192c-70.7,0-128,57.3-128,128s57.3,128,128,128h64c35.3,0,64,28.7,64,64s-28.7,64-64,64
		h-192v64h192c70.7,0,128-57.3,128-128s-57.3-128-128-128h-64c-35.3,0-64-28.7-64-64S5308.7,224,5344,224z"/>
	<path class="st12" d="M3448.2,224c20.8-26,46.6-47.8,75.8-64h-164h-64h-128v64h128v384h64V224H3448.2z"/>
	<polygon class="st12" points="4768,487.5 4580.9,160 4576,160 4544,160 4512,160 4512,608 4576,608 4576,280.5 4763.1,608 
		4768,608 4800,608 4832,608 4832,160 4768,160 	"/>
</g>
<g class="st0">
	<path class="st2" d="M3648,2400c-123.7,0-224,100.3-224,224s100.3,224,224,224s224-100.3,224-224S3771.7,2400,3648,2400z
		 M3648,2784c-88.4,0-160-71.6-160-160s71.6-160,160-160s160,71.6,160,160S3736.4,2784,3648,2784z"/>
	<circle class="st2" cx="3648" cy="2624" r="64"/>
</g>
<path class="st10" d="M3832.7,800h-369.5c-22.9,0-44,12.2-55.4,32l-646.6,1120c-24.6,42.7,6.2,96,55.4,96h1662.7
	c49.3,0,80.1-53.3,55.4-96L3888.2,832C3876.7,812.2,3855.6,800,3832.7,800z"/>
<g>
	<path class="st13" d="M3520,1216h91h36.5h128c33.4,0,64.9,11.3,90.5,32h262.4l-73.9-128h-812.9l-73.9,128h261.9
		C3455.1,1227.3,3486.6,1216,3520,1216z"/>
	<polygon class="st13" points="3962.1,960 3333.9,960 3260,1088 4036,1088 	"/>
	<path class="st13" d="M3832.7,800h-369.5c-22.9,0-44,12.2-55.4,32l-55.4,96h591.2l-55.4-96C3876.7,812.2,3855.6,800,3832.7,800z"/>
	<polygon class="st13" points="3396.4,1280 3149.2,1280 3075.3,1408 3268.4,1408 	"/>
	<path class="st13" d="M4424,1760h-603.2c-10.7,7.5-23.4,11.5-36.7,11.5c-1.4,0-2.8,0-4.1-0.1c1.1,17.7-5.1,35.8-18.6,49.3
		c-12.1,12.1-28.1,18.7-45.3,18.7s-33.2-6.6-45.3-18.7l-22.5-22.6l-22.6,22.6c-12.5,12.5-28.9,18.7-45.3,18.7s-32.8-6.3-45.2-18.7
		c-13.5-13.5-19.7-31.6-18.6-49.3c-1.4,0-2.7,0.1-4.1,0.1c-12.9,0-25.7-3.8-36.7-11.5H2872l-73.9,128h1699.7L4424,1760z"/>
	<path class="st13" d="M4516.3,1920H2779.7l-18.5,32c-24.6,42.7,6.2,96,55.4,96h1662.7c49.3,0,80.1-53.3,55.4-96L4516.3,1920z"/>
	<path class="st13" d="M3710,1724.3c-0.3,1.2-0.7,2.5-1.1,3.7h4.8L3710,1724.3z"/>
	<path class="st13" d="M3448.5,1707.5c0-1.4,0-2.8,0.1-4.1c-1.4,0-2.7,0.1-4.1,0.1c-17.2,0-33.2-6.6-45.3-18.7
		c-13.5-13.5-19.7-31.6-18.6-49.3c-1.4,0-2.7,0.1-4.1,0.1c-17.2,0-33.2-6.6-45.3-18.7c-5-4.9-9.1-10.7-12.2-16.9h-354.6l-73.9,128
		h561.3C3449.6,1721.5,3448.5,1714.6,3448.5,1707.5z"/>
	<polygon class="st13" points="4027.1,1408 4220.7,1408 4146.8,1280 3899.1,1280 	"/>
	<path class="st13" d="M3965.3,1616.8c-12.5,12.5-28.8,18.7-45.2,18.7c-1.4,0-2.7,0-4.1-0.1c0,1.4,0.1,2.7,0.1,4.1
		c0,17.2-6.6,33.2-18.7,45.3c-12.1,12.1-28.2,18.7-45.3,18.7c-1.4,0-2.8,0-4.1-0.1c0,1.4,0.1,2.7,0.1,4.1c0,7.1-1.1,14-3.3,20.5
		h560.7l-73.9-128h-354.2C3974.3,1606.2,3970.2,1611.9,3965.3,1616.8z"/>
</g>
<g>
	<path class="st14" d="M3260,1088h37.4c41.8-35.3,88.3-63.9,138.9-85.3c67.1-28.4,138.3-42.7,211.8-42.7h-189.8
		c-11.6,4-23,8.5-34.4,13.3c-55.7,23.5-106.7,55.3-152.2,94.7L3260,1088z"/>
	<path class="st14" d="M4128.2,1760c-25,47-56.8,89.9-94.8,128h44c34.7-38.7,63.8-81.6,86.8-128H4128.2z"/>
	<path class="st14" d="M4183.6,1600c-7.1,39.7-18.5,78.4-34.3,115.8c-1.7,4.1-3.5,8.2-5.4,12.2h34.9c17.5-41.3,29.9-84.1,37.2-128
		H4183.6z"/>
	<path class="st14" d="M4214,1396.4l-67.2-116.4h-2.9c1.8,4.1,3.6,8.1,5.4,12.2c15.8,37.4,27.3,76.1,34.3,115.8h32.5
		C4215.4,1404.1,4214.7,1400.3,4214,1396.4z"/>
	<path class="st14" d="M3297.4,1920h-47.8c50.9,48.8,109.4,87.3,174.2,114.7c11.4,4.8,22.8,9.2,34.4,13.3H3648
		c-73.5,0-144.7-14.4-211.8-42.7C3385.7,1983.9,3339.1,1955.3,3297.4,1920z"/>
	<path class="st14" d="M3998.6,1088h37.4l-11.6-20c-45.5-39.4-96.6-71.2-152.2-94.7c-11.4-4.8-22.8-9.2-34.4-13.3H3648
		c73.5,0,144.7,14.4,211.8,42.7C3910.3,1024.1,3956.9,1052.7,3998.6,1088z"/>
	<path class="st14" d="M3998.6,1920c-41.8,35.3-88.3,63.9-138.9,85.3c-67.1,28.4-138.3,42.7-211.8,42.7h189.8
		c11.6-4,23-8.5,34.4-13.3c64.8-27.4,123.3-66,174.2-114.7H3998.6z"/>
	<path class="st14" d="M4128.2,1248h0.2l-4.1-7.2C4125.6,1243.2,4126.9,1245.6,4128.2,1248z"/>
	<path class="st14" d="M3117.2,1728h34.9c-1.8-4.1-3.6-8.1-5.4-12.2c-15.8-37.4-27.3-76.1-34.3-115.8h-32.5
		C3087.3,1643.9,3099.7,1686.7,3117.2,1728z"/>
	<path class="st14" d="M3079.9,1408h32.5c7.1-39.7,18.5-78.4,34.3-115.8c1.7-4.1,3.5-8.2,5.4-12.2h-2.9l-67.2,116.4
		C3081.3,1400.3,3080.6,1404.1,3079.9,1408z"/>
	<path class="st14" d="M3262.7,1888c-38-38.1-69.8-81-94.8-128h-36c23,46.4,52.1,89.3,86.8,128H3262.7z"/>
	<path class="st14" d="M3167.8,1248c0.6-1.2,1.3-2.4,1.9-3.6l-2.1,3.6H3167.8z"/>
	<path class="st14" d="M3262.7,1120h-21.1l-57.8,100.1C3205.9,1184,3232.3,1150.5,3262.7,1120z"/>
	<path class="st14" d="M4033.3,1120c31.3,31.4,58.3,65.9,80.8,103.4l-59.7-103.4H4033.3z"/>
</g>
<g>
	<path class="st15" d="M3467,1481.3c-6-6-14.1-9.3-22.6-9.3c-8.6,0-16.6,3.3-22.6,9.3l-67.9,67.9c-5.4,5.4-8.6,12.4-9.3,20.1
		c-0.3,3.6,0,7.2,0.9,10.7c1.4,5.5,4.3,10.5,8.3,14.4c6.1,6.1,14.1,9.4,22.7,9.4s16.6-3.3,22.6-9.3l67.9-67.9
		C3479.5,1514.1,3479.5,1493.8,3467,1481.3z"/>
	<path class="st15" d="M3680,1707.7c0-7.9-2.8-15.3-8-21.2l-2.9-2.9c-5.8-5.1-13.3-8-21.2-8c-8.6,0-16.6,3.3-22.6,9.3l-67.9,67.9
		c-12.5,12.5-12.5,32.8,0,45.3c12.6,12.5,32.9,12.5,45.4,0.1l32.9-32.9c0.3-0.4,0.6-0.7,1-1.1c0.3-0.3,0.7-0.6,1-0.9l33-33
		C3676.7,1724.3,3680,1716.2,3680,1707.7z"/>
	<path class="st15" d="M3602.8,1617.1c-6-6-14.1-9.3-22.6-9.3s-16.6,3.3-22.6,9.3l-67.9,67.9c-6,6-9.3,14.1-9.3,22.6
		s3.3,16.6,9.3,22.6c12.4,12.6,32.7,12.6,45.2,0.1l67.9-67.9C3615.3,1649.9,3615.3,1629.6,3602.8,1617.1z"/>
	<path class="st15" d="M3544.2,1571.9c0-8.5-3.3-16.6-9.3-22.6c-12.5-12.5-32.8-12.5-45.3,0l-67.9,67.9c-12.5,12.5-12.5,32.8,0,45.3
		c6,5.9,14.1,9.2,22.7,9.2s16.6-3.3,22.6-9.3l67.9-67.9C3540.9,1588.5,3544.2,1580.4,3544.2,1571.9z"/>
	<path class="st15" d="M3312.6,1568c0-0.4,0-0.9,0.1-1.3c1.2-15.2,7.8-29.4,18.5-40.1l67.9-67.9c12.1-12.1,28.1-18.7,45.3-18.7
		s33.2,6.6,45.3,18.7c13.5,13.5,19.7,31.6,18.6,49.3c17.7-1.1,35.8,5.1,49.3,18.6c12.1,12.1,18.7,28.1,18.7,45.3
		c0,1.4-0.1,2.7-0.1,4.1c1.3-0.1,2.7-0.1,4.1-0.1c17.1,0,33.2,6.6,45.3,18.7c8.7,8.7,14.3,19.2,17,30.3c5.7-2.1,12.4-0.9,16.9,3.7
		l31.9,31.9c0.7,0.6,1.4,1.3,2.1,2s1.3,1.4,2,2.1l65.8,65.8c12.5,12.5,32.8,12.5,45.3,0c6-6,9.3-14.1,9.3-22.6s-3.3-16.6-9.3-22.6
		l-101.8-101.8c-6.2-6.2-6.2-16.4,0-22.6s16.4-6.2,22.6,0l101.6,101.6c6,6,14.1,9.3,22.6,9.3s16.6-3.3,22.6-9.3
		c12.5-12.5,12.5-32.8,0-45.3l-101.8-101.8c-6.2-6.2-6.2-16.4,0-22.6s16.4-6.2,22.6,0l101.8,101.8c12.5,12.5,32.8,12.5,45.3,0
		c4-4,6.9-9,8.3-14.5c0.9-3.5,1.2-7.1,0.9-10.7c-0.6-7.7-3.8-14.7-9.3-20.1l-169.7-169.7l-3.6-3.5h-151.3l-26.2,26.2
		c-15.2,15.2-35.2,23.5-56.6,23.5s-41.4-8.4-56.6-23.5c-15.2-15.2-23.5-35.2-23.5-56.6s8.4-41.4,23.5-56.6l30.9-30.9
		c3.6-3.6,7.4-7,11.3-10.2h-0.5c-29.9,0-58,11.7-79.2,32.8L3313.6,1408l-32,32H3259h-202.2l-73.9,128H3312.6z"/>
	<path class="st15" d="M3709.8,1724.3c-2.9,10.7-8.5,20.6-16.5,28.6l-22.7,22.7l22.6,22.6c6,6,14.1,9.3,22.6,9.3s16.6-3.3,22.6-9.3
		c12.5-12.5,12.5-32.8,0-45.3L3709.8,1724.3z"/>
	<path class="st15" d="M4239.2,1440h-202.7h-22.6l-32-32l-127.2-127.2c-21.2-21.2-49.3-32.8-79.2-32.8h-128H3611
		c-29.9,0-58,11.7-79.2,32.8l-30.9,30.9c-9.1,9.1-14.1,21.2-14.1,33.9c0,12.7,5,24.8,14.1,33.9s21.2,14.1,33.9,14.1
		s24.8-5,33.9-14.1l30.9-30.9c0.4-0.4,0.8-0.7,1.2-1.1c0.2-0.1,0.4-0.3,0.6-0.4c0.2-0.2,0.5-0.4,0.7-0.5c0.2-0.2,0.5-0.3,0.7-0.4
		s0.4-0.3,0.6-0.4s0.5-0.2,0.7-0.4c0.2-0.1,0.5-0.2,0.7-0.3s0.5-0.2,0.7-0.3c0.2-0.1,0.5-0.2,0.7-0.3s0.5-0.1,0.7-0.2
		c0.3-0.1,0.5-0.1,0.8-0.2s0.6-0.1,0.9-0.1c0.2,0,0.4-0.1,0.7-0.1c0.5-0.1,1.1-0.1,1.6-0.1h164.5c0.2,0,0.3,0,0.5,0
		c0.4,0,0.7,0,1.1,0.1c0.2,0,0.5,0.1,0.7,0.1c0.3,0,0.6,0.1,0.8,0.1c0.3,0.1,0.5,0.1,0.8,0.2s0.5,0.1,0.8,0.2s0.5,0.2,0.7,0.3
		c0.2,0.1,0.5,0.2,0.7,0.3c0.2,0.1,0.5,0.2,0.7,0.3c0.2,0.1,0.5,0.2,0.7,0.4c0.2,0.1,0.4,0.3,0.6,0.4s0.5,0.3,0.7,0.4
		c0.2,0.2,0.4,0.3,0.7,0.5c0.2,0.1,0.4,0.3,0.6,0.4c0.3,0.2,0.5,0.5,0.8,0.7c0.1,0.1,0.2,0.2,0.4,0.3l8.3,8.2l169.7,169.7
		c10.7,10.7,17.3,25,18.5,40.1c0,0.4,0.1,0.9,0.1,1.3H4313L4239.2,1440z"/>
</g>
<path class="st16" d="M3104,1504c0-21.5,1.2-42.9,3.7-64h-32.2c-2.3,21.1-3.5,42.5-3.5,64s1.2,42.9,3.5,64h32.2
	C3105.2,1546.9,3104,1525.5,3104,1504z"/>
<path class="st16" d="M4220.5,1567.8c2.3-21.1,3.5-42.3,3.5-63.8c0-21.5-1.2-42.9-3.5-64h-32.2c2.5,21.1,3.7,42.5,3.7,64
	c0,21.5-1.2,42.8-3.7,63.8H4220.5z"/>
<g class="st0">
	<path class="st15" d="M4713,1483c-123.7,0-224,100.3-224,224s100.3,224,224,224s224-100.3,224-224S4836.7,1483,4713,1483z
		 M4713,1867c-88.4,0-160-71.6-160-160s71.6-160,160-160s160,71.6,160,160S4801.4,1867,4713,1867z"/>
	<circle class="st15" cx="4713" cy="1707" r="64"/>
	<path class="st15" d="M5129,1675h-162c1.3,10.5,2,21.2,2,32s-0.7,21.5-2,32h162v192h64v-192v-64v-192h-64V1675z"/>
	<path class="st12" d="M5440,1280c-88.4,0-160,71.6-160,160v32v64v192h64v-192h192v192h64v-192v-64v-32
		C5600,1351.6,5528.4,1280,5440,1280z M5536,1472h-192v-32c0-53,43-96,96-96s96,43,96,96V1472z"/>
	<path class="st12" d="M6080,1280h-32h-64v448h64h32c123.7,0,224-100.3,224-224S6203.7,1280,6080,1280z M6080,1664h-32v-320h32
		c88.4,0,160,71.6,160,160S6168.4,1664,6080,1664z"/>
	<path class="st12" d="M6464,1344h192v-64h-192c-70.7,0-128,57.3-128,128s57.3,128,128,128h64c35.3,0,64,28.7,64,64s-28.7,64-64,64
		h-192v64h192c70.7,0,128-57.3,128-128s-57.3-128-128-128h-64c-35.3,0-64-28.7-64-64S6428.7,1344,6464,1344z"/>
	<polygon class="st12" points="5888,1607.5 5700.9,1280 5696,1280 5664,1280 5632,1280 5632,1728 5696,1728 5696,1400.5 
		5883.1,1728 5888,1728 5920,1728 5952,1728 5952,1280 5888,1280 	"/>
	<polygon class="st12" points="5184,1280 5184,1472 5069.3,1472 5078.6,1481.4 5101.3,1504 5078.6,1526.6 5069.3,1536 5184,1536 
		5184,1728 5248,1728 5248,1536 5248,1472 5248,1280 	"/>
</g>
<g class="st0">
	<path class="st12" d="M2528,1280c-123.7,0-224,100.3-224,224s100.3,224,224,224s224-100.3,224-224S2651.7,1280,2528,1280z
		 M2528,1664c-88.4,0-160-71.6-160-160s71.6-160,160-160s160,71.6,160,160S2616.4,1664,2528,1664z"/>
	<circle class="st12" cx="2528" cy="1504" r="64"/>
	<path class="st12" d="M1600,1376c0,53-43,96-96,96s-96-43-96-96v-96h-64v96c0,77.4,55,142,128,156.8V1728h64v-195.2
		c73-14.8,128-79.4,128-156.8v-96h-64V1376z"/>
	<path class="st12" d="M640,1504c0,123.7,100.3,224,224,224h96v-64h-96c-88.4,0-160-71.6-160-160s71.6-160,160-160h96v-64h-96
		C740.3,1280,640,1380.3,640,1504z"/>
	<path class="st12" d="M1312,1408c0-70.7-57.3-128-128-128h-128h-64v448h64v-192h128c35.3,0,64,28.7,64,64v128h64v-128
		c0-38.2-16.8-72.5-43.3-96C1295.2,1480.5,1312,1446.2,1312,1408z M1056,1472v-128h128c35.3,0,64,28.7,64,64s-28.7,64-64,64H1056z"
		/>
	<path class="st12" d="M1888,1280h-128h-64v448h64v-192h128c70.7,0,128-57.3,128-128S1958.7,1280,1888,1280z M1888,1472h-128v-128
		h128c35.3,0,64,28.7,64,64S1923.3,1472,1888,1472z"/>
	<path class="st12" d="M2328.2,1344c20.8-26,46.6-47.8,75.8-64h-164h-64h-128v64h128v384h64v-384H2328.2z"/>
</g>
<g>
	<path class="st11" d="M2973.7,1520l18.5-32h-208.5c0.3,5.3,0.5,10.6,0.5,16s-0.2,10.7-0.5,16H2973.7z"/>
	<path class="st11" d="M3001.4,1472l18.5-32H2776c2.7,10.4,4.7,21.1,6.1,32H3001.4z"/>
	<polygon class="st11" points="5056,1504 4928,1376 4928,1488 4544,1488 4303.8,1488 4322.3,1520 4409.4,1520 4454.6,1520 
		4544,1520 4928,1520 4928,1632 	"/>
	<path class="st11" d="M2964.4,1536H2782c-1.4,10.9-3.4,21.6-6.1,32H2946L2964.4,1536z"/>
	<polygon class="st11" points="4704,1648 4582.6,1648 4502.6,1568 4470.6,1536 4331.6,1536 4350,1568 4457.4,1568 4569.4,1680 
		4576,1680 4582.6,1680 4704,1680 4704,1728 4832,1728 4832,1600 4704,1600 	"/>
	<path class="st11" d="M4608,1280c-29.8,0-54.9,20.4-62,48h-123.4h-6.6h-6.6l-112,112h-21.3l18.5,32h16l32-32l80-80H4546
		c7.1,27.6,32.2,48,62,48c35.3,0,64-28.7,64-64S4643.3,1280,4608,1280z"/>
</g>
</svg>
