<?xml version="1.0" encoding="utf-8"?>
<!-- Generator: Adobe Illustrator 21.1.0, SVG Export Plug-In . SVG Version: 6.00 Build 0)  -->
<svg version="1.1" id="Layer_1" xmlns="http://www.w3.org/2000/svg" xmlns:xlink="http://www.w3.org/1999/xlink" x="0px" y="0px"
	 viewBox="0 0 9856 4928" enable-background="new 0 0 9856 4928" xml:space="preserve">
<g display="none">
	<rect x="3904" y="1280" display="inline" fill="#FFCC00" width="2048" height="128"/>
	<rect x="3904" y="1440" display="inline" fill="#FFCC00" width="2048" height="128"/>
	<rect x="3904" y="1120" display="inline" fill="#FFCC00" width="2048" height="128"/>
	<rect x="3904" y="960" display="inline" fill="#FFCC00" width="2048" height="128"/>
	<rect x="3904" y="1920" display="inline" fill="#FFCC00" width="2048" height="128"/>
	<rect x="3904" y="2080" display="inline" fill="#FFCC00" width="2048" height="128"/>
	<rect x="3904" y="2240" display="inline" fill="#FFCC00" width="2048" height="128"/>
	<rect x="3904" y="2400" display="inline" fill="#FFCC00" width="2048" height="128"/>
	<rect x="3904" y="1760" display="inline" fill="#FFCC00" width="2048" height="128"/>
	<rect x="3904" y="1600" display="inline" fill="#FFCC00" width="2048" height="128"/>
	<rect x="3904" y="800" display="inline" fill="#FFCC00" width="2048" height="128"/>
	<rect x="3904" y="640" display="inline" fill="#FFCC00" width="2048" height="128"/>
	<rect x="3904" y="480" display="inline" fill="#FFCC00" width="2048" height="128"/>
	<rect x="3904" y="320" display="inline" fill="#FFCC00" width="2048" height="128"/>
	<rect x="3904" y="160" display="inline" fill="#FFCC00" width="2048" height="128"/>
</g>
<path display="none" d="M4811.8,1120.8c21.2-21.2,49.3-32.8,79.2-32.8h36.5h128c29.9,0,58,11.7,79.2,32.8l127.2,127.2l32,32h22.6
	H5952v-32h-644.9l-149.8-149.8c-27.2-27.2-63.3-42.2-101.8-42.2h-128H4891h-91c-38.5,0-74.6,15-101.8,42.2L4548.4,1248H3904v32h635
	h22.6l32-32l127.2-127.2c21.2-21.2,49.3-32.8,79.2-32.8h0.5c-3.9,3.2-7.7,6.6-11.3,10.2l-30.9,30.9c-15.2,15.2-23.5,35.2-23.5,56.6
	s8.4,41.4,23.5,56.6c15.2,15.2,35.2,23.5,56.6,23.5s41.4-8.4,56.6-23.5l26.2-26.2H5049l3.6,3.5l169.7,169.7l0,0l0,0
	c5.4,5.4,8.6,12.4,9.3,20.1c0.3,3.6,0,7.2-0.9,10.7l0,0c-1.4,5.5-4.3,10.5-8.3,14.5c-12.5,12.5-32.8,12.5-45.3,0l-101.8-101.8
	c-6.2-6.2-16.4-6.2-22.6,0s-6.2,16.4,0,22.6l101.8,101.8c12.5,12.5,12.5,32.8,0,45.3c-6,6-14.1,9.3-22.6,9.3s-16.6-3.3-22.6-9.3
	l-101.8-101.8c-6.2-6.2-16.4-6.2-22.6,0s-6.2,16.4,0,22.6l101.5,101.7c6,6,9.3,14.1,9.3,22.6s-3.3,16.6-9.3,22.6
	c-12.5,12.5-32.8,12.5-45.3,0l-65.8-65.8c-0.6-0.7-1.3-1.4-2-2.1s-1.4-1.3-2.1-2l-31.9-31.9c-4.6-4.6-11.2-5.8-16.9-3.7
	c-2.6-11.1-8.3-21.7-17-30.3c-12.1-12.1-28.1-18.7-45.3-18.7c-1.4,0-2.7,0.1-4.1,0.1c0.1-1.3,0.1-2.7,0.1-4.1
	c0-17.1-6.6-33.2-18.7-45.3c-13.5-13.5-31.6-19.7-49.3-18.6c1.1-17.7-5.1-35.8-18.6-49.3c-12.1-12.1-28.1-18.7-45.3-18.7
	c-17.2,0-33.2,6.6-45.3,18.7l-67.9,67.9c-10.7,10.7-17.3,25-18.5,40.1c0,0.4-0.1,0.9-0.1,1.3H3904v32h694.9
	c3.1,6.3,7.2,12.1,12.3,17.1c12.1,12.1,28.1,18.7,45.3,18.7c1.4,0,2.7-0.1,4.1-0.1c-1.1,17.7,5.1,35.8,18.6,49.3
	c12.1,12.1,28.1,18.7,45.3,18.7c1.4,0,2.7-0.1,4.1-0.1c-0.1,1.3-0.1,2.7-0.1,4.1c0,17.1,6.6,33.2,18.7,45.3
	c12.5,12.5,28.9,18.7,45.3,18.7c1.4,0,2.7-0.1,4.1-0.1c-1.1,17.7,5.1,35.8,18.6,49.3c12.4,12.4,28.8,18.7,45.2,18.7
	s32.8-6.2,45.3-18.7l22.6-22.6l22.5,22.6l0,0l0,0c12.1,12.1,28.1,18.7,45.3,18.7s33.2-6.6,45.3-18.7c13.5-13.5,19.7-31.6,18.6-49.3
	c1.3,0.1,2.7,0.1,4.1,0.1c17.1,0,33.2-6.6,45.3-18.7s18.7-28.1,18.7-45.3c0-1.4-0.1-2.7-0.1-4.1c1.3,0.1,2.7,0.1,4.1,0.1
	c17.1,0,33.2-6.6,45.3-18.7s18.7-28.1,18.7-45.3c0-1.4-0.1-2.7-0.1-4.1c1.4,0.1,2.7,0.1,4.1,0.1c16.4,0,32.7-6.2,45.2-18.7
	c5-5,9.2-10.8,12.3-17.2H5952v-32h-688.6c0-0.4,0-0.9-0.1-1.3l0,0c-1.2-15.2-7.8-29.4-18.5-40.1l0,0l-169.7-169.7l0,0l0,0l-8.3-8.2
	c-0.1-0.1-0.2-0.2-0.4-0.3c-0.3-0.2-0.5-0.5-0.8-0.7c-0.2-0.2-0.4-0.3-0.6-0.4c-0.2-0.2-0.4-0.3-0.7-0.5c-0.2-0.2-0.5-0.3-0.7-0.4
	s-0.4-0.3-0.6-0.4s-0.5-0.2-0.7-0.4c-0.2-0.1-0.5-0.2-0.7-0.3c-0.2-0.1-0.5-0.2-0.7-0.3s-0.5-0.2-0.7-0.3c-0.2-0.1-0.5-0.1-0.8-0.2
	s-0.5-0.1-0.8-0.2s-0.6-0.1-0.8-0.1s-0.5-0.1-0.7-0.1c-0.4,0-0.7,0-1.1-0.1c-0.2,0-0.3,0-0.5,0H4891c-0.5,0-1.1,0-1.6,0.1
	c-0.2,0-0.5,0.1-0.7,0.1c-0.3,0-0.6,0.1-0.9,0.1c-0.3,0.1-0.5,0.1-0.8,0.2c-0.2,0.1-0.5,0.1-0.7,0.2c-0.3,0.1-0.5,0.2-0.7,0.3
	s-0.5,0.2-0.7,0.3c-0.2,0.1-0.5,0.2-0.7,0.3s-0.5,0.2-0.7,0.4c-0.2,0.1-0.4,0.3-0.6,0.4s-0.5,0.3-0.7,0.4c-0.2,0.2-0.5,0.3-0.7,0.5
	c-0.2,0.1-0.4,0.3-0.6,0.4c-0.4,0.3-0.8,0.7-1.2,1.1l-30.9,30.9c-9.1,9.1-21.2,14.1-33.9,14.1s-24.8-5-33.9-14.1
	s-14.1-21.2-14.1-33.9s5-24.8,14.1-33.9L4811.8,1120.8z M4656.5,1443.8c-8.6,0-16.6-3.3-22.7-9.4c-4-4-6.9-8.9-8.3-14.4
	c-0.9-3.5-1.2-7.1-0.9-10.7c0.6-7.7,3.8-14.7,9.3-20.1l67.9-67.9c6-6,14.1-9.3,22.6-9.3c8.6,0,16.6,3.3,22.6,9.3
	c12.5,12.5,12.5,32.8,0,45.3l-67.9,67.9C4673.1,1440.5,4665,1443.8,4656.5,1443.8z M4724.4,1511.7c-8.6,0-16.6-3.3-22.6-9.3l0,0
	c-12.5-12.5-12.5-32.8,0-45.3l67.9-67.9l0,0c12.5-12.5,32.8-12.5,45.3,0c6,6,9.3,14.1,9.3,22.6s-3.3,16.6-9.3,22.6l-67.9,67.9
	C4741,1508.4,4732.9,1511.7,4724.4,1511.7z M4814.9,1570.3c-12.5,12.5-32.8,12.5-45.3,0c-6-6-9.3-14.1-9.3-22.6s3.3-16.6,9.3-22.6
	l67.9-67.9c6-6,14.1-9.3,22.6-9.3s16.6,3.3,22.6,9.3c12.5,12.5,12.5,32.8,0,45.3L4814.9,1570.3L4814.9,1570.3z M4917.7,1603.3
	c-0.3,0.3-0.7,0.6-1,0.9s-0.7,0.7-1,1.1l-32.9,32.9c-12.5,12.5-32.9,12.5-45.3,0c-12.5-12.5-12.5-32.8,0-45.3l67.9-67.9
	c6-6,14.1-9.3,22.6-9.3c7.9,0,15.3,2.8,21.2,8l2.9,2.9c5.1,5.8,8,13.3,8,21.2c0,8.6-3.3,16.6-9.3,22.6L4917.7,1603.3z
	 M5018.5,1638.2c-6,6-14.1,9.3-22.6,9.3s-16.6-3.3-22.6-9.3l0,0l-22.5-22.6l22.7-22.7c8.1-8.1,13.7-17.9,16.5-28.6l28.6,28.6
	C5031,1605.4,5031,1625.7,5018.5,1638.2z"/>
<g display="none">
	<rect x="3904" y="1920" display="inline" fill="#FFCC00" width="2048" height="128"/>
	<rect x="3904" y="2080" display="inline" fill="#FFCC00" width="2048" height="128"/>
	<path display="inline" fill="#FFCC00" d="M5063.8,1611.6c-1.4,0-2.7-0.1-4.1-0.1c1.1,17.7-5.1,35.8-18.6,49.3
		c-12.1,12.1-28.1,18.7-45.3,18.7s-33.2-6.6-45.3-18.7l0,0l0,0l-22.5-22.6l-22.6,22.6c-12.5,12.4-28.9,18.7-45.3,18.7
		s-32.8-6.2-45.2-18.7c-13.5-13.5-19.7-31.6-18.6-49.3c-1.4,0.1-2.7,0.1-4.1,0.1c-12.9,0-25.8-3.9-36.8-11.6H3904v128h2048v-128
		h-851.4C5089.9,1607.5,5077.1,1611.6,5063.8,1611.6z"/>
	<rect x="3904" y="1760" display="inline" fill="#FFCC00" width="2048" height="128"/>
	<polygon display="inline" fill="#FFCC00" points="4676.4,1120 3904,1120 3904,1248 4548.4,1248 	"/>
	<rect x="3904" y="2240" display="inline" fill="#FFCC00" width="2048" height="128"/>
	<path display="inline" fill="#FFCC00" d="M4728.3,1547.7c0-1.4,0.1-2.7,0.1-4.1c-1.3,0.1-2.7,0.1-4.1,0.1
		c-17.1,0-33.2-6.6-45.3-18.7c-13.5-13.5-19.7-31.6-18.6-49.3c-1.3,0.1-2.7,0.1-4.1,0.1c-17.1,0-33.2-6.6-45.3-18.7
		c-5-5-9.2-10.8-12.3-17.1H3904v128h827.6C4729.4,1561.5,4728.3,1554.7,4728.3,1547.7z"/>
	<polygon display="inline" fill="#FFCC00" points="5307.1,1248 5952,1248 5952,1120 5179.1,1120 	"/>
	<rect x="3904" y="480" display="inline" fill="#FFCC00" width="2048" height="128"/>
	<path display="inline" fill="#FFCC00" d="M5244.8,1457.2c-12.4,12.4-28.8,18.7-45.2,18.7c-1.4,0-2.7-0.1-4.1-0.1
		c0.1,1.3,0.1,2.7,0.1,4.1c0,17.1-6.6,33.2-18.7,45.3c-12.1,12.1-28.1,18.7-45.3,18.7c-1.4,0-2.7-0.1-4.1-0.1
		c0.1,1.3,0.1,2.7,0.1,4.1c0,7-1.1,13.9-3.3,20.3H5952V1440h-694.9C5254,1446.4,5249.8,1452.2,5244.8,1457.2z"/>
	<rect x="3904" y="320" display="inline" fill="#FFCC00" width="2048" height="128"/>
	<rect x="3904" y="640" display="inline" fill="#FFCC00" width="2048" height="128"/>
	<rect x="3904" y="800" display="inline" fill="#FFCC00" width="2048" height="128"/>
	<path display="inline" fill="#FFCC00" d="M3904,1088h805.5c25.6-20.7,57.2-32,90.5-32h91h36.5h128c33.3,0,65,11.3,90.5,32h806V960
		H3904V1088z"/>
</g>
<g display="none">
	<path display="inline" fill="#5A5A5A" d="M4747,1321.3c-6-6-14.1-9.3-22.6-9.3c-8.6,0-16.6,3.3-22.6,9.3l-67.9,67.9
		c-5.4,5.4-8.6,12.4-9.3,20.1c-0.3,3.6,0,7.2,0.9,10.7c1.4,5.5,4.3,10.5,8.3,14.4c6.1,6.1,14.1,9.4,22.7,9.4s16.6-3.3,22.6-9.3
		l67.9-67.9C4759.5,1354.1,4759.5,1333.8,4747,1321.3z"/>
	<path display="inline" fill="#5A5A5A" d="M4882.8,1638.2l32.9-32.9c0.3-0.4,0.6-0.7,1-1.1c0.3-0.3,0.7-0.6,1-0.9l33-33
		c6-6,9.3-14.1,9.3-22.6c0-7.9-2.8-15.3-8-21.2l-2.9-2.9c-5.8-5.1-13.3-8-21.2-8c-8.6,0-16.6,3.3-22.6,9.3l-67.9,67.9
		c-12.5,12.5-12.5,32.8,0,45.3C4850,1650.6,4870.3,1650.6,4882.8,1638.2z"/>
	<path display="inline" fill="#5A5A5A" d="M4814.9,1570.3L4814.9,1570.3l67.9-67.9c12.5-12.5,12.5-32.8,0-45.3
		c-6-6-14.1-9.3-22.6-9.3s-16.6,3.3-22.6,9.3l-67.9,67.9c-6,6-9.3,14.1-9.3,22.6s3.3,16.6,9.3,22.6
		C4782.1,1582.8,4802.4,1582.8,4814.9,1570.3z"/>
	<path display="inline" fill="#5A5A5A" d="M4724.4,1511.7c8.6,0,16.6-3.3,22.6-9.3l67.9-67.9c6-6,9.3-14.1,9.3-22.6
		s-3.3-16.6-9.3-22.6c-12.5-12.5-32.8-12.5-45.3,0l0,0l-67.9,67.9c-12.5,12.5-12.5,32.8,0,45.3l0,0
		C4707.7,1508.4,4715.8,1511.7,4724.4,1511.7z"/>
	<path display="inline" fill="#5A5A5A" d="M4592.7,1406.7c1.2-15.2,7.8-29.4,18.5-40.1l67.9-67.9c12.1-12.1,28.1-18.7,45.3-18.7
		s33.2,6.6,45.3,18.7c13.5,13.5,19.7,31.6,18.6,49.3c17.7-1.1,35.8,5.1,49.3,18.6c12.1,12.1,18.7,28.1,18.7,45.3
		c0,1.4-0.1,2.7-0.1,4.1c1.3-0.1,2.7-0.1,4.1-0.1c17.1,0,33.2,6.6,45.3,18.7c8.7,8.7,14.3,19.2,17,30.3c5.7-2.1,12.4-0.9,16.9,3.7
		l31.9,31.9c0.7,0.6,1.4,1.3,2.1,2s1.3,1.4,2,2.1l65.8,65.8c12.5,12.5,32.8,12.5,45.3,0c6-6,9.3-14.1,9.3-22.6s-3.3-16.6-9.3-22.6
		l-101.8-101.8c-6.2-6.2-6.2-16.4,0-22.6s16.4-6.2,22.6,0l101.6,101.6c6,6,14.1,9.3,22.6,9.3s16.6-3.3,22.6-9.3
		c12.5-12.5,12.5-32.8,0-45.3l-101.8-101.8c-6.2-6.2-6.2-16.4,0-22.6s16.4-6.2,22.6,0l101.8,101.8c12.5,12.5,32.8,12.5,45.3,0
		c4-4,6.9-9,8.3-14.5l0,0c0.9-3.5,1.2-7.1,0.9-10.7c-0.6-7.7-3.8-14.7-9.3-20.1l0,0l0,0l-169.7-169.7l-3.6-3.5h-151.3l-26.2,26.2
		c-15.2,15.2-35.2,23.5-56.6,23.5s-41.4-8.4-56.6-23.5c-15.2-15.2-23.5-35.2-23.5-56.6s8.4-41.4,23.5-56.6l30.9-30.9
		c3.6-3.6,7.4-7,11.3-10.2h-0.5c-29.9,0-58,11.7-79.2,32.8L4593.6,1248l-32,32H4539h-635v128h688.6
		C4592.6,1407.6,4592.6,1407.1,4592.7,1406.7z"/>
	<path display="inline" fill="#5A5A5A" d="M4973.2,1638.2c6,6,14.1,9.3,22.6,9.3s16.6-3.3,22.6-9.3c12.5-12.5,12.5-32.8,0-45.3
		l-28.6-28.6c-2.9,10.7-8.5,20.6-16.5,28.6l-22.7,22.7L4973.2,1638.2L4973.2,1638.2z"/>
	<path display="inline" fill="#5A5A5A" d="M5293.9,1280l-32-32l-127.2-127.2c-21.2-21.2-49.3-32.8-79.2-32.8h-128H4891
		c-29.9,0-58,11.7-79.2,32.8l-30.9,30.9c-9.1,9.1-14.1,21.2-14.1,33.9c0,12.7,5,24.8,14.1,33.9s21.2,14.1,33.9,14.1
		c12.7,0,24.8-5,33.9-14.1l30.9-30.9c0.4-0.4,0.8-0.7,1.2-1.1c0.2-0.1,0.4-0.3,0.6-0.4c0.2-0.2,0.5-0.4,0.7-0.5
		c0.2-0.2,0.5-0.3,0.7-0.4s0.4-0.3,0.6-0.4s0.5-0.2,0.7-0.4c0.2-0.1,0.5-0.2,0.7-0.3s0.5-0.2,0.7-0.3c0.2-0.1,0.5-0.2,0.7-0.3
		s0.5-0.1,0.7-0.2c0.3-0.1,0.5-0.1,0.8-0.2s0.6-0.1,0.9-0.1c0.2,0,0.4-0.1,0.7-0.1c0.5-0.1,1.1-0.1,1.6-0.1h164.5c0.2,0,0.3,0,0.5,0
		c0.4,0,0.7,0,1.1,0.1c0.2,0,0.5,0.1,0.7,0.1c0.3,0,0.6,0.1,0.8,0.1c0.3,0.1,0.5,0.1,0.8,0.2s0.5,0.1,0.8,0.2s0.5,0.2,0.7,0.3
		c0.2,0.1,0.5,0.2,0.7,0.3c0.2,0.1,0.5,0.2,0.7,0.3c0.2,0.1,0.5,0.2,0.7,0.4c0.2,0.1,0.4,0.3,0.6,0.4s0.5,0.3,0.7,0.4
		c0.2,0.2,0.4,0.3,0.7,0.5c0.2,0.1,0.4,0.3,0.6,0.4c0.3,0.2,0.5,0.5,0.8,0.7c0.1,0.1,0.2,0.2,0.4,0.3l8.3,8.2l0,0l0,0l169.7,169.7
		l0,0c10.7,10.7,17.3,25,18.5,40.1l0,0c0,0.4,0.1,0.9,0.1,1.3H5952V1280h-635.5H5293.9z"/>
</g>
<polygon display="none" fill="none" points="5149.7,640 4706.3,640 3985.8,1888 5870.2,1888 "/>
<g display="none">
	<path display="inline" fill="#FFCC00" d="M4800,1056h91h36.5h128c33.4,0,64.9,11.3,90.5,32h262.4l-73.9-128h-812.9l-73.9,128h261.9
		C4735.1,1067.3,4766.6,1056,4800,1056z"/>
	<polygon display="inline" fill="#FFCC00" points="5242.1,800 4613.9,800 4540,928 5316,928 	"/>
	<polygon display="inline" fill="#FFCC00" points="5149.7,640 4706.3,640 4632.4,768 5223.6,768 	"/>
	<polygon display="inline" fill="#FFCC00" points="4676.4,1120 4429.2,1120 4355.3,1248 4548.4,1248 	"/>
	<path display="inline" fill="#FFCC00" d="M5704,1600h-603.2c-10.7,7.5-23.4,11.5-36.7,11.5c-1.4,0-2.8,0-4.1-0.1
		c1.1,17.7-5.1,35.8-18.6,49.3c-12.1,12.1-28.1,18.7-45.3,18.7c-17.2,0-33.2-6.6-45.3-18.7l-22.5-22.6l-22.6,22.6
		c-12.5,12.5-28.9,18.7-45.3,18.7s-32.8-6.3-45.2-18.7c-13.5-13.5-19.7-31.6-18.6-49.3c-1.4,0-2.7,0.1-4.1,0.1
		c-12.9,0-25.7-3.8-36.7-11.5H4152l-73.9,128h1699.7L5704,1600z"/>
	<polygon display="inline" fill="#FFCC00" points="5796.3,1760 4059.7,1760 3985.8,1888 5870.2,1888 	"/>
	<path display="inline" fill="#FFCC00" d="M4990,1564.3c-0.3,1.2-0.7,2.5-1.1,3.7h4.8L4990,1564.3z"/>
	<path display="inline" fill="#FFCC00" d="M4728.5,1547.5c0-1.4,0-2.8,0.1-4.1c-1.4,0-2.7,0.1-4.1,0.1c-17.2,0-33.2-6.6-45.3-18.7
		c-13.5-13.5-19.7-31.6-18.6-49.3c-1.4,0-2.7,0.1-4.1,0.1c-17.2,0-33.2-6.6-45.3-18.7c-5-4.9-9.1-10.7-12.2-16.9h-354.6l-73.9,128
		h561.3C4729.6,1561.5,4728.5,1554.6,4728.5,1547.5z"/>
	<polygon display="inline" fill="#FFCC00" points="5307.1,1248 5500.7,1248 5426.8,1120 5179.1,1120 	"/>
	<path display="inline" fill="#FFCC00" d="M5245.3,1456.8c-12.5,12.5-28.8,18.7-45.2,18.7c-1.4,0-2.7,0-4.1-0.1
		c0,1.4,0.1,2.7,0.1,4.1c0,17.2-6.6,33.2-18.7,45.3c-12.1,12.1-28.2,18.7-45.3,18.7c-1.4,0-2.8,0-4.1-0.1c0,1.4,0.1,2.7,0.1,4.1
		c0,7.1-1.1,14-3.3,20.5h560.7l-73.9-128h-354.2C5254.3,1446.2,5250.2,1451.9,5245.3,1456.8z"/>
</g>
<rect fill="#F2F2F2" width="9856" height="4928"/>
<rect x="2464" fill="#F2F2F2" width="4928" height="4928"/>
<rect x="2464" display="none" fill="#F2F2F2" width="4928" height="4928"/>
<g opacity="0.7">
	<g>
		<path opacity="0.7" fill="#FAFAFA" enable-background="new    " d="M4928,2848c-406.5,0-736,329.5-736,736s329.5,736,736,736
			s736-329.5,736-736S5334.5,2848,4928,2848z M4928,4288c-388.8,0-704-315.2-704-704s315.2-704,704-704s704,315.2,704,704
			S5316.8,4288,4928,4288z"/>
		<path display="none" fill="#FAFAFA" d="M4928,672c-371.1,0-672,300.9-672,672s300.9,672,672,672s672-300.9,672-672
			S5299.1,672,4928,672z M4928,2000c-362.3,0-656-293.7-656-656s293.7-656,656-656s656,293.7,656,656S5290.3,2000,4928,2000z"/>
		<path display="none" fill="#FAFAFA" d="M4928,2928c-362.3,0-656,293.7-656,656s293.7,656,656,656s656-293.7,656-656
			S5290.3,2928,4928,2928z M4928,4208c-344.6,0-624-279.4-624-624s279.4-624,624-624s624,279.4,624,624S5272.6,4208,4928,4208z"/>
		<path display="none" fill="#FAFAFA" d="M4928,720c-344.6,0-624,279.4-624,624s279.4,624,624,624s624-279.4,624-624
			S5272.6,720,4928,720z M4928,1952c-335.8,0-608-272.2-608-608s272.2-608,608-608s608,272.2,608,608S5263.8,1952,4928,1952z"/>
		<path opacity="0.7" fill="#FAFAFA" enable-background="new    " d="M4928,3008c-318.1,0-576,257.9-576,576s257.9,576,576,576
			s576-257.9,576-576S5246.1,3008,4928,3008z M4928,4128c-300.4,0-544-243.6-544-544s243.6-544,544-544s544,243.6,544,544
			S5228.4,4128,4928,4128z"/>
		<path opacity="0.7" fill="#FAFAFA" enable-background="new    " d="M4928,3168c-229.7,0-416,186.3-416,416s186.3,416,416,416
			s416-186.3,416-416S5157.7,3168,4928,3168z M4928,3968c-212,0-384-172-384-384s172-384,384-384s384,172,384,384
			S5140,3968,4928,3968z"/>
		<path display="none" fill="#FAFAFA" d="M4928,2368c-671.6,0-1216,544.4-1216,1216s544.4,1216,1216,1216s1216-544.4,1216-1216
			S5599.6,2368,4928,2368z M4928,4768c-653.9,0-1184-530.1-1184-1184s530.1-1184,1184-1184s1184,530.1,1184,1184
			S5581.9,4768,4928,4768z"/>
		<path display="none" fill="#FAFAFA" d="M4928,192c-636.2,0-1152,515.8-1152,1152s515.8,1152,1152,1152s1152-515.8,1152-1152
			S5564.2,192,4928,192z M4928,2480c-627.4,0-1136-508.6-1136-1136S4300.6,208,4928,208s1136,508.6,1136,1136S5555.4,2480,4928,2480
			z"/>
		<path opacity="0.7" fill="#FAFAFA" enable-background="new    " d="M4928,2448c-627.4,0-1136,508.6-1136,1136
			s508.6,1136,1136,1136s1136-508.6,1136-1136S5555.4,2448,4928,2448z M4928,4688c-609.7,0-1104-494.3-1104-1104
			s494.3-1104,1104-1104s1104,494.3,1104,1104S5537.7,4688,4928,4688z"/>
		<path display="none" fill="#FAFAFA" d="M4928,240c-609.7,0-1104,494.3-1104,1104s494.3,1104,1104,1104s1104-494.3,1104-1104
			S5537.7,240,4928,240z M4928,2432c-600.9,0-1088-487.1-1088-1088S4327.1,256,4928,256s1088,487.1,1088,1088S5528.9,2432,4928,2432
			z"/>
		<path display="none" fill="#FAFAFA" d="M4928,2528c-583.2,0-1056,472.8-1056,1056s472.8,1056,1056,1056s1056-472.8,1056-1056
			S5511.2,2528,4928,2528z M4928,4608c-565.6,0-1024-458.4-1024-1024s458.4-1024,1024-1024s1024,458.4,1024,1024
			S5493.6,4608,4928,4608z"/>
	</g>
	<g>
		<path opacity="0.7" fill="#FAFAFA" enable-background="new    " d="M4928,608c-406.5,0-736,329.5-736,736s329.5,736,736,736
			s736-329.5,736-736S5334.5,608,4928,608z M4928,2048c-388.8,0-704-315.2-704-704s315.2-704,704-704s704,315.2,704,704
			S5316.8,2048,4928,2048z"/>
		<path display="none" fill="#FAFAFA" d="M4928,672c-371.1,0-672,300.9-672,672s300.9,672,672,672s672-300.9,672-672
			S5299.1,672,4928,672z M4928,2000c-362.3,0-656-293.7-656-656s293.7-656,656-656s656,293.7,656,656S5290.3,2000,4928,2000z"/>
		<path display="none" fill="#FAFAFA" d="M4928,688c-362.3,0-656,293.7-656,656s293.7,656,656,656s656-293.7,656-656
			S5290.3,688,4928,688z M4928,1968c-344.6,0-624-279.4-624-624s279.4-624,624-624s624,279.4,624,624S5272.6,1968,4928,1968z"/>
		<path display="none" fill="#FAFAFA" d="M4928,720c-344.6,0-624,279.4-624,624s279.4,624,624,624s624-279.4,624-624
			S5272.6,720,4928,720z M4928,1952c-335.8,0-608-272.2-608-608s272.2-608,608-608s608,272.2,608,608S5263.8,1952,4928,1952z"/>
		<path opacity="0.7" fill="#FAFAFA" enable-background="new    " d="M4928,768c-318.1,0-576,257.9-576,576s257.9,576,576,576
			s576-257.9,576-576S5246.1,768,4928,768z M4928,1888c-300.4,0-544-243.6-544-544s243.6-544,544-544s544,243.6,544,544
			S5228.4,1888,4928,1888z"/>
		<path display="none" fill="#FAFAFA" d="M4928,128c-671.6,0-1216,544.4-1216,1216s544.4,1216,1216,1216s1216-544.4,1216-1216
			S5599.6,128,4928,128z M4928,2528c-653.9,0-1184-530.1-1184-1184S4274.1,160,4928,160s1184,530.1,1184,1184S5581.9,2528,4928,2528
			z"/>
		<path display="none" fill="#FAFAFA" d="M4928,192c-636.2,0-1152,515.8-1152,1152s515.8,1152,1152,1152s1152-515.8,1152-1152
			S5564.2,192,4928,192z M4928,2480c-627.4,0-1136-508.6-1136-1136S4300.6,208,4928,208s1136,508.6,1136,1136S5555.4,2480,4928,2480
			z"/>
		<path opacity="0.7" fill="#FAFAFA" enable-background="new    " d="M4928,208c-627.4,0-1136,508.6-1136,1136s508.6,1136,1136,1136
			s1136-508.6,1136-1136S5555.4,208,4928,208z M4928,2448c-609.7,0-1104-494.3-1104-1104S4318.3,240,4928,240s1104,494.3,1104,1104
			S5537.7,2448,4928,2448z"/>
		<path display="none" fill="#FAFAFA" d="M4928,240c-609.7,0-1104,494.3-1104,1104s494.3,1104,1104,1104s1104-494.3,1104-1104
			S5537.7,240,4928,240z M4928,2432c-600.9,0-1088-487.1-1088-1088S4327.1,256,4928,256s1088,487.1,1088,1088S5528.9,2432,4928,2432
			z"/>
		<path display="none" fill="#FAFAFA" d="M4928,288c-583.2,0-1056,472.8-1056,1056s472.8,1056,1056,1056s1056-472.8,1056-1056
			S5511.2,288,4928,288z M4928,2368c-565.6,0-1024-458.4-1024-1024S4362.4,320,4928,320s1024,458.4,1024,1024S5493.6,2368,4928,2368
			z"/>
	</g>
	<g>
		<path display="none" fill="#FAFAFA" d="M4928,288c-1201.8,0-2176,974.2-2176,2176s974.2,2176,2176,2176s2176-974.2,2176-2176
			S6129.8,288,4928,288z M4928,4608c-1184.1,0-2144-959.9-2144-2144S3743.9,320,4928,320s2144,959.9,2144,2144
			S6112.1,4608,4928,4608z"/>
		<path opacity="0.7" fill="#FAFAFA" enable-background="new    " d="M4928,208c-1246,0-2256,1010-2256,2256s1010,2256,2256,2256
			s2256-1010,2256-2256S6174,208,4928,208z M4928,4688c-1228.3,0-2224-995.7-2224-2224S3699.7,240,4928,240s2224,995.7,2224,2224
			S6156.3,4688,4928,4688z"/>
		<path display="none" fill="#FAFAFA" d="M4928,128c-1290.1,0-2336,1045.9-2336,2336s1045.9,2336,2336,2336s2336-1045.9,2336-2336
			S6218.1,128,4928,128z M4928,4768c-1272.5,0-2304-1031.5-2304-2304S3655.5,160,4928,160s2304,1031.5,2304,2304
			S6200.5,4768,4928,4768z"/>
	</g>
	<rect y="4128" opacity="0.7" fill="#FAFAFA" enable-background="new    " width="9856" height="32"/>
	<rect y="3008" opacity="0.7" fill="#FAFAFA" enable-background="new    " width="9856" height="32"/>
	<rect y="768" fill="none" width="9856" height="1152"/>
	<rect y="1888" opacity="0.7" fill="#FAFAFA" enable-background="new    " width="9856" height="32"/>
	<polygon opacity="0.7" fill="#FAFAFA" enable-background="new    " points="7616,4911.8 7616,4847.8 4817.1,0 4780.2,0 	"/>
	<polygon opacity="0.7" fill="#FAFAFA" enable-background="new    " points="2240,4911.8 5075.8,0 5038.9,0 2240,4847.8 	"/>
	<g opacity="0.7">
		<path fill="#FAFAFA" d="M6048,3360c-123.7,0-224,100.3-224,224s100.3,224,224,224s224-100.3,224-224S6171.7,3360,6048,3360z
			 M6048,3744c-88.4,0-160-71.6-160-160s71.6-160,160-160s160,71.6,160,160S6136.4,3744,6048,3744z"/>
		<path fill="#FAFAFA" d="M6048,3648c-35.3,0-64-28.7-64-64s28.7-64,64-64s64,28.7,64,64S6083.3,3648,6048,3648z"/>
	</g>
	<g opacity="0.7">
		<path fill="#FAFAFA" d="M3808,3360c-123.7,0-224,100.3-224,224s100.3,224,224,224s224-100.3,224-224S3931.7,3360,3808,3360z
			 M3808,3744c-88.4,0-160-71.6-160-160s71.6-160,160-160s160,71.6,160,160S3896.4,3744,3808,3744z"/>
		<path fill="#FAFAFA" d="M3808,3648c-35.3,0-64-28.7-64-64s28.7-64,64-64s64,28.7,64,64S3843.3,3648,3808,3648z"/>
	</g>
	<g opacity="0.7">
		<path fill="#FAFAFA" d="M6048,1120c-123.7,0-224,100.3-224,224s100.3,224,224,224s224-100.3,224-224S6171.7,1120,6048,1120z
			 M6048,1504c-88.4,0-160-71.6-160-160s71.6-160,160-160s160,71.6,160,160S6136.4,1504,6048,1504z"/>
		<path fill="#FAFAFA" d="M6048,1408c-35.3,0-64-28.7-64-64s28.7-64,64-64s64,28.7,64,64S6083.3,1408,6048,1408z"/>
	</g>
	<g opacity="0.7">
		<path fill="#FAFAFA" d="M3808,1120c-123.7,0-224,100.3-224,224s100.3,224,224,224s224-100.3,224-224S3931.7,1120,3808,1120z
			 M3808,1504c-88.4,0-160-71.6-160-160s71.6-160,160-160s160,71.6,160,160S3896.4,1504,3808,1504z"/>
		<path fill="#FAFAFA" d="M3808,1408c-35.3,0-64-28.7-64-64s28.7-64,64-64s64,28.7,64,64S3843.3,1408,3808,1408z"/>
	</g>
</g>
<g>
	<path fill="#5A5A5A" d="M4928,2240c-123.7,0-224,100.3-224,224s100.3,224,224,224s224-100.3,224-224S5051.7,2240,4928,2240z
		 M4928,2624c-88.4,0-160-71.6-160-160s71.6-160,160-160s160,71.6,160,160S5016.4,2624,4928,2624z"/>
	<circle fill="#5A5A5A" cx="4928" cy="2464" r="64"/>
	<path fill="#5A5A5A" d="M5344,2432h-162c1.3,10.5,2,21.2,2,32s-0.7,21.5-2,32h162v192h64v-192v-64v-192h-64V2432z"/>
	<path fill="#5A5A5A" d="M5600,2240c-88.4,0-160,71.6-160,160v32v64v192h64v-192h192v192h64v-192v-64v-32
		C5760,2311.6,5688.4,2240,5600,2240z M5696,2432h-192v-32c0-53,43-96,96-96s96,43,96,96V2432z"/>
	<path fill="#5A5A5A" d="M4000,2336c0,53-43,96-96,96s-96-43-96-96v-96h-64v96c0,77.4,55,142,128,156.8V2688h64v-195.2
		c73-14.8,128-79.4,128-156.8v-96h-64V2336z"/>
	<path fill="#5A5A5A" d="M3040,2464c0,123.7,100.3,224,224,224h96v-64h-96c-88.4,0-160-71.6-160-160s71.6-160,160-160h96v-64h-96
		C3140.3,2240,3040,2340.3,3040,2464z"/>
	<path fill="#5A5A5A" d="M6240,2240h-32h-64v448h64h32c123.7,0,224-100.3,224-224S6363.7,2240,6240,2240z M6240,2624h-32v-320h32
		c88.4,0,160,71.6,160,160S6328.4,2624,6240,2624z"/>
	<path fill="#5A5A5A" d="M3712,2368c0-70.7-57.3-128-128-128h-128h-64v448h64v-192h128c35.3,0,64,28.7,64,64v128h64v-128
		c0-38.2-16.8-72.5-43.3-96C3695.2,2440.5,3712,2406.2,3712,2368z M3456,2432v-128h128c35.3,0,64,28.7,64,64s-28.7,64-64,64H3456z"
		/>
	<path fill="#5A5A5A" d="M4288,2240h-128h-64v448h64v-192h128c70.7,0,128-57.3,128-128S4358.7,2240,4288,2240z M4288,2432h-128v-128
		h128c35.3,0,64,28.7,64,64S4323.3,2432,4288,2432z"/>
	<path fill="#5A5A5A" d="M6624,2304h192v-64h-192c-70.7,0-128,57.3-128,128s57.3,128,128,128h64c35.3,0,64,28.7,64,64
		s-28.7,64-64,64h-192v64h192c70.7,0,128-57.3,128-128s-57.3-128-128-128h-64c-35.3,0-64-28.7-64-64S6588.7,2304,6624,2304z"/>
	<path fill="#5A5A5A" d="M4728.2,2304c20.8-26,46.6-47.8,75.8-64h-164h-64h-128v64h128v384h64v-384H4728.2z"/>
	<polygon fill="#5A5A5A" points="6048,2567.5 5860.9,2240 5856,2240 5824,2240 5792,2240 5792,2688 5856,2688 5856,2360.5 
		6043.1,2688 6048,2688 6080,2688 6112,2688 6112,2240 6048,2240 	"/>
</g>
<path fill="#F2F2F2" d="M5112.7,640h-369.5c-22.9,0-44,12.2-55.4,32l-646.6,1120c-24.6,42.7,6.2,96,55.4,96h1662.7
	c49.3,0,80.1-53.3,55.4-96L5168.2,672C5156.7,652.2,5135.6,640,5112.7,640z"/>
<g>
	<path fill="#FFCC00" d="M4800,1056h91h36.5h128c33.4,0,64.9,11.3,90.5,32h262.4l-73.9-128h-812.9l-73.9,128h261.9
		C4735.1,1067.3,4766.6,1056,4800,1056z"/>
	<polygon fill="#FFCC00" points="5242.1,800 4613.9,800 4540,928 5316,928 	"/>
	<path fill="#FFCC00" d="M5112.7,640h-369.5c-22.9,0-44,12.2-55.4,32l-55.4,96h591.2l-55.4-96C5156.7,652.2,5135.6,640,5112.7,640z"
		/>
	<polygon fill="#FFCC00" points="4676.4,1120 4429.2,1120 4355.3,1248 4548.4,1248 	"/>
	<path fill="#FFCC00" d="M5704,1600h-603.2c-10.7,7.5-23.4,11.5-36.7,11.5c-1.4,0-2.8,0-4.1-0.1c1.1,17.7-5.1,35.8-18.6,49.3
		c-12.1,12.1-28.1,18.7-45.3,18.7c-17.2,0-33.2-6.6-45.3-18.7l-22.5-22.6l-22.6,22.6c-12.5,12.5-28.9,18.7-45.3,18.7
		s-32.8-6.3-45.2-18.7c-13.5-13.5-19.7-31.6-18.6-49.3c-1.4,0-2.7,0.1-4.1,0.1c-12.9,0-25.7-3.8-36.7-11.5H4152l-73.9,128h1699.7
		L5704,1600z"/>
	<path fill="#FFCC00" d="M5796.3,1760H4059.7l-18.5,32c-24.6,42.7,6.2,96,55.4,96h1662.7c49.3,0,80.1-53.3,55.4-96L5796.3,1760z"/>
	<path fill="#FFCC00" d="M4990,1564.3c-0.3,1.2-0.7,2.5-1.1,3.7h4.8L4990,1564.3z"/>
	<path fill="#FFCC00" d="M4728.5,1547.5c0-1.4,0-2.8,0.1-4.1c-1.4,0-2.7,0.1-4.1,0.1c-17.2,0-33.2-6.6-45.3-18.7
		c-13.5-13.5-19.7-31.6-18.6-49.3c-1.4,0-2.7,0.1-4.1,0.1c-17.2,0-33.2-6.6-45.3-18.7c-5-4.9-9.1-10.7-12.2-16.9h-354.6l-73.9,128
		h561.3C4729.6,1561.5,4728.5,1554.6,4728.5,1547.5z"/>
	<polygon fill="#FFCC00" points="5307.1,1248 5500.7,1248 5426.8,1120 5179.1,1120 	"/>
	<path fill="#FFCC00" d="M5245.3,1456.8c-12.5,12.5-28.8,18.7-45.2,18.7c-1.4,0-2.7,0-4.1-0.1c0,1.4,0.1,2.7,0.1,4.1
		c0,17.2-6.6,33.2-18.7,45.3c-12.1,12.1-28.2,18.7-45.3,18.7c-1.4,0-2.8,0-4.1-0.1c0,1.4,0.1,2.7,0.1,4.1c0,7.1-1.1,14-3.3,20.5
		h560.7l-73.9-128h-354.2C5254.3,1446.2,5250.2,1451.9,5245.3,1456.8z"/>
</g>
<g>
	<path fill="#5A5A5A" d="M4747,1321.3c-6-6-14.1-9.3-22.6-9.3c-8.6,0-16.6,3.3-22.6,9.3l-67.9,67.9c-5.4,5.4-8.6,12.4-9.3,20.1
		c-0.3,3.6,0,7.2,0.9,10.7c1.4,5.5,4.3,10.5,8.3,14.4c6.1,6.1,14.1,9.4,22.7,9.4s16.6-3.3,22.6-9.3l67.9-67.9
		C4759.5,1354.1,4759.5,1333.8,4747,1321.3z"/>
	<path fill="#5A5A5A" d="M4960,1547.7c0-7.9-2.8-15.3-8-21.2l-2.9-2.9c-5.8-5.1-13.3-8-21.2-8c-8.6,0-16.6,3.3-22.6,9.3l-67.9,67.9
		c-12.5,12.5-12.5,32.8,0,45.3c12.6,12.5,32.9,12.5,45.4,0.1l32.9-32.9c0.3-0.4,0.6-0.7,1-1.1c0.3-0.3,0.7-0.6,1-0.9l33-33
		C4956.7,1564.3,4960,1556.2,4960,1547.7z"/>
	<path fill="#5A5A5A" d="M4882.8,1457.1c-6-6-14.1-9.3-22.6-9.3s-16.6,3.3-22.6,9.3l-67.9,67.9c-6,6-9.3,14.1-9.3,22.6
		s3.3,16.6,9.3,22.6c12.4,12.6,32.7,12.6,45.2,0.1l67.9-67.9C4895.3,1489.9,4895.3,1469.6,4882.8,1457.1z"/>
	<path fill="#5A5A5A" d="M4824.2,1411.9c0-8.5-3.3-16.6-9.3-22.6c-12.5-12.5-32.8-12.5-45.3,0l-67.9,67.9
		c-12.5,12.5-12.5,32.8,0,45.3c6,5.9,14.1,9.2,22.7,9.2s16.6-3.3,22.6-9.3l67.9-67.9C4820.9,1428.5,4824.2,1420.4,4824.2,1411.9z"/>
	<path fill="#5A5A5A" d="M4592.6,1408c0-0.4,0-0.9,0.1-1.3c1.2-15.2,7.8-29.4,18.5-40.1l67.9-67.9c12.1-12.1,28.1-18.7,45.3-18.7
		c17.2,0,33.2,6.6,45.3,18.7c13.5,13.5,19.7,31.6,18.6,49.3c17.7-1.1,35.8,5.1,49.3,18.6c12.1,12.1,18.7,28.1,18.7,45.3
		c0,1.4-0.1,2.7-0.1,4.1c1.3-0.1,2.7-0.1,4.1-0.1c17.1,0,33.2,6.6,45.3,18.7c8.7,8.7,14.3,19.2,17,30.3c5.7-2.1,12.4-0.9,16.9,3.7
		l31.9,31.9c0.7,0.6,1.4,1.3,2.1,2s1.3,1.4,2,2.1l65.8,65.8c12.5,12.5,32.8,12.5,45.3,0c6-6,9.3-14.1,9.3-22.6s-3.3-16.6-9.3-22.6
		l-101.8-101.8c-6.2-6.2-6.2-16.4,0-22.6s16.4-6.2,22.6,0l101.6,101.6c6,6,14.1,9.3,22.6,9.3s16.6-3.3,22.6-9.3
		c12.5-12.5,12.5-32.8,0-45.3l-101.8-101.8c-6.2-6.2-6.2-16.4,0-22.6s16.4-6.2,22.6,0l101.8,101.8c12.5,12.5,32.8,12.5,45.3,0
		c4-4,6.9-9,8.3-14.5c0.9-3.5,1.2-7.1,0.9-10.7c-0.6-7.7-3.8-14.7-9.3-20.1l-169.7-169.7l-3.6-3.5h-151.3l-26.2,26.2
		c-15.2,15.2-35.2,23.5-56.6,23.5s-41.4-8.4-56.6-23.5c-15.2-15.2-23.5-35.2-23.5-56.6s8.4-41.4,23.5-56.6l30.9-30.9
		c3.6-3.6,7.4-7,11.3-10.2h-0.5c-29.9,0-58,11.7-79.2,32.8L4593.6,1248l-32,32H4539h-202.2l-73.9,128H4592.6z"/>
	<path fill="#5A5A5A" d="M4989.8,1564.3c-2.9,10.7-8.5,20.6-16.5,28.6l-22.7,22.7l22.6,22.6c6,6,14.1,9.3,22.6,9.3
		s16.6-3.3,22.6-9.3c12.5-12.5,12.5-32.8,0-45.3L4989.8,1564.3z"/>
	<path fill="#5A5A5A" d="M5519.2,1280h-202.7h-22.6l-32-32l-127.2-127.2c-21.2-21.2-49.3-32.8-79.2-32.8h-128H4891
		c-29.9,0-58,11.7-79.2,32.8l-30.9,30.9c-9.1,9.1-14.1,21.2-14.1,33.9c0,12.7,5,24.8,14.1,33.9s21.2,14.1,33.9,14.1
		c12.7,0,24.8-5,33.9-14.1l30.9-30.9c0.4-0.4,0.8-0.7,1.2-1.1c0.2-0.1,0.4-0.3,0.6-0.4c0.2-0.2,0.5-0.4,0.7-0.5
		c0.2-0.2,0.5-0.3,0.7-0.4s0.4-0.3,0.6-0.4s0.5-0.2,0.7-0.4c0.2-0.1,0.5-0.2,0.7-0.3s0.5-0.2,0.7-0.3c0.2-0.1,0.5-0.2,0.7-0.3
		s0.5-0.1,0.7-0.2c0.3-0.1,0.5-0.1,0.8-0.2s0.6-0.1,0.9-0.1c0.2,0,0.4-0.1,0.7-0.1c0.5-0.1,1.1-0.1,1.6-0.1h164.5c0.2,0,0.3,0,0.5,0
		c0.4,0,0.7,0,1.1,0.1c0.2,0,0.5,0.1,0.7,0.1c0.3,0,0.6,0.1,0.8,0.1c0.3,0.1,0.5,0.1,0.8,0.2s0.5,0.1,0.8,0.2s0.5,0.2,0.7,0.3
		c0.2,0.1,0.5,0.2,0.7,0.3c0.2,0.1,0.5,0.2,0.7,0.3c0.2,0.1,0.5,0.2,0.7,0.4c0.2,0.1,0.4,0.3,0.6,0.4s0.5,0.3,0.7,0.4
		c0.2,0.2,0.4,0.3,0.7,0.5c0.2,0.1,0.4,0.3,0.6,0.4c0.3,0.2,0.5,0.5,0.8,0.7c0.1,0.1,0.2,0.2,0.4,0.3l8.3,8.2l169.7,169.7
		c10.7,10.7,17.3,25,18.5,40.1c0,0.4,0.1,0.9,0.1,1.3H5593L5519.2,1280z"/>
</g>
<g display="none" opacity="0.1">
	<rect x="3904" y="3520" display="inline" fill="#FFCC00" width="2048" height="128"/>
	<rect x="3904" y="3680" display="inline" fill="#FFCC00" width="2048" height="128"/>
	<rect x="3904" y="3360" display="inline" fill="#FFCC00" width="2048" height="128"/>
	<rect x="3904" y="3200" display="inline" fill="#FFCC00" width="2048" height="128"/>
	<rect x="3904" y="4160" display="inline" fill="#FFCC00" width="2048" height="128"/>
	<rect x="3904" y="4320" display="inline" fill="#FFCC00" width="2048" height="128"/>
	<rect x="3904" y="4480" display="inline" fill="#FFCC00" width="2048" height="128"/>
	<rect x="3904" y="4640" display="inline" fill="#FFCC00" width="2048" height="128"/>
	<rect x="3904" y="4000" display="inline" fill="#FFCC00" width="2048" height="128"/>
	<rect x="3904" y="3840" display="inline" fill="#FFCC00" width="2048" height="128"/>
	<rect x="3904" y="3040" display="inline" fill="#FFCC00" width="2048" height="128"/>
	<rect x="3904" y="2880" display="inline" fill="#FFCC00" width="2048" height="128"/>
	<rect x="3904" y="2720" display="inline" fill="#FFCC00" width="2048" height="128"/>
	<rect x="3904" y="2560" display="inline" fill="#FFCC00" width="2048" height="128"/>
	<rect x="3904" y="2400" display="inline" fill="#FFCC00" width="2048" height="128"/>
</g>
<g display="none" opacity="0.1">
	<rect x="4864" y="2560" display="inline" fill="#FFCC00" width="128" height="2048"/>
	<rect x="5024" y="2560" display="inline" fill="#FFCC00" width="128" height="2048"/>
	<rect x="4704" y="2560" display="inline" fill="#FFCC00" width="128" height="2048"/>
	<rect x="4544" y="2560" display="inline" fill="#FFCC00" width="128" height="2048"/>
	<rect x="5504" y="2560" display="inline" fill="#FFCC00" width="128" height="2048"/>
	<rect x="5664" y="2560" display="inline" fill="#FFCC00" width="128" height="2048"/>
	<rect x="5824" y="2560" display="inline" fill="#FFCC00" width="128" height="2048"/>
	<rect x="5984" y="2560" display="inline" fill="#FFCC00" width="128" height="2048"/>
	<rect x="5344" y="2560" display="inline" fill="#FFCC00" width="128" height="2048"/>
	<rect x="5184" y="2560" display="inline" fill="#FFCC00" width="128" height="2048"/>
	<rect x="4384" y="2560" display="inline" fill="#FFCC00" width="128" height="2048"/>
	<rect x="4224" y="2560" display="inline" fill="#FFCC00" width="128" height="2048"/>
	<rect x="4064" y="2560" display="inline" fill="#FFCC00" width="128" height="2048"/>
	<rect x="3904" y="2560" display="inline" fill="#FFCC00" width="128" height="2048"/>
	<rect x="3744" y="2560" display="inline" fill="#FFCC00" width="128" height="2048"/>
</g>
<g display="none" opacity="0.1">
	<rect x="2304" y="3520" display="inline" fill="#FFCC00" width="2048" height="128"/>
	<rect x="2304" y="3680" display="inline" fill="#FFCC00" width="2048" height="128"/>
	<rect x="2304" y="3360" display="inline" fill="#FFCC00" width="2048" height="128"/>
	<rect x="2304" y="3200" display="inline" fill="#FFCC00" width="2048" height="128"/>
	<rect x="2304" y="4160" display="inline" fill="#FFCC00" width="2048" height="128"/>
	<rect x="2304" y="4320" display="inline" fill="#FFCC00" width="2048" height="128"/>
	<rect x="2304" y="4480" display="inline" fill="#FFCC00" width="2048" height="128"/>
	<rect x="2304" y="4640" display="inline" fill="#FFCC00" width="2048" height="128"/>
	<rect x="2304" y="4000" display="inline" fill="#FFCC00" width="2048" height="128"/>
	<rect x="2304" y="3840" display="inline" fill="#FFCC00" width="2048" height="128"/>
	<rect x="2304" y="3040" display="inline" fill="#FFCC00" width="2048" height="128"/>
	<rect x="2304" y="2880" display="inline" fill="#FFCC00" width="2048" height="128"/>
	<rect x="2304" y="2720" display="inline" fill="#FFCC00" width="2048" height="128"/>
	<rect x="2304" y="2560" display="inline" fill="#FFCC00" width="2048" height="128"/>
	<rect x="2304" y="2400" display="inline" fill="#FFCC00" width="2048" height="128"/>
</g>
<g display="none" opacity="0.1">
	<rect x="3264" y="2560" display="inline" fill="#FFCC00" width="128" height="2048"/>
	<rect x="3424" y="2560" display="inline" fill="#FFCC00" width="128" height="2048"/>
	<rect x="3104" y="2560" display="inline" fill="#FFCC00" width="128" height="2048"/>
	<rect x="2944" y="2560" display="inline" fill="#FFCC00" width="128" height="2048"/>
	<rect x="3904" y="2560" display="inline" fill="#FFCC00" width="128" height="2048"/>
	<rect x="4064" y="2560" display="inline" fill="#FFCC00" width="128" height="2048"/>
	<rect x="4224" y="2560" display="inline" fill="#FFCC00" width="128" height="2048"/>
	<rect x="4384" y="2560" display="inline" fill="#FFCC00" width="128" height="2048"/>
	<rect x="3744" y="2560" display="inline" fill="#FFCC00" width="128" height="2048"/>
	<rect x="3584" y="2560" display="inline" fill="#FFCC00" width="128" height="2048"/>
	<rect x="2784" y="2560" display="inline" fill="#FFCC00" width="128" height="2048"/>
	<rect x="2624" y="2560" display="inline" fill="#FFCC00" width="128" height="2048"/>
	<rect x="2464" y="2560" display="inline" fill="#FFCC00" width="128" height="2048"/>
	<rect x="2304" y="2560" display="inline" fill="#FFCC00" width="128" height="2048"/>
	<rect x="2144" y="2560" display="inline" fill="#FFCC00" width="128" height="2048"/>
</g>
<rect y="3040" display="none" fill="#DFDFDF" width="9856" height="1088"/>
<path display="none" opacity="0.14" fill="#FFE620" enable-background="new    " d="M4928,2880c-388.8,0-704,315.2-704,704
	s315.2,704,704,704s704-315.2,704-704S5316.8,2880,4928,2880z M4928,4160c-318.1,0-576-257.9-576-576s257.9-576,576-576
	s576,257.9,576,576S5246.1,4160,4928,4160z"/>
<path display="none" opacity="0.14" fill="#FFE620" enable-background="new    " d="M4928,3040c-300.4,0-544,243.6-544,544
	s243.6,544,544,544s544-243.6,544-544S5228.4,3040,4928,3040z M4928,4000c-229.7,0-416-186.3-416-416s186.3-416,416-416
	s416,186.3,416,416S5157.7,4000,4928,4000z"/>
<path display="none" fill="#F2F4FF" enable-background="new    " d="M4928,3968c-212,0-384-172-384-384s172-384,384-384
	s384,172,384,384S5140,3968,4928,3968z"/>
<text transform="matrix(1 0 0 1 3354.1426 4740.4512)" display="none" fill="#888888" font-family="'ProximaNova-Regular'" font-size="180px">The first risk-free cryptocurrency project</text>
<g>
	<path fill="#888888" d="M3360.1,4640.6v-13.4h91.1v13.4H3413v106.7h-14.9v-106.7H3360.1z"/>
	<path fill="#888888" d="M3470.4,4747.3v-120.1h13.4v45.7c3.5-4,8-7.5,13.6-10.4c5.6-2.9,11.5-4.4,17.6-4.4
		c18.4,0,27.6,9.3,27.6,27.8v61.3h-13.4v-57.2c0-7.3-1.7-12.4-5.1-15.4c-3.4-3-8.2-4.5-14.5-4.5c-5,0-9.8,1.3-14.5,4
		c-4.7,2.6-8.5,5.8-11.2,9.6v63.5H3470.4z"/>
	<path fill="#888888" d="M3564.6,4703.7c0-8.3,1.8-16,5.5-22.9c3.7-6.9,8.7-12.5,15.3-16.5c6.5-4.1,13.9-6.1,22-6.1
		c8.6,0,16.1,2.1,22.5,6.2c6.4,4.2,11.2,9.7,14.5,16.7c3.3,7,4.9,14.9,4.9,23.7v3.4h-70.6c0.5,8.5,3.6,15.6,9.3,21.4
		c5.7,5.8,13,8.7,22.1,8.7c5,0,9.9-1,14.7-2.9s8.8-4.6,12.2-8.1l6.5,8.8c-8.9,8.9-20.5,13.4-34.6,13.4c-12.9,0-23.5-4.2-31.8-12.7
		C3568.8,4728.2,3564.6,4717.2,3564.6,4703.7z M3578.7,4698.3h57.1c-0.1-3.4-0.7-6.7-1.8-10c-1.1-3.3-2.8-6.4-5.1-9.3
		c-2.2-2.9-5.2-5.2-9-7c-3.8-1.8-8-2.7-12.8-2.7c-4.5,0-8.5,0.9-12.1,2.6c-3.6,1.8-6.6,4.1-8.8,6.9c-2.3,2.8-4,5.9-5.3,9.3
		C3579.6,4691.5,3578.9,4694.9,3578.7,4698.3z"/>
	<path fill="#888888" d="M3706.8,4672.1v-11.7h14.4v-6.7c0-8.9,2.3-15.8,6.8-20.8c4.5-5,10.6-7.4,18.3-7.4c5.7,0,10.1,1,13.2,3
		l-3.4,10.4c-2.4-1.5-5-2.2-7.7-2.2c-4.4,0-7.8,1.5-10.2,4.4c-2.4,2.9-3.6,7.2-3.6,12.7v6.7h17.7v11.7h-17.7v75.2h-13.4v-75.2
		H3706.8z M3768.8,4645.4c-1.8-1.7-2.7-3.9-2.7-6.4c0-2.5,0.9-4.7,2.7-6.5c1.8-1.8,3.9-2.7,6.3-2.7c2.6,0,4.7,0.9,6.6,2.7
		c1.8,1.8,2.7,4,2.7,6.5c0,2.5-0.9,4.6-2.7,6.4c-1.8,1.7-4,2.6-6.6,2.6C3772.6,4648,3770.5,4647.1,3768.8,4645.4z M3768.4,4747.3
		v-86.9h13.4v86.9H3768.4z"/>
	<path fill="#888888" d="M3809.1,4747.3v-86.9h13.4v14.1c3.7-4.9,8.1-8.7,13.1-11.6c5-2.9,10.3-4.3,16-4.3v13.9
		c-1.6-0.4-3.4-0.5-5.4-0.5c-4.1,0-8.6,1.4-13.4,4.3c-4.8,2.9-8.2,6.1-10.2,9.6v61.5H3809.1z"/>
	<path fill="#888888" d="M3860.8,4735.6l6.9-9.7c3.1,3.5,7.2,6.4,12.4,8.8s10.6,3.6,16.3,3.6c6.5,0,11.6-1.4,15.2-4.1
		c3.6-2.7,5.4-6.3,5.4-10.8c0-2.8-1-5.2-3-7.1c-2-1.9-4.6-3.3-7.8-4.3c-3.2-0.9-6.7-1.9-10.4-3c-3.7-1.1-7.6-2.2-11.4-3.3
		c-3.9-1.1-7.4-2.5-10.5-4.2c-3.2-1.7-5.7-4.1-7.7-7.2c-2-3.1-3-6.8-3-11.1c0-7.1,2.9-13.1,8.7-17.9c5.8-4.8,13.7-7.2,23.7-7.2
		c13,0,23.8,4.3,32.2,12.8l-6.2,9.3c-2.7-3.3-6.4-5.9-11-7.9c-4.6-2-9.6-3-15-3c-5.8,0-10.5,1.3-14,4c-3.5,2.7-5.3,6-5.3,10.1
		c0,2.7,1,4.9,2.9,6.6c1.9,1.8,4.5,3.1,7.6,4c3.2,0.9,6.6,1.9,10.4,2.9c3.8,1.1,7.6,2.1,11.5,3.2c3.9,1.1,7.4,2.5,10.6,4.2
		s5.8,4.2,7.8,7.3c2,3.2,3,7,3,11.4c0,7.6-3,14-9,18.9s-14.4,7.5-25.3,7.5C3881.1,4749.5,3869.4,4744.9,3860.8,4735.6z"/>
	<path fill="#888888" d="M3940.2,4672.1v-11.7h14.5v-24h13.4v24h17.8v11.7h-17.8v54.2c0,3.4,0.7,6.1,2.2,8.2c1.5,2,3.7,3,6.5,3
		c4,0,7.1-1.2,9.2-3.6l4,10.1c-3.9,3.7-9.3,5.6-16.3,5.6c-6.3,0-11.1-1.8-14.3-5.3c-3.2-3.6-4.8-8.6-4.8-15.1v-57H3940.2z"/>
	<path fill="#888888" d="M4051.4,4747.3v-86.9h13.4v14.1c3.7-4.9,8.1-8.7,13.1-11.6c5-2.9,10.3-4.3,16-4.3v13.9
		c-1.6-0.4-3.4-0.5-5.4-0.5c-4.1,0-8.6,1.4-13.4,4.3c-4.8,2.9-8.2,6.1-10.2,9.6v61.5H4051.4z"/>
	<path fill="#888888" d="M4111,4645.3c-1.8-1.8-2.7-3.9-2.7-6.4c0-2.5,0.9-4.7,2.7-6.5c1.8-1.8,3.9-2.7,6.3-2.7
		c2.5,0,4.7,0.9,6.5,2.7c1.8,1.8,2.7,3.9,2.7,6.5c0,2.5-0.9,4.7-2.7,6.4c-1.8,1.8-4,2.6-6.5,2.6
		C4114.9,4648,4112.8,4647.1,4111,4645.3z M4110.7,4747.3v-86.9h13.4v86.9H4110.7z"/>
	<path fill="#888888" d="M4143.5,4735.6l6.9-9.7c3.1,3.5,7.2,6.4,12.4,8.8s10.6,3.6,16.3,3.6c6.5,0,11.6-1.4,15.2-4.1
		c3.6-2.7,5.4-6.3,5.4-10.8c0-2.8-1-5.2-3-7.1c-2-1.9-4.6-3.3-7.8-4.3c-3.2-0.9-6.7-1.9-10.4-3c-3.7-1.1-7.6-2.2-11.4-3.3
		c-3.9-1.1-7.4-2.5-10.5-4.2c-3.2-1.7-5.7-4.1-7.7-7.2c-2-3.1-3-6.8-3-11.1c0-7.1,2.9-13.1,8.7-17.9c5.8-4.8,13.7-7.2,23.7-7.2
		c13,0,23.8,4.3,32.2,12.8l-6.2,9.3c-2.7-3.3-6.4-5.9-11-7.9c-4.6-2-9.6-3-15-3c-5.8,0-10.5,1.3-14,4c-3.5,2.7-5.3,6-5.3,10.1
		c0,2.7,1,4.9,2.9,6.6c1.9,1.8,4.5,3.1,7.6,4c3.2,0.9,6.6,1.9,10.4,2.9c3.8,1.1,7.6,2.1,11.5,3.2c3.9,1.1,7.4,2.5,10.6,4.2
		s5.8,4.2,7.8,7.3c2,3.2,3,7,3,11.4c0,7.6-3,14-9,18.9s-14.4,7.5-25.3,7.5C4163.8,4749.5,4152.2,4744.9,4143.5,4735.6z"/>
	<path fill="#888888" d="M4234.8,4747.3v-120.1h13.4v79.4l45.7-46.2h17.1l-38.5,39.4l38.7,47.5H4294l-31.3-39l-14.4,14.2v24.9
		H4234.8z"/>
	<path fill="#888888" d="M4314.3,4709.7V4698h43.2v11.7H4314.3z"/>
	<path fill="#888888" d="M4365.8,4672.1v-11.7h14.4v-6.7c0-8.8,2.2-15.8,6.7-20.7c4.5-5,10.6-7.5,18.4-7.5c7.6,0,13.7,2.2,18.4,6.6
		l-5.5,8.9c-3.3-2.9-6.9-4.4-10.8-4.4c-4.4,0-7.8,1.5-10.2,4.4c-2.4,2.9-3.6,7.2-3.6,12.7v6.7h17.7v11.7h-17.7v75.2h-13.4v-75.2
		H4365.8z"/>
	<path fill="#888888" d="M4427.3,4747.3v-86.9h13.4v14.1c3.7-4.9,8.1-8.7,13.1-11.6c5-2.9,10.3-4.3,16-4.3v13.9
		c-1.6-0.4-3.4-0.5-5.4-0.5c-4.1,0-8.6,1.4-13.4,4.3c-4.8,2.9-8.2,6.1-10.2,9.6v61.5H4427.3z"/>
	<path fill="#888888" d="M4481.5,4703.7c0-8.3,1.8-16,5.5-22.9c3.7-6.9,8.7-12.5,15.3-16.5c6.5-4.1,13.9-6.1,22-6.1
		c8.6,0,16.1,2.1,22.5,6.2c6.4,4.2,11.2,9.7,14.5,16.7c3.3,7,4.9,14.9,4.9,23.7v3.4h-70.6c0.5,8.5,3.6,15.6,9.3,21.4
		c5.7,5.8,13,8.7,22.1,8.7c5,0,9.9-1,14.7-2.9s8.8-4.6,12.2-8.1l6.5,8.8c-8.9,8.9-20.5,13.4-34.6,13.4c-12.9,0-23.5-4.2-31.8-12.7
		C4485.6,4728.2,4481.5,4717.2,4481.5,4703.7z M4495.6,4698.3h57.1c-0.1-3.4-0.7-6.7-1.8-10c-1.1-3.3-2.8-6.4-5.1-9.3
		c-2.2-2.9-5.2-5.2-9-7c-3.8-1.8-8-2.7-12.8-2.7c-4.5,0-8.5,0.9-12.1,2.6c-3.6,1.8-6.6,4.1-8.8,6.9c-2.3,2.8-4,5.9-5.3,9.3
		C4496.5,4691.5,4495.8,4694.9,4495.6,4698.3z"/>
	<path fill="#888888" d="M4582.9,4703.7c0-8.3,1.8-16,5.5-22.9c3.7-6.9,8.7-12.5,15.3-16.5c6.5-4.1,13.9-6.1,22-6.1
		c8.6,0,16.1,2.1,22.5,6.2c6.4,4.2,11.2,9.7,14.5,16.7c3.3,7,4.9,14.9,4.9,23.7v3.4h-70.6c0.5,8.5,3.6,15.6,9.3,21.4
		c5.7,5.8,13,8.7,22.1,8.7c5,0,9.9-1,14.7-2.9s8.8-4.6,12.2-8.1l6.5,8.8c-8.9,8.9-20.5,13.4-34.6,13.4c-12.9,0-23.5-4.2-31.8-12.7
		C4587,4728.2,4582.9,4717.2,4582.9,4703.7z M4596.9,4698.3h57.1c-0.1-3.4-0.7-6.7-1.8-10c-1.1-3.3-2.8-6.4-5.1-9.3
		c-2.2-2.9-5.2-5.2-9-7c-3.8-1.8-8-2.7-12.8-2.7c-4.5,0-8.5,0.9-12.1,2.6c-3.6,1.8-6.6,4.1-8.8,6.9c-2.3,2.8-4,5.9-5.3,9.3
		C4597.8,4691.5,4597.1,4694.9,4596.9,4698.3z"/>
	<path fill="#888888" d="M4730.6,4703.7c0-8.6,1.8-16.3,5.4-23.2c3.6-6.9,8.7-12.3,15.3-16.4c6.6-4,14.2-6,22.7-6
		c13.4,0,24,5,31.8,15.1l-9,8.3c-5.6-7.6-13-11.4-22.1-11.4c-9.1,0-16.4,3.1-21.9,9.4c-5.4,6.3-8.2,14.3-8.2,24.1
		c0,9.8,2.7,17.9,8.2,24.2c5.4,6.3,12.7,9.5,21.9,9.5c9.1,0,16.5-3.8,22.1-11.4l9,8.4c-7.8,10-18.4,15-31.8,15c-8.5,0-16.1-2-22.7-6
		c-6.6-4-11.7-9.5-15.3-16.4C4732.4,4720.1,4730.6,4712.3,4730.6,4703.7z"/>
	<path fill="#888888" d="M4824.7,4747.3v-86.9h13.4v14.1c3.7-4.9,8.1-8.7,13.1-11.6c5-2.9,10.3-4.3,16-4.3v13.9
		c-1.6-0.4-3.4-0.5-5.4-0.5c-4.1,0-8.6,1.4-13.4,4.3c-4.8,2.9-8.2,6.1-10.2,9.6v61.5H4824.7z"/>
	<path fill="#888888" d="M4871,4660.4h14.6l29,71.3l28.7-71.3h14.8l-43.5,104.6c-4.7,11.5-13.3,17.4-25.6,17.6
		c-3.6,0-6.9-0.4-9.9-1.2l2.2-12.2c2.2,0.9,4.6,1.4,7.4,1.4c3.2,0,5.7-0.7,7.7-2c2-1.3,3.7-3.7,5.2-7.2l5.8-13.2L4871,4660.4z"/>
	<path fill="#888888" d="M4972.2,4780.4v-120.1h13.4v12.9c3.3-4.6,7.5-8.2,12.7-11s10.7-4.1,16.7-4.1c11.5,0,20.8,4.1,27.9,12.3
		c7.1,8.2,10.7,19.3,10.7,33.3c0,13.9-3.6,25-10.7,33.3s-16.4,12.5-27.9,12.5c-5.9,0-11.4-1.3-16.5-4c-5.1-2.7-9.4-6.4-12.9-11.3
		v46.2H4972.2z M4985.7,4723.5c2.4,3.9,6,7.2,10.9,9.9c4.9,2.7,9.9,4,15,4c8.6,0,15.4-3.2,20.4-9.5c5-6.3,7.6-14.4,7.6-24.2
		c0-9.9-2.5-17.9-7.6-24.2c-5-6.2-11.8-9.4-20.4-9.4c-5.2,0-10.2,1.3-15,4c-4.9,2.7-8.5,6-10.9,9.9V4723.5z"/>
	<path fill="#888888" d="M5063.3,4672.1v-11.7h14.5v-24h13.4v24h17.8v11.7h-17.8v54.2c0,3.4,0.7,6.1,2.2,8.2c1.5,2,3.7,3,6.5,3
		c4,0,7.1-1.2,9.2-3.6l4,10.1c-3.9,3.7-9.3,5.6-16.3,5.6c-6.3,0-11.1-1.8-14.3-5.3c-3.2-3.6-4.8-8.6-4.8-15.1v-57H5063.3z"/>
	<path fill="#888888" d="M5128.1,4726.8c-3.5-6.9-5.2-14.6-5.2-23s1.7-16.1,5.2-23c3.5-6.9,8.5-12.3,15.1-16.4
		c6.6-4.1,14.2-6.2,22.8-6.2s16.2,2.1,22.8,6.2c6.6,4.1,11.5,9.6,14.9,16.4c3.4,6.9,5.1,14.5,5.1,23s-1.7,16.1-5.1,23
		c-3.4,6.9-8.4,12.4-14.9,16.5c-6.6,4.1-14.1,6.2-22.8,6.2s-16.2-2.1-22.8-6.2C5136.6,4739.2,5131.6,4733.7,5128.1,4726.8z
		 M5137,4703.7c0,9.4,2.6,17.4,7.8,23.9c5.2,6.5,12.3,9.8,21.2,9.8c6,0,11.2-1.6,15.6-4.8c4.4-3.2,7.7-7.3,9.9-12.3
		c2.2-5,3.3-10.6,3.3-16.7c0-6-1.1-11.6-3.3-16.5c-2.2-5-5.5-9.1-9.9-12.2c-4.4-3.2-9.6-4.8-15.6-4.8s-11.2,1.6-15.7,4.8
		s-7.8,7.3-10,12.3C5138.1,4692.3,5137,4697.8,5137,4703.7z"/>
	<path fill="#888888" d="M5225.9,4703.7c0-8.6,1.8-16.3,5.4-23.2c3.6-6.9,8.7-12.3,15.3-16.4c6.6-4,14.2-6,22.7-6
		c13.4,0,24,5,31.8,15.1l-9,8.3c-5.6-7.6-13-11.4-22.1-11.4c-9.1,0-16.4,3.1-21.9,9.4c-5.4,6.3-8.2,14.3-8.2,24.1
		c0,9.8,2.7,17.9,8.2,24.2c5.4,6.3,12.7,9.5,21.9,9.5c9.1,0,16.5-3.8,22.1-11.4l9,8.4c-7.8,10-18.4,15-31.8,15c-8.5,0-16.1-2-22.7-6
		c-6.6-4-11.7-9.5-15.3-16.4C5227.7,4720.1,5225.9,4712.3,5225.9,4703.7z"/>
	<path fill="#888888" d="M5320,4721.7v-61.3h13.4v57.3c0,7.3,1.7,12.4,5,15.4s8.1,4.4,14.4,4.4c5.1,0,10-1.3,14.7-3.8
		c4.7-2.5,8.4-5.6,11-9.3v-64h13.4v86.9h-13.4v-12.1c-3.6,4.1-8.2,7.5-13.6,10.2c-5.4,2.7-11.2,4.1-17.3,4.1
		C5329.2,4749.5,5320,4740.2,5320,4721.7z"/>
	<path fill="#888888" d="M5419.1,4747.3v-86.9h13.4v14.1c3.7-4.9,8.1-8.7,13.1-11.6c5-2.9,10.3-4.3,16-4.3v13.9
		c-1.6-0.4-3.4-0.5-5.4-0.5c-4.1,0-8.6,1.4-13.4,4.3c-4.8,2.9-8.2,6.1-10.2,9.6v61.5H5419.1z"/>
	<path fill="#888888" d="M5478.5,4747.3v-86.9h13.4v14.1c3.7-4.9,8.1-8.7,13.1-11.6c5-2.9,10.3-4.3,16-4.3v13.9
		c-1.6-0.4-3.4-0.5-5.4-0.5c-4.1,0-8.6,1.4-13.4,4.3c-4.8,2.9-8.2,6.1-10.2,9.6v61.5H5478.5z"/>
	<path fill="#888888" d="M5532.7,4703.7c0-8.3,1.8-16,5.5-22.9s8.7-12.5,15.3-16.5c6.5-4.1,13.9-6.1,22-6.1c8.6,0,16.1,2.1,22.5,6.2
		c6.4,4.2,11.2,9.7,14.5,16.7c3.3,7,4.9,14.9,4.9,23.7v3.4h-70.6c0.5,8.5,3.6,15.6,9.3,21.4c5.7,5.8,13,8.7,22.1,8.7
		c5,0,9.9-1,14.7-2.9s8.8-4.6,12.2-8.1l6.5,8.8c-8.9,8.9-20.5,13.4-34.6,13.4c-12.9,0-23.5-4.2-31.8-12.7
		C5536.8,4728.2,5532.7,4717.2,5532.7,4703.7z M5546.8,4698.3h57.1c-0.1-3.4-0.7-6.7-1.8-10c-1.1-3.3-2.8-6.4-5.1-9.3s-5.2-5.2-9-7
		c-3.8-1.8-8-2.7-12.8-2.7c-4.5,0-8.5,0.9-12.1,2.6s-6.6,4.1-8.8,6.9c-2.3,2.8-4,5.9-5.3,9.3S5546.9,4694.9,5546.8,4698.3z"/>
	<path fill="#888888" d="M5639.1,4747.3v-86.9h13.4v12.6c3.4-4,7.9-7.5,13.5-10.4c5.6-2.9,11.4-4.4,17.4-4.4
		c18.5,0,27.7,9.4,27.7,28.1v61h-13.4v-56.9c0-7.3-1.7-12.5-5-15.6c-3.3-3.1-8.1-4.7-14.4-4.7c-5,0-9.9,1.3-14.6,4
		c-4.7,2.6-8.4,5.8-11.1,9.6v63.5H5639.1z"/>
	<path fill="#888888" d="M5733.2,4703.7c0-8.6,1.8-16.3,5.4-23.2c3.6-6.9,8.7-12.3,15.3-16.4c6.6-4,14.2-6,22.7-6
		c13.4,0,24,5,31.8,15.1l-9,8.3c-5.6-7.6-13-11.4-22.1-11.4c-9.1,0-16.4,3.1-21.9,9.4c-5.4,6.3-8.2,14.3-8.2,24.1
		c0,9.8,2.7,17.9,8.2,24.2c5.4,6.3,12.7,9.5,21.9,9.5c9.1,0,16.5-3.8,22.1-11.4l9,8.4c-7.8,10-18.4,15-31.8,15c-8.5,0-16.1-2-22.7-6
		c-6.6-4-11.7-9.5-15.3-16.4C5735,4720.1,5733.2,4712.3,5733.2,4703.7z"/>
	<path fill="#888888" d="M5814.3,4660.4h14.6l29,71.3l28.7-71.3h14.8l-43.5,104.6c-4.7,11.5-13.3,17.4-25.6,17.6
		c-3.6,0-6.9-0.4-9.9-1.2l2.2-12.2c2.2,0.9,4.6,1.4,7.4,1.4c3.2,0,5.7-0.7,7.7-2c2-1.3,3.7-3.7,5.2-7.2l5.8-13.2L5814.3,4660.4z"/>
	<path fill="#888888" d="M5961.9,4780.4v-120.1h13.4v12.9c3.3-4.6,7.5-8.2,12.7-11s10.7-4.1,16.7-4.1c11.5,0,20.8,4.1,27.9,12.3
		c7.1,8.2,10.7,19.3,10.7,33.3c0,13.9-3.6,25-10.7,33.3s-16.4,12.5-27.9,12.5c-5.9,0-11.4-1.3-16.5-4c-5.1-2.7-9.4-6.4-12.9-11.3
		v46.2H5961.9z M5975.3,4723.5c2.4,3.9,6,7.2,10.9,9.9c4.9,2.7,9.9,4,15,4c8.6,0,15.4-3.2,20.4-9.5c5-6.3,7.6-14.4,7.6-24.2
		c0-9.9-2.5-17.9-7.6-24.2c-5-6.2-11.8-9.4-20.4-9.4c-5.2,0-10.2,1.3-15,4c-4.9,2.7-8.5,6-10.9,9.9V4723.5z"/>
	<path fill="#888888" d="M6064.8,4747.3v-86.9h13.4v14.1c3.7-4.9,8.1-8.7,13.1-11.6c5-2.9,10.3-4.3,16-4.3v13.9
		c-1.6-0.4-3.4-0.5-5.4-0.5c-4.1,0-8.6,1.4-13.4,4.3c-4.8,2.9-8.2,6.1-10.2,9.6v61.5H6064.8z"/>
	<path fill="#888888" d="M6124.2,4726.8c-3.5-6.9-5.2-14.6-5.2-23s1.7-16.1,5.2-23c3.5-6.9,8.5-12.3,15.1-16.4
		c6.6-4.1,14.2-6.2,22.8-6.2s16.2,2.1,22.8,6.2c6.6,4.1,11.5,9.6,14.9,16.4c3.4,6.9,5.1,14.5,5.1,23s-1.7,16.1-5.1,23
		c-3.4,6.9-8.4,12.4-14.9,16.5c-6.6,4.1-14.1,6.2-22.8,6.2s-16.2-2.1-22.8-6.2C6132.7,4739.2,6127.6,4733.7,6124.2,4726.8z
		 M6133.1,4703.7c0,9.4,2.6,17.4,7.8,23.9c5.2,6.5,12.3,9.8,21.2,9.8c6,0,11.2-1.6,15.6-4.8c4.4-3.2,7.7-7.3,9.9-12.3
		c2.2-5,3.3-10.6,3.3-16.7c0-6-1.1-11.6-3.3-16.5c-2.2-5-5.5-9.1-9.9-12.2c-4.4-3.2-9.6-4.8-15.6-4.8s-11.2,1.6-15.7,4.8
		s-7.8,7.3-10,12.3C6134.2,4692.3,6133.1,4697.8,6133.1,4703.7z"/>
	<path fill="#888888" d="M6195.6,4776.1l4.9-10.3c3.7,3.7,7.8,5.5,12.4,5.5c4.3,0,7.7-1.3,10.2-3.9c2.5-2.6,3.8-6.5,3.8-11.8v-95.4
		h13.4v95.4c0,8.6-2.2,15.2-6.7,19.8c-4.5,4.7-10.8,7-19.1,7c-4.2,0-7.7-0.5-10.5-1.5C6201.4,4780,6198.6,4778.4,6195.6,4776.1z
		 M6227.3,4645.3c-1.8-1.8-2.7-3.9-2.7-6.4c0-2.5,0.9-4.7,2.7-6.5c1.8-1.8,3.9-2.7,6.3-2.7c2.5,0,4.7,0.9,6.5,2.7
		c1.8,1.8,2.7,3.9,2.7,6.5c0,2.5-0.9,4.7-2.7,6.4c-1.8,1.8-4,2.6-6.5,2.6C6231.2,4648,6229.1,4647.1,6227.3,4645.3z"/>
	<path fill="#888888" d="M6262.4,4703.7c0-8.3,1.8-16,5.5-22.9s8.7-12.5,15.3-16.5c6.5-4.1,13.9-6.1,22-6.1c8.6,0,16.1,2.1,22.5,6.2
		c6.4,4.2,11.2,9.7,14.5,16.7c3.3,7,4.9,14.9,4.9,23.7v3.4h-70.6c0.5,8.5,3.6,15.6,9.3,21.4c5.7,5.8,13,8.7,22.1,8.7
		c5,0,10-1,14.7-2.9s8.8-4.6,12.2-8.1l6.5,8.8c-8.9,8.9-20.5,13.4-34.6,13.4c-12.9,0-23.5-4.2-31.8-12.7
		C6266.5,4728.2,6262.4,4717.2,6262.4,4703.7z M6276.4,4698.3h57.1c-0.1-3.4-0.7-6.7-1.8-10c-1.1-3.3-2.8-6.4-5.1-9.3
		c-2.2-2.9-5.2-5.2-9-7c-3.8-1.8-8-2.7-12.8-2.7c-4.5,0-8.5,0.9-12.1,2.6c-3.6,1.8-6.6,4.1-8.8,6.9c-2.3,2.8-4,5.9-5.3,9.3
		S6276.6,4694.9,6276.4,4698.3z"/>
	<path fill="#888888" d="M6363.7,4703.7c0-8.6,1.8-16.3,5.4-23.2c3.6-6.9,8.7-12.3,15.3-16.4c6.6-4,14.2-6,22.7-6
		c13.4,0,24,5,31.8,15.1l-9,8.3c-5.6-7.6-13-11.4-22.1-11.4c-9.1,0-16.4,3.1-21.9,9.4c-5.4,6.3-8.2,14.3-8.2,24.1
		c0,9.8,2.7,17.9,8.2,24.2c5.4,6.3,12.7,9.5,21.9,9.5c9.1,0,16.5-3.8,22.1-11.4l9,8.4c-7.8,10-18.4,15-31.8,15c-8.5,0-16.1-2-22.7-6
		c-6.6-4-11.7-9.5-15.3-16.4C6365.5,4720.1,6363.7,4712.3,6363.7,4703.7z"/>
	<path fill="#888888" d="M6446,4672.1v-11.7h14.5v-24h13.4v24h17.8v11.7h-17.8v54.2c0,3.4,0.7,6.1,2.2,8.2c1.5,2,3.7,3,6.5,3
		c4,0,7.1-1.2,9.2-3.6l4,10.1c-3.9,3.7-9.3,5.6-16.3,5.6c-6.3,0-11.1-1.8-14.3-5.3c-3.2-3.6-4.8-8.6-4.8-15.1v-57H6446z"/>
</g>
<text transform="matrix(1 0 0 1 2946.3594 3517.9211)" display="none"><tspan x="0" y="0" display="inline" fill="#333333" font-family="'ProximaNova-Regular'" font-size="320px">The most easy and fast way </tspan><tspan x="-347.1" y="320" display="inline" fill="#333333" font-family="'ProximaNova-Regular'" font-size="320px">to make money in crypto industry</tspan></text>
<g>
	<path fill="#888888" d="M2955.7,3311.3v-23.8h161.9v23.8h-67.8V3501h-26.6v-189.7H2955.7z"/>
	<path fill="#888888" d="M3151.8,3501v-213.4h23.9v81.2c6.1-7.2,14.2-13.4,24.1-18.5c9.9-5.2,20.4-7.7,31.3-7.7
		c32.7,0,49.1,16.5,49.1,49.4V3501h-23.9v-101.7c0-12.9-3-22-9-27.3c-6-5.3-14.6-8-25.9-8c-8.9,0-17.5,2.3-25.9,7
		c-8.4,4.7-15,10.4-19.9,17v113H3151.8z"/>
	<path fill="#888888" d="M3319.2,3423.5c0-14.8,3.2-28.4,9.7-40.7s15.6-22.1,27.2-29.4c11.6-7.2,24.7-10.9,39.1-10.9
		c15.3,0,28.6,3.7,40,11.1c11.4,7.4,20,17.3,25.8,29.8c5.8,12.4,8.7,26.5,8.7,42.1v6.1h-125.5c0.9,15.1,6.4,27.8,16.5,38
		c10.1,10.3,23.1,15.4,39.2,15.4c9,0,17.7-1.7,26.1-5.2s15.7-8.2,21.8-14.4l11.5,15.6c-15.9,15.8-36.4,23.8-61.6,23.8
		c-23,0-41.8-7.6-56.5-22.7C3326.6,3467.1,3319.2,3447.5,3319.2,3423.5z M3344.2,3413.9h101.6c-0.1-6-1.2-12-3.2-17.8
		c-2-5.8-5-11.3-9-16.5s-9.3-9.3-16-12.5c-6.7-3.2-14.2-4.8-22.7-4.8c-7.9,0-15.1,1.6-21.6,4.7c-6.5,3.1-11.7,7.2-15.7,12.3
		c-4,5.1-7.2,10.5-9.5,16.5S3344.6,3407.8,3344.2,3413.9z"/>
	<path fill="#888888" d="M3591,3501v-154.5h23.9v22.3c3.9-5.9,10.6-11.8,20.2-17.6c9.6-5.8,19.5-8.7,29.8-8.7
		c11.2,0,20.4,2.7,27.4,8c7,5.4,11.7,12.3,14.1,20.9c4.7-7.6,11.9-14.3,21.6-20.2c9.7-5.8,19.8-8.8,30.3-8.8
		c14.2,0,24.9,3.9,32.2,11.7c7.3,7.8,10.9,19.5,10.9,35V3501h-23.9v-105c0-10.1-2.4-18-7.1-23.6c-4.7-5.6-11.9-8.4-21.5-8.4
		c-7.6,0-15.3,2.3-23,7c-7.8,4.7-13.7,10.3-17.9,16.7V3501h-23.9v-105c0-21.4-9.5-32-28.6-32c-7.5,0-15.1,2.4-22.7,7.1
		c-7.6,4.7-13.6,10.4-18,17v113H3591z"/>
	<path fill="#888888" d="M3849.6,3464.5c-6.1-12.3-9.2-25.9-9.2-40.9s3.1-28.6,9.2-40.8c6.1-12.2,15.1-21.9,26.8-29.2
		s25.2-10.9,40.5-10.9s28.8,3.7,40.4,10.9s20.5,17,26.6,29.2c6.1,12.2,9.1,25.8,9.1,40.8s-3,28.7-9.1,40.9
		c-6.1,12.3-14.9,22.1-26.6,29.4s-25.1,11-40.4,11s-28.8-3.7-40.5-11S3855.7,3476.7,3849.6,3464.5z M3865.3,3423.5
		c0,16.7,4.6,30.8,13.9,42.5c9.3,11.6,21.8,17.4,37.7,17.4c10.6,0,19.9-2.8,27.7-8.4c7.9-5.6,13.7-12.9,17.6-21.8
		c3.9-8.9,5.8-18.8,5.8-29.6c0-10.7-1.9-20.5-5.8-29.4c-3.9-8.9-9.7-16.1-17.6-21.7c-7.9-5.6-17.1-8.4-27.7-8.4s-19.9,2.8-27.9,8.4
		c-8,5.6-13.9,12.9-17.8,21.8C3867.3,3403.1,3865.3,3412.9,3865.3,3423.5z"/>
	<path fill="#888888" d="M4018.9,3480.2l12.3-17.3c5.5,6.2,12.9,11.5,22,15.7s18.8,6.4,28.9,6.4c11.6,0,20.6-2.4,27-7.3
		c6.4-4.9,9.6-11.3,9.6-19.1c0-5-1.8-9.2-5.3-12.6c-3.5-3.4-8.1-5.9-13.9-7.6c-5.7-1.6-11.9-3.4-18.6-5.3s-13.4-3.8-20.3-5.8
		s-13.1-4.4-18.7-7.4c-5.6-3-10.2-7.3-13.8-12.8c-3.5-5.5-5.3-12.2-5.3-19.8c0-12.7,5.1-23.3,15.4-31.9
		c10.3-8.6,24.3-12.9,42.1-12.9c23.2,0,42.2,7.6,57.3,22.8l-11.1,16.5c-4.8-5.8-11.3-10.5-19.5-14.1c-8.2-3.6-17.1-5.4-26.7-5.4
		c-10.3,0-18.6,2.4-24.9,7.2c-6.3,4.8-9.4,10.8-9.4,17.9c0,4.7,1.7,8.6,5.2,11.7s8,5.5,13.6,7c5.6,1.6,11.8,3.3,18.5,5.2
		c6.7,1.9,13.5,3.8,20.4,5.8c6.9,2,13.2,4.5,18.9,7.5s10.3,7.4,13.9,13.1c3.6,5.7,5.4,12.4,5.4,20.2c0,13.6-5.3,24.8-16,33.6
		s-25.6,13.3-44.9,13.3C4055,3504.9,4034.2,3496.6,4018.9,3480.2z"/>
	<path fill="#888888" d="M4160,3367.2v-20.8h25.8v-42.7h23.9v42.7h31.6v20.8h-31.6v96.3c0,6.1,1.3,10.9,4,14.5
		c2.7,3.6,6.5,5.4,11.6,5.4c7.2,0,12.7-2.1,16.4-6.4l7,17.9c-7,6.6-16.6,9.9-28.9,9.9c-11.2,0-19.7-3.2-25.4-9.5
		c-5.7-6.3-8.6-15.3-8.6-26.9v-101.3H4160z"/>
	<path fill="#888888" d="M4348.6,3423.5c0-14.8,3.2-28.4,9.7-40.7s15.6-22.1,27.2-29.4c11.6-7.2,24.7-10.9,39.1-10.9
		c15.3,0,28.6,3.7,40,11.1c11.4,7.4,20,17.3,25.8,29.8c5.8,12.4,8.7,26.5,8.7,42.1v6.1h-125.5c0.9,15.1,6.4,27.8,16.5,38
		c10.1,10.3,23.1,15.4,39.2,15.4c9,0,17.7-1.7,26.1-5.2s15.7-8.2,21.8-14.4l11.5,15.6c-15.9,15.8-36.4,23.8-61.6,23.8
		c-23,0-41.8-7.6-56.5-22.7C4356,3467.1,4348.6,3447.5,4348.6,3423.5z M4373.6,3413.9h101.6c-0.1-6-1.2-12-3.2-17.8
		c-2-5.8-5-11.3-9-16.5s-9.3-9.3-16-12.5c-6.7-3.2-14.2-4.8-22.7-4.8c-7.9,0-15.1,1.6-21.6,4.7c-6.5,3.1-11.7,7.2-15.7,12.3
		c-4,5.1-7.2,10.5-9.5,16.5S4373.9,3407.8,4373.6,3413.9z"/>
	<path fill="#888888" d="M4529.1,3453.5c0-8.4,1.6-15.9,4.7-22.6s7.3-12,12.6-16.1s11-7.1,17.3-9.2c6.3-2.1,12.9-3.2,19.7-3.2
		c21.9,0,39,7.1,51.1,21.2v-27.7c0-10.1-3.6-18-10.9-23.8c-7.3-5.8-16.6-8.7-28.1-8.7c-18.1,0-33.9,7.1-47.3,21.4l-11.4-16.6
		c16.4-17.1,37.1-25.6,62-25.6c8.4,0,16.1,1,23.1,3c7,2,13.3,5,18.8,9c5.6,4,9.9,9.5,13,16.3c3.1,6.9,4.7,14.8,4.7,23.9V3501h-23.9
		v-17.7c-13.1,14.4-30.1,21.6-51.1,21.6c-9.1,0-17.7-1.9-25.7-5.6s-14.8-9.6-20.3-17.6C4531.8,3473.6,4529.1,3464.2,4529.1,3453.5z
		 M4554.1,3453.8c0,9.7,3.6,17.8,10.7,24c7.1,6.3,16.2,9.4,27.4,9.4c8.7,0,16.9-1.6,24.4-4.9c7.5-3.3,13.5-8,18-14.2v-28.9
		c-4.5-6.2-10.5-11-18-14.2c-7.5-3.3-15.7-4.9-24.4-4.9c-11.1,0-20.2,3.2-27.4,9.5C4557.7,3435.8,4554.1,3443.9,4554.1,3453.8z"/>
	<path fill="#888888" d="M4692.9,3480.2l12.3-17.3c5.5,6.2,12.9,11.5,22,15.7s18.8,6.4,28.9,6.4c11.6,0,20.6-2.4,27-7.3
		c6.4-4.9,9.6-11.3,9.6-19.1c0-5-1.8-9.2-5.3-12.6c-3.5-3.4-8.1-5.9-13.9-7.6c-5.7-1.6-11.9-3.4-18.6-5.3s-13.4-3.8-20.3-5.8
		s-13.1-4.4-18.7-7.4c-5.6-3-10.2-7.3-13.8-12.8c-3.5-5.5-5.3-12.2-5.3-19.8c0-12.7,5.1-23.3,15.4-31.9
		c10.3-8.6,24.3-12.9,42.1-12.9c23.2,0,42.2,7.6,57.3,22.8l-11.1,16.5c-4.8-5.8-11.3-10.5-19.5-14.1c-8.2-3.6-17.1-5.4-26.7-5.4
		c-10.3,0-18.6,2.4-24.9,7.2c-6.3,4.8-9.4,10.8-9.4,17.9c0,4.7,1.7,8.6,5.2,11.7s8,5.5,13.6,7c5.6,1.6,11.8,3.3,18.5,5.2
		c6.7,1.9,13.5,3.8,20.4,5.8c6.9,2,13.2,4.5,18.9,7.5s10.3,7.4,13.9,13.1c3.6,5.7,5.4,12.4,5.4,20.2c0,13.6-5.3,24.8-16,33.6
		s-25.6,13.3-44.9,13.3C4729,3504.9,4708.3,3496.6,4692.9,3480.2z"/>
	<path fill="#888888" d="M4832.1,3346.4h25.9l51.6,126.7l51.1-126.7h26.2l-77.3,185.9c-8.4,20.5-23.6,30.9-45.5,31.2
		c-6.5,0-12.3-0.7-17.7-2.2l3.9-21.7c3.9,1.7,8.2,2.5,13.1,2.5c5.6,0,10.2-1.2,13.8-3.5c3.5-2.3,6.6-6.6,9.2-12.7l10.3-23.4
		L4832.1,3346.4z"/>
	<path fill="#888888" d="M5085.7,3453.5c0-8.4,1.6-15.9,4.7-22.6c3.1-6.7,7.3-12,12.6-16.1s11-7.1,17.3-9.2
		c6.3-2.1,12.9-3.2,19.7-3.2c21.9,0,39,7.1,51.2,21.2v-27.7c0-10.1-3.6-18-10.9-23.8c-7.3-5.8-16.6-8.7-28.1-8.7
		c-18.1,0-33.9,7.1-47.3,21.4l-11.4-16.6c16.4-17.1,37.1-25.6,62-25.6c8.4,0,16.1,1,23.1,3c7,2,13.3,5,18.8,9c5.6,4,9.9,9.5,13,16.3
		c3.1,6.9,4.7,14.8,4.7,23.9V3501h-23.9v-17.7c-13.1,14.4-30.1,21.6-51.2,21.6c-9.1,0-17.7-1.9-25.7-5.6
		c-8.1-3.8-14.8-9.6-20.3-17.6C5088.4,3473.6,5085.7,3464.2,5085.7,3453.5z M5110.7,3453.8c0,9.7,3.6,17.8,10.7,24
		c7.1,6.3,16.2,9.4,27.4,9.4c8.7,0,16.9-1.6,24.4-4.9c7.5-3.3,13.5-8,18-14.2v-28.9c-4.5-6.2-10.5-11-18-14.2
		c-7.5-3.3-15.7-4.9-24.4-4.9c-11.1,0-20.2,3.2-27.4,9.5C5114.2,3435.8,5110.7,3443.9,5110.7,3453.8z"/>
	<path fill="#888888" d="M5263,3501v-154.5h23.9v22.3c6-7.2,14-13.4,24-18.5c9.9-5.2,20.3-7.7,31-7.7c32.8,0,49.2,16.7,49.2,50V3501
		h-23.9v-101.1c0-12.9-3-22.1-8.9-27.7c-5.9-5.5-14.5-8.3-25.6-8.3c-9,0-17.6,2.3-26,7c-8.4,4.7-15,10.4-19.8,17v113H5263z"/>
	<path fill="#888888" d="M5430.2,3423.8c0-24.5,6.4-44.2,19.1-59c12.8-14.9,29.3-22.3,49.8-22.3c10.3,0,20,2.4,29,7.2
		c9,4.8,16.7,11.5,23,20v-82.2h23.9V3501h-23.9v-22.8c-6,8.1-13.6,14.6-22.7,19.4c-9.1,4.9-18.9,7.3-29.4,7.3
		c-20.4,0-37-7.3-49.8-21.9C5436.6,3468.3,5430.2,3448.6,5430.2,3423.8z M5468.5,3380.7c-8.9,11.2-13.4,25.6-13.4,43.1
		c0,17.5,4.5,31.8,13.4,42.9c8.9,11.1,21,16.7,36.2,16.7c9.4,0,18.4-2.3,27-7c8.6-4.6,15.1-10.4,19.5-17.3V3389
		c-4.5-7-11-12.9-19.6-17.8c-8.6-4.8-17.5-7.3-26.8-7.3C5489.5,3363.9,5477.5,3369.5,5468.5,3380.7z"/>
	<path fill="#888888" d="M5686.8,3367.2v-20.8h25.6v-11.9c0-15.7,4-28,12-36.9c8-8.9,18.9-13.3,32.7-13.3c13.4,0,24.3,3.9,32.7,11.8
		l-9.8,15.8c-5.9-5.2-12.3-7.8-19.2-7.8c-7.8,0-13.8,2.6-18,7.9c-4.2,5.2-6.3,12.7-6.3,22.5v11.8h31.4v20.8h-31.4V3501h-23.9v-133.8
		H5686.8z"/>
	<path fill="#888888" d="M5787.4,3453.5c0-8.4,1.6-15.9,4.7-22.6c3.1-6.7,7.3-12,12.6-16.1s11-7.1,17.3-9.2
		c6.3-2.1,12.9-3.2,19.7-3.2c21.9,0,39,7.1,51.2,21.2v-27.7c0-10.1-3.6-18-10.9-23.8c-7.3-5.8-16.6-8.7-28.1-8.7
		c-18.1,0-33.9,7.1-47.3,21.4l-11.4-16.6c16.4-17.1,37.1-25.6,62-25.6c8.4,0,16.1,1,23.1,3c7,2,13.3,5,18.8,9c5.6,4,9.9,9.5,13,16.3
		c3.1,6.9,4.7,14.8,4.7,23.9V3501h-23.9v-17.7c-13.1,14.4-30.1,21.6-51.2,21.6c-9.1,0-17.7-1.9-25.7-5.6
		c-8.1-3.8-14.8-9.6-20.3-17.6C5790.1,3473.6,5787.4,3464.2,5787.4,3453.5z M5812.4,3453.8c0,9.7,3.6,17.8,10.7,24
		c7.1,6.3,16.2,9.4,27.4,9.4c8.7,0,16.9-1.6,24.4-4.9c7.5-3.3,13.5-8,18-14.2v-28.9c-4.5-6.2-10.5-11-18-14.2
		c-7.5-3.3-15.7-4.9-24.4-4.9c-11.1,0-20.2,3.2-27.4,9.5C5815.9,3435.8,5812.4,3443.9,5812.4,3453.8z"/>
	<path fill="#888888" d="M5951.2,3480.2l12.3-17.3c5.5,6.2,12.9,11.5,22,15.7c9.2,4.2,18.8,6.4,28.9,6.4c11.6,0,20.6-2.4,27-7.3
		c6.4-4.9,9.6-11.3,9.6-19.1c0-5-1.8-9.2-5.3-12.6c-3.5-3.4-8.2-5.9-13.9-7.6c-5.7-1.6-11.9-3.4-18.6-5.3s-13.4-3.8-20.3-5.8
		c-6.9-2-13.1-4.4-18.7-7.4c-5.6-3-10.2-7.3-13.8-12.8c-3.5-5.5-5.3-12.2-5.3-19.8c0-12.7,5.1-23.3,15.4-31.9
		c10.3-8.6,24.3-12.9,42.1-12.9c23.2,0,42.2,7.6,57.3,22.8l-11.1,16.5c-4.8-5.8-11.3-10.5-19.5-14.1c-8.2-3.6-17.1-5.4-26.7-5.4
		c-10.3,0-18.6,2.4-24.9,7.2c-6.3,4.8-9.4,10.8-9.4,17.9c0,4.7,1.7,8.6,5.2,11.7s8,5.5,13.6,7c5.6,1.6,11.8,3.3,18.5,5.2
		c6.7,1.9,13.5,3.8,20.4,5.8c6.9,2,13.2,4.5,18.9,7.5s10.3,7.4,13.9,13.1c3.6,5.7,5.4,12.4,5.4,20.2c0,13.6-5.3,24.8-16,33.6
		c-10.6,8.8-25.6,13.3-44.9,13.3C5987.3,3504.9,5966.5,3496.6,5951.2,3480.2z"/>
	<path fill="#888888" d="M6092.4,3367.2v-20.8h25.8v-42.7h23.9v42.7h31.6v20.8h-31.6v96.3c0,6.1,1.3,10.9,4,14.5
		c2.7,3.6,6.5,5.4,11.6,5.4c7.2,0,12.7-2.1,16.4-6.4l7,17.9c-7,6.6-16.6,9.9-28.9,9.9c-11.2,0-19.7-3.2-25.4-9.5
		c-5.7-6.3-8.6-15.3-8.6-26.9v-101.3H6092.4z"/>
	<path fill="#888888" d="M6269.9,3346.4h25l37.8,123.1l40.6-123.1h20.4l40.6,123.1l37.8-123.1h25l-49.4,154.5h-23.9l-40.3-124.2
		l-40.3,124.2h-24L6269.9,3346.4z"/>
	<path fill="#888888" d="M6516.1,3453.5c0-8.4,1.6-15.9,4.7-22.6c3.1-6.7,7.3-12,12.6-16.1s11-7.1,17.3-9.2
		c6.3-2.1,12.9-3.2,19.7-3.2c21.9,0,39,7.1,51.2,21.2v-27.7c0-10.1-3.6-18-10.9-23.8c-7.3-5.8-16.6-8.7-28.1-8.7
		c-18.1,0-33.9,7.1-47.3,21.4l-11.4-16.6c16.4-17.1,37.1-25.6,62-25.6c8.4,0,16.1,1,23.1,3c7,2,13.3,5,18.8,9c5.6,4,9.9,9.5,13,16.3
		c3.1,6.9,4.7,14.8,4.7,23.9V3501h-23.9v-17.7c-13.1,14.4-30.1,21.6-51.2,21.6c-9.1,0-17.7-1.9-25.7-5.6
		c-8.1-3.8-14.8-9.6-20.3-17.6C6518.9,3473.6,6516.1,3464.2,6516.1,3453.5z M6541.1,3453.8c0,9.7,3.6,17.8,10.7,24
		c7.1,6.3,16.2,9.4,27.4,9.4c8.7,0,16.9-1.6,24.4-4.9c7.5-3.3,13.5-8,18-14.2v-28.9c-4.5-6.2-10.5-11-18-14.2
		c-7.5-3.3-15.7-4.9-24.4-4.9c-11.1,0-20.2,3.2-27.4,9.5C6544.7,3435.8,6541.1,3443.9,6541.1,3453.8z"/>
	<path fill="#888888" d="M6670.3,3346.4h25.9l51.6,126.7l51.1-126.7h26.2l-77.3,185.9c-8.4,20.5-23.6,30.9-45.5,31.2
		c-6.5,0-12.3-0.7-17.7-2.2l3.9-21.7c3.9,1.7,8.2,2.5,13.1,2.5c5.6,0,10.2-1.2,13.8-3.5c3.5-2.3,6.6-6.6,9.2-12.7l10.3-23.4
		L6670.3,3346.4z"/>
	<path fill="#888888" d="M2601.7,3687.2v-20.8h25.8v-42.7h23.9v42.7h31.6v20.8h-31.6v96.3c0,6.1,1.3,10.9,4,14.5
		c2.7,3.6,6.5,5.4,11.6,5.4c7.2,0,12.7-2.1,16.4-6.4l7,17.9c-7,6.6-16.6,9.9-28.9,9.9c-11.2,0-19.7-3.2-25.4-9.5
		c-5.7-6.3-8.6-15.3-8.6-26.9v-101.3H2601.7z"/>
	<path fill="#888888" d="M2717,3784.5c-6.1-12.3-9.2-25.9-9.2-40.9s3.1-28.6,9.2-40.8c6.1-12.2,15.1-21.9,26.8-29.2
		s25.2-10.9,40.5-10.9s28.8,3.7,40.4,10.9s20.5,17,26.6,29.2c6.1,12.2,9.1,25.8,9.1,40.8s-3,28.7-9.1,40.9
		c-6.1,12.3-14.9,22.1-26.6,29.4s-25.1,11-40.4,11s-28.8-3.7-40.5-11S2723.1,3796.7,2717,3784.5z M2732.8,3743.5
		c0,16.7,4.6,30.8,13.9,42.5c9.3,11.6,21.8,17.4,37.7,17.4c10.6,0,19.9-2.8,27.7-8.4c7.9-5.6,13.7-12.9,17.6-21.8
		c3.9-8.9,5.8-18.8,5.8-29.6c0-10.7-1.9-20.5-5.8-29.4c-3.9-8.9-9.7-16.1-17.6-21.7c-7.9-5.6-17.1-8.4-27.7-8.4s-19.9,2.8-27.9,8.4
		c-8,5.6-13.9,12.9-17.8,21.8C2734.7,3723.1,2732.8,3732.9,2732.8,3743.5z"/>
	<path fill="#888888" d="M2982.3,3821v-154.5h23.9v22.3c3.9-5.9,10.6-11.8,20.2-17.6c9.6-5.8,19.5-8.7,29.8-8.7
		c11.2,0,20.4,2.7,27.4,8c7,5.4,11.7,12.3,14.1,20.9c4.7-7.6,11.9-14.3,21.6-20.2c9.7-5.8,19.8-8.8,30.3-8.8
		c14.2,0,24.9,3.9,32.2,11.7c7.3,7.8,10.9,19.5,10.9,35V3821h-23.9v-105c0-10.1-2.4-18-7.1-23.6c-4.7-5.6-11.9-8.4-21.5-8.4
		c-7.6,0-15.3,2.3-23,7c-7.8,4.7-13.7,10.3-17.9,16.7V3821h-23.9v-105c0-21.4-9.5-32-28.6-32c-7.5,0-15.1,2.4-22.7,7.1
		c-7.6,4.7-13.6,10.4-18,17v113H2982.3z"/>
	<path fill="#888888" d="M3232,3773.5c0-8.4,1.6-15.9,4.7-22.6s7.3-12,12.6-16.1s11-7.1,17.3-9.2c6.3-2.1,12.9-3.2,19.7-3.2
		c21.9,0,39,7.1,51.1,21.2v-27.7c0-10.1-3.6-18-10.9-23.8c-7.3-5.8-16.6-8.7-28.1-8.7c-18.1,0-33.9,7.1-47.3,21.4l-11.4-16.6
		c16.4-17.1,37.1-25.6,62-25.6c8.4,0,16.1,1,23.1,3c7,2,13.3,5,18.8,9c5.6,4,9.9,9.5,13,16.3c3.1,6.9,4.7,14.8,4.7,23.9V3821h-23.9
		v-17.7c-13.1,14.4-30.1,21.6-51.1,21.6c-9.1,0-17.7-1.9-25.7-5.6s-14.8-9.6-20.3-17.6C3234.7,3793.6,3232,3784.2,3232,3773.5z
		 M3257,3773.8c0,9.7,3.6,17.8,10.7,24c7.1,6.3,16.2,9.4,27.4,9.4c8.7,0,16.9-1.6,24.4-4.9c7.5-3.3,13.5-8,18-14.2v-28.9
		c-4.5-6.2-10.5-11-18-14.2c-7.5-3.3-15.7-4.9-24.4-4.9c-11.1,0-20.2,3.2-27.4,9.5C3260.5,3755.8,3257,3763.9,3257,3773.8z"/>
	<path fill="#888888" d="M3409.3,3821v-213.4h23.9v141.1l81.2-82.2h30.5l-68.4,70l68.8,84.5h-30.8l-55.6-69.4l-25.6,25.2v44.2
		H3409.3z"/>
	<path fill="#888888" d="M3563.7,3743.5c0-14.8,3.2-28.4,9.7-40.7s15.6-22.1,27.2-29.4c11.6-7.2,24.7-10.9,39.1-10.9
		c15.3,0,28.6,3.7,40,11.1c11.4,7.4,20,17.3,25.8,29.8c5.8,12.4,8.7,26.5,8.7,42.1v6.1h-125.5c0.9,15.1,6.4,27.8,16.5,38
		c10.1,10.3,23.1,15.4,39.2,15.4c9,0,17.7-1.7,26.1-5.2s15.7-8.2,21.8-14.4l11.5,15.6c-15.9,15.8-36.4,23.8-61.6,23.8
		c-23,0-41.8-7.6-56.5-22.7C3571,3787.1,3563.7,3767.5,3563.7,3743.5z M3588.7,3733.9h101.6c-0.1-6-1.2-12-3.2-17.8
		c-2-5.8-5-11.3-9-16.5s-9.3-9.3-16-12.5c-6.7-3.2-14.2-4.8-22.7-4.8c-7.9,0-15.1,1.6-21.6,4.7c-6.5,3.1-11.7,7.2-15.7,12.3
		c-4,5.1-7.2,10.5-9.5,16.5S3589,3727.8,3588.7,3733.9z"/>
	<path fill="#888888" d="M3835.4,3821v-154.5h23.9v22.3c3.9-5.9,10.6-11.8,20.2-17.6c9.6-5.8,19.5-8.7,29.8-8.7
		c11.2,0,20.4,2.7,27.4,8c7,5.4,11.7,12.3,14.1,20.9c4.7-7.6,11.9-14.3,21.6-20.2c9.7-5.8,19.8-8.8,30.3-8.8
		c14.2,0,24.9,3.9,32.2,11.7c7.3,7.8,10.9,19.5,10.9,35V3821H4022v-105c0-10.1-2.4-18-7.1-23.6c-4.7-5.6-11.9-8.4-21.5-8.4
		c-7.6,0-15.3,2.3-23,7c-7.8,4.7-13.7,10.3-17.9,16.7V3821h-23.9v-105c0-21.4-9.5-32-28.6-32c-7.5,0-15.1,2.4-22.7,7.1
		c-7.6,4.7-13.6,10.4-18,17v113H3835.4z"/>
	<path fill="#888888" d="M4094,3784.5c-6.1-12.3-9.2-25.9-9.2-40.9s3.1-28.6,9.2-40.8c6.1-12.2,15.1-21.9,26.8-29.2
		s25.2-10.9,40.5-10.9s28.8,3.7,40.4,10.9s20.5,17,26.6,29.2c6.1,12.2,9.1,25.8,9.1,40.8s-3,28.7-9.1,40.9
		c-6.1,12.3-14.9,22.1-26.6,29.4s-25.1,11-40.4,11s-28.8-3.7-40.5-11S4100.2,3796.7,4094,3784.5z M4109.8,3743.5
		c0,16.7,4.6,30.8,13.9,42.5c9.3,11.6,21.8,17.4,37.7,17.4c10.6,0,19.9-2.8,27.7-8.4c7.9-5.6,13.7-12.9,17.6-21.8
		c3.9-8.9,5.8-18.8,5.8-29.6c0-10.7-1.9-20.5-5.8-29.4c-3.9-8.9-9.7-16.1-17.6-21.7c-7.9-5.6-17.1-8.4-27.7-8.4s-19.9,2.8-27.9,8.4
		c-8,5.6-13.9,12.9-17.8,21.8C4111.8,3723.1,4109.8,3732.9,4109.8,3743.5z"/>
	<path fill="#888888" d="M4276.8,3821v-154.5h23.9v22.3c6-7.2,14-13.4,24-18.5c9.9-5.2,20.3-7.7,31-7.7c32.8,0,49.2,16.7,49.2,50
		V3821H4381v-101.1c0-12.9-3-22.1-8.9-27.7c-5.9-5.5-14.5-8.3-25.6-8.3c-9,0-17.6,2.3-26,7c-8.4,4.7-15,10.4-19.8,17v113H4276.8z"/>
	<path fill="#888888" d="M4444,3743.5c0-14.8,3.2-28.4,9.7-40.7s15.6-22.1,27.2-29.4c11.6-7.2,24.7-10.9,39.1-10.9
		c15.3,0,28.6,3.7,40,11.1c11.4,7.4,20,17.3,25.8,29.8c5.8,12.4,8.7,26.5,8.7,42.1v6.1H4469c0.9,15.1,6.4,27.8,16.5,38
		c10.1,10.3,23.1,15.4,39.2,15.4c9,0,17.7-1.7,26.1-5.2s15.7-8.2,21.8-14.4l11.5,15.6c-15.9,15.8-36.4,23.8-61.6,23.8
		c-23,0-41.8-7.6-56.5-22.7C4451.4,3787.1,4444,3767.5,4444,3743.5z M4469,3733.9h101.6c-0.1-6-1.2-12-3.2-17.8
		c-2-5.8-5-11.3-9-16.5s-9.3-9.3-16-12.5c-6.7-3.2-14.2-4.8-22.7-4.8c-7.9,0-15.1,1.6-21.6,4.7c-6.5,3.1-11.7,7.2-15.7,12.3
		c-4,5.1-7.2,10.5-9.5,16.5S4469.3,3727.8,4469,3733.9z"/>
	<path fill="#888888" d="M4610.1,3666.4h25.9l51.6,126.7l51.1-126.7h26.2l-77.3,185.9c-8.4,20.5-23.6,30.9-45.5,31.2
		c-6.5,0-12.3-0.7-17.7-2.2l3.9-21.7c3.9,1.7,8.2,2.5,13.1,2.5c5.6,0,10.2-1.2,13.8-3.5c3.5-2.3,6.6-6.6,9.2-12.7l10.3-23.4
		L4610.1,3666.4z"/>
	<path fill="#888888" d="M4873,3639.7c-3.2-3.1-4.8-6.9-4.8-11.4c0-4.5,1.6-8.3,4.8-11.5c3.2-3.2,6.9-4.8,11.2-4.8
		c4.5,0,8.3,1.6,11.6,4.8c3.2,3.2,4.8,7,4.8,11.5c0,4.5-1.6,8.3-4.8,11.4c-3.2,3.1-7.1,4.7-11.6,4.7
		C4879.9,3644.4,4876.2,3642.8,4873,3639.7z M4872.5,3821v-154.5h23.9V3821H4872.5z"/>
	<path fill="#888888" d="M4944.3,3821v-154.5h23.9v22.3c6-7.2,14-13.4,24-18.5c9.9-5.2,20.3-7.7,31-7.7c32.8,0,49.2,16.7,49.2,50
		V3821h-23.9v-101.1c0-12.9-3-22.1-8.9-27.7c-5.9-5.5-14.5-8.3-25.6-8.3c-9,0-17.6,2.3-26,7c-8.4,4.7-15,10.4-19.8,17v113H4944.3z"
		/>
	<path fill="#888888" d="M5194,3743.5c0-15.2,3.2-29,9.6-41.2s15.5-21.9,27.3-29.1c11.8-7.1,25.2-10.7,40.3-10.7
		c23.9,0,42.7,9,56.6,26.9l-15.9,14.7c-9.9-13.5-23-20.2-39.4-20.2c-16.2,0-29.2,5.6-38.9,16.7c-9.7,11.2-14.5,25.5-14.5,42.9
		c0,17.4,4.8,31.8,14.5,43c9.7,11.3,22.7,16.9,38.9,16.9c16.1,0,29.3-6.7,39.4-20.2l15.9,14.9c-13.9,17.8-32.7,26.7-56.6,26.7
		c-15.1,0-28.5-3.6-40.3-10.7c-11.8-7.1-20.9-16.9-27.3-29.2S5194,3758.8,5194,3743.5z"/>
	<path fill="#888888" d="M5361.4,3821v-154.5h23.9v25c6.7-8.6,14.4-15.5,23.2-20.6c8.8-5.1,18.3-7.7,28.4-7.7v24.7
		c-2.8-0.6-6-0.9-9.7-0.9c-7.3,0-15.2,2.6-23.8,7.7c-8.5,5.1-14.6,10.8-18.1,17V3821H5361.4z"/>
	<path fill="#888888" d="M5443.7,3666.4h25.9l51.6,126.7l51.1-126.7h26.2l-77.3,185.9c-8.4,20.5-23.6,30.9-45.5,31.2
		c-6.5,0-12.3-0.7-17.7-2.2l3.9-21.7c3.9,1.7,8.2,2.5,13.1,2.5c5.6,0,10.2-1.2,13.8-3.5c3.5-2.3,6.6-6.6,9.2-12.7l10.3-23.4
		L5443.7,3666.4z"/>
	<path fill="#888888" d="M5623.5,3879.9v-213.4h23.9v23c5.8-8.1,13.4-14.6,22.6-19.5c9.2-4.9,19.1-7.3,29.6-7.3
		c20.5,0,37,7.3,49.7,21.8c12.6,14.5,18.9,34.3,18.9,59.2c0,24.7-6.3,44.4-18.9,59.2c-12.6,14.8-29.2,22.2-49.7,22.2
		c-10.5,0-20.3-2.4-29.3-7.1c-9-4.7-16.6-11.4-22.9-20.1v82.2H5623.5z M5647.5,3778.6c4.3,7,10.7,12.9,19.4,17.7
		c8.6,4.8,17.6,7.2,26.7,7.2c15.2,0,27.3-5.6,36.2-16.8c9-11.2,13.4-25.6,13.4-43.1c0-17.5-4.5-31.8-13.4-42.9
		c-9-11.1-21-16.7-36.2-16.7c-9.2,0-18.1,2.4-26.7,7.2c-8.6,4.8-15.1,10.6-19.4,17.5V3778.6z"/>
	<path fill="#888888" d="M5785.4,3687.2v-20.8h25.8v-42.7h23.9v42.7h31.6v20.8h-31.6v96.3c0,6.1,1.3,10.9,4,14.5
		c2.7,3.6,6.5,5.4,11.6,5.4c7.2,0,12.7-2.1,16.4-6.4l7,17.9c-7,6.6-16.6,9.9-28.9,9.9c-11.2,0-19.7-3.2-25.4-9.5
		c-5.7-6.3-8.6-15.3-8.6-26.9v-101.3H5785.4z"/>
	<path fill="#888888" d="M5900.7,3784.5c-6.1-12.3-9.2-25.9-9.2-40.9s3.1-28.6,9.2-40.8c6.1-12.2,15.1-21.9,26.8-29.2
		s25.2-10.9,40.5-10.9s28.8,3.7,40.4,10.9s20.5,17,26.6,29.2c6.1,12.2,9.1,25.8,9.1,40.8s-3,28.7-9.1,40.9
		c-6.1,12.3-14.9,22.1-26.6,29.4s-25.1,11-40.4,11s-28.8-3.7-40.5-11S5906.9,3796.7,5900.7,3784.5z M5916.5,3743.5
		c0,16.7,4.6,30.8,13.9,42.5c9.3,11.6,21.8,17.4,37.7,17.4c10.6,0,19.9-2.8,27.7-8.4c7.9-5.6,13.7-12.9,17.6-21.8
		c3.9-8.9,5.8-18.8,5.8-29.6c0-10.7-1.9-20.5-5.8-29.4c-3.9-8.9-9.7-16.1-17.6-21.7c-7.9-5.6-17.1-8.4-27.7-8.4s-19.9,2.8-27.9,8.4
		c-8,5.6-13.9,12.9-17.8,21.8C5918.5,3723.1,5916.5,3732.9,5916.5,3743.5z"/>
	<path fill="#888888" d="M6166.6,3639.7c-3.2-3.1-4.8-6.9-4.8-11.4c0-4.5,1.6-8.3,4.8-11.5c3.2-3.2,6.9-4.8,11.2-4.8
		c4.5,0,8.3,1.6,11.6,4.8c3.2,3.2,4.8,7,4.8,11.5c0,4.5-1.6,8.3-4.8,11.4c-3.2,3.1-7.1,4.7-11.6,4.7
		C6173.5,3644.4,6169.8,3642.8,6166.6,3639.7z M6166,3821v-154.5h23.9V3821H6166z"/>
	<path fill="#888888" d="M6237.9,3821v-154.5h23.9v22.3c6-7.2,14-13.4,24-18.5c9.9-5.2,20.3-7.7,31-7.7c32.8,0,49.2,16.7,49.2,50
		V3821h-23.9v-101.1c0-12.9-3-22.1-8.9-27.7c-5.9-5.5-14.5-8.3-25.6-8.3c-9,0-17.6,2.3-26,7c-8.4,4.7-15,10.4-19.8,17v113H6237.9z"
		/>
	<path fill="#888888" d="M6405.1,3743.8c0-24.5,6.4-44.2,19.1-59c12.8-14.9,29.3-22.3,49.8-22.3c10.3,0,20,2.4,29,7.2
		c9,4.8,16.7,11.5,23,20v-82.2h23.9V3821H6526v-22.8c-6,8.1-13.6,14.6-22.7,19.4c-9.1,4.9-18.9,7.3-29.4,7.3
		c-20.4,0-37-7.3-49.8-21.9C6411.5,3788.3,6405.1,3768.6,6405.1,3743.8z M6443.5,3700.7c-8.9,11.2-13.4,25.6-13.4,43.1
		c0,17.5,4.5,31.8,13.4,42.9c8.9,11.1,21,16.7,36.2,16.7c9.4,0,18.4-2.3,27-7c8.6-4.6,15.1-10.4,19.5-17.3V3709
		c-4.5-7-11-12.9-19.6-17.8c-8.6-4.8-17.5-7.3-26.8-7.3C6464.4,3683.9,6452.4,3689.5,6443.5,3700.7z"/>
	<path fill="#888888" d="M6598.1,3775.5v-109.1h23.9v101.8c0,12.9,3,22,8.9,27.3c5.9,5.3,14.5,7.9,25.6,7.9c9.1,0,17.8-2.2,26.2-6.7
		c8.4-4.5,14.9-10,19.6-16.6v-113.7h23.9V3821h-23.9v-21.6c-6.5,7.3-14.5,13.3-24.2,18.2s-19.9,7.3-30.8,7.3
		C6614.5,3824.9,6598.1,3808.4,6598.1,3775.5z"/>
	<path fill="#888888" d="M6760.8,3800.2l12.3-17.3c5.5,6.2,12.9,11.5,22,15.7c9.2,4.2,18.8,6.4,28.9,6.4c11.6,0,20.6-2.4,27-7.3
		c6.4-4.9,9.6-11.3,9.6-19.1c0-5-1.8-9.2-5.3-12.6c-3.5-3.4-8.2-5.9-13.9-7.6c-5.7-1.6-11.9-3.4-18.6-5.3s-13.4-3.8-20.3-5.8
		c-6.9-2-13.1-4.4-18.7-7.4c-5.6-3-10.2-7.3-13.8-12.8c-3.5-5.5-5.3-12.2-5.3-19.8c0-12.7,5.1-23.3,15.4-31.9
		c10.3-8.6,24.3-12.9,42.1-12.9c23.2,0,42.2,7.6,57.3,22.8l-11.1,16.5c-4.8-5.8-11.3-10.5-19.5-14.1c-8.2-3.6-17.1-5.4-26.7-5.4
		c-10.3,0-18.6,2.4-24.9,7.2c-6.3,4.8-9.4,10.8-9.4,17.9c0,4.7,1.7,8.6,5.2,11.7s8,5.5,13.6,7c5.6,1.6,11.8,3.3,18.5,5.2
		c6.7,1.9,13.5,3.8,20.4,5.8c6.9,2,13.2,4.5,18.9,7.5s10.3,7.4,13.9,13.1c3.6,5.7,5.4,12.4,5.4,20.2c0,13.6-5.3,24.8-16,33.6
		c-10.6,8.8-25.6,13.3-44.9,13.3C6796.9,3824.9,6776.1,3816.6,6760.8,3800.2z"/>
	<path fill="#888888" d="M6902,3687.2v-20.8h25.8v-42.7h23.9v42.7h31.6v20.8h-31.6v96.3c0,6.1,1.3,10.9,4,14.5
		c2.7,3.6,6.5,5.4,11.6,5.4c7.2,0,12.7-2.1,16.4-6.4l7,17.9c-7,6.6-16.6,9.9-28.9,9.9c-11.2,0-19.7-3.2-25.4-9.5
		c-5.7-6.3-8.6-15.3-8.6-26.9v-101.3H6902z"/>
	<path fill="#888888" d="M7017.1,3821v-154.5h23.9v25c6.7-8.6,14.4-15.5,23.2-20.6c8.8-5.1,18.3-7.7,28.4-7.7v24.7
		c-2.8-0.6-6-0.9-9.7-0.9c-7.3,0-15.2,2.6-23.8,7.7c-8.5,5.1-14.6,10.8-18.1,17V3821H7017.1z"/>
	<path fill="#888888" d="M7099.5,3666.4h25.9l51.6,126.7l51.1-126.7h26.2l-77.3,185.9c-8.4,20.5-23.6,30.9-45.5,31.2
		c-6.5,0-12.3-0.7-17.7-2.2l3.9-21.7c3.9,1.7,8.2,2.5,13.1,2.5c5.6,0,10.2-1.2,13.8-3.5c3.5-2.3,6.6-6.6,9.2-12.7l10.3-23.4
		L7099.5,3666.4z"/>
</g>
</svg>
