<?xml version="1.0" encoding="utf-8"?>
<!-- Generator: Adobe Illustrator 21.1.0, SVG Export Plug-In . SVG Version: 6.00 Build 0)  -->
<svg version="1.1" id="Layer_1" xmlns="http://www.w3.org/2000/svg" xmlns:xlink="http://www.w3.org/1999/xlink" x="0px" y="0px"
	 viewBox="0 0 138 160" enable-background="new 0 0 138 160" xml:space="preserve">
<path fill="#3375BB" d="M65.4,1.2c2.1-1.6,5.1-1.6,7.2,0c22.6,17.6,48.5,17.5,58.2,17.4c0.5,0,0.9,0,1.3,0c1.6,0,3.1,0.6,4.2,1.8
	c1.1,1.1,1.7,2.7,1.7,4.2c-0.5,28.3-1.7,48.9-4,64.2c-2.4,15.4-6,26.1-11.5,34.2c-5.5,8.2-12.7,13.4-20.9,18.3
	c-2.8,1.7-5.6,3.3-8.6,5c-6.1,3.5-12.9,7.3-20.8,12.6c-2,1.3-4.5,1.3-6.5,0c-7.9-5.3-14.6-9.1-20.8-12.6c-3-1.7-5.8-3.3-8.6-5
	c-8.2-5-15.4-10.1-20.9-18.3C10,114.9,6.4,104.3,4,88.9C1.7,73.5,0.5,52.9,0,24.6c0-1.6,0.6-3.1,1.7-4.2c1.1-1.1,2.6-1.8,4.2-1.8
	c0.4,0,0.8,0,1.3,0C16.9,18.7,42.7,18.8,65.4,1.2z M11.9,30.4c0.5,25,1.7,43.1,3.8,56.6c2.2,14.5,5.4,23.3,9.6,29.4
	c4.1,6.1,9.4,10.2,17.2,14.8c2.4,1.4,5,2.9,7.8,4.5C55.7,139,62,142.6,69,147c7-4.5,13.3-8.1,18.8-11.2c2.9-1.6,5.5-3.1,7.8-4.5
	c7.8-4.7,13.1-8.7,17.2-14.8c4.1-6.1,7.3-14.9,9.6-29.4c2.1-13.5,3.3-31.6,3.8-56.6c-12-0.2-35.4-2-57.2-17.2
	C47.2,28.4,23.8,30.3,11.9,30.4z"/>
</svg>
