<svg id="SvgjsSvg1121" xmlns="http://www.w3.org/2000/svg" version="1.1" xmlns:xlink="http://www.w3.org/1999/xlink" xmlns:svgjs="http://svgjs.com/svgjs" width="22" height="18" viewBox="0 0 22 18"><title>Forma 1</title><desc>Created with Avocode.</desc><defs id="SvgjsDefs1122"></defs><path id="SvgjsPath1123" d="M956.631 5576.5C956.602 5576.46 956.552 5576.45 956.51 5576.47C955.89 5576.75 955.237 5576.95 954.5649999999999 5577.06C955.2779999999999 5576.52 955.81 5575.780000000001 956.083 5574.92C956.096 5574.88 956.082 5574.84 956.049 5574.81C956.015 5574.780000000001 955.9689999999999 5574.780000000001 955.932 5574.8C955.128 5575.28 954.2570000000001 5575.62 953.343 5575.81C952.5319999999999 5574.96 951.401 5574.4800000000005 950.2299999999999 5574.4800000000005C947.848 5574.4800000000005 945.911 5576.42 945.911 5578.81C945.911 5579.1 945.938 5579.39 945.9939999999999 5579.660000000001C942.6949999999999 5579.460000000001 939.6099999999999 5577.870000000001 937.5129999999999 5575.290000000001C937.4909999999999 5575.27 937.459 5575.250000000001 937.425 5575.250000000001C937.391 5575.260000000001 937.361 5575.280000000001 937.3439999999999 5575.300000000001C936.9609999999999 5575.960000000001 936.7589999999999 5576.720000000001 936.7589999999999 5577.480000000001C936.7589999999999 5578.810000000001 937.3609999999999 5580.050000000001 938.3849999999999 5580.870000000002C937.8579999999998 5580.810000000001 937.3419999999999 5580.640000000002 936.8779999999999 5580.380000000002C936.847 5580.370000000002 936.8079999999999 5580.370000000002 936.7769999999999 5580.380000000002C936.7449999999999 5580.400000000002 936.7259999999999 5580.430000000002 936.7249999999999 5580.470000000002L936.7239999999999 5580.5300000000025C936.7239999999999 5582.430000000002 937.977 5584.110000000002 939.761 5584.660000000003C939.2909999999999 5584.7400000000025 938.804 5584.7400000000025 938.3249999999999 5584.640000000002C938.289 5584.640000000002 938.252 5584.650000000002 938.228 5584.680000000002C938.204 5584.700000000003 938.1959999999999 5584.7400000000025 938.207 5584.7800000000025C938.742 5586.450000000003 940.227 5587.620000000003 941.956 5587.770000000002C940.514 5588.830000000003 938.809 5589.390000000002 937.008 5589.390000000002C936.676 5589.390000000002 936.342 5589.370000000002 936.014 5589.330000000002C935.967 5589.330000000002 935.921 5589.350000000002 935.905 5589.4000000000015C935.889 5589.440000000001 935.906 5589.490000000002 935.946 5589.520000000001C937.8960000000001 5590.770000000001 940.15 5591.440000000001 942.465 5591.440000000001C950.038 5591.440000000001 954.5640000000001 5585.270000000001 954.5640000000001 5579.300000000001C954.5640000000001 5579.140000000001 954.561 5578.970000000001 954.5540000000001 5578.810000000001C955.3710000000001 5578.210000000001 956.0720000000001 5577.470000000001 956.638 5576.620000000002C956.663 5576.590000000002 956.6610000000001 5576.530000000002 956.6310000000001 5576.500000000002Z " fill="#557a95" fill-opacity="1" transform="matrix(1,0,0,1,-935,-5574)"></path></svg>